<?xml version="1.0" encoding="UTF-8" standalone="no"?>
<!-- Created with Inkscape (http://www.inkscape.org/) -->

<svg
   width="300"
   height="800"
   viewBox="0 0 300 800"
   version="1.1"
   id="svg5"
   inkscape:version="1.2 (dc2aeda, 2022-05-15)"
   sodipodi:docname="coldhead.svg.2022_06_15_11_42_39.0.svg"
   xmlns:inkscape="http://www.inkscape.org/namespaces/inkscape"
   xmlns:sodipodi="http://sodipodi.sourceforge.net/DTD/sodipodi-0.dtd"
   xmlns:xlink="http://www.w3.org/1999/xlink"
   xmlns="http://www.w3.org/2000/svg"
   xmlns:svg="http://www.w3.org/2000/svg">
  <sodipodi:namedview
     id="namedview7"
     pagecolor="#505050"
     bordercolor="#eeeeee"
     borderopacity="1"
     inkscape:showpageshadow="0"
     inkscape:pageopacity="0"
     inkscape:pagecheckerboard="0"
     inkscape:deskcolor="#505050"
     inkscape:document-units="px"
     showgrid="false"
     inkscape:zoom="1.4080727"
     inkscape:cx="231.87723"
     inkscape:cy="306.80234"
     inkscape:window-width="1280"
     inkscape:window-height="772"
     inkscape:window-x="0"
     inkscape:window-y="28"
     inkscape:window-maximized="0"
     inkscape:current-layer="layer1">
    <inkscape:grid
       type="xygrid"
       id="grid869"
       originx="0"
       originy="0" />
  </sodipodi:namedview>
  <defs
     id="defs2">
    <linearGradient
       inkscape:collect="always"
       id="linearGradient8208">
      <stop
         style="stop-color:#777777;stop-opacity:1;"
         offset="0"
         id="stop8204" />
      <stop
         style="stop-color:#303030;stop-opacity:1;"
         offset="0.20096463"
         id="stop8212" />
      <stop
         style="stop-color:#4a4a4a;stop-opacity:1;"
         offset="0.39951769"
         id="stop8214" />
      <stop
         style="stop-color:#353535;stop-opacity:1;"
         offset="0.59847265"
         id="stop8216" />
      <stop
         style="stop-color:#3f3f3f;stop-opacity:1;"
         offset="0.79602093"
         id="stop8218" />
      <stop
         style="stop-color:#707070;stop-opacity:1;"
         offset="1"
         id="stop8206" />
    </linearGradient>
    <linearGradient
       inkscape:collect="always"
       id="linearGradient7901">
      <stop
         style="stop-color:#c99b07;stop-opacity:1;"
         offset="0"
         id="stop7897" />
      <stop
         style="stop-color:#997407;stop-opacity:1;"
         offset="0.20096463"
         id="stop7992" />
      <stop
         style="stop-color:#ba9d00;stop-opacity:1;"
         offset="0.39951769"
         id="stop7994" />
      <stop
         style="stop-color:#847006;stop-opacity:1;"
         offset="0.60490352"
         id="stop7996" />
      <stop
         style="stop-color:#da9b00;stop-opacity:1;"
         offset="0.79923636"
         id="stop7998" />
      <stop
         style="stop-color:#8d6407;stop-opacity:1;"
         offset="1"
         id="stop7899" />
    </linearGradient>
    <linearGradient
       inkscape:collect="always"
       id="linearGradient16706">
      <stop
         style="stop-color:#ff7412;stop-opacity:1;"
         offset="0"
         id="stop16702" />
      <stop
         style="stop-color:#d05500;stop-opacity:1;"
         offset="0.2652733"
         id="stop16805" />
      <stop
         style="stop-color:#ff7a22;stop-opacity:1;"
         offset="0.46061093"
         id="stop16807" />
      <stop
         style="stop-color:#ff8838;stop-opacity:1;"
         offset="0.67564309"
         id="stop16809" />
      <stop
         style="stop-color:#ffc79f;stop-opacity:1;"
         offset="0.9163987"
         id="stop16704" />
    </linearGradient>
    <linearGradient
       inkscape:collect="always"
       id="linearGradient31314">
      <stop
         style="stop-color:#b3b3b3;stop-opacity:1;"
         offset="0.07717042"
         id="stop31302" />
      <stop
         style="stop-color:#d2d2d2;stop-opacity:1;"
         offset="0.24919616"
         id="stop31304" />
      <stop
         style="stop-color:#9c9c9c;stop-opacity:1;"
         offset="0.40956593"
         id="stop31306" />
      <stop
         style="stop-color:#afafaf;stop-opacity:1;"
         offset="0.61816716"
         id="stop31308" />
      <stop
         style="stop-color:#d0d0d0;stop-opacity:1;"
         offset="0.77893889"
         id="stop31310" />
      <stop
         style="stop-color:#989898;stop-opacity:1;"
         offset="0.95498395"
         id="stop31312" />
    </linearGradient>
    <linearGradient
       inkscape:collect="always"
       id="linearGradient13900">
      <stop
         style="stop-color:#e4a562;stop-opacity:1;"
         offset="0.1607717"
         id="stop13888" />
      <stop
         style="stop-color:#b35d18;stop-opacity:0.98113215;"
         offset="0.38102895"
         id="stop13890" />
      <stop
         style="stop-color:#b34225;stop-opacity:1;"
         offset="0.6153537"
         id="stop13892" />
      <stop
         style="stop-color:#ea6245;stop-opacity:1;"
         offset="0.75"
         id="stop13894" />
      <stop
         style="stop-color:#ff8222;stop-opacity:1;"
         offset="0.87861735"
         id="stop13896" />
      <stop
         style="stop-color:#ff0e0a;stop-opacity:0.57232702;"
         offset="1"
         id="stop13898" />
    </linearGradient>
    <linearGradient
       inkscape:collect="always"
       id="linearGradient12420">
      <stop
         style="stop-color:#b3b3b3;stop-opacity:0.96226418;"
         offset="0.1607717"
         id="stop12416" />
      <stop
         style="stop-color:#b3b3b3;stop-opacity:0.49803922;"
         offset="0.38102895"
         id="stop12424" />
      <stop
         style="stop-color:#b3b3b3;stop-opacity:0.37254902;"
         offset="0.6153537"
         id="stop12428" />
      <stop
         style="stop-color:#b3b3b3;stop-opacity:0.0754717;"
         offset="0.75"
         id="stop12430" />
      <stop
         style="stop-color:#b3b3b3;stop-opacity:0.24705882;"
         offset="0.87861735"
         id="stop12426" />
      <stop
         style="stop-color:#b3b3b3;stop-opacity:0.87421381;"
         offset="1"
         id="stop12418" />
    </linearGradient>
    <filter
       inkscape:label="Metallized Paint"
       inkscape:menu="Materials"
       inkscape:menu-tooltip="Metallized effect with a soft lighting, slightly translucent at the edges"
       style="color-interpolation-filters:sRGB"
       id="filter629"
       x="-0.35323733"
       y="-0.17775084"
       width="1.7064747"
       height="1.3555017">
      <feGaussianBlur
         stdDeviation="1"
         result="result1"
         id="feGaussianBlur603" />
      <feComposite
         in="result1"
         in2="result1"
         result="result4"
         operator="in"
         id="feComposite605" />
      <feBlend
         in="result1"
         mode="screen"
         result="result5"
         in2="result4"
         id="feBlend607" />
      <feGaussianBlur
         stdDeviation="8"
         result="result6"
         in="result5"
         id="feGaussianBlur609" />
      <feComposite
         operator="atop"
         in="result6"
         in2="result5"
         result="result8"
         id="feComposite611" />
      <feComposite
         operator="in"
         result="fbSourceGraphic"
         in="result6"
         in2="result8"
         id="feComposite613" />
      <feGaussianBlur
         result="result0"
         in="fbSourceGraphic"
         stdDeviation="2.5"
         id="feGaussianBlur615" />
      <feSpecularLighting
         specularExponent="45"
         specularConstant="1.5"
         surfaceScale="1"
         lighting-color="#ffffff"
         result="result1"
         in="result0"
         id="feSpecularLighting619">
        <fePointLight
           z="21000"
           y="-9000"
           x="-6000"
           id="fePointLight617" />
      </feSpecularLighting>
      <feComposite
         operator="in"
         result="result2"
         in="result1"
         in2="fbSourceGraphic"
         id="feComposite621" />
      <feComposite
         k3="1"
         k2="1"
         operator="arithmetic"
         result="result4"
         in="fbSourceGraphic"
         in2="result2"
         id="feComposite623"
         k1="0"
         k4="0" />
      <feComposite
         operator="in"
         in2="result4"
         result="result91"
         id="feComposite625" />
      <feBlend
         mode="multiply"
         in2="result91"
         id="feBlend627" />
    </filter>
    <linearGradient
       inkscape:collect="always"
       xlink:href="#linearGradient12420"
       id="linearGradient12422"
       x1="136.54213"
       y1="221.64102"
       x2="169.81387"
       y2="221.38509"
       gradientUnits="userSpaceOnUse"
       gradientTransform="matrix(0.89548901,0,0,1.5628191,16.436808,-135.47549)" />
    <linearGradient
       inkscape:collect="always"
       xlink:href="#linearGradient13900"
       id="linearGradient13160"
       gradientUnits="userSpaceOnUse"
       x1="136.54213"
       y1="221.64102"
       x2="169.81387"
       y2="221.38509"
       gradientTransform="matrix(1.2916703,0,0,0.14160953,-44.320386,202.52207)" />
    <linearGradient
       inkscape:collect="always"
       xlink:href="#linearGradient13900"
       id="linearGradient15356"
       gradientUnits="userSpaceOnUse"
       gradientTransform="matrix(0.95454493,0,0,0.52480569,7.2128605,126.66842)"
       x1="136.54213"
       y1="221.64102"
       x2="169.81387"
       y2="221.38509" />
    <linearGradient
       inkscape:collect="always"
       xlink:href="#linearGradient12420"
       id="linearGradient16086"
       gradientUnits="userSpaceOnUse"
       x1="136.54213"
       y1="221.64102"
       x2="169.81387"
       y2="221.38509"
       gradientTransform="matrix(0.59990518,0,0,1.9949821,61.179588,-163.57728)" />
    <linearGradient
       inkscape:collect="always"
       xlink:href="#linearGradient13900"
       id="linearGradient19721"
       gradientUnits="userSpaceOnUse"
       gradientTransform="matrix(0.71685966,0,0,0.66850414,43.213375,155.13508)"
       x1="136.54213"
       y1="221.64102"
       x2="169.81387"
       y2="221.38509" />
    <linearGradient
       inkscape:collect="always"
       xlink:href="#linearGradient13900"
       id="linearGradient20451"
       gradientUnits="userSpaceOnUse"
       gradientTransform="matrix(0.86056232,0,0,0.10568558,20.998931,291.05174)"
       x1="136.54213"
       y1="221.64102"
       x2="169.81387"
       y2="221.38509" />
    <linearGradient
       inkscape:collect="always"
       xlink:href="#linearGradient13900"
       id="linearGradient27594"
       gradientUnits="userSpaceOnUse"
       gradientTransform="matrix(0.99373647,0,0,0.44098154,0.99388914,129.63336)"
       x1="136.54213"
       y1="221.64102"
       x2="169.81387"
       y2="221.38509" />
    <linearGradient
       inkscape:collect="always"
       xlink:href="#linearGradient31314"
       id="linearGradient31318"
       x1="134.83498"
       y1="185.42915"
       x2="171.70763"
       y2="185.42915"
       gradientUnits="userSpaceOnUse"
       gradientTransform="translate(0.88267932,4.8547362)" />
    <linearGradient
       inkscape:collect="always"
       xlink:href="#linearGradient16706"
       id="linearGradient16708"
       x1="105.97266"
       y1="386.48849"
       x2="219.56425"
       y2="385.79587"
       gradientUnits="userSpaceOnUse"
       gradientTransform="matrix(0.81326528,0,0,0.59720792,27.142616,106.97456)" />
    <clipPath
       clipPathUnits="userSpaceOnUse"
       id="clipPath2690">
      <path
         id="path2692"
         style="fill:#ff0000;fill-opacity:1;fill-rule:nonzero;stroke:none"
         d="m 112.17188,312.30859 v 51.3418 h 28.66406 c 0.4122,-0.22391 0.96068,-0.36523 1.65039,-0.36523 h 1.6582 1.23828 0.81446 c 0.0958,-0.005 0.15607,-0.005 0.20703,-0.006 8.4e-4,-2.9e-4 0.003,-0.002 0.004,-0.002 0.0415,-0.0139 0.10496,-0.0306 0.19922,-0.0547 0.39969,-0.0989 0.80454,-0.1668 1.21289,-0.2168 0.0702,-0.0289 1.01708,-0.0662 0.52539,-0.0469 0.2445,-0.0987 0.49991,-0.16506 0.75586,-0.22656 0.41771,-0.0892 0.84598,-0.10619 1.27149,-0.12109 -0.47792,0.032 0.86241,-0.21475 0.88281,-0.21875 0.37718,-0.0581 0.75787,-0.0959 1.13867,-0.11914 0.31817,-0.0189 0.63647,-0.0214 0.95508,-0.0234 0.39321,-0.002 0.78647,-10e-4 1.17969,-0.002 0.3897,-3.9e-4 0.78022,7e-5 1.16992,0 0.11616,-0.005 0.23089,-0.009 0.3457,-0.008 0.34444,0.002 0.68431,0.0299 1.0293,0.0781 0.26417,0.0674 0.51599,0.16792 0.78125,0.22852 0.13578,0.0162 0.27343,0.0243 0.41015,0.0312 0.15904,0.008 0.31737,0.0117 0.47657,0.0137 0.17283,10e-4 0.34669,0.002 0.51953,0.002 0.2314,2.7e-4 0.46196,-6e-5 0.69336,0 0.13675,2e-5 0.2734,-1e-5 0.41015,0 1.25751,9e-5 2.05171,0.46661 2.38672,1.05664 h 42.9336 v -51.3418 z" />
    </clipPath>
    <linearGradient
       inkscape:collect="always"
       xlink:href="#linearGradient7901"
       id="linearGradient7903"
       x1="176.27478"
       y1="341.81375"
       x2="205.71162"
       y2="322.07376"
       gradientUnits="userSpaceOnUse" />
    <linearGradient
       inkscape:collect="always"
       xlink:href="#linearGradient8208"
       id="linearGradient8210"
       x1="214.71584"
       y1="274.97479"
       x2="267.00952"
       y2="274.62848"
       gradientUnits="userSpaceOnUse"
       gradientTransform="matrix(0.12418304,0,0,0.12999995,171.86092,283.33832)" />
  </defs>
  <g
     inkscape:label="Layer 1"
     inkscape:groupmode="layer"
     id="layer1">
    <rect
       style="fill:url(#linearGradient8210);fill-opacity:1;stroke-width:1.67552;stroke-dasharray:0.837753, 0.837753"
       id="rect8202"
       width="6.5800033"
       height="4.5021043"
       x="198.43898"
       y="316.879" />
    <path
       id="path16306"
       style="fill:url(#linearGradient16708);fill-opacity:1;stroke:none;stroke-width:1.02934;stroke-dasharray:none;stroke-opacity:0.740425"
       inkscape:transform-center-x="0.11776544"
       inkscape:transform-center-y="-1.2894573"
       d="m 151.17188,312.30859 -39,9.72461 0.24218,0.24414 h -0.21289 v 11.99414 h 3.09766 v 3.31055 h 21.40429 v -0.084 l 38.86719,-0.1211 v 2.4961 l -48.06445,0.23437 -0.15234,0.16211 h -12.05469 v 3.10352 h -2.53516 v 12.4082 h 0.4961 l 31.89257,7.58984 v 0.27539 c 0.4076,-0.003 0.81508,-0.005 1.22266,-0.008 0.54107,-0.003 1.08197,-0.005 1.62305,-0.006 0.10511,-7.3e-4 0.2095,0.0139 0.31445,0.0176 0.0782,-0.0138 0.15614,-0.0294 0.23438,-0.043 0.8824,-0.18062 1.78035,-0.22626 2.67773,-0.25976 0.95668,-0.03 1.91207,-0.0447 2.86914,-0.0527 0.74603,-0.0613 1.4904,-0.14456 2.23437,-0.22656 0.55654,-0.0663 1.11594,-0.0908 1.67579,-0.10547 0.40603,1.6e-4 0.7988,-0.12586 1.19921,-0.19336 0.36655,-0.0616 0.73912,-0.0893 1.10938,-0.11719 0.10683,-0.008 0.2099,-0.0127 0.31055,-0.0137 0.44732,-0.005 0.8309,0.06 1.15429,0.17188 l 29.73438,-7.47461 -0.16797,-0.16797 v -12.82813 h 14.08008 v -7.44726 h -0.0664 l 0.32813,-10.51367 -9.01172,-0.0918 -0.32813,10.60547 h -5.00195 v -13.0293 h -0.71289 l 0.0684,-0.0742 z"
       clip-path="url(#clipPath2690)" />
    <path
       id="path16084"
       style="fill:url(#linearGradient16086);fill-opacity:1;stroke-width:1.09398"
       d="m 153.07215,243.10631 a 10.056716,9.9564797 0 0 0 -9.99451,8.93456 h -0.0621 v 1.02085 52.59036 h 0.0621 a 10.056716,9.9564797 0 0 0 -0.0621,1.02091 10.056716,9.9564797 0 0 0 10.05662,9.95932 10.056716,9.9564797 0 0 0 10.05661,-9.95932 10.056716,9.9564797 0 0 0 -0.0632,-1.02091 h 0.0632 v -52.59036 -1.02085 h -0.0632 a 10.056716,9.9564797 0 0 0 -9.99334,-8.93456 z m -10.2101,9.95541 0.15349,54.12557 z" />
    <path
       id="path6085"
       style="fill:url(#linearGradient12422);fill-opacity:1;stroke-width:1.183"
       d="m 153.60648,183.11031 a 15.011836,7.7996581 0 0 0 -14.91899,6.9991 h -0.0926 v 0.79972 41.19799 h 0.0926 a 15.011836,7.7996581 0 0 0 -0.0926,0.79973 15.011836,7.7996581 0 0 0 15.01168,7.80189 15.011836,7.7996581 0 0 0 15.01168,-7.80189 15.011836,7.7996581 0 0 0 -0.0945,-0.79973 h 0.0945 v -41.19799 -0.79972 h -0.0945 a 15.011836,7.7996581 0 0 0 -14.91724,-6.9991 z m -15.2408,7.79882 0.22912,42.40063 z" />
    <path
       id="path15354"
       style="fill:url(#linearGradient15356);fill-opacity:1;stroke-width:0.707778"
       d="m 153.42862,233.65173 a 16.001841,2.61918 0 0 0 -15.90287,2.35035 h -0.0988 v 0.26854 13.83458 h 0.0988 a 16.001841,2.61918 0 0 0 -0.0988,0.26854 16.001841,2.61918 0 0 0 16.00167,2.61995 16.001841,2.61918 0 0 0 16.00168,-2.61995 16.001841,2.61918 0 0 0 -0.10068,-0.26854 h 0.10068 v -13.83458 -0.26854 h -0.10068 a 16.001841,2.61918 0 0 0 -15.901,-2.35035 z m -16.24591,2.61889 0.24424,14.23846 z" />
    <path
       id="path27592"
       style="fill:url(#linearGradient27594);fill-opacity:1;stroke-width:0.661981"
       d="m 153.21296,219.52886 a 16.658844,2.2008337 0 0 0 -16.5558,1.97494 h -0.10286 v 0.22565 11.62486 h 0.10286 a 16.658844,2.2008337 0 0 0 -0.10286,0.22565 16.658844,2.2008337 0 0 0 16.65866,2.20148 16.658844,2.2008337 0 0 0 16.65868,-2.20148 16.658844,2.2008337 0 0 0 -0.10482,-0.22565 h 0.10482 v -11.62486 -0.22565 h -0.10482 a 16.658844,2.2008337 0 0 0 -16.55386,-1.97494 z m -16.91293,2.20059 0.25427,11.96423 z" />
    <path
       id="path13158"
       style="fill:url(#linearGradient13160);fill-opacity:1;stroke-width:0.427683"
       d="m 153.53574,231.38963 a 21.653357,0.70673939 0 0 0 -21.51943,0.6342 h -0.1337 v 0.0725 3.73302 h 0.1337 a 21.653357,0.70673939 0 0 0 -0.1337,0.0725 21.653357,0.70673939 0 0 0 21.65313,0.70694 21.653357,0.70673939 0 0 0 21.65314,-0.70694 21.653357,0.70673939 0 0 0 -0.13624,-0.0725 h 0.13624 v -3.73302 -0.0725 h -0.13624 a 21.653357,0.70673939 0 0 0 -21.5169,-0.6342 z m -21.98362,0.70666 0.33049,3.84199 z" />
    <path
       id="path19719"
       style="fill:url(#linearGradient19721);fill-opacity:1;stroke-width:0.69226"
       d="m 153.02086,291.41181 a 12.017322,3.3363448 0 0 0 -11.94299,2.9939 h -0.0742 v 0.34208 17.62266 h 0.0742 a 12.017322,3.3363448 0 0 0 -0.0742,0.34208 12.017322,3.3363448 0 0 0 12.01719,3.33732 12.017322,3.3363448 0 0 0 12.01721,-3.33732 12.017322,3.3363448 0 0 0 -0.0756,-0.34208 h 0.0756 v -17.62266 -0.34208 h -0.0756 a 12.017322,3.3363448 0 0 0 -11.94159,-2.9939 z m -12.20061,3.33598 0.18342,18.13711 z" />
    <path
       id="path31294"
       style="fill:url(#linearGradient31318);fill-opacity:1;stroke-width:0.946255"
       d="m 154.29356,175.1662 a 18.296839,4.0943053 0 0 0 -18.18368,3.67407 h -0.11286 v 0.4198 21.62622 h 0.11286 a 18.296839,4.0943053 0 0 0 -0.11286,0.4198 18.296839,4.0943053 0 0 0 18.29665,4.09548 18.296839,4.0943053 0 0 0 18.29664,-4.09548 18.296839,4.0943053 0 0 0 -0.11517,-0.4198 h 0.11517 v -21.62622 -0.4198 h -0.11517 a 18.296839,4.0943053 0 0 0 -18.18155,-3.67407 z m -18.57591,4.09387 0.27926,22.25753 z" />
    <path
       id="path20449"
       style="fill:url(#linearGradient20451);fill-opacity:1;stroke-width:0.301576"
       d="m 152.81858,312.59611 a 14.426331,0.52745161 0 0 0 -14.33711,0.47332 h -0.0891 v 0.054 2.78601 h 0.0891 a 14.426331,0.52745161 0 0 0 -0.0891,0.0542 14.426331,0.52745161 0 0 0 14.42618,0.5276 14.426331,0.52745161 0 0 0 14.42618,-0.5276 14.426331,0.52745161 0 0 0 -0.0908,-0.0542 h 0.0908 v -2.78601 -0.054 h -0.0908 a 14.426331,0.52745161 0 0 0 -14.33541,-0.47332 z m -14.64637,0.52739 0.22019,2.86735 z" />
    <path
       id="rect6376"
       style="fill:url(#linearGradient7903);fill-opacity:1;stroke-width:1.13633;stroke-dasharray:0.568158, 0.568158"
       d="m 195.77116,319.99656 v 13.85156 H 175.2358 v 9.69726 h 20.53536 10.63372 v -9.69726 -13.85156 z" />
    <path
       style="fill:none;fill-opacity:1;stroke-width:1.323;stroke-dasharray:0.661498, 0.661498;stroke:none"
       d="m 202.94109,317.57164 -0.69263,-6.23368 -4.15579,-1.73158 -4.15579,-0.34632 -6.23368,-0.69263 -8.31158,-0.34631 h -8.6579 l -5.54105,-0.34632 -7.27264,-1.03895 -6.23368,-0.69263 -4.84843,-0.69263 -4.84842,-1.38526 -1.38526,-1.38527 -0.69263,-1.38526 1.03895,-1.03895"
       id="path8358" />
    <path
       style="fill:none;fill-opacity:1;stroke:#000000;stroke-width:1.323;stroke-dasharray:none;stroke-opacity:1"
       d="m 202.59478,317.91796 -5.54106,-5.54105 -4.84842,-1.38527 -12.46737,-0.34631 -9.69684,-0.34632 -27.01264,-0.34631 -2.42421,-2.0779"
       id="path8461" />
    <path
       style="fill:none;fill-opacity:1;stroke:#000000;stroke-width:1.3743;stroke-dasharray:none;stroke-opacity:1"
       d="m 165.53074,306.84084 -20.84453,-0.34768 -4.09447,-2.08611"
       id="path9923" />
    <path
       style="fill:none;fill-opacity:1;stroke:#000000;stroke-width:1.3743;stroke-dasharray:none;stroke-opacity:1"
       d="m 165.53074,303.03137 -20.84453,-0.34768 -4.09447,-2.08611"
       id="path9925" />
    <path
       style="fill:none;fill-opacity:1;stroke:#000000;stroke-width:1.3743;stroke-dasharray:none;stroke-opacity:1"
       d="m 165.53074,298.52927 -20.84453,-0.34768 -4.09447,-2.08611"
       id="path9927" />
    <path
       style="fill:none;fill-opacity:1;stroke:#000000;stroke-width:1.323;stroke-dasharray:none;stroke-opacity:1"
       d="m 164.84635,294.36848 10.38948,-1.38526 10.04316,-3.80948 12.12105,-6.23368 11.42842,-8.31158 9.35053,-8.6579 4.84842,-9.00421"
       id="path9929" />
  </g>
</svg>
