<?xml version="1.0" encoding="UTF-8" standalone="no"?>
<svg
   width="550"
   height="500"
   version="1.1"
   id="svg5"
   sodipodi:docname="hendi-exterior-draft.svg"
   inkscape:version="1.2 (dc2aedaf03, 2022-05-15)"
   xml:space="preserve"
   xmlns:inkscape="http://www.inkscape.org/namespaces/inkscape"
   xmlns:sodipodi="http://sodipodi.sourceforge.net/DTD/sodipodi-0.dtd"
   xmlns:xlink="http://www.w3.org/1999/xlink"
   xmlns="http://www.w3.org/2000/svg"
   xmlns:svg="http://www.w3.org/2000/svg"><sodipodi:namedview
     id="namedview217"
     pagecolor="#ffffff"
     bordercolor="#000000"
     borderopacity="0.25"
     inkscape:showpageshadow="2"
     inkscape:pageopacity="0.0"
     inkscape:pagecheckerboard="0"
     inkscape:deskcolor="#d1d1d1"
     showgrid="false"
     inkscape:zoom="13.689964"
     inkscape:cx="21.512109"
     inkscape:cy="282.50621"
     inkscape:window-width="1538"
     inkscape:window-height="878"
     inkscape:window-x="55"
     inkscape:window-y="-6"
     inkscape:window-maximized="1"
     inkscape:current-layer="g5057" /><defs
     id="defs2"><linearGradient
       id="linearGradient3651"><stop
         style="stop-color:#000;stop-opacity:1"
         offset="0"
         id="stop3649" /></linearGradient><linearGradient
       id="linearGradient898"><stop
         style="stop-color:#000;stop-opacity:1"
         offset="0"
         id="stop896" /></linearGradient><linearGradient
       id="linearGradient4079"><stop
         style="stop-color:#000;stop-opacity:1"
         offset="0"
         id="stop4077" /></linearGradient><linearGradient
       id="linearGradient4073"><stop
         style="stop-color:#000;stop-opacity:1"
         offset="0"
         id="stop4071" /></linearGradient><linearGradient
       id="linearGradient4067"><stop
         style="stop-color:#000;stop-opacity:1"
         offset="0"
         id="stop4065" /></linearGradient><linearGradient
       id="linearGradient4061"><stop
         style="stop-color:#000;stop-opacity:1"
         offset="0"
         id="stop4059" /></linearGradient><linearGradient
       id="linearGradient4055"><stop
         style="stop-color:#000;stop-opacity:1"
         offset="0"
         id="stop4053" /></linearGradient><linearGradient
       id="linearGradient4049"><stop
         style="stop-color:#000;stop-opacity:1"
         offset="0"
         id="stop4047" /></linearGradient><linearGradient
       id="linearGradient4043"><stop
         style="stop-color:#000;stop-opacity:1"
         offset="0"
         id="stop4041" /></linearGradient><linearGradient
       id="linearGradient4037"><stop
         style="stop-color:#000;stop-opacity:1"
         offset="0"
         id="stop4035" /></linearGradient><linearGradient
       id="linearGradient4031"><stop
         style="stop-color:#000;stop-opacity:1"
         offset="0"
         id="stop4029" /></linearGradient><linearGradient
       id="linearGradient4025"><stop
         style="stop-color:#000;stop-opacity:1"
         offset="0"
         id="stop4023" /></linearGradient><linearGradient
       id="linearGradient4019"><stop
         style="stop-color:#000;stop-opacity:1"
         offset="0"
         id="stop4017" /></linearGradient><linearGradient
       id="linearGradient4013"><stop
         style="stop-color:#000;stop-opacity:1"
         offset="0"
         id="stop4011" /></linearGradient><linearGradient
       id="linearGradient3281"><stop
         style="stop-color:#000;stop-opacity:1"
         offset="0"
         id="stop3279" /></linearGradient><linearGradient
       xlink:href="#linearGradient6292"
       id="linearGradient6312"
       x1="185.06396"
       y1="307.84872"
       x2="185.30064"
       y2="271.59473"
       gradientUnits="userSpaceOnUse"
       spreadMethod="reflect"
       gradientTransform="translate(80.653335,-0.84651185)" /><linearGradient
       id="linearGradient6292"><stop
         style="stop-color:#fd5;stop-opacity:1"
         offset="0"
         id="stop6288" /><stop
         style="stop-color:#ff0b0b;stop-opacity:.79874212"
         offset=".34793249"
         id="stop6290" /></linearGradient><path
       id="rect1769"
       d="M22.105741 415.87717h21.899146v53.50829H22.105741z" /><path
       id="rect1763"
       d="M21.69255 411.53866h20.24638v55.987438H21.69255z" /><path
       id="rect1753"
       d="M24.171699 418.35632h17.973827v49.789567H24.171699z" /><path
       id="rect1085"
       d="M29.729289 398.83578h29.729289v67.95266H29.729289z" /></defs><g
     inkscape:groupmode="layer"
     id="hendi"
     inkscape:label="hendi"><path
       style="display:inline;fill:#cccccc"
       d="m 126.29706,394.555 h -1.52916 c -0.38902,0 -0.59649,0 -1.55616,0.10369 -0.95967,0.10369 -2.67133,0.31116 -4.48698,0.82981 -1.81564,0.51865 -3.73478,1.34855 -5.08374,2.64565 -1.34895,1.29709 -2.12698,3.06062 -2.74939,5.13558 -0.62242,2.07496 -1.08923,4.4609 -1.29663,7.9882 -0.2074,3.52729 -0.15553,8.19546 0.15592,11.25588 0.31146,3.06041 0.88201,4.51273 3.6833,5.34206 2.80129,0.82933 7.83254,1.03681 24.79415,1.1924 16.9616,0.15559 45.85236,0.25932 60.32398,0.31119 14.47161,0.0519 14.52345,0.0519 14.54888,1.73816 0.0254,1.6863 0.0254,5.05775 0.0513,6.63962 0.0258,1.58187 0.0777,1.3744 -15.58662,1.37405 -15.66433,-3.6e-4 -47.04477,0.20712 -63.61702,0.10351 -16.57225,-0.1036 -18.33577,-0.51855 -20.12531,-0.88168 -1.78953,-0.36313 -3.60493,-0.67434 -5.57603,-1.76325 -1.9711,-1.08891 -4.09771,-2.95618 -5.4727,-5.93862 -1.375,-2.98244 -1.99742,-7.08005 -2.33465,-10.84068 -0.33723,-3.76064 -0.3891,-7.18396 -0.2854,-10.89271 0.10371,-3.70875 0.36305,-7.70263 1.40048,-10.65966 1.03743,-2.95704 2.85282,-4.87617 4.43494,-6.35453 1.58211,-1.47836 2.93069,-2.51573 4.56476,-3.47538 1.63406,-0.95964 3.5532,-1.84141 5.47259,-2.41193 1.91939,-0.57052 3.83853,-0.82987 5.57625,-0.95948 1.73772,-0.12962 3.29377,-0.12962 4.84886,-0.12962"
       id="tube3"
       transform="translate(0.30381812,-0.03934207)" /><path
       id="tube2"
       style="display:inline;fill:#cccccc"
       d="m 261.7105,379.99529 c -2.69323,0.0178 -5.5951,0.23648 -8.40234,0.57617 -3.74301,0.45292 -7.31854,1.12097 -10.29883,2.16992 -2.98029,1.04896 -5.36436,2.47921 -7.36719,4.50586 -2.00282,2.02665 -3.62371,4.64898 -4.625,6.91406 -1.00129,2.26509 -1.38275,4.17125 -1.62109,6.7461 -0.23834,2.57483 -0.3332,5.8167 -0.38086,9.03515 -0.0477,3.21846 -0.0483,6.41341 -0.0723,8.08203 -0.0239,1.66864 -0.0705,1.812 1.52735,1.85938 1.59786,0.0474 4.8382,3.5e-4 6.43554,-0.0234 1.59735,-0.0238 1.55014,-0.0235 1.50196,-2.47851 -0.0482,-2.45503 -0.0958,-7.36621 0.26171,-11.22852 0.35751,-3.86231 1.12168,-6.67556 2.12305,-8.75 1.00137,-2.07444 2.24002,-3.40908 3.74219,-4.50586 1.50216,-1.09678 3.26591,-1.95673 4.74414,-2.55273 1.47823,-0.59601 2.67035,-0.9285 4.60156,-1.11914 1.93122,-0.19064 4.60122,-0.23789 6.00781,-0.26172 1.40661,-0.0238 1.55028,-0.0243 2.50391,0.0234 0.95363,0.0477 2.71805,0.14185 4.7207,0.52344 2.00266,0.38159 4.24271,1.05008 5.72071,1.76563 1.47799,0.71554 2.19442,1.47896 3.05273,2.26562 0.85832,0.78666 1.85814,1.59593 2.52539,2.38281 0.66725,0.7869 1.00135,1.55012 1.16797,2.28907 0.16662,0.73894 0.16602,1.45376 0.16602,2.16797 l 0.78711,0.0801 h 0.36914 c 0.17613,-0.005 0.35124,-0.0155 0.52734,-0.0215 0.15119,-0.005 0.30186,-0.008 0.45313,-0.01 0.1112,-10e-4 0.22274,-0.002 0.33398,-0.002 0.11122,-2.3e-4 0.22276,5e-5 0.33398,0 0.10565,-3e-5 0.21076,0 0.31641,0 0.12184,-1e-5 0.24339,0 0.36523,0 h 0.77735 c 0.12105,-0.003 0.24262,0.008 0.36328,0.0156 0.10877,0.007 0.21718,0.01 0.32617,0.0117 0.11193,0.002 0.22399,0.004 0.33594,0.004 0.14737,3.8e-4 0.29406,-9e-5 0.4414,0 0.11272,6e-5 0.22519,-1e-5 0.3379,0 0.10338,10e-4 0.20752,-0.0106 0.31054,-0.0176 0.12217,-0.008 0.24483,-0.0126 0.36719,-0.01 0.13697,0.0109 0.27329,0.0289 0.41016,0.041 0.10501,0.008 0.20918,0.0126 0.31445,0.0156 0.11819,0.002 0.23726,0.004 0.35547,0.004 0.11926,0.004 0.23746,-0.0152 0.35547,-0.0293 0.0922,-0.009 0.18368,-0.0183 0.27539,-0.0273 0.0284,-1.4481 -0.003,-2.89895 -0.44531,-4.36718 -0.52411,-1.74025 -1.62038,-3.50435 -3.28907,-5.55469 -1.66869,-2.05034 -3.91043,-4.38725 -5.86523,-5.96094 -1.9548,-1.57369 -3.62423,-2.38463 -5.86524,-3.07617 -2.241,-0.69155 -5.05247,-1.26266 -8.41406,-1.42969 -0.8404,-0.0418 -1.71554,-0.0587 -2.61328,-0.0527 z m 21.69922,20.75976 0.21484,0.0215 c 0.007,-0.005 0.0216,-0.004 0.0352,0 0.0889,-0.004 0.17906,-0.007 0.26758,-0.0156 0.0196,-0.002 0.039,-0.004 0.0586,-0.006 h -0.33203 z"
       transform="translate(0.30381812,-0.03934207)" /><path
       style="display:inline;fill:#cccccc"
       d="m 255.35398,429.23777 c 17.89236,-0.0461 35.78372,-0.0922 45.76676,-0.4151 9.98305,-0.32289 12.05803,-0.92233 13.80994,-2.0289 1.7519,-1.10658 3.18133,-2.72045 4.91055,-4.65717 1.72921,-1.93672 3.75809,-4.19615 6.50196,-6.34048 2.74386,-2.14434 6.20217,-4.17322 10.72141,-5.71795 4.51924,-1.54474 10.09865,-2.60529 15.12495,-3.27387 5.0263,-0.66858 9.49905,-0.94524 15.05561,-1.15273 5.55656,-0.20749 12.19652,-0.34582 18.145,-0.39191 5.94848,-0.0461 11.20512,1e-5 15.19388,0.27679 3.98876,0.27677 6.7093,0.78399 9.19939,1.56808 2.49008,0.78409 4.74951,1.84464 6.77836,3.22821 2.02884,1.38358 3.82716,3.08967 4.91047,4.54232 1.0833,1.45264 1.45219,2.65153 1.63645,4.15008 0.18426,1.49855 0.18426,3.29687 0.11509,4.26472 -0.0692,0.96785 -0.2075,1.10618 -1.70566,1.17534 -1.49816,0.0692 -4.35703,0.0692 -5.787,-0.0456 -1.42996,-0.11478 -1.42996,-0.34533 -1.476,-0.82946 -0.046,-0.48413 -0.13827,-1.2219 -0.25353,-2.05191 -0.11527,-0.83002 -0.25361,-1.75223 -0.71423,-2.46716 -0.46063,-0.71492 -1.24452,-1.22214 -2.30508,-1.70648 -1.06056,-0.48435 -2.39778,-0.94546 -3.66598,-1.15319 -1.26821,-0.20773 -2.46709,-0.16162 -4.1732,-0.18463 -1.70612,-0.023 -3.91944,-0.11524 -7.83903,-0.0692 -3.91959,0.0461 -9.54511,0.23052 -16.41586,0.50719 -6.87074,0.27667 -14.98624,0.64556 -20.49664,0.94527 -5.51041,0.29972 -8.41538,0.53027 -10.46741,0.73775 -2.05203,0.20747 -3.25091,0.39192 -4.51912,0.71466 -1.26821,0.32275 -2.60543,0.78386 -3.6894,1.52182 -1.08397,0.73795 -1.91396,1.75239 -2.60555,2.49009 -0.69159,0.7377 -1.24492,1.19881 -1.89061,1.93673 -0.64568,0.73793 -1.38345,1.75237 -2.19037,2.74372 -0.80692,0.99134 -1.68303,1.95968 -2.85885,3.11243 -1.17582,1.15276 -2.65136,2.48997 -4.8875,3.57354 -2.23614,1.08356 -5.23335,1.91356 -7.93087,2.5822 -2.69751,0.66864 -5.09527,1.17585 -7.60829,1.49869 -2.51303,0.32284 -5.14135,0.46117 -14.31772,0.59953 -9.17637,0.13836 -24.90016,0.27669 -40.62526,0.41503"
       id="tube1"
       transform="translate(0.30381812,-0.03934207)" /><g
       id="g5057"
       transform="matrix(0.79225,0,0,1,-40.646741,-18.262819)"
       inkscape:label="laser"><path
         style="display:inline;opacity:0.24;fill:#ffd42a;fill-opacity:1;stroke-width:1.22959"
         id="rect5049"
         d="M 80.945892,295.06836 H 592.53241 v 4.45089 H 80.945892 Z" /><path
         style="fill:url(#linearGradient6312);fill-opacity:1"
         id="rect5053"
         d="M 80.653328,295.83441 H 592.23985 v 2.94391 H 80.653328 Z" /><path
         style="display:inline;fill:#ffd42a;stroke:#000000;stroke-width:1.12349;stroke-opacity:1;paint-order:markers stroke fill"
         d="m 87.624998,305.00336 -22.568632,0.006 11.278005,-15.488 z"
         id="path4004" /><ellipse
         style="fill:#ff0000;stroke-width:0"
         cx="74.275681"
         cy="300.1514"
         rx="2.2644367"
         ry="1.687"
         id="ellipse4006" /><path
         style="fill:#ff0000;stroke-width:0"
         d="m 68.969272,299.96336 h 15.548121 v 0.402 H 68.969272 Z"
         id="path4008" /><path
         style="fill:#ff0000;stroke-width:0"
         d="m 74.064396,304.23836 -0.01551,-8.245 0.507284,-0.009 0.01551,8.245 z"
         id="path4010" /><path
         style="fill:#ff0000;stroke-width:0"
         d="m 67.99357,297.24436 c -0.0025,0 -0.0076,0 -0.0101,0.002 a 0.02524456,0.02 0 0 0 -0.01262,0.014 v 0.004 c 0.0101,-0.002 0.0202,-0.012 0.02777,-0.02 z m 1.922372,0.705 a 2.9283685,2.32 0 0 0 -0.126223,0.135 1.4717576,1.166 0 0 0 -0.08583,0.132 l 9.575259,4.184 0.07195,-0.068 a 0.90880402,0.72 0 0 0 0.117387,-0.123 l 0.05049,-0.06 z"
         id="path4012" /><path
         style="fill:#ff0000;stroke-width:0"
         d="m 70.766684,295.07436 -0.01641,0.013 -0.01262,-0.019 z m 1.224361,1.217 5.276112,7.653 c -0.04292,0.01 -0.08331,0.023 -0.126223,0.035 a 1.080467,0.856 0 0 0 -0.20953,0.073 l -5.259703,-7.627 a 1.7418744,1.38 0 0 1 0.05806,-0.033 c 0.03282,-0.02 0.06311,-0.04 0.10224,-0.05 0.05428,-0.015 0.106027,-0.031 0.157778,-0.05 z m 5.989271,8.687 0.02146,0.032 -0.05301,-0.013 a 0.19438308,0.154 0 0 0 0.03156,-0.02 z"
         id="path4014" /><path
         style="fill:#ff0000;stroke-width:0"
         d="m 80.856933,296.94736 c 0.0088,0.008 0.01893,0.017 0.03029,0.018 v -0.004 a 0.0227201,0.018 0 0 0 -0.01515,-0.012 c -0.0025,-0.001 -0.0088,-0.003 -0.0101,-0.002 z m -1.900915,0.82 -9.449037,4.766 c 0.01767,0.02 0.03787,0.037 0.0568,0.057 0.03913,0.04 0.07952,0.08 0.130009,0.113 l 0.08204,0.064 9.425055,-4.75 a 1.4389397,1.14 0 0 0 -0.100978,-0.125 2.870306,2.274 0 0 0 -0.143894,-0.125 z"
         id="path4016" /><path
         style="fill:#ff0000;stroke-width:0"
         d="m 77.97148,295.07436 0.01641,0.013 0.01262,-0.019 z m -1.224361,1.217 -5.276112,7.653 c 0.04292,0.01 0.08331,0.023 0.126223,0.035 a 1.1486273,0.91 0 0 1 0.209529,0.073 l 5.259704,-7.627 a 1.7418744,1.38 0 0 0 -0.05806,-0.033 c -0.03282,-0.02 -0.06311,-0.04 -0.10224,-0.05 a 1.7103187,1.355 0 0 1 -0.157779,-0.05 z m -5.989271,8.687 -0.02146,0.032 0.05301,-0.013 a 0.19438308,0.154 0 0 1 -0.03156,-0.02 z"
         id="path4018" /><path
         style="display:inline;fill:#ff0000;stroke-width:0"
         d="m 73.612642,297.26081 -0.03482,0.004 -0.09178,0.0137 c -0.03573,0.008 -0.06971,0.0216 -0.103758,0.031 -0.04498,0.0113 -0.08961,0.0236 -0.137041,0.0279 a 1.6654925,1.0060893 24.814857 0 1 -0.121497,0.006 l 2.053093,5.85855 0.532549,0.0496 z"
         id="path4020" /><path
         style="display:inline;fill:#ff0000;stroke-width:0"
         d="m 70.479762,299.08528 8.44e-4,0.006 0.0013,2.9e-4 -7.03e-4,-0.005 z m 0.05414,0.012 c 7.03e-4,0.005 -0.0025,0.009 -0.0029,0.0154 l 0.0026,5.8e-4 -7.03e-4,-0.005 0.001,-0.002 c -7.03e-4,-0.005 1.65e-4,-0.008 0.0025,-0.009 z m 0.02578,0.006 -0.0017,0.006 c 0.0017,0.0124 0.0019,0.0234 0.0011,0.0353 l -0.0083,0.0312 a 0.32751838,0.21188844 31.2475 0 1 -0.01631,0.0454 c -0.0053,0.007 -0.0069,0.0135 -0.0095,0.0219 a 0.20893414,0.13517021 31.247499 0 0 -0.01544,0.0426 l -0.0083,0.0312 a 0.44186746,0.28586673 31.2475 0 1 -0.0065,0.0256 c 0.0039,8.6e-4 0.0093,0.004 0.0091,0.012 0.0017,0.0124 -0.0016,0.0247 -0.0025,0.0365 l 8.44e-4,0.006 3.98e-4,0.0121 c -0.0023,0.0105 -0.01064,0.0136 -0.01837,0.0119 l 5.63e-4,0.004 c 0.0014,0.0103 5.15e-4,0.0221 -5.16e-4,0.0329 l 0.0011,0.0353 7.991266,1.77334 -0.05338,-0.40997 z m -0.08046,0.1892 0.0011,0.008 a 0.04799839,0.03105262 31.247501 0 1 0.0015,-0.008 z"
         id="path4022" /><path
         style="display:inline;fill:#ff0000;stroke-width:0"
         d="m 75.709489,296.98367 -0.53388,0.0497 -2.178693,6.21695 0.531847,-0.0476 z"
         id="path4024" /><path
         style="display:inline;fill:#ff0000;stroke-width:0"
         d="m 71.937119,297.75643 c -0.005,10e-4 -0.007,0.004 -0.0086,0.006 a 4.8647279,2.5799957 7.9502074 0 1 -0.128224,0.0767 c -0.03336,0.0188 -0.06547,0.0372 -0.103349,0.0522 -0.0011,0.003 -0.0021,0.007 -0.0062,0.009 l -0.03497,0.0203 c -0.01168,0.004 -0.01973,0.0118 -0.03049,0.017 l -0.01973,0.0118 c -0.0073,0.005 -0.01902,0.01 -0.02727,0.014 l -0.02315,0.0118 -0.0156,0.01 5.465224,4.63507 0.501361,-0.14268 z"
         id="path4026" /><path
         style="display:inline;fill:#ff0000;stroke-width:0"
         d="m 71.937119,297.75643 c -0.005,10e-4 -0.007,0.004 -0.0086,0.006 a 4.8647279,2.5799957 7.9502074 0 1 -0.128224,0.0767 c -0.03336,0.0188 -0.06547,0.0372 -0.103349,0.0522 -0.0011,0.003 -0.0021,0.007 -0.0062,0.009 l -0.03497,0.0203 c -0.01168,0.004 -0.01973,0.0118 -0.03049,0.017 l -0.01973,0.0118 c -0.0073,0.005 -0.01902,0.01 -0.02727,0.014 l -0.02315,0.0118 -0.0156,0.01 5.465224,4.63507 0.501361,-0.14268 z"
         id="path4028" /><path
         style="display:inline;fill:#ff0000;stroke-width:0"
         d="m 78.467337,299.05452 -7.993701,1.81303 -0.05307,0.41183 7.996274,-1.81362 z"
         id="path4030" /><path
         style="display:inline;fill:#ff0000;stroke-width:0"
         d="m 77.158571,297.61107 -5.652886,4.73462 0.229014,0.37361 5.652547,-4.73292 z"
         id="path4032" /></g><path
       style="display:inline;fill:#999999;stroke:#000000;stroke-width:0.999808;stroke-linecap:square;stroke-linejoin:miter;stroke-miterlimit:4;stroke-dasharray:none;stroke-opacity:1;paint-order:markers stroke fill"
       id="rect274-3-9-9-1"
       d="m 224.3979,259.65338 h 24.00019 v 39.00019 H 224.3979 Z" /><rect
       style="display:inline;fill:#999999;stroke:#000000;stroke-width:0.999801;stroke-linecap:square;stroke-linejoin:miter;stroke-miterlimit:4;stroke-dasharray:none;stroke-opacity:1;paint-order:markers stroke fill"
       id="rect274-3-9-9-1-8"
       width="59.000202"
       height="84.000198"
       x="424.39789"
       y="109.65339"
       ry="0"
       onmouseover="document.getElementById('source-chamber').style.fill = '#FFFF00';"
       onmouseout="document.getElementById('source-chamber').style.fill = '#999999';" /><rect
       style="display:inline;fill:#999999;stroke:#000000;stroke-width:1.00002;stroke-linecap:square;stroke-linejoin:miter;stroke-miterlimit:4;stroke-dasharray:none;stroke-opacity:1;paint-order:markers stroke fill"
       id="rect274-3-9-9-1-8-5"
       width="38.999985"
       height="118.99998"
       x="154.39801"
       y="109.65349"
       ry="0" /><rect
       style="display:inline;fill:#999999;stroke:#000000;stroke-width:1.00004;stroke-linecap:square;stroke-linejoin:miter;stroke-miterlimit:4;stroke-dasharray:none;stroke-opacity:1;paint-order:markers stroke fill"
       id="rect274-3-9-9-1-8-5-5"
       width="68.999954"
       height="28.999954"
       x="269.39801"
       y="194.6535"
       ry="0" /><rect
       style="display:inline;fill:#999999;stroke:#000000;stroke-width:0.999905;stroke-linecap:square;stroke-linejoin:miter;stroke-miterlimit:4;stroke-dasharray:none;stroke-opacity:1;paint-order:markers stroke fill"
       id="rect274-3-9-9-1-8-5-5-5"
       width="79.000092"
       height="4.0000949"
       x="264.39795"
       y="189.65343"
       ry="0" /><rect
       style="display:inline;fill:#999999;stroke:#000000;stroke-width:0.999904;stroke-linecap:square;stroke-linejoin:miter;stroke-miterlimit:4;stroke-dasharray:none;stroke-opacity:1;paint-order:markers stroke fill"
       id="rect274-3-9-9-1-8-5-5-2"
       width="14.000096"
       height="11.000097"
       x="296.89795"
       y="177.65344"
       ry="0" /><rect
       style="display:inline;fill:#999999;stroke:#000000;stroke-width:0.999963;stroke-linecap:square;stroke-linejoin:miter;stroke-miterlimit:4;stroke-dasharray:none;stroke-opacity:1;paint-order:markers stroke fill"
       id="rect274-3-9-9-1-8-5-5-6"
       width="69.000038"
       height="29.000036"
       x="269.39798"
       y="334.65344"
       ry="0" /><rect
       style="display:inline;fill:#999999;stroke:#000000;stroke-width:0.999983;stroke-linecap:square;stroke-linejoin:miter;stroke-miterlimit:4;stroke-dasharray:none;stroke-opacity:1;paint-order:markers stroke fill"
       id="rect274-3-9-9-1-8-5-5-6-4"
       width="39.000015"
       height="34.001369"
       x="154.39799"
       y="329.65347"
       ry="0" /><path
       style="display:inline;fill:#999999;stroke:#000000;stroke-width:0.999808;stroke-linecap:square;stroke-linejoin:miter;stroke-miterlimit:4;stroke-dasharray:none;stroke-opacity:1;paint-order:markers stroke fill"
       id="rect274-3-9-9-1-4"
       d="m 359.39792,259.65338 h 24.00019 v 39.00019 h -24.00019 z" /><path
       style="display:inline;fill:#999999;stroke:#000000;stroke-width:0.999808;stroke-linecap:square;stroke-linejoin:miter;stroke-miterlimit:4;stroke-dasharray:none;stroke-opacity:1;paint-order:markers stroke fill"
       id="rect274-3-9-9-1-7"
       d="M 99.397911,259.65338 H 123.3981 v 39.00019 H 99.397911 Z" /><g
       id="rotary-pump"
       transform="translate(0.30381812,-0.03934207)"
       style="display:inline"
       inkscape:label="rotary-pump"><path
         id="rect3645"
         style="display:inline;fill:#999;fill-opacity:1;stroke-width:1;stroke:#000;stroke-opacity:1;stroke-dasharray:none;paint-order:markers stroke fill"
         d="M227.59071 418.96317v1.80664h.77344v8.23242h-13.62109v-.60156h-1.7168v11.75586h1.7168v-.73828h13.62109v19.91797h-29.17773v13.21093l-.08985.00196v-8.44531s-20.07226 2.15212-20.07226 5.01953c0 1.37366-.03408 2.79685-.06836 3.92382l-.04102.00196s-.01309 1.16675-.01758 1.64062c-.00349.08158-.01562.45508-.01562.45508h.01172c-.02286 2.36173-.06836 6.69851-.12305 8.93945-.07014 2.87581 19.57766 5.11845 20.41602 5.21289v5.70899h50.42187v-35.66992h-10.1289v-19.91797h13.75v.73828h1.71679v-11.75586h-1.71679v.60156h-13.75v-8.23242h.65429v-1.80664h-12.54297zm-23.88867 27.66016c-.35977-.00047-.77546.00213-1.26758.00586-1.96847.01491-5.15856.04471-6.79882.04492-.49932.00006-.85344-.00223-1.10743.02929h-6.97656v7.3379h7.24805v-.03125c.82763-.02589 2.35837.00117 3.38476.01562 1.05878.01491 1.56701.01563 2.0293.01563.46229 0 .87907-.00064 1.25195.02929.37289.02993.701.0907 1.10352.4043.40252.3136.87904.87888 1.11719 1.6543.23814.77541.23828 1.76092.23828 2.74414l9.93164-.17969c.0298-.9236.05977-1.84784.04492-2.66797-.01485-.82013-.07319-1.53569-.25195-2.28125-.17877-.74556-.47738-1.52137-.93946-2.29687-.46207-.77551-1.08831-1.55196-1.78906-2.19336-.70075-.64141-1.47618-1.14674-2.32617-1.56446-.84999-.41771-1.77418-.7459-2.60938-.91015-.6264-.12319-1.2039-.15485-2.2832-.15625z" /><rect
         style="fill:#4d4d4d;stroke-width:1.07682"
         id="rect3687"
         width="24.996719"
         height="0.98267198"
         x="223.82787"
         y="460.82504"
         rx="0.30000001"
         ry="0.30000001" /><rect
         style="fill:#4d4d4d;stroke-width:1.07682"
         id="rect3689"
         width="24.996719"
         height="0.98267198"
         x="223.85857"
         y="462.48331"
         rx="0.30000001"
         ry="0.30000001" /><rect
         style="fill:#4d4d4d;stroke-width:1.07682"
         id="rect3691"
         width="24.996719"
         height="0.98267198"
         x="223.91998"
         y="464.2644"
         rx="0.30000001"
         ry="0.30000001" /><rect
         style="fill:#4d4d4d;stroke-width:1.07682"
         id="rect3693"
         width="24.996719"
         height="0.98267198"
         x="223.85857"
         y="465.92267"
         rx="0.30000001"
         ry="0.30000001" /><rect
         style="fill:#4d4d4d;stroke-width:1.07682"
         id="rect3695"
         width="24.996719"
         height="0.98267198"
         x="223.79715"
         y="467.4581"
         rx="0.30000001"
         ry="0.30000001" /><rect
         style="fill:#4d4d4d;stroke-width:1.07682"
         id="rect3697"
         width="24.996719"
         height="0.98267198"
         x="223.85857"
         y="469.05493"
         rx="0.30000001"
         ry="0.30000001" /><rect
         style="fill:#4d4d4d;stroke-width:1.07682"
         id="rect3699"
         width="24.996719"
         height="0.98267198"
         x="223.89928"
         y="470.64542"
         rx="0.30000001"
         ry="0.30000001" /><rect
         style="fill:#4d4d4d;stroke-width:1.07682"
         id="rect3701"
         width="24.996719"
         height="0.98267198"
         x="223.89928"
         y="472.2131"
         rx="0.30000001"
         ry="0.30000001" /><rect
         style="fill:#4d4d4d;stroke-width:1.07682"
         id="rect3703"
         width="24.996719"
         height="0.98267198"
         x="223.84702"
         y="473.78079"
         rx="0.30000001"
         ry="0.30000001" /><rect
         style="fill:#4d4d4d;stroke-width:1.07682"
         id="rect3705"
         width="24.996719"
         height="0.98267198"
         x="223.84702"
         y="475.34851"
         rx="0.30000001"
         ry="0.30000001" /><rect
         style="fill:#4d4d4d;stroke-width:1.07682"
         id="rect3707"
         width="24.996719"
         height="0.98267198"
         x="223.84702"
         y="476.96848"
         rx="0.30000001"
         ry="0.30000001" /><rect
         style="fill:#4d4d4d;stroke-width:1.07682"
         id="rect3709"
         width="24.996719"
         height="0.98267198"
         x="223.89926"
         y="478.64066"
         rx="0.30000001"
         ry="0.30000001" /><rect
         style="fill:#4d4d4d;stroke-width:1.07682"
         id="rect3711"
         width="24.996719"
         height="0.98267198"
         x="223.89928"
         y="480.15613"
         rx="0.30000001"
         ry="0.30000001" /><rect
         style="fill:#4d4d4d;stroke-width:1.07682"
         id="rect3713"
         width="24.996719"
         height="0.98267198"
         x="223.92542"
         y="481.82834"
         rx="0.30000001"
         ry="0.30000001" /><rect
         style="fill:#4d4d4d;stroke-width:1.07682"
         id="rect3715"
         width="24.996719"
         height="0.98267198"
         x="223.92542"
         y="483.39606"
         rx="0.30000001"
         ry="0.30000001" /><rect
         style="fill:#4d4d4d;stroke-width:1.07682"
         id="rect3717"
         width="24.996719"
         height="0.98267198"
         x="223.92542"
         y="485.01602"
         rx="0.30000001"
         ry="0.30000001" /><rect
         style="fill:#4d4d4d;stroke-width:1.07682"
         id="rect3719"
         width="24.996719"
         height="0.98267198"
         x="223.97766"
         y="486.63596"
         rx="0.30000001"
         ry="0.30000001" /><rect
         style="fill:#4d4d4d;stroke-width:1.07682"
         id="rect3721"
         width="24.996719"
         height="0.98267198"
         x="223.87317"
         y="488.20367"
         rx="0.30000001"
         ry="0.30000001" /><rect
         style="fill:#4d4d4d;stroke-width:1.07682"
         id="rect3723"
         width="24.996719"
         height="0.98267198"
         x="224.00378"
         y="489.77139"
         rx="0.30000001"
         ry="0.30000001" /><rect
         style="fill:#4d4d4d;stroke-width:1.07682"
         id="rect3725"
         width="24.996719"
         height="0.98267198"
         x="224.00378"
         y="491.39136"
         rx="0.30000001"
         ry="0.30000001" /><rect
         style="fill:#4d4d4d;stroke-width:1.07682"
         id="rect3727"
         width="24.996719"
         height="0.98267198"
         x="224.05603"
         y="493.01129"
         rx="0.30000001"
         ry="0.30000001" /><path
         style="display:inline;fill:#ff0000;stroke:#000000;stroke-width:1;stroke-dasharray:none;stroke-opacity:1;paint-order:markers stroke fill"
         id="rect3667"
         d="m 201.25661,459.32928 h 20.3945 v 35.64232 h -20.3945 z" /><path
         style="display:inline;fill:#333333;stroke:#000000;stroke-width:0.5;stroke-dasharray:none;stroke-opacity:1;paint-order:markers stroke fill"
         id="path3669"
         d="m 203.96401,462.01245 c -0.0376,0.0244 -1.05091,0.0294 -1.08872,0.005 -0.0379,-0.0239 -0.54839,-0.99529 -0.54859,-1.04362 -1.9e-4,-0.0483 0.50253,-1.02466 0.54014,-1.04901 0.0377,-0.0244 1.05092,-0.0294 1.08873,-0.005 0.0378,0.0239 0.54838,0.99529 0.54858,1.04361 2e-4,0.0483 -0.50252,1.02468 -0.54014,1.04902 z" /><path
         style="display:inline;fill:#333333;stroke:#000000;stroke-width:0.500001;stroke-dasharray:none;stroke-opacity:1;paint-order:markers stroke fill"
         id="path3671"
         d="m 220.56675,461.69923 c -0.0376,0.0218 -1.05091,0.0263 -1.08872,0.005 -0.0379,-0.0215 -0.54839,-0.8923 -0.54859,-0.93563 -1.9e-4,-0.0433 0.50253,-0.91863 0.54014,-0.94046 0.0377,-0.0218 1.05092,-0.0263 1.08873,-0.005 0.0378,0.0215 0.54838,0.89229 0.54858,0.93561 2e-4,0.0433 -0.50252,0.91864 -0.54014,0.94047 z" /><path
         style="display:inline;fill:#333333;stroke:#000000;stroke-width:0.5;stroke-dasharray:none;stroke-opacity:1;paint-order:markers stroke fill"
         id="path3673"
         d="m 220.31018,477.30216 c -0.0392,0.0229 -1.09642,0.0276 -1.13587,0.005 -0.0395,-0.0225 -0.57214,-0.93572 -0.57234,-0.98116 -2e-4,-0.0454 0.52429,-0.96334 0.56353,-0.98623 0.0393,-0.0229 1.09643,-0.0276 1.13588,-0.005 0.0394,0.0225 0.57213,0.93572 0.57234,0.98115 2e-4,0.0454 -0.52429,0.96335 -0.56354,0.98624 z" /><path
         style="display:inline;fill:#333333;stroke:#000000;stroke-width:0.5;stroke-dasharray:none;stroke-opacity:1;paint-order:markers stroke fill"
         id="path3675"
         d="m 220.4737,494.30882 c -0.0392,0.0229 -1.09642,0.0276 -1.13587,0.005 -0.0395,-0.0225 -0.57214,-0.93572 -0.57234,-0.98116 -2e-4,-0.0454 0.52429,-0.96334 0.56353,-0.98623 0.0393,-0.0229 1.09643,-0.0276 1.13588,-0.005 0.0394,0.0225 0.57213,0.93572 0.57234,0.98115 2e-4,0.0454 -0.52429,0.96335 -0.56354,0.98624 z" /><path
         style="display:inline;fill:#333333;stroke:#000000;stroke-width:0.5;stroke-dasharray:none;stroke-opacity:1;paint-order:markers stroke fill"
         id="path3677"
         d="m 203.71234,477.38392 c -0.0392,0.0229 -1.09642,0.0276 -1.13587,0.005 -0.0395,-0.0225 -0.57214,-0.93572 -0.57234,-0.98116 -2e-4,-0.0454 0.52429,-0.96334 0.56353,-0.98623 0.0393,-0.0229 1.09643,-0.0276 1.13588,-0.005 0.0394,0.0225 0.57213,0.93572 0.57234,0.98115 2e-4,0.0454 -0.52429,0.96335 -0.56354,0.98624 z" /><path
         style="display:inline;fill:#333333;stroke:#000000;stroke-width:0.5;stroke-dasharray:none;stroke-opacity:1;paint-order:markers stroke fill"
         id="path3679"
         d="m 203.30352,494.22705 c -0.0392,0.0229 -1.09642,0.0276 -1.13587,0.005 -0.0395,-0.0225 -0.57214,-0.93572 -0.57234,-0.98116 -2e-4,-0.0454 0.52429,-0.96334 0.56353,-0.98623 0.0393,-0.0229 1.09643,-0.0276 1.13588,-0.005 0.0394,0.0225 0.57213,0.93572 0.57234,0.98115 2e-4,0.0454 -0.52429,0.96335 -0.56354,0.98624 z" /></g><g
       id="diffusion-pump-1"><path
         id="path1569"
         style="display:inline;fill:#333333;stroke:#000000;stroke-width:1.80917;stroke-dasharray:none;stroke-opacity:1;paint-order:markers stroke fill"
         d="m 467.86263,363.85709 v 24.71405 h -0.14467 c 0.0964,1.88 0.18904,3.75847 0.28542,5.17977 0.0964,1.42129 0.19296,2.38545 0.57866,3.49362 0.3857,1.10816 1.06273,2.36218 1.97838,3.39783 0.91565,1.03564 2.07208,1.85395 3.42112,2.67291 1.34903,0.81895 2.89167,1.63908 4.74656,2.60265 1.85489,0.96357 4.02112,2.07168 6.04463,3.05932 2.02352,0.98764 3.90356,1.85487 5.49334,3.01142 1.58977,1.15654 2.88906,2.59929 4.09361,3.75548 1.20455,1.1562 2.31178,2.02346 2.88938,3.32438 0.38044,0.85685 0.5229,1.8852 0.57475,2.74636 -0.008,0.0857 -0.0313,0.16797 -0.0313,0.25547 v 11.26008 h -9.91147 v -8.79474 c 0,-0.43117 -0.42611,-0.7792 -0.954,-0.7792 h -17.34019 c -0.52789,0 -0.95009,0.34803 -0.95009,0.7792 v 23.28658 c 0,0.43117 0.4222,0.7792 0.95009,0.7792 h 17.34019 c 0.52789,0 0.954,-0.34803 0.954,-0.7792 v -4.38459 h 9.91147 v 6.77967 c 0,1.81163 1.78565,3.27009 4.00369,3.27009 h 32.20934 c 2.21805,0 4.00369,-1.45846 4.00369,-3.27009 v -26.65247 c 0.17348,-0.12902 0.16482,-0.32297 0.1564,-0.6323 -0.0236,-0.8667 0.0245,-2.60146 0.60211,-3.90238 0.5776,-1.30092 1.68483,-2.16818 2.88938,-3.32438 1.20455,-1.1562 2.50776,-2.60214 4.09752,-3.75868 1.58978,-1.15655 3.46592,-2.02378 5.48943,-3.01141 2.02351,-0.98764 4.19366,-2.09575 6.04854,-3.05932 1.85489,-0.96357 3.39753,-1.78052 4.74656,-2.59946 1.34904,-0.81896 2.50547,-1.64046 3.42112,-2.67611 0.91565,-1.03565 1.58878,-2.28647 1.97448,-3.39463 0.38569,-1.10817 0.48225,-2.07234 0.57865,-3.49362 0.0964,-1.4213 0.19293,-3.29977 0.28933,-5.17977 h -0.2776 v -24.67573 z"
         transform="matrix(0.49954,0,0,0.6116,45.157147,141.13509)" /></g><g
       id="diffusion-pump-2"><path
         id="rect1380"
         style="display:inline;fill:#333333;stroke:#000000;stroke-width:1;stroke-linecap:square;stroke-dasharray:none;stroke-opacity:1;paint-order:markers stroke fill"
         d="m 404.08524,364.39335 v 24.7168 h -0.14453 c 0.0964,1.88 0.19268,3.75839 0.28906,5.17968 0.0964,1.42129 0.19242,2.38402 0.57812,3.49219 0.3857,1.10816 1.06092,2.36084 1.97657,3.39649 0.91565,1.03565 2.07283,1.85487 3.42187,2.67382 1.34903,0.81895 2.88925,1.638 4.74414,2.60157 1.85489,0.96357 4.02337,2.07291 6.04688,3.06054 2.02351,0.98764 3.90241,1.85322 5.49218,3.00977 1.58977,1.15654 2.89116,2.60357 4.09571,3.75977 1.20455,1.15619 2.31302,2.0233 2.89062,3.32421 0.31995,0.72061 0.46818,1.56267 0.54102,2.32813 v 11.92969 h -9.58789 v -9.09571 c 0,-0.2637 -0.21286,-0.47461 -0.47657,-0.47461 h -9.26562 c -0.2637,0 -0.47656,0.21091 -0.47656,0.47461 v 23.89258 c 0,0.26371 0.21286,0.47656 0.47656,0.47656 h 9.26562 c 0.26371,0 0.47657,-0.21285 0.47657,-0.47656 v -4.68555 h 9.58789 v 8.04883 c 0,1.108 0.892,2 2,2 h 36.21679 c 1.108,0 2,-0.892 2,-2 v -27.91601 c 0.18088,-0.12887 0.16479,-0.32724 0.15625,-0.64063 -0.0236,-0.8667 0.0259,-2.60142 0.60352,-3.90234 0.5776,-1.30092 1.68608,-2.16802 2.89063,-3.32422 1.20454,-1.1562 2.50398,-2.60127 4.09375,-3.75781 1.58977,-1.15655 3.46866,-2.02408 5.49218,-3.01172 2.02351,-0.98764 4.19199,-2.09503 6.04688,-3.0586 1.85489,-0.96356 3.39706,-1.78261 4.74609,-2.60156 1.34904,-0.81896 2.50427,-1.63818 3.41992,-2.67383 0.91565,-1.03564 1.59087,-2.28832 1.97657,-3.39648 0.3857,-1.10817 0.48172,-2.0709 0.57812,-3.49219 0.0964,-1.4213 0.19266,-3.30164 0.28906,-5.18164 h -0.27734 v -24.67578 z"
         transform="translate(0.03455891,-0.51835043)" /></g><g
       id="detection-chamber"
       style="display:inline"><path
         style="display:inline;fill:#999;stroke:#000;stroke-width:.999901;stroke-linecap:square;stroke-linejoin:miter;stroke-dasharray:none;stroke-opacity:1;paint-order:markers stroke fill"
         id="rect274-3-9-0"
         d="M124.39795 229.65344h99.000099v99.000099H124.39795z" /><path
         style="display:inline;opacity:1;fill:gray;fill-opacity:1;stroke:#000;stroke-width:1;stroke-linecap:square;stroke-linejoin:miter;stroke-miterlimit:4;stroke-dasharray:none;stroke-opacity:1;paint-order:markers stroke fill"
         id="path15021"
         d="m3 4.9999997-5.8301268.098076-3-4.99999974L-3-4.9999997l5.8301268-.098076 3 4.99999974z"
         transform="matrix(0.78035,0,0,0.78035,213.898,239.15349)" /><path
         style="display:inline;fill:gray;fill-opacity:1;stroke:#000;stroke-width:1;stroke-linecap:square;stroke-linejoin:miter;stroke-miterlimit:4;stroke-dasharray:none;stroke-opacity:1;paint-order:markers stroke fill"
         id="path15021-84"
         d="m3 4.9999997-5.8301268.098076-3-4.99999974L-3-4.9999997l5.8301268-.098076 3 4.99999974z"
         transform="matrix(0.78035,0,0,0.78035,133.898,319.15349)" /><path
         style="display:inline;fill:gray;fill-opacity:1;stroke:#000;stroke-width:1;stroke-linecap:square;stroke-linejoin:miter;stroke-miterlimit:4;stroke-dasharray:none;stroke-opacity:1;paint-order:markers stroke fill"
         id="path15021-2"
         d="m3 4.9999997-5.8301268.098076-3-4.99999974L-3-4.9999997l5.8301268-.098076 3 4.99999974z"
         transform="matrix(0.78035,0,0,0.78035,213.898,319.15349)" /><path
         style="display:inline;fill:gray;fill-opacity:1;stroke:#000;stroke-width:1;stroke-linecap:square;stroke-linejoin:miter;stroke-miterlimit:4;stroke-dasharray:none;stroke-opacity:1;paint-order:markers stroke fill"
         id="path15021-8"
         d="m3 4.9999997-5.8301268.098076-3-4.99999974L-3-4.9999997l5.8301268-.098076 3 4.99999974z"
         transform="matrix(0.78035,0,0,0.78035,133.898,239.15349)" /></g><g
       id="doping-chamber"
       style="display:inline"><path
         style="display:inline;fill:#999;stroke:#000;stroke-width:1.00001;stroke-linecap:square;stroke-linejoin:miter;stroke-dasharray:none;stroke-opacity:1;paint-order:markers stroke fill"
         id="rect274-3-9"
         d="M249.39799 224.65349H358.398v108.99999H249.39799z" /><path
         style="display:inline;fill:gray;fill-opacity:1;stroke:#000;stroke-width:1;stroke-linecap:square;stroke-linejoin:miter;stroke-miterlimit:4;stroke-dasharray:none;stroke-opacity:1;paint-order:markers stroke fill"
         id="path15021-1"
         d="m3 4.9999997-5.8301268.098076-3-4.99999974L-3-4.9999997l5.8301268-.098076 3 4.99999974z"
         transform="matrix(0.78035,0,0,0.78035,258.898,324.15349)" /><path
         style="display:inline;fill:gray;fill-opacity:1;stroke:#000;stroke-width:1;stroke-linecap:square;stroke-linejoin:miter;stroke-miterlimit:4;stroke-dasharray:none;stroke-opacity:1;paint-order:markers stroke fill"
         id="path15021-7"
         d="m3 4.9999997-5.8301268.098076-3-4.99999974L-3-4.9999997l5.8301268-.098076 3 4.99999974z"
         transform="matrix(0.78035,0,0,0.78035,258.898,234.15349)" /><path
         style="display:inline;fill:gray;fill-opacity:1;stroke:#000;stroke-width:1;stroke-linecap:square;stroke-linejoin:miter;stroke-miterlimit:4;stroke-dasharray:none;stroke-opacity:1;paint-order:markers stroke fill"
         id="path15021-89"
         d="m3 4.9999997-5.8301268.098076-3-4.99999974L-3-4.9999997l5.8301268-.098076 3 4.99999974z"
         transform="matrix(0.78035,0,0,0.78035,348.898,234.15349)" /><path
         style="display:inline;fill:gray;fill-opacity:1;stroke:#000;stroke-width:1;stroke-linecap:square;stroke-linejoin:miter;stroke-miterlimit:4;stroke-dasharray:none;stroke-opacity:1;paint-order:markers stroke fill"
         id="path15021-3"
         d="m3 4.9999997-5.8301268.098076-3-4.99999974L-3-4.9999997l5.8301268-.098076 3 4.99999974z"
         transform="matrix(0.78035,0,0,0.78035,348.898,324.15349)" /></g><g
       id="source-chamber"
       onmouseover="style.fill('#FFFF');"
       style="display:inline"><path
         style="display:inline;fill:#999;stroke:#000;stroke-width:1.00012;stroke-linecap:square;stroke-linejoin:miter;stroke-dasharray:none;stroke-opacity:1;paint-order:markers stroke fill"
         id="rect274-3-9-7"
         d="M384.39807 194.65355h138.99988v168.99988H384.39807z" /><path
         style="display:inline;fill:#808080;fill-opacity:1;stroke:#000000;stroke-width:0.78035;stroke-linecap:square;stroke-linejoin:miter;stroke-miterlimit:4;stroke-dasharray:none;stroke-opacity:1;paint-order:markers stroke fill"
         id="path15021-17"
         d="m 396.23905,208.05524 -4.54954,0.0765 -2.34105,-3.90175 2.20849,-3.97828 4.54954,-0.0765 2.34105,3.90175 z" /><path
         style="display:inline;fill:#808080;fill-opacity:1;stroke:#000000;stroke-width:0.78035;stroke-linecap:square;stroke-linejoin:miter;stroke-miterlimit:4;stroke-dasharray:none;stroke-opacity:1;paint-order:markers stroke fill"
         id="path15021-37"
         d="m 516.23905,208.05524 -4.54954,0.0765 -2.34105,-3.90175 2.20849,-3.97828 4.54954,-0.0765 2.34105,3.90175 z" /><path
         style="display:inline;fill:#808080;fill-opacity:1;stroke:#000000;stroke-width:0.78035;stroke-linecap:square;stroke-linejoin:miter;stroke-miterlimit:4;stroke-dasharray:none;stroke-opacity:1;paint-order:markers stroke fill"
         id="path15021-70"
         d="m 516.23905,358.05524 -4.54954,0.0765 -2.34105,-3.90175 2.20849,-3.97828 4.54954,-0.0765 2.34105,3.90175 z" /><path
         style="display:inline;fill:#808080;fill-opacity:1;stroke:#000000;stroke-width:0.78035;stroke-linecap:square;stroke-linejoin:miter;stroke-miterlimit:4;stroke-dasharray:none;stroke-opacity:1;paint-order:markers stroke fill"
         id="path15021-82"
         d="m 396.23905,358.05524 -4.54954,0.0765 -2.34105,-3.90175 2.20849,-3.97828 4.54954,-0.0765 2.34105,3.90175 z" /></g><g
       id="ion-gauge-3"
       style="display:inline"
       transform="translate(265.01521,-35.21032)"><path
         style="fill:#999999;fill-opacity:1;stroke:#000000;stroke-opacity:1;paint-order:markers stroke fill"
         id="rect445"
         d="m 133.93692,218.85104 h 10.07635 v 10.24154 h -10.07635 z" /><path
         style="display:inline;fill:#333333;fill-opacity:1;stroke:#000000;stroke-width:1;stroke-dasharray:none;stroke-opacity:1;paint-order:markers stroke fill"
         id="rect447"
         d="m 128.65096,189.15913 h 20.48308 v 29.6919 h -20.48308 z" /><rect
         style="fill:#ffd42a;stroke-width:0.884725"
         id="rect451"
         width="3.9607351"
         height="29.591976"
         x="128.65446"
         y="189.13141"
         rx="0.30000001"
         ry="0.30000001" /><rect
         style="fill:#ffd42a;stroke-width:0.889752"
         id="rect453"
         width="4.0478096"
         height="29.656029"
         x="145.16731"
         y="189.13141"
         rx="0.30000001"
         ry="0.30000001" /><rect
         style="fill:#ffd42a"
         id="rect455"
         width="4.2387009"
         height="3.9075525"
         x="134.30017"
         y="204.79671"
         rx="0.30000001"
         ry="0.30000001" /><rect
         style="display:inline;fill:#ffd42a"
         id="rect457"
         width="4.2387009"
         height="3.9075525"
         x="139.2674"
         y="204.82982"
         rx="0.30000001"
         ry="0.30000001" /><rect
         style="display:inline;fill:#ffd42a"
         id="rect459"
         width="4.2387009"
         height="3.9075525"
         x="134.23395"
         y="209.59836"
         rx="0.30000001"
         ry="0.30000001" /><rect
         style="display:inline;fill:#ffd42a"
         id="rect461"
         width="4.2387009"
         height="3.9075525"
         x="139.33363"
         y="209.59836"
         rx="0.30000001"
         ry="0.30000001" /><rect
         style="fill:#000000"
         id="rect463"
         width="8.742321"
         height="9.4046173"
         x="134.49886"
         y="191.55077"
         rx="0.30000001"
         ry="0.30000001" /><path
         style="display:inline;fill:#000000"
         id="path465"
         d="m 76.154502,210.04994 -1.171932,-0.74241 1.228914,-0.64372 z"
         transform="translate(64.844561,-1.4086983)" /><path
         style="display:inline;fill:none;fill-rule:evenodd;stroke:#000000"
         id="path467"
         d="m 74.566543,206.06313 c 0.294473,-1.06746 1.43273,-1.7135 2.500193,-1.41903 1.067463,0.29448 1.7135,1.43273 1.419028,2.5002 -0.294473,1.06746 -1.432729,1.7135 -2.500193,1.41902"
         transform="matrix(0.7099,0,0,0.61717,87.016129,79.259272)" /><rect
         style="display:inline;fill:#000000"
         id="rect469"
         width="0.80376971"
         height="2.3558769"
         x="142.22397"
         y="210.24005"
         ry="0.30000001"
         rx="0.30000001" /><rect
         style="display:inline;fill:#000000"
         id="rect471"
         width="2.4944577"
         height="0.97006691"
         x="140.50557"
         y="211.68129"
         rx="0.30000001"
         ry="0.30000001" /><path
         style="display:inline;fill:#000000"
         id="path473"
         d="M 76.274978,213.38701 74.87213,212.5894 76.2643,211.7733 Z"
         transform="matrix(0.84194,0,0,1,76.480385,-0.40305264)" /><path
         style="display:inline;fill:#000000"
         id="path475"
         d="m 137.44644,206.88495 -2.11325,0.009 1.04848,-1.83483 z" /><rect
         style="display:inline;fill:#000000"
         id="rect477"
         width="1.0088949"
         height="1.6646767"
         x="135.88264"
         y="206.73361"
         ry="0.30000001"
         rx="0.30000001" /><path
         style="display:inline;fill:#000000"
         id="path481"
         d="m 137.396,211.41556 -2.11325,-0.009 1.04847,1.83483 z" /><rect
         style="display:inline;fill:#000000"
         id="rect483"
         width="1.0088949"
         height="1.6646767"
         x="135.8322"
         y="-211.56691"
         ry="0.30000001"
         rx="0.30000001"
         transform="scale(1,-1)" /></g><g
       id="ion-gauge-2"
       style="display:inline"
       transform="translate(115.49403,-4.9591978)"><path
         style="fill:#999999;fill-opacity:1;stroke:#000000;stroke-opacity:1;paint-order:markers stroke fill"
         id="rect716"
         d="m 133.93692,218.85104 h 10.07635 v 10.24154 h -10.07635 z" /><path
         style="display:inline;fill:#333333;fill-opacity:1;stroke:#000000;stroke-width:1;stroke-dasharray:none;stroke-opacity:1;paint-order:markers stroke fill"
         id="rect718"
         d="m 128.65096,189.15913 h 20.48308 v 29.6919 h -20.48308 z" /><rect
         style="fill:#ffd42a;stroke-width:0.884725"
         id="rect722"
         width="3.9607351"
         height="29.591976"
         x="128.65446"
         y="189.13141"
         rx="0.30000001"
         ry="0.30000001" /><rect
         style="fill:#ffd42a;stroke-width:0.889752"
         id="rect724"
         width="4.0478096"
         height="29.656029"
         x="145.16731"
         y="189.13141"
         rx="0.30000001"
         ry="0.30000001" /><rect
         style="fill:#ffd42a"
         id="rect726"
         width="4.2387009"
         height="3.9075525"
         x="134.30017"
         y="204.79671"
         rx="0.30000001"
         ry="0.30000001" /><rect
         style="display:inline;fill:#ffd42a"
         id="rect728"
         width="4.2387009"
         height="3.9075525"
         x="139.2674"
         y="204.82982"
         rx="0.30000001"
         ry="0.30000001" /><rect
         style="display:inline;fill:#ffd42a"
         id="rect730"
         width="4.2387009"
         height="3.9075525"
         x="134.23395"
         y="209.59836"
         rx="0.30000001"
         ry="0.30000001" /><rect
         style="display:inline;fill:#ffd42a"
         id="rect732"
         width="4.2387009"
         height="3.9075525"
         x="139.33363"
         y="209.59836"
         rx="0.30000001"
         ry="0.30000001" /><rect
         style="fill:#000000"
         id="rect734"
         width="8.742321"
         height="9.4046173"
         x="134.49886"
         y="191.55077"
         rx="0.30000001"
         ry="0.30000001" /><path
         style="display:inline;fill:#000000"
         id="path736"
         d="m 76.154502,210.04994 -1.171932,-0.74241 1.228914,-0.64372 z"
         transform="translate(64.844561,-1.4086983)" /><path
         style="display:inline;fill:none;fill-rule:evenodd;stroke:#000000"
         id="path738"
         d="m 74.566543,206.06313 c 0.294473,-1.06746 1.43273,-1.7135 2.500193,-1.41903 1.067463,0.29448 1.7135,1.43273 1.419028,2.5002 -0.294473,1.06746 -1.432729,1.7135 -2.500193,1.41902"
         transform="matrix(0.7099,0,0,0.61717,87.016129,79.259272)" /><rect
         style="display:inline;fill:#000000"
         id="rect740"
         width="0.80376971"
         height="2.3558769"
         x="142.22397"
         y="210.24005"
         ry="0.30000001"
         rx="0.30000001" /><rect
         style="display:inline;fill:#000000"
         id="rect742"
         width="2.4944577"
         height="0.97006691"
         x="140.50557"
         y="211.68129"
         rx="0.30000001"
         ry="0.30000001" /><path
         style="display:inline;fill:#000000"
         id="path744"
         d="M 76.274978,213.38701 74.87213,212.5894 76.2643,211.7733 Z"
         transform="matrix(0.84194,0,0,1,76.480385,-0.40305264)" /><path
         style="display:inline;fill:#000000"
         id="path746"
         d="m 137.44644,206.88495 -2.11325,0.009 1.04848,-1.83483 z" /><rect
         style="display:inline;fill:#000000"
         id="rect748"
         width="1.0088949"
         height="1.6646767"
         x="135.88264"
         y="206.73361"
         ry="0.30000001"
         rx="0.30000001" /><path
         style="display:inline;fill:#000000"
         id="path752"
         d="m 137.396,211.41556 -2.11325,-0.009 1.04847,1.83483 z" /><rect
         style="display:inline;fill:#000000"
         id="rect754"
         width="1.0088949"
         height="1.6646767"
         x="135.8322"
         y="-211.56691"
         ry="0.30000001"
         rx="0.30000001"
         transform="scale(1,-1)" /></g><g
       id="ion-gauge-1"
       style="display:inline"
       transform="translate(-0.16198127,-0.07064475)"><path
         style="fill:#999999;fill-opacity:1;stroke:#000000;stroke-opacity:1;paint-order:markers stroke fill"
         id="rect766"
         d="m 133.93692,218.85104 h 10.07635 v 10.24154 h -10.07635 z" /><path
         style="display:inline;fill:#333333;fill-opacity:1;stroke:#000000;stroke-width:1;stroke-dasharray:none;stroke-opacity:1;paint-order:markers stroke fill"
         id="rect768"
         d="m 128.65096,189.15913 h 20.48308 v 29.6919 h -20.48308 z" /><rect
         style="fill:#ffd42a;stroke-width:0.884725"
         id="rect772"
         width="3.9607351"
         height="29.591976"
         x="128.65446"
         y="189.13141"
         rx="0.30000001"
         ry="0.30000001" /><rect
         style="fill:#ffd42a;stroke-width:0.889752"
         id="rect774"
         width="4.0478096"
         height="29.656029"
         x="145.16731"
         y="189.13141"
         rx="0.30000001"
         ry="0.30000001" /><rect
         style="fill:#ffd42a"
         id="rect776"
         width="4.2387009"
         height="3.9075525"
         x="134.30017"
         y="204.79671"
         rx="0.30000001"
         ry="0.30000001" /><rect
         style="display:inline;fill:#ffd42a"
         id="rect778"
         width="4.2387009"
         height="3.9075525"
         x="139.2674"
         y="204.82982"
         rx="0.30000001"
         ry="0.30000001" /><rect
         style="display:inline;fill:#ffd42a"
         id="rect780"
         width="4.2387009"
         height="3.9075525"
         x="134.23395"
         y="209.59836"
         rx="0.30000001"
         ry="0.30000001" /><rect
         style="display:inline;fill:#ffd42a"
         id="rect782"
         width="4.2387009"
         height="3.9075525"
         x="139.33363"
         y="209.59836"
         rx="0.30000001"
         ry="0.30000001" /><rect
         style="fill:#000000"
         id="rect784"
         width="8.742321"
         height="9.4046173"
         x="134.49886"
         y="191.55077"
         rx="0.30000001"
         ry="0.30000001" /><path
         style="display:inline;fill:#000000"
         id="path786"
         d="m 76.154502,210.04994 -1.171932,-0.74241 1.228914,-0.64372 z"
         transform="translate(64.844561,-1.4086983)" /><path
         style="display:inline;fill:none;fill-rule:evenodd;stroke:#000000"
         id="path788"
         d="m 74.566543,206.06313 c 0.294473,-1.06746 1.43273,-1.7135 2.500193,-1.41903 1.067463,0.29448 1.7135,1.43273 1.419028,2.5002 -0.294473,1.06746 -1.432729,1.7135 -2.500193,1.41902"
         transform="matrix(0.7099,0,0,0.61717,87.016129,79.259272)" /><rect
         style="display:inline;fill:#000000"
         id="rect790"
         width="0.80376971"
         height="2.3558769"
         x="142.22397"
         y="210.24005"
         ry="0.30000001"
         rx="0.30000001" /><rect
         style="display:inline;fill:#000000"
         id="rect792"
         width="2.4944577"
         height="0.97006691"
         x="140.50557"
         y="211.68129"
         rx="0.30000001"
         ry="0.30000001" /><path
         style="display:inline;fill:#000000"
         id="path794"
         d="M 76.274978,213.38701 74.87213,212.5894 76.2643,211.7733 Z"
         transform="matrix(0.84194,0,0,1,76.480385,-0.40305264)" /><path
         style="display:inline;fill:#000000"
         id="path796"
         d="m 137.44644,206.88495 -2.11325,0.009 1.04848,-1.83483 z" /><rect
         style="display:inline;fill:#000000"
         id="rect798"
         width="1.0088949"
         height="1.6646767"
         x="135.88264"
         y="206.73361"
         ry="0.30000001"
         rx="0.30000001" /><path
         style="display:inline;fill:#000000"
         id="path802"
         d="m 137.396,211.41556 -2.11325,-0.009 1.04847,1.83483 z" /><rect
         style="display:inline;fill:#000000"
         id="rect804"
         width="1.0088949"
         height="1.6646767"
         x="135.8322"
         y="-211.56691"
         ry="0.30000001"
         rx="0.30000001"
         transform="scale(1,-1)" /></g><g
       id="turbo-pump"><path
         id="rect2080"
         style="fill:#333;stroke:#000;stroke-opacity:1;paint-order:markers stroke fill"
         d="M143.63594 364.25983v19.9336h-13.75v-.98633h-3.31641v12.51172h3.31641v-.94532h13.75v4.29493h59.95508v-34.8086h-59.95508z"
         transform="translate(.36210735 -.26764479)" /></g><g
       id="lecture"
       inkscape:label="lecture"><ellipse
         style="fill:maroon;stroke-width:.697593"
         id="path836"
         cx="32.56144"
         cy="471.54736"
         rx="15.57327"
         ry="4.2389007" /><path
         style="fill:maroon;stroke-width:.694687"
         id="rect937"
         d="M17.938551 410.38223h29.224394v61.766834H17.938551z" /><path
         style="fill:#4d4d4d;stroke-width:.694687"
         id="rect1303"
         d="M29.343193 380.40717h6.8903041v19.680609H29.343193z" /><ellipse
         style="fill:maroon;stroke-width:.718186"
         id="path1017"
         cx="32.540062"
         cy="411.20291"
         rx="14.601511"
         ry="13.927815" /><path
         style="fill:#4d4d4d"
         id="path1413"
         d="m50.578401 355.2071-15.884021.24118-5.137808-15.03207 12.708682-9.53151 12.992205 9.14127z"
         transform="matrix(.61538 0 0 .31266 6.53391 270.67189)" /><path
         style="fill:#4d4d4d"
         id="rect1415"
         d="M24.830967 386.51614h15.784025v3.2722981H24.830967z" /><path
         style="fill:#666;stroke-width:.999996"
         id="rect1697"
         d="M19.780813 413.44748h25.617868v57.020416H19.780813z" /><text
         xml:space="preserve"
         id="text1767"
         style="font-style:normal;font-variant:normal;font-weight:normal;font-stretch:normal;font-size:13.3333px;font-family:sans-serif;-inkscape-font-specification:'sans-serif, Normal';font-variant-ligatures:normal;font-variant-caps:normal;font-variant-numeric:normal;font-variant-east-asian:normal;white-space:pre;shape-inside:url(#rect1769);display:inline;fill:#000000"
         transform="translate(5.1648928,0.20659571)"><tspan
           x="22.105469"
           y="428.04133"
           id="tspan4639">O
</tspan><tspan
           x="22.105469"
           y="444.70795"
           id="tspan4641">C
</tspan><tspan
           x="22.105469"
           y="461.37458"
           id="tspan4643">S</tspan></text></g></g></svg>
