<?xml version="1.0" encoding="UTF-8" standalone="no"?>
<!-- Created with Inkscape (http://www.inkscape.org/) -->

<svg
   width="550"
   height="400"
   viewBox="0 0 550 400"
   version="1.1"
   id="svg5"
   inkscape:export-filename="..\hendi-outline-v3.svg"
   inkscape:export-xdpi="96"
   inkscape:export-ydpi="96"
   inkscape:version="1.2.1 (9c6d41e410, 2022-07-14)"
   sodipodi:docname="hendi-interior-draft.svg"
   xmlns:inkscape="http://www.inkscape.org/namespaces/inkscape"
   xmlns:sodipodi="http://sodipodi.sourceforge.net/DTD/sodipodi-0.dtd"
   xmlns:xlink="http://www.w3.org/1999/xlink"
   xmlns="http://www.w3.org/2000/svg"
   xmlns:svg="http://www.w3.org/2000/svg">
  <sodipodi:namedview
     id="namedview7"
     pagecolor="#ffffff"
     bordercolor="#000000"
     borderopacity="0.25"
     inkscape:showpageshadow="true"
     inkscape:pageopacity="0.0"
     inkscape:pagecheckerboard="false"
     inkscape:deskcolor="#d1d1d1"
     inkscape:document-units="px"
     showgrid="false"
     borderlayer="true"
     inkscape:lockguides="false"
     inkscape:zoom="3.1460292"
     inkscape:cx="258.57993"
     inkscape:cy="187.69692"
     inkscape:window-width="2498"
     inkscape:window-height="1417"
     inkscape:window-x="54"
     inkscape:window-y="-8"
     inkscape:window-maximized="1"
     inkscape:current-layer="hendi"
     showguides="true"
     showborder="true">
    <inkscape:grid
       type="xygrid"
       id="grid221"
       color="#0099e5"
       opacity="0"
       empspacing="5"
       originx="0"
       originy="0" />
  </sodipodi:namedview>
  <defs
     id="defs2">
    <linearGradient
       id="linearGradient3651"
       inkscape:swatch="solid">
      <stop
         style="stop-color:#000000;stop-opacity:1;"
         offset="0"
         id="stop3649" />
    </linearGradient>
    <linearGradient
       id="linearGradient898"
       inkscape:swatch="solid">
      <stop
         style="stop-color:#000000;stop-opacity:1;"
         offset="0"
         id="stop896" />
    </linearGradient>
    <linearGradient
       id="linearGradient4079"
       inkscape:swatch="solid">
      <stop
         style="stop-color:#000000;stop-opacity:1;"
         offset="0"
         id="stop4077" />
    </linearGradient>
    <linearGradient
       id="linearGradient4073"
       inkscape:swatch="solid">
      <stop
         style="stop-color:#000000;stop-opacity:1;"
         offset="0"
         id="stop4071" />
    </linearGradient>
    <linearGradient
       id="linearGradient4067"
       inkscape:swatch="solid">
      <stop
         style="stop-color:#000000;stop-opacity:1;"
         offset="0"
         id="stop4065" />
    </linearGradient>
    <linearGradient
       id="linearGradient4061"
       inkscape:swatch="solid">
      <stop
         style="stop-color:#000000;stop-opacity:1;"
         offset="0"
         id="stop4059" />
    </linearGradient>
    <linearGradient
       id="linearGradient4055"
       inkscape:swatch="solid">
      <stop
         style="stop-color:#000000;stop-opacity:1;"
         offset="0"
         id="stop4053" />
    </linearGradient>
    <linearGradient
       id="linearGradient4049"
       inkscape:swatch="solid">
      <stop
         style="stop-color:#000000;stop-opacity:1;"
         offset="0"
         id="stop4047" />
    </linearGradient>
    <linearGradient
       id="linearGradient4043"
       inkscape:swatch="solid">
      <stop
         style="stop-color:#000000;stop-opacity:1;"
         offset="0"
         id="stop4041" />
    </linearGradient>
    <linearGradient
       id="linearGradient4037"
       inkscape:swatch="solid">
      <stop
         style="stop-color:#000000;stop-opacity:1;"
         offset="0"
         id="stop4035" />
    </linearGradient>
    <linearGradient
       id="linearGradient4031"
       inkscape:swatch="solid">
      <stop
         style="stop-color:#000000;stop-opacity:1;"
         offset="0"
         id="stop4029" />
    </linearGradient>
    <linearGradient
       id="linearGradient4025"
       inkscape:swatch="solid">
      <stop
         style="stop-color:#000000;stop-opacity:1;"
         offset="0"
         id="stop4023" />
    </linearGradient>
    <linearGradient
       id="linearGradient4019"
       inkscape:swatch="solid">
      <stop
         style="stop-color:#000000;stop-opacity:1;"
         offset="0"
         id="stop4017" />
    </linearGradient>
    <linearGradient
       id="linearGradient4013"
       inkscape:swatch="solid">
      <stop
         style="stop-color:#000000;stop-opacity:1;"
         offset="0"
         id="stop4011" />
    </linearGradient>
    <linearGradient
       id="linearGradient3281"
       inkscape:swatch="solid">
      <stop
         style="stop-color:#000000;stop-opacity:1;"
         offset="0"
         id="stop3279" />
    </linearGradient>
    <linearGradient
       inkscape:collect="always"
       xlink:href="#linearGradient6155"
       id="linearGradient6889"
       x1="60.482689"
       y1="68.449326"
       x2="68.568336"
       y2="68.449326"
       gradientUnits="userSpaceOnUse"
       gradientTransform="translate(-59.168916,-41.648769)" />
    <linearGradient
       inkscape:collect="always"
       id="linearGradient6155">
      <stop
         style="stop-color:#d5f7fd;stop-opacity:1;"
         offset="0"
         id="stop6143" />
      <stop
         style="stop-color:#cffbff;stop-opacity:1;"
         offset="0.2"
         id="stop6145" />
      <stop
         style="stop-color:#65acff;stop-opacity:1;"
         offset="0.40000001"
         id="stop6147" />
      <stop
         style="stop-color:#2b8eb9;stop-opacity:1;"
         offset="0.60000002"
         id="stop6149" />
      <stop
         style="stop-color:#d5f2fc;stop-opacity:1;"
         offset="0.80000001"
         id="stop6151" />
      <stop
         style="stop-color:#dbecf9;stop-opacity:1;"
         offset="1"
         id="stop6153" />
    </linearGradient>
    <filter
       inkscape:collect="always"
       style="color-interpolation-filters:sRGB"
       id="filter6883"
       x="-0.06888009"
       y="-0.11902527"
       width="1.1377602"
       height="1.2380505">
      <feGaussianBlur
         inkscape:collect="always"
         stdDeviation="0.2142071"
         id="feGaussianBlur6885" />
    </filter>
    <linearGradient
       inkscape:collect="always"
       xlink:href="#linearGradient6155"
       id="linearGradient7732"
       gradientUnits="userSpaceOnUse"
       gradientTransform="translate(-24.743365,-41.95614)"
       x1="60.482689"
       y1="68.449326"
       x2="68.568336"
       y2="68.449326" />
    <linearGradient
       inkscape:collect="always"
       xlink:href="#linearGradient6155"
       id="linearGradient7736"
       gradientUnits="userSpaceOnUse"
       gradientTransform="translate(9.5285004,-41.95614)"
       x1="60.482689"
       y1="68.449326"
       x2="68.568336"
       y2="68.449326" />
    <linearGradient
       inkscape:collect="always"
       xlink:href="#linearGradient5320"
       id="linearGradient5322"
       x1="18.173168"
       y1="50.459732"
       x2="75.920914"
       y2="50.459732"
       gradientUnits="userSpaceOnUse" />
    <linearGradient
       inkscape:collect="always"
       id="linearGradient5320">
      <stop
         style="stop-color:#000000;stop-opacity:1;"
         offset="0"
         id="stop5316" />
      <stop
         style="stop-color:#000000;stop-opacity:1;"
         offset="1"
         id="stop5318" />
    </linearGradient>
    <filter
       inkscape:collect="always"
       style="color-interpolation-filters:sRGB"
       id="filter5312"
       x="-0.013132406"
       y="-0.034049564"
       width="1.0294596"
       height="1.0708497">
      <feGaussianBlur
         inkscape:collect="always"
         stdDeviation="0.22473666"
         id="feGaussianBlur5314" />
    </filter>
    <linearGradient
       inkscape:collect="always"
       xlink:href="#linearGradient4467"
       id="linearGradient4469"
       x1="-14.093669"
       y1="37.786476"
       x2="9.023778"
       y2="37.786476"
       gradientUnits="userSpaceOnUse" />
    <linearGradient
       inkscape:collect="always"
       id="linearGradient4467">
      <stop
         style="stop-color:#000000;stop-opacity:1;"
         offset="0"
         id="stop4463" />
      <stop
         style="stop-color:#442f2f;stop-opacity:1;"
         offset="1"
         id="stop4465" />
    </linearGradient>
    <filter
       inkscape:collect="always"
       style="color-interpolation-filters:sRGB"
       id="filter2452"
       x="-0.050785397"
       y="-0.020751035"
       width="1.0941888"
       height="1.0374433">
      <feGaussianBlur
         inkscape:collect="always"
         stdDeviation="0.16322064"
         id="feGaussianBlur2454" />
    </filter>
    <linearGradient
       inkscape:collect="always"
       xlink:href="#linearGradient58375"
       id="linearGradient67150"
       gradientUnits="userSpaceOnUse"
       gradientTransform="matrix(-0.05447289,-2.8457223e-5,7.8047514e-5,-0.14939876,12.811519,48.183936)"
       x1="134.83498"
       y1="185.42915"
       x2="171.70763"
       y2="185.42915" />
    <linearGradient
       inkscape:collect="always"
       id="linearGradient58375">
      <stop
         style="stop-color:#1e0505;stop-opacity:1;"
         offset="0"
         id="stop58361" />
      <stop
         style="stop-color:#2b2b2b;stop-opacity:1;"
         offset="0.14630227"
         id="stop58363" />
      <stop
         style="stop-color:#383838;stop-opacity:1;"
         offset="0.3002412"
         id="stop58365" />
      <stop
         style="stop-color:#505050;stop-opacity:1;"
         offset="0.44774917"
         id="stop58367" />
      <stop
         style="stop-color:#7b7b7b;stop-opacity:1;"
         offset="0.60000002"
         id="stop58369" />
      <stop
         style="stop-color:#848484;stop-opacity:1;"
         offset="0.7512058"
         id="stop58371" />
      <stop
         style="stop-color:#a8a8a8;stop-opacity:1;"
         offset="0.90032154"
         id="stop58373" />
    </linearGradient>
    <linearGradient
       inkscape:collect="always"
       xlink:href="#linearGradient58375"
       id="linearGradient65694"
       gradientUnits="userSpaceOnUse"
       gradientTransform="matrix(0.0544729,0,0,0.14939878,31.475063,20.437258)"
       x1="134.83498"
       y1="185.42915"
       x2="171.70763"
       y2="185.42915" />
    <linearGradient
       inkscape:collect="always"
       xlink:href="#linearGradient58375"
       id="linearGradient63507"
       gradientUnits="userSpaceOnUse"
       gradientTransform="matrix(0.0544729,0,0,0.14939878,66.361669,4.9150235)"
       x1="134.83498"
       y1="185.42915"
       x2="171.70763"
       y2="185.42915" />
    <linearGradient
       inkscape:collect="always"
       xlink:href="#linearGradient13835"
       id="linearGradient57633"
       gradientUnits="userSpaceOnUse"
       gradientTransform="matrix(0.32956122,0,0,0.90676495,-37.121993,-112.5467)"
       x1="134.83498"
       y1="185.42915"
       x2="171.70763"
       y2="185.42915" />
    <linearGradient
       inkscape:collect="always"
       id="linearGradient13835">
      <stop
         style="stop-color:#1e0505;stop-opacity:1;"
         offset="0"
         id="stop13821" />
      <stop
         style="stop-color:#2b2b2b;stop-opacity:1;"
         offset="0.14630227"
         id="stop13823" />
      <stop
         style="stop-color:#383838;stop-opacity:1;"
         offset="0.3002412"
         id="stop13825" />
      <stop
         style="stop-color:#454545;stop-opacity:1;"
         offset="0.44774917"
         id="stop13827" />
      <stop
         style="stop-color:#5f5f5f;stop-opacity:1;"
         offset="0.60000002"
         id="stop13829" />
      <stop
         style="stop-color:#676767;stop-opacity:1;"
         offset="0.7512058"
         id="stop13831" />
      <stop
         style="stop-color:#4d4d4d;stop-opacity:1;"
         offset="0.90032154"
         id="stop13833" />
    </linearGradient>
    <linearGradient
       inkscape:collect="always"
       xlink:href="#linearGradient31314-8"
       id="linearGradient53925"
       gradientUnits="userSpaceOnUse"
       gradientTransform="matrix(0.13989704,0,0,0.42241682,18.570474,-42.537234)"
       x1="134.83498"
       y1="185.42915"
       x2="171.70763"
       y2="185.42915" />
    <linearGradient
       inkscape:collect="always"
       id="linearGradient31314-8">
      <stop
         style="stop-color:#c40d84;stop-opacity:1;"
         offset="0.07717042"
         id="stop31302-1" />
      <stop
         style="stop-color:#b0007e;stop-opacity:1;"
         offset="0.24919616"
         id="stop31304-5" />
      <stop
         style="stop-color:#840056;stop-opacity:1;"
         offset="0.40956593"
         id="stop31306-3" />
      <stop
         style="stop-color:#7e1f51;stop-opacity:1;"
         offset="0.61816716"
         id="stop31308-5" />
      <stop
         style="stop-color:#b423a1;stop-opacity:1;"
         offset="0.77893889"
         id="stop31310-4" />
      <stop
         style="stop-color:#e749ac;stop-opacity:1;"
         offset="0.95498395"
         id="stop31312-3" />
    </linearGradient>
    <linearGradient
       inkscape:collect="always"
       xlink:href="#linearGradient31314-8"
       id="linearGradient31318-3"
       x1="134.83498"
       y1="185.42915"
       x2="171.70763"
       y2="185.42915"
       gradientUnits="userSpaceOnUse"
       gradientTransform="matrix(0.13989704,0,0,0.42241682,-15.935871,-42.537234)" />
    <linearGradient
       inkscape:collect="always"
       xlink:href="#linearGradient31314"
       id="linearGradient31318"
       x1="134.83498"
       y1="185.42915"
       x2="171.70763"
       y2="185.42915"
       gradientUnits="userSpaceOnUse"
       gradientTransform="matrix(2.1111018,0,0,0.06627971,-284.21671,11.290569)" />
    <linearGradient
       inkscape:collect="always"
       id="linearGradient31314">
      <stop
         style="stop-color:#d9d9d9;stop-opacity:1;"
         offset="0"
         id="stop31302" />
      <stop
         style="stop-color:#b2b2b2;stop-opacity:1;"
         offset="0.14630227"
         id="stop31304" />
      <stop
         style="stop-color:#808080;stop-opacity:1;"
         offset="0.3002412"
         id="stop31306" />
      <stop
         style="stop-color:#989898;stop-opacity:1;"
         offset="0.44774917"
         id="stop31308" />
      <stop
         style="stop-color:#b0b0b0;stop-opacity:1;"
         offset="0.60000002"
         id="stop31310" />
      <stop
         style="stop-color:#b2b2b2;stop-opacity:1;"
         offset="0.7512058"
         id="stop46591" />
      <stop
         style="stop-color:#d9d9d9;stop-opacity:1;"
         offset="0.90032154"
         id="stop31312" />
    </linearGradient>
    <linearGradient
       inkscape:collect="always"
       xlink:href="#linearGradient31314"
       id="linearGradient47325"
       gradientUnits="userSpaceOnUse"
       gradientTransform="matrix(2.1111018,0,0,0.06627971,-284.21671,17.531078)"
       x1="134.83498"
       y1="185.42915"
       x2="171.70763"
       y2="185.42915" />
    <linearGradient
       inkscape:collect="always"
       xlink:href="#linearGradient55441"
       id="linearGradient55443"
       x1="1.3459922"
       y1="42.827023"
       x2="44.540104"
       y2="42.582298"
       gradientUnits="userSpaceOnUse" />
    <linearGradient
       inkscape:collect="always"
       id="linearGradient55441">
      <stop
         style="stop-color:#333333;stop-opacity:1;"
         offset="0"
         id="stop55437" />
      <stop
         style="stop-color:#656565;stop-opacity:1;"
         offset="0.20096463"
         id="stop55445" />
      <stop
         style="stop-color:#989898;stop-opacity:1;"
         offset="0.39951769"
         id="stop55447" />
      <stop
         style="stop-color:#a6a6a6;stop-opacity:1;"
         offset="0.60000002"
         id="stop55449" />
      <stop
         style="stop-color:#b2b2b2;stop-opacity:1;"
         offset="0.80000001"
         id="stop55451" />
      <stop
         style="stop-color:#373737;stop-opacity:1;"
         offset="1"
         id="stop55439" />
    </linearGradient>
    <linearGradient
       inkscape:collect="always"
       xlink:href="#linearGradient13019"
       id="linearGradient13021"
       x1="241.86053"
       y1="206.93997"
       x2="299.10614"
       y2="200.60178"
       gradientUnits="userSpaceOnUse" />
    <linearGradient
       inkscape:collect="always"
       id="linearGradient13019">
      <stop
         style="stop-color:#cccccc;stop-opacity:1;"
         offset="0"
         id="stop13015" />
      <stop
         style="stop-color:#9a9a9a;stop-opacity:1;"
         offset="0.2"
         id="stop13087" />
      <stop
         style="stop-color:#828282;stop-opacity:1;"
         offset="0.40000001"
         id="stop13089" />
      <stop
         style="stop-color:#808080;stop-opacity:1;"
         offset="0.60000002"
         id="stop13091" />
      <stop
         style="stop-color:#9a9a9a;stop-opacity:1;"
         offset="0.80000001"
         id="stop13093" />
      <stop
         style="stop-color:#cccccc;stop-opacity:1;"
         offset="1"
         id="stop13017" />
    </linearGradient>
    <linearGradient
       inkscape:collect="always"
       xlink:href="#linearGradient13019"
       id="linearGradient36692"
       gradientUnits="userSpaceOnUse"
       x1="241.86053"
       y1="206.93997"
       x2="299.10614"
       y2="200.60178" />
    <linearGradient
       inkscape:collect="always"
       xlink:href="#linearGradient13019"
       id="linearGradient36694"
       gradientUnits="userSpaceOnUse"
       x1="241.86053"
       y1="206.93997"
       x2="299.10614"
       y2="200.60178" />
    <linearGradient
       inkscape:collect="always"
       xlink:href="#linearGradient13019"
       id="linearGradient36696"
       gradientUnits="userSpaceOnUse"
       x1="241.86053"
       y1="206.93997"
       x2="299.10614"
       y2="200.60178" />
    <linearGradient
       inkscape:collect="always"
       xlink:href="#linearGradient8208"
       id="linearGradient8210"
       x1="214.71584"
       y1="274.97479"
       x2="267.00952"
       y2="274.62848"
       gradientUnits="userSpaceOnUse"
       gradientTransform="matrix(0.12418304,0,0,0.12999995,171.86092,283.33832)" />
    <linearGradient
       inkscape:collect="always"
       id="linearGradient8208">
      <stop
         style="stop-color:#777777;stop-opacity:1;"
         offset="0"
         id="stop8204" />
      <stop
         style="stop-color:#303030;stop-opacity:1;"
         offset="0.20096463"
         id="stop8212" />
      <stop
         style="stop-color:#4a4a4a;stop-opacity:1;"
         offset="0.39951769"
         id="stop8214" />
      <stop
         style="stop-color:#353535;stop-opacity:1;"
         offset="0.59847265"
         id="stop8216" />
      <stop
         style="stop-color:#3f3f3f;stop-opacity:1;"
         offset="0.79602093"
         id="stop8218" />
      <stop
         style="stop-color:#707070;stop-opacity:1;"
         offset="1"
         id="stop8206" />
    </linearGradient>
    <linearGradient
       inkscape:collect="always"
       xlink:href="#linearGradient16706"
       id="linearGradient16708"
       x1="105.97266"
       y1="386.48849"
       x2="219.56425"
       y2="385.79587"
       gradientUnits="userSpaceOnUse"
       gradientTransform="matrix(0.81326528,0,0,0.59720792,27.142616,106.97456)" />
    <linearGradient
       inkscape:collect="always"
       id="linearGradient16706">
      <stop
         style="stop-color:#ff7412;stop-opacity:1;"
         offset="0"
         id="stop16702" />
      <stop
         style="stop-color:#d05500;stop-opacity:1;"
         offset="0.2652733"
         id="stop16805" />
      <stop
         style="stop-color:#ff7a22;stop-opacity:1;"
         offset="0.46061093"
         id="stop16807" />
      <stop
         style="stop-color:#ff8838;stop-opacity:1;"
         offset="0.67564309"
         id="stop16809" />
      <stop
         style="stop-color:#ffc79f;stop-opacity:1;"
         offset="0.9163987"
         id="stop16704" />
    </linearGradient>
    <clipPath
       clipPathUnits="userSpaceOnUse"
       id="clipPath2690">
      <path
         id="path2692"
         style="fill:#ff0000;fill-opacity:1;fill-rule:nonzero;stroke:none"
         d="m 112.17188,312.30859 v 51.3418 h 28.66406 c 0.4122,-0.22391 0.96068,-0.36523 1.65039,-0.36523 h 1.6582 1.23828 0.81446 c 0.0958,-0.005 0.15607,-0.005 0.20703,-0.006 8.4e-4,-2.9e-4 0.003,-0.002 0.004,-0.002 0.0415,-0.0139 0.10496,-0.0306 0.19922,-0.0547 0.39969,-0.0989 0.80454,-0.1668 1.21289,-0.2168 0.0702,-0.0289 1.01708,-0.0662 0.52539,-0.0469 0.2445,-0.0987 0.49991,-0.16506 0.75586,-0.22656 0.41771,-0.0892 0.84598,-0.10619 1.27149,-0.12109 -0.47792,0.032 0.86241,-0.21475 0.88281,-0.21875 0.37718,-0.0581 0.75787,-0.0959 1.13867,-0.11914 0.31817,-0.0189 0.63647,-0.0214 0.95508,-0.0234 0.39321,-0.002 0.78647,-10e-4 1.17969,-0.002 0.3897,-3.9e-4 0.78022,7e-5 1.16992,0 0.11616,-0.005 0.23089,-0.009 0.3457,-0.008 0.34444,0.002 0.68431,0.0299 1.0293,0.0781 0.26417,0.0674 0.51599,0.16792 0.78125,0.22852 0.13578,0.0162 0.27343,0.0243 0.41015,0.0312 0.15904,0.008 0.31737,0.0117 0.47657,0.0137 0.17283,10e-4 0.34669,0.002 0.51953,0.002 0.2314,2.7e-4 0.46196,-6e-5 0.69336,0 0.13675,2e-5 0.2734,-1e-5 0.41015,0 1.25751,9e-5 2.05171,0.46661 2.38672,1.05664 h 42.9336 v -51.3418 z" />
    </clipPath>
    <linearGradient
       inkscape:collect="always"
       xlink:href="#linearGradient12420"
       id="linearGradient16086"
       gradientUnits="userSpaceOnUse"
       x1="136.54213"
       y1="221.64102"
       x2="169.81387"
       y2="221.38509"
       gradientTransform="matrix(0.59990518,0,0,1.9949821,61.179588,-163.57728)" />
    <linearGradient
       inkscape:collect="always"
       id="linearGradient12420">
      <stop
         style="stop-color:#b3b3b3;stop-opacity:0.96226418;"
         offset="0.1607717"
         id="stop12416" />
      <stop
         style="stop-color:#b3b3b3;stop-opacity:0.49803922;"
         offset="0.38102895"
         id="stop12424" />
      <stop
         style="stop-color:#b3b3b3;stop-opacity:0.37254902;"
         offset="0.6153537"
         id="stop12428" />
      <stop
         style="stop-color:#b3b3b3;stop-opacity:0.0754717;"
         offset="0.75"
         id="stop12430" />
      <stop
         style="stop-color:#b3b3b3;stop-opacity:0.24705882;"
         offset="0.87861735"
         id="stop12426" />
      <stop
         style="stop-color:#b3b3b3;stop-opacity:0.87421381;"
         offset="1"
         id="stop12418" />
    </linearGradient>
    <linearGradient
       inkscape:collect="always"
       xlink:href="#linearGradient12420"
       id="linearGradient12422"
       x1="136.54213"
       y1="221.64102"
       x2="169.81387"
       y2="221.38509"
       gradientUnits="userSpaceOnUse"
       gradientTransform="matrix(0.89548901,0,0,1.5628191,16.436808,-135.47549)" />
    <linearGradient
       inkscape:collect="always"
       xlink:href="#linearGradient13900"
       id="linearGradient15356"
       gradientUnits="userSpaceOnUse"
       gradientTransform="matrix(0.95454493,0,0,0.52480569,7.2128605,126.66842)"
       x1="136.54213"
       y1="221.64102"
       x2="169.81387"
       y2="221.38509" />
    <linearGradient
       inkscape:collect="always"
       id="linearGradient13900">
      <stop
         style="stop-color:#e4a562;stop-opacity:1;"
         offset="0.1607717"
         id="stop13888" />
      <stop
         style="stop-color:#b35d18;stop-opacity:0.98113215;"
         offset="0.38102895"
         id="stop13890" />
      <stop
         style="stop-color:#b34225;stop-opacity:1;"
         offset="0.6153537"
         id="stop13892" />
      <stop
         style="stop-color:#ea6245;stop-opacity:1;"
         offset="0.75"
         id="stop13894" />
      <stop
         style="stop-color:#ff8222;stop-opacity:1;"
         offset="0.87861735"
         id="stop13896" />
      <stop
         style="stop-color:#ff0e0a;stop-opacity:0.57232702;"
         offset="1"
         id="stop13898" />
    </linearGradient>
    <linearGradient
       inkscape:collect="always"
       xlink:href="#linearGradient13900"
       id="linearGradient27594"
       gradientUnits="userSpaceOnUse"
       gradientTransform="matrix(0.99373647,0,0,0.44098154,0.99388914,129.63336)"
       x1="136.54213"
       y1="221.64102"
       x2="169.81387"
       y2="221.38509" />
    <linearGradient
       inkscape:collect="always"
       xlink:href="#linearGradient13900"
       id="linearGradient13160"
       gradientUnits="userSpaceOnUse"
       x1="136.54213"
       y1="221.64102"
       x2="169.81387"
       y2="221.38509"
       gradientTransform="matrix(1.2916703,0,0,0.14160953,-44.320386,202.52207)" />
    <linearGradient
       inkscape:collect="always"
       xlink:href="#linearGradient13900"
       id="linearGradient19721"
       gradientUnits="userSpaceOnUse"
       gradientTransform="matrix(0.71685966,0,0,0.66850414,43.213375,155.13508)"
       x1="136.54213"
       y1="221.64102"
       x2="169.81387"
       y2="221.38509" />
    <linearGradient
       inkscape:collect="always"
       xlink:href="#linearGradient31314-2"
       id="linearGradient31318-7"
       x1="134.83498"
       y1="185.42915"
       x2="171.70763"
       y2="185.42915"
       gradientUnits="userSpaceOnUse"
       gradientTransform="translate(0.88267932,4.8547362)" />
    <linearGradient
       inkscape:collect="always"
       id="linearGradient31314-2">
      <stop
         style="stop-color:#b3b3b3;stop-opacity:1;"
         offset="0.07717042"
         id="stop31302-3" />
      <stop
         style="stop-color:#d2d2d2;stop-opacity:1;"
         offset="0.24919616"
         id="stop31304-6" />
      <stop
         style="stop-color:#9c9c9c;stop-opacity:1;"
         offset="0.40956593"
         id="stop31306-5" />
      <stop
         style="stop-color:#afafaf;stop-opacity:1;"
         offset="0.61816716"
         id="stop31308-58" />
      <stop
         style="stop-color:#d0d0d0;stop-opacity:1;"
         offset="0.77893889"
         id="stop31310-1" />
      <stop
         style="stop-color:#989898;stop-opacity:1;"
         offset="0.95498395"
         id="stop31312-4" />
    </linearGradient>
    <linearGradient
       inkscape:collect="always"
       xlink:href="#linearGradient13900"
       id="linearGradient20451"
       gradientUnits="userSpaceOnUse"
       gradientTransform="matrix(0.86056232,0,0,0.10568558,20.998931,291.05174)"
       x1="136.54213"
       y1="221.64102"
       x2="169.81387"
       y2="221.38509" />
    <linearGradient
       inkscape:collect="always"
       xlink:href="#linearGradient7901"
       id="linearGradient7903"
       x1="176.27478"
       y1="341.81375"
       x2="205.71162"
       y2="322.07376"
       gradientUnits="userSpaceOnUse" />
    <linearGradient
       inkscape:collect="always"
       id="linearGradient7901">
      <stop
         style="stop-color:#c99b07;stop-opacity:1;"
         offset="0"
         id="stop7897" />
      <stop
         style="stop-color:#997407;stop-opacity:1;"
         offset="0.20096463"
         id="stop7992" />
      <stop
         style="stop-color:#ba9d00;stop-opacity:1;"
         offset="0.39951769"
         id="stop7994" />
      <stop
         style="stop-color:#847006;stop-opacity:1;"
         offset="0.60490352"
         id="stop7996" />
      <stop
         style="stop-color:#da9b00;stop-opacity:1;"
         offset="0.79923636"
         id="stop7998" />
      <stop
         style="stop-color:#8d6407;stop-opacity:1;"
         offset="1"
         id="stop7899" />
    </linearGradient>
    <linearGradient
       inkscape:collect="always"
       xlink:href="#linearGradient31314-2"
       id="linearGradient30439"
       gradientUnits="userSpaceOnUse"
       gradientTransform="matrix(0.77838456,0,0,1.6103112,-81.05124,-244.30511)"
       x1="134.83498"
       y1="185.42915"
       x2="171.70763"
       y2="185.42915" />
    <linearGradient
       inkscape:collect="always"
       xlink:href="#linearGradient31314-2"
       id="linearGradient31318-32"
       x1="134.83498"
       y1="185.42915"
       x2="171.70763"
       y2="185.42915"
       gradientUnits="userSpaceOnUse"
       gradientTransform="matrix(1.2416479,0,0,0.22349536,-151.59035,33.816425)" />
    <linearGradient
       inkscape:collect="always"
       xlink:href="#linearGradient29442"
       id="linearGradient29444"
       x1="40.405777"
       y1="21.268559"
       x2="73.111427"
       y2="22.554464"
       gradientUnits="userSpaceOnUse" />
    <linearGradient
       inkscape:collect="always"
       id="linearGradient29442">
      <stop
         style="stop-color:#bdbdbd;stop-opacity:1;"
         offset="0"
         id="stop29438" />
      <stop
         style="stop-color:#a8a8a8;stop-opacity:1;"
         offset="0.2"
         id="stop29446" />
      <stop
         style="stop-color:#8c8c8c;stop-opacity:1;"
         offset="0.39951771"
         id="stop29448" />
      <stop
         style="stop-color:#5b5b5b;stop-opacity:1;"
         offset="0.60490352"
         id="stop29450" />
      <stop
         style="stop-color:#606060;stop-opacity:1;"
         offset="0.79923636"
         id="stop29452" />
      <stop
         style="stop-color:#c0c0c0;stop-opacity:1;"
         offset="1"
         id="stop29440" />
    </linearGradient>
    <linearGradient
       inkscape:collect="always"
       xlink:href="#linearGradient28700"
       id="linearGradient28702"
       x1="26.192024"
       y1="39.753902"
       x2="51.866421"
       y2="55.489822"
       gradientUnits="userSpaceOnUse" />
    <linearGradient
       inkscape:collect="always"
       id="linearGradient28700">
      <stop
         style="stop-color:#c9634e;stop-opacity:1;"
         offset="0"
         id="stop28696" />
      <stop
         style="stop-color:#f14a2c;stop-opacity:1;"
         offset="0.2"
         id="stop28704" />
      <stop
         style="stop-color:#e34424;stop-opacity:1;"
         offset="0.40000001"
         id="stop28706" />
      <stop
         style="stop-color:#ef4f32;stop-opacity:0.98113215;"
         offset="0.60000002"
         id="stop28708" />
      <stop
         style="stop-color:#f68a74;stop-opacity:1;"
         offset="0.79923636"
         id="stop28710" />
      <stop
         style="stop-color:#ff2525;stop-opacity:0.93081754;"
         offset="1"
         id="stop28698" />
    </linearGradient>
    <linearGradient
       inkscape:collect="always"
       xlink:href="#linearGradient29458"
       id="linearGradient29460"
       x1="27.744911"
       y1="40.582108"
       x2="50.417057"
       y2="55.282772"
       gradientUnits="userSpaceOnUse" />
    <linearGradient
       inkscape:collect="always"
       id="linearGradient29458">
      <stop
         style="stop-color:#acacac;stop-opacity:1;"
         offset="0"
         id="stop29454" />
      <stop
         style="stop-color:#626262;stop-opacity:1;"
         offset="0.20096463"
         id="stop29462" />
      <stop
         style="stop-color:#575757;stop-opacity:1;"
         offset="0.40000001"
         id="stop29464" />
      <stop
         style="stop-color:#676767;stop-opacity:1;"
         offset="0.60490352"
         id="stop29466" />
      <stop
         style="stop-color:#b0b0b0;stop-opacity:1;"
         offset="0.79923636"
         id="stop29468" />
      <stop
         style="stop-color:#adadad;stop-opacity:1;"
         offset="1"
         id="stop29456" />
    </linearGradient>
    <linearGradient
       inkscape:collect="always"
       xlink:href="#linearGradient29474"
       id="linearGradient29476"
       x1="39.132748"
       y1="42.031471"
       x2="38.718643"
       y2="54.55809"
       gradientUnits="userSpaceOnUse" />
    <linearGradient
       inkscape:collect="always"
       id="linearGradient29474">
      <stop
         style="stop-color:#929292;stop-opacity:1;"
         offset="0"
         id="stop29470" />
      <stop
         style="stop-color:#9a9a9a;stop-opacity:1;"
         offset="0.20418006"
         id="stop29478" />
      <stop
         style="stop-color:#848484;stop-opacity:1;"
         offset="0.39951769"
         id="stop29480" />
      <stop
         style="stop-color:#727272;stop-opacity:1;"
         offset="0.60168809"
         id="stop29482" />
      <stop
         style="stop-color:#606060;stop-opacity:1;"
         offset="0.79602093"
         id="stop29484" />
      <stop
         style="stop-color:#2b2b2b;stop-opacity:1;"
         offset="1"
         id="stop29472" />
    </linearGradient>
    <linearGradient
       xlink:href="#linearGradient6292"
       id="linearGradient6312"
       x1="185.06396"
       y1="307.84872"
       x2="185.30064"
       y2="271.59473"
       gradientUnits="userSpaceOnUse"
       spreadMethod="reflect"
       gradientTransform="translate(80.653335,-0.84651185)" />
    <linearGradient
       id="linearGradient6292">
      <stop
         style="stop-color:#fd5;stop-opacity:1"
         offset="0"
         id="stop6288" />
      <stop
         style="stop-color:#ff0b0b;stop-opacity:.79874212"
         offset=".34793249"
         id="stop6290" />
    </linearGradient>
  </defs>
  <g
     inkscape:groupmode="layer"
     id="hendi"
     inkscape:label="hendi"
     transform="translate(-168.12173,350.6282)"
     style="display:inline">
    <path
       style="display:inline;fill:#e5e5e5;fill-opacity:1"
       d="m 302.764,-58.42272 h -1.52916 c -0.38902,0 -0.59649,0 -1.55616,0.10369 -0.95967,0.10369 -2.67133,0.31116 -4.48698,0.82981 -1.81565,0.51865 -3.73479,1.34855 -5.08375,2.64565 -1.34895,1.29709 -2.12698,3.06062 -2.74939,5.13558 -0.62242,2.07496 -1.08923,4.4609 -1.29663,7.9882 -0.2074,3.52729 -0.15553,8.19546 0.15592,11.25588 0.31146,3.06041 0.88201,4.51273 3.6833,5.34206 2.80129,0.82933 7.83255,1.03681 24.79417,1.1924 16.96161,0.15559 45.85239,0.25932 60.32403,0.31119 14.47162,0.0519 14.52346,0.0519 14.54889,1.73816 0.0254,1.6863 0.0254,5.05775 0.0513,6.63962 0.0258,1.58187 0.0777,1.3744 -15.58664,1.37405 -15.66434,-3.6e-4 -47.0448,0.20712 -63.61706,0.10351 -16.57227,-0.1036 -18.33579,-0.51855 -20.12533,-0.88168 -1.78953,-0.36313 -3.60493,-0.67434 -5.57603,-1.76325 -1.9711,-1.08891 -4.09772,-2.95618 -5.47271,-5.93862 -1.375,-2.98244 -1.99742,-7.08005 -2.33465,-10.84068 -0.33723,-3.76064 -0.3891,-7.18396 -0.2854,-10.89271 0.10371,-3.70875 0.36305,-7.70263 1.40048,-10.65966 1.03743,-2.95704 2.85282,-4.87617 4.43495,-6.35453 1.58211,-1.47836 2.93069,-2.51573 4.56476,-3.47538 1.63406,-0.95964 3.5532,-1.84141 5.47259,-2.41193 1.91939,-0.57052 3.83854,-0.82987 5.57626,-0.95948 1.73772,-0.12962 3.29377,-0.12962 4.84886,-0.12962"
       id="tube3" />
    <path
       id="tube2"
       style="display:inline;fill:#e5e5e5;fill-opacity:1"
       d="m 438.17754,-72.98243 c -2.69323,0.0178 -5.5951,0.23648 -8.40234,0.57617 -3.74302,0.45292 -7.31855,1.12097 -10.29884,2.16992 -2.98029,1.04896 -5.36437,2.47921 -7.3672,4.50586 -2.00282,2.02665 -3.62371,4.64898 -4.625,6.91406 -1.00129,2.26509 -1.38275,4.17125 -1.62109,6.7461 -0.23834,2.57483 -0.3332,5.8167 -0.38086,9.03515 -0.0477,3.21846 -0.0483,6.41341 -0.0723,8.08203 -0.0239,1.66864 -0.0705,1.812 1.52735,1.85938 1.59786,0.0474 4.8382,3.5e-4 6.43554,-0.0234 1.59736,-0.0238 1.55015,-0.0235 1.50197,-2.47851 -0.0482,-2.45503 -0.0958,-7.36621 0.26171,-11.22852 0.35751,-3.86231 1.12168,-6.67556 2.12305,-8.75 1.00137,-2.07444 2.24002,-3.40908 3.74219,-4.50586 1.50216,-1.09678 3.26591,-1.95673 4.74414,-2.55273 1.47823,-0.59601 2.67036,-0.9285 4.60157,-1.11914 1.93122,-0.19064 4.60122,-0.23789 6.00781,-0.26172 1.40661,-0.0238 1.55028,-0.0243 2.50391,0.0234 0.95363,0.0477 2.71806,0.14185 4.72071,0.52344 2.00266,0.38159 4.24271,1.05008 5.72071,1.76563 1.47799,0.71554 2.19442,1.47896 3.05273,2.26562 0.85832,0.78666 1.85814,1.59593 2.5254,2.38281 0.66725,0.7869 1.00135,1.55012 1.16797,2.28907 0.16662,0.73894 0.16602,1.45376 0.16602,2.16797 l 0.78711,0.0801 h 0.36914 c 0.17613,-0.005 0.35124,-0.0155 0.52734,-0.0215 0.15119,-0.005 0.30186,-0.008 0.45313,-0.01 0.1112,-10e-4 0.22274,-0.002 0.33398,-0.002 0.11122,-2.3e-4 0.22276,5e-5 0.33398,0 0.10565,-3e-5 0.21076,0 0.31641,0 0.12184,-10e-6 0.24339,0 0.36523,0 h 0.77735 c 0.12105,-0.003 0.24262,0.008 0.36328,0.0156 0.10877,0.007 0.21718,0.01 0.32617,0.0117 0.11193,0.002 0.22399,0.004 0.33594,0.004 0.14737,3.8e-4 0.29406,-9e-5 0.4414,0 0.11272,6e-5 0.22519,-10e-6 0.3379,0 0.10338,10e-4 0.20752,-0.0106 0.31054,-0.0176 0.12217,-0.008 0.24483,-0.0126 0.36719,-0.01 0.13697,0.0109 0.27329,0.0289 0.41016,0.041 0.10501,0.008 0.20918,0.0126 0.31445,0.0156 0.11819,0.002 0.23726,0.004 0.35547,0.004 0.11926,0.004 0.23746,-0.0152 0.35547,-0.0293 0.0922,-0.009 0.18368,-0.0183 0.27539,-0.0273 0.0284,-1.4481 -0.003,-2.89895 -0.44531,-4.36718 -0.52411,-1.74025 -1.62038,-3.50435 -3.28907,-5.55469 -1.66869,-2.05034 -3.91043,-4.38725 -5.86523,-5.96094 -1.95481,-1.57369 -3.62424,-2.38463 -5.86525,-3.07617 -2.241,-0.69155 -5.05247,-1.26266 -8.41407,-1.42969 -0.8404,-0.0418 -1.71554,-0.0587 -2.61328,-0.0527 z m 21.69924,20.75976 0.21484,0.0215 c 0.007,-0.005 0.0216,-0.004 0.0352,0 0.0889,-0.004 0.17906,-0.007 0.26758,-0.0156 0.0196,-0.002 0.039,-0.004 0.0586,-0.006 h -0.33203 z" />
    <path
       style="display:inline;fill:#e5e5e5;fill-opacity:1"
       d="m 431.82102,-23.73995 c 17.89237,-0.0461 35.78374,-0.0922 45.76679,-0.4151 9.98306,-0.32289 12.05804,-0.92233 13.80995,-2.0289 1.7519,-1.10658 3.18134,-2.72045 4.91056,-4.65717 1.72921,-1.93672 3.75809,-4.19615 6.50196,-6.34048 2.74386,-2.14434 6.20218,-4.17322 10.72142,-5.71795 4.51924,-1.54474 10.09866,-2.60529 15.12496,-3.27387 5.0263,-0.66858 9.49906,-0.94524 15.05562,-1.15273 5.55657,-0.20749 12.19653,-0.34582 18.14502,-0.39191 5.94848,-0.0461 11.20512,1e-5 15.19389,0.27679 3.98876,0.27677 6.7093,0.78399 9.19939,1.56808 2.49009,0.78409 4.74952,1.84464 6.77837,3.22821 2.02884,1.38358 3.82716,3.08967 4.91047,4.54232 1.0833,1.45264 1.45219,2.65153 1.63645,4.15008 0.18426,1.49855 0.18426,3.29687 0.11509,4.26472 -0.0692,0.96785 -0.2075,1.10618 -1.70566,1.17534 -1.49816,0.0692 -4.35703,0.0692 -5.787,-0.0456 -1.42996,-0.11478 -1.42996,-0.34533 -1.476,-0.82946 -0.046,-0.48413 -0.13827,-1.2219 -0.25353,-2.05191 -0.11527,-0.83002 -0.25361,-1.75223 -0.71423,-2.46716 -0.46063,-0.71492 -1.24452,-1.22214 -2.30509,-1.70648 -1.06056,-0.48435 -2.39778,-0.94546 -3.66598,-1.15319 -1.26821,-0.20773 -2.46709,-0.16162 -4.1732,-0.18463 -1.70612,-0.023 -3.91944,-0.11524 -7.83904,-0.0692 -3.91959,0.0461 -9.54511,0.23052 -16.41587,0.50719 -6.87074,0.27667 -14.98625,0.64556 -20.49665,0.94527 -5.51042,0.29972 -8.41539,0.53027 -10.46742,0.73775 -2.05203,0.20747 -3.25091,0.39192 -4.51913,0.71466 -1.26821,0.32275 -2.60543,0.78386 -3.6894,1.52182 -1.08397,0.73795 -1.91396,1.75239 -2.60555,2.49009 -0.69159,0.7377 -1.24492,1.19881 -1.89061,1.93673 -0.64568,0.73793 -1.38345,1.75237 -2.19037,2.74372 -0.80692,0.99134 -1.68303,1.95968 -2.85886,3.11243 -1.17582,1.15276 -2.65136,2.48997 -4.8875,3.57354 -2.23614,1.08356 -5.23335,1.91356 -7.93088,2.5822 -2.69751,0.66864 -5.09527,1.17585 -7.60829,1.49869 -2.51303,0.32284 -5.14136,0.46117 -14.31773,0.59953 -9.17638,0.13836 -24.90018,0.27669 -40.62529,0.41503"
       id="tube1" />
    <path
       style="display:inline;fill:#e5e5e5;fill-opacity:1;stroke:#000000;stroke-width:0.999808;stroke-linecap:square;stroke-linejoin:miter;stroke-miterlimit:4;stroke-dasharray:none;stroke-opacity:1;paint-order:markers stroke fill"
       id="rect274-3-9-9-1-1"
       d="m 400.56109,-193.285 h 24.00021 v 39.00019 h -24.00021 z" />
    <rect
       style="display:inline;fill:#e5e5e5;fill-opacity:1;stroke:#000000;stroke-width:0.999801;stroke-linecap:square;stroke-linejoin:miter;stroke-miterlimit:4;stroke-dasharray:none;stroke-opacity:1;paint-order:markers stroke fill"
       id="rect274-3-9-9-1-8-8"
       width="59.000248"
       height="84.000198"
       x="600.56122"
       y="-343.28497"
       ry="0"
       onmouseover=""
       onmouseout="" />
    <rect
       style="display:inline;fill:#e5e5e5;fill-opacity:1;stroke:#000000;stroke-width:1.00002;stroke-linecap:square;stroke-linejoin:miter;stroke-miterlimit:4;stroke-dasharray:none;stroke-opacity:1;paint-order:markers stroke fill"
       id="rect274-3-9-9-1-8-5-2"
       width="39.000015"
       height="118.99998"
       x="330.56113"
       y="-343.28488"
       ry="0" />
    <rect
       style="display:inline;fill:#e5e5e5;fill-opacity:1;stroke:#000000;stroke-width:1.00004;stroke-linecap:square;stroke-linejoin:miter;stroke-miterlimit:4;stroke-dasharray:none;stroke-opacity:1;paint-order:markers stroke fill"
       id="rect274-3-9-9-1-8-5-5-56"
       width="69.000008"
       height="28.999954"
       x="445.56125"
       y="-258.28485"
       ry="0" />
    <rect
       style="display:inline;fill:#e5e5e5;fill-opacity:1;stroke:#000000;stroke-width:0.999905;stroke-linecap:square;stroke-linejoin:miter;stroke-miterlimit:4;stroke-dasharray:none;stroke-opacity:1;paint-order:markers stroke fill"
       id="rect274-3-9-9-1-8-5-5-5-4"
       width="79.000153"
       height="4.0000949"
       x="440.56119"
       y="-263.28494"
       ry="0" />
    <rect
       style="display:inline;fill:#e5e5e5;fill-opacity:1;stroke:#000000;stroke-width:0.999904;stroke-linecap:square;stroke-linejoin:miter;stroke-miterlimit:4;stroke-dasharray:none;stroke-opacity:1;paint-order:markers stroke fill"
       id="rect274-3-9-9-1-8-5-5-2-1"
       width="14.000107"
       height="11.000097"
       x="473.06122"
       y="-275.28491"
       ry="0" />
    <rect
       style="display:inline;fill:#e5e5e5;fill-opacity:1;stroke:#000000;stroke-width:0.999963;stroke-linecap:square;stroke-linejoin:miter;stroke-miterlimit:4;stroke-dasharray:none;stroke-opacity:1;paint-order:markers stroke fill"
       id="rect274-3-9-9-1-8-5-5-6-5"
       width="69.000092"
       height="29.000036"
       x="445.56122"
       y="-118.28492"
       ry="0" />
    <rect
       style="display:inline;fill:#e5e5e5;fill-opacity:1;stroke:#000000;stroke-width:0.999983;stroke-linecap:square;stroke-linejoin:miter;stroke-miterlimit:4;stroke-dasharray:none;stroke-opacity:1;paint-order:markers stroke fill"
       id="rect274-3-9-9-1-8-5-5-6-4-9"
       width="39.000046"
       height="34.001369"
       x="330.56113"
       y="-123.28489"
       ry="0" />
    <path
       style="display:inline;fill:#e5e5e5;fill-opacity:1;stroke:#000000;stroke-width:0.999808;stroke-linecap:square;stroke-linejoin:miter;stroke-miterlimit:4;stroke-dasharray:none;stroke-opacity:1;paint-order:markers stroke fill"
       id="rect274-3-9-9-1-4-3"
       d="m 535.56122,-193.285 h 24.0002 v 39.00019 h -24.0002 z" />
    <path
       style="display:inline;fill:#e5e5e5;fill-opacity:1;stroke:#000000;stroke-width:0.999808;stroke-linecap:square;stroke-linejoin:miter;stroke-miterlimit:4;stroke-dasharray:none;stroke-opacity:1;paint-order:markers stroke fill"
       id="rect274-3-9-9-1-7-0"
       d="m 275.561,-193.285 h 24.00022 v 39.00019 H 275.561 Z" />
    <path
       id="rotary-pump"
       style="display:inline;fill:#e5e5e5;fill-opacity:1;stroke:#000000;stroke-width:1;stroke-dasharray:none;stroke-opacity:1;paint-order:markers stroke fill"
       d="m 404.05755,-34.01455 v 1.80664 h 0.77344 v 8.23242 H 391.2099 v -0.60156 h -1.7168 v 11.75586 h 1.7168 v -0.73828 h 13.62109 V 6.3585 h -29.17773 v 13.21093 l -0.0898,0.002 v -8.44531 c 0,0 -20.07226,2.15212 -20.07226,5.01953 0,1.37366 -0.0341,2.79685 -0.0684,3.92382 l -0.041,0.002 c 0,0 -0.0131,1.16675 -0.0176,1.64062 -0.003,0.0816 -0.0156,0.45508 -0.0156,0.45508 h 0.0117 c -0.0229,2.36173 -0.0684,6.69851 -0.12305,8.93945 -0.0701,2.87581 19.57766,5.11845 20.41602,5.21289 v 5.70899 h 50.42187 V 6.35858 h -10.1289 v -19.91797 h 13.75 v 0.73828 h 1.71679 v -11.75586 h -1.71679 v 0.60156 h -13.75 v -8.23242 h 0.65429 v -1.80664 z m -23.88867,27.66016 c -0.35977,-4.7e-4 -0.77546,0.002 -1.26758,0.006 -1.96847,0.0149 -5.15856,0.0447 -6.79882,0.0449 -0.49932,6e-5 -0.85344,-0.002 -1.10743,0.0293 h -6.97656 v 7.3379 h 7.24805 v -0.0312 c 0.82763,-0.0259 2.35837,10e-4 3.38476,0.0156 1.05878,0.0149 1.56701,0.0156 2.0293,0.0156 0.46229,0 0.87907,-6.4e-4 1.25195,0.0293 0.37289,0.0299 0.701,0.0907 1.10352,0.4043 0.40252,0.3136 0.87904,0.87888 1.11719,1.6543 0.23814,0.77541 0.23828,1.76092 0.23828,2.74414 l 9.93164,-0.17969 c 0.0298,-0.9236 0.0598,-1.84784 0.0449,-2.66797 -0.0148,-0.82013 -0.0732,-1.53569 -0.25195,-2.28125 -0.17877,-0.74556 -0.47738,-1.52137 -0.93946,-2.29687 -0.46207,-0.77551 -1.08831,-1.55196 -1.78906,-2.19336 -0.70075,-0.64141 -1.47618,-1.14674 -2.32617,-1.56446 -0.84999,-0.41771 -1.77418,-0.7459 -2.60938,-0.91015 -0.6264,-0.12319 -1.2039,-0.15485 -2.2832,-0.15625 z" />
    <path
       id="diffusion-pump-1"
       style="display:inline;fill:#e5e5e5;fill-opacity:1;stroke:#000000;stroke-width:0.999996;stroke-dasharray:none;stroke-opacity:1;paint-order:markers stroke fill"
       d="m 455.03627,-89.268294 v 15.115113 h -0.0723 c 0.0482,1.149808 0.0944,2.29868 0.14258,3.167948 0.0481,0.869261 0.0964,1.458941 0.28906,2.136698 0.19267,0.67775 0.53088,1.444709 0.98828,2.078112 0.45741,0.633398 1.03509,1.133876 1.70899,1.634752 0.67389,0.50087 1.4445,1.002461 2.3711,1.591781 0.92659,0.589319 2.00871,1.267039 3.01953,1.87108 1.01083,0.604041 1.94998,1.134438 2.74414,1.841784 0.79416,0.70734 1.4432,1.589726 2.04492,2.296852 0.60173,0.707132 1.15483,1.237548 1.44337,2.033191 0.19004,0.524049 0.2612,1.152988 0.28711,1.679674 -0.004,0.05241 -0.0156,0.10273 -0.0156,0.156245 v 6.886665 h -4.95118 v -5.378863 c 0,-0.263704 -0.21285,-0.476559 -0.47656,-0.476559 h -8.66211 c -0.26371,0 -0.47461,0.212855 -0.47461,0.476559 v 14.242072 c 0,0.263704 0.2109,0.476559 0.47461,0.476559 h 8.66211 c 0.26371,0 0.47656,-0.212855 0.47656,-0.476559 v -2.681615 h 4.95118 v 4.146446 c 0,1.107993 0.892,1.999987 2,1.999987 h 16.08986 c 1.108,0 2,-0.891994 2,-1.999987 v -16.30065 c 0.0867,-0.07891 0.0823,-0.197529 0.0781,-0.386715 -0.0118,-0.530074 0.0122,-1.591053 0.30078,-2.386696 0.28853,-0.795642 0.84164,-1.326059 1.44336,-2.03319 0.60172,-0.707132 1.25272,-1.591469 2.04687,-2.298809 0.79416,-0.707346 1.73137,-1.237744 2.74219,-1.841779 1.01083,-0.60404 2.0949,-1.28176 3.02149,-1.87108 0.92659,-0.589319 1.6972,-1.088966 2.3711,-1.589829 0.6739,-0.500876 1.25158,-1.003306 1.70898,-1.636709 0.45741,-0.633404 0.79366,-1.398405 0.98634,-2.076156 0.19266,-0.677757 0.2409,-1.267443 0.28905,-2.136698 0.0482,-0.869267 0.0964,-2.018139 0.14454,-3.167947 h -0.13868 v -15.091677 z" />
    <path
       id="diffusion-pump-2"
       style="display:inline;fill:#e5e5e5;fill-opacity:1;stroke:#000000;stroke-width:1;stroke-linecap:square;stroke-dasharray:none;stroke-opacity:1;paint-order:markers stroke fill"
       d="m 580.28282,-89.06338 v 24.7168 h -0.14453 c 0.0964,1.88 0.19268,3.75839 0.28906,5.17968 0.0964,1.42129 0.19242,2.38402 0.57812,3.49219 0.3857,1.10816 1.06092,2.36084 1.97657,3.39649 0.91565,1.03565 2.07283,1.85487 3.42187,2.67382 1.34903,0.81895 2.88925,1.638 4.74414,2.60157 1.85489,0.96357 4.02337,2.07291 6.04688,3.06054 2.02351,0.98764 3.90241,1.85322 5.49218,3.00977 1.58977,1.15654 2.89116,2.60357 4.09571,3.75977 1.20455,1.15619 2.31302,2.0233 2.89062,3.32421 0.31995,0.72061 0.46818,1.56267 0.54102,2.32813 v 11.92969 h -9.58789 v -9.09571 c 0,-0.2637 -0.21286,-0.47461 -0.47657,-0.47461 h -9.26562 c -0.2637,0 -0.47656,0.21091 -0.47656,0.47461 v 23.89258 c 0,0.26371 0.21286,0.47656 0.47656,0.47656 H 600.15 c 0.26371,0 0.47657,-0.21285 0.47657,-0.47656 V -9.4794 h 9.58789 v 8.04883 c 0,1.108 0.892,2 2,2 h 36.21679 c 1.108,0 2,-0.892 2,-2 v -27.91601 c 0.18088,-0.12887 0.16479,-0.32724 0.15625,-0.64063 -0.0236,-0.8667 0.0259,-2.60142 0.60352,-3.90234 0.5776,-1.30092 1.68608,-2.16802 2.89063,-3.32422 1.20454,-1.1562 2.50398,-2.60127 4.09375,-3.75781 1.58977,-1.15655 3.46866,-2.02408 5.49218,-3.01172 2.02351,-0.98764 4.19199,-2.09503 6.04688,-3.0586 1.85489,-0.96356 3.39706,-1.78261 4.74609,-2.60156 1.34904,-0.81896 2.50427,-1.63818 3.41992,-2.67383 0.91565,-1.03564 1.59087,-2.28832 1.97657,-3.39648 0.3857,-1.10817 0.48172,-2.0709 0.57812,-3.49219 0.0964,-1.4213 0.19266,-3.30164 0.28906,-5.18164 h -0.27734 v -24.67578 z" />
    <path
       style="display:inline;fill:#e5e5e5;fill-opacity:1;stroke:#000000;stroke-width:0.999901;stroke-linecap:square;stroke-linejoin:miter;stroke-dasharray:none;stroke-opacity:1;paint-order:markers stroke fill"
       id="detection-chamber"
       d="m 300.56097,-223.28494 h 99.0001 v 99.0001 h -99.0001 z" />
    <path
       style="display:inline;fill:#e5e5e5;fill-opacity:1;stroke:#000000;stroke-width:1.00001;stroke-linecap:square;stroke-linejoin:miter;stroke-dasharray:none;stroke-opacity:1;paint-order:markers stroke fill"
       id="doping-chamber"
       d="M 425.56101,-228.28489 H 534.56102 V -119.2849 H 425.56101 Z" />
    <path
       style="display:inline;fill:#e5e5e5;fill-opacity:1;stroke:#000000;stroke-width:1.00012;stroke-linecap:square;stroke-linejoin:miter;stroke-dasharray:none;stroke-opacity:1;paint-order:markers stroke fill"
       id="source-chamber"
       d="M 560.56109,-258.28483 H 699.56097 V -89.28495 H 560.56109 Z" />
    <path
       id="ion-gauge-3"
       style="fill:#e5e5e5;fill-opacity:1;stroke:#000000;stroke-opacity:1;paint-order:markers stroke fill"
       d="m 569.83024,-298.98899 v 29.69141 h 5.28516 v 10.24219 h 10.07617 v -10.24219 h 5.12109 v -29.69141 z" />
    <path
       id="ion-gauge-2"
       style="fill:#e5e5e5;fill-opacity:1;stroke:#000000;stroke-opacity:1;paint-order:markers stroke fill"
       d="m 420.30876,-268.73899 v 29.69336 h 5.28515 v 10.24024 h 10.07617 v -10.24024 h 5.1211 v -29.69336 z" />
    <path
       id="ion-gauge-1"
       style="fill:#e5e5e5;fill-opacity:1;stroke:#000000;stroke-opacity:1;paint-order:markers stroke fill"
       d="m 304.65251,-263.85031 v 29.6914 h 5.28515 v 10.24219 h 10.07617 v -10.24219 h 5.1211 v -29.6914 z" />
    <path
       id="turbo-pump"
       style="fill:#e5e5e5;fill-opacity:1;stroke:#000000;stroke-opacity:1;paint-order:markers stroke fill"
       d="m 320.16107,-88.94619 v 19.9336 h -13.75 v -0.98633 h -3.31641 v 12.51172 h 3.31641 v -0.94532 h 13.75 v 4.29493 h 59.95508 v -34.8086 z" />
    <path
       id="lecture-2"
       style="fill:#e5e5e5;fill-opacity:1;stroke-width:0.694687"
       d="m 208.70524,-78.81125 -7.82031,2.97851 3.16211,4.70118 1.45898,-0.0117 v 4.7207 h -4.51172 v 3.27344 h 4.51172 v 10.29883 h 6.89063 v -10.29883 h 4.38086 v -3.27344 h -4.38086 V -71.196 l 1.42578,-0.0117 2.8789,-4.74609 z" />
    <path
       id="lecture-1"
       style="fill:#ffcccc;fill-opacity:1;stroke-width:0.697593"
       d="m 208.70329,-55.66281 a 14.601511,13.927815 0 0 0 -14.54102,13.10742 h -0.0606 v 59.71484 a 15.57327,4.2389007 0 0 0 -0.95117,1.44922 15.57327,4.2389007 0 0 0 15.57422,4.23828 15.57327,4.2389007 0 0 0 15.57226,-4.23828 15.57327,4.2389007 0 0 0 -0.9707,-1.4707 v -59.69336 h -0.0488 a 14.601511,13.927815 0 0 0 -14.57421,-13.10742 z" />
    <g
       id="stark"
       transform="matrix(1.1014888,0.01501062,-0.01611293,1.1823766,442.89405,-206.04847)"
       style="display:inline">
      <path
         id="path6139"
         style="mix-blend-mode:normal;fill:url(#linearGradient6889);fill-opacity:1;stroke-width:0.160907;filter:url(#filter6883)"
         d="m 5.3848505,24.64094 a 3.7035945,0.58488556 0 0 0 -3.680688,0.524853 h -0.02285 v 0.05997 3.08938 h 0.02285 a 3.7035945,0.58488556 0 0 0 -0.02285,0.05997 3.7035945,0.58488556 0 0 0 3.703556,0.585053 3.7035945,0.58488556 0 0 0 3.703552,-0.585053 3.7035945,0.58488556 0 0 0 -0.02331,-0.05997 h 0.02331 v -3.08938 -0.05997 h -0.02331 A 3.7035945,0.58488556 0 0 0 5.3848485,24.64094 Z m -3.760082,0.584824 0.05653,3.179565 z"
         transform="matrix(1,0,0,1.4311019,0,-11.476925)" />
      <path
         id="path7730"
         style="mix-blend-mode:normal;fill:url(#linearGradient7732);fill-opacity:1;stroke-width:0.160907;filter:url(#filter6883)"
         d="m 39.810401,24.333569 a 3.7035945,0.58488556 0 0 0 -3.680688,0.524853 h -0.02285 v 0.05997 3.08938 h 0.02285 a 3.7035945,0.58488556 0 0 0 -0.02285,0.05997 3.7035945,0.58488556 0 0 0 3.703556,0.585053 3.7035945,0.58488556 0 0 0 3.703552,-0.585053 3.7035945,0.58488556 0 0 0 -0.02331,-0.05997 h 0.02331 v -3.08938 -0.05997 h -0.02331 a 3.7035945,0.58488556 0 0 0 -3.680262,-0.524853 z m -3.760082,0.584824 0.05653,3.179565 z"
         transform="matrix(0.38466774,0,0,1.1724407,21.866584,-4.4148181)" />
      <path
         id="path7734"
         style="mix-blend-mode:normal;fill:url(#linearGradient7736);fill-opacity:1;stroke-width:0.160907;filter:url(#filter6883)"
         d="m 74.082266,24.333569 a 3.7035945,0.58488556 0 0 0 -3.680688,0.524853 h -0.02285 v 0.05997 3.08938 h 0.02285 a 3.7035945,0.58488556 0 0 0 -0.02285,0.05997 3.7035945,0.58488556 0 0 0 3.703556,0.585053 3.7035945,0.58488556 0 0 0 3.703552,-0.585053 3.7035945,0.58488556 0 0 0 -0.02331,-0.05997 h 0.02331 v -3.08938 -0.05997 h -0.02331 a 3.7035945,0.58488556 0 0 0 -3.680262,-0.524853 z m -3.760082,0.584824 0.05653,3.179565 z"
         transform="matrix(1,0,0,1.3736216,0,-9.8215818)" />
      <path
         style="fill:none;stroke:url(#linearGradient5322);stroke-width:1.32292;stroke-dasharray:0.661458, 0.661458;stroke-dashoffset:0;stroke-opacity:1;filter:url(#filter5312)"
         d="m 75.00504,34.509531 -5.993736,4.149508 -4.610566,3.07371 -4.456877,4.45688 -7.22322,5.378992 -5.378992,3.073709 -5.686362,3.07371 -7.376903,3.381081 -7.991647,2.920024 -7.376903,2.305283"
         id="path5310" />
      <path
         style="fill:none;stroke:url(#linearGradient4469);stroke-width:1.32292;stroke-dasharray:0.661458, 0.661458;stroke-dashoffset:0;stroke-opacity:1;filter:url(#filter2452)"
         d="m 4.3031939,18.74963 -5.6863633,-4.76425 -5.5326777,0.614742 -3.9958229,4.149508 -2.151597,6.454791 1.075799,7.223219 3.0737093,8.452702 5.0716214,8.913757 7.530589,6.45479 4.3031939,5.532679"
         id="path2342" />
      <path
         id="path67148"
         style="fill:url(#linearGradient67150);fill-opacity:1;stroke-width:0.0853633"
         d="m 4.4571896,23.34982 a 2.3693847,0.21626887 0.02993193 0 0 2.354996,-0.192557 l 0.01447,8e-6 1.1e-5,-0.02222 5.97e-4,-1.142566 -0.01447,-7e-6 a 2.3693847,0.21626887 0.02993193 0 0 0.01448,-0.02221 2.3693847,0.21626887 0.02993193 0 0 -1.362089,-0.196048 l 0.0015,-2.880961 -0.0062,-3e-6 a 0.99668177,0.61168423 0.02993193 0 0 0.0062,-0.06253 0.99668177,0.61168423 0.02993193 0 0 -0.996519,-0.61237 0.99668177,0.61168423 0.02993193 0 0 -0.996641,0.611329 0.99668177,0.61168423 0.02993193 0 0 0.0062,0.06253 l -0.0062,-3e-6 -0.0015,2.879926 a 2.3693847,0.21626887 0.02993193 0 0 -1.383481,0.195649 2.3693847,0.21626887 0.02993193 0 0 0.01498,0.02223 l -0.01499,-7e-6 -5.97e-4,1.142565 -1.2e-5,0.02222 0.01499,8e-6 a 2.3693847,0.21626887 0.02993193 0 0 2.354277,0.195017 z m 2.40565,-0.214751 -0.03556,-1.175658 z"
         inkscape:transform-center-x="-7.9916456"
         inkscape:transform-center-y="4.6105648" />
      <path
         id="path65692"
         style="fill:url(#linearGradient65694);fill-opacity:1;stroke-width:0.0853633"
         d="m 39.842366,45.267006 a 2.3693847,0.21626887 0 0 0 -2.354895,0.193787 h -0.01447 v 0.02222 1.142566 h 0.01447 a 2.3693847,0.21626887 0 0 0 -0.01447,0.02222 2.3693847,0.21626887 0 0 0 1.362191,0.195337 v 2.880961 h 0.0062 a 0.99668177,0.61168423 0 0 0 -0.0062,0.06253 0.99668177,0.61168423 0 0 0 0.996838,0.611849 0.99668177,0.61168423 0 0 0 0.996322,-0.611849 0.99668177,0.61168423 0 0 0 -0.0062,-0.06253 h 0.0062 V 46.84417 a 2.3693847,0.21626887 0 0 0 1.383378,-0.196371 2.3693847,0.21626887 0 0 0 -0.01499,-0.02222 h 0.01499 v -1.142566 -0.02222 h -0.01499 a 2.3693847,0.21626887 0 0 0 -2.354378,-0.193787 z m -2.405538,0.216008 0.03617,1.175639 z" />
      <path
         id="path63505"
         style="fill:url(#linearGradient63507);fill-opacity:1;stroke-width:0.0853633"
         d="m 74.728972,29.744772 a 2.3693847,0.21626887 0 0 0 -2.354895,0.193787 h -0.01447 v 0.02222 1.142566 h 0.01447 a 2.3693847,0.21626887 0 0 0 -0.01447,0.02222 2.3693847,0.21626887 0 0 0 1.362191,0.195337 v 2.880961 h 0.0062 a 0.99668177,0.61168423 0 0 0 -0.0062,0.06253 0.99668177,0.61168423 0 0 0 0.996838,0.611849 0.99668177,0.61168423 0 0 0 0.996322,-0.611849 0.99668177,0.61168423 0 0 0 -0.0062,-0.06253 h 0.0062 v -2.879927 a 2.3693847,0.21626887 0 0 0 1.383378,-0.196371 2.3693847,0.21626887 0 0 0 -0.01499,-0.02222 h 0.01499 v -1.142566 -0.02222 h -0.01499 a 2.3693847,0.21626887 0 0 0 -2.354378,-0.193787 z m -2.405538,0.216008 0.03617,1.175639 z" />
      <path
         id="path57631"
         style="fill:url(#linearGradient57633);fill-opacity:1;stroke-width:0.517276"
         d="m 13.436289,41.88576 a 6.0299287,3.7125726 0 0 0 -5.9926361,3.331514 h -0.03719 v 0.380601 19.60989 h 0.03719 a 6.0299287,3.7125726 0 0 0 -0.03719,0.380602 6.0299287,3.7125726 0 0 0 6.0298661,3.713637 6.0299287,3.7125726 0 0 0 6.029862,-3.713637 6.0299287,3.7125726 0 0 0 -0.03796,-0.380602 h 0.03796 v -19.60989 -0.380601 h -0.03796 A 6.0299287,3.7125726 0 0 0 13.436302,41.88576 Z m -6.1219003,3.712185 0.092036,20.182339 z" />
      <path
         id="path53921"
         style="fill:url(#linearGradient53925);fill-opacity:1;stroke-width:0.230027"
         d="M 40.032202,29.405191 A 2.5596738,1.7295034 0 0 0 37.48836,30.95718 h -0.01579 v 0.177331 9.135279 h 0.01579 a 2.5596738,1.7295034 0 0 0 -0.01579,0.177333 2.5596738,1.7295034 0 0 0 2.559647,1.729997 2.5596738,1.7295034 0 0 0 2.559645,-1.729997 2.5596738,1.7295034 0 0 0 -0.01611,-0.177333 h 0.01611 V 31.134511 30.95718 h -0.01611 a 2.5596738,1.7295034 0 0 0 -2.543548,-1.551989 z m -2.598714,1.72932 0.03907,9.401957 z" />
      <path
         id="path31294-6"
         style="fill:url(#linearGradient31318-3);fill-opacity:1;stroke-width:0.230027"
         d="M 5.5258576,29.405191 A 2.5596738,1.7295034 0 0 0 2.9820148,30.95718 h -0.015788 v 0.177331 9.135279 h 0.015788 a 2.5596738,1.7295034 0 0 0 -0.015788,0.177333 2.5596738,1.7295034 0 0 0 2.559647,1.729997 2.5596738,1.7295034 0 0 0 2.5596458,-1.729997 2.5596738,1.7295034 0 0 0 -0.016108,-0.177333 h 0.016108 V 31.134511 30.95718 H 8.0694116 A 2.5596738,1.7295034 0 0 0 5.5258633,29.405191 Z m -2.5987147,1.72932 0.039069,9.401957 z" />
      <path
         id="path31294"
         style="fill:url(#linearGradient31318);fill-opacity:1;stroke-width:0.353959"
         d="M 39.649307,22.578764 A 38.626492,0.27136937 0 0 0 1.2617099,22.82228 H 1.0234652 v 0.02782 1.433379 h 0.2382447 a 38.626492,0.27136937 0 0 0 -0.2382447,0.02782 38.626492,0.27136937 0 0 0 38.6260868,0.271447 38.626492,0.27136937 0 0 0 38.626071,-0.271447 38.626492,0.27136937 0 0 0 -0.243127,-0.02782 h 0.243127 V 22.8501 22.82228 H 78.032496 A 38.626492,0.27136937 0 0 0 39.649394,22.578764 Z M 0.43366998,22.850105 1.0232339,24.325327 Z" />
      <path
         id="path47323"
         style="fill:url(#linearGradient47325);fill-opacity:1;stroke-width:0.353959"
         d="M 39.649307,28.819273 A 38.626492,0.27136937 0 0 0 1.2617099,29.062789 H 1.0234652 v 0.02782 1.433379 h 0.2382447 a 38.626492,0.27136937 0 0 0 -0.2382447,0.02782 38.626492,0.27136937 0 0 0 38.6260868,0.271447 38.626492,0.27136937 0 0 0 38.626071,-0.271447 38.626492,0.27136937 0 0 0 -0.243127,-0.02782 h 0.243127 v -1.433379 -0.02782 H 78.032496 A 38.626492,0.27136937 0 0 0 39.649394,28.819273 Z M 0.43366998,29.090614 1.0232339,30.565836 Z" />
      <rect
         style="fill:url(#linearGradient55443);fill-opacity:1;stroke-width:0.394135;stroke-opacity:0.740425"
         id="rect55435"
         width="43.438835"
         height="5.7510576"
         x="1.1012664"
         y="40.379761" />
      <path
         sodipodi:type="star"
         style="fill:url(#linearGradient36692);fill-opacity:1;stroke:none;stroke-width:1.323;stroke-dasharray:0.661498, 0.661498;stroke-dashoffset:0;stroke-opacity:1"
         id="path12227"
         inkscape:flatsided="true"
         sodipodi:sides="8"
         sodipodi:cx="268.35666"
         sodipodi:cy="204.4622"
         sodipodi:r1="29.509672"
         sodipodi:r2="23.873827"
         sodipodi:arg1="0.93910569"
         sodipodi:arg2="1.3318048"
         inkscape:rounded="0"
         inkscape:randomized="0"
         d="m 285.78242,228.2774 -21.94378,5.34656 -19.29718,-11.736 -5.34656,-21.94378 11.736,-19.29718 21.94378,-5.34656 19.29718,11.73601 5.34656,21.94377 z"
         transform="matrix(0.05757309,0.01207685,-0.01319438,0.05995283,-3.72085,36.307869)"
         inkscape:transform-center-x="-0.035022419"
         inkscape:transform-center-y="-0.16755883" />
      <path
         sodipodi:type="star"
         style="fill:url(#linearGradient36694);fill-opacity:1;stroke:none;stroke-width:1.323;stroke-dasharray:0.661498, 0.661498;stroke-dashoffset:0;stroke-opacity:1"
         id="path13965"
         inkscape:flatsided="true"
         sodipodi:sides="8"
         sodipodi:cx="268.35666"
         sodipodi:cy="204.4622"
         sodipodi:r1="29.509672"
         sodipodi:r2="23.873827"
         sodipodi:arg1="0.93910569"
         sodipodi:arg2="1.3318048"
         inkscape:rounded="0"
         inkscape:randomized="0"
         d="m 285.78242,228.2774 -21.94378,5.34656 -19.29718,-11.736 -5.34656,-21.94378 11.736,-19.29718 21.94378,-5.34656 19.29718,11.73601 5.34656,21.94377 z"
         transform="matrix(0.05757309,0.01207685,-0.01319438,0.05995283,-3.72085,46.604797)"
         inkscape:transform-center-x="-0.035022419"
         inkscape:transform-center-y="-0.16755883" />
      <path
         sodipodi:type="star"
         style="fill:url(#linearGradient36696);fill-opacity:1;stroke:none;stroke-width:1.323;stroke-dasharray:0.661498, 0.661498;stroke-dashoffset:0;stroke-opacity:1"
         id="path13969"
         inkscape:flatsided="true"
         sodipodi:sides="8"
         sodipodi:cx="268.35666"
         sodipodi:cy="204.4622"
         sodipodi:r1="29.509672"
         sodipodi:r2="23.873827"
         sodipodi:arg1="0.93910569"
         sodipodi:arg2="1.3318048"
         inkscape:rounded="0"
         inkscape:randomized="0"
         d="m 285.78242,228.2774 -21.94378,5.34656 -19.29718,-11.736 -5.34656,-21.94378 11.736,-19.29718 21.94378,-5.34656 19.29718,11.73601 5.34656,21.94377 z"
         transform="matrix(0.05757309,0.01207685,-0.01319438,0.05995283,4.5781667,36.307869)"
         inkscape:transform-center-x="-0.035022419"
         inkscape:transform-center-y="-0.16755883" />
      <path
         sodipodi:type="star"
         style="fill:url(#linearGradient13021);fill-opacity:1;stroke:none;stroke-width:1.323;stroke-dasharray:0.661498, 0.661498;stroke-dashoffset:0;stroke-opacity:1"
         id="path13973"
         inkscape:flatsided="true"
         sodipodi:sides="8"
         sodipodi:cx="268.35666"
         sodipodi:cy="204.4622"
         sodipodi:r1="29.509672"
         sodipodi:r2="23.873827"
         sodipodi:arg1="0.93910569"
         sodipodi:arg2="1.3318048"
         inkscape:rounded="0"
         inkscape:randomized="0"
         d="m 285.78242,228.2774 -21.94378,5.34656 -19.29718,-11.736 -5.34656,-21.94378 11.736,-19.29718 21.94378,-5.34656 19.29718,11.73601 5.34656,21.94377 z"
         transform="matrix(0.05757309,0.01207685,-0.01319438,0.05995283,4.5781667,46.297426)"
         inkscape:transform-center-x="-0.035022419"
         inkscape:transform-center-y="-0.16755883" />
    </g>
    <g
       id="coldhead"
       transform="matrix(0.60265954,0,0,0.55532816,535.56744,-362.12935)"
       style="display:inline">
      <path
         id="path16084"
         style="fill:url(#linearGradient16086);fill-opacity:1;stroke-width:1.09398"
         d="m 153.07215,243.10631 a 10.056716,9.9564797 0 0 0 -9.99451,8.93456 h -0.0621 v 1.02085 52.59036 h 0.0621 a 10.056716,9.9564797 0 0 0 -0.0621,1.02091 10.056716,9.9564797 0 0 0 10.05662,9.95932 10.056716,9.9564797 0 0 0 10.05661,-9.95932 10.056716,9.9564797 0 0 0 -0.0632,-1.02091 h 0.0632 v -52.59036 -1.02085 h -0.0632 a 10.056716,9.9564797 0 0 0 -9.99334,-8.93456 z m -10.2101,9.95541 0.15349,54.12557 z" />
      <path
         id="path6085"
         style="fill:url(#linearGradient12422);fill-opacity:1;stroke-width:1.183"
         d="m 153.60648,183.11031 a 15.011836,7.7996581 0 0 0 -14.91899,6.9991 h -0.0926 v 0.79972 41.19799 h 0.0926 a 15.011836,7.7996581 0 0 0 -0.0926,0.79973 15.011836,7.7996581 0 0 0 15.01168,7.80189 15.011836,7.7996581 0 0 0 15.01168,-7.80189 15.011836,7.7996581 0 0 0 -0.0945,-0.79973 h 0.0945 v -41.19799 -0.79972 h -0.0945 a 15.011836,7.7996581 0 0 0 -14.91724,-6.9991 z m -15.2408,7.79882 0.22912,42.40063 z" />
      <path
         id="path15354"
         style="fill:url(#linearGradient15356);fill-opacity:1;stroke-width:0.707778"
         d="m 153.42862,233.65173 a 16.001841,2.61918 0 0 0 -15.90287,2.35035 h -0.0988 v 0.26854 13.83458 h 0.0988 a 16.001841,2.61918 0 0 0 -0.0988,0.26854 16.001841,2.61918 0 0 0 16.00167,2.61995 16.001841,2.61918 0 0 0 16.00168,-2.61995 16.001841,2.61918 0 0 0 -0.10068,-0.26854 h 0.10068 v -13.83458 -0.26854 h -0.10068 a 16.001841,2.61918 0 0 0 -15.901,-2.35035 z m -16.24591,2.61889 0.24424,14.23846 z" />
      <path
         id="path27592"
         style="fill:url(#linearGradient27594);fill-opacity:1;stroke-width:0.661981"
         d="m 153.21296,219.52886 a 16.658844,2.2008337 0 0 0 -16.5558,1.97494 h -0.10286 v 0.22565 11.62486 h 0.10286 a 16.658844,2.2008337 0 0 0 -0.10286,0.22565 16.658844,2.2008337 0 0 0 16.65866,2.20148 16.658844,2.2008337 0 0 0 16.65868,-2.20148 16.658844,2.2008337 0 0 0 -0.10482,-0.22565 h 0.10482 v -11.62486 -0.22565 h -0.10482 a 16.658844,2.2008337 0 0 0 -16.55386,-1.97494 z m -16.91293,2.20059 0.25427,11.96423 z" />
      <path
         id="path13158"
         style="fill:url(#linearGradient13160);fill-opacity:1;stroke-width:0.427683"
         d="m 153.53574,231.38963 a 21.653357,0.70673939 0 0 0 -21.51943,0.6342 h -0.1337 v 0.0725 3.73302 h 0.1337 a 21.653357,0.70673939 0 0 0 -0.1337,0.0725 21.653357,0.70673939 0 0 0 21.65313,0.70694 21.653357,0.70673939 0 0 0 21.65314,-0.70694 21.653357,0.70673939 0 0 0 -0.13624,-0.0725 h 0.13624 v -3.73302 -0.0725 h -0.13624 a 21.653357,0.70673939 0 0 0 -21.5169,-0.6342 z m -21.98362,0.70666 0.33049,3.84199 z" />
      <path
         id="path31294-7"
         style="fill:url(#linearGradient31318-7);fill-opacity:1;stroke-width:0.946255"
         d="m 154.29356,175.1662 a 18.296839,4.0943053 0 0 0 -18.18368,3.67407 h -0.11286 v 0.4198 21.62622 h 0.11286 a 18.296839,4.0943053 0 0 0 -0.11286,0.4198 18.296839,4.0943053 0 0 0 18.29665,4.09548 18.296839,4.0943053 0 0 0 18.29664,-4.09548 18.296839,4.0943053 0 0 0 -0.11517,-0.4198 h 0.11517 v -21.62622 -0.4198 h -0.11517 a 18.296839,4.0943053 0 0 0 -18.18155,-3.67407 z m -18.57591,4.09387 0.27926,22.25753 z" />
      <path
         style="fill:none;fill-opacity:1;stroke:#000000;stroke-width:1.323;stroke-dasharray:none;stroke-opacity:1"
         d="m 164.84635,294.36848 10.38948,-1.38526 10.04316,-3.80948 12.12105,-6.23368 11.42842,-8.31158 9.35053,-8.6579 4.84842,-9.00421"
         id="path9929" />
    </g>
    <g
       id="nozzle"
       style="display:inline"
       transform="matrix(0.60265954,0,0,0.55532816,535.56744,-362.12935)">
      <path
         id="path19719"
         style="display:inline;fill:url(#linearGradient19721);fill-opacity:1;stroke-width:0.69226"
         d="m 153.02086,291.41181 a 12.017322,3.3363448 0 0 0 -11.94299,2.9939 h -0.0742 v 0.34208 17.62266 h 0.0742 a 12.017322,3.3363448 0 0 0 -0.0742,0.34208 12.017322,3.3363448 0 0 0 12.01719,3.33732 12.017322,3.3363448 0 0 0 12.01721,-3.33732 12.017322,3.3363448 0 0 0 -0.0756,-0.34208 h 0.0756 v -17.62266 -0.34208 h -0.0756 a 12.017322,3.3363448 0 0 0 -11.94159,-2.9939 z m -12.20061,3.33598 0.18342,18.13711 z" />
      <path
         style="display:inline;fill:none;fill-opacity:1;stroke:#000000;stroke-width:1.323;stroke-dasharray:none;stroke-opacity:1"
         d="m 202.59478,317.91796 -5.54106,-5.54105 -4.84842,-1.38527 -12.46737,-0.34631 -9.69684,-0.34632 -27.01264,-0.34631 -2.42421,-2.0779"
         id="path8461" />
      <rect
         style="display:inline;fill:url(#linearGradient8210);fill-opacity:1;stroke-width:1.67552;stroke-dasharray:0.837753, 0.837753"
         id="rect8202"
         width="6.5800033"
         height="4.5021043"
         x="198.43898"
         y="316.879" />
      <path
         id="path16306"
         style="fill:url(#linearGradient16708);fill-opacity:1;stroke:none;stroke-width:1.02934;stroke-dasharray:none;stroke-opacity:0.740425"
         inkscape:transform-center-x="0.11776544"
         inkscape:transform-center-y="-1.2894573"
         d="m 151.17188,312.30859 -39,9.72461 0.24218,0.24414 h -0.21289 v 11.99414 h 3.09766 v 3.31055 h 21.40429 v -0.084 l 38.86719,-0.1211 v 2.4961 l -48.06445,0.23437 -0.15234,0.16211 h -12.05469 v 3.10352 h -2.53516 v 12.4082 h 0.4961 l 31.89257,7.58984 v 0.27539 c 0.4076,-0.003 0.81508,-0.005 1.22266,-0.008 0.54107,-0.003 1.08197,-0.005 1.62305,-0.006 0.10511,-7.3e-4 0.2095,0.0139 0.31445,0.0176 0.0782,-0.0138 0.15614,-0.0294 0.23438,-0.043 0.8824,-0.18062 1.78035,-0.22626 2.67773,-0.25976 0.95668,-0.03 1.91207,-0.0447 2.86914,-0.0527 0.74603,-0.0613 1.4904,-0.14456 2.23437,-0.22656 0.55654,-0.0663 1.11594,-0.0908 1.67579,-0.10547 0.40603,1.6e-4 0.7988,-0.12586 1.19921,-0.19336 0.36655,-0.0616 0.73912,-0.0893 1.10938,-0.11719 0.10683,-0.008 0.2099,-0.0127 0.31055,-0.0137 0.44732,-0.005 0.8309,0.06 1.15429,0.17188 l 29.73438,-7.47461 -0.16797,-0.16797 v -12.82813 h 14.08008 v -7.44726 h -0.0664 l 0.32813,-10.51367 -9.01172,-0.0918 -0.32813,10.60547 h -5.00195 v -13.0293 h -0.71289 l 0.0684,-0.0742 z"
         clip-path="url(#clipPath2690)" />
      <path
         id="rect6376"
         style="display:inline;fill:url(#linearGradient7903);fill-opacity:1;stroke-width:1.13633;stroke-dasharray:0.568158, 0.568158"
         d="m 195.77116,319.99656 v 13.85156 H 175.2358 v 9.69726 h 20.53536 10.63372 v -9.69726 -13.85156 z" />
      <path
         style="display:inline;fill:none;fill-opacity:1;stroke:#000000;stroke-width:1.3743;stroke-dasharray:none;stroke-opacity:1"
         d="m 165.53074,298.52927 -20.84453,-0.34768 -4.09447,-2.08611"
         id="path9927" />
      <path
         style="display:inline;fill:none;fill-opacity:1;stroke:#000000;stroke-width:1.3743;stroke-dasharray:none;stroke-opacity:1"
         d="m 165.53074,306.84084 -20.84453,-0.34768 -4.09447,-2.08611"
         id="path9923" />
      <path
         style="display:inline;fill:none;fill-opacity:1;stroke:#000000;stroke-width:1.3743;stroke-dasharray:none;stroke-opacity:1"
         d="m 165.53074,303.03137 -20.84453,-0.34768 -4.09447,-2.08611"
         id="path9925" />
      <path
         style="display:inline;fill:none;fill-opacity:1;stroke:none;stroke-width:1.323;stroke-dasharray:0.661498, 0.661498"
         d="m 202.94109,317.57164 -0.69263,-6.23368 -4.15579,-1.73158 -4.15579,-0.34632 -6.23368,-0.69263 -8.31158,-0.34631 h -8.6579 l -5.54105,-0.34632 -7.27264,-1.03895 -6.23368,-0.69263 -4.84843,-0.69263 -4.84842,-1.38526 -1.38526,-1.38527 -0.69263,-1.38526 1.03895,-1.03895"
         id="path8358" />
      <path
         id="path20449"
         style="display:inline;fill:url(#linearGradient20451);fill-opacity:1;stroke-width:0.301576"
         d="m 152.81858,312.59611 a 14.426331,0.52745161 0 0 0 -14.33711,0.47332 h -0.0891 v 0.054 2.78601 h 0.0891 a 14.426331,0.52745161 0 0 0 -0.0891,0.0542 14.426331,0.52745161 0 0 0 14.42618,0.5276 14.426331,0.52745161 0 0 0 14.42618,-0.5276 14.426331,0.52745161 0 0 0 -0.0908,-0.0542 h 0.0908 v -2.78601 -0.054 h -0.0908 a 14.426331,0.52745161 0 0 0 -14.33541,-0.47332 z m -14.64637,0.52739 0.22019,2.86735 z" />
    </g>
    <g
       id="salt"
       transform="matrix(-9.1192762e-5,-0.36267759,0.6138125,-6.2728252e-5,226.93627,-159.75276)"
       style="display:inline">
      <path
         id="path30437"
         style="fill:url(#linearGradient30439);fill-opacity:1;stroke-width:1.0594"
         d="m 41.06571,30.07465 c 0.07731,0.01258 0.154797,0.02438 0.232027,0.03728 0.2035,0.03565 0.406599,0.07341 0.609265,0.112944 -0.0054,-0.02029 -0.0091,-0.04006 -0.01137,-0.05976 A 14.241977,6.5931061 0 0 0 41.06571,30.07465 Z m -15.109155,8.263584 c -0.0132,0.0076 -0.02444,0.01819 -0.03669,0.02741 -0.06396,0.04521 -0.129242,0.09019 -0.201022,0.119523 -0.164993,0.08362 -0.133698,0.06784 -0.115238,0.05866 v 5.48e-4 c 0.01654,-0.0083 0.03414,-0.01675 0.03927,-0.01919 -0.0051,0.0028 -0.01758,0.0094 -0.04082,0.02138 7.65e-4,-10e-4 8.82e-4,-0.0013 0.0016,-0.0022 -0.01001,0.005 -0.0175,0.0088 -0.02739,0.01371 H 25.5757 c -0.06022,0.0538 -0.170868,0.162772 -0.09767,0.07676 -0.08512,0.07599 -0.191303,0.138628 -0.194303,0.139261 -0.07464,0.05549 -0.112676,0.0831 -0.135909,0.09978 -0.09903,0.09401 -0.204449,0.176611 -0.318844,0.248916 -0.03903,0.02257 -0.104789,0.07888 -0.137459,0.1113 -0.0085,0.007 -0.01495,0.01217 -0.0217,0.01755 -0.01127,0.01553 -0.03224,0.04167 -0.07028,0.08499 -0.03938,0.04398 -0.07725,0.08915 -0.114205,0.135423 -0.01291,0.01446 -0.02485,0.02995 -0.03876,0.04331 -0.0053,0.0051 -0.0087,0.0082 -0.01344,0.01262 -0.0013,0.0017 -0.0018,0.0027 -0.0031,0.0043 -0.01228,0.01794 -0.0376,0.05552 -0.04961,0.07128 -0.0012,0.0016 -0.0037,0.0051 -0.0052,0.0071 -0.0057,0.01212 -0.0125,0.02338 -0.02015,0.03126 -0.03203,0.05473 -0.06049,0.09124 -0.0832,0.121168 -0.04435,0.09207 -0.115143,0.232344 -0.125057,0.234113 -0.0091,0.01405 -0.01826,0.02815 -0.02739,0.04222 v 31.327276 h 0.08785 a 14.241977,6.5931061 0 0 0 -0.08785,0.676021 14.241977,6.5931061 0 0 0 14.242024,6.594638 14.241977,6.5931061 0 0 0 14.242025,-6.594638 14.241977,6.5931061 0 0 0 -0.08992,-0.676021 h 0.08992 V 55.385715 c -0.195011,-0.133176 -0.391351,-0.269646 -0.574642,-0.417785 0.06888,0.02535 0.04109,0.01102 -0.112655,-0.08718 -0.02925,-0.01662 -0.05901,-0.03291 -0.08837,-0.04935 -0.203983,-0.126404 -0.334617,-0.212202 -0.61495,-0.407367 -0.149092,-0.0985 -0.287379,-0.21068 -0.445968,-0.292779 C 50.53213,54.001081 50.298718,53.8685 50.060987,53.744173 49.772017,53.584088 49.476924,53.434538 49.196441,53.258402 48.966704,53.12703 48.735707,53.00027 48.50501,52.871873 48.312281,52.753925 48.106949,52.65913 47.909698,52.550036 47.55167,52.378769 47.194436,52.207129 46.843613,52.019855 46.512203,51.821039 46.174019,51.633652 45.852459,51.417302 45.513136,51.210422 45.161935,51.027355 44.826165,50.813653 44.53335,50.617157 44.226205,50.444445 43.932163,50.249478 43.603385,50.040597 43.278649,49.825225 42.952416,49.611842 42.637486,49.368963 42.30989,49.145393 41.990718,48.908955 41.761996,48.742412 41.536317,48.573139 41.301871,48.416057 41.084309,48.249994 40.86144,48.092143 40.636279,47.937962 40.512015,47.830551 40.367247,47.753552 40.230102,47.667115 40.095334,47.594358 39.835713,47.45975 39.604817,47.311833 39.396542,47.211339 39.21419,47.052414 39.017773,46.930235 38.729768,46.743854 38.444179,46.555036 38.157877,46.365513 37.921827,46.212203 37.68152,46.066238 37.444742,45.914283 37.162887,45.727505 36.889801,45.528515 36.62257,45.318858 36.444322,45.183345 36.281224,45.029391 36.083068,44.9241 35.829847,44.746655 35.578602,44.566293 35.331693,44.379116 35.085822,44.198541 34.8341,44.026705 34.586002,43.849483 34.224345,43.613807 33.87268,43.360562 33.507515,43.130696 33.054042,42.82732 32.599108,42.526775 32.146358,42.222207 31.607763,41.875715 31.056487,41.551695 30.523201,41.195838 29.914712,40.788589 29.306275,40.380231 28.6675,40.027466 c -0.610997,-0.345299 -1.200384,-0.728892 -1.800406,-1.094903 -0.28808,-0.191434 -0.572644,-0.388709 -0.855762,-0.588298 -0.03045,0.0138 -0.05565,0.02128 -0.06925,0.01644 -0.0028,3.12e-4 -0.006,7.84e-4 -0.0088,0.0011 0.0066,-0.0034 0.01355,-0.007 0.02015,-0.0104 0.0478,-0.03813 -0.03191,0.02024 -0.0186,0.0055 0.0065,-0.0072 0.0299,-0.02342 0.0217,-0.01864 z m -0.380339,0.219858 c -0.0083,0.0041 0.0318,-0.01645 0.02739,-0.01426 0.01718,-0.02371 8.6e-5,-0.01029 -0.02739,0.01426 z" />
      <path
         id="path31294-69"
         style="fill:url(#linearGradient31318-32);fill-opacity:1;stroke-width:0.498473"
         d="m 38.89195,71.880245 a 22.718232,0.91505818 0 0 0 -22.577726,0.82114 H 16.1741 v 0.0938 4.83336 h 0.140124 a 22.718232,0.91505818 0 0 0 -0.140124,0.0938 22.718232,0.91505818 0 0 0 22.717994,0.91532 22.718232,0.91505818 0 0 0 22.717984,-0.91532 22.718232,0.91505818 0 0 0 -0.142995,-0.0938 h 0.142995 v -4.83336 -0.0938 h -0.142995 a 22.718232,0.91505818 0 0 0 -22.575082,-0.82114 z m -23.064739,0.91496 0.346753,4.97446 z" />
      <path
         id="path24268"
         style="opacity:1;fill:url(#linearGradient29444);fill-opacity:1;stroke-width:0.384162;stroke-dasharray:0.19208, 0.19208"
         transform="matrix(0.86394915,0.50357906,-0.47797652,0.87837261,0,0)"
         d="m 43.01171,17.951257 a 16.046764,6.5913706 0 0 0 -2.704668,3.662092 16.046764,6.5913706 0 0 0 16.04673,6.591364 16.046764,6.5913706 0 0 0 16.046925,-6.591825 16.046764,6.5913706 0 0 0 -16.04673,-6.591365 16.046764,6.5913706 0 0 0 -13.342257,2.929734 z" />
      <path
         id="path25060"
         style="opacity:1;fill:url(#linearGradient28702);fill-opacity:1;stroke-width:0.349992;stroke-dasharray:0.174997, 0.174997"
         d="M 29.346583,38.255397 A 14.663122,5.9872414 30.194104 0 0 25.601744,39.936231 14.663122,5.9872414 30.194104 0 0 35.41768,52.506654 14.663122,5.9872414 30.194104 0 0 51.007358,54.582758 14.663122,5.9872414 30.194104 0 0 41.191425,42.012334 14.663122,5.9872414 30.194104 0 0 29.346583,38.255397 Z" />
      <path
         id="path25788"
         style="opacity:1;fill:url(#linearGradient29460);fill-opacity:1;stroke-width:0.315818;stroke-dasharray:0.157909, 0.157909"
         d="m 30.686168,39.290212 a 13.190802,5.419284 30.6369 0 0 -3.357945,1.526316 13.190802,5.419284 30.6369 0 0 8.801815,11.414825 13.190802,5.419284 30.6369 0 0 13.979048,1.885248 13.190802,5.419284 30.6369 0 0 -8.801812,-11.414826 13.190802,5.419284 30.6369 0 0 -10.621106,-3.411563 z" />
      <path
         id="path27968"
         style="opacity:1;fill:url(#linearGradient29476);fill-opacity:1;stroke-width:0.283433;stroke-dasharray:0.141717, 0.141717"
         d="m 31.469269,40.117948 a 11.870565,4.8503169 30.2427 0 0 -3.030574,1.36214 11.870565,4.8503169 30.2427 0 0 7.943712,10.187002 11.870565,4.8503169 30.2427 0 0 12.616209,1.682464 11.870565,4.8503169 30.2427 0 0 -7.94371,-10.187004 11.870565,4.8503169 30.2427 0 0 -9.585637,-3.044602 z" />
    </g>
    <g
       id="laser"
       transform="matrix(0.7922506,0,0,1,135.51626,-471.2012)"
       inkscape:label="laser"
       style="display:inline">
      <path
         style="display:inline;opacity:0.24;fill:#ffd42a;fill-opacity:1;stroke-width:1.22959"
         id="rect5049"
         d="M 80.945892,295.06836 H 592.53241 v 4.45089 H 80.945892 Z" />
      <path
         style="fill:url(#linearGradient6312);fill-opacity:1"
         id="rect5053"
         d="M 80.653328,295.83441 H 592.23985 v 2.94391 H 80.653328 Z" />
      <path
         style="display:inline;fill:#ffd42a;stroke:#000000;stroke-width:1.12349;stroke-opacity:1;paint-order:markers stroke fill"
         d="m 87.624998,305.00336 -22.568632,0.006 11.278005,-15.488 z"
         id="path4004" />
      <ellipse
         style="fill:#ff0000;stroke-width:0"
         cx="74.275681"
         cy="300.1514"
         rx="2.2644367"
         ry="1.687"
         id="ellipse4006" />
      <path
         style="fill:#ff0000;stroke-width:0"
         d="m 68.969272,299.96336 h 15.548121 v 0.402 H 68.969272 Z"
         id="path4008" />
      <path
         style="fill:#ff0000;stroke-width:0"
         d="m 74.064396,304.23836 -0.01551,-8.245 0.507284,-0.009 0.01551,8.245 z"
         id="path4010" />
      <path
         style="fill:#ff0000;stroke-width:0"
         d="m 67.99357,297.24436 c -0.0025,0 -0.0076,0 -0.0101,0.002 a 0.02524456,0.02 0 0 0 -0.01262,0.014 v 0.004 c 0.0101,-0.002 0.0202,-0.012 0.02777,-0.02 z m 1.922372,0.705 a 2.9283685,2.32 0 0 0 -0.126223,0.135 1.4717576,1.166 0 0 0 -0.08583,0.132 l 9.575259,4.184 0.07195,-0.068 a 0.90880402,0.72 0 0 0 0.117387,-0.123 l 0.05049,-0.06 z"
         id="path4012" />
      <path
         style="fill:#ff0000;stroke-width:0"
         d="m 70.766684,295.07436 -0.01641,0.013 -0.01262,-0.019 z m 1.224361,1.217 5.276112,7.653 c -0.04292,0.01 -0.08331,0.023 -0.126223,0.035 a 1.080467,0.856 0 0 0 -0.20953,0.073 l -5.259703,-7.627 a 1.7418744,1.38 0 0 1 0.05806,-0.033 c 0.03282,-0.02 0.06311,-0.04 0.10224,-0.05 0.05428,-0.015 0.106027,-0.031 0.157778,-0.05 z m 5.989271,8.687 0.02146,0.032 -0.05301,-0.013 a 0.19438308,0.154 0 0 0 0.03156,-0.02 z"
         id="path4014" />
      <path
         style="fill:#ff0000;stroke-width:0"
         d="m 80.856933,296.94736 c 0.0088,0.008 0.01893,0.017 0.03029,0.018 v -0.004 a 0.0227201,0.018 0 0 0 -0.01515,-0.012 c -0.0025,-0.001 -0.0088,-0.003 -0.0101,-0.002 z m -1.900915,0.82 -9.449037,4.766 c 0.01767,0.02 0.03787,0.037 0.0568,0.057 0.03913,0.04 0.07952,0.08 0.130009,0.113 l 0.08204,0.064 9.425055,-4.75 a 1.4389397,1.14 0 0 0 -0.100978,-0.125 2.870306,2.274 0 0 0 -0.143894,-0.125 z"
         id="path4016" />
      <path
         style="fill:#ff0000;stroke-width:0"
         d="m 77.97148,295.07436 0.01641,0.013 0.01262,-0.019 z m -1.224361,1.217 -5.276112,7.653 c 0.04292,0.01 0.08331,0.023 0.126223,0.035 a 1.1486273,0.91 0 0 1 0.209529,0.073 l 5.259704,-7.627 a 1.7418744,1.38 0 0 0 -0.05806,-0.033 c -0.03282,-0.02 -0.06311,-0.04 -0.10224,-0.05 a 1.7103187,1.355 0 0 1 -0.157779,-0.05 z m -5.989271,8.687 -0.02146,0.032 0.05301,-0.013 a 0.19438308,0.154 0 0 1 -0.03156,-0.02 z"
         id="path4018" />
      <path
         style="display:inline;fill:#ff0000;stroke-width:0"
         d="m 73.612642,297.26081 -0.03482,0.004 -0.09178,0.0137 c -0.03573,0.008 -0.06971,0.0216 -0.103758,0.031 -0.04498,0.0113 -0.08961,0.0236 -0.137041,0.0279 a 1.6654925,1.0060893 24.814857 0 1 -0.121497,0.006 l 2.053093,5.85855 0.532549,0.0496 z"
         id="path4020" />
      <path
         style="display:inline;fill:#ff0000;stroke-width:0"
         d="m 70.479762,299.08528 8.44e-4,0.006 0.0013,2.9e-4 -7.03e-4,-0.005 z m 0.05414,0.012 c 7.03e-4,0.005 -0.0025,0.009 -0.0029,0.0154 l 0.0026,5.8e-4 -7.03e-4,-0.005 0.001,-0.002 c -7.03e-4,-0.005 1.65e-4,-0.008 0.0025,-0.009 z m 0.02578,0.006 -0.0017,0.006 c 0.0017,0.0124 0.0019,0.0234 0.0011,0.0353 l -0.0083,0.0312 a 0.32751838,0.21188844 31.2475 0 1 -0.01631,0.0454 c -0.0053,0.007 -0.0069,0.0135 -0.0095,0.0219 a 0.20893414,0.13517021 31.247499 0 0 -0.01544,0.0426 l -0.0083,0.0312 a 0.44186746,0.28586673 31.2475 0 1 -0.0065,0.0256 c 0.0039,8.6e-4 0.0093,0.004 0.0091,0.012 0.0017,0.0124 -0.0016,0.0247 -0.0025,0.0365 l 8.44e-4,0.006 3.98e-4,0.0121 c -0.0023,0.0105 -0.01064,0.0136 -0.01837,0.0119 l 5.63e-4,0.004 c 0.0014,0.0103 5.15e-4,0.0221 -5.16e-4,0.0329 l 0.0011,0.0353 7.991266,1.77334 -0.05338,-0.40997 z m -0.08046,0.1892 0.0011,0.008 a 0.04799839,0.03105262 31.247501 0 1 0.0015,-0.008 z"
         id="path4022" />
      <path
         style="display:inline;fill:#ff0000;stroke-width:0"
         d="m 75.709489,296.98367 -0.53388,0.0497 -2.178693,6.21695 0.531847,-0.0476 z"
         id="path4024" />
      <path
         style="display:inline;fill:#ff0000;stroke-width:0"
         d="m 71.937119,297.75643 c -0.005,10e-4 -0.007,0.004 -0.0086,0.006 a 4.8647279,2.5799957 7.9502074 0 1 -0.128224,0.0767 c -0.03336,0.0188 -0.06547,0.0372 -0.103349,0.0522 -0.0011,0.003 -0.0021,0.007 -0.0062,0.009 l -0.03497,0.0203 c -0.01168,0.004 -0.01973,0.0118 -0.03049,0.017 l -0.01973,0.0118 c -0.0073,0.005 -0.01902,0.01 -0.02727,0.014 l -0.02315,0.0118 -0.0156,0.01 5.465224,4.63507 0.501361,-0.14268 z"
         id="path4026" />
      <path
         style="display:inline;fill:#ff0000;stroke-width:0"
         d="m 71.937119,297.75643 c -0.005,10e-4 -0.007,0.004 -0.0086,0.006 a 4.8647279,2.5799957 7.9502074 0 1 -0.128224,0.0767 c -0.03336,0.0188 -0.06547,0.0372 -0.103349,0.0522 -0.0011,0.003 -0.0021,0.007 -0.0062,0.009 l -0.03497,0.0203 c -0.01168,0.004 -0.01973,0.0118 -0.03049,0.017 l -0.01973,0.0118 c -0.0073,0.005 -0.01902,0.01 -0.02727,0.014 l -0.02315,0.0118 -0.0156,0.01 5.465224,4.63507 0.501361,-0.14268 z"
         id="path4028" />
      <path
         style="display:inline;fill:#ff0000;stroke-width:0"
         d="m 78.467337,299.05452 -7.993701,1.81303 -0.05307,0.41183 7.996274,-1.81362 z"
         id="path4030" />
      <path
         style="display:inline;fill:#ff0000;stroke-width:0"
         d="m 77.158571,297.61107 -5.652886,4.73462 0.229014,0.37361 5.652547,-4.73292 z"
         id="path4032" />
    </g>
  </g>
</svg>
