<?xml version="1.0" encoding="UTF-8" standalone="no"?>
<svg
   width="550"
   height="400"
   version="1.1"
   id="svg5"
   sodipodi:docname="hendi-exterior-draft.svg"
   inkscape:version="1.2.1 (9c6d41e410, 2022-07-14)"
   xml:space="preserve"
   xmlns:inkscape="http://www.inkscape.org/namespaces/inkscape"
   xmlns:sodipodi="http://sodipodi.sourceforge.net/DTD/sodipodi-0.dtd"
   xmlns:xlink="http://www.w3.org/1999/xlink"
   xmlns="http://www.w3.org/2000/svg"
   xmlns:svg="http://www.w3.org/2000/svg"><sodipodi:namedview
     id="namedview217"
     pagecolor="#ffffff"
     bordercolor="#000000"
     borderopacity="0.25"
     inkscape:showpageshadow="2"
     inkscape:pageopacity="0.0"
     inkscape:pagecheckerboard="0"
     inkscape:deskcolor="#d1d1d1"
     showgrid="false"
     inkscape:zoom="5.6568543"
     inkscape:cx="128.25149"
     inkscape:cy="173.32955"
     inkscape:window-width="2498"
     inkscape:window-height="1417"
     inkscape:window-x="54"
     inkscape:window-y="-8"
     inkscape:window-maximized="1"
     inkscape:current-layer="salt"
     showguides="true" /><defs
     id="defs2"><linearGradient
       xlink:href="#linearGradient6292"
       id="linearGradient6312"
       x1="185.06396"
       y1="307.84872"
       x2="185.30064"
       y2="271.59473"
       gradientUnits="userSpaceOnUse"
       spreadMethod="reflect"
       gradientTransform="translate(80.653335,-0.84651185)" /><linearGradient
       id="linearGradient6292"><stop
         style="stop-color:#fd5;stop-opacity:1"
         offset="0"
         id="stop6288" /><stop
         style="stop-color:#ff0b0b;stop-opacity:.79874212"
         offset=".34793249"
         id="stop6290" /></linearGradient><linearGradient
       inkscape:collect="always"
       xlink:href="#linearGradient31314-2"
       id="linearGradient30439"
       gradientUnits="userSpaceOnUse"
       gradientTransform="matrix(0.77838456,0,0,1.6103112,-81.05124,-244.30511)"
       x1="134.83498"
       y1="185.42915"
       x2="171.70763"
       y2="185.42915" /><linearGradient
       inkscape:collect="always"
       id="linearGradient31314-2"><stop
         style="stop-color:#b3b3b3;stop-opacity:1;"
         offset="0.07717042"
         id="stop31302-3" /><stop
         style="stop-color:#d2d2d2;stop-opacity:1;"
         offset="0.24919616"
         id="stop31304-6" /><stop
         style="stop-color:#9c9c9c;stop-opacity:1;"
         offset="0.40956593"
         id="stop31306-5" /><stop
         style="stop-color:#afafaf;stop-opacity:1;"
         offset="0.61816716"
         id="stop31308-58" /><stop
         style="stop-color:#d0d0d0;stop-opacity:1;"
         offset="0.77893889"
         id="stop31310-1" /><stop
         style="stop-color:#989898;stop-opacity:1;"
         offset="0.95498395"
         id="stop31312-4" /></linearGradient><linearGradient
       inkscape:collect="always"
       xlink:href="#linearGradient31314-2"
       id="linearGradient31318-32"
       x1="134.83498"
       y1="185.42915"
       x2="171.70763"
       y2="185.42915"
       gradientUnits="userSpaceOnUse"
       gradientTransform="matrix(1.2416479,0,0,0.22349536,-151.59035,33.816425)" /><linearGradient
       inkscape:collect="always"
       xlink:href="#linearGradient29442"
       id="linearGradient29444"
       x1="40.405777"
       y1="21.268559"
       x2="73.111427"
       y2="22.554464"
       gradientUnits="userSpaceOnUse" /><linearGradient
       inkscape:collect="always"
       id="linearGradient29442"><stop
         style="stop-color:#bdbdbd;stop-opacity:1;"
         offset="0"
         id="stop29438" /><stop
         style="stop-color:#a8a8a8;stop-opacity:1;"
         offset="0.2"
         id="stop29446" /><stop
         style="stop-color:#8c8c8c;stop-opacity:1;"
         offset="0.39951771"
         id="stop29448" /><stop
         style="stop-color:#5b5b5b;stop-opacity:1;"
         offset="0.60490352"
         id="stop29450" /><stop
         style="stop-color:#606060;stop-opacity:1;"
         offset="0.79923636"
         id="stop29452" /><stop
         style="stop-color:#c0c0c0;stop-opacity:1;"
         offset="1"
         id="stop29440" /></linearGradient><linearGradient
       inkscape:collect="always"
       xlink:href="#linearGradient28700"
       id="linearGradient28702"
       x1="26.192024"
       y1="39.753902"
       x2="51.866421"
       y2="55.489822"
       gradientUnits="userSpaceOnUse" /><linearGradient
       inkscape:collect="always"
       id="linearGradient28700"><stop
         style="stop-color:#c9634e;stop-opacity:1;"
         offset="0"
         id="stop28696" /><stop
         style="stop-color:#f14a2c;stop-opacity:1;"
         offset="0.2"
         id="stop28704" /><stop
         style="stop-color:#e34424;stop-opacity:1;"
         offset="0.40000001"
         id="stop28706" /><stop
         style="stop-color:#ef4f32;stop-opacity:0.98113215;"
         offset="0.60000002"
         id="stop28708" /><stop
         style="stop-color:#f68a74;stop-opacity:1;"
         offset="0.79923636"
         id="stop28710" /><stop
         style="stop-color:#ff2525;stop-opacity:0.93081754;"
         offset="1"
         id="stop28698" /></linearGradient><linearGradient
       inkscape:collect="always"
       xlink:href="#linearGradient29458"
       id="linearGradient29460"
       x1="27.744911"
       y1="40.582108"
       x2="50.417057"
       y2="55.282772"
       gradientUnits="userSpaceOnUse" /><linearGradient
       inkscape:collect="always"
       id="linearGradient29458"><stop
         style="stop-color:#acacac;stop-opacity:1;"
         offset="0"
         id="stop29454" /><stop
         style="stop-color:#626262;stop-opacity:1;"
         offset="0.20096463"
         id="stop29462" /><stop
         style="stop-color:#575757;stop-opacity:1;"
         offset="0.40000001"
         id="stop29464" /><stop
         style="stop-color:#676767;stop-opacity:1;"
         offset="0.60490352"
         id="stop29466" /><stop
         style="stop-color:#b0b0b0;stop-opacity:1;"
         offset="0.79923636"
         id="stop29468" /><stop
         style="stop-color:#adadad;stop-opacity:1;"
         offset="1"
         id="stop29456" /></linearGradient><linearGradient
       inkscape:collect="always"
       xlink:href="#linearGradient29474"
       id="linearGradient29476"
       x1="39.132748"
       y1="42.031471"
       x2="38.718643"
       y2="54.55809"
       gradientUnits="userSpaceOnUse" /><linearGradient
       inkscape:collect="always"
       id="linearGradient29474"><stop
         style="stop-color:#929292;stop-opacity:1;"
         offset="0"
         id="stop29470" /><stop
         style="stop-color:#9a9a9a;stop-opacity:1;"
         offset="0.20418006"
         id="stop29478" /><stop
         style="stop-color:#848484;stop-opacity:1;"
         offset="0.39951769"
         id="stop29480" /><stop
         style="stop-color:#727272;stop-opacity:1;"
         offset="0.60168809"
         id="stop29482" /><stop
         style="stop-color:#606060;stop-opacity:1;"
         offset="0.79602093"
         id="stop29484" /><stop
         style="stop-color:#2b2b2b;stop-opacity:1;"
         offset="1"
         id="stop29472" /></linearGradient></defs><g
     inkscape:groupmode="layer"
     id="hendi"
     inkscape:label="hendi"
     transform="translate(-9.9999997,-9.9999995)"><path
       style="display:inline;fill:#cccccc"
       d="m 144.64227,302.20548 h -1.52916 c -0.38902,0 -0.59649,0 -1.55616,0.10369 -0.95967,0.10369 -2.67133,0.31116 -4.48698,0.82981 -1.81565,0.51865 -3.73479,1.34855 -5.08375,2.64565 -1.34895,1.29709 -2.12698,3.06062 -2.74939,5.13558 -0.62242,2.07496 -1.08923,4.4609 -1.29663,7.9882 -0.2074,3.52729 -0.15553,8.19546 0.15592,11.25588 0.31146,3.06041 0.88201,4.51273 3.6833,5.34206 2.80129,0.82933 7.83255,1.03681 24.79417,1.1924 16.96161,0.15559 45.85239,0.25932 60.32403,0.31119 14.47162,0.0519 14.52346,0.0519 14.54889,1.73816 0.0254,1.6863 0.0254,5.05775 0.0513,6.63962 0.0258,1.58187 0.0777,1.3744 -15.58664,1.37405 -15.66434,-3.6e-4 -47.0448,0.20712 -63.61706,0.10351 -16.57227,-0.1036 -18.33579,-0.51855 -20.12533,-0.88168 -1.78953,-0.36313 -3.60493,-0.67434 -5.57603,-1.76325 -1.9711,-1.08891 -4.09772,-2.95618 -5.47271,-5.93862 -1.375,-2.98244 -1.99742,-7.08005 -2.33465,-10.84068 -0.33723,-3.76064 -0.3891,-7.18396 -0.2854,-10.89271 0.10371,-3.70875 0.36305,-7.70263 1.40048,-10.65966 1.03743,-2.95704 2.85282,-4.87617 4.43495,-6.35453 1.58211,-1.47836 2.93069,-2.51573 4.56476,-3.47538 1.63406,-0.95964 3.5532,-1.84141 5.47259,-2.41193 1.91939,-0.57052 3.83854,-0.82987 5.57626,-0.95948 1.73772,-0.12962 3.29377,-0.12962 4.84886,-0.12962"
       id="tube3" /><path
       id="tube2"
       style="display:inline;fill:#cccccc"
       d="m 280.05581,287.64577 c -2.69323,0.0178 -5.5951,0.23648 -8.40234,0.57617 -3.74302,0.45292 -7.31855,1.12097 -10.29884,2.16992 -2.98029,1.04896 -5.36437,2.47921 -7.3672,4.50586 -2.00282,2.02665 -3.62371,4.64898 -4.625,6.91406 -1.00129,2.26509 -1.38275,4.17125 -1.62109,6.7461 -0.23834,2.57483 -0.3332,5.8167 -0.38086,9.03515 -0.0477,3.21846 -0.0483,6.41341 -0.0723,8.08203 -0.0239,1.66864 -0.0705,1.812 1.52735,1.85938 1.59786,0.0474 4.8382,3.5e-4 6.43554,-0.0234 1.59736,-0.0238 1.55015,-0.0235 1.50197,-2.47851 -0.0482,-2.45503 -0.0958,-7.36621 0.26171,-11.22852 0.35751,-3.86231 1.12168,-6.67556 2.12305,-8.75 1.00137,-2.07444 2.24002,-3.40908 3.74219,-4.50586 1.50216,-1.09678 3.26591,-1.95673 4.74414,-2.55273 1.47823,-0.59601 2.67036,-0.9285 4.60157,-1.11914 1.93122,-0.19064 4.60122,-0.23789 6.00781,-0.26172 1.40661,-0.0238 1.55028,-0.0243 2.50391,0.0234 0.95363,0.0477 2.71806,0.14185 4.72071,0.52344 2.00266,0.38159 4.24271,1.05008 5.72071,1.76563 1.47799,0.71554 2.19442,1.47896 3.05273,2.26562 0.85832,0.78666 1.85814,1.59593 2.5254,2.38281 0.66725,0.7869 1.00135,1.55012 1.16797,2.28907 0.16662,0.73894 0.16602,1.45376 0.16602,2.16797 l 0.78711,0.0801 h 0.36914 c 0.17613,-0.005 0.35124,-0.0155 0.52734,-0.0215 0.15119,-0.005 0.30186,-0.008 0.45313,-0.01 0.1112,-10e-4 0.22274,-0.002 0.33398,-0.002 0.11122,-2.3e-4 0.22276,5e-5 0.33398,0 0.10565,-3e-5 0.21076,0 0.31641,0 0.12184,-10e-6 0.24339,0 0.36523,0 h 0.77735 c 0.12105,-0.003 0.24262,0.008 0.36328,0.0156 0.10877,0.007 0.21718,0.01 0.32617,0.0117 0.11193,0.002 0.22399,0.004 0.33594,0.004 0.14737,3.8e-4 0.29406,-9e-5 0.4414,0 0.11272,6e-5 0.22519,-1e-5 0.3379,0 0.10338,10e-4 0.20752,-0.0106 0.31054,-0.0176 0.12217,-0.008 0.24483,-0.0126 0.36719,-0.01 0.13697,0.0109 0.27329,0.0289 0.41016,0.041 0.10501,0.008 0.20918,0.0126 0.31445,0.0156 0.11819,0.002 0.23726,0.004 0.35547,0.004 0.11926,0.004 0.23746,-0.0152 0.35547,-0.0293 0.0922,-0.009 0.18368,-0.0183 0.27539,-0.0273 0.0284,-1.4481 -0.003,-2.89895 -0.44531,-4.36718 -0.52411,-1.74025 -1.62038,-3.50435 -3.28907,-5.55469 -1.66869,-2.05034 -3.91043,-4.38725 -5.86523,-5.96094 -1.95481,-1.57369 -3.62424,-2.38463 -5.86525,-3.07617 -2.241,-0.69155 -5.05247,-1.26266 -8.41407,-1.42969 -0.8404,-0.0418 -1.71554,-0.0587 -2.61328,-0.0527 z m 21.69924,20.75976 0.21484,0.0215 c 0.007,-0.005 0.0216,-0.004 0.0352,0 0.0889,-0.004 0.17906,-0.007 0.26758,-0.0156 0.0196,-0.002 0.039,-0.004 0.0586,-0.006 h -0.33203 z" /><path
       style="display:inline;fill:#cccccc"
       d="m 273.69929,336.88825 c 17.89237,-0.0461 35.78374,-0.0922 45.76679,-0.4151 9.98306,-0.32289 12.05804,-0.92233 13.80995,-2.0289 1.7519,-1.10658 3.18134,-2.72045 4.91056,-4.65717 1.72921,-1.93672 3.75809,-4.19615 6.50196,-6.34048 2.74386,-2.14434 6.20218,-4.17322 10.72142,-5.71795 4.51924,-1.54474 10.09866,-2.60529 15.12496,-3.27387 5.0263,-0.66858 9.49906,-0.94524 15.05562,-1.15273 5.55657,-0.20749 12.19653,-0.34582 18.14502,-0.39191 5.94848,-0.0461 11.20512,10e-6 15.19389,0.27679 3.98876,0.27677 6.7093,0.78399 9.19939,1.56808 2.49009,0.78409 4.74952,1.84464 6.77837,3.22821 2.02884,1.38358 3.82716,3.08967 4.91047,4.54232 1.0833,1.45264 1.45219,2.65153 1.63645,4.15008 0.18426,1.49855 0.18426,3.29687 0.11509,4.26472 -0.0692,0.96785 -0.2075,1.10618 -1.70566,1.17534 -1.49816,0.0692 -4.35703,0.0692 -5.787,-0.0456 -1.42996,-0.11478 -1.42996,-0.34533 -1.476,-0.82946 -0.046,-0.48413 -0.13827,-1.2219 -0.25353,-2.05191 -0.11527,-0.83002 -0.25361,-1.75223 -0.71423,-2.46716 -0.46063,-0.71492 -1.24452,-1.22214 -2.30509,-1.70648 -1.06056,-0.48435 -2.39778,-0.94546 -3.66598,-1.15319 -1.26821,-0.20773 -2.46709,-0.16162 -4.1732,-0.18463 -1.70612,-0.023 -3.91944,-0.11524 -7.83904,-0.0692 -3.91959,0.0461 -9.54511,0.23052 -16.41587,0.50719 -6.87074,0.27667 -14.98625,0.64556 -20.49665,0.94527 -5.51042,0.29972 -8.41539,0.53027 -10.46742,0.73775 -2.05203,0.20747 -3.25091,0.39192 -4.51913,0.71466 -1.26821,0.32275 -2.60543,0.78386 -3.6894,1.52182 -1.08397,0.73795 -1.91396,1.75239 -2.60555,2.49009 -0.69159,0.7377 -1.24492,1.19881 -1.89061,1.93673 -0.64568,0.73793 -1.38345,1.75237 -2.19037,2.74372 -0.80692,0.99134 -1.68303,1.95968 -2.85886,3.11243 -1.17582,1.15276 -2.65136,2.48997 -4.8875,3.57354 -2.23614,1.08356 -5.23335,1.91356 -7.93088,2.5822 -2.69751,0.66864 -5.09527,1.17585 -7.60829,1.49869 -2.51303,0.32284 -5.14136,0.46117 -14.31773,0.59953 -9.17638,0.13836 -24.90018,0.27669 -40.62529,0.41503"
       id="tube1" /><g
       id="beam"
       transform="matrix(0.7922506,0,0,1,-22.605478,-110.573)"><path
         style="fill:url(#linearGradient6312);fill-opacity:1"
         id="rect5053"
         d="M 80.653328,295.83441 H 592.23985 v 2.94391 H 80.653328 Z" /><path
         style="display:inline;opacity:0.24;fill:#ffd42a;fill-opacity:1;stroke-width:1.22959"
         id="rect5049"
         d="M 80.945892,295.06836 H 592.53241 v 4.45089 H 80.945892 Z" /></g><g
       id="laser"
       transform="matrix(0.7922506,0,0,1,-22.605478,-110.573)"
       inkscape:label="laser"><path
         style="display:inline;fill:#ffd42a;stroke:#000000;stroke-width:1.12349;stroke-opacity:1;paint-order:markers stroke fill"
         d="m 87.624998,305.00336 -22.568632,0.006 11.278005,-15.488 z"
         id="path4004" /><ellipse
         style="fill:#ff0000;stroke-width:0"
         cx="74.275681"
         cy="300.1514"
         rx="2.2644367"
         ry="1.687"
         id="ellipse4006" /><path
         style="fill:#ff0000;stroke-width:0"
         d="m 68.969272,299.96336 h 15.548121 v 0.402 H 68.969272 Z"
         id="path4008" /><path
         style="fill:#ff0000;stroke-width:0"
         d="m 74.064396,304.23836 -0.01551,-8.245 0.507284,-0.009 0.01551,8.245 z"
         id="path4010" /><path
         style="fill:#ff0000;stroke-width:0"
         d="m 67.99357,297.24436 c -0.0025,0 -0.0076,0 -0.0101,0.002 a 0.02524456,0.02 0 0 0 -0.01262,0.014 v 0.004 c 0.0101,-0.002 0.0202,-0.012 0.02777,-0.02 z m 1.922372,0.705 a 2.9283685,2.32 0 0 0 -0.126223,0.135 1.4717576,1.166 0 0 0 -0.08583,0.132 l 9.575259,4.184 0.07195,-0.068 a 0.90880402,0.72 0 0 0 0.117387,-0.123 l 0.05049,-0.06 z"
         id="path4012" /><path
         style="fill:#ff0000;stroke-width:0"
         d="m 70.766684,295.07436 -0.01641,0.013 -0.01262,-0.019 z m 1.224361,1.217 5.276112,7.653 c -0.04292,0.01 -0.08331,0.023 -0.126223,0.035 a 1.080467,0.856 0 0 0 -0.20953,0.073 l -5.259703,-7.627 a 1.7418744,1.38 0 0 1 0.05806,-0.033 c 0.03282,-0.02 0.06311,-0.04 0.10224,-0.05 0.05428,-0.015 0.106027,-0.031 0.157778,-0.05 z m 5.989271,8.687 0.02146,0.032 -0.05301,-0.013 a 0.19438308,0.154 0 0 0 0.03156,-0.02 z"
         id="path4014" /><path
         style="fill:#ff0000;stroke-width:0"
         d="m 80.856933,296.94736 c 0.0088,0.008 0.01893,0.017 0.03029,0.018 v -0.004 a 0.0227201,0.018 0 0 0 -0.01515,-0.012 c -0.0025,-0.001 -0.0088,-0.003 -0.0101,-0.002 z m -1.900915,0.82 -9.449037,4.766 c 0.01767,0.02 0.03787,0.037 0.0568,0.057 0.03913,0.04 0.07952,0.08 0.130009,0.113 l 0.08204,0.064 9.425055,-4.75 a 1.4389397,1.14 0 0 0 -0.100978,-0.125 2.870306,2.274 0 0 0 -0.143894,-0.125 z"
         id="path4016" /><path
         style="fill:#ff0000;stroke-width:0"
         d="m 77.97148,295.07436 0.01641,0.013 0.01262,-0.019 z m -1.224361,1.217 -5.276112,7.653 c 0.04292,0.01 0.08331,0.023 0.126223,0.035 a 1.1486273,0.91 0 0 1 0.209529,0.073 l 5.259704,-7.627 a 1.7418744,1.38 0 0 0 -0.05806,-0.033 c -0.03282,-0.02 -0.06311,-0.04 -0.10224,-0.05 a 1.7103187,1.355 0 0 1 -0.157779,-0.05 z m -5.989271,8.687 -0.02146,0.032 0.05301,-0.013 a 0.19438308,0.154 0 0 1 -0.03156,-0.02 z"
         id="path4018" /><path
         style="display:inline;fill:#ff0000;stroke-width:0"
         d="m 73.612642,297.26081 -0.03482,0.004 -0.09178,0.0137 c -0.03573,0.008 -0.06971,0.0216 -0.103758,0.031 -0.04498,0.0113 -0.08961,0.0236 -0.137041,0.0279 a 1.6654925,1.0060893 24.814857 0 1 -0.121497,0.006 l 2.053093,5.85855 0.532549,0.0496 z"
         id="path4020" /><path
         style="display:inline;fill:#ff0000;stroke-width:0"
         d="m 70.479762,299.08528 8.44e-4,0.006 0.0013,2.9e-4 -7.03e-4,-0.005 z m 0.05414,0.012 c 7.03e-4,0.005 -0.0025,0.009 -0.0029,0.0154 l 0.0026,5.8e-4 -7.03e-4,-0.005 0.001,-0.002 c -7.03e-4,-0.005 1.65e-4,-0.008 0.0025,-0.009 z m 0.02578,0.006 -0.0017,0.006 c 0.0017,0.0124 0.0019,0.0234 0.0011,0.0353 l -0.0083,0.0312 a 0.32751838,0.21188844 31.2475 0 1 -0.01631,0.0454 c -0.0053,0.007 -0.0069,0.0135 -0.0095,0.0219 a 0.20893414,0.13517021 31.247499 0 0 -0.01544,0.0426 l -0.0083,0.0312 a 0.44186746,0.28586673 31.2475 0 1 -0.0065,0.0256 c 0.0039,8.6e-4 0.0093,0.004 0.0091,0.012 0.0017,0.0124 -0.0016,0.0247 -0.0025,0.0365 l 8.44e-4,0.006 3.98e-4,0.0121 c -0.0023,0.0105 -0.01064,0.0136 -0.01837,0.0119 l 5.63e-4,0.004 c 0.0014,0.0103 5.15e-4,0.0221 -5.16e-4,0.0329 l 0.0011,0.0353 7.991266,1.77334 -0.05338,-0.40997 z m -0.08046,0.1892 0.0011,0.008 a 0.04799839,0.03105262 31.247501 0 1 0.0015,-0.008 z"
         id="path4022" /><path
         style="display:inline;fill:#ff0000;stroke-width:0"
         d="m 75.709489,296.98367 -0.53388,0.0497 -2.178693,6.21695 0.531847,-0.0476 z"
         id="path4024" /><path
         style="display:inline;fill:#ff0000;stroke-width:0"
         d="m 71.937119,297.75643 c -0.005,10e-4 -0.007,0.004 -0.0086,0.006 a 4.8647279,2.5799957 7.9502074 0 1 -0.128224,0.0767 c -0.03336,0.0188 -0.06547,0.0372 -0.103349,0.0522 -0.0011,0.003 -0.0021,0.007 -0.0062,0.009 l -0.03497,0.0203 c -0.01168,0.004 -0.01973,0.0118 -0.03049,0.017 l -0.01973,0.0118 c -0.0073,0.005 -0.01902,0.01 -0.02727,0.014 l -0.02315,0.0118 -0.0156,0.01 5.465224,4.63507 0.501361,-0.14268 z"
         id="path4026" /><path
         style="display:inline;fill:#ff0000;stroke-width:0"
         d="m 71.937119,297.75643 c -0.005,10e-4 -0.007,0.004 -0.0086,0.006 a 4.8647279,2.5799957 7.9502074 0 1 -0.128224,0.0767 c -0.03336,0.0188 -0.06547,0.0372 -0.103349,0.0522 -0.0011,0.003 -0.0021,0.007 -0.0062,0.009 l -0.03497,0.0203 c -0.01168,0.004 -0.01973,0.0118 -0.03049,0.017 l -0.01973,0.0118 c -0.0073,0.005 -0.01902,0.01 -0.02727,0.014 l -0.02315,0.0118 -0.0156,0.01 5.465224,4.63507 0.501361,-0.14268 z"
         id="path4028" /><path
         style="display:inline;fill:#ff0000;stroke-width:0"
         d="m 78.467337,299.05452 -7.993701,1.81303 -0.05307,0.41183 7.996274,-1.81362 z"
         id="path4030" /><path
         style="display:inline;fill:#ff0000;stroke-width:0"
         d="m 77.158571,297.61107 -5.652886,4.73462 0.229014,0.37361 5.652547,-4.73292 z"
         id="path4032" /></g><path
       style="display:inline;fill:#999999;stroke:#000000;stroke-width:0.999808;stroke-linecap:square;stroke-linejoin:miter;stroke-miterlimit:4;stroke-dasharray:none;stroke-opacity:1;paint-order:markers stroke fill"
       id="rect274-3-9-9-1"
       d="m 242.43936,167.3432 h 24.00021 v 39.00019 h -24.00021 z" /><rect
       style="display:inline;fill:#999999;stroke:#000000;stroke-width:0.999801;stroke-linecap:square;stroke-linejoin:miter;stroke-miterlimit:4;stroke-dasharray:none;stroke-opacity:1;paint-order:markers stroke fill"
       id="rect274-3-9-9-1-8"
       width="59.000248"
       height="84.000198"
       x="442.43951"
       y="17.34322"
       ry="0"
       onmouseover=""
       onmouseout="" /><rect
       style="display:inline;fill:#999999;stroke:#000000;stroke-width:1.00002;stroke-linecap:square;stroke-linejoin:miter;stroke-miterlimit:4;stroke-dasharray:none;stroke-opacity:1;paint-order:markers stroke fill"
       id="rect274-3-9-9-1-8-5"
       width="39.000015"
       height="118.99998"
       x="172.43939"
       y="17.343311"
       ry="0" /><rect
       style="display:inline;fill:#999999;stroke:#000000;stroke-width:1.00004;stroke-linecap:square;stroke-linejoin:miter;stroke-miterlimit:4;stroke-dasharray:none;stroke-opacity:1;paint-order:markers stroke fill"
       id="rect274-3-9-9-1-8-5-5"
       width="69.000008"
       height="28.999954"
       x="287.43951"
       y="102.34334"
       ry="0" /><rect
       style="display:inline;fill:#999999;stroke:#000000;stroke-width:0.999905;stroke-linecap:square;stroke-linejoin:miter;stroke-miterlimit:4;stroke-dasharray:none;stroke-opacity:1;paint-order:markers stroke fill"
       id="rect274-3-9-9-1-8-5-5-5"
       width="79.000153"
       height="4.0000949"
       x="282.43945"
       y="97.343246"
       ry="0" /><rect
       style="display:inline;fill:#999999;stroke:#000000;stroke-width:0.999904;stroke-linecap:square;stroke-linejoin:miter;stroke-miterlimit:4;stroke-dasharray:none;stroke-opacity:1;paint-order:markers stroke fill"
       id="rect274-3-9-9-1-8-5-5-2"
       width="14.000107"
       height="11.000097"
       x="314.93948"
       y="85.343277"
       ry="0" /><rect
       style="display:inline;fill:#999999;stroke:#000000;stroke-width:0.999963;stroke-linecap:square;stroke-linejoin:miter;stroke-miterlimit:4;stroke-dasharray:none;stroke-opacity:1;paint-order:markers stroke fill"
       id="rect274-3-9-9-1-8-5-5-6"
       width="69.000092"
       height="29.000036"
       x="287.43948"
       y="242.34328"
       ry="0" /><rect
       style="display:inline;fill:#999999;stroke:#000000;stroke-width:0.999983;stroke-linecap:square;stroke-linejoin:miter;stroke-miterlimit:4;stroke-dasharray:none;stroke-opacity:1;paint-order:markers stroke fill"
       id="rect274-3-9-9-1-8-5-5-6-4"
       width="39.000046"
       height="34.001369"
       x="172.43939"
       y="237.34331"
       ry="0" /><path
       style="display:inline;fill:#999999;stroke:#000000;stroke-width:0.999808;stroke-linecap:square;stroke-linejoin:miter;stroke-miterlimit:4;stroke-dasharray:none;stroke-opacity:1;paint-order:markers stroke fill"
       id="rect274-3-9-9-1-4"
       d="m 377.43949,167.3432 h 24.0002 v 39.00019 h -24.0002 z" /><path
       style="display:inline;fill:#999999;stroke:#000000;stroke-width:0.999808;stroke-linecap:square;stroke-linejoin:miter;stroke-miterlimit:4;stroke-dasharray:none;stroke-opacity:1;paint-order:markers stroke fill"
       id="rect274-3-9-9-1-7"
       d="m 117.43927,167.3432 h 24.00022 v 39.00019 h -24.00022 z" /><g
       id="rotary-pump"
       transform="translate(18.345112,-92.349523)"
       style="display:inline"
       inkscape:label="rotary-pump"><path
         id="rect3645"
         style="display:inline;fill:#999999;fill-opacity:1;stroke:#000000;stroke-width:1;stroke-dasharray:none;stroke-opacity:1;paint-order:markers stroke fill"
         d="m 227.59071,418.96317 v 1.80664 h 0.77344 v 8.23242 h -13.62109 v -0.60156 h -1.7168 v 11.75586 h 1.7168 v -0.73828 h 13.62109 v 19.91797 h -29.17773 v 13.21093 l -0.0898,0.002 v -8.44531 c 0,0 -20.07226,2.15212 -20.07226,5.01953 0,1.37366 -0.0341,2.79685 -0.0684,3.92382 l -0.041,0.002 c 0,0 -0.0131,1.16675 -0.0176,1.64062 -0.003,0.0816 -0.0156,0.45508 -0.0156,0.45508 h 0.0117 c -0.0229,2.36173 -0.0684,6.69851 -0.12305,8.93945 -0.0701,2.87581 19.57766,5.11845 20.41602,5.21289 v 5.70899 H 249.6083 V 459.3363 h -10.1289 v -19.91797 h 13.75 v 0.73828 h 1.71679 v -11.75586 h -1.71679 v 0.60156 h -13.75 v -8.23242 h 0.65429 v -1.80664 z m -23.88867,27.66016 c -0.35977,-4.7e-4 -0.77546,0.002 -1.26758,0.006 -1.96847,0.0149 -5.15856,0.0447 -6.79882,0.0449 -0.49932,6e-5 -0.85344,-0.002 -1.10743,0.0293 h -6.97656 v 7.3379 h 7.24805 v -0.0312 c 0.82763,-0.0259 2.35837,0.001 3.38476,0.0156 1.05878,0.0149 1.56701,0.0156 2.0293,0.0156 0.46229,0 0.87907,-6.4e-4 1.25195,0.0293 0.37289,0.0299 0.701,0.0907 1.10352,0.4043 0.40252,0.3136 0.87904,0.87888 1.11719,1.6543 0.23814,0.77541 0.23828,1.76092 0.23828,2.74414 l 9.93164,-0.17969 c 0.0298,-0.9236 0.0598,-1.84784 0.0449,-2.66797 -0.0148,-0.82013 -0.0732,-1.53569 -0.25195,-2.28125 -0.17877,-0.74556 -0.47738,-1.52137 -0.93946,-2.29687 -0.46207,-0.77551 -1.08831,-1.55196 -1.78906,-2.19336 -0.70075,-0.64141 -1.47618,-1.14674 -2.32617,-1.56446 -0.84999,-0.41771 -1.77418,-0.7459 -2.60938,-0.91015 -0.6264,-0.12319 -1.2039,-0.15485 -2.2832,-0.15625 z" /><rect
         style="fill:#4d4d4d;stroke-width:1.07682"
         id="rect3687"
         width="24.996719"
         height="0.98267198"
         x="223.82787"
         y="460.82504"
         rx="0.30000001"
         ry="0.30000001" /><rect
         style="fill:#4d4d4d;stroke-width:1.07682"
         id="rect3689"
         width="24.996719"
         height="0.98267198"
         x="223.85857"
         y="462.48331"
         rx="0.30000001"
         ry="0.30000001" /><rect
         style="fill:#4d4d4d;stroke-width:1.07682"
         id="rect3691"
         width="24.996719"
         height="0.98267198"
         x="223.91998"
         y="464.2644"
         rx="0.30000001"
         ry="0.30000001" /><rect
         style="fill:#4d4d4d;stroke-width:1.07682"
         id="rect3693"
         width="24.996719"
         height="0.98267198"
         x="223.85857"
         y="465.92267"
         rx="0.30000001"
         ry="0.30000001" /><rect
         style="fill:#4d4d4d;stroke-width:1.07682"
         id="rect3695"
         width="24.996719"
         height="0.98267198"
         x="223.79715"
         y="467.4581"
         rx="0.30000001"
         ry="0.30000001" /><rect
         style="fill:#4d4d4d;stroke-width:1.07682"
         id="rect3697"
         width="24.996719"
         height="0.98267198"
         x="223.85857"
         y="469.05493"
         rx="0.30000001"
         ry="0.30000001" /><rect
         style="fill:#4d4d4d;stroke-width:1.07682"
         id="rect3699"
         width="24.996719"
         height="0.98267198"
         x="223.89928"
         y="470.64542"
         rx="0.30000001"
         ry="0.30000001" /><rect
         style="fill:#4d4d4d;stroke-width:1.07682"
         id="rect3701"
         width="24.996719"
         height="0.98267198"
         x="223.89928"
         y="472.2131"
         rx="0.30000001"
         ry="0.30000001" /><rect
         style="fill:#4d4d4d;stroke-width:1.07682"
         id="rect3703"
         width="24.996719"
         height="0.98267198"
         x="223.84702"
         y="473.78079"
         rx="0.30000001"
         ry="0.30000001" /><rect
         style="fill:#4d4d4d;stroke-width:1.07682"
         id="rect3705"
         width="24.996719"
         height="0.98267198"
         x="223.84702"
         y="475.34851"
         rx="0.30000001"
         ry="0.30000001" /><rect
         style="fill:#4d4d4d;stroke-width:1.07682"
         id="rect3707"
         width="24.996719"
         height="0.98267198"
         x="223.84702"
         y="476.96848"
         rx="0.30000001"
         ry="0.30000001" /><rect
         style="fill:#4d4d4d;stroke-width:1.07682"
         id="rect3709"
         width="24.996719"
         height="0.98267198"
         x="223.89926"
         y="478.64066"
         rx="0.30000001"
         ry="0.30000001" /><rect
         style="fill:#4d4d4d;stroke-width:1.07682"
         id="rect3711"
         width="24.996719"
         height="0.98267198"
         x="223.89928"
         y="480.15613"
         rx="0.30000001"
         ry="0.30000001" /><rect
         style="fill:#4d4d4d;stroke-width:1.07682"
         id="rect3713"
         width="24.996719"
         height="0.98267198"
         x="223.92542"
         y="481.82834"
         rx="0.30000001"
         ry="0.30000001" /><rect
         style="fill:#4d4d4d;stroke-width:1.07682"
         id="rect3715"
         width="24.996719"
         height="0.98267198"
         x="223.92542"
         y="483.39606"
         rx="0.30000001"
         ry="0.30000001" /><rect
         style="fill:#4d4d4d;stroke-width:1.07682"
         id="rect3717"
         width="24.996719"
         height="0.98267198"
         x="223.92542"
         y="485.01602"
         rx="0.30000001"
         ry="0.30000001" /><rect
         style="fill:#4d4d4d;stroke-width:1.07682"
         id="rect3719"
         width="24.996719"
         height="0.98267198"
         x="223.97766"
         y="486.63596"
         rx="0.30000001"
         ry="0.30000001" /><rect
         style="fill:#4d4d4d;stroke-width:1.07682"
         id="rect3721"
         width="24.996719"
         height="0.98267198"
         x="223.87317"
         y="488.20367"
         rx="0.30000001"
         ry="0.30000001" /><rect
         style="fill:#4d4d4d;stroke-width:1.07682"
         id="rect3723"
         width="24.996719"
         height="0.98267198"
         x="224.00378"
         y="489.77139"
         rx="0.30000001"
         ry="0.30000001" /><rect
         style="fill:#4d4d4d;stroke-width:1.07682"
         id="rect3725"
         width="24.996719"
         height="0.98267198"
         x="224.00378"
         y="491.39136"
         rx="0.30000001"
         ry="0.30000001" /><rect
         style="fill:#4d4d4d;stroke-width:1.07682"
         id="rect3727"
         width="24.996719"
         height="0.98267198"
         x="224.05603"
         y="493.01129"
         rx="0.30000001"
         ry="0.30000001" /><path
         style="display:inline;fill:#ff0000;stroke:#000000;stroke-width:1;stroke-dasharray:none;stroke-opacity:1;paint-order:markers stroke fill"
         id="rect3667"
         d="m 201.25661,459.32928 h 20.3945 v 35.64232 h -20.3945 z" /><path
         style="display:inline;fill:#333333;stroke:#000000;stroke-width:0.5;stroke-dasharray:none;stroke-opacity:1;paint-order:markers stroke fill"
         id="path3669"
         d="m 203.96401,462.01245 c -0.0376,0.0244 -1.05091,0.0294 -1.08872,0.005 -0.0379,-0.0239 -0.54839,-0.99529 -0.54859,-1.04362 -1.9e-4,-0.0483 0.50253,-1.02466 0.54014,-1.04901 0.0377,-0.0244 1.05092,-0.0294 1.08873,-0.005 0.0378,0.0239 0.54838,0.99529 0.54858,1.04361 2e-4,0.0483 -0.50252,1.02468 -0.54014,1.04902 z" /><path
         style="display:inline;fill:#333333;stroke:#000000;stroke-width:0.500001;stroke-dasharray:none;stroke-opacity:1;paint-order:markers stroke fill"
         id="path3671"
         d="m 220.56675,461.69923 c -0.0376,0.0218 -1.05091,0.0263 -1.08872,0.005 -0.0379,-0.0215 -0.54839,-0.8923 -0.54859,-0.93563 -1.9e-4,-0.0433 0.50253,-0.91863 0.54014,-0.94046 0.0377,-0.0218 1.05092,-0.0263 1.08873,-0.005 0.0378,0.0215 0.54838,0.89229 0.54858,0.93561 2e-4,0.0433 -0.50252,0.91864 -0.54014,0.94047 z" /><path
         style="display:inline;fill:#333333;stroke:#000000;stroke-width:0.5;stroke-dasharray:none;stroke-opacity:1;paint-order:markers stroke fill"
         id="path3673"
         d="m 220.31018,477.30216 c -0.0392,0.0229 -1.09642,0.0276 -1.13587,0.005 -0.0395,-0.0225 -0.57214,-0.93572 -0.57234,-0.98116 -2e-4,-0.0454 0.52429,-0.96334 0.56353,-0.98623 0.0393,-0.0229 1.09643,-0.0276 1.13588,-0.005 0.0394,0.0225 0.57213,0.93572 0.57234,0.98115 2e-4,0.0454 -0.52429,0.96335 -0.56354,0.98624 z" /><path
         style="display:inline;fill:#333333;stroke:#000000;stroke-width:0.5;stroke-dasharray:none;stroke-opacity:1;paint-order:markers stroke fill"
         id="path3675"
         d="m 220.4737,494.30882 c -0.0392,0.0229 -1.09642,0.0276 -1.13587,0.005 -0.0395,-0.0225 -0.57214,-0.93572 -0.57234,-0.98116 -2e-4,-0.0454 0.52429,-0.96334 0.56353,-0.98623 0.0393,-0.0229 1.09643,-0.0276 1.13588,-0.005 0.0394,0.0225 0.57213,0.93572 0.57234,0.98115 2e-4,0.0454 -0.52429,0.96335 -0.56354,0.98624 z" /><path
         style="display:inline;fill:#333333;stroke:#000000;stroke-width:0.5;stroke-dasharray:none;stroke-opacity:1;paint-order:markers stroke fill"
         id="path3677"
         d="m 203.71234,477.38392 c -0.0392,0.0229 -1.09642,0.0276 -1.13587,0.005 -0.0395,-0.0225 -0.57214,-0.93572 -0.57234,-0.98116 -2e-4,-0.0454 0.52429,-0.96334 0.56353,-0.98623 0.0393,-0.0229 1.09643,-0.0276 1.13588,-0.005 0.0394,0.0225 0.57213,0.93572 0.57234,0.98115 2e-4,0.0454 -0.52429,0.96335 -0.56354,0.98624 z" /><path
         style="display:inline;fill:#333333;stroke:#000000;stroke-width:0.5;stroke-dasharray:none;stroke-opacity:1;paint-order:markers stroke fill"
         id="path3679"
         d="m 203.30352,494.22705 c -0.0392,0.0229 -1.09642,0.0276 -1.13587,0.005 -0.0395,-0.0225 -0.57214,-0.93572 -0.57234,-0.98116 -2e-4,-0.0454 0.52429,-0.96334 0.56353,-0.98623 0.0393,-0.0229 1.09643,-0.0276 1.13588,-0.005 0.0394,0.0225 0.57213,0.93572 0.57234,0.98115 2e-4,0.0454 -0.52429,0.96335 -0.56354,0.98624 z" /></g><g
       id="diffusion-pump-1"
       transform="translate(18.041292,-92.310183)"><path
         id="path1569"
         style="display:inline;fill:#333333;stroke:#000000;stroke-width:1.80917;stroke-dasharray:none;stroke-opacity:1;paint-order:markers stroke fill"
         d="m 467.86263,363.85709 v 24.71405 h -0.14467 c 0.0964,1.88 0.18904,3.75847 0.28542,5.17977 0.0964,1.42129 0.19296,2.38545 0.57866,3.49362 0.3857,1.10816 1.06273,2.36218 1.97838,3.39783 0.91565,1.03564 2.07208,1.85395 3.42112,2.67291 1.34903,0.81895 2.89167,1.63908 4.74656,2.60265 1.85489,0.96357 4.02112,2.07168 6.04463,3.05932 2.02352,0.98764 3.90356,1.85487 5.49334,3.01142 1.58977,1.15654 2.88906,2.59929 4.09361,3.75548 1.20455,1.1562 2.31178,2.02346 2.88938,3.32438 0.38044,0.85685 0.5229,1.8852 0.57475,2.74636 -0.008,0.0857 -0.0313,0.16797 -0.0313,0.25547 v 11.26008 h -9.91147 v -8.79474 c 0,-0.43117 -0.42611,-0.7792 -0.954,-0.7792 h -17.34019 c -0.52789,0 -0.95009,0.34803 -0.95009,0.7792 v 23.28658 c 0,0.43117 0.4222,0.7792 0.95009,0.7792 h 17.34019 c 0.52789,0 0.954,-0.34803 0.954,-0.7792 v -4.38459 h 9.91147 v 6.77967 c 0,1.81163 1.78565,3.27009 4.00369,3.27009 h 32.20934 c 2.21805,0 4.00369,-1.45846 4.00369,-3.27009 v -26.65247 c 0.17348,-0.12902 0.16482,-0.32297 0.1564,-0.6323 -0.0236,-0.8667 0.0245,-2.60146 0.60211,-3.90238 0.5776,-1.30092 1.68483,-2.16818 2.88938,-3.32438 1.20455,-1.1562 2.50776,-2.60214 4.09752,-3.75868 1.58978,-1.15655 3.46592,-2.02378 5.48943,-3.01141 2.02351,-0.98764 4.19366,-2.09575 6.04854,-3.05932 1.85489,-0.96357 3.39753,-1.78052 4.74656,-2.59946 1.34904,-0.81896 2.50547,-1.64046 3.42112,-2.67611 0.91565,-1.03565 1.58878,-2.28647 1.97448,-3.39463 0.38569,-1.10817 0.48225,-2.07234 0.57865,-3.49362 0.0964,-1.4213 0.19293,-3.29977 0.28933,-5.17977 h -0.2776 v -24.67573 z"
         transform="matrix(0.49954,0,0,0.6116,45.157147,141.13509)" /></g><g
       id="diffusion-pump-2"
       transform="translate(18.041292,-92.310183)"><path
         id="rect1380"
         style="display:inline;fill:#333333;stroke:#000000;stroke-width:1;stroke-linecap:square;stroke-dasharray:none;stroke-opacity:1;paint-order:markers stroke fill"
         d="m 404.08524,364.39335 v 24.7168 h -0.14453 c 0.0964,1.88 0.19268,3.75839 0.28906,5.17968 0.0964,1.42129 0.19242,2.38402 0.57812,3.49219 0.3857,1.10816 1.06092,2.36084 1.97657,3.39649 0.91565,1.03565 2.07283,1.85487 3.42187,2.67382 1.34903,0.81895 2.88925,1.638 4.74414,2.60157 1.85489,0.96357 4.02337,2.07291 6.04688,3.06054 2.02351,0.98764 3.90241,1.85322 5.49218,3.00977 1.58977,1.15654 2.89116,2.60357 4.09571,3.75977 1.20455,1.15619 2.31302,2.0233 2.89062,3.32421 0.31995,0.72061 0.46818,1.56267 0.54102,2.32813 v 11.92969 h -9.58789 v -9.09571 c 0,-0.2637 -0.21286,-0.47461 -0.47657,-0.47461 h -9.26562 c -0.2637,0 -0.47656,0.21091 -0.47656,0.47461 v 23.89258 c 0,0.26371 0.21286,0.47656 0.47656,0.47656 h 9.26562 c 0.26371,0 0.47657,-0.21285 0.47657,-0.47656 v -4.68555 h 9.58789 v 8.04883 c 0,1.108 0.892,2 2,2 h 36.21679 c 1.108,0 2,-0.892 2,-2 v -27.91601 c 0.18088,-0.12887 0.16479,-0.32724 0.15625,-0.64063 -0.0236,-0.8667 0.0259,-2.60142 0.60352,-3.90234 0.5776,-1.30092 1.68608,-2.16802 2.89063,-3.32422 1.20454,-1.1562 2.50398,-2.60127 4.09375,-3.75781 1.58977,-1.15655 3.46866,-2.02408 5.49218,-3.01172 2.02351,-0.98764 4.19199,-2.09503 6.04688,-3.0586 1.85489,-0.96356 3.39706,-1.78261 4.74609,-2.60156 1.34904,-0.81896 2.50427,-1.63818 3.41992,-2.67383 0.91565,-1.03564 1.59087,-2.28832 1.97657,-3.39648 0.3857,-1.10817 0.48172,-2.0709 0.57812,-3.49219 0.0964,-1.4213 0.19266,-3.30164 0.28906,-5.18164 h -0.27734 v -24.67578 z"
         transform="translate(0.03455891,-0.51835043)" /></g><g
       id="detection-chamber"
       style="display:inline"
       transform="translate(18.041292,-92.310183)"><path
         style="display:inline;fill:#999999;stroke:#000000;stroke-width:0.999901;stroke-linecap:square;stroke-linejoin:miter;stroke-dasharray:none;stroke-opacity:1;paint-order:markers stroke fill"
         id="rect274-3-9-0"
         d="m 124.39795,229.65344 h 99.0001 v 99.0001 h -99.0001 z" /><path
         style="display:inline;opacity:1;fill:#808080;fill-opacity:1;stroke:#000000;stroke-width:1;stroke-linecap:square;stroke-linejoin:miter;stroke-miterlimit:4;stroke-dasharray:none;stroke-opacity:1;paint-order:markers stroke fill"
         id="path15021"
         d="m 3,4.9999997 -5.8301268,0.098076 -3,-4.99999974 L -3,-4.9999997 l 5.8301268,-0.098076 3,4.99999974 z"
         transform="matrix(0.78035,0,0,0.78035,213.898,239.15349)" /><path
         style="display:inline;fill:#808080;fill-opacity:1;stroke:#000000;stroke-width:1;stroke-linecap:square;stroke-linejoin:miter;stroke-miterlimit:4;stroke-dasharray:none;stroke-opacity:1;paint-order:markers stroke fill"
         id="path15021-84"
         d="m 3,4.9999997 -5.8301268,0.098076 -3,-4.99999974 L -3,-4.9999997 l 5.8301268,-0.098076 3,4.99999974 z"
         transform="matrix(0.78035,0,0,0.78035,133.898,319.15349)" /><path
         style="display:inline;fill:#808080;fill-opacity:1;stroke:#000000;stroke-width:1;stroke-linecap:square;stroke-linejoin:miter;stroke-miterlimit:4;stroke-dasharray:none;stroke-opacity:1;paint-order:markers stroke fill"
         id="path15021-2"
         d="m 3,4.9999997 -5.8301268,0.098076 -3,-4.99999974 L -3,-4.9999997 l 5.8301268,-0.098076 3,4.99999974 z"
         transform="matrix(0.78035,0,0,0.78035,213.898,319.15349)" /><path
         style="display:inline;fill:#808080;fill-opacity:1;stroke:#000000;stroke-width:1;stroke-linecap:square;stroke-linejoin:miter;stroke-miterlimit:4;stroke-dasharray:none;stroke-opacity:1;paint-order:markers stroke fill"
         id="path15021-8"
         d="m 3,4.9999997 -5.8301268,0.098076 -3,-4.99999974 L -3,-4.9999997 l 5.8301268,-0.098076 3,4.99999974 z"
         transform="matrix(0.78035,0,0,0.78035,133.898,239.15349)" /></g><g
       id="doping-chamber"
       style="display:inline"
       transform="translate(18.041292,-92.310183)"><path
         style="display:inline;fill:#999999;stroke:#000000;stroke-width:1.00001;stroke-linecap:square;stroke-linejoin:miter;stroke-dasharray:none;stroke-opacity:1;paint-order:markers stroke fill"
         id="rect274-3-9"
         d="M 249.39799,224.65349 H 358.398 V 333.65348 H 249.39799 Z" /><path
         style="display:inline;fill:#808080;fill-opacity:1;stroke:#000000;stroke-width:1;stroke-linecap:square;stroke-linejoin:miter;stroke-miterlimit:4;stroke-dasharray:none;stroke-opacity:1;paint-order:markers stroke fill"
         id="path15021-1"
         d="m 3,4.9999997 -5.8301268,0.098076 -3,-4.99999974 L -3,-4.9999997 l 5.8301268,-0.098076 3,4.99999974 z"
         transform="matrix(0.78035,0,0,0.78035,258.898,324.15349)" /><path
         style="display:inline;fill:#808080;fill-opacity:1;stroke:#000000;stroke-width:1;stroke-linecap:square;stroke-linejoin:miter;stroke-miterlimit:4;stroke-dasharray:none;stroke-opacity:1;paint-order:markers stroke fill"
         id="path15021-7"
         d="m 3,4.9999997 -5.8301268,0.098076 -3,-4.99999974 L -3,-4.9999997 l 5.8301268,-0.098076 3,4.99999974 z"
         transform="matrix(0.78035,0,0,0.78035,258.898,234.15349)" /><path
         style="display:inline;fill:#808080;fill-opacity:1;stroke:#000000;stroke-width:1;stroke-linecap:square;stroke-linejoin:miter;stroke-miterlimit:4;stroke-dasharray:none;stroke-opacity:1;paint-order:markers stroke fill"
         id="path15021-89"
         d="m 3,4.9999997 -5.8301268,0.098076 -3,-4.99999974 L -3,-4.9999997 l 5.8301268,-0.098076 3,4.99999974 z"
         transform="matrix(0.78035,0,0,0.78035,348.898,234.15349)" /><path
         style="display:inline;fill:#808080;fill-opacity:1;stroke:#000000;stroke-width:1;stroke-linecap:square;stroke-linejoin:miter;stroke-miterlimit:4;stroke-dasharray:none;stroke-opacity:1;paint-order:markers stroke fill"
         id="path15021-3"
         d="m 3,4.9999997 -5.8301268,0.098076 -3,-4.99999974 L -3,-4.9999997 l 5.8301268,-0.098076 3,4.99999974 z"
         transform="matrix(0.78035,0,0,0.78035,348.898,324.15349)" /></g><g
       id="source-chamber"
       onmouseover=""
       style="display:inline"
       transform="translate(18.041292,-92.310183)"><path
         style="display:inline;fill:#999999;stroke:#000000;stroke-width:1.00012;stroke-linecap:square;stroke-linejoin:miter;stroke-dasharray:none;stroke-opacity:1;paint-order:markers stroke fill"
         id="rect274-3-9-7"
         d="M 384.39807,194.65355 H 523.39795 V 363.65343 H 384.39807 Z" /><path
         style="display:inline;fill:#808080;fill-opacity:1;stroke:#000000;stroke-width:0.78035;stroke-linecap:square;stroke-linejoin:miter;stroke-miterlimit:4;stroke-dasharray:none;stroke-opacity:1;paint-order:markers stroke fill"
         id="path15021-17"
         d="m 396.23905,208.05524 -4.54954,0.0765 -2.34105,-3.90175 2.20849,-3.97828 4.54954,-0.0765 2.34105,3.90175 z" /><path
         style="display:inline;fill:#808080;fill-opacity:1;stroke:#000000;stroke-width:0.78035;stroke-linecap:square;stroke-linejoin:miter;stroke-miterlimit:4;stroke-dasharray:none;stroke-opacity:1;paint-order:markers stroke fill"
         id="path15021-37"
         d="m 516.23905,208.05524 -4.54954,0.0765 -2.34105,-3.90175 2.20849,-3.97828 4.54954,-0.0765 2.34105,3.90175 z" /><path
         style="display:inline;fill:#808080;fill-opacity:1;stroke:#000000;stroke-width:0.78035;stroke-linecap:square;stroke-linejoin:miter;stroke-miterlimit:4;stroke-dasharray:none;stroke-opacity:1;paint-order:markers stroke fill"
         id="path15021-70"
         d="m 516.23905,358.05524 -4.54954,0.0765 -2.34105,-3.90175 2.20849,-3.97828 4.54954,-0.0765 2.34105,3.90175 z" /><path
         style="display:inline;fill:#808080;fill-opacity:1;stroke:#000000;stroke-width:0.78035;stroke-linecap:square;stroke-linejoin:miter;stroke-miterlimit:4;stroke-dasharray:none;stroke-opacity:1;paint-order:markers stroke fill"
         id="path15021-82"
         d="m 396.23905,358.05524 -4.54954,0.0765 -2.34105,-3.90175 2.20849,-3.97828 4.54954,-0.0765 2.34105,3.90175 z" /></g><g
       id="ion-gauge-3"
       style="display:inline"
       transform="translate(283.0567,-127.5205)"><path
         style="fill:#999999;fill-opacity:1;stroke:#000000;stroke-opacity:1;paint-order:markers stroke fill"
         id="rect445"
         d="m 133.93692,218.85104 h 10.07635 v 10.24154 h -10.07635 z" /><path
         style="display:inline;fill:#333333;fill-opacity:1;stroke:#000000;stroke-width:1;stroke-dasharray:none;stroke-opacity:1;paint-order:markers stroke fill"
         id="rect447"
         d="m 128.65096,189.15913 h 20.48308 v 29.6919 h -20.48308 z" /><rect
         style="fill:#ffd42a;stroke-width:0.884725"
         id="rect451"
         width="3.9607351"
         height="29.591976"
         x="128.65446"
         y="189.13141"
         rx="0.30000001"
         ry="0.30000001" /><rect
         style="fill:#ffd42a;stroke-width:0.889752"
         id="rect453"
         width="4.0478096"
         height="29.656029"
         x="145.16731"
         y="189.13141"
         rx="0.30000001"
         ry="0.30000001" /><rect
         style="fill:#ffd42a"
         id="rect455"
         width="4.2387009"
         height="3.9075525"
         x="134.30017"
         y="204.79671"
         rx="0.30000001"
         ry="0.30000001" /><rect
         style="display:inline;fill:#ffd42a"
         id="rect457"
         width="4.2387009"
         height="3.9075525"
         x="139.2674"
         y="204.82982"
         rx="0.30000001"
         ry="0.30000001" /><rect
         style="display:inline;fill:#ffd42a"
         id="rect459"
         width="4.2387009"
         height="3.9075525"
         x="134.23395"
         y="209.59836"
         rx="0.30000001"
         ry="0.30000001" /><rect
         style="display:inline;fill:#ffd42a"
         id="rect461"
         width="4.2387009"
         height="3.9075525"
         x="139.33363"
         y="209.59836"
         rx="0.30000001"
         ry="0.30000001" /><rect
         style="fill:#000000"
         id="rect463"
         width="8.742321"
         height="9.4046173"
         x="134.49886"
         y="191.55077"
         rx="0.30000001"
         ry="0.30000001" /><path
         style="display:inline;fill:#000000"
         id="path465"
         d="m 76.154502,210.04994 -1.171932,-0.74241 1.228914,-0.64372 z"
         transform="translate(64.844561,-1.4086983)" /><path
         style="display:inline;fill:none;fill-rule:evenodd;stroke:#000000"
         id="path467"
         d="m 74.566543,206.06313 c 0.294473,-1.06746 1.43273,-1.7135 2.500193,-1.41903 1.067463,0.29448 1.7135,1.43273 1.419028,2.5002 -0.294473,1.06746 -1.432729,1.7135 -2.500193,1.41902"
         transform="matrix(0.7099,0,0,0.61717,87.016129,79.259272)" /><rect
         style="display:inline;fill:#000000"
         id="rect469"
         width="0.80376971"
         height="2.3558769"
         x="142.22397"
         y="210.24005"
         ry="0.30000001"
         rx="0.30000001" /><rect
         style="display:inline;fill:#000000"
         id="rect471"
         width="2.4944577"
         height="0.97006691"
         x="140.50557"
         y="211.68129"
         rx="0.30000001"
         ry="0.30000001" /><path
         style="display:inline;fill:#000000"
         id="path473"
         d="M 76.274978,213.38701 74.87213,212.5894 76.2643,211.7733 Z"
         transform="matrix(0.84194,0,0,1,76.480385,-0.40305264)" /><path
         style="display:inline;fill:#000000"
         id="path475"
         d="m 137.44644,206.88495 -2.11325,0.009 1.04848,-1.83483 z" /><rect
         style="display:inline;fill:#000000"
         id="rect477"
         width="1.0088949"
         height="1.6646767"
         x="135.88264"
         y="206.73361"
         ry="0.30000001"
         rx="0.30000001" /><path
         style="display:inline;fill:#000000"
         id="path481"
         d="m 137.396,211.41556 -2.11325,-0.009 1.04847,1.83483 z" /><rect
         style="display:inline;fill:#000000"
         id="rect483"
         width="1.0088949"
         height="1.6646767"
         x="135.8322"
         y="-211.56691"
         ry="0.30000001"
         rx="0.30000001"
         transform="scale(1,-1)" /></g><g
       id="ion-gauge-2"
       style="display:inline"
       transform="translate(133.53541,-97.269378)"><path
         style="fill:#999999;fill-opacity:1;stroke:#000000;stroke-opacity:1;paint-order:markers stroke fill"
         id="rect716"
         d="m 133.93692,218.85104 h 10.07635 v 10.24154 h -10.07635 z" /><path
         style="display:inline;fill:#333333;fill-opacity:1;stroke:#000000;stroke-width:1;stroke-dasharray:none;stroke-opacity:1;paint-order:markers stroke fill"
         id="rect718"
         d="m 128.65096,189.15913 h 20.48308 v 29.6919 h -20.48308 z" /><rect
         style="fill:#ffd42a;stroke-width:0.884725"
         id="rect722"
         width="3.9607351"
         height="29.591976"
         x="128.65446"
         y="189.13141"
         rx="0.30000001"
         ry="0.30000001" /><rect
         style="fill:#ffd42a;stroke-width:0.889752"
         id="rect724"
         width="4.0478096"
         height="29.656029"
         x="145.16731"
         y="189.13141"
         rx="0.30000001"
         ry="0.30000001" /><rect
         style="fill:#ffd42a"
         id="rect726"
         width="4.2387009"
         height="3.9075525"
         x="134.30017"
         y="204.79671"
         rx="0.30000001"
         ry="0.30000001" /><rect
         style="display:inline;fill:#ffd42a"
         id="rect728"
         width="4.2387009"
         height="3.9075525"
         x="139.2674"
         y="204.82982"
         rx="0.30000001"
         ry="0.30000001" /><rect
         style="display:inline;fill:#ffd42a"
         id="rect730"
         width="4.2387009"
         height="3.9075525"
         x="134.23395"
         y="209.59836"
         rx="0.30000001"
         ry="0.30000001" /><rect
         style="display:inline;fill:#ffd42a"
         id="rect732"
         width="4.2387009"
         height="3.9075525"
         x="139.33363"
         y="209.59836"
         rx="0.30000001"
         ry="0.30000001" /><rect
         style="fill:#000000"
         id="rect734"
         width="8.742321"
         height="9.4046173"
         x="134.49886"
         y="191.55077"
         rx="0.30000001"
         ry="0.30000001" /><path
         style="display:inline;fill:#000000"
         id="path736"
         d="m 76.154502,210.04994 -1.171932,-0.74241 1.228914,-0.64372 z"
         transform="translate(64.844561,-1.4086983)" /><path
         style="display:inline;fill:none;fill-rule:evenodd;stroke:#000000"
         id="path738"
         d="m 74.566543,206.06313 c 0.294473,-1.06746 1.43273,-1.7135 2.500193,-1.41903 1.067463,0.29448 1.7135,1.43273 1.419028,2.5002 -0.294473,1.06746 -1.432729,1.7135 -2.500193,1.41902"
         transform="matrix(0.7099,0,0,0.61717,87.016129,79.259272)" /><rect
         style="display:inline;fill:#000000"
         id="rect740"
         width="0.80376971"
         height="2.3558769"
         x="142.22397"
         y="210.24005"
         ry="0.30000001"
         rx="0.30000001" /><rect
         style="display:inline;fill:#000000"
         id="rect742"
         width="2.4944577"
         height="0.97006691"
         x="140.50557"
         y="211.68129"
         rx="0.30000001"
         ry="0.30000001" /><path
         style="display:inline;fill:#000000"
         id="path744"
         d="M 76.274978,213.38701 74.87213,212.5894 76.2643,211.7733 Z"
         transform="matrix(0.84194,0,0,1,76.480385,-0.40305264)" /><path
         style="display:inline;fill:#000000"
         id="path746"
         d="m 137.44644,206.88495 -2.11325,0.009 1.04848,-1.83483 z" /><rect
         style="display:inline;fill:#000000"
         id="rect748"
         width="1.0088949"
         height="1.6646767"
         x="135.88264"
         y="206.73361"
         ry="0.30000001"
         rx="0.30000001" /><path
         style="display:inline;fill:#000000"
         id="path752"
         d="m 137.396,211.41556 -2.11325,-0.009 1.04847,1.83483 z" /><rect
         style="display:inline;fill:#000000"
         id="rect754"
         width="1.0088949"
         height="1.6646767"
         x="135.8322"
         y="-211.56691"
         ry="0.30000001"
         rx="0.30000001"
         transform="scale(1,-1)" /></g><g
       id="ion-gauge-1"
       style="display:inline"
       transform="translate(17.879312,-92.380823)"><path
         style="fill:#999999;fill-opacity:1;stroke:#000000;stroke-opacity:1;paint-order:markers stroke fill"
         id="rect766"
         d="m 133.93692,218.85104 h 10.07635 v 10.24154 h -10.07635 z" /><path
         style="display:inline;fill:#333333;fill-opacity:1;stroke:#000000;stroke-width:1;stroke-dasharray:none;stroke-opacity:1;paint-order:markers stroke fill"
         id="rect768"
         d="m 128.65096,189.15913 h 20.48308 v 29.6919 h -20.48308 z" /><rect
         style="fill:#ffd42a;stroke-width:0.884725"
         id="rect772"
         width="3.9607351"
         height="29.591976"
         x="128.65446"
         y="189.13141"
         rx="0.30000001"
         ry="0.30000001" /><rect
         style="fill:#ffd42a;stroke-width:0.889752"
         id="rect774"
         width="4.0478096"
         height="29.656029"
         x="145.16731"
         y="189.13141"
         rx="0.30000001"
         ry="0.30000001" /><rect
         style="fill:#ffd42a"
         id="rect776"
         width="4.2387009"
         height="3.9075525"
         x="134.30017"
         y="204.79671"
         rx="0.30000001"
         ry="0.30000001" /><rect
         style="display:inline;fill:#ffd42a"
         id="rect778"
         width="4.2387009"
         height="3.9075525"
         x="139.2674"
         y="204.82982"
         rx="0.30000001"
         ry="0.30000001" /><rect
         style="display:inline;fill:#ffd42a"
         id="rect780"
         width="4.2387009"
         height="3.9075525"
         x="134.23395"
         y="209.59836"
         rx="0.30000001"
         ry="0.30000001" /><rect
         style="display:inline;fill:#ffd42a"
         id="rect782"
         width="4.2387009"
         height="3.9075525"
         x="139.33363"
         y="209.59836"
         rx="0.30000001"
         ry="0.30000001" /><rect
         style="fill:#000000"
         id="rect784"
         width="8.742321"
         height="9.4046173"
         x="134.49886"
         y="191.55077"
         rx="0.30000001"
         ry="0.30000001" /><path
         style="display:inline;fill:#000000"
         id="path786"
         d="m 76.154502,210.04994 -1.171932,-0.74241 1.228914,-0.64372 z"
         transform="translate(64.844561,-1.4086983)" /><path
         style="display:inline;fill:none;fill-rule:evenodd;stroke:#000000"
         id="path788"
         d="m 74.566543,206.06313 c 0.294473,-1.06746 1.43273,-1.7135 2.500193,-1.41903 1.067463,0.29448 1.7135,1.43273 1.419028,2.5002 -0.294473,1.06746 -1.432729,1.7135 -2.500193,1.41902"
         transform="matrix(0.7099,0,0,0.61717,87.016129,79.259272)" /><rect
         style="display:inline;fill:#000000"
         id="rect790"
         width="0.80376971"
         height="2.3558769"
         x="142.22397"
         y="210.24005"
         ry="0.30000001"
         rx="0.30000001" /><rect
         style="display:inline;fill:#000000"
         id="rect792"
         width="2.4944577"
         height="0.97006691"
         x="140.50557"
         y="211.68129"
         rx="0.30000001"
         ry="0.30000001" /><path
         style="display:inline;fill:#000000"
         id="path794"
         d="M 76.274978,213.38701 74.87213,212.5894 76.2643,211.7733 Z"
         transform="matrix(0.84194,0,0,1,76.480385,-0.40305264)" /><path
         style="display:inline;fill:#000000"
         id="path796"
         d="m 137.44644,206.88495 -2.11325,0.009 1.04848,-1.83483 z" /><rect
         style="display:inline;fill:#000000"
         id="rect798"
         width="1.0088949"
         height="1.6646767"
         x="135.88264"
         y="206.73361"
         ry="0.30000001"
         rx="0.30000001" /><path
         style="display:inline;fill:#000000"
         id="path802"
         d="m 137.396,211.41556 -2.11325,-0.009 1.04847,1.83483 z" /><rect
         style="display:inline;fill:#000000"
         id="rect804"
         width="1.0088949"
         height="1.6646767"
         x="135.8322"
         y="-211.56691"
         ry="0.30000001"
         rx="0.30000001"
         transform="scale(1,-1)" /></g><g
       id="turbo-pump"
       transform="translate(18.041292,-92.310183)"><path
         id="rect2080"
         style="fill:#333333;stroke:#000000;stroke-opacity:1;paint-order:markers stroke fill"
         d="m 143.63594,364.25983 v 19.9336 h -13.75 v -0.98633 h -3.31641 v 12.51172 h 3.31641 v -0.94532 h 13.75 v 4.29493 h 59.95508 v -34.8086 z"
         transform="translate(0.36210735,-0.26764479)" /></g><g
       id="lecture"
       inkscape:label="lecture"
       transform="translate(18.041292,-92.310183)"><ellipse
         style="fill:#800000;stroke-width:0.697593"
         id="path836"
         cx="32.56144"
         cy="471.54736"
         rx="15.57327"
         ry="4.2389007" /><path
         style="fill:#800000;stroke-width:0.694687"
         id="rect937"
         d="m 17.938551,410.38223 h 29.224394 v 61.76683 H 17.938551 Z" /><path
         style="fill:#4d4d4d;stroke-width:0.694687"
         id="rect1303"
         d="m 29.343193,380.40717 h 6.890304 v 19.68061 h -6.890304 z" /><ellipse
         style="fill:#800000;stroke-width:0.718186"
         id="path1017"
         cx="32.540062"
         cy="411.20291"
         rx="14.601511"
         ry="13.927815" /><path
         style="fill:#4d4d4d"
         id="path1413"
         d="m 50.578401,355.2071 -15.884021,0.24118 -5.137808,-15.03207 12.708682,-9.53151 12.992205,9.14127 z"
         transform="matrix(0.61538,0,0,0.31266,6.53391,270.67189)" /><path
         style="fill:#4d4d4d"
         id="rect1415"
         d="m 24.830967,386.51614 h 15.784025 v 3.2723 H 24.830967 Z" /><path
         style="fill:#666666;stroke-width:0.999996"
         id="rect1697"
         d="M 19.780813,413.44748 H 45.398681 V 470.4679 H 19.780813 Z" /></g><g
       id="salt"
       transform="matrix(-9.1192762e-5,-0.36267759,0.6138125,-6.2728252e-5,68.865548,200.88714)"
       style="display:inline"><path
         id="path25788"
         style="display:inline;opacity:1;fill:url(#linearGradient29460);fill-opacity:1;stroke-width:0.315818;stroke-dasharray:0.157909, 0.157909"
         d="m 30.686168,39.290212 a 13.190802,5.419284 30.6369 0 0 -3.357945,1.526316 13.190802,5.419284 30.6369 0 0 8.801815,11.414825 13.190802,5.419284 30.6369 0 0 13.979048,1.885248 13.190802,5.419284 30.6369 0 0 -8.801812,-11.414826 13.190802,5.419284 30.6369 0 0 -10.621106,-3.411563 z"
         transform="translate(1.3787195e-6)" /><path
         id="path30437"
         style="display:inline;fill:url(#linearGradient30439);fill-opacity:1;stroke-width:1.0594"
         d="m 41.06571,30.07465 c 0.07731,0.01258 0.154797,0.02438 0.232027,0.03728 0.2035,0.03565 0.406599,0.07341 0.609265,0.112944 -0.0054,-0.02029 -0.0091,-0.04006 -0.01137,-0.05976 A 14.241977,6.5931061 0 0 0 41.06571,30.07465 Z m -15.109155,8.263584 c -0.0132,0.0076 -0.02444,0.01819 -0.03669,0.02741 -0.06396,0.04521 -0.129242,0.09019 -0.201022,0.119523 -0.164993,0.08362 -0.133698,0.06784 -0.115238,0.05866 v 5.48e-4 c 0.01654,-0.0083 0.03414,-0.01675 0.03927,-0.01919 -0.0051,0.0028 -0.01758,0.0094 -0.04082,0.02138 7.65e-4,-10e-4 8.82e-4,-0.0013 0.0016,-0.0022 -0.01001,0.005 -0.0175,0.0088 -0.02739,0.01371 H 25.5757 c -0.06022,0.0538 -0.170868,0.162772 -0.09767,0.07676 -0.08512,0.07599 -0.191303,0.138628 -0.194303,0.139261 -0.07464,0.05549 -0.112676,0.0831 -0.135909,0.09978 -0.09903,0.09401 -0.204449,0.176611 -0.318844,0.248916 -0.03903,0.02257 -0.104789,0.07888 -0.137459,0.1113 -0.0085,0.007 -0.01495,0.01217 -0.0217,0.01755 -0.01127,0.01553 -0.03224,0.04167 -0.07028,0.08499 -0.03938,0.04398 -0.07725,0.08915 -0.114205,0.135423 -0.01291,0.01446 -0.02485,0.02995 -0.03876,0.04331 -0.0053,0.0051 -0.0087,0.0082 -0.01344,0.01262 -0.0013,0.0017 -0.0018,0.0027 -0.0031,0.0043 -0.01228,0.01794 -0.0376,0.05552 -0.04961,0.07128 -0.0012,0.0016 -0.0037,0.0051 -0.0052,0.0071 -0.0057,0.01212 -0.0125,0.02338 -0.02015,0.03126 -0.03203,0.05473 -0.06049,0.09124 -0.0832,0.121168 -0.04435,0.09207 -0.115143,0.232344 -0.125057,0.234113 -0.0091,0.01405 -0.01826,0.02815 -0.02739,0.04222 v 31.327276 h 0.08785 a 14.241977,6.5931061 0 0 0 -0.08785,0.676021 14.241977,6.5931061 0 0 0 14.242024,6.594638 14.241977,6.5931061 0 0 0 14.242025,-6.594638 14.241977,6.5931061 0 0 0 -0.08992,-0.676021 h 0.08992 V 55.385715 c -0.195011,-0.133176 -0.391351,-0.269646 -0.574642,-0.417785 0.06888,0.02535 0.04109,0.01102 -0.112655,-0.08718 -0.02925,-0.01662 -0.05901,-0.03291 -0.08837,-0.04935 -0.203983,-0.126404 -0.334617,-0.212202 -0.61495,-0.407367 -0.149092,-0.0985 -0.287379,-0.21068 -0.445968,-0.292779 C 50.53213,54.001081 50.298718,53.8685 50.060987,53.744173 49.772017,53.584088 49.476924,53.434538 49.196441,53.258402 48.966704,53.12703 48.735707,53.00027 48.50501,52.871873 48.312281,52.753925 48.106949,52.65913 47.909698,52.550036 47.55167,52.378769 47.194436,52.207129 46.843613,52.019855 46.512203,51.821039 46.174019,51.633652 45.852459,51.417302 45.513136,51.210422 45.161935,51.027355 44.826165,50.813653 44.53335,50.617157 44.226205,50.444445 43.932163,50.249478 43.603385,50.040597 43.278649,49.825225 42.952416,49.611842 42.637486,49.368963 42.30989,49.145393 41.990718,48.908955 41.761996,48.742412 41.536317,48.573139 41.301871,48.416057 41.084309,48.249994 40.86144,48.092143 40.636279,47.937962 40.512015,47.830551 40.367247,47.753552 40.230102,47.667115 40.095334,47.594358 39.835713,47.45975 39.604817,47.311833 39.396542,47.211339 39.21419,47.052414 39.017773,46.930235 38.729768,46.743854 38.444179,46.555036 38.157877,46.365513 37.921827,46.212203 37.68152,46.066238 37.444742,45.914283 37.162887,45.727505 36.889801,45.528515 36.62257,45.318858 36.444322,45.183345 36.281224,45.029391 36.083068,44.9241 35.829847,44.746655 35.578602,44.566293 35.331693,44.379116 35.085822,44.198541 34.8341,44.026705 34.586002,43.849483 34.224345,43.613807 33.87268,43.360562 33.507515,43.130696 33.054042,42.82732 32.599108,42.526775 32.146358,42.222207 31.607763,41.875715 31.056487,41.551695 30.523201,41.195838 29.914712,40.788589 29.306275,40.380231 28.6675,40.027466 c -0.610997,-0.345299 -1.200384,-0.728892 -1.800406,-1.094903 -0.28808,-0.191434 -0.572644,-0.388709 -0.855762,-0.588298 -0.03045,0.0138 -0.05565,0.02128 -0.06925,0.01644 -0.0028,3.12e-4 -0.006,7.84e-4 -0.0088,0.0011 0.0066,-0.0034 0.01355,-0.007 0.02015,-0.0104 0.0478,-0.03813 -0.03191,0.02024 -0.0186,0.0055 0.0065,-0.0072 0.0299,-0.02342 0.0217,-0.01864 z m -0.380339,0.219858 c -0.0083,0.0041 0.0318,-0.01645 0.02739,-0.01426 0.01718,-0.02371 8.6e-5,-0.01029 -0.02739,0.01426 z"
         transform="translate(1.3787195e-6)" /><path
         id="path31294-69"
         style="display:inline;fill:url(#linearGradient31318-32);fill-opacity:1;stroke-width:0.498473"
         d="m 38.89195,71.880245 a 22.718232,0.91505818 0 0 0 -22.577726,0.82114 H 16.1741 v 0.0938 4.83336 h 0.140124 a 22.718232,0.91505818 0 0 0 -0.140124,0.0938 22.718232,0.91505818 0 0 0 22.717994,0.91532 22.718232,0.91505818 0 0 0 22.717984,-0.91532 22.718232,0.91505818 0 0 0 -0.142995,-0.0938 h 0.142995 v -4.83336 -0.0938 h -0.142995 a 22.718232,0.91505818 0 0 0 -22.575082,-0.82114 z m -23.064739,0.91496 0.346753,4.97446 z"
         transform="translate(1.3787195e-6)" /><path
         id="path24268"
         style="display:inline;opacity:1;fill:url(#linearGradient29444);fill-opacity:1;stroke-width:0.384162;stroke-dasharray:0.19208, 0.19208"
         transform="matrix(0.86394914,0.50357907,-0.47797651,0.87837262,1.3787195e-6,-4.8854378e-7)"
         d="m 43.01171,17.951257 a 16.046764,6.5913706 0 0 0 -2.704668,3.662092 16.046764,6.5913706 0 0 0 16.04673,6.591364 16.046764,6.5913706 0 0 0 16.046925,-6.591825 16.046764,6.5913706 0 0 0 -16.04673,-6.591365 16.046764,6.5913706 0 0 0 -13.342257,2.929734 z" /><path
         id="path25060"
         style="display:inline;opacity:1;fill:url(#linearGradient28702);fill-opacity:1;stroke-width:0.349992;stroke-dasharray:0.174997, 0.174997"
         d="M 29.346583,38.255397 A 14.663122,5.9872414 30.194104 0 0 25.601744,39.936231 14.663122,5.9872414 30.194104 0 0 35.41768,52.506654 14.663122,5.9872414 30.194104 0 0 51.007358,54.582758 14.663122,5.9872414 30.194104 0 0 41.191425,42.012334 14.663122,5.9872414 30.194104 0 0 29.346583,38.255397 Z"
         transform="translate(1.3787195e-6)" /><path
         id="path27968"
         style="display:inline;opacity:1;fill:url(#linearGradient29476);fill-opacity:1;stroke-width:0.283433;stroke-dasharray:0.141717, 0.141717"
         d="m 31.469269,40.117948 a 11.870565,4.8503169 30.2427 0 0 -3.030574,1.36214 11.870565,4.8503169 30.2427 0 0 7.943712,10.187002 11.870565,4.8503169 30.2427 0 0 12.616209,1.682464 11.870565,4.8503169 30.2427 0 0 -7.94371,-10.187004 11.870565,4.8503169 30.2427 0 0 -9.585637,-3.044602 z"
         transform="translate(1.3787195e-6)" /></g></g></svg>
