<?xml version="1.0" encoding="UTF-8" standalone="no"?>
<!-- Created with Inkscape (http://www.inkscape.org/) -->

<svg
   width="300"
   height="500"
   viewBox="0 0 79.374998 132.29167"
   version="1.1"
   id="svg19266"
   inkscape:version="1.2 (dc2aeda, 2022-05-15)"
   sodipodi:docname="salt-window.svg"
   xmlns:inkscape="http://www.inkscape.org/namespaces/inkscape"
   xmlns:sodipodi="http://sodipodi.sourceforge.net/DTD/sodipodi-0.dtd"
   xmlns:xlink="http://www.w3.org/1999/xlink"
   xmlns="http://www.w3.org/2000/svg"
   xmlns:svg="http://www.w3.org/2000/svg">
  <sodipodi:namedview
     id="namedview19268"
     pagecolor="#505050"
     bordercolor="#eeeeee"
     borderopacity="1"
     inkscape:showpageshadow="0"
     inkscape:pageopacity="0"
     inkscape:pagecheckerboard="0"
     inkscape:deskcolor="#505050"
     inkscape:document-units="px"
     showgrid="false"
     inkscape:zoom="1.4220189"
     inkscape:cx="75.948358"
     inkscape:cy="203.9354"
     inkscape:window-width="1280"
     inkscape:window-height="772"
     inkscape:window-x="0"
     inkscape:window-y="28"
     inkscape:window-maximized="0"
     inkscape:current-layer="layer1" />
  <defs
     id="defs19263">
    <linearGradient
       inkscape:collect="always"
       id="linearGradient29474">
      <stop
         style="stop-color:#929292;stop-opacity:1;"
         offset="0"
         id="stop29470" />
      <stop
         style="stop-color:#9a9a9a;stop-opacity:1;"
         offset="0.20418006"
         id="stop29478" />
      <stop
         style="stop-color:#848484;stop-opacity:1;"
         offset="0.39951769"
         id="stop29480" />
      <stop
         style="stop-color:#727272;stop-opacity:1;"
         offset="0.60168809"
         id="stop29482" />
      <stop
         style="stop-color:#606060;stop-opacity:1;"
         offset="0.79602093"
         id="stop29484" />
      <stop
         style="stop-color:#2b2b2b;stop-opacity:1;"
         offset="1"
         id="stop29472" />
    </linearGradient>
    <linearGradient
       inkscape:collect="always"
       id="linearGradient29458">
      <stop
         style="stop-color:#acacac;stop-opacity:1;"
         offset="0"
         id="stop29454" />
      <stop
         style="stop-color:#626262;stop-opacity:1;"
         offset="0.20096463"
         id="stop29462" />
      <stop
         style="stop-color:#575757;stop-opacity:1;"
         offset="0.40000001"
         id="stop29464" />
      <stop
         style="stop-color:#676767;stop-opacity:1;"
         offset="0.60490352"
         id="stop29466" />
      <stop
         style="stop-color:#b0b0b0;stop-opacity:1;"
         offset="0.79923636"
         id="stop29468" />
      <stop
         style="stop-color:#adadad;stop-opacity:1;"
         offset="1"
         id="stop29456" />
    </linearGradient>
    <linearGradient
       inkscape:collect="always"
       id="linearGradient29442">
      <stop
         style="stop-color:#bdbdbd;stop-opacity:1;"
         offset="0"
         id="stop29438" />
      <stop
         style="stop-color:#a8a8a8;stop-opacity:1;"
         offset="0.2"
         id="stop29446" />
      <stop
         style="stop-color:#8c8c8c;stop-opacity:1;"
         offset="0.39951771"
         id="stop29448" />
      <stop
         style="stop-color:#5b5b5b;stop-opacity:1;"
         offset="0.60490352"
         id="stop29450" />
      <stop
         style="stop-color:#606060;stop-opacity:1;"
         offset="0.79923636"
         id="stop29452" />
      <stop
         style="stop-color:#c0c0c0;stop-opacity:1;"
         offset="1"
         id="stop29440" />
    </linearGradient>
    <linearGradient
       inkscape:collect="always"
       id="linearGradient28700">
      <stop
         style="stop-color:#c9634e;stop-opacity:1;"
         offset="0"
         id="stop28696" />
      <stop
         style="stop-color:#f14a2c;stop-opacity:1;"
         offset="0.2"
         id="stop28704" />
      <stop
         style="stop-color:#e34424;stop-opacity:1;"
         offset="0.40000001"
         id="stop28706" />
      <stop
         style="stop-color:#ef4f32;stop-opacity:0.98113215;"
         offset="0.60000002"
         id="stop28708" />
      <stop
         style="stop-color:#f68a74;stop-opacity:1;"
         offset="0.79923636"
         id="stop28710" />
      <stop
         style="stop-color:#ff2525;stop-opacity:0.93081754;"
         offset="1"
         id="stop28698" />
    </linearGradient>
    <linearGradient
       inkscape:collect="always"
       xlink:href="#linearGradient31314"
       id="linearGradient31318"
       x1="134.83498"
       y1="185.42915"
       x2="171.70763"
       y2="185.42915"
       gradientUnits="userSpaceOnUse"
       gradientTransform="matrix(1.2416479,0,0,0.22349536,-151.59035,33.816425)" />
    <linearGradient
       inkscape:collect="always"
       id="linearGradient31314">
      <stop
         style="stop-color:#b3b3b3;stop-opacity:1;"
         offset="0.07717042"
         id="stop31302" />
      <stop
         style="stop-color:#d2d2d2;stop-opacity:1;"
         offset="0.24919616"
         id="stop31304" />
      <stop
         style="stop-color:#9c9c9c;stop-opacity:1;"
         offset="0.40956593"
         id="stop31306" />
      <stop
         style="stop-color:#afafaf;stop-opacity:1;"
         offset="0.61816716"
         id="stop31308" />
      <stop
         style="stop-color:#d0d0d0;stop-opacity:1;"
         offset="0.77893889"
         id="stop31310" />
      <stop
         style="stop-color:#989898;stop-opacity:1;"
         offset="0.95498395"
         id="stop31312" />
    </linearGradient>
    <linearGradient
       inkscape:collect="always"
       xlink:href="#linearGradient31314"
       id="linearGradient30439"
       gradientUnits="userSpaceOnUse"
       gradientTransform="matrix(0.77838456,0,0,1.6103112,-81.05124,-244.30511)"
       x1="134.83498"
       y1="185.42915"
       x2="171.70763"
       y2="185.42915" />
    <linearGradient
       inkscape:collect="always"
       xlink:href="#linearGradient28700"
       id="linearGradient28702"
       x1="26.192024"
       y1="39.753902"
       x2="51.866421"
       y2="55.489822"
       gradientUnits="userSpaceOnUse" />
    <linearGradient
       inkscape:collect="always"
       xlink:href="#linearGradient29442"
       id="linearGradient29444"
       x1="40.405777"
       y1="21.268559"
       x2="73.111427"
       y2="22.554464"
       gradientUnits="userSpaceOnUse" />
    <linearGradient
       inkscape:collect="always"
       xlink:href="#linearGradient29458"
       id="linearGradient29460"
       x1="27.744911"
       y1="40.582108"
       x2="50.417057"
       y2="55.282772"
       gradientUnits="userSpaceOnUse" />
    <linearGradient
       inkscape:collect="always"
       xlink:href="#linearGradient29474"
       id="linearGradient29476"
       x1="39.132748"
       y1="42.031471"
       x2="38.718643"
       y2="54.55809"
       gradientUnits="userSpaceOnUse" />
  </defs>
  <g
     inkscape:label="Layer 1"
     inkscape:groupmode="layer"
     id="layer1">
    <g
       id="g722">
      <path
         id="path30437"
         style="fill:url(#linearGradient30439);fill-opacity:1;stroke-width:1.0594"
         d="m 41.06571,30.07465 c 0.07731,0.01258 0.154797,0.02438 0.232027,0.03728 0.2035,0.03565 0.406599,0.07341 0.609265,0.112944 -0.0054,-0.02029 -0.0091,-0.04006 -0.01137,-0.05976 A 14.241977,6.5931061 0 0 0 41.06571,30.07465 Z m -15.109155,8.263584 c -0.0132,0.0076 -0.02444,0.01819 -0.03669,0.02741 -0.06396,0.04521 -0.129242,0.09019 -0.201022,0.119523 -0.164993,0.08362 -0.133698,0.06784 -0.115238,0.05866 v 5.48e-4 c 0.01654,-0.0083 0.03414,-0.01675 0.03927,-0.01919 -0.0051,0.0028 -0.01758,0.0094 -0.04082,0.02138 7.65e-4,-10e-4 8.82e-4,-0.0013 0.0016,-0.0022 -0.01001,0.005 -0.0175,0.0088 -0.02739,0.01371 H 25.5757 c -0.06022,0.0538 -0.170868,0.162772 -0.09767,0.07676 -0.08512,0.07599 -0.191303,0.138628 -0.194303,0.139261 -0.07464,0.05549 -0.112676,0.0831 -0.135909,0.09978 -0.09903,0.09401 -0.204449,0.176611 -0.318844,0.248916 -0.03903,0.02257 -0.104789,0.07888 -0.137459,0.1113 -0.0085,0.007 -0.01495,0.01217 -0.0217,0.01755 -0.01127,0.01553 -0.03224,0.04167 -0.07028,0.08499 -0.03938,0.04398 -0.07725,0.08915 -0.114205,0.135423 -0.01291,0.01446 -0.02485,0.02995 -0.03876,0.04331 -0.0053,0.0051 -0.0087,0.0082 -0.01344,0.01262 -0.0013,0.0017 -0.0018,0.0027 -0.0031,0.0043 -0.01228,0.01794 -0.0376,0.05552 -0.04961,0.07128 -0.0012,0.0016 -0.0037,0.0051 -0.0052,0.0071 -0.0057,0.01212 -0.0125,0.02338 -0.02015,0.03126 -0.03203,0.05473 -0.06049,0.09124 -0.0832,0.121168 -0.04435,0.09207 -0.115143,0.232344 -0.125057,0.234113 -0.0091,0.01405 -0.01826,0.02815 -0.02739,0.04222 v 31.327276 h 0.08785 a 14.241977,6.5931061 0 0 0 -0.08785,0.676021 14.241977,6.5931061 0 0 0 14.242024,6.594638 14.241977,6.5931061 0 0 0 14.242025,-6.594638 14.241977,6.5931061 0 0 0 -0.08992,-0.676021 h 0.08992 V 55.385715 c -0.195011,-0.133176 -0.391351,-0.269646 -0.574642,-0.417785 0.06888,0.02535 0.04109,0.01102 -0.112655,-0.08718 -0.02925,-0.01662 -0.05901,-0.03291 -0.08837,-0.04935 -0.203983,-0.126404 -0.334617,-0.212202 -0.61495,-0.407367 -0.149092,-0.0985 -0.287379,-0.21068 -0.445968,-0.292779 C 50.53213,54.001081 50.298718,53.8685 50.060987,53.744173 49.772017,53.584088 49.476924,53.434538 49.196441,53.258402 48.966704,53.12703 48.735707,53.00027 48.50501,52.871873 48.312281,52.753925 48.106949,52.65913 47.909698,52.550036 47.55167,52.378769 47.194436,52.207129 46.843613,52.019855 46.512203,51.821039 46.174019,51.633652 45.852459,51.417302 45.513136,51.210422 45.161935,51.027355 44.826165,50.813653 44.53335,50.617157 44.226205,50.444445 43.932163,50.249478 43.603385,50.040597 43.278649,49.825225 42.952416,49.611842 42.637486,49.368963 42.30989,49.145393 41.990718,48.908955 41.761996,48.742412 41.536317,48.573139 41.301871,48.416057 41.084309,48.249994 40.86144,48.092143 40.636279,47.937962 40.512015,47.830551 40.367247,47.753552 40.230102,47.667115 40.095334,47.594358 39.835713,47.45975 39.604817,47.311833 39.396542,47.211339 39.21419,47.052414 39.017773,46.930235 38.729768,46.743854 38.444179,46.555036 38.157877,46.365513 37.921827,46.212203 37.68152,46.066238 37.444742,45.914283 37.162887,45.727505 36.889801,45.528515 36.62257,45.318858 36.444322,45.183345 36.281224,45.029391 36.083068,44.9241 35.829847,44.746655 35.578602,44.566293 35.331693,44.379116 35.085822,44.198541 34.8341,44.026705 34.586002,43.849483 34.224345,43.613807 33.87268,43.360562 33.507515,43.130696 33.054042,42.82732 32.599108,42.526775 32.146358,42.222207 31.607763,41.875715 31.056487,41.551695 30.523201,41.195838 29.914712,40.788589 29.306275,40.380231 28.6675,40.027466 c -0.610997,-0.345299 -1.200384,-0.728892 -1.800406,-1.094903 -0.28808,-0.191434 -0.572644,-0.388709 -0.855762,-0.588298 -0.03045,0.0138 -0.05565,0.02128 -0.06925,0.01644 -0.0028,3.12e-4 -0.006,7.84e-4 -0.0088,0.0011 0.0066,-0.0034 0.01355,-0.007 0.02015,-0.0104 0.0478,-0.03813 -0.03191,0.02024 -0.0186,0.0055 0.0065,-0.0072 0.0299,-0.02342 0.0217,-0.01864 z m -0.380339,0.219858 c -0.0083,0.0041 0.0318,-0.01645 0.02739,-0.01426 0.01718,-0.02371 8.6e-5,-0.01029 -0.02739,0.01426 z" />
      <path
         id="path31294"
         style="fill:url(#linearGradient31318);fill-opacity:1;stroke-width:0.498473"
         d="m 38.89195,71.880245 a 22.718232,0.91505818 0 0 0 -22.577726,0.82114 H 16.1741 v 0.0938 4.83336 h 0.140124 a 22.718232,0.91505818 0 0 0 -0.140124,0.0938 22.718232,0.91505818 0 0 0 22.717994,0.91532 22.718232,0.91505818 0 0 0 22.717984,-0.91532 22.718232,0.91505818 0 0 0 -0.142995,-0.0938 h 0.142995 v -4.83336 -0.0938 h -0.142995 a 22.718232,0.91505818 0 0 0 -22.575082,-0.82114 z m -23.064739,0.91496 0.346753,4.97446 z" />
      <path
         id="path24268"
         style="opacity:1;fill:url(#linearGradient29444);fill-opacity:1;stroke-width:0.384162;stroke-dasharray:0.19208, 0.19208"
         transform="matrix(0.86394915,0.50357906,-0.47797652,0.87837261,0,0)"
         d="m 43.01171,17.951257 a 16.046764,6.5913706 0 0 0 -2.704668,3.662092 16.046764,6.5913706 0 0 0 16.04673,6.591364 16.046764,6.5913706 0 0 0 16.046925,-6.591825 16.046764,6.5913706 0 0 0 -16.04673,-6.591365 16.046764,6.5913706 0 0 0 -13.342257,2.929734 z" />
      <path
         id="path25060"
         style="opacity:1;fill:url(#linearGradient28702);fill-opacity:1;stroke-width:0.349992;stroke-dasharray:0.174997, 0.174997"
         d="M 29.346583,38.255397 A 14.663122,5.9872414 30.194104 0 0 25.601744,39.936231 14.663122,5.9872414 30.194104 0 0 35.41768,52.506654 14.663122,5.9872414 30.194104 0 0 51.007358,54.582758 14.663122,5.9872414 30.194104 0 0 41.191425,42.012334 14.663122,5.9872414 30.194104 0 0 29.346583,38.255397 Z" />
      <path
         id="path25788"
         style="opacity:1;fill:url(#linearGradient29460);fill-opacity:1;stroke-width:0.315818;stroke-dasharray:0.157909, 0.157909"
         d="m 30.686168,39.290212 a 13.190802,5.419284 30.6369 0 0 -3.357945,1.526316 13.190802,5.419284 30.6369 0 0 8.801815,11.414825 13.190802,5.419284 30.6369 0 0 13.979048,1.885248 13.190802,5.419284 30.6369 0 0 -8.801812,-11.414826 13.190802,5.419284 30.6369 0 0 -10.621106,-3.411563 z" />
      <path
         id="path27968"
         style="opacity:1;fill:url(#linearGradient29476);fill-opacity:1;stroke-width:0.283433;stroke-dasharray:0.141717, 0.141717"
         d="m 31.469269,40.117948 a 11.870565,4.8503169 30.2427 0 0 -3.030574,1.36214 11.870565,4.8503169 30.2427 0 0 7.943712,10.187002 11.870565,4.8503169 30.2427 0 0 12.616209,1.682464 11.870565,4.8503169 30.2427 0 0 -7.94371,-10.187004 11.870565,4.8503169 30.2427 0 0 -9.585637,-3.044602 z" />
    </g>
  </g>
</svg>
