<?xml version="1.0" encoding="UTF-8" standalone="no"?>
<!-- Created with Inkscape (http://www.inkscape.org/) -->

<svg
   width="208.57947"
   height="255.04449"
   viewBox="0 0 208.57947 255.04449"
   version="1.1"
   id="svg22745"
   inkscape:version="1.2.2 (732a01da63, 2022-12-09)"
   sodipodi:docname="hose-2.svg"
   xmlns:inkscape="http://www.inkscape.org/namespaces/inkscape"
   xmlns:sodipodi="http://sodipodi.sourceforge.net/DTD/sodipodi-0.dtd"
   xmlns:xlink="http://www.w3.org/1999/xlink"
   xmlns="http://www.w3.org/2000/svg"
   xmlns:svg="http://www.w3.org/2000/svg">
  <sodipodi:namedview
     id="namedview22747"
     pagecolor="#ffffff"
     bordercolor="#000000"
     borderopacity="0.25"
     inkscape:showpageshadow="2"
     inkscape:pageopacity="0.0"
     inkscape:pagecheckerboard="0"
     inkscape:deskcolor="#d1d1d1"
     inkscape:document-units="px"
     showgrid="false"
     inkscape:zoom="0.914906"
     inkscape:cx="75.417584"
     inkscape:cy="288.00773"
     inkscape:window-width="1278"
     inkscape:window-height="1360"
     inkscape:window-x="-7"
     inkscape:window-y="0"
     inkscape:window-maximized="0"
     inkscape:current-layer="layer1" />
  <defs
     id="defs22742">
    <linearGradient
       inkscape:collect="always"
       xlink:href="#linearGradient16891"
       id="linearGradient16893"
       x1="2012.6586"
       y1="2354.439"
       x2="2013.3829"
       y2="2399.4763"
       gradientUnits="userSpaceOnUse" />
    <linearGradient
       inkscape:collect="always"
       id="linearGradient16891">
      <stop
         style="stop-color:#b3b3b3;stop-opacity:1;"
         offset="0.04501608"
         id="stop16887" />
      <stop
         style="stop-color:#8c8c8c;stop-opacity:1;"
         offset="0.24919614"
         id="stop16895" />
      <stop
         style="stop-color:#9c9c9c;stop-opacity:1;"
         offset="0.41237941"
         id="stop16897" />
      <stop
         style="stop-color:#afafaf;stop-opacity:1;"
         offset="0.61776525"
         id="stop16899" />
      <stop
         style="stop-color:#d0d0d0;stop-opacity:1;"
         offset="0.7799437"
         id="stop16901" />
      <stop
         style="stop-color:#989898;stop-opacity:1;"
         offset="0.94533759"
         id="stop16889" />
    </linearGradient>
    <linearGradient
       inkscape:collect="always"
       xlink:href="#linearGradient16149"
       id="linearGradient16151"
       x1="2072.7766"
       y1="2326.2402"
       x2="2117.7766"
       y2="2326.2402"
       gradientUnits="userSpaceOnUse" />
    <linearGradient
       inkscape:collect="always"
       id="linearGradient16149">
      <stop
         style="stop-color:#b3b3b3;stop-opacity:1;"
         offset="0.08360129"
         id="stop16145" />
      <stop
         style="stop-color:#8c8c8c;stop-opacity:1;"
         offset="0.24598071"
         id="stop16153" />
      <stop
         style="stop-color:#9c9c9c;stop-opacity:1;"
         offset="0.40594855"
         id="stop16155" />
      <stop
         style="stop-color:#afafaf;stop-opacity:1;"
         offset="0.62419611"
         id="stop16157" />
      <stop
         style="stop-color:#d0d0d0;stop-opacity:1;"
         offset="0.7799437"
         id="stop16159" />
      <stop
         style="stop-color:#989898;stop-opacity:1;"
         offset="0.95498395"
         id="stop16147" />
    </linearGradient>
    <linearGradient
       inkscape:collect="always"
       xlink:href="#linearGradient14681"
       id="linearGradient14683"
       x1="1916.1976"
       y1="2477.0242"
       x2="1961.1976"
       y2="2477.0242"
       gradientUnits="userSpaceOnUse" />
    <linearGradient
       inkscape:collect="always"
       id="linearGradient14681">
      <stop
         style="stop-color:#b3b3b3;stop-opacity:1;"
         offset="0.08"
         id="stop14677" />
      <stop
         style="stop-color:#8c8c8c;stop-opacity:1;"
         offset="0.24919614"
         id="stop14685" />
      <stop
         style="stop-color:#9c9c9c;stop-opacity:1;"
         offset="0.40916398"
         id="stop14687" />
      <stop
         style="stop-color:#afafaf;stop-opacity:1;"
         offset="0.62098068"
         id="stop14689" />
      <stop
         style="stop-color:#d0d0d0;stop-opacity:1;"
         offset="0.7831592"
         id="stop14691" />
      <stop
         style="stop-color:#989898;stop-opacity:1;"
         offset="0.95176852"
         id="stop14679" />
    </linearGradient>
    <linearGradient
       inkscape:collect="always"
       xlink:href="#linearGradient16079"
       id="linearGradient16704"
       gradientUnits="userSpaceOnUse"
       x1="2070.8589"
       y1="2381.7415"
       x2="2122.8589"
       y2="2381.7415"
       gradientTransform="translate(-1.5823063,-4.926079)" />
    <linearGradient
       inkscape:collect="always"
       id="linearGradient16079">
      <stop
         style="stop-color:#b3b3b3;stop-opacity:1;"
         offset="0.08"
         id="stop16075" />
      <stop
         style="stop-color:#828282;stop-opacity:1;"
         offset="0.25"
         id="stop16083" />
      <stop
         style="stop-color:#9c9c9c;stop-opacity:1;"
         offset="0.41"
         id="stop16085" />
      <stop
         style="stop-color:#afafaf;stop-opacity:1;"
         offset="0.62"
         id="stop16087" />
      <stop
         style="stop-color:#d0d0d0;stop-opacity:1;"
         offset="0.77999997"
         id="stop16089" />
      <stop
         style="stop-color:#989898;stop-opacity:1;"
         offset="0.94999999"
         id="stop16077" />
    </linearGradient>
    <linearGradient
       inkscape:collect="always"
       xlink:href="#linearGradient16079"
       id="linearGradient16706"
       gradientUnits="userSpaceOnUse"
       gradientTransform="translate(-158.16169,-4.9260461)"
       x1="2070.8589"
       y1="2381.7415"
       x2="2122.8589"
       y2="2381.7415" />
  </defs>
  <g
     inkscape:label="Layer 1"
     inkscape:groupmode="layer"
     id="layer1"
     transform="translate(-320.89059,-282.3559)">
    <g
       id="hose-2"
       transform="matrix(-1,0,0,1,2442.1672,-2016.3844)"
       style="display:inline">
      <rect
         style="fill:#008000;stroke:none;stroke-width:1.35227;stroke-linecap:square;stroke-dasharray:none;paint-order:markers stroke fill"
         id="rect12396-8-7"
         width="45"
         height="106.33439"
         x="2354.3154"
         y="-2069.9651"
         transform="rotate(90)"
         inkscape:label="rect12396-8" />
      <path
         id="rect12396-8-7-0"
         style="display:inline;fill:url(#linearGradient16893);fill-opacity:1;stroke:none;stroke-width:1.35227;stroke-linecap:square;stroke-dasharray:none;paint-order:markers stroke fill"
         inkscape:label="rect12396-8"
         d="m 2069.9646,2354.3153 v 0.8066 l -0.8067,-0.8066 z m -1.2637,0 -1.8926,1.8926 2.1211,2.1211 1.0352,-1.0352 v 4.8985 l -1.0352,-1.0352 -2.1211,2.1211 2.1211,2.1211 1.0352,-1.0352 v 4.9004 l -1.0352,-1.0351 -2.1211,2.1211 2.1211,2.1211 1.0352,-1.0352 v 4.8984 l -1.0352,-1.0351 -2.1211,2.1211 2.1211,2.1211 1.0352,-1.0352 v 4.8984 l -1.0352,-1.0351 -2.1211,2.1211 2.1211,2.123 1.0352,-1.0351 v 4.8984 l -1.0352,-1.0351 -2.1211,2.121 2.1211,2.1211 1.0352,-1.0351 v 4.8984 l -1.0352,-1.0351 -2.1211,2.1211 0.6816,0.6816 h -4.1914 l 0.6817,-0.6816 -2.1211,-2.1211 -2.1211,2.1211 0.6816,0.6816 h -4.1933 l 0.6816,-0.6816 -2.1211,-2.1211 -2.1211,2.1211 0.6817,0.6816 h -4.1914 l 0.6816,-0.6816 -2.1211,-2.1211 -2.1211,2.1211 0.6817,0.6816 h -4.1914 l 0.6816,-0.6816 -2.1211,-2.1211 -2.123,2.1211 0.6816,0.6816 h -4.1914 l 0.6816,-0.6816 -2.1211,-2.1211 -2.1211,2.1211 0.6817,0.6816 h -4.1914 l 0.6816,-0.6816 -2.1211,-2.1211 -2.1211,2.1211 0.6817,0.6816 h -4.1934 l 0.6816,-0.6816 -2.121,-2.1211 -2.1211,2.1211 0.6816,0.6816 h -4.1914 l 0.6816,-0.6816 -2.1211,-2.1211 -2.1211,2.1211 0.6817,0.6816 h -4.1914 l 0.6816,-0.6816 -2.1211,-2.1211 -2.1211,2.1211 0.6817,0.6816 h -4.1934 l 0.6817,-0.6816 -2.1211,-2.1211 -2.1211,2.1211 0.6816,0.6816 h -4.1914 l 0.6816,-0.6816 -2.121,-2.1211 -2.1211,2.1211 0.6816,0.6816 h -4.1914 l 0.6816,-0.6816 -2.123,-2.1211 -2.1211,2.1211 0.6816,0.6816 h -4.1914 l 0.6817,-0.6816 -2.1211,-2.1211 -2.1211,2.1211 0.6816,0.6816 h -4.1914 l 0.6817,-0.6816 -2.1211,-2.1211 -2.1211,2.1211 0.6816,0.6816 h -4.1934 l 0.6817,-0.6816 -1.3535,-1.3536 v -4.3632 l 1.3535,-1.3536 -1.3535,-1.3535 v -4.3632 l 1.3535,-1.3555 -1.3535,-1.3535 v -4.3633 l 1.3535,-1.3535 -1.3535,-1.3535 v -4.3633 l 1.3535,-1.3535 -1.3535,-1.3536 v -4.3652 l 1.3535,-1.3535 -1.3535,-1.3535 v -4.3633 l 1.3535,-1.3535 -1.3535,-1.3535 v -0.5391 h 2.289 l 0.4786,0.4785 0.4785,-0.4785 h 2.83 l -1.8925,1.8926 2.1211,2.1211 2.1211,-2.1211 -1.8926,-1.8926 h 2.8281 l 0.4785,0.4785 0.4785,-0.4785 h 2.8282 l -1.8926,1.8926 2.1211,2.1211 2.1211,-2.1211 -1.8926,-1.8926 h 2.8281 l 0.4785,0.4785 0.4785,-0.4785 h 2.8282 l -1.8926,1.8926 2.1211,2.1211 2.123,-2.1211 -1.8945,-1.8926 h 2.8301 l 0.4785,0.4785 0.4785,-0.4785 h 2.8281 l -1.8925,1.8926 2.1211,2.1211 2.121,-2.1211 -1.8925,-1.8926 h 2.8281 l 0.4785,0.4785 0.4785,-0.4785 h 2.8281 l -1.8925,1.8926 2.1211,2.1211 2.1211,-2.1211 -1.8926,-1.8926 h 2.8281 l 0.4785,0.4785 0.4785,-0.4785 h 2.8301 l -1.8926,1.8926 2.1211,2.1211 2.1211,-2.1211 -1.8926,-1.8926 h 2.8282 l 0.4785,0.4785 0.4785,-0.4785 h 2.8281 l -1.8926,1.8926 2.1211,2.1211 2.1211,-2.1211 -1.8925,-1.8926 h 2.8281 l 0.4785,0.4785 0.4785,-0.4785 h 2.8281 l -1.8925,1.8926 2.1211,2.1211 2.121,-2.1211 -1.8925,-1.8926 h 2.83 l 0.4786,0.4785 0.4785,-0.4785 h 2.8281 l -1.8926,1.8926 2.1211,2.1211 2.1211,-2.1211 -1.8926,-1.8926 h 2.8282 l 0.4785,0.4785 0.4785,-0.4785 h 2.8281 l -1.8926,1.8926 2.1211,2.1211 2.1211,-2.1211 -1.8926,-1.8926 h 2.8282 l 0.4785,0.4785 0.4785,-0.4785 h 2.8301 l -1.8945,1.8926 2.123,2.1211 2.1211,-2.1211 -1.8926,-1.8926 h 2.8281 l 0.4786,0.4785 0.4785,-0.4785 h 2.8281 l -1.8926,1.8926 2.1211,2.1211 2.1211,-2.1211 -1.8926,-1.8926 h 2.8282 l 0.4785,0.4785 0.4785,-0.4785 h 2.8281 l -1.8926,1.8926 2.1211,2.1211 2.1211,-2.1211 -1.8926,-1.8926 h 2.8301 l 0.4785,0.4785 0.4785,-0.4785 h 2.8282 l -1.8926,1.8926 2.1211,2.1211 2.1211,-2.1211 -1.8926,-1.8926 h 2.8281 l 0.4785,0.4785 0.4786,-0.4785 z m -3.3067,3.3066 -2.121,2.1211 2.121,2.1211 2.1211,-2.1211 z m -7.0703,0 -2.123,2.1211 2.123,2.1211 2.1211,-2.1211 z m -7.0722,0 -2.1211,2.1211 2.1211,2.1211 2.1211,-2.1211 z m -7.0703,0 -2.1211,2.1211 2.1211,2.1211 2.121,-2.1211 z m -7.0723,0 -2.1211,2.1211 2.1211,2.1211 2.1211,-2.1211 z m -7.0703,0 -2.1211,2.1211 2.1211,2.1211 2.1211,-2.1211 z m -7.0703,0 -2.1231,2.1211 2.1231,2.1211 2.1211,-2.1211 z m -7.0723,0 -2.1211,2.1211 2.1211,2.1211 2.1211,-2.1211 z m -7.0703,0 -2.1211,2.1211 2.1211,2.1211 2.1211,-2.1211 z m -7.0723,0 -2.1211,2.1211 2.1211,2.1211 2.1231,-2.1211 z m -7.0703,0 -2.1211,2.1211 2.1211,2.1211 2.1211,-2.1211 z m -7.0703,0 -2.1211,2.1211 2.1211,2.1211 2.1211,-2.1211 z m -7.0723,0 -2.1211,2.1211 2.1211,2.1211 2.1211,-2.1211 z m -7.0703,0 -2.1211,2.1211 2.1211,2.1211 2.1211,-2.1211 z m -7.0722,0 -2.1211,2.1211 2.1211,2.1211 2.123,-2.1211 z m 95.4609,3.5352 -2.1211,2.1211 2.1211,2.1211 2.1211,-2.1211 z m -7.0723,0 -2.1211,2.1211 2.1211,2.1211 2.1211,-2.1211 z m -7.0703,0 -2.1211,2.1211 2.1211,2.1211 2.1211,-2.1211 z m -7.0703,0 -2.123,2.1211 2.123,2.1211 2.1211,-2.1211 z m -7.0723,0 -2.1211,2.1211 2.1211,2.1211 2.1211,-2.1211 z m -7.0703,0 -2.1211,2.1211 2.1211,2.1211 2.1211,-2.1211 z m -7.0722,0 -2.1211,2.1211 2.1211,2.1211 2.121,-2.1211 z m -7.0704,0 -2.1211,2.1211 2.1211,2.1211 2.1211,-2.1211 z m -7.0703,0 -2.1211,2.1211 2.1211,2.1211 2.1211,-2.1211 z m -7.0722,0 -2.1211,2.1211 2.1211,2.1211 2.1211,-2.1211 z m -7.0703,0 -2.1211,2.1211 2.1211,2.1211 2.121,-2.1211 z m -7.0723,0 -2.1211,2.1211 2.1211,2.1211 2.123,-2.1211 z m -7.0703,0 -2.1211,2.1211 2.1211,2.1211 2.1211,-2.1211 z m -7.0703,0 -2.1211,2.1211 2.1211,2.1211 2.1211,-2.1211 z m 95.4589,3.5352 -2.121,2.121 2.121,2.1231 2.1211,-2.1231 z m -7.0703,0 -2.123,2.121 2.123,2.1231 2.1211,-2.1231 z m -7.0722,0 -2.1211,2.121 2.1211,2.1231 2.1211,-2.1231 z m -7.0703,0 -2.1211,2.121 2.1211,2.1231 2.121,-2.1231 z m -7.0723,0 -2.1211,2.121 2.1211,2.1231 2.1211,-2.1231 z m -7.0703,0 -2.1211,2.121 2.1211,2.1231 2.1211,-2.1231 z m -7.0703,0 -2.1231,2.121 2.1231,2.1231 2.1211,-2.1231 z m -7.0723,0 -2.1211,2.121 2.1211,2.1231 2.1211,-2.1231 z m -7.0703,0 -2.1211,2.121 2.1211,2.1231 2.1211,-2.1231 z m -7.0723,0 -2.1211,2.121 2.1211,2.1231 2.1231,-2.1231 z m -7.0703,0 -2.1211,2.121 2.1211,2.1231 2.1211,-2.1231 z m -7.0703,0 -2.1211,2.121 2.1211,2.1231 2.1211,-2.1231 z m -7.0723,0 -2.1211,2.121 2.1211,2.1231 2.1211,-2.1231 z m -7.0703,0 -2.1211,2.121 2.1211,2.1231 2.1211,-2.1231 z m -7.0722,0 -2.1211,2.121 2.1211,2.1231 2.123,-2.1231 z m 95.4609,3.5371 -2.1211,2.1211 2.1211,2.1211 2.1211,-2.1211 z m -7.0723,0 -2.1211,2.1211 2.1211,2.1211 2.1211,-2.1211 z m -7.0703,0 -2.1211,2.1211 2.1211,2.1211 2.1211,-2.1211 z m -7.0703,0 -2.123,2.1211 2.123,2.1211 2.1211,-2.1211 z m -7.0723,0 -2.1211,2.1211 2.1211,2.1211 2.1211,-2.1211 z m -7.0703,0 -2.1211,2.1211 2.1211,2.1211 2.1211,-2.1211 z m -7.0722,0 -2.1211,2.1211 2.1211,2.1211 2.121,-2.1211 z m -7.0704,0 -2.1211,2.1211 2.1211,2.1211 2.1211,-2.1211 z m -7.0703,0 -2.1211,2.1211 2.1211,2.1211 2.1211,-2.1211 z m -7.0722,0 -2.1211,2.1211 2.1211,2.1211 2.1211,-2.1211 z m -7.0703,0 -2.1211,2.1211 2.1211,2.1211 2.121,-2.1211 z m -7.0723,0 -2.1211,2.1211 2.1211,2.1211 2.123,-2.1211 z m -7.0703,0 -2.1211,2.1211 2.1211,2.1211 2.1211,-2.1211 z m -7.0703,0 -2.1211,2.1211 2.1211,2.1211 2.1211,-2.1211 z m 95.4589,3.5351 -2.121,2.1211 2.121,2.1211 2.1211,-2.1211 z m -7.0703,0 -2.123,2.1211 2.123,2.1211 2.1211,-2.1211 z m -7.0722,0 -2.1211,2.1211 2.1211,2.1211 2.1211,-2.1211 z m -7.0703,0 -2.1211,2.1211 2.1211,2.1211 2.121,-2.1211 z m -7.0723,0 -2.1211,2.1211 2.1211,2.1211 2.1211,-2.1211 z m -7.0703,0 -2.1211,2.1211 2.1211,2.1211 2.1211,-2.1211 z m -7.0703,0 -2.1231,2.1211 2.1231,2.1211 2.1211,-2.1211 z m -7.0723,0 -2.1211,2.1211 2.1211,2.1211 2.1211,-2.1211 z m -7.0703,0 -2.1211,2.1211 2.1211,2.1211 2.1211,-2.1211 z m -7.0723,0 -2.1211,2.1211 2.1211,2.1211 2.1231,-2.1211 z m -7.0703,0 -2.1211,2.1211 2.1211,2.1211 2.1211,-2.1211 z m -7.0703,0 -2.1211,2.1211 2.1211,2.1211 2.1211,-2.1211 z m -7.0723,0 -2.1211,2.1211 2.1211,2.1211 2.1211,-2.1211 z m -7.0703,0 -2.1211,2.1211 2.1211,2.1211 2.1211,-2.1211 z m -7.0722,0 -2.1211,2.1211 2.1211,2.1211 2.123,-2.1211 z m 95.4609,3.5352 -2.1211,2.1211 2.1211,2.1211 2.1211,-2.1211 z m -7.0723,0 -2.1211,2.1211 2.1211,2.1211 2.1211,-2.1211 z m -7.0703,0 -2.1211,2.1211 2.1211,2.1211 2.1211,-2.1211 z m -7.0703,0 -2.123,2.1211 2.123,2.1211 2.1211,-2.1211 z m -7.0723,0 -2.1211,2.1211 2.1211,2.1211 2.1211,-2.1211 z m -7.0703,0 -2.1211,2.1211 2.1211,2.1211 2.1211,-2.1211 z m -7.0722,0 -2.1211,2.1211 2.1211,2.1211 2.121,-2.1211 z m -7.0704,0 -2.1211,2.1211 2.1211,2.1211 2.1211,-2.1211 z m -7.0703,0 -2.1211,2.1211 2.1211,2.1211 2.1211,-2.1211 z m -7.0722,0 -2.1211,2.1211 2.1211,2.1211 2.1211,-2.1211 z m -7.0703,0 -2.1211,2.1211 2.1211,2.1211 2.121,-2.1211 z m -7.0723,0 -2.1211,2.1211 2.1211,2.1211 2.123,-2.1211 z m -7.0703,0 -2.1211,2.1211 2.1211,2.1211 2.1211,-2.1211 z m -7.0703,0 -2.1211,2.1211 2.1211,2.1211 2.1211,-2.1211 z m 95.4589,3.5351 -2.121,2.1211 2.121,2.1211 2.1211,-2.1211 z m -7.0703,0 -2.123,2.1211 2.123,2.1211 2.1211,-2.1211 z m -7.0722,0 -2.1211,2.1211 2.1211,2.1211 2.1211,-2.1211 z m -7.0703,0 -2.1211,2.1211 2.1211,2.1211 2.121,-2.1211 z m -7.0723,0 -2.1211,2.1211 2.1211,2.1211 2.1211,-2.1211 z m -7.0703,0 -2.1211,2.1211 2.1211,2.1211 2.1211,-2.1211 z m -7.0703,0 -2.1231,2.1211 2.1231,2.1211 2.1211,-2.1211 z m -7.0723,0 -2.1211,2.1211 2.1211,2.1211 2.1211,-2.1211 z m -7.0703,0 -2.1211,2.1211 2.1211,2.1211 2.1211,-2.1211 z m -7.0723,0 -2.1211,2.1211 2.1211,2.1211 2.1231,-2.1211 z m -7.0703,0 -2.1211,2.1211 2.1211,2.1211 2.1211,-2.1211 z m -7.0703,0 -2.1211,2.1211 2.1211,2.1211 2.1211,-2.1211 z m -7.0723,0 -2.1211,2.1211 2.1211,2.1211 2.1211,-2.1211 z m -7.0703,0 -2.1211,2.1211 2.1211,2.1211 2.1211,-2.1211 z m -7.0722,0 -2.1211,2.1211 2.1211,2.1211 2.123,-2.1211 z m 95.4609,3.5352 -2.1211,2.1211 2.1211,2.123 2.1211,-2.123 z m -7.0723,0 -2.1211,2.1211 2.1211,2.123 2.1211,-2.123 z m -7.0703,0 -2.1211,2.1211 2.1211,2.123 2.1211,-2.123 z m -7.0703,0 -2.123,2.1211 2.123,2.123 2.1211,-2.123 z m -7.0723,0 -2.1211,2.1211 2.1211,2.123 2.1211,-2.123 z m -7.0703,0 -2.1211,2.1211 2.1211,2.123 2.1211,-2.123 z m -7.0722,0 -2.1211,2.1211 2.1211,2.123 2.121,-2.123 z m -7.0704,0 -2.1211,2.1211 2.1211,2.123 2.1211,-2.123 z m -7.0703,0 -2.1211,2.1211 2.1211,2.123 2.1211,-2.123 z m -7.0722,0 -2.1211,2.1211 2.1211,2.123 2.1211,-2.123 z m -7.0703,0 -2.1211,2.1211 2.1211,2.123 2.121,-2.123 z m -7.0723,0 -2.1211,2.1211 2.1211,2.123 2.123,-2.123 z m -7.0703,0 -2.1211,2.1211 2.1211,2.123 2.1211,-2.123 z m -7.0703,0 -2.1211,2.1211 2.1211,2.123 2.1211,-2.123 z m 95.4589,3.5351 -2.121,2.1231 2.121,2.1211 2.1211,-2.1211 z m -7.0703,0 -2.123,2.1231 2.123,2.1211 2.1211,-2.1211 z m -7.0722,0 -2.1211,2.1231 2.1211,2.1211 2.1211,-2.1211 z m -7.0703,0 -2.1211,2.1231 2.1211,2.1211 2.121,-2.1211 z m -7.0723,0 -2.1211,2.1231 2.1211,2.1211 2.1211,-2.1211 z m -7.0703,0 -2.1211,2.1231 2.1211,2.1211 2.1211,-2.1211 z m -7.0703,0 -2.1231,2.1231 2.1231,2.1211 2.1211,-2.1211 z m -7.0723,0 -2.1211,2.1231 2.1211,2.1211 2.1211,-2.1211 z m -7.0703,0 -2.1211,2.1231 2.1211,2.1211 2.1211,-2.1211 z m -7.0723,0 -2.1211,2.1231 2.1211,2.1211 2.1231,-2.1211 z m -7.0703,0 -2.1211,2.1231 2.1211,2.1211 2.1211,-2.1211 z m -7.0703,0 -2.1211,2.1231 2.1211,2.1211 2.1211,-2.1211 z m -7.0723,0 -2.1211,2.1231 2.1211,2.1211 2.1211,-2.1211 z m -7.0703,0 -2.1211,2.1231 2.1211,2.1211 2.1211,-2.1211 z m -7.0722,0 -2.1211,2.1231 2.1211,2.1211 2.123,-2.1211 z m 95.4609,3.5372 -2.1211,2.121 2.1211,2.1211 2.1211,-2.1211 z m -7.0723,0 -2.1211,2.121 2.1211,2.1211 2.1211,-2.1211 z m -7.0703,0 -2.1211,2.121 2.1211,2.1211 2.1211,-2.1211 z m -7.0703,0 -2.123,2.121 2.123,2.1211 2.1211,-2.1211 z m -7.0723,0 -2.1211,2.121 2.1211,2.1211 2.1211,-2.1211 z m -7.0703,0 -2.1211,2.121 2.1211,2.1211 2.1211,-2.1211 z m -7.0722,0 -2.1211,2.121 2.1211,2.1211 2.121,-2.1211 z m -7.0704,0 -2.1211,2.121 2.1211,2.1211 2.1211,-2.1211 z m -7.0703,0 -2.1211,2.121 2.1211,2.1211 2.1211,-2.1211 z m -7.0722,0 -2.1211,2.121 2.1211,2.1211 2.1211,-2.1211 z m -7.0703,0 -2.1211,2.121 2.1211,2.1211 2.121,-2.1211 z m -7.0723,0 -2.1211,2.121 2.1211,2.1211 2.123,-2.1211 z m -7.0703,0 -2.1211,2.121 2.1211,2.1211 2.1211,-2.1211 z m -7.0703,0 -2.1211,2.121 2.1211,2.1211 2.1211,-2.1211 z m 95.4589,3.5351 -2.121,2.1211 2.121,2.1211 2.1211,-2.1211 z m -7.0703,0 -2.123,2.1211 2.123,2.1211 2.1211,-2.1211 z m -7.0722,0 -2.1211,2.1211 2.1211,2.1211 2.1211,-2.1211 z m -7.0703,0 -2.1211,2.1211 2.1211,2.1211 2.121,-2.1211 z m -7.0723,0 -2.1211,2.1211 2.1211,2.1211 2.1211,-2.1211 z m -7.0703,0 -2.1211,2.1211 2.1211,2.1211 2.1211,-2.1211 z m -7.0703,0 -2.1231,2.1211 2.1231,2.1211 2.1211,-2.1211 z m -7.0723,0 -2.1211,2.1211 2.1211,2.1211 2.1211,-2.1211 z m -7.0703,0 -2.1211,2.1211 2.1211,2.1211 2.1211,-2.1211 z m -7.0723,0 -2.1211,2.1211 2.1211,2.1211 2.1231,-2.1211 z m -7.0703,0 -2.1211,2.1211 2.1211,2.1211 2.1211,-2.1211 z m -7.0703,0 -2.1211,2.1211 2.1211,2.1211 2.1211,-2.1211 z m -7.0723,0 -2.1211,2.1211 2.1211,2.1211 2.1211,-2.1211 z m -7.0703,0 -2.1211,2.1211 2.1211,2.1211 2.1211,-2.1211 z m -7.0722,0 -2.1211,2.1211 2.1211,2.1211 2.123,-2.1211 z"
         transform="translate(4.2e-5)" />
      <rect
         style="fill:#008000;stroke:none;stroke-width:0.972546;stroke-linecap:square;stroke-dasharray:none;paint-order:markers stroke fill"
         id="rect12396-4"
         width="45"
         height="55"
         x="2072.7766"
         y="2298.7407"
         ry="0" />
      <path
         id="rect12396-4-2"
         style="display:inline;fill:url(#linearGradient16151);fill-opacity:1;stroke:none;stroke-width:0.972546;stroke-linecap:square;stroke-dasharray:none;paint-order:markers stroke fill"
         d="m 2117.2063,2298.7403 -0.8984,0.8984 1.4687,1.4688 v 4.1328 l -1.4687,1.4687 1.4687,1.4688 v 4.1328 l -1.4687,1.4707 1.4687,1.4687 v 4.1329 l -1.4687,1.4687 1.4687,1.4688 v 4.1328 l -1.4687,1.4687 1.4687,1.4688 v 4.1347 l -1.4687,1.4688 1.4687,1.4687 v 4.1329 l -1.4687,1.4687 1.4687,1.4688 v 4.1328 l -1.4687,1.4687 1.4687,1.4707 v 3.1348 h -1.8301 l 1.0684,-1.0684 -2.1211,-2.1211 -2.1231,2.1211 1.0704,1.0684 h -4.9668 l 1.0683,-1.0684 -2.1211,-2.1211 -2.1211,2.1211 1.0684,1.0684 h -4.9649 l 1.0684,-1.0684 -2.1211,-2.1211 -2.1211,2.1211 1.0684,1.0684 h -4.9668 l 1.0703,-1.0684 -2.1231,-2.1211 -2.121,2.1211 1.0683,1.0684 h -4.9648 l 1.0683,-1.0684 -2.1211,-2.1211 -2.1211,2.1211 1.0684,1.0684 h -4.9648 l 1.0683,-1.0684 -2.1211,-2.1211 -2.1211,2.1211 1.0684,1.0684 h -4.9668 l 1.0684,-1.0684 -1.8106,-1.8105 v -3.4512 l 1.8106,-1.8105 -1.8106,-1.8106 v -3.4492 l 1.8106,-1.8106 -1.8106,-1.8105 v -3.4492 l 1.8106,-1.8106 -1.8106,-1.8125 v -3.4492 l 1.8106,-1.8105 -1.8106,-1.8106 v -3.4492 l 1.8106,-1.8105 -1.8106,-1.8106 v -3.4512 l 1.8106,-1.8105 -1.8106,-1.8106 v -3.4492 l 1.8106,-1.8105 -1.8106,-1.8106 v -2.623 h 2.002 l -0.8985,0.8984 2.1231,2.1211 2.1211,-2.1211 -0.8985,-0.8984 h 4.625 l -0.8984,0.8984 2.1211,2.1211 2.1211,-2.1211 -0.8985,-0.8984 h 4.625 l -0.8984,0.8984 2.1211,2.1211 2.1211,-2.1211 -0.8985,-0.8984 h 4.627 l -0.8984,0.8984 2.1211,2.1211 2.1211,-2.1211 -0.8985,-0.8984 h 4.625 l -0.8984,0.8984 2.1211,2.1211 2.1211,-2.1211 -0.8985,-0.8984 h 4.625 l -0.8984,0.8984 2.1211,2.1211 2.123,-2.1211 -0.8984,-0.8984 z m -2.3125,2.3125 -2.1231,2.1211 2.1231,2.1211 2.1211,-2.1211 z m -7.0723,0 -2.1211,2.1211 2.1211,2.1211 2.1211,-2.1211 z m -7.0703,0 -2.1211,2.1211 2.1211,2.1211 2.1211,-2.1211 z m -7.0723,0 -2.121,2.1211 2.121,2.1211 2.1231,-2.1211 z m -7.0703,0 -2.1211,2.1211 2.1211,2.1211 2.1211,-2.1211 z m -7.0703,0 -2.1211,2.1211 2.1211,2.1211 2.1211,-2.1211 z m 31.8184,3.5351 -2.1211,2.1211 2.1211,2.1211 2.123,-2.1211 z m -7.0703,0 -2.1211,2.1211 2.1211,2.1211 2.1211,-2.1211 z m -7.0703,0 -2.1211,2.1211 2.1211,2.1211 2.1211,-2.1211 z m -7.0723,0 -2.1211,2.1211 2.1211,2.1211 2.1211,-2.1211 z m -7.0703,0 -2.1211,2.1211 2.1211,2.1211 2.1211,-2.1211 z m -7.0703,0 -2.1231,2.1211 2.1231,2.1211 2.1211,-2.1211 z m 38.8906,3.5352 -2.1231,2.1211 2.1231,2.1211 2.1211,-2.1211 z m -7.0723,0 -2.1211,2.1211 2.1211,2.1211 2.1211,-2.1211 z m -7.0703,0 -2.1211,2.1211 2.1211,2.1211 2.1211,-2.1211 z m -7.0723,0 -2.121,2.1211 2.121,2.1211 2.1231,-2.1211 z m -7.0703,0 -2.1211,2.1211 2.1211,2.1211 2.1211,-2.1211 z m -7.0703,0 -2.1211,2.1211 2.1211,2.1211 2.1211,-2.1211 z m 31.8184,3.5352 -2.1211,2.123 2.1211,2.1211 2.123,-2.1211 z m -7.0703,0 -2.1211,2.123 2.1211,2.1211 2.1211,-2.1211 z m -7.0703,0 -2.1211,2.123 2.1211,2.1211 2.1211,-2.1211 z m -7.0723,0 -2.1211,2.123 2.1211,2.1211 2.1211,-2.1211 z m -7.0703,0 -2.1211,2.123 2.1211,2.1211 2.1211,-2.1211 z m -7.0703,0 -2.1231,2.123 2.1231,2.1211 2.1211,-2.1211 z m 38.8906,3.5371 -2.1231,2.1211 2.1231,2.121 2.1211,-2.121 z m -7.0723,0 -2.1211,2.1211 2.1211,2.121 2.1211,-2.121 z m -7.0703,0 -2.1211,2.1211 2.1211,2.121 2.1211,-2.121 z m -7.0723,0 -2.121,2.1211 2.121,2.121 2.1231,-2.121 z m -7.0703,0 -2.1211,2.1211 2.1211,2.121 2.1211,-2.121 z m -7.0703,0 -2.1211,2.1211 2.1211,2.121 2.1211,-2.121 z m 31.8184,3.5351 -2.1211,2.1211 2.1211,2.1211 2.123,-2.1211 z m -7.0703,0 -2.1211,2.1211 2.1211,2.1211 2.1211,-2.1211 z m -7.0703,0 -2.1211,2.1211 2.1211,2.1211 2.1211,-2.1211 z m -7.0723,0 -2.1211,2.1211 2.1211,2.1211 2.1211,-2.1211 z m -7.0703,0 -2.1211,2.1211 2.1211,2.1211 2.1211,-2.1211 z m -7.0703,0 -2.1231,2.1211 2.1231,2.1211 2.1211,-2.1211 z m 38.8906,3.5352 -2.1231,2.1211 2.1231,2.1211 2.1211,-2.1211 z m -7.0723,0 -2.1211,2.1211 2.1211,2.1211 2.1211,-2.1211 z m -7.0703,0 -2.1211,2.1211 2.1211,2.1211 2.1211,-2.1211 z m -7.0723,0 -2.121,2.1211 2.121,2.1211 2.1231,-2.1211 z m -7.0703,0 -2.1211,2.1211 2.1211,2.1211 2.1211,-2.1211 z m -7.0703,0 -2.1211,2.1211 2.1211,2.1211 2.1211,-2.1211 z m 31.8184,3.5351 -2.1211,2.1211 2.1211,2.1211 2.123,-2.1211 z m -7.0703,0 -2.1211,2.1211 2.1211,2.1211 2.1211,-2.1211 z m -7.0703,0 -2.1211,2.1211 2.1211,2.1211 2.1211,-2.1211 z m -7.0723,0 -2.1211,2.1211 2.1211,2.1211 2.1211,-2.1211 z m -7.0703,0 -2.1211,2.1211 2.1211,2.1211 2.1211,-2.1211 z m -7.0703,0 -2.1231,2.1211 2.1231,2.1211 2.1211,-2.1211 z m 38.8906,3.5352 -2.1231,2.123 2.1231,2.1211 2.1211,-2.1211 z m -7.0723,0 -2.1211,2.123 2.1211,2.1211 2.1211,-2.1211 z m -7.0703,0 -2.1211,2.123 2.1211,2.1211 2.1211,-2.1211 z m -7.0723,0 -2.121,2.123 2.121,2.1211 2.1231,-2.1211 z m -7.0703,0 -2.1211,2.123 2.1211,2.1211 2.1211,-2.1211 z m -7.0703,0 -2.1211,2.123 2.1211,2.1211 2.1211,-2.1211 z m 31.8184,3.5371 -2.1211,2.1211 2.1211,2.1211 2.123,-2.1211 z m -7.0703,0 -2.1211,2.1211 2.1211,2.1211 2.1211,-2.1211 z m -7.0703,0 -2.1211,2.1211 2.1211,2.1211 2.1211,-2.1211 z m -7.0723,0 -2.1211,2.1211 2.1211,2.1211 2.1211,-2.1211 z m -7.0703,0 -2.1211,2.1211 2.1211,2.1211 2.1211,-2.1211 z m -7.0703,0 -2.1231,2.1211 2.1231,2.1211 2.1211,-2.1211 z m 38.8906,3.5352 -2.1231,2.121 2.1231,2.1211 2.1211,-2.1211 z m -7.0723,0 -2.1211,2.121 2.1211,2.1211 2.1211,-2.1211 z m -7.0703,0 -2.1211,2.121 2.1211,2.1211 2.1211,-2.1211 z m -7.0723,0 -2.121,2.121 2.121,2.1211 2.1231,-2.1211 z m -7.0703,0 -2.1211,2.121 2.1211,2.1211 2.1211,-2.1211 z m -7.0703,0 -2.1211,2.121 2.1211,2.1211 2.1211,-2.1211 z m 31.8184,3.5351 -2.1211,2.1211 2.1211,2.1211 2.123,-2.1211 z m -7.0703,0 -2.1211,2.1211 2.1211,2.1211 2.1211,-2.1211 z m -7.0703,0 -2.1211,2.1211 2.1211,2.1211 2.1211,-2.1211 z m -7.0723,0 -2.1211,2.1211 2.1211,2.1211 2.1211,-2.1211 z m -7.0703,0 -2.1211,2.1211 2.1211,2.1211 2.1211,-2.1211 z m -7.0703,0 -2.1231,2.1211 2.1231,2.1211 2.1211,-2.1211 z m 38.8906,3.5352 -2.1231,2.1211 2.1231,2.1211 2.1211,-2.1211 z m -7.0723,0 -2.1211,2.1211 2.1211,2.1211 2.1211,-2.1211 z m -7.0703,0 -2.1211,2.1211 2.1211,2.1211 2.1211,-2.1211 z m -7.0723,0 -2.121,2.1211 2.121,2.1211 2.1231,-2.1211 z m -7.0703,0 -2.1211,2.1211 2.1211,2.1211 2.1211,-2.1211 z m -7.0703,0 -2.1211,2.1211 2.1211,2.1211 2.1211,-2.1211 z m 31.8184,3.5351 -2.1211,2.1211 2.1211,2.1231 2.123,-2.1231 z m -7.0703,0 -2.1211,2.1211 2.1211,2.1231 2.1211,-2.1231 z m -7.0703,0 -2.1211,2.1211 2.1211,2.1231 2.1211,-2.1231 z m -7.0723,0 -2.1211,2.1211 2.1211,2.1231 2.1211,-2.1231 z m -7.0703,0 -2.1211,2.1211 2.1211,2.1231 2.1211,-2.1231 z m -7.0703,0 -2.1231,2.1211 2.1231,2.1231 2.1211,-2.1231 z"
         transform="translate(4.2e-5)" />
      <rect
         style="fill:#008000;stroke:none;stroke-width:1.62485;stroke-linecap:square;stroke-dasharray:none;paint-order:markers stroke fill"
         id="rect12396-1-1"
         width="45"
         height="153.52159"
         x="1916.1971"
         y="2400.2629" />
      <path
         id="rect12396-1-1-1"
         style="display:inline;fill:url(#linearGradient14683);fill-opacity:1;stroke:none;stroke-width:1.62485;stroke-linecap:square;stroke-dasharray:none;paint-order:markers stroke fill"
         d="m 1961.1976,2400.2634 v 1.6543 l -1.6543,-1.6543 z m -2.084,0 -1.9063,1.9062 2.1211,2.1231 1.8692,-1.8711 v 2.83 l -0.4551,0.4551 0.4551,0.4551 v 2.8281 l -1.8692,-1.8691 -2.1211,2.1211 2.1211,2.1211 1.8692,-1.8692 v 2.8282 l -0.4551,0.455 0.4551,0.4551 v 2.8281 l -1.8692,-1.8691 -2.1211,2.1211 2.1211,2.1211 1.8692,-1.8692 v 2.8282 l -0.4551,0.4551 0.4551,0.455 v 2.8301 l -1.8692,-1.8711 -2.1211,2.1231 2.1211,2.1211 1.8692,-1.8692 v 2.8281 l -0.4551,0.4551 0.4551,0.4551 v 2.8281 l -1.8692,-1.8691 -2.1211,2.1211 2.1211,2.1211 1.8692,-1.8692 v 2.8282 l -0.4551,0.455 0.4551,0.4551 v 2.8281 l -1.8692,-1.8691 -2.1211,2.1211 2.1211,2.1211 1.8692,-1.8692 v 2.8282 l -0.4551,0.455 0.4551,0.4551 v 2.8301 l -1.8692,-1.8691 -2.1211,2.1211 2.1211,2.121 1.8692,-1.8691 v 2.8281 l -0.4551,0.4551 0.4551,0.4551 v 2.8281 l -1.8692,-1.8691 -2.1211,2.1211 2.1211,2.1211 1.8692,-1.8692 v 2.8281 l -0.4551,0.4551 0.4551,0.4551 v 2.8281 l -1.8692,-1.8691 -2.1211,2.1211 2.1211,2.123 1.8692,-1.8711 v 2.8301 l -0.4551,0.4551 0.4551,0.4551 v 2.8281 l -1.8692,-1.8692 -2.1211,2.1211 2.1211,2.1211 1.8692,-1.8691 v 2.8281 l -0.4551,0.4551 0.4551,0.4551 v 2.8281 l -1.8692,-1.8691 -2.1211,2.1211 2.1211,2.121 1.8692,-1.8691 v 2.8281 l -0.4551,0.4551 0.4551,0.4551 v 2.8301 l -1.8692,-1.8692 -2.1211,2.1211 2.1211,2.1211 1.8692,-1.8691 v 2.8281 l -0.4551,0.4551 0.4551,0.4551 v 2.8281 l -1.8692,-1.8692 -2.1211,2.1211 2.1211,2.1211 1.8692,-1.8691 v 2.8281 l -0.4551,0.4551 0.4551,0.4551 v 2.8281 l -1.8692,-1.8691 -2.1211,2.121 2.1211,2.1211 1.8692,-1.8691 v 2.8301 l -0.4551,0.4551 0.4551,0.455 v 2.8282 l -1.8692,-1.8692 -2.1211,2.1211 2.1211,2.1211 1.8692,-1.8691 v 2.8281 l -0.4551,0.4551 0.4551,0.455 v 2.8282 l -1.8692,-1.8692 -2.1211,2.1211 2.1211,2.1211 1.8692,-1.8691 v 2.8281 l -0.4551,0.4551 0.4551,0.4551 v 2.83 l -1.8692,-1.8711 -2.1211,2.1231 2.1211,2.1211 1.8692,-1.8692 v 2.8282 l -0.4551,0.455 0.4551,0.4551 v 2.8281 l -1.8692,-1.8691 -2.1211,2.1211 2.1211,2.1211 1.8692,-1.8691 v 2.8281 l -0.4551,0.4551 0.4551,0.455 v 2.8282 l -1.8692,-1.8692 -2.1211,2.1211 2.1211,2.1211 1.8692,-1.8691 v 2.83 l -0.4551,0.4551 0.4551,0.4551 v 2.8281 l -1.8692,-1.8691 -2.1211,2.1211 2.1211,2.1211 1.8692,-1.8692 v 2.8282 l -0.4551,0.455 0.4551,0.4551 v 2.8281 l -1.8692,-1.8691 -2.1211,2.1211 2.1211,2.1211 1.8692,-1.8692 v 2.8282 l -0.4551,0.455 0.4551,0.4551 v 2.8301 l -1.8692,-1.8711 -2.1211,2.1231 2.1211,2.1211 1.8692,-1.8692 v 2.8281 l -0.041,0.041 h -3.6563 l -1.707,-1.7071 -1.707,1.7071 h -3.6563 l -1.709,-1.7071 -1.707,1.7071 h -3.6563 l -1.707,-1.7071 -1.707,1.7071 h -3.6563 l -1.707,-1.7071 -1.707,1.7071 h -3.6582 l -1.7071,-1.7071 -1.707,1.7071 h -3.6563 l -1.707,-1.7071 -1.707,1.7071 h -2.5332 v -1.7051 l 0.7051,0.7051 2.1211,-2.1211 -2.1211,-2.1231 -0.7051,0.7051 v -4.2383 l 0.7051,0.7051 2.1211,-2.1211 -2.1211,-2.1211 -0.7051,0.7051 v -4.2383 l 0.7051,0.7051 2.1211,-2.1211 -2.1211,-2.1211 -0.7051,0.7051 v -4.2403 l 0.7051,0.7051 2.1211,-2.1211 -2.1211,-2.1211 -0.7051,0.7051 v -4.2383 l 0.7051,0.7051 2.1211,-2.1211 -2.1211,-2.1211 -0.7051,0.7051 v -4.2383 l 0.7051,0.7051 2.1211,-2.1211 -2.1211,-2.1231 -0.7051,0.7051 v -4.2383 l 0.7051,0.7051 2.1211,-2.1211 -2.1211,-2.1211 -0.7051,0.7051 v -4.2383 l 0.7051,0.7051 2.1211,-2.1211 -2.1211,-2.1211 -0.7051,0.7051 v -4.2402 l 0.7051,0.705 2.1211,-2.1211 -2.1211,-2.121 -0.7051,0.705 v -4.2383 l 0.7051,0.7051 2.1211,-2.1211 -2.1211,-2.1211 -0.7051,0.7051 v -4.2383 l 0.7051,0.7051 2.1211,-2.1211 -2.1211,-2.1211 -0.7051,0.7051 v -4.2402 l 0.7051,0.705 2.1211,-2.121 -2.1211,-2.1211 -0.7051,0.705 v -4.2382 l 0.7051,0.705 2.1211,-2.1211 -2.1211,-2.1211 -0.7051,0.7051 v -4.2383 l 0.7051,0.7051 2.1211,-2.123 -2.1211,-2.1211 -0.7051,0.7051 v -4.2383 l 0.7051,0.7051 2.1211,-2.1211 -2.1211,-2.1211 -0.7051,0.705 v -4.2382 l 0.7051,0.705 2.1211,-2.121 -2.1211,-2.1211 -0.7051,0.705 v -4.2402 l 0.7051,0.7051 2.1211,-2.1211 -2.1211,-2.1211 -0.7051,0.7051 v -4.2383 l 0.7051,0.7051 2.1211,-2.1211 -2.1211,-2.1211 -0.7051,0.7051 v -4.2383 l 0.7051,0.7051 2.1211,-2.1211 -2.1211,-2.1231 -0.7051,0.7051 v -4.2383 l 0.7051,0.7051 2.1211,-2.1211 -2.1211,-2.1211 -0.7051,0.7051 v -4.2383 l 0.7051,0.7051 2.1211,-2.1211 -2.1211,-2.1211 -0.7051,0.7051 v -4.2383 l 0.7051,0.7051 2.1211,-2.1231 -1.9063,-1.9062 h 2.8281 l 0.4922,0.4922 0.4922,-0.4922 h 2.8281 l -1.9062,1.9062 2.1211,2.1231 2.1211,-2.1231 -1.9063,-1.9062 h 2.8281 l 0.4922,0.4922 0.4922,-0.4922 h 2.8301 l -1.9082,1.9062 2.123,2.1231 2.1211,-2.1231 -1.9062,-1.9062 h 2.8281 l 0.4922,0.4922 0.4922,-0.4922 h 2.8281 l -1.9062,1.9062 2.121,2.1231 2.1211,-2.1231 -1.9062,-1.9062 h 2.8281 l 0.4922,0.4922 0.4922,-0.4922 h 2.8281 l -1.9062,1.9062 2.1211,2.1231 2.1211,-2.1231 -1.9063,-1.9062 h 2.8281 l 0.4922,0.4922 0.4922,-0.4922 h 2.8301 l -1.9063,1.9062 2.1211,2.1231 2.1211,-2.1231 -1.9062,-1.9062 h 2.8281 l 0.4922,0.4922 0.4922,-0.4922 z m -42.4258,0 -0.4902,0.4902 v -0.4902 z m 39.1055,3.3203 -2.1211,2.123 2.1211,2.1211 2.1211,-2.1211 z m -7.0723,0 -2.1211,2.123 2.1211,2.1211 2.1231,-2.1211 z m -7.0703,0 -2.1211,2.123 2.1211,2.1211 2.1211,-2.1211 z m -7.0703,0 -2.1211,2.123 2.1211,2.1211 2.1211,-2.1211 z m -7.0723,0 -2.1211,2.123 2.1211,2.1211 2.1211,-2.1211 z m -7.0703,0 -2.1211,2.123 2.1211,2.1211 2.1211,-2.1211 z m 31.8203,3.5371 -2.1211,2.1211 2.1211,2.1211 2.1211,-2.1211 z m -7.0722,0 -2.1211,2.1211 2.1211,2.1211 2.1211,-2.1211 z m -7.0704,0 -2.121,2.1211 2.121,2.1211 2.1211,-2.1211 z m -7.0703,0 -2.123,2.1211 2.123,2.1211 2.1211,-2.1211 z m -7.0722,0 -2.1211,2.1211 2.1211,2.1211 2.1211,-2.1211 z m 31.8203,3.5351 -2.1211,2.1211 2.1211,2.1211 2.1211,-2.1211 z m -7.0723,0 -2.1211,2.1211 2.1211,2.1211 2.1231,-2.1211 z m -7.0703,0 -2.1211,2.1211 2.1211,2.1211 2.1211,-2.1211 z m -7.0703,0 -2.1211,2.1211 2.1211,2.1211 2.1211,-2.1211 z m -7.0723,0 -2.1211,2.1211 2.1211,2.1211 2.1211,-2.1211 z m -7.0703,0 -2.1211,2.1211 2.1211,2.1211 2.1211,-2.1211 z m 31.8203,3.5352 -2.1211,2.1211 2.1211,2.1211 2.1211,-2.1211 z m -7.0722,0 -2.1211,2.1211 2.1211,2.1211 2.1211,-2.1211 z m -7.0704,0 -2.121,2.1211 2.121,2.1211 2.1211,-2.1211 z m -7.0703,0 -2.123,2.1211 2.123,2.1211 2.1211,-2.1211 z m -7.0722,0 -2.1211,2.1211 2.1211,2.1211 2.1211,-2.1211 z m 31.8203,3.5352 -2.1211,2.1211 2.1211,2.121 2.1211,-2.121 z m -7.0723,0 -2.1211,2.1211 2.1211,2.121 2.1231,-2.121 z m -7.0703,0 -2.1211,2.1211 2.1211,2.121 2.1211,-2.121 z m -7.0703,0 -2.1211,2.1211 2.1211,2.121 2.1211,-2.121 z m -7.0723,0 -2.1211,2.1211 2.1211,2.121 2.1211,-2.121 z m -7.0703,0 -2.1211,2.1211 2.1211,2.121 2.1211,-2.121 z m 31.8203,3.5351 -2.1211,2.1231 2.1211,2.1211 2.1211,-2.1211 z m -7.0722,0 -2.1211,2.1231 2.1211,2.1211 2.1211,-2.1211 z m -7.0704,0 -2.121,2.1231 2.121,2.1211 2.1211,-2.1211 z m -7.0703,0 -2.123,2.1231 2.123,2.1211 2.1211,-2.1211 z m -7.0722,0 -2.1211,2.1231 2.1211,2.1211 2.1211,-2.1211 z m 31.8203,3.5371 -2.1211,2.1211 2.1211,2.1211 2.1211,-2.1211 z m -7.0723,0 -2.1211,2.1211 2.1211,2.1211 2.1231,-2.1211 z m -7.0703,0 -2.1211,2.1211 2.1211,2.1211 2.1211,-2.1211 z m -7.0703,0 -2.1211,2.1211 2.1211,2.1211 2.1211,-2.1211 z m -7.0723,0 -2.1211,2.1211 2.1211,2.1211 2.1211,-2.1211 z m -7.0703,0 -2.1211,2.1211 2.1211,2.1211 2.1211,-2.1211 z m 31.8203,3.5352 -2.1211,2.1211 2.1211,2.1211 2.1211,-2.1211 z m -7.0722,0 -2.1211,2.1211 2.1211,2.1211 2.1211,-2.1211 z m -7.0704,0 -2.121,2.1211 2.121,2.1211 2.1211,-2.1211 z m -7.0703,0 -2.123,2.1211 2.123,2.1211 2.1211,-2.1211 z m -7.0722,0 -2.1211,2.1211 2.1211,2.1211 2.1211,-2.1211 z m 31.8203,3.5351 -2.1211,2.1211 2.1211,2.1211 2.1211,-2.1211 z m -7.0723,0 -2.1211,2.1211 2.1211,2.1211 2.1231,-2.1211 z m -7.0703,0 -2.1211,2.1211 2.1211,2.1211 2.1211,-2.1211 z m -7.0703,0 -2.1211,2.1211 2.1211,2.1211 2.1211,-2.1211 z m -7.0723,0 -2.1211,2.1211 2.1211,2.1211 2.1211,-2.1211 z m -7.0703,0 -2.1211,2.1211 2.1211,2.1211 2.1211,-2.1211 z m 31.8203,3.5352 -2.1211,2.1211 2.1211,2.1211 2.1211,-2.1211 z m -7.0722,0 -2.1211,2.1211 2.1211,2.1211 2.1211,-2.1211 z m -7.0704,0 -2.121,2.1211 2.121,2.1211 2.1211,-2.1211 z m -7.0703,0 -2.123,2.1211 2.123,2.1211 2.1211,-2.1211 z m -7.0722,0 -2.1211,2.1211 2.1211,2.1211 2.1211,-2.1211 z m 31.8203,3.5351 -2.1211,2.1211 2.1211,2.1231 2.1211,-2.1231 z m -7.0723,0 -2.1211,2.1211 2.1211,2.1231 2.1231,-2.1231 z m -7.0703,0 -2.1211,2.1211 2.1211,2.1231 2.1211,-2.1231 z m -7.0703,0 -2.1211,2.1211 2.1211,2.1231 2.1211,-2.1231 z m -7.0723,0 -2.1211,2.1211 2.1211,2.1231 2.1211,-2.1231 z m -7.0703,0 -2.1211,2.1211 2.1211,2.1231 2.1211,-2.1231 z m 31.8203,3.5372 -2.1211,2.1211 2.1211,2.121 2.1211,-2.121 z m -7.0722,0 -2.1211,2.1211 2.1211,2.121 2.1211,-2.121 z m -7.0704,0 -2.121,2.1211 2.121,2.121 2.1211,-2.121 z m -7.0703,0 -2.123,2.1211 2.123,2.121 2.1211,-2.121 z m -7.0722,0 -2.1211,2.1211 2.1211,2.121 2.1211,-2.121 z m 31.8203,3.5351 -2.1211,2.1211 2.1211,2.1211 2.1211,-2.1211 z m -7.0723,0 -2.1211,2.1211 2.1211,2.1211 2.1231,-2.1211 z m -7.0703,0 -2.1211,2.1211 2.1211,2.1211 2.1211,-2.1211 z m -7.0703,0 -2.1211,2.1211 2.1211,2.1211 2.1211,-2.1211 z m -7.0723,0 -2.1211,2.1211 2.1211,2.1211 2.1211,-2.1211 z m -7.0703,0 -2.1211,2.1211 2.1211,2.1211 2.1211,-2.1211 z m 31.8203,3.5352 -2.1211,2.1211 2.1211,2.1211 2.1211,-2.1211 z m -7.0722,0 -2.1211,2.1211 2.1211,2.1211 2.1211,-2.1211 z m -7.0704,0 -2.121,2.1211 2.121,2.1211 2.1211,-2.1211 z m -7.0703,0 -2.123,2.1211 2.123,2.1211 2.1211,-2.1211 z m -7.0722,0 -2.1211,2.1211 2.1211,2.1211 2.1211,-2.1211 z m 31.8203,3.5351 -2.1211,2.1211 2.1211,2.1211 2.1211,-2.1211 z m -7.0723,0 -2.1211,2.1211 2.1211,2.1211 2.1231,-2.1211 z m -7.0703,0 -2.1211,2.1211 2.1211,2.1211 2.1211,-2.1211 z m -7.0703,0 -2.1211,2.1211 2.1211,2.1211 2.1211,-2.1211 z m -7.0723,0 -2.1211,2.1211 2.1211,2.1211 2.1211,-2.1211 z m -7.0703,0 -2.1211,2.1211 2.1211,2.1211 2.1211,-2.1211 z m 31.8203,3.5352 -2.1211,2.1211 2.1211,2.123 2.1211,-2.123 z m -7.0722,0 -2.1211,2.1211 2.1211,2.123 2.1211,-2.123 z m -7.0704,0 -2.121,2.1211 2.121,2.123 2.1211,-2.123 z m -7.0703,0 -2.123,2.1211 2.123,2.123 2.1211,-2.123 z m -7.0722,0 -2.1211,2.1211 2.1211,2.123 2.1211,-2.123 z m 31.8203,3.5371 -2.1211,2.1211 2.1211,2.1211 2.1211,-2.1211 z m -7.0723,0 -2.1211,2.1211 2.1211,2.1211 2.1231,-2.1211 z m -7.0703,0 -2.1211,2.1211 2.1211,2.1211 2.1211,-2.1211 z m -7.0703,0 -2.1211,2.1211 2.1211,2.1211 2.1211,-2.1211 z m -7.0723,0 -2.1211,2.1211 2.1211,2.1211 2.1211,-2.1211 z m -7.0703,0 -2.1211,2.1211 2.1211,2.1211 2.1211,-2.1211 z m 31.8203,3.5351 -2.1211,2.1211 2.1211,2.1211 2.1211,-2.1211 z m -7.0722,0 -2.1211,2.1211 2.1211,2.1211 2.1211,-2.1211 z m -7.0704,0 -2.121,2.1211 2.121,2.1211 2.1211,-2.1211 z m -7.0703,0 -2.123,2.1211 2.123,2.1211 2.1211,-2.1211 z m -7.0722,0 -2.1211,2.1211 2.1211,2.1211 2.1211,-2.1211 z m 31.8203,3.5352 -2.1211,2.1211 2.1211,2.1211 2.1211,-2.1211 z m -7.0723,0 -2.1211,2.1211 2.1211,2.1211 2.1231,-2.1211 z m -7.0703,0 -2.1211,2.1211 2.1211,2.1211 2.1211,-2.1211 z m -7.0703,0 -2.1211,2.1211 2.1211,2.1211 2.1211,-2.1211 z m -7.0723,0 -2.1211,2.1211 2.1211,2.1211 2.1211,-2.1211 z m -7.0703,0 -2.1211,2.1211 2.1211,2.1211 2.1211,-2.1211 z m 31.8203,3.5352 -2.1211,2.1211 2.1211,2.121 2.1211,-2.121 z m -7.0722,0 -2.1211,2.1211 2.1211,2.121 2.1211,-2.121 z m -7.0704,0 -2.121,2.1211 2.121,2.121 2.1211,-2.121 z m -7.0703,0 -2.123,2.1211 2.123,2.121 2.1211,-2.121 z m -7.0722,0 -2.1211,2.1211 2.1211,2.121 2.1211,-2.121 z m 31.8203,3.5351 -2.1211,2.1211 2.1211,2.1231 2.1211,-2.1231 z m -7.0723,0 -2.1211,2.1211 2.1211,2.1231 2.1231,-2.1231 z m -7.0703,0 -2.1211,2.1211 2.1211,2.1231 2.1211,-2.1231 z m -7.0703,0 -2.1211,2.1211 2.1211,2.1231 2.1211,-2.1231 z m -7.0723,0 -2.1211,2.1211 2.1211,2.1231 2.1211,-2.1231 z m -7.0703,0 -2.1211,2.1211 2.1211,2.1231 2.1211,-2.1231 z m 31.8203,3.5371 -2.1211,2.1211 2.1211,2.1211 2.1211,-2.1211 z m -7.0722,0 -2.1211,2.1211 2.1211,2.1211 2.1211,-2.1211 z m -7.0704,0 -2.121,2.1211 2.121,2.1211 2.1211,-2.1211 z m -7.0703,0 -2.123,2.1211 2.123,2.1211 2.1211,-2.1211 z m -7.0722,0 -2.1211,2.1211 2.1211,2.1211 2.1211,-2.1211 z m 31.8203,3.5352 -2.1211,2.1211 2.1211,2.1211 2.1211,-2.1211 z m -7.0723,0 -2.1211,2.1211 2.1211,2.1211 2.1231,-2.1211 z m -7.0703,0 -2.1211,2.1211 2.1211,2.1211 2.1211,-2.1211 z m -7.0703,0 -2.1211,2.1211 2.1211,2.1211 2.1211,-2.1211 z m -7.0723,0 -2.1211,2.1211 2.1211,2.1211 2.1211,-2.1211 z m -7.0703,0 -2.1211,2.1211 2.1211,2.1211 2.1211,-2.1211 z m 31.8203,3.5351 -2.1211,2.1211 2.1211,2.1211 2.1211,-2.1211 z m -7.0722,0 -2.1211,2.1211 2.1211,2.1211 2.1211,-2.1211 z m -7.0704,0 -2.121,2.1211 2.121,2.1211 2.1211,-2.1211 z m -7.0703,0 -2.123,2.1211 2.123,2.1211 2.1211,-2.1211 z m -7.0722,0 -2.1211,2.1211 2.1211,2.1211 2.1211,-2.1211 z m 31.8203,3.5352 -2.1211,2.1211 2.1211,2.1211 2.1211,-2.1211 z m -7.0723,0 -2.1211,2.1211 2.1211,2.1211 2.1231,-2.1211 z m -7.0703,0 -2.1211,2.1211 2.1211,2.1211 2.1211,-2.1211 z m -7.0703,0 -2.1211,2.1211 2.1211,2.1211 2.1211,-2.1211 z m -7.0723,0 -2.1211,2.1211 2.1211,2.1211 2.1211,-2.1211 z m -7.0703,0 -2.1211,2.1211 2.1211,2.1211 2.1211,-2.1211 z m 31.8203,3.5352 -2.1211,2.121 2.1211,2.1211 2.1211,-2.1211 z m -7.0722,0 -2.1211,2.121 2.1211,2.1211 2.1211,-2.1211 z m -7.0704,0 -2.121,2.121 2.121,2.1211 2.1211,-2.1211 z m -7.0703,0 -2.123,2.121 2.123,2.1211 2.1211,-2.1211 z m -7.0722,0 -2.1211,2.121 2.1211,2.1211 2.1211,-2.1211 z m 31.8203,3.5351 -2.1211,2.1231 2.1211,2.121 2.1211,-2.121 z m -7.0723,0 -2.1211,2.1231 2.1211,2.121 2.1231,-2.121 z m -7.0703,0 -2.1211,2.1231 2.1211,2.121 2.1211,-2.121 z m -7.0703,0 -2.1211,2.1231 2.1211,2.121 2.1211,-2.121 z m -7.0723,0 -2.1211,2.1231 2.1211,2.121 2.1211,-2.121 z m -7.0703,0 -2.1211,2.1231 2.1211,2.121 2.1211,-2.121 z m 31.8203,3.5371 -2.1211,2.1211 2.1211,2.1211 2.1211,-2.1211 z m -7.0722,0 -2.1211,2.1211 2.1211,2.1211 2.1211,-2.1211 z m -7.0704,0 -2.121,2.1211 2.121,2.1211 2.1211,-2.1211 z m -7.0703,0 -2.123,2.1211 2.123,2.1211 2.1211,-2.1211 z m -7.0722,0 -2.1211,2.1211 2.1211,2.1211 2.1211,-2.1211 z m 31.8203,3.5352 -2.1211,2.1211 2.1211,2.1211 2.1211,-2.1211 z m -7.0723,0 -2.1211,2.1211 2.1211,2.1211 2.1231,-2.1211 z m -7.0703,0 -2.1211,2.1211 2.1211,2.1211 2.1211,-2.1211 z m -7.0703,0 -2.1211,2.1211 2.1211,2.1211 2.1211,-2.1211 z m -7.0723,0 -2.1211,2.1211 2.1211,2.1211 2.1211,-2.1211 z m -7.0703,0 -2.1211,2.1211 2.1211,2.1211 2.1211,-2.1211 z m 31.8203,3.5351 -2.1211,2.1211 2.1211,2.1211 2.1211,-2.1211 z m -7.0722,0 -2.1211,2.1211 2.1211,2.1211 2.1211,-2.1211 z m -7.0704,0 -2.121,2.1211 2.121,2.1211 2.1211,-2.1211 z m -7.0703,0 -2.123,2.1211 2.123,2.1211 2.1211,-2.1211 z m -7.0722,0 -2.1211,2.1211 2.1211,2.1211 2.1211,-2.1211 z m 31.8203,3.5352 -2.1211,2.1211 2.1211,2.1211 2.1211,-2.1211 z m -7.0723,0 -2.1211,2.1211 2.1211,2.1211 2.1231,-2.1211 z m -7.0703,0 -2.1211,2.1211 2.1211,2.1211 2.1211,-2.1211 z m -7.0703,0 -2.1211,2.1211 2.1211,2.1211 2.1211,-2.1211 z m -7.0723,0 -2.1211,2.1211 2.1211,2.1211 2.1211,-2.1211 z m -7.0703,0 -2.1211,2.1211 2.1211,2.1211 2.1211,-2.1211 z m 31.8203,3.5351 -2.1211,2.1231 2.1211,2.1211 2.1211,-2.1211 z m -7.0722,0 -2.1211,2.1231 2.1211,2.1211 2.1211,-2.1211 z m -7.0704,0 -2.121,2.1231 2.121,2.1211 2.1211,-2.1211 z m -7.0703,0 -2.123,2.1231 2.123,2.1211 2.1211,-2.1211 z m -7.0722,0 -2.1211,2.1231 2.1211,2.1211 2.1211,-2.1211 z m 31.8203,3.5372 -2.1211,2.121 2.1211,2.1211 2.1211,-2.1211 z m -7.0723,0 -2.1211,2.121 2.1211,2.1211 2.1231,-2.1211 z m -7.0703,0 -2.1211,2.121 2.1211,2.1211 2.1211,-2.1211 z m -7.0703,0 -2.1211,2.121 2.1211,2.1211 2.1211,-2.1211 z m -7.0723,0 -2.1211,2.121 2.1211,2.1211 2.1211,-2.1211 z m -7.0703,0 -2.1211,2.121 2.1211,2.1211 2.1211,-2.1211 z m 31.8203,3.5351 -2.1211,2.1211 2.1211,2.1211 2.1211,-2.1211 z m -7.0722,0 -2.1211,2.1211 2.1211,2.1211 2.1211,-2.1211 z m -7.0704,0 -2.121,2.1211 2.121,2.1211 2.1211,-2.1211 z m -7.0703,0 -2.123,2.1211 2.123,2.1211 2.1211,-2.1211 z m -7.0722,0 -2.1211,2.1211 2.1211,2.1211 2.1211,-2.1211 z m 31.8203,3.5352 -2.1211,2.1211 2.1211,2.1211 2.1211,-2.1211 z m -7.0723,0 -2.1211,2.1211 2.1211,2.1211 2.1231,-2.1211 z m -7.0703,0 -2.1211,2.1211 2.1211,2.1211 2.1211,-2.1211 z m -7.0703,0 -2.1211,2.1211 2.1211,2.1211 2.1211,-2.1211 z m -7.0723,0 -2.1211,2.1211 2.1211,2.1211 2.1211,-2.1211 z m -7.0703,0 -2.1211,2.1211 2.1211,2.1211 2.1211,-2.1211 z m 31.8203,3.5351 -2.1211,2.1211 2.1211,2.1211 2.1211,-2.1211 z m -7.0722,0 -2.1211,2.1211 2.1211,2.1211 2.1211,-2.1211 z m -7.0704,0 -2.121,2.1211 2.121,2.1211 2.1211,-2.1211 z m -7.0703,0 -2.123,2.1211 2.123,2.1211 2.1211,-2.1211 z m -7.0722,0 -2.1211,2.1211 2.1211,2.1211 2.1211,-2.1211 z m 31.8203,3.5352 -2.1211,2.123 2.1211,2.1211 2.1211,-2.1211 z m -7.0723,0 -2.1211,2.123 2.1211,2.1211 2.1231,-2.1211 z m -7.0703,0 -2.1211,2.123 2.1211,2.1211 2.1211,-2.1211 z m -7.0703,0 -2.1211,2.123 2.1211,2.1211 2.1211,-2.1211 z m -7.0723,0 -2.1211,2.123 2.1211,2.1211 2.1211,-2.1211 z m -7.0703,0 -2.1211,2.123 2.1211,2.1211 2.1211,-2.1211 z m 31.8203,3.5371 -2.1211,2.1211 2.1211,2.1211 2.1211,-2.1211 z m -7.0722,0 -2.1211,2.1211 2.1211,2.1211 2.1211,-2.1211 z m -7.0704,0 -2.121,2.1211 2.121,2.1211 2.1211,-2.1211 z m -7.0703,0 -2.123,2.1211 2.123,2.1211 2.1211,-2.1211 z m -7.0722,0 -2.1211,2.1211 2.1211,2.1211 2.1211,-2.1211 z m 31.8203,3.5351 -2.1211,2.1211 2.1211,2.1211 2.1211,-2.1211 z m -7.0723,0 -2.1211,2.1211 2.1211,2.1211 2.1231,-2.1211 z m -7.0703,0 -2.1211,2.1211 2.1211,2.1211 2.1211,-2.1211 z m -7.0703,0 -2.1211,2.1211 2.1211,2.1211 2.1211,-2.1211 z m -7.0723,0 -2.1211,2.1211 2.1211,2.1211 2.1211,-2.1211 z m -7.0703,0 -2.1211,2.1211 2.1211,2.1211 2.1211,-2.1211 z m 31.8203,3.5352 -2.1211,2.1211 2.1211,2.1211 2.1211,-2.1211 z m -7.0722,0 -2.1211,2.1211 2.1211,2.1211 2.1211,-2.1211 z m -7.0704,0 -2.121,2.1211 2.121,2.1211 2.1211,-2.1211 z m -7.0703,0 -2.123,2.1211 2.123,2.1211 2.1211,-2.1211 z m -7.0722,0 -2.1211,2.1211 2.1211,2.1211 2.1211,-2.1211 z m 31.8203,3.5352 -2.1211,2.121 2.1211,2.1211 2.1211,-2.1211 z m -7.0723,0 -2.1211,2.121 2.1211,2.1211 2.1231,-2.1211 z m -7.0703,0 -2.1211,2.121 2.1211,2.1211 2.1211,-2.1211 z m -7.0703,0 -2.1211,2.121 2.1211,2.1211 2.1211,-2.1211 z m -7.0723,0 -2.1211,2.121 2.1211,2.1211 2.1211,-2.1211 z m -7.0703,0 -2.1211,2.121 2.1211,2.1211 2.1211,-2.1211 z m 31.8203,3.5351 -2.1211,2.1231 2.1211,2.1211 2.1211,-2.1211 z m -7.0722,0 -2.1211,2.1231 2.1211,2.1211 2.1211,-2.1211 z m -7.0704,0 -2.121,2.1231 2.121,2.1211 2.1211,-2.1211 z m -7.0703,0 -2.123,2.1231 2.123,2.1211 2.1211,-2.1211 z m -7.0722,0 -2.1211,2.1231 2.1211,2.1211 2.1211,-2.1211 z"
         transform="translate(4.2e-5)" />
      <rect
         style="fill:url(#linearGradient16704);fill-opacity:1;stroke:none;stroke-width:1.08632;stroke-linecap:square;stroke-dasharray:none;paint-order:markers stroke fill"
         id="rect12394-59"
         width="52"
         height="52"
         x="2069.2766"
         y="2350.8154"
         inkscape:label="elbow-right" />
      <rect
         style="fill:url(#linearGradient16706);fill-opacity:1;stroke:none;stroke-width:1.08632;stroke-linecap:square;stroke-dasharray:none;paint-order:markers stroke fill"
         id="rect12394-5-9"
         width="52"
         height="52"
         x="1912.6971"
         y="2350.8154"
         inkscape:label="elbow-left" />
    </g>
  </g>
</svg>
