<?xml version="1.0" encoding="UTF-8" standalone="no"?>
<!-- Created with Inkscape (http://www.inkscape.org/) -->

<svg
   width="362.64722"
   height="152.10512"
   viewBox="0 0 362.64722 152.10512"
   version="1.1"
   id="svg19086"
   inkscape:version="1.2.2 (732a01da63, 2022-12-09)"
   sodipodi:docname="hose-1.svg"
   xmlns:inkscape="http://www.inkscape.org/namespaces/inkscape"
   xmlns:sodipodi="http://sodipodi.sourceforge.net/DTD/sodipodi-0.dtd"
   xmlns:xlink="http://www.w3.org/1999/xlink"
   xmlns="http://www.w3.org/2000/svg"
   xmlns:svg="http://www.w3.org/2000/svg">
  <sodipodi:namedview
     id="namedview19088"
     pagecolor="#ffffff"
     bordercolor="#000000"
     borderopacity="0.25"
     inkscape:showpageshadow="2"
     inkscape:pageopacity="0.0"
     inkscape:pagecheckerboard="0"
     inkscape:deskcolor="#d1d1d1"
     inkscape:document-units="px"
     showgrid="false"
     inkscape:zoom="0.914906"
     inkscape:cx="289.64724"
     inkscape:cy="122.96345"
     inkscape:window-width="1278"
     inkscape:window-height="1360"
     inkscape:window-x="-7"
     inkscape:window-y="0"
     inkscape:window-maximized="0"
     inkscape:current-layer="layer1" />
  <defs
     id="defs19083">
    <linearGradient
       inkscape:collect="always"
       xlink:href="#linearGradient18505"
       id="linearGradient18507"
       x1="1941.9727"
       y1="2403.405"
       x2="1941.9727"
       y2="2360.363"
       gradientUnits="userSpaceOnUse" />
    <linearGradient
       inkscape:collect="always"
       id="linearGradient18505">
      <stop
         style="stop-color:#989898;stop-opacity:1;"
         offset="0.05144694"
         id="stop18501" />
      <stop
         style="stop-color:#d0d0d0;stop-opacity:1;"
         offset="0.25241157"
         id="stop18509" />
      <stop
         style="stop-color:#afafaf;stop-opacity:1;"
         offset="0.41237941"
         id="stop18511" />
      <stop
         style="stop-color:#9c9c9c;stop-opacity:1;"
         offset="0.62419611"
         id="stop18513" />
      <stop
         style="stop-color:#8c8c8c;stop-opacity:1;"
         offset="0.7799437"
         id="stop18515" />
      <stop
         style="stop-color:#b3b3b3;stop-opacity:1;"
         offset="0.94533759"
         id="stop18503" />
    </linearGradient>
    <linearGradient
       inkscape:collect="always"
       xlink:href="#linearGradient18521"
       id="linearGradient18523"
       x1="2074.3594"
       y1="2328.3857"
       x2="2119.3594"
       y2="2328.3857"
       gradientUnits="userSpaceOnUse" />
    <linearGradient
       inkscape:collect="always"
       id="linearGradient18521">
      <stop
         style="stop-color:#989898;stop-opacity:1;"
         offset="0.05466238"
         id="stop18517" />
      <stop
         style="stop-color:#d0d0d0;stop-opacity:1;"
         offset="0.24919614"
         id="stop18525" />
      <stop
         style="stop-color:#afafaf;stop-opacity:1;"
         offset="0.40916398"
         id="stop18527" />
      <stop
         style="stop-color:#9c9c9c;stop-opacity:1;"
         offset="0.62419611"
         id="stop18529" />
      <stop
         style="stop-color:#8c8c8c;stop-opacity:1;"
         offset="0.78315914"
         id="stop18531" />
      <stop
         style="stop-color:#b3b3b3;stop-opacity:1;"
         offset="0.95176852"
         id="stop18519" />
    </linearGradient>
    <linearGradient
       inkscape:collect="always"
       xlink:href="#linearGradient17757"
       id="linearGradient17759"
       x1="1763.7114"
       y1="2425.4895"
       x2="1808.7114"
       y2="2425.4895"
       gradientUnits="userSpaceOnUse" />
    <linearGradient
       inkscape:collect="always"
       id="linearGradient17757">
      <stop
         style="stop-color:#989898;stop-opacity:1;"
         offset="0.05144697"
         id="stop17755" />
      <stop
         style="stop-color:#d0d0d0;stop-opacity:1;"
         offset="0.2200563"
         id="stop17767" />
      <stop
         style="stop-color:#afafaf;stop-opacity:1;"
         offset="0.37580389"
         id="stop17765" />
      <stop
         style="stop-color:#9c9c9c;stop-opacity:1;"
         offset="0.58762059"
         id="stop17763" />
      <stop
         style="stop-color:#8c8c8c;stop-opacity:1;"
         offset="0.75080386"
         id="stop17761" />
      <stop
         style="stop-color:#b3b3b3;stop-opacity:1;"
         offset="0.94855306"
         id="stop17753" />
    </linearGradient>
    <linearGradient
       inkscape:collect="always"
       xlink:href="#linearGradient16079"
       id="linearGradient16139"
       gradientUnits="userSpaceOnUse"
       x1="2070.8589"
       y1="2381.7415"
       x2="2122.8589"
       y2="2381.7415"
       gradientTransform="translate(-310.64716,-2.0734375e-5)" />
    <linearGradient
       inkscape:collect="always"
       id="linearGradient16079">
      <stop
         style="stop-color:#b3b3b3;stop-opacity:1;"
         offset="0.08"
         id="stop16075" />
      <stop
         style="stop-color:#828282;stop-opacity:1;"
         offset="0.25"
         id="stop16083" />
      <stop
         style="stop-color:#9c9c9c;stop-opacity:1;"
         offset="0.41"
         id="stop16085" />
      <stop
         style="stop-color:#afafaf;stop-opacity:1;"
         offset="0.62"
         id="stop16087" />
      <stop
         style="stop-color:#d0d0d0;stop-opacity:1;"
         offset="0.77999997"
         id="stop16089" />
      <stop
         style="stop-color:#989898;stop-opacity:1;"
         offset="0.94999999"
         id="stop16077" />
    </linearGradient>
    <linearGradient
       inkscape:collect="always"
       xlink:href="#linearGradient16079"
       id="linearGradient16081"
       x1="2070.8589"
       y1="2381.7415"
       x2="2122.8589"
       y2="2381.7415"
       gradientUnits="userSpaceOnUse" />
  </defs>
  <g
     inkscape:label="Layer 1"
     inkscape:groupmode="layer"
     id="layer1"
     transform="translate(-107.23067,-438.75438)">
    <g
       id="hose-1"
       transform="translate(-1652.981,-1862.1299)">
      <rect
         style="fill:#008000;stroke:none;stroke-width:2.11988;stroke-linecap:square;stroke-dasharray:none;paint-order:markers stroke fill"
         id="rect12396-8"
         width="45"
         height="261.31641"
         x="2359.2415"
         y="-2072.2385"
         transform="rotate(90)"
         inkscape:label="rect12396-8" />
      <path
         id="rect12396-8-9"
         style="fill:url(#linearGradient18507);fill-opacity:1;stroke:none;stroke-width:2.11988;stroke-linecap:square;stroke-dasharray:none;paint-order:markers stroke fill"
         inkscape:label="rect12396-8"
         d="m 1810.9224,2359.2414 v 2.6582 l 0.4687,0.4687 -0.4687,0.4688 v 2.8281 l 1.8828,-1.8828 2.1211,2.1211 -2.1211,2.1211 -1.8828,-1.8828 v 2.8281 l 0.4687,0.4688 -0.4687,0.4687 v 2.8301 l 1.8828,-1.8828 2.1211,2.1211 -2.1211,2.1211 -1.8828,-1.8829 v 2.8282 l 0.4687,0.4687 -0.4687,0.4688 v 2.8281 l 1.8828,-1.8828 2.1211,2.1211 -2.1211,2.1211 -1.8828,-1.8828 v 2.8281 l 0.4687,0.4687 -0.4687,0.4688 v 2.8281 l 1.8828,-1.8828 2.1211,2.1211 -2.1211,2.123 -1.8828,-1.8847 v 2.83 l 0.4687,0.4688 -0.4687,0.4687 v 2.8282 l 1.8828,-1.8828 2.1211,2.1211 -2.1211,2.121 -1.8828,-1.8828 v 2.8282 l 0.4687,0.4687 -0.4687,0.4688 v 2.8281 l 1.8828,-1.8828 2.1211,2.1211 -2.1211,2.1211 -1.8828,-1.8829 v 2.7442 h 3.8496 l 1.5683,-1.5684 1.5684,1.5684 h 3.9336 l 1.5703,-1.5684 1.5684,1.5684 h 3.9336 l 1.5683,-1.5684 1.5684,1.5684 h 3.9336 l 1.5683,-1.5684 1.5684,1.5684 h 3.9355 l 1.5684,-1.5684 1.5684,1.5684 h 3.9336 l 1.5683,-1.5684 1.5684,1.5684 h 3.9336 l 1.5703,-1.5684 1.5683,1.5684 h 3.9336 l 1.5684,-1.5684 1.5683,1.5684 h 3.9336 l 1.5684,-1.5684 1.5684,1.5684 h 3.9355 l 1.5684,-1.5684 1.5683,1.5684 h 3.9336 l 1.5684,-1.5684 1.5683,1.5684 h 3.9336 l 1.5684,-1.5684 1.5703,1.5684 h 3.9336 l 1.5684,-1.5684 1.5683,1.5684 h 3.9336 l 1.5684,-1.5684 1.5683,1.5684 h 3.9356 l 1.5683,-1.5684 1.5684,1.5684 h 3.9336 l 1.5683,-1.5684 1.5684,1.5684 h 3.9336 l 1.5684,-1.5684 1.5703,1.5684 h 3.9336 l 1.5683,-1.5684 1.5684,1.5684 h 3.9336 l 1.5683,-1.5684 1.5684,1.5684 h 3.9336 l 1.5703,-1.5684 1.5684,1.5684 h 3.9336 l 1.5683,-1.5684 1.5684,1.5684 h 3.9336 l 1.5683,-1.5684 1.5684,1.5684 h 3.9355 l 1.5684,-1.5684 1.5684,1.5684 h 3.9335 l 1.5684,-1.5684 1.5684,1.5684 h 3.9336 l 1.5703,-1.5684 1.5683,1.5684 h 3.9336 l 1.5684,-1.5684 1.5683,1.5684 h 3.9336 l 1.5684,-1.5684 1.5684,1.5684 h 3.9355 l 1.5684,-1.5684 1.5683,1.5684 h 3.9336 l 1.5684,-1.5684 1.5683,1.5684 h 3.9336 l 1.5684,-1.5684 1.5703,1.5684 h 3.9336 l 1.5684,-1.5684 1.5683,1.5684 h 3.9336 l 1.5684,-1.5684 1.5683,1.5684 h 3.9336 l 1.5703,-1.5684 1.5684,1.5684 h 3.9336 l 1.5683,-1.5684 1.5684,1.5684 h 3.9336 l 1.5684,-1.5684 1.5683,1.5684 h 3.9356 l 1.5683,-1.5684 1.5684,1.5684 h 3.9336 l 1.5683,-1.5684 1.3399,1.3399 v -5.5078 l -1.3399,1.3398 -2.1211,-2.1211 2.1211,-2.1211 1.3399,1.3399 v -5.5079 l -1.3399,1.3399 -2.1211,-2.1211 2.1211,-2.1231 1.3399,1.3418 v -5.5097 l -1.3399,1.3398 -2.1211,-2.1211 2.1211,-2.1211 1.3399,1.3399 v -5.5078 l -1.3399,1.3398 -2.1211,-2.1211 2.1211,-2.1211 1.3399,1.3399 v -5.5098 l -1.3399,1.3418 -2.1211,-2.123 2.1211,-2.1211 1.3399,1.3398 v -5.5078 l -1.3399,1.3398 -2.1211,-2.1211 2.1211,-2.1211 1.3399,1.3399 v -2.3457 h -3.1621 l -1.7129,1.7129 -1.7129,-1.7129 h -3.6445 l -1.7129,1.7129 -1.7149,-1.7129 h -3.6445 l -1.7129,1.7129 -1.7129,-1.7129 h -3.6445 l -1.7129,1.7129 -1.7129,-1.7129 h -3.6445 l -1.7149,1.7129 -1.7129,-1.7129 h -3.6445 l -1.7129,1.7129 -1.7129,-1.7129 h -3.6445 l -1.7129,1.7129 -1.7129,-1.7129 h -3.6465 l -1.7129,1.7129 -1.7129,-1.7129 h -3.6445 l -1.7129,1.7129 -1.7129,-1.7129 h -3.6445 l -1.7148,1.7129 -1.7129,-1.7129 h -3.6446 l -1.7129,1.7129 -1.7128,-1.7129 h -3.6446 l -1.7129,1.7129 -1.7129,-1.7129 h -3.6464 l -1.7129,1.7129 -1.7129,-1.7129 h -3.6446 l -1.7128,1.7129 -1.7129,-1.7129 h -3.6446 l -1.7129,1.7129 -1.7148,-1.7129 h -3.6445 l -1.7129,1.7129 -1.7129,-1.7129 h -3.6445 l -1.7129,1.7129 -1.7129,-1.7129 h -3.6446 l -1.7148,1.7129 -1.7129,-1.7129 h -3.6445 l -1.7129,1.7129 -1.7129,-1.7129 h -3.6445 l -1.7129,1.7129 -1.7129,-1.7129 h -3.6465 l -1.7129,1.7129 -1.7129,-1.7129 h -3.6445 l -1.7129,1.7129 -1.7129,-1.7129 h -3.6445 l -1.7149,1.7129 -1.7129,-1.7129 h -3.6445 l -1.7129,1.7129 -1.7129,-1.7129 h -3.6445 l -1.7129,1.7129 -1.7129,-1.7129 h -3.6465 l -1.7129,1.7129 -1.7129,-1.7129 h -3.6445 l -1.7129,1.7129 -1.7129,-1.7129 h -3.6445 l -1.7129,1.7129 -1.7148,-1.7129 h -3.6446 l -1.7129,1.7129 -1.7128,-1.7129 h -3.6446 l -1.7129,1.7129 -1.7129,-1.7129 h -3.6464 l -1.7129,1.7129 -1.7129,-1.7129 h -3.6446 l -1.7128,1.7129 -1.7129,-1.7129 h -3.6446 l -1.7129,1.7129 -1.7148,-1.7129 h -3.6445 l -1.7129,1.7129 -1.7129,-1.7129 h -3.6445 l -1.7129,1.7129 -1.7129,-1.7129 h -3.6446 l -1.7148,1.7129 -1.7129,-1.7129 h -3.6445 l -1.7129,1.7129 -1.7129,-1.7129 z m 5.4179,1.0058 2.1211,2.1211 -2.1211,2.1211 -2.1211,-2.1211 z m 7.0723,0 2.1211,2.1211 -2.1211,2.1211 -2.123,-2.1211 z m 7.0703,0 2.1211,2.1211 -2.1211,2.1211 -2.1211,-2.1211 z m 7.0703,0 2.1211,2.1211 -2.1211,2.1211 -2.1211,-2.1211 z m 7.0723,0 2.1211,2.1211 -2.1211,2.1211 -2.1211,-2.1211 z m 7.0703,0 2.1211,2.1211 -2.1211,2.1211 -2.1211,-2.1211 z m 7.0723,0 2.1211,2.1211 -2.1211,2.1211 -2.1231,-2.1211 z m 7.0703,0 2.1211,2.1211 -2.1211,2.1211 -2.1211,-2.1211 z m 7.0703,0 2.1211,2.1211 -2.1211,2.1211 -2.1211,-2.1211 z m 7.0723,0 2.1211,2.1211 -2.1211,2.1211 -2.1211,-2.1211 z m 7.0703,0 2.1211,2.1211 -2.1211,2.1211 -2.1211,-2.1211 z m 7.0703,0 2.123,2.1211 -2.123,2.1211 -2.1211,-2.1211 z m 7.0723,0 2.1211,2.1211 -2.1211,2.1211 -2.1211,-2.1211 z m 7.0703,0 2.1211,2.1211 -2.1211,2.1211 -2.1211,-2.1211 z m 7.0722,0 2.1211,2.1211 -2.1211,2.1211 -2.1211,-2.1211 z m 7.0703,0 2.1211,2.1211 -2.1211,2.1211 -2.121,-2.1211 z m 7.0704,0 2.123,2.1211 -2.123,2.1211 -2.1211,-2.1211 z m 7.0722,0 2.1211,2.1211 -2.1211,2.1211 -2.1211,-2.1211 z m 7.0703,0 2.1211,2.1211 -2.1211,2.1211 -2.1211,-2.1211 z m 7.0723,0 2.1211,2.1211 -2.1211,2.1211 -2.123,-2.1211 z m 7.0703,0 2.1211,2.1211 -2.1211,2.1211 -2.1211,-2.1211 z m 7.0703,0 2.1211,2.1211 -2.1211,2.1211 -2.1211,-2.1211 z m 7.0723,0 2.1211,2.1211 -2.1211,2.1211 -2.1211,-2.1211 z m 7.0703,0 2.1211,2.1211 -2.1211,2.1211 -2.1211,-2.1211 z m 7.0723,0 2.1211,2.1211 -2.1211,2.1211 -2.1231,-2.1211 z m 7.0703,0 2.1211,2.1211 -2.1211,2.1211 -2.1211,-2.1211 z m 7.0703,0 2.1211,2.1211 -2.1211,2.1211 -2.1211,-2.1211 z m 7.0723,0 2.1211,2.1211 -2.1211,2.1211 -2.1211,-2.1211 z m 7.0703,0 2.1211,2.1211 -2.1211,2.1211 -2.1211,-2.1211 z m 7.0703,0 2.123,2.1211 -2.123,2.1211 -2.1211,-2.1211 z m 7.0723,0 2.121,2.1211 -2.121,2.1211 -2.1211,-2.1211 z m 7.0703,0 2.1211,2.1211 -2.1211,2.1211 -2.1211,-2.1211 z m 7.0722,0 2.1211,2.1211 -2.1211,2.1211 -2.123,-2.1211 z m 7.0703,0 2.1211,2.1211 -2.1211,2.1211 -2.121,-2.1211 z m 7.0704,0 2.1211,2.1211 -2.1211,2.1211 -2.1211,-2.1211 z m 7.0722,0 2.1211,2.1211 -2.1211,2.1211 -2.1211,-2.1211 z m -243.9531,3.5352 2.123,2.1211 -2.123,2.1211 -2.1211,-2.1211 z m 7.0723,0 2.1211,2.1211 -2.1211,2.1211 -2.1211,-2.1211 z m 7.0703,0 2.1211,2.1211 -2.1211,2.1211 -2.1211,-2.1211 z m 7.0722,0 2.1211,2.1211 -2.1211,2.1211 -2.123,-2.1211 z m 7.0704,0 2.121,2.1211 -2.121,2.1211 -2.1211,-2.1211 z m 7.0703,0 2.1211,2.1211 -2.1211,2.1211 -2.1211,-2.1211 z m 7.0722,0 2.1211,2.1211 -2.1211,2.1211 -2.1211,-2.1211 z m 7.0703,0 2.1211,2.1211 -2.1211,2.1211 -2.121,-2.1211 z m 7.0723,0 2.1211,2.1211 -2.1211,2.1211 -2.123,-2.1211 z m 7.0703,0 2.1211,2.1211 -2.1211,2.1211 -2.1211,-2.1211 z m 7.0703,0 2.1211,2.1211 -2.1211,2.1211 -2.1211,-2.1211 z m 7.0723,0 2.1211,2.1211 -2.1211,2.1211 -2.1211,-2.1211 z m 7.0703,0 2.1211,2.1211 -2.1211,2.1211 -2.1211,-2.1211 z m 7.0703,0 2.1231,2.1211 -2.1231,2.1211 -2.1211,-2.1211 z m 7.0723,0 2.1211,2.1211 -2.1211,2.1211 -2.1211,-2.1211 z m 7.0703,0 2.1211,2.1211 -2.1211,2.1211 -2.1211,-2.1211 z m 7.0723,0 2.1211,2.1211 -2.1211,2.1211 -2.1211,-2.1211 z m 7.0703,0 2.1211,2.1211 -2.1211,2.1211 -2.1211,-2.1211 z m 7.0703,0 2.123,2.1211 -2.123,2.1211 -2.1211,-2.1211 z m 7.0723,0 2.1211,2.1211 -2.1211,2.1211 -2.1211,-2.1211 z m 7.0703,0 2.1211,2.1211 -2.1211,2.1211 -2.1211,-2.1211 z m 7.0722,0 2.1211,2.1211 -2.1211,2.1211 -2.123,-2.1211 z m 7.0704,0 2.121,2.1211 -2.121,2.1211 -2.1211,-2.1211 z m 7.0703,0 2.1211,2.1211 -2.1211,2.1211 -2.1211,-2.1211 z m 7.0722,0 2.1211,2.1211 -2.1211,2.1211 -2.1211,-2.1211 z m 7.0703,0 2.1211,2.1211 -2.1211,2.1211 -2.1211,-2.1211 z m 7.0704,0 2.123,2.1211 -2.123,2.1211 -2.1211,-2.1211 z m 7.0722,0 2.1211,2.1211 -2.1211,2.1211 -2.1211,-2.1211 z m 7.0703,0 2.1211,2.1211 -2.1211,2.1211 -2.1211,-2.1211 z m 7.0723,0 2.1211,2.1211 -2.1211,2.1211 -2.1211,-2.1211 z m 7.0703,0 2.1211,2.1211 -2.1211,2.1211 -2.1211,-2.1211 z m 7.0703,0 2.1231,2.1211 -2.1231,2.1211 -2.1211,-2.1211 z m 7.0723,0 2.1211,2.1211 -2.1211,2.1211 -2.1211,-2.1211 z m 7.0703,0 2.1211,2.1211 -2.1211,2.1211 -2.1211,-2.1211 z m 7.0723,0 2.1211,2.1211 -2.1211,2.1211 -2.1231,-2.1211 z m 7.0703,0 2.1211,2.1211 -2.1211,2.1211 -2.1211,-2.1211 z m -251.0235,3.5352 2.1211,2.1211 -2.1211,2.123 -2.1211,-2.123 z m 7.0723,0 2.1211,2.1211 -2.1211,2.123 -2.123,-2.123 z m 7.0703,0 2.1211,2.1211 -2.1211,2.123 -2.1211,-2.123 z m 7.0703,0 2.1211,2.1211 -2.1211,2.123 -2.1211,-2.123 z m 7.0723,0 2.1211,2.1211 -2.1211,2.123 -2.1211,-2.123 z m 7.0703,0 2.1211,2.1211 -2.1211,2.123 -2.1211,-2.123 z m 7.0723,0 2.1211,2.1211 -2.1211,2.123 -2.1231,-2.123 z m 7.0703,0 2.1211,2.1211 -2.1211,2.123 -2.1211,-2.123 z m 7.0703,0 2.1211,2.1211 -2.1211,2.123 -2.1211,-2.123 z m 7.0723,0 2.1211,2.1211 -2.1211,2.123 -2.1211,-2.123 z m 7.0703,0 2.1211,2.1211 -2.1211,2.123 -2.1211,-2.123 z m 7.0703,0 2.123,2.1211 -2.123,2.123 -2.1211,-2.123 z m 7.0723,0 2.1211,2.1211 -2.1211,2.123 -2.1211,-2.123 z m 7.0703,0 2.1211,2.1211 -2.1211,2.123 -2.1211,-2.123 z m 7.0722,0 2.1211,2.1211 -2.1211,2.123 -2.1211,-2.123 z m 7.0703,0 2.1211,2.1211 -2.1211,2.123 -2.121,-2.123 z m 7.0704,0 2.123,2.1211 -2.123,2.123 -2.1211,-2.123 z m 7.0722,0 2.1211,2.1211 -2.1211,2.123 -2.1211,-2.123 z m 7.0703,0 2.1211,2.1211 -2.1211,2.123 -2.1211,-2.123 z m 7.0723,0 2.1211,2.1211 -2.1211,2.123 -2.123,-2.123 z m 7.0703,0 2.1211,2.1211 -2.1211,2.123 -2.1211,-2.123 z m 7.0703,0 2.1211,2.1211 -2.1211,2.123 -2.1211,-2.123 z m 7.0723,0 2.1211,2.1211 -2.1211,2.123 -2.1211,-2.123 z m 7.0703,0 2.1211,2.1211 -2.1211,2.123 -2.1211,-2.123 z m 7.0723,0 2.1211,2.1211 -2.1211,2.123 -2.1231,-2.123 z m 7.0703,0 2.1211,2.1211 -2.1211,2.123 -2.1211,-2.123 z m 7.0703,0 2.1211,2.1211 -2.1211,2.123 -2.1211,-2.123 z m 7.0723,0 2.1211,2.1211 -2.1211,2.123 -2.1211,-2.123 z m 7.0703,0 2.1211,2.1211 -2.1211,2.123 -2.1211,-2.123 z m 7.0703,0 2.123,2.1211 -2.123,2.123 -2.1211,-2.123 z m 7.0723,0 2.121,2.1211 -2.121,2.123 -2.1211,-2.123 z m 7.0703,0 2.1211,2.1211 -2.1211,2.123 -2.1211,-2.123 z m 7.0722,0 2.1211,2.1211 -2.1211,2.123 -2.123,-2.123 z m 7.0703,0 2.1211,2.1211 -2.1211,2.123 -2.121,-2.123 z m 7.0704,0 2.1211,2.1211 -2.1211,2.123 -2.1211,-2.123 z m 7.0722,0 2.1211,2.1211 -2.1211,2.123 -2.1211,-2.123 z m -243.9531,3.5371 2.123,2.1211 -2.123,2.1211 -2.1211,-2.1211 z m 7.0723,0 2.1211,2.1211 -2.1211,2.1211 -2.1211,-2.1211 z m 7.0703,0 2.1211,2.1211 -2.1211,2.1211 -2.1211,-2.1211 z m 7.0722,0 2.1211,2.1211 -2.1211,2.1211 -2.123,-2.1211 z m 7.0704,0 2.121,2.1211 -2.121,2.1211 -2.1211,-2.1211 z m 7.0703,0 2.1211,2.1211 -2.1211,2.1211 -2.1211,-2.1211 z m 7.0722,0 2.1211,2.1211 -2.1211,2.1211 -2.1211,-2.1211 z m 7.0703,0 2.1211,2.1211 -2.1211,2.1211 -2.121,-2.1211 z m 7.0723,0 2.1211,2.1211 -2.1211,2.1211 -2.123,-2.1211 z m 7.0703,0 2.1211,2.1211 -2.1211,2.1211 -2.1211,-2.1211 z m 7.0703,0 2.1211,2.1211 -2.1211,2.1211 -2.1211,-2.1211 z m 7.0723,0 2.1211,2.1211 -2.1211,2.1211 -2.1211,-2.1211 z m 7.0703,0 2.1211,2.1211 -2.1211,2.1211 -2.1211,-2.1211 z m 7.0703,0 2.1231,2.1211 -2.1231,2.1211 -2.1211,-2.1211 z m 7.0723,0 2.1211,2.1211 -2.1211,2.1211 -2.1211,-2.1211 z m 7.0703,0 2.1211,2.1211 -2.1211,2.1211 -2.1211,-2.1211 z m 7.0723,0 2.1211,2.1211 -2.1211,2.1211 -2.1211,-2.1211 z m 7.0703,0 2.1211,2.1211 -2.1211,2.1211 -2.1211,-2.1211 z m 7.0703,0 2.123,2.1211 -2.123,2.1211 -2.1211,-2.1211 z m 7.0723,0 2.1211,2.1211 -2.1211,2.1211 -2.1211,-2.1211 z m 7.0703,0 2.1211,2.1211 -2.1211,2.1211 -2.1211,-2.1211 z m 7.0722,0 2.1211,2.1211 -2.1211,2.1211 -2.123,-2.1211 z m 7.0704,0 2.121,2.1211 -2.121,2.1211 -2.1211,-2.1211 z m 7.0703,0 2.1211,2.1211 -2.1211,2.1211 -2.1211,-2.1211 z m 7.0722,0 2.1211,2.1211 -2.1211,2.1211 -2.1211,-2.1211 z m 7.0703,0 2.1211,2.1211 -2.1211,2.1211 -2.1211,-2.1211 z m 7.0704,0 2.123,2.1211 -2.123,2.1211 -2.1211,-2.1211 z m 7.0722,0 2.1211,2.1211 -2.1211,2.1211 -2.1211,-2.1211 z m 7.0703,0 2.1211,2.1211 -2.1211,2.1211 -2.1211,-2.1211 z m 7.0723,0 2.1211,2.1211 -2.1211,2.1211 -2.1211,-2.1211 z m 7.0703,0 2.1211,2.1211 -2.1211,2.1211 -2.1211,-2.1211 z m 7.0703,0 2.1231,2.1211 -2.1231,2.1211 -2.1211,-2.1211 z m 7.0723,0 2.1211,2.1211 -2.1211,2.1211 -2.1211,-2.1211 z m 7.0703,0 2.1211,2.1211 -2.1211,2.1211 -2.1211,-2.1211 z m 7.0723,0 2.1211,2.1211 -2.1211,2.1211 -2.1231,-2.1211 z m 7.0703,0 2.1211,2.1211 -2.1211,2.1211 -2.1211,-2.1211 z m -251.0235,3.5351 2.1211,2.1211 -2.1211,2.1211 -2.1211,-2.1211 z m 7.0723,0 2.1211,2.1211 -2.1211,2.1211 -2.123,-2.1211 z m 7.0703,0 2.1211,2.1211 -2.1211,2.1211 -2.1211,-2.1211 z m 7.0703,0 2.1211,2.1211 -2.1211,2.1211 -2.1211,-2.1211 z m 7.0723,0 2.1211,2.1211 -2.1211,2.1211 -2.1211,-2.1211 z m 7.0703,0 2.1211,2.1211 -2.1211,2.1211 -2.1211,-2.1211 z m 7.0723,0 2.1211,2.1211 -2.1211,2.1211 -2.1231,-2.1211 z m 7.0703,0 2.1211,2.1211 -2.1211,2.1211 -2.1211,-2.1211 z m 7.0703,0 2.1211,2.1211 -2.1211,2.1211 -2.1211,-2.1211 z m 7.0723,0 2.1211,2.1211 -2.1211,2.1211 -2.1211,-2.1211 z m 7.0703,0 2.1211,2.1211 -2.1211,2.1211 -2.1211,-2.1211 z m 7.0703,0 2.123,2.1211 -2.123,2.1211 -2.1211,-2.1211 z m 7.0723,0 2.1211,2.1211 -2.1211,2.1211 -2.1211,-2.1211 z m 7.0703,0 2.1211,2.1211 -2.1211,2.1211 -2.1211,-2.1211 z m 7.0722,0 2.1211,2.1211 -2.1211,2.1211 -2.1211,-2.1211 z m 7.0703,0 2.1211,2.1211 -2.1211,2.1211 -2.121,-2.1211 z m 7.0704,0 2.123,2.1211 -2.123,2.1211 -2.1211,-2.1211 z m 7.0722,0 2.1211,2.1211 -2.1211,2.1211 -2.1211,-2.1211 z m 7.0703,0 2.1211,2.1211 -2.1211,2.1211 -2.1211,-2.1211 z m 7.0723,0 2.1211,2.1211 -2.1211,2.1211 -2.123,-2.1211 z m 7.0703,0 2.1211,2.1211 -2.1211,2.1211 -2.1211,-2.1211 z m 7.0703,0 2.1211,2.1211 -2.1211,2.1211 -2.1211,-2.1211 z m 7.0723,0 2.1211,2.1211 -2.1211,2.1211 -2.1211,-2.1211 z m 7.0703,0 2.1211,2.1211 -2.1211,2.1211 -2.1211,-2.1211 z m 7.0723,0 2.1211,2.1211 -2.1211,2.1211 -2.1231,-2.1211 z m 7.0703,0 2.1211,2.1211 -2.1211,2.1211 -2.1211,-2.1211 z m 7.0703,0 2.1211,2.1211 -2.1211,2.1211 -2.1211,-2.1211 z m 7.0723,0 2.1211,2.1211 -2.1211,2.1211 -2.1211,-2.1211 z m 7.0703,0 2.1211,2.1211 -2.1211,2.1211 -2.1211,-2.1211 z m 7.0703,0 2.123,2.1211 -2.123,2.1211 -2.1211,-2.1211 z m 7.0723,0 2.121,2.1211 -2.121,2.1211 -2.1211,-2.1211 z m 7.0703,0 2.1211,2.1211 -2.1211,2.1211 -2.1211,-2.1211 z m 7.0722,0 2.1211,2.1211 -2.1211,2.1211 -2.123,-2.1211 z m 7.0703,0 2.1211,2.1211 -2.1211,2.1211 -2.121,-2.1211 z m 7.0704,0 2.1211,2.1211 -2.1211,2.1211 -2.1211,-2.1211 z m 7.0722,0 2.1211,2.1211 -2.1211,2.1211 -2.1211,-2.1211 z m -243.9531,3.5352 2.123,2.1211 -2.123,2.1211 -2.1211,-2.1211 z m 7.0723,0 2.1211,2.1211 -2.1211,2.1211 -2.1211,-2.1211 z m 7.0703,0 2.1211,2.1211 -2.1211,2.1211 -2.1211,-2.1211 z m 7.0722,0 2.1211,2.1211 -2.1211,2.1211 -2.123,-2.1211 z m 7.0704,0 2.121,2.1211 -2.121,2.1211 -2.1211,-2.1211 z m 7.0703,0 2.1211,2.1211 -2.1211,2.1211 -2.1211,-2.1211 z m 7.0722,0 2.1211,2.1211 -2.1211,2.1211 -2.1211,-2.1211 z m 7.0703,0 2.1211,2.1211 -2.1211,2.1211 -2.121,-2.1211 z m 7.0723,0 2.1211,2.1211 -2.1211,2.1211 -2.123,-2.1211 z m 7.0703,0 2.1211,2.1211 -2.1211,2.1211 -2.1211,-2.1211 z m 7.0703,0 2.1211,2.1211 -2.1211,2.1211 -2.1211,-2.1211 z m 7.0723,0 2.1211,2.1211 -2.1211,2.1211 -2.1211,-2.1211 z m 7.0703,0 2.1211,2.1211 -2.1211,2.1211 -2.1211,-2.1211 z m 7.0703,0 2.1231,2.1211 -2.1231,2.1211 -2.1211,-2.1211 z m 7.0723,0 2.1211,2.1211 -2.1211,2.1211 -2.1211,-2.1211 z m 7.0703,0 2.1211,2.1211 -2.1211,2.1211 -2.1211,-2.1211 z m 7.0723,0 2.1211,2.1211 -2.1211,2.1211 -2.1211,-2.1211 z m 7.0703,0 2.1211,2.1211 -2.1211,2.1211 -2.1211,-2.1211 z m 7.0703,0 2.123,2.1211 -2.123,2.1211 -2.1211,-2.1211 z m 7.0723,0 2.1211,2.1211 -2.1211,2.1211 -2.1211,-2.1211 z m 7.0703,0 2.1211,2.1211 -2.1211,2.1211 -2.1211,-2.1211 z m 7.0722,0 2.1211,2.1211 -2.1211,2.1211 -2.123,-2.1211 z m 7.0704,0 2.121,2.1211 -2.121,2.1211 -2.1211,-2.1211 z m 7.0703,0 2.1211,2.1211 -2.1211,2.1211 -2.1211,-2.1211 z m 7.0722,0 2.1211,2.1211 -2.1211,2.1211 -2.1211,-2.1211 z m 7.0703,0 2.1211,2.1211 -2.1211,2.1211 -2.1211,-2.1211 z m 7.0704,0 2.123,2.1211 -2.123,2.1211 -2.1211,-2.1211 z m 7.0722,0 2.1211,2.1211 -2.1211,2.1211 -2.1211,-2.1211 z m 7.0703,0 2.1211,2.1211 -2.1211,2.1211 -2.1211,-2.1211 z m 7.0723,0 2.1211,2.1211 -2.1211,2.1211 -2.1211,-2.1211 z m 7.0703,0 2.1211,2.1211 -2.1211,2.1211 -2.1211,-2.1211 z m 7.0703,0 2.1231,2.1211 -2.1231,2.1211 -2.1211,-2.1211 z m 7.0723,0 2.1211,2.1211 -2.1211,2.1211 -2.1211,-2.1211 z m 7.0703,0 2.1211,2.1211 -2.1211,2.1211 -2.1211,-2.1211 z m 7.0723,0 2.1211,2.1211 -2.1211,2.1211 -2.1231,-2.1211 z m 7.0703,0 2.1211,2.1211 -2.1211,2.1211 -2.1211,-2.1211 z m -251.0235,3.5351 2.1211,2.1211 -2.1211,2.1211 -2.1211,-2.1211 z m 7.0723,0 2.1211,2.1211 -2.1211,2.1211 -2.123,-2.1211 z m 7.0703,0 2.1211,2.1211 -2.1211,2.1211 -2.1211,-2.1211 z m 7.0703,0 2.1211,2.1211 -2.1211,2.1211 -2.1211,-2.1211 z m 7.0723,0 2.1211,2.1211 -2.1211,2.1211 -2.1211,-2.1211 z m 7.0703,0 2.1211,2.1211 -2.1211,2.1211 -2.1211,-2.1211 z m 7.0723,0 2.1211,2.1211 -2.1211,2.1211 -2.1231,-2.1211 z m 7.0703,0 2.1211,2.1211 -2.1211,2.1211 -2.1211,-2.1211 z m 7.0703,0 2.1211,2.1211 -2.1211,2.1211 -2.1211,-2.1211 z m 7.0723,0 2.1211,2.1211 -2.1211,2.1211 -2.1211,-2.1211 z m 7.0703,0 2.1211,2.1211 -2.1211,2.1211 -2.1211,-2.1211 z m 7.0703,0 2.123,2.1211 -2.123,2.1211 -2.1211,-2.1211 z m 7.0723,0 2.1211,2.1211 -2.1211,2.1211 -2.1211,-2.1211 z m 7.0703,0 2.1211,2.1211 -2.1211,2.1211 -2.1211,-2.1211 z m 7.0722,0 2.1211,2.1211 -2.1211,2.1211 -2.1211,-2.1211 z m 7.0703,0 2.1211,2.1211 -2.1211,2.1211 -2.121,-2.1211 z m 7.0704,0 2.123,2.1211 -2.123,2.1211 -2.1211,-2.1211 z m 7.0722,0 2.1211,2.1211 -2.1211,2.1211 -2.1211,-2.1211 z m 7.0703,0 2.1211,2.1211 -2.1211,2.1211 -2.1211,-2.1211 z m 7.0723,0 2.1211,2.1211 -2.1211,2.1211 -2.123,-2.1211 z m 7.0703,0 2.1211,2.1211 -2.1211,2.1211 -2.1211,-2.1211 z m 7.0703,0 2.1211,2.1211 -2.1211,2.1211 -2.1211,-2.1211 z m 7.0723,0 2.1211,2.1211 -2.1211,2.1211 -2.1211,-2.1211 z m 7.0703,0 2.1211,2.1211 -2.1211,2.1211 -2.1211,-2.1211 z m 7.0723,0 2.1211,2.1211 -2.1211,2.1211 -2.1231,-2.1211 z m 7.0703,0 2.1211,2.1211 -2.1211,2.1211 -2.1211,-2.1211 z m 7.0703,0 2.1211,2.1211 -2.1211,2.1211 -2.1211,-2.1211 z m 7.0723,0 2.1211,2.1211 -2.1211,2.1211 -2.1211,-2.1211 z m 7.0703,0 2.1211,2.1211 -2.1211,2.1211 -2.1211,-2.1211 z m 7.0703,0 2.123,2.1211 -2.123,2.1211 -2.1211,-2.1211 z m 7.0723,0 2.121,2.1211 -2.121,2.1211 -2.1211,-2.1211 z m 7.0703,0 2.1211,2.1211 -2.1211,2.1211 -2.1211,-2.1211 z m 7.0722,0 2.1211,2.1211 -2.1211,2.1211 -2.123,-2.1211 z m 7.0703,0 2.1211,2.1211 -2.1211,2.1211 -2.121,-2.1211 z m 7.0704,0 2.1211,2.1211 -2.1211,2.1211 -2.1211,-2.1211 z m 7.0722,0 2.1211,2.1211 -2.1211,2.1211 -2.1211,-2.1211 z m -243.9531,3.5352 2.123,2.1211 -2.123,2.123 -2.1211,-2.123 z m 7.0723,0 2.1211,2.1211 -2.1211,2.123 -2.1211,-2.123 z m 7.0703,0 2.1211,2.1211 -2.1211,2.123 -2.1211,-2.123 z m 7.0722,0 2.1211,2.1211 -2.1211,2.123 -2.123,-2.123 z m 7.0704,0 2.121,2.1211 -2.121,2.123 -2.1211,-2.123 z m 7.0703,0 2.1211,2.1211 -2.1211,2.123 -2.1211,-2.123 z m 7.0722,0 2.1211,2.1211 -2.1211,2.123 -2.1211,-2.123 z m 7.0703,0 2.1211,2.1211 -2.1211,2.123 -2.121,-2.123 z m 7.0723,0 2.1211,2.1211 -2.1211,2.123 -2.123,-2.123 z m 7.0703,0 2.1211,2.1211 -2.1211,2.123 -2.1211,-2.123 z m 7.0703,0 2.1211,2.1211 -2.1211,2.123 -2.1211,-2.123 z m 7.0723,0 2.1211,2.1211 -2.1211,2.123 -2.1211,-2.123 z m 7.0703,0 2.1211,2.1211 -2.1211,2.123 -2.1211,-2.123 z m 7.0703,0 2.1231,2.1211 -2.1231,2.123 -2.1211,-2.123 z m 7.0723,0 2.1211,2.1211 -2.1211,2.123 -2.1211,-2.123 z m 7.0703,0 2.1211,2.1211 -2.1211,2.123 -2.1211,-2.123 z m 7.0723,0 2.1211,2.1211 -2.1211,2.123 -2.1211,-2.123 z m 7.0703,0 2.1211,2.1211 -2.1211,2.123 -2.1211,-2.123 z m 7.0703,0 2.123,2.1211 -2.123,2.123 -2.1211,-2.123 z m 7.0723,0 2.1211,2.1211 -2.1211,2.123 -2.1211,-2.123 z m 7.0703,0 2.1211,2.1211 -2.1211,2.123 -2.1211,-2.123 z m 7.0722,0 2.1211,2.1211 -2.1211,2.123 -2.123,-2.123 z m 7.0704,0 2.121,2.1211 -2.121,2.123 -2.1211,-2.123 z m 7.0703,0 2.1211,2.1211 -2.1211,2.123 -2.1211,-2.123 z m 7.0722,0 2.1211,2.1211 -2.1211,2.123 -2.1211,-2.123 z m 7.0703,0 2.1211,2.1211 -2.1211,2.123 -2.1211,-2.123 z m 7.0704,0 2.123,2.1211 -2.123,2.123 -2.1211,-2.123 z m 7.0722,0 2.1211,2.1211 -2.1211,2.123 -2.1211,-2.123 z m 7.0703,0 2.1211,2.1211 -2.1211,2.123 -2.1211,-2.123 z m 7.0723,0 2.1211,2.1211 -2.1211,2.123 -2.1211,-2.123 z m 7.0703,0 2.1211,2.1211 -2.1211,2.123 -2.1211,-2.123 z m 7.0703,0 2.1231,2.1211 -2.1231,2.123 -2.1211,-2.123 z m 7.0723,0 2.1211,2.1211 -2.1211,2.123 -2.1211,-2.123 z m 7.0703,0 2.1211,2.1211 -2.1211,2.123 -2.1211,-2.123 z m 7.0723,0 2.1211,2.1211 -2.1211,2.123 -2.1231,-2.123 z m 7.0703,0 2.1211,2.1211 -2.1211,2.123 -2.1211,-2.123 z m -251.0235,3.5351 2.1211,2.1231 -2.1211,2.1211 -2.1211,-2.1211 z m 7.0723,0 2.1211,2.1231 -2.1211,2.1211 -2.123,-2.1211 z m 7.0703,0 2.1211,2.1231 -2.1211,2.1211 -2.1211,-2.1211 z m 7.0703,0 2.1211,2.1231 -2.1211,2.1211 -2.1211,-2.1211 z m 7.0723,0 2.1211,2.1231 -2.1211,2.1211 -2.1211,-2.1211 z m 7.0703,0 2.1211,2.1231 -2.1211,2.1211 -2.1211,-2.1211 z m 7.0723,0 2.1211,2.1231 -2.1211,2.1211 -2.1231,-2.1211 z m 7.0703,0 2.1211,2.1231 -2.1211,2.1211 -2.1211,-2.1211 z m 7.0703,0 2.1211,2.1231 -2.1211,2.1211 -2.1211,-2.1211 z m 7.0723,0 2.1211,2.1231 -2.1211,2.1211 -2.1211,-2.1211 z m 7.0703,0 2.1211,2.1231 -2.1211,2.1211 -2.1211,-2.1211 z m 7.0703,0 2.123,2.1231 -2.123,2.1211 -2.1211,-2.1211 z m 7.0723,0 2.1211,2.1231 -2.1211,2.1211 -2.1211,-2.1211 z m 7.0703,0 2.1211,2.1231 -2.1211,2.1211 -2.1211,-2.1211 z m 7.0722,0 2.1211,2.1231 -2.1211,2.1211 -2.1211,-2.1211 z m 7.0703,0 2.1211,2.1231 -2.1211,2.1211 -2.121,-2.1211 z m 7.0704,0 2.123,2.1231 -2.123,2.1211 -2.1211,-2.1211 z m 7.0722,0 2.1211,2.1231 -2.1211,2.1211 -2.1211,-2.1211 z m 7.0703,0 2.1211,2.1231 -2.1211,2.1211 -2.1211,-2.1211 z m 7.0723,0 2.1211,2.1231 -2.1211,2.1211 -2.123,-2.1211 z m 7.0703,0 2.1211,2.1231 -2.1211,2.1211 -2.1211,-2.1211 z m 7.0703,0 2.1211,2.1231 -2.1211,2.1211 -2.1211,-2.1211 z m 7.0723,0 2.1211,2.1231 -2.1211,2.1211 -2.1211,-2.1211 z m 7.0703,0 2.1211,2.1231 -2.1211,2.1211 -2.1211,-2.1211 z m 7.0723,0 2.1211,2.1231 -2.1211,2.1211 -2.1231,-2.1211 z m 7.0703,0 2.1211,2.1231 -2.1211,2.1211 -2.1211,-2.1211 z m 7.0703,0 2.1211,2.1231 -2.1211,2.1211 -2.1211,-2.1211 z m 7.0723,0 2.1211,2.1231 -2.1211,2.1211 -2.1211,-2.1211 z m 7.0703,0 2.1211,2.1231 -2.1211,2.1211 -2.1211,-2.1211 z m 7.0703,0 2.123,2.1231 -2.123,2.1211 -2.1211,-2.1211 z m 7.0723,0 2.121,2.1231 -2.121,2.1211 -2.1211,-2.1211 z m 7.0703,0 2.1211,2.1231 -2.1211,2.1211 -2.1211,-2.1211 z m 7.0722,0 2.1211,2.1231 -2.1211,2.1211 -2.123,-2.1211 z m 7.0703,0 2.1211,2.1231 -2.1211,2.1211 -2.121,-2.1211 z m 7.0704,0 2.1211,2.1231 -2.1211,2.1211 -2.1211,-2.1211 z m 7.0722,0 2.1211,2.1231 -2.1211,2.1211 -2.1211,-2.1211 z m -243.9531,3.5372 2.123,2.1211 -2.123,2.121 -2.1211,-2.121 z m 7.0723,0 2.1211,2.1211 -2.1211,2.121 -2.1211,-2.121 z m 7.0703,0 2.1211,2.1211 -2.1211,2.121 -2.1211,-2.121 z m 7.0722,0 2.1211,2.1211 -2.1211,2.121 -2.123,-2.121 z m 7.0704,0 2.121,2.1211 -2.121,2.121 -2.1211,-2.121 z m 7.0703,0 2.1211,2.1211 -2.1211,2.121 -2.1211,-2.121 z m 7.0722,0 2.1211,2.1211 -2.1211,2.121 -2.1211,-2.121 z m 7.0703,0 2.1211,2.1211 -2.1211,2.121 -2.121,-2.121 z m 7.0723,0 2.1211,2.1211 -2.1211,2.121 -2.123,-2.121 z m 7.0703,0 2.1211,2.1211 -2.1211,2.121 -2.1211,-2.121 z m 7.0703,0 2.1211,2.1211 -2.1211,2.121 -2.1211,-2.121 z m 7.0723,0 2.1211,2.1211 -2.1211,2.121 -2.1211,-2.121 z m 7.0703,0 2.1211,2.1211 -2.1211,2.121 -2.1211,-2.121 z m 7.0703,0 2.1231,2.1211 -2.1231,2.121 -2.1211,-2.121 z m 7.0723,0 2.1211,2.1211 -2.1211,2.121 -2.1211,-2.121 z m 7.0703,0 2.1211,2.1211 -2.1211,2.121 -2.1211,-2.121 z m 7.0723,0 2.1211,2.1211 -2.1211,2.121 -2.1211,-2.121 z m 7.0703,0 2.1211,2.1211 -2.1211,2.121 -2.1211,-2.121 z m 7.0703,0 2.123,2.1211 -2.123,2.121 -2.1211,-2.121 z m 7.0723,0 2.1211,2.1211 -2.1211,2.121 -2.1211,-2.121 z m 7.0703,0 2.1211,2.1211 -2.1211,2.121 -2.1211,-2.121 z m 7.0722,0 2.1211,2.1211 -2.1211,2.121 -2.123,-2.121 z m 7.0704,0 2.121,2.1211 -2.121,2.121 -2.1211,-2.121 z m 7.0703,0 2.1211,2.1211 -2.1211,2.121 -2.1211,-2.121 z m 7.0722,0 2.1211,2.1211 -2.1211,2.121 -2.1211,-2.121 z m 7.0703,0 2.1211,2.1211 -2.1211,2.121 -2.1211,-2.121 z m 7.0704,0 2.123,2.1211 -2.123,2.121 -2.1211,-2.121 z m 7.0722,0 2.1211,2.1211 -2.1211,2.121 -2.1211,-2.121 z m 7.0703,0 2.1211,2.1211 -2.1211,2.121 -2.1211,-2.121 z m 7.0723,0 2.1211,2.1211 -2.1211,2.121 -2.1211,-2.121 z m 7.0703,0 2.1211,2.1211 -2.1211,2.121 -2.1211,-2.121 z m 7.0703,0 2.1231,2.1211 -2.1231,2.121 -2.1211,-2.121 z m 7.0723,0 2.1211,2.1211 -2.1211,2.121 -2.1211,-2.121 z m 7.0703,0 2.1211,2.1211 -2.1211,2.121 -2.1211,-2.121 z m 7.0723,0 2.1211,2.1211 -2.1211,2.121 -2.1231,-2.121 z m 7.0703,0 2.1211,2.1211 -2.1211,2.121 -2.1211,-2.121 z m -251.0235,3.5351 2.1211,2.1211 -2.1211,2.1211 -2.1211,-2.1211 z m 7.0723,0 2.1211,2.1211 -2.1211,2.1211 -2.123,-2.1211 z m 7.0703,0 2.1211,2.1211 -2.1211,2.1211 -2.1211,-2.1211 z m 7.0703,0 2.1211,2.1211 -2.1211,2.1211 -2.1211,-2.1211 z m 7.0723,0 2.1211,2.1211 -2.1211,2.1211 -2.1211,-2.1211 z m 7.0703,0 2.1211,2.1211 -2.1211,2.1211 -2.1211,-2.1211 z m 7.0723,0 2.1211,2.1211 -2.1211,2.1211 -2.1231,-2.1211 z m 7.0703,0 2.1211,2.1211 -2.1211,2.1211 -2.1211,-2.1211 z m 7.0703,0 2.1211,2.1211 -2.1211,2.1211 -2.1211,-2.1211 z m 7.0723,0 2.1211,2.1211 -2.1211,2.1211 -2.1211,-2.1211 z m 7.0703,0 2.1211,2.1211 -2.1211,2.1211 -2.1211,-2.1211 z m 7.0703,0 2.123,2.1211 -2.123,2.1211 -2.1211,-2.1211 z m 7.0723,0 2.1211,2.1211 -2.1211,2.1211 -2.1211,-2.1211 z m 7.0703,0 2.1211,2.1211 -2.1211,2.1211 -2.1211,-2.1211 z m 7.0722,0 2.1211,2.1211 -2.1211,2.1211 -2.1211,-2.1211 z m 7.0703,0 2.1211,2.1211 -2.1211,2.1211 -2.121,-2.1211 z m 7.0704,0 2.123,2.1211 -2.123,2.1211 -2.1211,-2.1211 z m 7.0722,0 2.1211,2.1211 -2.1211,2.1211 -2.1211,-2.1211 z m 7.0703,0 2.1211,2.1211 -2.1211,2.1211 -2.1211,-2.1211 z m 7.0723,0 2.1211,2.1211 -2.1211,2.1211 -2.123,-2.1211 z m 7.0703,0 2.1211,2.1211 -2.1211,2.1211 -2.1211,-2.1211 z m 7.0703,0 2.1211,2.1211 -2.1211,2.1211 -2.1211,-2.1211 z m 7.0723,0 2.1211,2.1211 -2.1211,2.1211 -2.1211,-2.1211 z m 7.0703,0 2.1211,2.1211 -2.1211,2.1211 -2.1211,-2.1211 z m 7.0723,0 2.1211,2.1211 -2.1211,2.1211 -2.1231,-2.1211 z m 7.0703,0 2.1211,2.1211 -2.1211,2.1211 -2.1211,-2.1211 z m 7.0703,0 2.1211,2.1211 -2.1211,2.1211 -2.1211,-2.1211 z m 7.0723,0 2.1211,2.1211 -2.1211,2.1211 -2.1211,-2.1211 z m 7.0703,0 2.1211,2.1211 -2.1211,2.1211 -2.1211,-2.1211 z m 7.0703,0 2.123,2.1211 -2.123,2.1211 -2.1211,-2.1211 z m 7.0723,0 2.121,2.1211 -2.121,2.1211 -2.1211,-2.1211 z m 7.0703,0 2.1211,2.1211 -2.1211,2.1211 -2.1211,-2.1211 z m 7.0722,0 2.1211,2.1211 -2.1211,2.1211 -2.123,-2.1211 z m 7.0703,0 2.1211,2.1211 -2.1211,2.1211 -2.121,-2.1211 z m 7.0704,0 2.1211,2.1211 -2.1211,2.1211 -2.1211,-2.1211 z m 7.0722,0 2.1211,2.1211 -2.1211,2.1211 -2.1211,-2.1211 z m -243.9531,3.5352 2.123,2.1211 -2.123,2.1211 -2.1211,-2.1211 z m 7.0723,0 2.1211,2.1211 -2.1211,2.1211 -2.1211,-2.1211 z m 7.0703,0 2.1211,2.1211 -2.1211,2.1211 -2.1211,-2.1211 z m 7.0722,0 2.1211,2.1211 -2.1211,2.1211 -2.123,-2.1211 z m 7.0704,0 2.121,2.1211 -2.121,2.1211 -2.1211,-2.1211 z m 7.0703,0 2.1211,2.1211 -2.1211,2.1211 -2.1211,-2.1211 z m 7.0722,0 2.1211,2.1211 -2.1211,2.1211 -2.1211,-2.1211 z m 7.0703,0 2.1211,2.1211 -2.1211,2.1211 -2.121,-2.1211 z m 7.0723,0 2.1211,2.1211 -2.1211,2.1211 -2.123,-2.1211 z m 7.0703,0 2.1211,2.1211 -2.1211,2.1211 -2.1211,-2.1211 z m 7.0703,0 2.1211,2.1211 -2.1211,2.1211 -2.1211,-2.1211 z m 7.0723,0 2.1211,2.1211 -2.1211,2.1211 -2.1211,-2.1211 z m 7.0703,0 2.1211,2.1211 -2.1211,2.1211 -2.1211,-2.1211 z m 7.0703,0 2.1231,2.1211 -2.1231,2.1211 -2.1211,-2.1211 z m 7.0723,0 2.1211,2.1211 -2.1211,2.1211 -2.1211,-2.1211 z m 7.0703,0 2.1211,2.1211 -2.1211,2.1211 -2.1211,-2.1211 z m 7.0723,0 2.1211,2.1211 -2.1211,2.1211 -2.1211,-2.1211 z m 7.0703,0 2.1211,2.1211 -2.1211,2.1211 -2.1211,-2.1211 z m 7.0703,0 2.123,2.1211 -2.123,2.1211 -2.1211,-2.1211 z m 7.0723,0 2.1211,2.1211 -2.1211,2.1211 -2.1211,-2.1211 z m 7.0703,0 2.1211,2.1211 -2.1211,2.1211 -2.1211,-2.1211 z m 7.0722,0 2.1211,2.1211 -2.1211,2.1211 -2.123,-2.1211 z m 7.0704,0 2.121,2.1211 -2.121,2.1211 -2.1211,-2.1211 z m 7.0703,0 2.1211,2.1211 -2.1211,2.1211 -2.1211,-2.1211 z m 7.0722,0 2.1211,2.1211 -2.1211,2.1211 -2.1211,-2.1211 z m 7.0703,0 2.1211,2.1211 -2.1211,2.1211 -2.1211,-2.1211 z m 7.0704,0 2.123,2.1211 -2.123,2.1211 -2.1211,-2.1211 z m 7.0722,0 2.1211,2.1211 -2.1211,2.1211 -2.1211,-2.1211 z m 7.0703,0 2.1211,2.1211 -2.1211,2.1211 -2.1211,-2.1211 z m 7.0723,0 2.1211,2.1211 -2.1211,2.1211 -2.1211,-2.1211 z m 7.0703,0 2.1211,2.1211 -2.1211,2.1211 -2.1211,-2.1211 z m 7.0703,0 2.1231,2.1211 -2.1231,2.1211 -2.1211,-2.1211 z m 7.0723,0 2.1211,2.1211 -2.1211,2.1211 -2.1211,-2.1211 z m 7.0703,0 2.1211,2.1211 -2.1211,2.1211 -2.1211,-2.1211 z m 7.0723,0 2.1211,2.1211 -2.1211,2.1211 -2.1231,-2.1211 z m 7.0703,0 2.1211,2.1211 -2.1211,2.1211 -2.1211,-2.1211 z" />
      <rect
         style="fill:#008000;stroke:none;stroke-width:0.972546;stroke-linecap:square;stroke-dasharray:none;paint-order:markers stroke fill"
         id="rect12396"
         width="45"
         height="55"
         x="2074.3589"
         y="2300.8843"
         ry="0" />
      <path
         id="rect12396-15"
         style="fill:url(#linearGradient18523);fill-opacity:1;stroke:none;stroke-width:0.972546;stroke-linecap:square;stroke-dasharray:none;paint-order:markers stroke fill"
         d="m 2075.1756,2300.8844 1.3809,1.3808 -2.1211,2.1211 -0.076,-0.076 v 2.9805 l 0.076,-0.076 2.1211,2.1211 -2.1211,2.1211 -0.076,-0.076 v 2.9804 l 0.076,-0.076 2.1211,2.123 -2.1211,2.1211 -0.076,-0.076 v 2.9805 l 0.076,-0.076 2.1211,2.1211 -2.1211,2.1211 -0.076,-0.076 v 2.9805 l 0.076,-0.076 2.1211,2.1211 -2.1211,2.1211 -0.076,-0.076 v 2.9825 l 0.076,-0.076 2.1211,2.1211 -2.1211,2.1211 -0.076,-0.076 v 2.9805 l 0.076,-0.076 2.1211,2.1211 -2.1211,2.1211 -0.076,-0.076 v 2.9805 l 0.076,-0.076 2.1211,2.1211 -2.1211,2.1231 -0.076,-0.076 v 2.0762 h 2.0762 l -0.5859,-0.586 2.123,-2.1211 2.1211,2.1211 -0.5859,0.586 h 4 l -0.586,-0.586 2.1211,-2.1211 2.1211,2.1211 -0.5859,0.586 h 4 l -0.586,-0.586 2.1211,-2.1211 2.1211,2.1211 -0.5859,0.586 h 4.0019 l -0.5859,-0.586 2.1211,-2.1211 2.1211,2.1211 -0.586,0.586 h 4 l -0.5859,-0.586 2.1211,-2.1211 2.1211,2.1211 -0.5859,0.586 h 4 l -0.586,-0.586 2.1211,-2.1211 2.1231,2.1211 -0.586,0.586 h 4 l -0.5859,-0.586 1.082,-1.082 v -4.9082 l -1.082,-1.082 1.082,-1.0821 v -4.9062 l -1.082,-1.0821 1.082,-1.082 v -4.9062 l -1.082,-1.0821 1.082,-1.0839 v -4.9063 l -1.082,-1.082 1.082,-1.0821 v -4.9062 l -1.082,-1.082 1.082,-1.0821 v -4.9082 l -1.082,-1.082 1.082,-1.082 v -4.9063 l -1.082,-1.082 1.082,-1.0821 v -3.8339 h -1.7558 l 1.3808,1.3808 -2.1211,2.1211 -2.1211,-2.1211 1.3809,-1.3808 h -5.5918 l 1.3809,1.3808 -2.1211,2.1211 -2.1211,-2.1211 1.3808,-1.3808 h -5.5898 l 1.3808,1.3808 -2.1211,2.1211 -2.121,-2.1211 1.3808,-1.3808 h -5.5898 l 1.3808,1.3808 -2.1211,2.1211 -2.123,-2.1211 1.3828,-1.3808 h -5.5918 l 1.3809,1.3808 -2.1211,2.1211 -2.1211,-2.1211 1.3808,-1.3808 h -5.5898 l 1.3809,1.3808 -2.1211,2.1211 -2.1211,-2.1211 1.3808,-1.3808 z m 2.7969,2.7949 2.1211,2.1211 -2.1211,2.1211 -2.123,-2.1211 z m 7.0703,0 2.1211,2.1211 -2.1211,2.1211 -2.1211,-2.1211 z m 7.0703,0 2.1211,2.1211 -2.1211,2.1211 -2.1211,-2.1211 z m 7.0723,0 2.1211,2.1211 -2.1211,2.1211 -2.1211,-2.1211 z m 7.0703,0 2.1211,2.1211 -2.1211,2.1211 -2.1211,-2.1211 z m 7.0703,0 2.1231,2.1211 -2.1231,2.1211 -2.1211,-2.1211 z m -31.8183,3.5351 2.1211,2.1211 -2.1211,2.1211 -2.1211,-2.1211 z m 7.0703,0 2.1211,2.1211 -2.1211,2.1211 -2.1211,-2.1211 z m 7.0722,0 2.1211,2.1211 -2.1211,2.1211 -2.123,-2.1211 z m 7.0703,0 2.1211,2.1211 -2.1211,2.1211 -2.121,-2.1211 z m 7.0704,0 2.1211,2.1211 -2.1211,2.1211 -2.1211,-2.1211 z m 7.0722,0 2.1211,2.1211 -2.1211,2.1211 -2.1211,-2.1211 z m -38.8906,3.5352 2.1211,2.1211 -2.1211,2.1211 -2.123,-2.1211 z m 7.0703,0 2.1211,2.1211 -2.1211,2.1211 -2.1211,-2.1211 z m 7.0703,0 2.1211,2.1211 -2.1211,2.1211 -2.1211,-2.1211 z m 7.0723,0 2.1211,2.1211 -2.1211,2.1211 -2.1211,-2.1211 z m 7.0703,0 2.1211,2.1211 -2.1211,2.1211 -2.1211,-2.1211 z m 7.0703,0 2.1231,2.1211 -2.1231,2.1211 -2.1211,-2.1211 z m -31.8183,3.5352 2.1211,2.123 -2.1211,2.1211 -2.1211,-2.1211 z m 7.0703,0 2.1211,2.123 -2.1211,2.1211 -2.1211,-2.1211 z m 7.0722,0 2.1211,2.123 -2.1211,2.1211 -2.123,-2.1211 z m 7.0703,0 2.1211,2.123 -2.1211,2.1211 -2.121,-2.1211 z m 7.0704,0 2.1211,2.123 -2.1211,2.1211 -2.1211,-2.1211 z m 7.0722,0 2.1211,2.123 -2.1211,2.1211 -2.1211,-2.1211 z m -38.8906,3.5371 2.1211,2.1211 -2.1211,2.1211 -2.123,-2.1211 z m 7.0703,0 2.1211,2.1211 -2.1211,2.1211 -2.1211,-2.1211 z m 7.0703,0 2.1211,2.1211 -2.1211,2.1211 -2.1211,-2.1211 z m 7.0723,0 2.1211,2.1211 -2.1211,2.1211 -2.1211,-2.1211 z m 7.0703,0 2.1211,2.1211 -2.1211,2.1211 -2.1211,-2.1211 z m 7.0703,0 2.1231,2.1211 -2.1231,2.1211 -2.1211,-2.1211 z m -31.8183,3.5351 2.1211,2.1211 -2.1211,2.1211 -2.1211,-2.1211 z m 7.0703,0 2.1211,2.1211 -2.1211,2.1211 -2.1211,-2.1211 z m 7.0722,0 2.1211,2.1211 -2.1211,2.1211 -2.123,-2.1211 z m 7.0703,0 2.1211,2.1211 -2.1211,2.1211 -2.121,-2.1211 z m 7.0704,0 2.1211,2.1211 -2.1211,2.1211 -2.1211,-2.1211 z m 7.0722,0 2.1211,2.1211 -2.1211,2.1211 -2.1211,-2.1211 z m -38.8906,3.5352 2.1211,2.1211 -2.1211,2.1211 -2.123,-2.1211 z m 7.0703,0 2.1211,2.1211 -2.1211,2.1211 -2.1211,-2.1211 z m 7.0703,0 2.1211,2.1211 -2.1211,2.1211 -2.1211,-2.1211 z m 7.0723,0 2.1211,2.1211 -2.1211,2.1211 -2.1211,-2.1211 z m 7.0703,0 2.1211,2.1211 -2.1211,2.1211 -2.1211,-2.1211 z m 7.0703,0 2.1231,2.1211 -2.1231,2.1211 -2.1211,-2.1211 z m -31.8183,3.5351 2.1211,2.1211 -2.1211,2.1211 -2.1211,-2.1211 z m 7.0703,0 2.1211,2.1211 -2.1211,2.1211 -2.1211,-2.1211 z m 7.0722,0 2.1211,2.1211 -2.1211,2.1211 -2.123,-2.1211 z m 7.0703,0 2.1211,2.1211 -2.1211,2.1211 -2.121,-2.1211 z m 7.0704,0 2.1211,2.1211 -2.1211,2.1211 -2.1211,-2.1211 z m 7.0722,0 2.1211,2.1211 -2.1211,2.1211 -2.1211,-2.1211 z m -38.8906,3.5352 2.1211,2.123 -2.1211,2.1211 -2.123,-2.1211 z m 7.0703,0 2.1211,2.123 -2.1211,2.1211 -2.1211,-2.1211 z m 7.0703,0 2.1211,2.123 -2.1211,2.1211 -2.1211,-2.1211 z m 7.0723,0 2.1211,2.123 -2.1211,2.1211 -2.1211,-2.1211 z m 7.0703,0 2.1211,2.123 -2.1211,2.1211 -2.1211,-2.1211 z m 7.0703,0 2.1231,2.123 -2.1231,2.1211 -2.1211,-2.1211 z m -31.8183,3.5371 2.1211,2.1211 -2.1211,2.1211 -2.1211,-2.1211 z m 7.0703,0 2.1211,2.1211 -2.1211,2.1211 -2.1211,-2.1211 z m 7.0722,0 2.1211,2.1211 -2.1211,2.1211 -2.123,-2.1211 z m 7.0703,0 2.1211,2.1211 -2.1211,2.1211 -2.121,-2.1211 z m 7.0704,0 2.1211,2.1211 -2.1211,2.1211 -2.1211,-2.1211 z m 7.0722,0 2.1211,2.1211 -2.1211,2.1211 -2.1211,-2.1211 z m -38.8906,3.5352 2.1211,2.121 -2.1211,2.1211 -2.123,-2.1211 z m 7.0703,0 2.1211,2.121 -2.1211,2.1211 -2.1211,-2.1211 z m 7.0703,0 2.1211,2.121 -2.1211,2.1211 -2.1211,-2.1211 z m 7.0723,0 2.1211,2.121 -2.1211,2.1211 -2.1211,-2.1211 z m 7.0703,0 2.1211,2.121 -2.1211,2.1211 -2.1211,-2.1211 z m 7.0703,0 2.1231,2.121 -2.1231,2.1211 -2.1211,-2.1211 z m -31.8183,3.5351 2.1211,2.1211 -2.1211,2.1211 -2.1211,-2.1211 z m 7.0703,0 2.1211,2.1211 -2.1211,2.1211 -2.1211,-2.1211 z m 7.0722,0 2.1211,2.1211 -2.1211,2.1211 -2.123,-2.1211 z m 7.0703,0 2.1211,2.1211 -2.1211,2.1211 -2.121,-2.1211 z m 7.0704,0 2.1211,2.1211 -2.1211,2.1211 -2.1211,-2.1211 z m 7.0722,0 2.1211,2.1211 -2.1211,2.1211 -2.1211,-2.1211 z m -38.8906,3.5352 2.1211,2.1211 -2.1211,2.1211 -2.123,-2.1211 z m 7.0703,0 2.1211,2.1211 -2.1211,2.1211 -2.1211,-2.1211 z m 7.0703,0 2.1211,2.1211 -2.1211,2.1211 -2.1211,-2.1211 z m 7.0723,0 2.1211,2.1211 -2.1211,2.1211 -2.1211,-2.1211 z m 7.0703,0 2.1211,2.1211 -2.1211,2.1211 -2.1211,-2.1211 z m 7.0703,0 2.1231,2.1211 -2.1231,2.1211 -2.1211,-2.1211 z m -31.8183,3.5351 2.1211,2.1211 -2.1211,2.1231 -2.1211,-2.1231 z m 7.0703,0 2.1211,2.1211 -2.1211,2.1231 -2.1211,-2.1231 z m 7.0722,0 2.1211,2.1211 -2.1211,2.1231 -2.123,-2.1231 z m 7.0703,0 2.1211,2.1211 -2.1211,2.1231 -2.121,-2.1231 z m 7.0704,0 2.1211,2.1211 -2.1211,2.1231 -2.1211,-2.1231 z m 7.0722,0 2.1211,2.1211 -2.1211,2.1231 -2.1211,-2.1231 z" />
      <rect
         style="fill:#008000;stroke:none;stroke-width:0.972546;stroke-linecap:square;stroke-dasharray:none;paint-order:markers stroke fill"
         id="rect12396-1"
         width="45"
         height="55"
         x="1763.7117"
         y="2397.9893" />
      <path
         id="rect12396-1-2"
         style="fill:url(#linearGradient17759);fill-opacity:1;stroke:none;stroke-width:0.972546;stroke-linecap:square;stroke-dasharray:none;paint-order:markers stroke fill"
         d="m 1763.7114,2397.9894 v 1.5528 l 1.7168,1.7168 -1.7168,1.7168 v 3.6367 l 1.7168,1.7187 -1.7168,1.7168 v 3.6367 l 1.7168,1.7168 -1.7168,1.7168 v 3.6368 l 1.7168,1.7168 -1.7168,1.7168 v 3.6386 l 1.7168,1.7168 -1.7168,1.7168 v 3.6367 l 1.7168,1.7168 -1.7168,1.7168 v 3.6367 l 1.7168,1.7168 -1.7168,1.7188 v 3.6367 l 1.7168,1.7168 -1.7168,1.7168 v 0.5156 h 2.3145 l 0.8183,-0.8183 0.8184,0.8183 h 5.4336 l 0.8184,-0.8183 0.8183,0.8183 h 5.4336 l 0.8184,-0.8183 0.8183,0.8183 h 5.4356 l 0.8183,-0.8183 0.8184,0.8183 h 5.4336 l 0.8184,-0.8183 0.8183,0.8183 h 5.4336 l 0.8184,-0.8183 0.8183,0.8183 h 5.4356 l 0.2597,-0.2597 v -3.9453 l -1.5625,-1.5625 1.5625,-1.5625 v -3.9473 l -1.5625,-1.5625 1.5625,-1.5625 v -3.9453 l -1.5625,-1.5625 1.5625,-1.5625 v -3.9453 l -1.5625,-1.5625 1.5625,-1.5645 v -3.9453 l -1.5625,-1.5625 1.5625,-1.5625 v -3.9453 l -1.5625,-1.5625 1.5625,-1.5625 v -3.9453 l -1.5625,-1.5645 1.5625,-1.5625 v -3.9453 l -1.2968,-1.2969 h -3.3594 l -1.8574,1.8555 -1.8555,-1.8555 h -3.3594 l -1.8554,1.8555 -1.8555,-1.8555 h -3.3594 l -1.8555,1.8555 -1.8554,-1.8555 h -3.3614 l -1.8554,1.8555 -1.8555,-1.8555 h -3.3594 l -1.8554,1.8555 -1.8555,-1.8555 h -3.3594 l -1.8555,1.8555 -1.8574,-1.8555 z m 6.668,1.1485 2.1211,2.1211 -2.1211,2.1211 -2.1211,-2.1211 z m 7.0703,0 2.1211,2.1211 -2.1211,2.1211 -2.1211,-2.1211 z m 7.0703,0 2.1231,2.1211 -2.1231,2.1211 -2.1211,-2.1211 z m 7.0723,0 2.1211,2.1211 -2.1211,2.1211 -2.1211,-2.1211 z m 7.0703,0 2.1211,2.1211 -2.1211,2.1211 -2.1211,-2.1211 z m 7.0723,0 2.1211,2.1211 -2.1211,2.1211 -2.1211,-2.1211 z m -38.8907,3.5351 2.1211,2.1211 -2.1211,2.1231 -2.123,-2.1231 z m 7.0704,0 2.1211,2.1211 -2.1211,2.1231 -2.1211,-2.1231 z m 7.0703,0 2.1211,2.1211 -2.1211,2.1231 -2.1211,-2.1231 z m 7.0722,0 2.1211,2.1211 -2.1211,2.1231 -2.1211,-2.1231 z m 7.0704,0 2.121,2.1211 -2.121,2.1231 -2.1211,-2.1231 z m 7.0703,0 2.123,2.1211 -2.123,2.1231 -2.1211,-2.1231 z m -31.8184,3.5352 2.1211,2.123 -2.1211,2.1211 -2.1211,-2.1211 z m 7.0703,0 2.1211,2.123 -2.1211,2.1211 -2.1211,-2.1211 z m 7.0703,0 2.1231,2.123 -2.1231,2.1211 -2.1211,-2.1211 z m 7.0723,0 2.1211,2.123 -2.1211,2.1211 -2.1211,-2.1211 z m 7.0703,0 2.1211,2.123 -2.1211,2.1211 -2.1211,-2.1211 z m 7.0723,0 2.1211,2.123 -2.1211,2.1211 -2.1211,-2.1211 z m -38.8907,3.5371 2.1211,2.1211 -2.1211,2.1211 -2.123,-2.1211 z m 7.0704,0 2.1211,2.1211 -2.1211,2.1211 -2.1211,-2.1211 z m 7.0703,0 2.1211,2.1211 -2.1211,2.1211 -2.1211,-2.1211 z m 7.0722,0 2.1211,2.1211 -2.1211,2.1211 -2.1211,-2.1211 z m 7.0704,0 2.121,2.1211 -2.121,2.1211 -2.1211,-2.1211 z m 7.0703,0 2.123,2.1211 -2.123,2.1211 -2.1211,-2.1211 z m -31.8184,3.5351 2.1211,2.1211 -2.1211,2.1211 -2.1211,-2.1211 z m 7.0703,0 2.1211,2.1211 -2.1211,2.1211 -2.1211,-2.1211 z m 7.0703,0 2.1231,2.1211 -2.1231,2.1211 -2.1211,-2.1211 z m 7.0723,0 2.1211,2.1211 -2.1211,2.1211 -2.1211,-2.1211 z m 7.0703,0 2.1211,2.1211 -2.1211,2.1211 -2.1211,-2.1211 z m 7.0723,0 2.1211,2.1211 -2.1211,2.1211 -2.1211,-2.1211 z m -38.8907,3.5352 2.1211,2.1211 -2.1211,2.1211 -2.123,-2.1211 z m 7.0704,0 2.1211,2.1211 -2.1211,2.1211 -2.1211,-2.1211 z m 7.0703,0 2.1211,2.1211 -2.1211,2.1211 -2.1211,-2.1211 z m 7.0722,0 2.1211,2.1211 -2.1211,2.1211 -2.1211,-2.1211 z m 7.0704,0 2.121,2.1211 -2.121,2.1211 -2.1211,-2.1211 z m 7.0703,0 2.123,2.1211 -2.123,2.1211 -2.1211,-2.1211 z m -31.8184,3.5352 2.1211,2.1211 -2.1211,2.121 -2.1211,-2.121 z m 7.0703,0 2.1211,2.1211 -2.1211,2.121 -2.1211,-2.121 z m 7.0703,0 2.1231,2.1211 -2.1231,2.121 -2.1211,-2.121 z m 7.0723,0 2.1211,2.1211 -2.1211,2.121 -2.1211,-2.121 z m 7.0703,0 2.1211,2.1211 -2.1211,2.121 -2.1211,-2.121 z m 7.0723,0 2.1211,2.1211 -2.1211,2.121 -2.1211,-2.121 z m -38.8907,3.5351 2.1211,2.1231 -2.1211,2.1211 -2.123,-2.1211 z m 7.0704,0 2.1211,2.1231 -2.1211,2.1211 -2.1211,-2.1211 z m 7.0703,0 2.1211,2.1231 -2.1211,2.1211 -2.1211,-2.1211 z m 7.0722,0 2.1211,2.1231 -2.1211,2.1211 -2.1211,-2.1211 z m 7.0704,0 2.121,2.1231 -2.121,2.1211 -2.1211,-2.1211 z m 7.0703,0 2.123,2.1231 -2.123,2.1211 -2.1211,-2.1211 z m -31.8184,3.5371 2.1211,2.1211 -2.1211,2.1211 -2.1211,-2.1211 z m 7.0703,0 2.1211,2.1211 -2.1211,2.1211 -2.1211,-2.1211 z m 7.0703,0 2.1231,2.1211 -2.1231,2.1211 -2.1211,-2.1211 z m 7.0723,0 2.1211,2.1211 -2.1211,2.1211 -2.1211,-2.1211 z m 7.0703,0 2.1211,2.1211 -2.1211,2.1211 -2.1211,-2.1211 z m 7.0723,0 2.1211,2.1211 -2.1211,2.1211 -2.1211,-2.1211 z m -38.8907,3.5352 2.1211,2.1211 -2.1211,2.1211 -2.123,-2.1211 z m 7.0704,0 2.1211,2.1211 -2.1211,2.1211 -2.1211,-2.1211 z m 7.0703,0 2.1211,2.1211 -2.1211,2.1211 -2.1211,-2.1211 z m 7.0722,0 2.1211,2.1211 -2.1211,2.1211 -2.1211,-2.1211 z m 7.0704,0 2.121,2.1211 -2.121,2.1211 -2.1211,-2.1211 z m 7.0703,0 2.123,2.1211 -2.123,2.1211 -2.1211,-2.1211 z m -31.8184,3.5351 2.1211,2.1211 -2.1211,2.1211 -2.1211,-2.1211 z m 7.0703,0 2.1211,2.1211 -2.1211,2.1211 -2.1211,-2.1211 z m 7.0703,0 2.1231,2.1211 -2.1231,2.1211 -2.1211,-2.1211 z m 7.0723,0 2.1211,2.1211 -2.1211,2.1211 -2.1211,-2.1211 z m 7.0703,0 2.1211,2.1211 -2.1211,2.1211 -2.1211,-2.1211 z m 7.0723,0 2.1211,2.1211 -2.1211,2.1211 -2.1211,-2.1211 z m -38.8907,3.5352 2.1211,2.1211 -2.1211,2.1211 -2.123,-2.1211 z m 7.0704,0 2.1211,2.1211 -2.1211,2.1211 -2.1211,-2.1211 z m 7.0703,0 2.1211,2.1211 -2.1211,2.1211 -2.1211,-2.1211 z m 7.0722,0 2.1211,2.1211 -2.1211,2.1211 -2.1211,-2.1211 z m 7.0704,0 2.121,2.1211 -2.121,2.1211 -2.1211,-2.1211 z m 7.0703,0 2.123,2.1211 -2.123,2.1211 -2.1211,-2.1211 z m -31.8184,3.5352 2.1211,2.121 -2.1211,2.1231 -2.1211,-2.1231 z m 7.0703,0 2.1211,2.121 -2.1211,2.1231 -2.1211,-2.1231 z m 7.0703,0 2.1231,2.121 -2.1231,2.1231 -2.1211,-2.1231 z m 7.0723,0 2.1211,2.121 -2.1211,2.1231 -2.1211,-2.1231 z m 7.0703,0 2.1211,2.121 -2.1211,2.1231 -2.1211,-2.1231 z m 7.0723,0 2.1211,2.121 -2.1211,2.1231 -2.1211,-2.1231 z m -38.8907,3.5371 2.1211,2.1211 -2.1211,2.121 -2.123,-2.121 z m 7.0704,0 2.1211,2.1211 -2.1211,2.121 -2.1211,-2.121 z m 7.0703,0 2.1211,2.1211 -2.1211,2.121 -2.1211,-2.121 z m 7.0722,0 2.1211,2.1211 -2.1211,2.121 -2.1211,-2.121 z m 7.0704,0 2.121,2.1211 -2.121,2.121 -2.1211,-2.121 z m 7.0703,0 2.123,2.1211 -2.123,2.121 -2.1211,-2.121 z m -31.8184,3.5351 2.1211,2.1211 -2.1211,2.1211 -2.1211,-2.1211 z m 7.0703,0 2.1211,2.1211 -2.1211,2.1211 -2.1211,-2.1211 z m 7.0703,0 2.1231,2.1211 -2.1231,2.1211 -2.1211,-2.1211 z m 7.0723,0 2.1211,2.1211 -2.1211,2.1211 -2.1211,-2.1211 z m 7.0703,0 2.1211,2.1211 -2.1211,2.1211 -2.1211,-2.1211 z m 7.0723,0 2.1211,2.1211 -2.1211,2.1211 -2.1211,-2.1211 z" />
      <rect
         style="fill:url(#linearGradient16139);fill-opacity:1;stroke:none;stroke-width:1.08632;stroke-linecap:square;stroke-dasharray:none;paint-order:markers stroke fill"
         id="rect12394-5"
         width="52"
         height="52"
         x="1760.2117"
         y="2355.7415"
         inkscape:label="elbow-left" />
      <rect
         style="fill:url(#linearGradient16081);fill-opacity:1;stroke:none;stroke-width:1.08632;stroke-linecap:square;stroke-dasharray:none;paint-order:markers stroke fill"
         id="rect12394"
         width="52"
         height="52"
         x="2070.8589"
         y="2355.7415"
         inkscape:label="elbow-right" />
    </g>
  </g>
</svg>
