<?xml version="1.0" encoding="UTF-8" standalone="no"?>
<!-- Created with Inkscape (http://www.inkscape.org/) -->

<svg
   width="1515"
   height="515"
   viewBox="0 0 1515 515"
   version="1.1"
   id="svg6732"
   inkscape:version="1.2.2 (732a01da63, 2022-12-09)"
   sodipodi:docname="readout.svg"
   xmlns:inkscape="http://www.inkscape.org/namespaces/inkscape"
   xmlns:sodipodi="http://sodipodi.sourceforge.net/DTD/sodipodi-0.dtd"
   xmlns="http://www.w3.org/2000/svg"
   xmlns:svg="http://www.w3.org/2000/svg">
  <sodipodi:namedview
     id="namedview6734"
     pagecolor="#ffffff"
     bordercolor="#000000"
     borderopacity="0.25"
     inkscape:showpageshadow="2"
     inkscape:pageopacity="0.0"
     inkscape:pagecheckerboard="0"
     inkscape:deskcolor="#d1d1d1"
     inkscape:document-units="px"
     showgrid="false"
     inkscape:zoom="0.5852904"
     inkscape:cx="807.29156"
     inkscape:cy="286.18272"
     inkscape:window-width="1600"
     inkscape:window-height="838"
     inkscape:window-x="-6"
     inkscape:window-y="-6"
     inkscape:window-maximized="1"
     inkscape:current-layer="resolution" />
  <defs
     id="defs6729" />
  <g
     inkscape:label="readout"
     inkscape:groupmode="layer"
     id="readout"
     transform="translate(360.26133,-322.17692)">
    <path
       id="background"
       style="fill:#1d2022;fill-opacity:1;stroke:#daa520;stroke-width:15;stroke-linecap:square;stroke-linejoin:round;stroke-dasharray:none;stroke-opacity:1;paint-order:fill markers stroke"
       d="m -345.26132,917.24467 v 250.00003 250 h 750 750.00002 v -250 -250.00003 H 404.73868 Z"
       transform="translate(-7.50001,-587.56775)" />
    <g
       id="resolution">
      <rect
         style="fill:#ffffff;fill-opacity:1;stroke:none;stroke-width:13.7634;stroke-linecap:square;stroke-linejoin:round;stroke-dasharray:none;stroke-opacity:1;paint-order:fill markers stroke"
         id="resolution-text-box"
         width="700"
         height="100"
         x="422.23868"
         y="704.67694" />
      <text
         xml:space="preserve"
         style="font-style:normal;font-variant:normal;font-weight:normal;font-stretch:normal;font-size:85.3333px;font-family:'Franklin Gothic Medium';-inkscape-font-specification:'Franklin Gothic Medium, Normal';font-variant-ligatures:normal;font-variant-caps:normal;font-variant-numeric:normal;font-variant-east-asian:normal;fill:#000000;fill-opacity:1;stroke:none;stroke-width:15;stroke-linecap:square;stroke-linejoin:round;stroke-dasharray:none;stroke-opacity:1;paint-order:fill markers stroke"
         x="478.38461"
         y="775.57275"
         id="resolution-value"><tspan
           sodipodi:role="line"
           id="tspan892"
           x="478.38461"
           y="775.57275">props.resolution</tspan></text>
      <text
         xml:space="preserve"
         style="font-style:normal;font-variant:normal;font-weight:normal;font-stretch:normal;font-size:85.3333px;font-family:'Franklin Gothic Medium';-inkscape-font-specification:'Franklin Gothic Medium, Normal';font-variant-ligatures:normal;font-variant-caps:normal;font-variant-numeric:normal;font-variant-east-asian:normal;fill:#ffffff;fill-opacity:1;stroke:none;stroke-width:15;stroke-linecap:square;stroke-linejoin:round;stroke-dasharray:none;stroke-opacity:1;paint-order:fill markers stroke"
         x="1122.7727"
         y="715.5791"
         id="resolution-title" />
      <g
         aria-label="Resolution"
         id="resolution-text"
         style="font-size:85.3333px;font-family:'Franklin Gothic Medium';-inkscape-font-specification:'Franklin Gothic Medium, Normal';fill:#ffffff;stroke-width:15;stroke-linecap:square;stroke-linejoin:round;paint-order:fill markers stroke">
        <path
           d="m 628.00958,661.55194 h -10.83333 l -8.83333,-23.37499 h -14.41666 v 23.37499 h -10.24999 v -56.87498 h 24.66665 q 10.29167,0 15.125,4.66667 4.83333,4.625 4.83333,11.99999 0,10.95833 -10.25,15.08333 z m -34.08332,-31.58332 h 12.75 q 5.54166,0 8.24999,-2.33333 2.70834,-2.33333 2.70834,-6.41667 0,-3.74999 -2.66667,-6.04166 -2.66667,-2.33333 -7.45833,-2.33333 h -13.58333 z"
           id="path936" />
        <path
           d="m 663.67623,648.13528 8.58333,1.16667 q -1.66666,5.70833 -6.49999,9.41666 -4.83333,3.70833 -12.125,3.70833 -8.74999,0 -14.08333,-5.875 -5.33333,-5.87499 -5.33333,-15.91666 0,-9.54166 5.375,-15.79166 5.375,-6.24999 14.58333,-6.24999 8.99999,0 13.91666,6.16666 4.91666,6.16666 4.91666,15.83333 l -0.0417,1.08333 h -28.87499 q 0,4.29166 0.79167,6.875 0.83333,2.58333 3.24999,4.49999 2.41667,1.91667 6.04167,1.91667 7.04166,0 9.49999,-6.83333 z m -0.58333,-12.58333 q -0.0417,-4.54166 -2.75,-7.41666 -2.66666,-2.875 -6.62499,-2.875 -3.91667,0 -6.54167,2.70833 -2.625,2.66667 -3.08333,7.58333 z"
           id="path938" />
        <path
           d="m 676.55123,651.88528 8.91666,-1.70833 q 2.04167,5.12499 9,5.12499 8.83333,0 8.83333,-5.20833 0,-1.66666 -1.375,-2.75 -1.375,-1.08333 -3.25,-1.45833 l -7.66666,-1.45833 q -12.75,-2.45833 -12.75,-12.45833 0,-5.58333 4.04167,-9.45833 4.04166,-3.91666 12.04166,-3.91666 13.33333,0 16.29166,9.79166 l -8.45833,1.70833 q -1.33333,-4.75 -7.58333,-4.75 -7.58333,0 -7.58333,4.75 0,3.29167 6.125,4.54167 l 9.04166,1.87499 q 10.54166,2.16667 10.54166,12.08333 0,6.95833 -5.41666,10.41667 -5.41667,3.41666 -12.875,3.41666 -6.45833,0 -11.41666,-2.58333 -4.95833,-2.625 -6.45833,-7.95833 z"
           id="path940" />
        <path
           d="m 736.88454,662.42694 q -9.33333,0 -14.25,-6.70833 -4.91666,-6.70833 -4.91666,-15.37499 0,-9.33333 5.41666,-15.54166 5.45833,-6.20833 14.375,-6.20833 8.45833,0 13.87499,6.04166 5.45833,6.04166 5.45833,15.70833 0,9.95833 -5.66666,16.04166 -5.625,6.04166 -14.29166,6.04166 z m 0.33333,-7.83333 q 9.58333,0 9.58333,-14.29166 0,-6.45833 -2.29167,-10.16666 -2.29166,-3.75 -7.04166,-3.75 -4.91666,0 -7.29166,3.875 -2.375,3.83333 -2.375,10.20833 0,6.87499 2.5,10.49999 2.54166,3.625 6.91666,3.625 z"
           id="path942" />
        <path
           d="m 775.00953,661.55194 h -9.5 v -56.87498 h 9.5 z"
           id="path944" />
        <path
           d="m 821.05117,661.55194 h -8.83333 v -9.08333 q -3.58334,9.95833 -13.29166,9.95833 -5.75,0 -9.125,-3.54166 -3.375,-3.58334 -3.375,-9.95833 v -29.45832 h 9.70833 v 27.41665 q 0,4.54167 2,5.95833 2,1.41667 3.91666,1.41667 3.08334,0 6.29167,-2.75 3.20833,-2.79167 3.20833,-11.83333 v -20.20832 h 9.5 z"
           id="path946" />
        <path
           d="m 851.96783,654.13528 v 7.41666 q -4.25,0.91667 -6.58333,0.91667 -3.83333,0 -6.58333,-1.5 -2.75,-1.54167 -4.04167,-4.16667 -1.25,-2.66666 -1.25,-8.16666 v -21.79166 h -5.24999 v -7.37499 h 5.79166 l 0.875,-10.95833 7.79166,-0.70834 v 11.66667 h 8.45833 v 7.37499 h -8.45833 v 20.54166 q 0,3.95833 1.41667,5.41666 1.45833,1.41667 5.45833,1.41667 1.125,0 2.375,-0.0833 z"
           id="path948" />
        <path
           d="m 869.42615,614.55196 h -9.49999 v -9.875 h 9.49999 z m 0,46.99998 h -9.49999 v -42.08331 h 9.49999 z"
           id="path950" />
        <path
           d="m 897.30115,662.42694 q -9.33333,0 -14.25,-6.70833 -4.91666,-6.70833 -4.91666,-15.37499 0,-9.33333 5.41666,-15.54166 5.45834,-6.20833 14.375,-6.20833 8.45833,0 13.87499,6.04166 5.45833,6.04166 5.45833,15.70833 0,9.95833 -5.66666,16.04166 -5.625,6.04166 -14.29166,6.04166 z m 0.33333,-7.83333 q 9.58333,0 9.58333,-14.29166 0,-6.45833 -2.29166,-10.16666 -2.29167,-3.75 -7.04167,-3.75 -4.91666,0 -7.29166,3.875 -2.375,3.83333 -2.375,10.20833 0,6.87499 2.5,10.49999 2.54166,3.625 6.91666,3.625 z"
           id="path952" />
        <path
           d="m 960.80111,661.55194 h -9.5 v -26.29165 q 0,-4.16667 -1.91666,-6.25 -1.91667,-2.125 -4.625,-2.125 -3.70833,0 -6.5,3.25 -2.79166,3.25 -2.79166,9.79166 v 21.62499 h -9.5 v -42.08331 h 8.66666 v 9.74999 q 4.54167,-10.62499 12.75,-10.62499 5.54166,0 9.45833,3.49999 3.95833,3.5 3.95833,12.29167 z"
           id="path954" />
      </g>
    </g>
    <g
       id="range"
       inkscape:label="range">
      <g
         aria-label="Range"
         id="range-title"
         style="font-size:85.3333px;font-family:'Franklin Gothic Medium';-inkscape-font-specification:'Franklin Gothic Medium, Normal';fill:#ffffff;stroke-width:15;stroke-linecap:square;stroke-linejoin:round;paint-order:fill markers stroke">
        <path
           d="m -46.886285,661.55194 h -10.833328 l -8.83333,-23.37499 h -14.416661 v 23.37499 h -10.249995 v -56.87498 h 24.666656 q 10.291662,0 15.124994,4.66667 4.833331,4.625 4.833331,11.99999 0,10.95833 -10.249996,15.08333 z m -34.083319,-31.58332 h 12.749995 q 5.541664,0 8.249996,-2.33333 2.708333,-2.33333 2.708333,-6.41667 0,-3.74999 -2.666666,-6.04166 -2.666665,-2.33333 -7.45833,-2.33333 h -13.583328 z"
           id="path925" />
        <path
           d="M -0.92797176,661.55194 H -9.9696347 q -1.2083323,-3.83333 -1.4583323,-8.5 -3.791665,9.375 -14.249994,9.375 -6.291664,0 -10.124996,-3.66666 -3.791665,-3.70834 -3.791665,-9.29167 0,-14.49999 25.458322,-14.49999 1,0 2.708333,0.0417 v -3.16667 q 0,-6.54166 -8.916663,-6.54166 -8.666663,0 -9.83333,6.54166 l -8.08333,-1.20833 q 0.666667,-5.25 5.416665,-8.625 4.749998,-3.41666 13.749994,-3.41666 4.874998,0 7.95833,0.83333 3.0833322,0.79166 5.2083313,2.75 2.1249991,1.91666 2.9166655,4.20833 0.833333,2.25 0.833333,7.66666 v 18.99999 q 0,4.125 1.24999944,8.5 z M -11.427967,640.13528 q -18.416659,0 -18.416659,8.79167 0,2.625 1.833332,4.49999 1.874999,1.83334 5.624998,1.83334 5.416664,0 8.166663,-3.41667 2.791666,-3.45833 2.791666,-7.83333 z"
           id="path927" />
        <path
           d="m 44.030343,661.55194 h -9.499996 v -26.29165 q 0,-4.16667 -1.916666,-6.25 -1.916666,-2.125 -4.624998,-2.125 -3.708332,0 -6.499997,3.25 -2.791666,3.25 -2.791666,9.79166 v 21.62499 H 9.1970242 v -42.08331 h 8.6666628 v 9.74999 q 4.541665,-10.62499 12.749995,-10.62499 5.541664,0 9.458329,3.49999 3.958332,3.5 3.958332,12.29167 z"
           id="path929" />
        <path
           d="m 93.780314,611.42696 v 7.29167 h -2.916666 q -1.916666,0 -3.374999,0.45833 -1.416666,0.45833 -2.791665,2.95833 4.999998,4.08333 4.999998,9.08333 0,5.58333 -4.708331,9.25 -4.666665,3.66666 -12.374995,3.66666 -3.333332,0 -7.791664,-1.08333 -2.916665,1.33333 -2.916665,4.125 0,1.54166 1.416666,2.83333 1.416666,1.29167 4.291665,1.29167 h 12.499995 q 6.416664,0 10.041662,3.33333 3.666665,3.29166 3.666665,8.20833 0,5.95833 -5.541664,9.87499 -5.499998,3.91667 -16.333327,3.91667 -20.374991,0 -20.374991,-11.375 0,-5.62499 6.124997,-8.54166 -3.916665,-3.33333 -3.916665,-6.95833 0,-5.5 6.708331,-8.75 -5.833331,-3.54166 -5.833331,-9.74999 0,-5.25 4.291665,-8.95833 4.291665,-3.70833 13.041661,-3.70833 3.999998,0 8.124997,0.875 1.916665,-8.04167 10.124995,-8.04167 z m -21.583325,27.08332 q 7.749997,0 7.749997,-7.29166 0,-2.79167 -1.958333,-4.70833 -1.916665,-1.91667 -5.624997,-1.91667 -3.749999,0 -5.833331,2 -2.041666,2 -2.041666,5 0,3.08333 2.041666,5 2.041666,1.91666 5.666664,1.91666 z m -10.416662,20.75 q -2.041666,1.87499 -2.041666,3.62499 0,2.875 3.416665,5.04167 3.416666,2.20833 10.874996,2.20833 10.958329,0 10.958329,-5.625 0,-2.08333 -1.916666,-3.125 -1.916666,-1.08333 -4.374999,-1.08333 H 68.613657 q -2.874998,0 -6.83333,-1.04166 z"
           id="path931" />
        <path
           d="m 126.36363,648.13528 8.58333,1.16667 q -1.66666,5.70833 -6.5,9.41666 -4.83333,3.70833 -12.12499,3.70833 -8.75,0 -14.08333,-5.875 -5.33333,-5.87499 -5.33333,-15.91666 0,-9.54166 5.375,-15.79166 5.375,-6.24999 14.58333,-6.24999 8.99999,0 13.91666,6.16666 4.91666,6.16666 4.91666,15.83333 l -0.0417,1.08333 h -28.87498 q 0,4.29166 0.79166,6.875 0.83334,2.58333 3.25,4.49999 2.41667,1.91667 6.04167,1.91667 7.04166,0 9.49999,-6.83333 z m -0.58333,-12.58333 q -0.0417,-4.54166 -2.75,-7.41666 -2.66667,-2.875 -6.625,-2.875 -3.91666,0 -6.54166,2.70833 -2.625,2.66667 -3.08333,7.58333 z"
           id="path933" />
      </g>
      <rect
         style="fill:#ffffff;fill-opacity:1;stroke:none;stroke-width:13.7634;stroke-linecap:square;stroke-linejoin:round;stroke-dasharray:none;stroke-opacity:1;paint-order:fill markers stroke"
         id="range-text-box"
         width="700"
         height="100"
         x="-327.76132"
         y="704.67694" />
      <text
         xml:space="preserve"
         style="font-style:normal;font-variant:normal;font-weight:normal;font-stretch:normal;font-size:85.3333px;font-family:'Franklin Gothic Medium';-inkscape-font-specification:'Franklin Gothic Medium, Normal';font-variant-ligatures:normal;font-variant-caps:normal;font-variant-numeric:normal;font-variant-east-asian:normal;fill:#000000;fill-opacity:1;stroke:none;stroke-width:15;stroke-linecap:square;stroke-linejoin:round;stroke-dasharray:none;stroke-opacity:1;paint-order:fill markers stroke"
         x="-195.99039"
         y="775.57275"
         id="range-value"><tspan
           sodipodi:role="line"
           id="tspan890"
           x="-195.99039"
           y="775.57275">props.range</tspan></text>
    </g>
    <g
       id="scan">
      <g
         aria-label="Scans"
         id="scan-title"
         style="font-size:85.3333px;font-family:'Franklin Gothic Medium';-inkscape-font-specification:'Franklin Gothic Medium, Normal';fill:#ffffff;stroke-width:15;stroke-linecap:square;stroke-linejoin:round;paint-order:fill markers stroke">
        <path
           d="m 663.59288,398.71858 9.95832,-2.125 q 1.79167,8.45833 13.75,8.45833 5.45833,0 8.37499,-2.16666 2.95834,-2.16667 2.95834,-5.375 0,-2.33333 -1.33334,-4.29166 -1.33333,-2 -5.70833,-3.125 l -10.87499,-2.83334 q -5.58333,-1.45833 -8.25,-3.29166 -2.66666,-1.875 -4.29166,-5.25 -1.58334,-3.375 -1.58334,-7.20833 0,-7.625 5.66667,-12.20833 5.66666,-4.625 14.49999,-4.625 7.33333,0 13.08333,3.20834 5.79166,3.20833 7.375,9.08333 l -9.75,2.41666 q -2.25,-6.45833 -10.49999,-6.45833 -4.79167,0 -7.33333,2 -2.5,2 -2.5,5.08333 0,4.875 7.91666,6.83333 l 9.66666,2.41667 q 8.79167,2.20833 11.79166,6.54166 3,4.29167 3,9.5 0,8.37499 -6.33333,13.20833 -6.29166,4.79166 -16.33332,4.79166 -8.45833,0 -14.83333,-3.54167 -6.33333,-3.54166 -8.41666,-11.04166 z"
           id="path914" />
        <path
           d="m 742.05118,396.96858 8.16666,0.83334 q -1.58333,7.91666 -6.125,11.70832 -4.54166,3.79167 -10.95833,3.79167 -8.70833,0 -13.41666,-6.33333 -4.66666,-6.375 -4.66666,-15.58333 0,-9.49999 5.125,-15.70832 5.12499,-6.20834 13.66666,-6.20834 13.74999,0 16.37499,14.5 l -8.16666,1.125 q -1.08334,-7.83333 -7.70833,-7.83333 -4.83333,0 -7.04167,4.25 -2.16666,4.20833 -2.16666,10.20833 0,6.37499 2.25,9.83332 2.29166,3.45834 6.37499,3.45834 6.25,0 8.29167,-8.04167 z"
           id="path916" />
        <path
           d="m 793.50949,412.42691 h -9.04166 q -1.20833,-3.83333 -1.45833,-8.5 -3.79167,9.375 -14.25,9.375 -6.29166,0 -10.12499,-3.66667 -3.79167,-3.70833 -3.79167,-9.29166 0,-14.49999 25.45833,-14.49999 1,0 2.70833,0.0417 v -3.16666 q 0,-6.54166 -8.91666,-6.54166 -8.66667,0 -9.83333,6.54166 l -8.08333,-1.20833 q 0.66666,-5.25 5.41666,-8.625 4.75,-3.41667 13.74999,-3.41667 4.875,0 7.95833,0.83334 3.08334,0.79166 5.20834,2.75 2.125,1.91666 2.91666,4.20833 0.83333,2.25 0.83333,7.66666 v 18.99999 q 0,4.125 1.25,8.5 z M 783.0095,391.01025 q -18.41666,0 -18.41666,8.79167 0,2.62499 1.83333,4.49999 1.875,1.83334 5.625,1.83334 5.41666,0 8.16666,-3.41667 2.79167,-3.45833 2.79167,-7.83333 z"
           id="path918" />
        <path
           d="m 838.4678,412.42691 h -9.5 v -26.29166 q 0,-4.16666 -1.91666,-6.24999 -1.91667,-2.125 -4.625,-2.125 -3.70833,0 -6.5,3.25 -2.79167,3.25 -2.79167,9.79166 v 21.62499 h -9.49999 v -42.08332 h 8.66666 v 9.75 q 4.54167,-10.625 12.75,-10.625 5.54166,0 9.45833,3.5 3.95833,3.5 3.95833,12.29167 z"
           id="path920" />
        <path
           d="m 844.71779,402.76025 8.91667,-1.70833 q 2.04166,5.12499 8.99999,5.12499 8.83333,0 8.83333,-5.20833 0,-1.66666 -1.375,-2.75 -1.375,-1.08333 -3.25,-1.45833 l -7.66666,-1.45833 q -12.74999,-2.45833 -12.74999,-12.45833 0,-5.58333 4.04166,-9.45833 4.04167,-3.91667 12.04166,-3.91667 13.33333,0 16.29166,9.79167 l -8.45833,1.70833 q -1.33333,-4.75 -7.58333,-4.75 -7.58333,0 -7.58333,4.75 0,3.29167 6.125,4.54166 l 9.04166,1.875 q 10.54167,2.16667 10.54167,12.08333 0,6.95833 -5.41667,10.41666 -5.41666,3.41667 -12.87499,3.41667 -6.45833,0 -11.41667,-2.58333 -4.95833,-2.625 -6.45833,-7.95833 z"
           id="path922" />
      </g>
      <rect
         style="fill:#ffffff;fill-opacity:1;stroke:none;stroke-width:13.7634;stroke-linecap:square;stroke-linejoin:round;stroke-dasharray:none;stroke-opacity:1;paint-order:fill markers stroke"
         id="scan-text-box"
         width="700"
         height="100"
         x="422.23868"
         y="454.67694" />
      <text
         xml:space="preserve"
         style="font-style:normal;font-variant:normal;font-weight:normal;font-stretch:normal;font-size:85.3333px;font-family:'Franklin Gothic Medium';-inkscape-font-specification:'Franklin Gothic Medium, Normal';font-variant-ligatures:normal;font-variant-caps:normal;font-variant-numeric:normal;font-variant-east-asian:normal;fill:#000000;fill-opacity:1;stroke:none;stroke-width:15;stroke-linecap:square;stroke-linejoin:round;stroke-dasharray:none;stroke-opacity:1;paint-order:fill markers stroke"
         x="574.73877"
         y="525.57275"
         id="scan-value"><tspan
           sodipodi:role="line"
           id="tspan888"
           x="574.73877"
           y="525.57275">props.scan</tspan></text>
    </g>
    <g
       id="opd"
       inkscape:label="opd">
      <g
         aria-label="OPD"
         id="opd-title"
         style="font-size:85.3333px;font-family:'Franklin Gothic Medium';-inkscape-font-specification:'Franklin Gothic Medium, Normal';fill:#ffffff;stroke-width:15;stroke-linecap:square;stroke-linejoin:round;paint-order:fill markers stroke">
        <path
           d="m -31.511302,413.30191 q -11.333328,0 -17.666659,-8.5 -6.291664,-8.49999 -6.291664,-20.99999 0,-12.41666 6.708331,-20.74999 6.70833,-8.375 17.708326,-8.375 11.083328,0 17.499992,8.375 6.4583309,8.33333 6.4583309,20.87499 0,13.16666 -6.7083309,21.29166 -6.666664,8.08333 -17.708326,8.08333 z m 0.08333,-8.25 q 5.541664,0 9.374996,-4.58333 3.833332,-4.58333 3.833332,-16.62499 0,-9.79166 -3.166666,-15.33333 -3.166665,-5.58333 -9.833329,-5.58333 -13.166661,0 -13.166661,21.20833 0,10.29166 3.333332,15.62499 3.374998,5.29166 9.624996,5.29166 z"
           id="path907" />
        <path
           d="M 12.697015,412.42691 H 2.4470189 V 355.55193 H 25.738676 q 9.958329,0 14.749994,5.04167 4.833331,5 4.833331,11.83333 0,7.79166 -5.208331,12.62499 -5.208331,4.83333 -13.208328,4.83333 H 12.697015 Z m 0,-31.33332 H 24.82201 q 4.749998,0 7.249997,-2.33333 2.499998,-2.33333 2.499998,-6.20833 0,-3.5 -2.333332,-6 -2.291666,-2.5 -8.33333,-2.5 H 12.697015 Z"
           id="path909" />
        <path
           d="m 53.280333,412.42691 v -56.87498 h 20.958325 q 11.624995,0 18.666659,8.25 7.041663,8.20833 7.041663,20.29166 0,12.08333 -7.249997,20.20832 -7.249996,8.125 -20.749991,8.125 z m 10.541663,-8.375 h 8.541663 q 6.874997,0 11.666661,-5.16666 4.791665,-5.16667 4.791665,-15.37499 0,-8.33333 -4.208331,-14.08333 -4.166665,-5.79167 -11.041663,-5.79167 h -9.749995 z"
           id="path911" />
      </g>
      <rect
         style="fill:#ffffff;fill-opacity:1;stroke:none;stroke-width:13.7634;stroke-linecap:square;stroke-linejoin:round;stroke-dasharray:none;stroke-opacity:1;paint-order:fill markers stroke"
         id="opd-text-box"
         width="700"
         height="100"
         x="-327.76132"
         y="454.67694" />
      <text
         xml:space="preserve"
         style="font-style:normal;font-variant:normal;font-weight:normal;font-stretch:normal;font-size:85.3333px;font-family:'Franklin Gothic Medium';-inkscape-font-specification:'Franklin Gothic Medium, Normal';font-variant-ligatures:normal;font-variant-caps:normal;font-variant-numeric:normal;font-variant-east-asian:normal;fill:#000000;fill-opacity:1;stroke:none;stroke-width:15;stroke-linecap:square;stroke-linejoin:round;stroke-dasharray:none;stroke-opacity:1;paint-order:fill markers stroke"
         x="-158.3654"
         y="526.01025"
         id="opd-value"><tspan
           sodipodi:role="line"
           id="tspan886"
           x="-158.3654"
           y="526.01025">props.opd</tspan></text>
    </g>
  </g>
</svg>
