<?xml version="1.0" encoding="UTF-8" standalone="no"?>
<!-- Created with Inkscape (http://www.inkscape.org/) -->

<svg
   width="1000"
   height="1000"
   viewBox="0 0 264.58333 264.58333"
   version="1.1"
   id="svg5"
   inkscape:version="1.2 (dc2aeda, 2022-05-15)"
   sodipodi:docname="FTIR.svg"
   xmlns:inkscape="http://www.inkscape.org/namespaces/inkscape"
   xmlns:sodipodi="http://sodipodi.sourceforge.net/DTD/sodipodi-0.dtd"
   xmlns="http://www.w3.org/2000/svg"
   xmlns:svg="http://www.w3.org/2000/svg">
  <sodipodi:namedview
     id="namedview7"
     pagecolor="#505050"
     bordercolor="#eeeeee"
     borderopacity="1"
     inkscape:showpageshadow="0"
     inkscape:pageopacity="0"
     inkscape:pagecheckerboard="0"
     inkscape:deskcolor="#505050"
     inkscape:document-units="px"
     showgrid="false"
     inkscape:zoom="0.67012636"
     inkscape:cx="409.62424"
     inkscape:cy="377.54074"
     inkscape:window-width="1280"
     inkscape:window-height="772"
     inkscape:window-x="0"
     inkscape:window-y="28"
     inkscape:window-maximized="0"
     inkscape:current-layer="layer1" />
  <defs
     id="defs2">
    <inkscape:path-effect
       effect="powerclip"
       id="path-effect2433"
       is_visible="true"
       lpeversion="1"
       inverse="true"
       flatten="false"
       hide_clip="false"
       message="Use fill-rule evenodd on &lt;b&gt;fill and stroke&lt;/b&gt; dialog if no flatten result after convert clip to paths." />
    <inkscape:path-effect
       effect="powerclip"
       id="path-effect9892"
       is_visible="true"
       lpeversion="1"
       inverse="true"
       flatten="false"
       hide_clip="false"
       message="Use fill-rule evenodd on &lt;b&gt;fill and stroke&lt;/b&gt; dialog if no flatten result after convert clip to paths." />
    <clipPath
       clipPathUnits="userSpaceOnUse"
       id="clipPath4804">
      <path
         id="path4806"
         style="fill:#ff0000;fill-opacity:1;fill-rule:nonzero;stroke:none;stroke-width:0.264583"
         d="m 2.692342,20.870044 v 50.663057 h 50.775194 c 0.03826,-0.146555 0.115499,-0.310531 0.239779,-0.48731 0.243496,-0.346342 0.529421,-0.66054 0.818555,-0.969449 0.01278,-0.0701 0.02558,-0.140213 0.03824,-0.210322 0.03198,-0.09414 -0.0026,-0.298371 0.0956,-0.282671 0.09341,0.01492 0.186523,0.03504 0.279053,0.05788 0.16396,-0.168 0.345332,-0.345596 0.47284,-0.443383 0.141094,-0.163595 0.311512,-0.284417 0.520382,-0.28629 0.01053,-1.06e-4 0.02236,0.0036 0.03307,0.0041 0.104513,-0.02572 0.210063,-0.05808 0.312124,-0.06149 0.04911,-0.0016 0.09701,0.0034 0.144179,0.01963 0.152633,0.05254 0.273466,0.11285 0.37052,0.182417 0.09114,-0.03005 0.198107,-0.04135 0.324527,-0.02791 0.602041,0.06407 0.833806,0.481542 1.005105,0.91829 0.260101,-0.144886 0.544703,-0.08482 0.719854,0.139012 -0.0098,-0.06193 -0.0163,-0.124661 -0.01913,-0.187071 -5.6e-5,-2.65e-4 5.8e-5,-7.94e-4 0,-0.0011 -0.0088,-0.05242 -0.01087,-0.10474 0.0016,-0.156061 2.1e-5,-2.65e-4 -2.2e-5,-7.94e-4 0,-0.0011 0.02655,-0.42591 0.25056,-0.781584 0.809254,-0.652674 0.01103,-0.0091 0.02164,-0.01871 0.03255,-0.02791 0.118375,-0.486081 0.416378,-0.718515 0.701768,-0.719851 0.368467,-0.0019 0.715947,0.381404 0.627351,1.10019 -0.0079,0.0638 -0.01228,0.09955 -0.01603,0.129709 0.133736,-0.01132 0.268367,-0.01926 0.39946,-0.03979 0.199451,0.135165 0.336876,0.285787 0.442868,0.44855 0.07185,-0.05861 0.161996,-0.103012 0.271301,-0.132291 -0.132392,-0.735775 -0.229338,-1.477135 -0.260967,-2.225704 -0.02877,-0.681017 0.298384,-1.021707 0.641305,-1.021644 0.342919,6.4e-5 0.701691,0.340879 0.735873,1.021644 0.02585,0.514776 0.08394,1.025773 0.163298,1.533755 0.17209,-0.03722 0.47652,0.03191 1.025776,0.242363 0.03253,0.0035 0.05713,0.01312 0.07545,0.02946 0.01614,0.0063 0.03152,0.01206 0.04806,0.0186 0.186386,0.07362 0.03561,0.399407 0.04754,0.599448 0.0016,0.02492 0.0026,0.04946 0.0036,0.07441 0.07689,0.01789 0.151053,0.04014 0.219625,0.0677 0.01273,0.0051 0.281141,0.809853 0.330729,0.957564 0.04707,0.140205 0.07312,0.27024 0.08217,0.389123 h 11.56105 V 20.870044 Z m 58.805711,49.697225 c -0.01021,-0.0011 -0.02273,1.11e-4 -0.02585,0.0057 -0.0045,0.008 -0.0087,0.01619 -0.01291,0.02429 0.01447,-0.0065 0.02898,-0.01299 0.04341,-0.01963 7.94e-4,-0.0029 0.0013,-0.0059 0.0021,-0.0088 -0.0021,-5.29e-4 -0.004,-0.0013 -0.0067,-0.0016 z m -5.824966,0.890383 c -0.01942,0.01191 -0.03901,0.02376 -0.05891,0.03462 0.0011,0.01378 0.0021,0.02712 0.0031,0.04082 h 0.05943 c -0.0013,-0.025 -0.0026,-0.04963 -0.0036,-0.07545 z" />
    </clipPath>
    <clipPath
       clipPathUnits="userSpaceOnUse"
       id="clipPath27335">
      <rect
         style="fill:#800000;fill-opacity:1;stroke:none;stroke-width:0.698373;stroke-linecap:square;stroke-dasharray:none;stroke-opacity:1;paint-order:markers stroke fill"
         id="rect27337"
         width="25.373281"
         height="15.046064"
         x="55.467648"
         y="-4.2515402"
         transform="matrix(0.79602966,0.60525762,-0.63002625,0.77657384,0,0)" />
    </clipPath>
    <clipPath
       clipPathUnits="userSpaceOnUse"
       id="clipPath6023">
      <rect
         style="fill:#008000;fill-opacity:1;stroke:none;stroke-width:1.68615;stroke-linecap:square;paint-order:markers stroke fill"
         id="rect6025"
         width="40.04216"
         height="26.416786"
         x="106.84259"
         y="22.445976"
         ry="0"
         transform="matrix(0.80459807,0.59381979,-0.46562465,0.88498231,0,0)" />
    </clipPath>
    <clipPath
       clipPathUnits="userSpaceOnUse"
       id="clipPath9888">
      <path
         sodipodi:type="star"
         style="display:block;fill:#550000;fill-opacity:1;stroke:none;stroke-width:1.33244;stroke-linecap:square;paint-order:markers stroke fill"
         id="path9890"
         inkscape:flatsided="true"
         sodipodi:sides="3"
         sodipodi:cx="348.7023"
         sodipodi:cy="508.63342"
         sodipodi:r1="100.50317"
         sodipodi:r2="100.02727"
         sodipodi:arg1="0"
         sodipodi:arg2="1.0471976"
         inkscape:rounded="0"
         inkscape:randomized="0"
         transform="matrix(0.00727872,-0.99995381,0.75742571,0.00960937,36.142536,664.07717)"
         inkscape:transform-center-x="0.24955091"
         inkscape:transform-center-y="0.047694698" />
    </clipPath>
    <clipPath
       clipPathUnits="userSpaceOnUse"
       id="clipPath2429">
      <rect
         style="display:none;fill:#808080;fill-opacity:1;stroke:none;stroke-width:1.33244;stroke-linecap:square;stroke-opacity:1;paint-order:markers stroke fill"
         id="rect2431"
         width="35.937984"
         height="21.936171"
         x="140.37682"
         y="182.82433"
         d="M 140.37682,182.82433 H 176.3148 V 204.7605 H 140.37682 Z" />
      <path
         id="lpe_path-effect2433"
         style="fill:#808080;fill-opacity:1;stroke:none;stroke-width:1.33244;stroke-linecap:square;stroke-opacity:1;paint-order:markers stroke fill"
         class="powerclip"
         d="m 149.22951,157.23845 h 121.54868 v 79.56154 H 149.22951 Z m -8.85269,25.58588 v 21.93617 h 35.93798 v -21.93617 z" />
    </clipPath>
    <filter
       inkscape:collect="always"
       style="color-interpolation-filters:sRGB"
       id="filter6129"
       x="-0.02240483"
       y="-0.77371337"
       width="1.0448097"
       height="2.5474267">
      <feGaussianBlur
         inkscape:collect="always"
         stdDeviation="1.9509578"
         id="feGaussianBlur6131" />
    </filter>
    <filter
       inkscape:collect="always"
       style="color-interpolation-filters:sRGB"
       id="filter6133"
       x="-0.041634636"
       y="-0.70778873"
       width="1.0832693"
       height="2.4155775">
      <feGaussianBlur
         inkscape:collect="always"
         stdDeviation="1.7847254"
         id="feGaussianBlur6135" />
    </filter>
    <filter
       inkscape:collect="always"
       style="color-interpolation-filters:sRGB"
       id="filter6137"
       x="-0.079771398"
       y="-0.62756457"
       width="1.1595428"
       height="2.2551291">
      <feGaussianBlur
         inkscape:collect="always"
         stdDeviation="1.5824358"
         id="feGaussianBlur6139" />
    </filter>
    <filter
       inkscape:collect="always"
       style="color-interpolation-filters:sRGB"
       id="filter6141"
       x="-0.024758363"
       y="-0.62060134"
       width="1.0495167"
       height="2.2412027">
      <feGaussianBlur
         inkscape:collect="always"
         stdDeviation="1.5648785"
         id="feGaussianBlur6143" />
    </filter>
    <filter
       inkscape:collect="always"
       style="color-interpolation-filters:sRGB"
       id="filter10553"
       x="-1.0251106"
       y="-0.077750735"
       width="3.0502212"
       height="1.1555015">
      <feGaussianBlur
         inkscape:collect="always"
         stdDeviation="0.31225101"
         id="feGaussianBlur10555" />
    </filter>
    <filter
       inkscape:collect="always"
       style="color-interpolation-filters:sRGB"
       id="filter10557"
       x="-1.1106307"
       y="-0.084237109"
       width="3.2212614"
       height="1.1684742">
      <feGaussianBlur
         inkscape:collect="always"
         stdDeviation="0.33830062"
         id="feGaussianBlur10559" />
    </filter>
    <filter
       inkscape:collect="always"
       style="color-interpolation-filters:sRGB"
       id="filter10561"
       x="-1.2823123"
       y="-0.027787211"
       width="3.5646246"
       height="1.0555744">
      <feGaussianBlur
         inkscape:collect="always"
         stdDeviation="0.55947764"
         id="feGaussianBlur10563" />
    </filter>
    <filter
       inkscape:collect="always"
       style="color-interpolation-filters:sRGB"
       id="filter10565"
       x="-1.4688719"
       y="-0.027376535"
       width="3.9377438"
       height="1.0547531">
      <feGaussianBlur
         inkscape:collect="always"
         stdDeviation="0.82699965"
         id="feGaussianBlur10567" />
    </filter>
  </defs>
  <g
     inkscape:label="Layer 1"
     inkscape:groupmode="layer"
     id="layer1"
     transform="translate(-2.692342,-20.870044)">
    <rect
       style="fill:#ff0000;fill-opacity:1;stroke:none;stroke-width:2.31991;stroke-linecap:square;stroke-opacity:1;paint-order:markers stroke fill;filter:url(#filter10565)"
       id="rect10551"
       width="1.3512405"
       height="72.500015"
       x="-115.23286"
       y="-200.65598"
       ry="2.9233878"
       transform="matrix(-0.53029773,0.84781149,0.00160014,-0.99999872,0,0)" />
    <rect
       style="fill:#ff0000;fill-opacity:1;stroke:none;stroke-width:1.66729;stroke-linecap:square;stroke-opacity:1;paint-order:markers stroke fill;filter:url(#filter10561)"
       id="rect10549"
       width="1.0471289"
       height="48.322456"
       x="-47.520973"
       y="-17.869684"
       ry="1.9484861"
       transform="matrix(-0.73064053,-0.68276234,0.99999996,2.8176691e-4,0,0)" />
    <rect
       style="fill:#ff0000;fill-opacity:1;stroke:none;stroke-width:0.622178;stroke-linecap:square;stroke-opacity:1;paint-order:markers stroke fill;filter:url(#filter10553)"
       id="rect9819"
       width="0.73104542"
       height="9.638525"
       x="6.6142869"
       y="36.201298"
       ry="0.38865018"
       transform="matrix(0.89897777,-0.43799425,0.2393146,0.97094208,0,0)" />
    <rect
       style="fill:#ff0000;fill-opacity:1;stroke:none;stroke-width:0.622178;stroke-linecap:square;stroke-opacity:1;paint-order:markers stroke fill;filter:url(#filter10557)"
       id="rect9821"
       width="0.73104542"
       height="9.638525"
       x="-13.340063"
       y="30.168449"
       ry="0.38865018"
       transform="matrix(0.49136737,-0.87095242,0.74825702,0.66340894,0,0)" />
    <rect
       style="mix-blend-mode:normal;fill:#ff0000;fill-opacity:1;stroke:none;stroke-width:1.99336;stroke-linecap:square;stroke-opacity:1;paint-order:markers stroke fill;filter:url(#filter6141)"
       id="rect6127"
       width="151.69453"
       height="6.0517244"
       x="46.979801"
       y="-117.73191"
       transform="matrix(-3.1718336e-4,0.99999989,-0.68581562,-0.0010055,37.773673,0.77899158)" />
    <rect
       style="mix-blend-mode:normal;fill:#ff0000;fill-opacity:1;stroke:none;stroke-width:1.11672;stroke-linecap:square;stroke-opacity:1;paint-order:markers stroke fill;filter:url(#filter6137)"
       id="rect5399"
       width="47.609119"
       height="6.0517216"
       x="45.034424"
       y="-134.31787"
       transform="matrix(-0.00122277,0.99999891,-0.82977525,-3.1557674e-4,23.500363,0)" />
    <rect
       style="mix-blend-mode:normal;fill:#ff0000;fill-opacity:1;stroke:none;stroke-width:1.64158;stroke-linecap:square;stroke-opacity:1;paint-order:markers stroke fill;filter:url(#filter6133)"
       id="rect5397"
       width="102.87927"
       height="6.0517225"
       x="128.1647"
       y="88.6493"
       transform="matrix(1,0,0,0.76020214,0,23.736239)" />
    <rect
       style="fill:none;stroke:#000000;stroke-width:1.524;stroke-linecap:square;stroke-dasharray:none;stroke-opacity:1;paint-order:markers stroke fill"
       id="rect2969"
       width="72.5495"
       height="49.138973"
       x="3.4542925"
       y="21.63188"
       clip-path="url(#clipPath4804)" />
    <ellipse
       style="fill:#780707;fill-opacity:1;stroke:#000000;stroke-width:0.624;stroke-linecap:square;stroke-dasharray:none;stroke-opacity:1;paint-order:markers stroke fill"
       id="path4860"
       cx="54.39505"
       cy="70.507004"
       rx="1.6525078"
       ry="3.8558519" />
    <ellipse
       style="fill:#780707;fill-opacity:1;stroke:#000000;stroke-width:0.624;stroke-linecap:square;stroke-dasharray:none;stroke-opacity:1;paint-order:markers stroke fill"
       id="ellipse7566"
       cx="65.549477"
       cy="70.507004"
       rx="1.6525078"
       ry="3.8558519" />
    <rect
       style="fill:#327807;fill-opacity:1;stroke:none;stroke-width:0.624001;stroke-linecap:square;stroke-dasharray:none;stroke-opacity:1;paint-order:markers stroke fill"
       id="rect11250"
       width="16.111952"
       height="7.1608672"
       x="-15.806479"
       y="29.529518"
       transform="rotate(-36.937034)" />
    <ellipse
       style="fill:#327807;fill-opacity:1;stroke:none;stroke-width:0.624001;stroke-linecap:square;stroke-dasharray:none;stroke-opacity:1;paint-order:markers stroke fill"
       id="path12758"
       cx="17.351336"
       cy="42.345516"
       rx="1.6525078"
       ry="1.5836535" />
    <ellipse
       style="fill:#327807;fill-opacity:1;stroke:none;stroke-width:0.624001;stroke-linecap:square;stroke-dasharray:none;stroke-opacity:1;paint-order:markers stroke fill"
       id="ellipse12760"
       cx="23.272821"
       cy="37.938824"
       rx="1.6525078"
       ry="1.5836535" />
    <rect
       style="fill:#327807;fill-opacity:1;stroke:none;stroke-width:0.669302;stroke-linecap:square;stroke-dasharray:none;stroke-opacity:1;paint-order:markers stroke fill"
       id="rect20069"
       width="18.16905"
       height="16.533154"
       x="48.607269"
       y="30.397701"
       clip-path="url(#clipPath27335)"
       transform="matrix(-0.98345014,0.00572227,-0.00566467,-0.99344902,117.4006,70.241458)"
       ry="0" />
    <rect
       style="fill:#808080;fill-opacity:1;stroke:none;stroke-width:1.72702;stroke-linecap:square;paint-order:markers stroke fill"
       id="rect724"
       width="30.148458"
       height="21.028374"
       x="10.496204"
       y="92.17659"
       ry="0" />
    <path
       sodipodi:type="star"
       style="fill:#ff0000;fill-opacity:1;stroke:none;stroke-width:1.33244;stroke-linecap:square;paint-order:markers stroke fill"
       id="path2837"
       inkscape:flatsided="true"
       sodipodi:sides="3"
       sodipodi:cx="298.88766"
       sodipodi:cy="340.83682"
       sodipodi:r1="55.993614"
       sodipodi:r2="48.49189"
       sodipodi:arg1="0.5966604"
       sodipodi:arg2="1.643858"
       inkscape:rounded="0"
       inkscape:randomized="0"
       d="m 345.20652,372.29868 -96.72505,-7.07949 54.49354,-80.2266 z"
       transform="matrix(0.16643724,-0.0113592,0.01143474,0.16533759,-28.198554,52.049413)" />
    <rect
       style="fill:#808080;fill-opacity:1;stroke:none;stroke-width:1.33244;stroke-linecap:square;paint-order:markers stroke fill"
       id="rect4451"
       width="31.216064"
       height="21.5044"
       x="65.124474"
       y="104.11288"
       ry="3.4684517"
       clip-path="url(#clipPath6023)"
       transform="matrix(-0.7252121,-0.02389903,0.01740236,-0.99594853,114.73837,219.26401)" />
    <path
       id="path13600"
       style="fill:#808080;fill-opacity:1;stroke:none;stroke-width:0.769928;stroke-linecap:square;paint-order:markers stroke fill"
       d="m 125.57008,36.290601 -21.81421,15.726899 3.03162,2.837322 18.65554,-13.44956 14.88485,14.42637 3.19339,-2.274309 -17.69735,-17.152129 -0.0747,0.05314 z" />
    <rect
       style="fill:#808080;fill-opacity:1;stroke:none;stroke-width:1.33244;stroke-linecap:square;paint-order:markers stroke fill"
       id="rect18686"
       width="31.216064"
       height="21.5044"
       x="65.124474"
       y="104.11288"
       ry="3.4684517"
       clip-path="url(#clipPath6023)"
       transform="matrix(-1.0729612,-0.02775726,0.02574704,-1.1567334,197.19426,328.8188)" />
    <rect
       style="fill:none;stroke:#000000;stroke-width:1.69238;stroke-linecap:square;stroke-opacity:1;paint-order:markers stroke fill"
       id="rect362"
       width="109.8563"
       height="67.869164"
       x="155.0757"
       y="163.08464"
       clip-path="url(#clipPath2429)"
       inkscape:path-effect="#path-effect2433"
       d="M 155.0757,163.08464 H 264.932 V 230.9538 H 155.0757 Z" />
    <rect
       style="mix-blend-mode:normal;fill:#ff0000;fill-opacity:1;stroke:none;stroke-width:2.33967;stroke-linecap:square;stroke-opacity:1;paint-order:markers stroke fill;filter:url(#filter6129)"
       id="rect4615"
       width="208.98613"
       height="6.0517225"
       x="24.075092"
       y="100.75275"
       transform="matrix(0.98896215,0,0,0.79787872,0.20877198,22.533849)" />
    <rect
       style="fill:#808080;fill-opacity:1;stroke:none;stroke-width:0.85756;stroke-linecap:square;paint-order:markers stroke fill"
       id="rect16506"
       width="23.086193"
       height="3.7958958"
       x="155.10078"
       y="-24.84111"
       transform="matrix(0.71859278,0.69543111,-0.55319072,0.83305463,0,0)" />
    <path
       id="rect12094"
       style="fill:#808080;fill-opacity:1;stroke:none;stroke-width:0.808527;stroke-linecap:square;paint-order:markers stroke fill"
       d="m 239.08938,99.111953 -17.90251,-21.555595 -2.78218,3.39964 15.31013,18.434385 -14.18004,16.731597 2.59142,3.15778 16.85926,-19.893037 -0.0606,-0.0738 z" />
    <rect
       style="fill:#808080;fill-opacity:1;stroke:none;stroke-width:1.33244;stroke-linecap:square;stroke-opacity:1;paint-order:markers stroke fill"
       id="rect14981"
       width="41.44136"
       height="21.442295"
       x="178.35423"
       y="184.77991"
       ry="0.80717897" />
    <rect
       style="fill:#008000;fill-opacity:1;stroke:none;stroke-width:1.17777;stroke-linecap:square;stroke-opacity:1;paint-order:markers stroke fill"
       id="rect15761"
       width="22.060825"
       height="4.1235185"
       x="75.965942"
       y="305.20685"
       ry="0"
       transform="rotate(-35.832942)" />
    <rect
       style="fill:#008000;fill-opacity:1;stroke:none;stroke-width:1.30913;stroke-linecap:square;stroke-opacity:1;paint-order:markers stroke fill"
       id="rect17215"
       width="17.099136"
       height="3.4844792"
       x="328.47812"
       y="61.118885"
       transform="matrix(0.90422717,0.42705178,-0.89063493,0.45471905,0,0)" />
    <circle
       style="fill:#008000;fill-opacity:1;stroke:none;stroke-width:1.33244;stroke-linecap:square;stroke-opacity:1;paint-order:markers stroke fill"
       id="path17995"
       cx="230.826"
       cy="178.07918"
       r="2.7833748" />
    <circle
       style="fill:#008000;fill-opacity:1;stroke:none;stroke-width:1.33244;stroke-linecap:square;stroke-opacity:1;paint-order:markers stroke fill"
       id="circle17997"
       cx="240.72244"
       cy="182.40887"
       r="2.7833748" />
  </g>
</svg>
