<?xml version="1.0" encoding="UTF-8" standalone="no"?>
<!-- Created with Inkscape (http://www.inkscape.org/) -->

<svg
   width="300"
   height="300"
   viewBox="0 0 79.374998 79.375"
   version="1.1"
   id="svg5"
   inkscape:version="1.2 (dc2aeda, 2022-05-15)"
   sodipodi:docname="FTIR.svg"
   xmlns:inkscape="http://www.inkscape.org/namespaces/inkscape"
   xmlns:sodipodi="http://sodipodi.sourceforge.net/DTD/sodipodi-0.dtd"
   xmlns="http://www.w3.org/2000/svg"
   xmlns:svg="http://www.w3.org/2000/svg">
  <sodipodi:namedview
     id="namedview7"
     pagecolor="#505050"
     bordercolor="#eeeeee"
     borderopacity="1"
     inkscape:showpageshadow="0"
     inkscape:pageopacity="0"
     inkscape:pagecheckerboard="0"
     inkscape:deskcolor="#505050"
     inkscape:document-units="px"
     showgrid="false"
     inkscape:zoom="1.9213221"
     inkscape:cx="154.32082"
     inkscape:cy="148.85583"
     inkscape:window-width="1280"
     inkscape:window-height="800"
     inkscape:window-x="0"
     inkscape:window-y="0"
     inkscape:window-maximized="0"
     inkscape:current-layer="layer1" />
  <defs
     id="defs2">
    <clipPath
       clipPathUnits="userSpaceOnUse"
       id="clipPath4804">
      <path
         id="path4806"
         style="fill:#ff0000;fill-opacity:1;fill-rule:nonzero;stroke:none;stroke-width:0.264583"
         d="m 2.692342,20.870044 v 50.663057 h 50.775194 c 0.03826,-0.146555 0.115499,-0.310531 0.239779,-0.48731 0.243496,-0.346342 0.529421,-0.66054 0.818555,-0.969449 0.01278,-0.0701 0.02558,-0.140213 0.03824,-0.210322 0.03198,-0.09414 -0.0026,-0.298371 0.0956,-0.282671 0.09341,0.01492 0.186523,0.03504 0.279053,0.05788 0.16396,-0.168 0.345332,-0.345596 0.47284,-0.443383 0.141094,-0.163595 0.311512,-0.284417 0.520382,-0.28629 0.01053,-1.06e-4 0.02236,0.0036 0.03307,0.0041 0.104513,-0.02572 0.210063,-0.05808 0.312124,-0.06149 0.04911,-0.0016 0.09701,0.0034 0.144179,0.01963 0.152633,0.05254 0.273466,0.11285 0.37052,0.182417 0.09114,-0.03005 0.198107,-0.04135 0.324527,-0.02791 0.602041,0.06407 0.833806,0.481542 1.005105,0.91829 0.260101,-0.144886 0.544703,-0.08482 0.719854,0.139012 -0.0098,-0.06193 -0.0163,-0.124661 -0.01913,-0.187071 -5.6e-5,-2.65e-4 5.8e-5,-7.94e-4 0,-0.0011 -0.0088,-0.05242 -0.01087,-0.10474 0.0016,-0.156061 2.1e-5,-2.65e-4 -2.2e-5,-7.94e-4 0,-0.0011 0.02655,-0.42591 0.25056,-0.781584 0.809254,-0.652674 0.01103,-0.0091 0.02164,-0.01871 0.03255,-0.02791 0.118375,-0.486081 0.416378,-0.718515 0.701768,-0.719851 0.368467,-0.0019 0.715947,0.381404 0.627351,1.10019 -0.0079,0.0638 -0.01228,0.09955 -0.01603,0.129709 0.133736,-0.01132 0.268367,-0.01926 0.39946,-0.03979 0.199451,0.135165 0.336876,0.285787 0.442868,0.44855 0.07185,-0.05861 0.161996,-0.103012 0.271301,-0.132291 -0.132392,-0.735775 -0.229338,-1.477135 -0.260967,-2.225704 -0.02877,-0.681017 0.298384,-1.021707 0.641305,-1.021644 0.342919,6.4e-5 0.701691,0.340879 0.735873,1.021644 0.02585,0.514776 0.08394,1.025773 0.163298,1.533755 0.17209,-0.03722 0.47652,0.03191 1.025776,0.242363 0.03253,0.0035 0.05713,0.01312 0.07545,0.02946 0.01614,0.0063 0.03152,0.01206 0.04806,0.0186 0.186386,0.07362 0.03561,0.399407 0.04754,0.599448 0.0016,0.02492 0.0026,0.04946 0.0036,0.07441 0.07689,0.01789 0.151053,0.04014 0.219625,0.0677 0.01273,0.0051 0.281141,0.809853 0.330729,0.957564 0.04707,0.140205 0.07312,0.27024 0.08217,0.389123 h 11.56105 V 20.870044 Z m 58.805711,49.697225 c -0.01021,-0.0011 -0.02273,1.11e-4 -0.02585,0.0057 -0.0045,0.008 -0.0087,0.01619 -0.01291,0.02429 0.01447,-0.0065 0.02898,-0.01299 0.04341,-0.01963 7.94e-4,-0.0029 0.0013,-0.0059 0.0021,-0.0088 -0.0021,-5.29e-4 -0.004,-0.0013 -0.0067,-0.0016 z m -5.824966,0.890383 c -0.01942,0.01191 -0.03901,0.02376 -0.05891,0.03462 0.0011,0.01378 0.0021,0.02712 0.0031,0.04082 h 0.05943 c -0.0013,-0.025 -0.0026,-0.04963 -0.0036,-0.07545 z" />
    </clipPath>
    <clipPath
       clipPathUnits="userSpaceOnUse"
       id="clipPath27335">
      <rect
         style="fill:#800000;fill-opacity:1;stroke:none;stroke-width:0.698373;stroke-linecap:square;stroke-dasharray:none;stroke-opacity:1;paint-order:markers stroke fill"
         id="rect27337"
         width="25.373281"
         height="15.046064"
         x="55.467648"
         y="-4.2515402"
         transform="matrix(0.79602966,0.60525762,-0.63002625,0.77657384,0,0)" />
    </clipPath>
  </defs>
  <g
     inkscape:label="Layer 1"
     inkscape:groupmode="layer"
     id="layer1">
    <rect
       style="fill:none;stroke:#000000;stroke-width:1.52399998;stroke-linecap:square;stroke-opacity:1;paint-order:markers stroke fill;stroke-dasharray:none"
       id="rect2969"
       width="72.5495"
       height="49.138973"
       x="3.4542925"
       y="21.63188"
       clip-path="url(#clipPath4804)" />
    <ellipse
       style="fill:#780707;fill-opacity:1;stroke:#000000;stroke-width:0.624;stroke-linecap:square;stroke-dasharray:none;stroke-opacity:1;paint-order:markers stroke fill"
       id="path4860"
       cx="54.39505"
       cy="70.507004"
       rx="1.6525078"
       ry="3.8558519" />
    <ellipse
       style="fill:#780707;fill-opacity:1;stroke:#000000;stroke-width:0.624;stroke-linecap:square;stroke-dasharray:none;stroke-opacity:1;paint-order:markers stroke fill"
       id="ellipse7566"
       cx="65.549477"
       cy="70.507004"
       rx="1.6525078"
       ry="3.8558519" />
    <rect
       style="fill:#327807;fill-opacity:1;stroke:none;stroke-width:0.624001;stroke-linecap:square;stroke-dasharray:none;stroke-opacity:1;paint-order:markers stroke fill"
       id="rect11250"
       width="16.111952"
       height="7.1608672"
       x="-15.806479"
       y="29.529518"
       transform="rotate(-36.937034)" />
    <ellipse
       style="fill:#327807;fill-opacity:1;stroke:none;stroke-width:0.624001;stroke-linecap:square;stroke-dasharray:none;stroke-opacity:1;paint-order:markers stroke fill"
       id="path12758"
       cx="17.351336"
       cy="42.345516"
       rx="1.6525078"
       ry="1.5836535" />
    <ellipse
       style="fill:#327807;fill-opacity:1;stroke:none;stroke-width:0.624001;stroke-linecap:square;stroke-dasharray:none;stroke-opacity:1;paint-order:markers stroke fill"
       id="ellipse12760"
       cx="23.272821"
       cy="37.938824"
       rx="1.6525078"
       ry="1.5836535" />
    <rect
       style="fill:#327807;fill-opacity:1;stroke:none;stroke-width:0.669302;stroke-linecap:square;stroke-dasharray:none;stroke-opacity:1;paint-order:markers stroke fill"
       id="rect20069"
       width="19.141552"
       height="16.111952"
       x="47.09647"
       y="30.709103"
       clip-path="url(#clipPath27335)"
       transform="rotate(179.66998,60.119093,35.607687)" />
  </g>
</svg>
