<?xml version="1.0" encoding="UTF-8" standalone="no"?>
<!-- Created with Inkscape (http://www.inkscape.org/) -->

<svg
   width="300"
   height="91.40094"
   viewBox="0 0 300 91.40094"
   version="1.1"
   id="svg46278"
   inkscape:version="1.2.1 (9c6d41e410, 2022-07-14)"
   sodipodi:docname="globar.svg"
   xmlns:inkscape="http://www.inkscape.org/namespaces/inkscape"
   xmlns:sodipodi="http://sodipodi.sourceforge.net/DTD/sodipodi-0.dtd"
   xmlns:xlink="http://www.w3.org/1999/xlink"
   xmlns="http://www.w3.org/2000/svg"
   xmlns:svg="http://www.w3.org/2000/svg">
  <sodipodi:namedview
     id="namedview46280"
     pagecolor="#505050"
     bordercolor="#eeeeee"
     borderopacity="1"
     inkscape:showpageshadow="0"
     inkscape:pageopacity="0"
     inkscape:pagecheckerboard="0"
     inkscape:deskcolor="#505050"
     inkscape:document-units="px"
     showgrid="false"
     inkscape:zoom="1.2492682"
     inkscape:cx="213.3249"
     inkscape:cy="49.228822"
     inkscape:window-width="2498"
     inkscape:window-height="1417"
     inkscape:window-x="54"
     inkscape:window-y="-8"
     inkscape:window-maximized="1"
     inkscape:current-layer="globar" />
  <defs
     id="defs46275">
    <linearGradient
       inkscape:collect="always"
       id="linearGradient68194">
      <stop
         style="stop-color:#ffb24f;stop-opacity:1;"
         offset="0"
         id="stop68190" />
      <stop
         style="stop-color:#ffe2cc;stop-opacity:1;"
         offset="0.24598071"
         id="stop68198" />
      <stop
         style="stop-color:#ffffff;stop-opacity:1;"
         offset="0.49919614"
         id="stop68200" />
      <stop
         style="stop-color:#ffe7c8;stop-opacity:1;"
         offset="0.74959809"
         id="stop68202" />
      <stop
         style="stop-color:#ffdac5;stop-opacity:1;"
         offset="1"
         id="stop68192" />
    </linearGradient>
    <linearGradient
       inkscape:collect="always"
       id="linearGradient63826">
      <stop
         style="stop-color:#ff0b0b;stop-opacity:1;"
         offset="0"
         id="stop63822" />
      <stop
         style="stop-color:#ffc312;stop-opacity:1;"
         offset="0.13424437"
         id="stop63830" />
      <stop
         style="stop-color:#000000;stop-opacity:1;"
         offset="0.2773312"
         id="stop63832" />
      <stop
         style="stop-color:#000000;stop-opacity:1;"
         offset="1"
         id="stop63824" />
    </linearGradient>
    <linearGradient
       inkscape:collect="always"
       xlink:href="#linearGradient63826"
       id="linearGradient63828"
       x1="4.1930256"
       y1="59.304394"
       x2="126.0967"
       y2="59.304394"
       gradientUnits="userSpaceOnUse"
       gradientTransform="matrix(2.4609595,0,0,2.4609595,-6.1258407,-58.636059)" />
    <linearGradient
       inkscape:collect="always"
       xlink:href="#linearGradient68194"
       id="linearGradient1006"
       gradientUnits="userSpaceOnUse"
       x1="79.097397"
       y1="-2.9951708"
       x2="78.719421"
       y2="33.845448"
       gradientTransform="matrix(1.9500337,0,0,2.4609595,29.066207,47.50631)" />
  </defs>
  <g
     inkscape:label="globar"
     inkscape:groupmode="layer"
     id="globar"
     transform="translate(-4.1930258,-40.135309)">
    <path
       id="rect50311"
       style="fill:url(#linearGradient63828);fill-opacity:1;stroke:none;stroke-width:10.4285;paint-order:markers stroke fill"
       d="m 8.7661889,59.299657 c -2.5331628,0 -4.5731631,2.04 -4.5731631,4.573164 v 46.873649 c 0,2.53316 2.0400003,4.57316 4.5731631,4.57316 H 299.62113 c 2.53316,0 4.5719,-2.04 4.5719,-4.57316 V 97.628512 H 24.245761 c -2.533164,0 -4.573164,-2.038728 -4.573164,-4.571892 V 78.614785 c 0,-2.533162 2.04,-4.573162 4.573164,-4.573162 H 304.19303 V 63.872821 c 0,-2.533164 -2.03874,-4.573164 -4.5719,-4.573164 z" />
    <path
       id="rect53588"
       style="fill:url(#linearGradient1006);fill-opacity:1;stroke:none;stroke-width:8.75523;paint-order:markers stroke fill"
       d="m 113.46441,40.135309 a 11.973409,45.700189 0 0 0 -11.9734,45.699835 11.973409,45.700189 0 0 0 11.9734,45.701106 11.973409,45.700189 0 0 0 2.39595,-0.93218 c 0.82077,0.58515 1.82433,0.93218 2.91354,0.93218 h 146.49509 c 2.77975,0 5.01701,-2.23851 5.01701,-5.01827 V 45.152307 c 0,-2.779752 -2.23726,-5.016998 -5.01701,-5.016998 H 118.7739 c -1.08756,0 -2.08964,0.346107 -2.90973,0.92964 a 11.973409,45.700189 0 0 0 -2.39976,-0.92964 z" />
  </g>
</svg>
