<?xml version="1.0" encoding="UTF-8" standalone="no"?>
<!-- Created with Inkscape (http://www.inkscape.org/) -->

<svg
   width="238.2403"
   height="300"
   viewBox="0 0 238.2403 300"
   version="1.1"
   id="svg4511"
   inkscape:version="1.3 (0e150ed6c4, 2023-07-21)"
   sodipodi:docname="insb.svg"
   xmlns:inkscape="http://www.inkscape.org/namespaces/inkscape"
   xmlns:sodipodi="http://sodipodi.sourceforge.net/DTD/sodipodi-0.dtd"
   xmlns:xlink="http://www.w3.org/1999/xlink"
   xmlns="http://www.w3.org/2000/svg"
   xmlns:svg="http://www.w3.org/2000/svg">
  <sodipodi:namedview
     id="namedview4513"
     pagecolor="#505050"
     bordercolor="#eeeeee"
     borderopacity="1"
     inkscape:showpageshadow="0"
     inkscape:pageopacity="0"
     inkscape:pagecheckerboard="0"
     inkscape:deskcolor="#505050"
     inkscape:document-units="px"
     showgrid="false"
     inkscape:zoom="2"
     inkscape:cx="98.5"
     inkscape:cy="89"
     inkscape:window-width="1278"
     inkscape:window-height="1360"
     inkscape:window-x="1273"
     inkscape:window-y="0"
     inkscape:window-maximized="0"
     inkscape:current-layer="insb" />
  <defs
     id="defs4508">
    <linearGradient
       inkscape:collect="always"
       id="linearGradient73318">
      <stop
         style="stop-color:#0006fa;stop-opacity:1;"
         offset="0"
         id="stop73306" />
      <stop
         style="stop-color:#0006dc;stop-opacity:1;"
         offset="0.20096463"
         id="stop73308" />
      <stop
         style="stop-color:#0006b4;stop-opacity:1;"
         offset="0.40000001"
         id="stop73310" />
      <stop
         style="stop-color:#0006a0;stop-opacity:1;"
         offset="0.60000002"
         id="stop73312" />
      <stop
         style="stop-color:#0006b4;stop-opacity:1;"
         offset="0.80000001"
         id="stop73314" />
      <stop
         style="stop-color:#0006d2;stop-opacity:1;"
         offset="1"
         id="stop73316" />
    </linearGradient>
    <linearGradient
       inkscape:collect="always"
       id="linearGradient73304">
      <stop
         style="stop-color:#0064fc;stop-opacity:1;"
         offset="0"
         id="stop73292" />
      <stop
         style="stop-color:#0032fc;stop-opacity:1;"
         offset="0.20096463"
         id="stop73294" />
      <stop
         style="stop-color:#0006fc;stop-opacity:1;"
         offset="0.40000001"
         id="stop73296" />
      <stop
         style="stop-color:#0006b4;stop-opacity:1;"
         offset="0.60000002"
         id="stop73298" />
      <stop
         style="stop-color:#0006eb;stop-opacity:1;"
         offset="0.80000001"
         id="stop73300" />
      <stop
         style="stop-color:#0006fc;stop-opacity:1;"
         offset="1"
         id="stop73302" />
    </linearGradient>
    <linearGradient
       inkscape:collect="always"
       id="linearGradient73290">
      <stop
         style="stop-color:#0006ff;stop-opacity:1;"
         offset="0"
         id="stop73278" />
      <stop
         style="stop-color:#0006f0;stop-opacity:1;"
         offset="0.2"
         id="stop73280" />
      <stop
         style="stop-color:#0006dc;stop-opacity:1;"
         offset="0.40000001"
         id="stop73282" />
      <stop
         style="stop-color:#0006c8;stop-opacity:1;"
         offset="0.60000002"
         id="stop73284" />
      <stop
         style="stop-color:#0006b4;stop-opacity:1;"
         offset="0.80000001"
         id="stop73286" />
      <stop
         style="stop-color:#0006a0;stop-opacity:1;"
         offset="1"
         id="stop73288" />
    </linearGradient>
    <linearGradient
       inkscape:collect="always"
       id="linearGradient51871">
      <stop
         style="stop-color:#000000;stop-opacity:1;"
         offset="0"
         id="stop51867" />
      <stop
         style="stop-color:#676767;stop-opacity:1;"
         offset="0.40000001"
         id="stop51875" />
      <stop
         style="stop-color:#3f3f3f;stop-opacity:1;"
         offset="0.60000002"
         id="stop51877" />
      <stop
         style="stop-color:#333333;stop-opacity:1;"
         offset="0.80000001"
         id="stop51879" />
      <stop
         style="stop-color:#262626;stop-opacity:1;"
         offset="1"
         id="stop51869" />
    </linearGradient>
    <linearGradient
       inkscape:collect="always"
       id="linearGradient48050">
      <stop
         style="stop-color:#fac000;stop-opacity:1;"
         offset="0"
         id="stop48046" />
      <stop
         style="stop-color:#ffd645;stop-opacity:1;"
         offset="0.2"
         id="stop48054" />
      <stop
         style="stop-color:#ffc505;stop-opacity:1;"
         offset="0.40000001"
         id="stop48056" />
      <stop
         style="stop-color:#ffc80b;stop-opacity:1;"
         offset="0.60000002"
         id="stop48058" />
      <stop
         style="stop-color:#ffd038;stop-opacity:1;"
         offset="0.80000001"
         id="stop48060" />
      <stop
         style="stop-color:#bd9100;stop-opacity:1;"
         offset="1"
         id="stop48048" />
    </linearGradient>
    <rect
       x="168.31084"
       y="138.9543"
       width="120.36182"
       height="45.013363"
       id="rect41333" />
    <rect
       x="194.73172"
       y="140.91141"
       width="116.44761"
       height="40.120605"
       id="rect35313" />
    <rect
       x="157.54677"
       y="104.705"
       width="147.76126"
       height="87.091072"
       id="rect32089" />
    <linearGradient
       inkscape:collect="always"
       id="linearGradient30571">
      <stop
         style="stop-color:#ffffff;stop-opacity:1;"
         offset="0"
         id="stop30567" />
      <stop
         style="stop-color:#e5e5e5;stop-opacity:1;"
         offset="0.20096463"
         id="stop30575" />
      <stop
         style="stop-color:#cccccc;stop-opacity:1;"
         offset="0.40000001"
         id="stop30577" />
      <stop
         style="stop-color:#b2b2b2;stop-opacity:1;"
         offset="0.60000002"
         id="stop30579" />
      <stop
         style="stop-color:#999999;stop-opacity:1;"
         offset="0.80000001"
         id="stop30581" />
      <stop
         style="stop-color:#b2b2b2;stop-opacity:1;"
         offset="1"
         id="stop30569" />
    </linearGradient>
    <linearGradient
       inkscape:collect="always"
       id="linearGradient10014">
      <stop
         style="stop-color:#ffc242;stop-opacity:1;"
         offset="0"
         id="stop10010" />
      <stop
         style="stop-color:#c08a00;stop-opacity:1;"
         offset="0.2"
         id="stop10018" />
      <stop
         style="stop-color:#c09100;stop-opacity:1;"
         offset="0.40000001"
         id="stop10020" />
      <stop
         style="stop-color:#eab100;stop-opacity:1;"
         offset="0.60000002"
         id="stop10022" />
      <stop
         style="stop-color:#d49000;stop-opacity:1;"
         offset="0.80000001"
         id="stop10024" />
      <stop
         style="stop-color:#f79e00;stop-opacity:1;"
         offset="1"
         id="stop10012" />
    </linearGradient>
    <linearGradient
       inkscape:collect="always"
       xlink:href="#linearGradient73304"
       id="linearGradient5174"
       x1="37.282806"
       y1="64.209282"
       x2="95.537193"
       y2="64.468185"
       gradientUnits="userSpaceOnUse"
       gradientTransform="matrix(2.705673,0,0,2.705673,-44.593578,-17.664525)" />
    <linearGradient
       inkscape:collect="always"
       xlink:href="#linearGradient73318"
       id="linearGradient7094"
       x1="36.506081"
       y1="116.50877"
       x2="96.572823"
       y2="116.76768"
       gradientUnits="userSpaceOnUse"
       gradientTransform="matrix(2.705673,0,0,2.705673,-44.593578,-17.664525)" />
    <linearGradient
       inkscape:collect="always"
       xlink:href="#linearGradient10014"
       id="linearGradient10016"
       x1="50.746033"
       y1="15.146142"
       x2="81.038315"
       y2="15.146142"
       gradientUnits="userSpaceOnUse"
       gradientTransform="matrix(2.705673,0,0,2.705673,-44.593578,-17.664525)" />
    <linearGradient
       inkscape:collect="always"
       xlink:href="#linearGradient30571"
       id="linearGradient30573"
       x1="37.800625"
       y1="38.577351"
       x2="83.627411"
       y2="38.577351"
       gradientUnits="userSpaceOnUse"
       gradientTransform="matrix(2.705673,0,0,2.705673,-44.593578,-17.664525)" />
    <linearGradient
       inkscape:collect="always"
       xlink:href="#linearGradient73290"
       id="linearGradient47287"
       x1="84.663048"
       y1="71.976532"
       x2="113.14297"
       y2="71.976532"
       gradientUnits="userSpaceOnUse"
       gradientTransform="matrix(2.705673,0,0,2.705673,-44.593578,-17.664525)" />
    <linearGradient
       inkscape:collect="always"
       xlink:href="#linearGradient48050"
       id="linearGradient48052"
       x1="82.088196"
       y1="71.976532"
       x2="115.71782"
       y2="71.976532"
       gradientUnits="userSpaceOnUse"
       gradientTransform="matrix(2.705673,0,0,2.705673,-44.593578,-17.664525)" />
    <linearGradient
       inkscape:collect="always"
       xlink:href="#linearGradient51871"
       id="linearGradient51873"
       x1="87.132767"
       y1="40.778233"
       x2="108.08436"
       y2="40.778233"
       gradientUnits="userSpaceOnUse"
       gradientTransform="matrix(2.705673,0,0,2.705673,-44.593578,-17.664525)" />
  </defs>
  <g
     inkscape:label="insb"
     inkscape:groupmode="layer"
     id="insb"
     transform="translate(-26.144274,-10.356337)">
    <path
       id="rect49618"
       style="fill:url(#linearGradient51873);fill-opacity:1;stroke:none;stroke-width:6.72325;stroke-linecap:square;stroke-dasharray:none;stroke-opacity:1;paint-order:markers stroke fill"
       d="m 191.15919,75.181551 v 34.972969 h 39.34865 v -0.21686 a 15.005885,17.486381 0 0 0 2.3335,0.21686 15.005885,17.486381 0 0 0 15.00602,-17.486485 15.005885,17.486381 0 0 0 -15.00602,-17.486484 15.005885,17.486381 0 0 0 -2.3335,0.215345 v -0.215345 z" />
    <rect
       style="fill:url(#linearGradient47287);fill-opacity:1;stroke:url(#linearGradient48052);stroke-width:5.70053;stroke-linecap:square;stroke-dasharray:none;stroke-opacity:1;paint-order:markers stroke fill"
       id="rect44375"
       width="77.057358"
       height="68.651093"
       x="184.47694"
       y="142.75488" />
    <ellipse
       style="fill:url(#linearGradient10016);fill-opacity:1;stroke-width:13.7846;stroke-linecap:square;paint-order:markers stroke fill"
       id="path9282"
       cx="133.6891"
       cy="23.315983"
       rx="40.980503"
       ry="12.959646" />
    <path
       id="rect4995"
       style="fill:url(#linearGradient5174);fill-opacity:1;stroke-width:19.1554;stroke-linecap:square;paint-order:markers stroke fill;stroke:none"
       d="M 135.08989,21.564639 A 77.407625,20.665382 0 0 0 57.727749,41.866434 H 57.262151 V 308.25479 H 212.79879 V 41.866434 H 212.4842 A 77.407625,20.665382 0 0 0 135.08989,21.564639 Z" />
    <path
       id="path5000"
       style="fill:url(#linearGradient7094);fill-opacity:1;stroke-width:5.7472;stroke-linecap:square;paint-order:markers stroke fill"
       d="m 135.09258,285.66123 a 80.893987,1.78009 0 0 0 -80.846464,1.74875 h -0.486561 v 22.94636 H 216.30138 v -22.94636 h -0.32875 a 80.893987,1.78009 0 0 0 -80.88005,-1.74875 z" />
    <ellipse
       style="fill:#e7a600;fill-opacity:1;stroke-width:18.3877;stroke-linecap:square;paint-order:markers stroke fill;stroke:none"
       id="path12977"
       cx="63.744507"
       cy="216.37967"
       rx="42.381546"
       ry="65.849014"
       transform="rotate(-1.2742597)" />
    <ellipse
       style="fill:#ffffff;fill-opacity:1;stroke-width:22.6585;stroke-linecap:square;paint-order:markers stroke fill;stroke:none"
       id="path21707"
       cx="60.718987"
       cy="217.26591"
       rx="25.218771"
       ry="41.681023"
       transform="rotate(-1.7937035)" />
    <ellipse
       style="fill:#e7a600;fill-opacity:1;stroke-width:6.34651;stroke-linecap:square;paint-order:markers stroke fill;stroke:none"
       id="ellipse26081"
       cx="62.040123"
       cy="216.61903"
       rx="15.07034"
       ry="22.060772"
       transform="matrix(0.9997805,-0.02095131,0.02360404,0.99972139,0,0)" />
    <rect
       style="fill:url(#linearGradient30573);fill-opacity:1;stroke-width:16.123;stroke-linecap:square;paint-order:markers stroke fill"
       id="rect28387"
       width="123.9923"
       height="79.859436"
       x="57.682552"
       y="46.783451" />
    <g
       aria-label="TECHNOLOGIES"
       transform="scale(1.0130464,0.98712161)"
       id="text32821"
       style="font-size:8.73245px;stroke-width:14.0929;stroke-linecap:square;paint-order:markers stroke fill">
      <path
         d="m 111.41721,109.22727 h -2.26839 v 5.59849 h -0.84425 v -5.59849 h -2.26839 v -0.75044 h 5.38103 z"
         id="path974" />
      <path
         d="m 116.45287,114.82576 h -4.18288 v -6.34893 h 4.18288 v 0.75044 h -3.33863 v 1.73967 h 3.33863 v 0.75044 h -3.33863 v 2.35794 h 3.33863 z"
         id="path976" />
      <path
         d="m 122.6952,114.36526 q -0.23451,0.10233 -0.42639,0.19187 -0.18761,0.0896 -0.49461,0.18762 -0.26009,0.081 -0.5671,0.13644 -0.30273,0.0597 -0.66943,0.0597 -0.69075,0 -1.25784,-0.19187 -0.56284,-0.19614 -0.9807,-0.60974 -0.40933,-0.40507 -0.63958,-1.02759 -0.23025,-0.6268 -0.23025,-1.45399 0,-0.78456 0.22172,-1.40282 0.22172,-0.61827 0.63958,-1.04466 0.40507,-0.41359 0.97643,-0.63105 0.57563,-0.21746 1.27491,-0.21746 0.51166,0 1.01907,0.12365 0.51166,0.12366 1.13419,0.43492 v 1.00201 h -0.064 q -0.52445,-0.43918 -1.04038,-0.63958 -0.51594,-0.2004 -1.10435,-0.2004 -0.48182,0 -0.86984,0.15776 -0.38375,0.1535 -0.68648,0.48182 -0.29421,0.31979 -0.4605,0.81014 -0.16203,0.48608 -0.16203,1.12567 0,0.66943 0.17908,1.15125 0.18335,0.48182 0.46903,0.78456 0.29847,0.31552 0.69501,0.46902 0.40081,0.14924 0.84425,0.14924 0.60974,0 1.14273,-0.20893 0.53298,-0.20893 0.99775,-0.62679 h 0.0597 z"
         id="path978" />
      <path
         d="m 128.74566,114.82576 h -0.84425 v -3.10838 h -3.16807 v 3.10838 h -0.84425 v -6.34893 h 0.84425 v 2.49011 h 3.16807 v -2.49011 h 0.84425 z"
         id="path980" />
      <path
         d="m 135.295,114.82576 h -1.04465 l -3.01031,-5.6795 v 5.6795 h -0.78882 v -6.34893 h 1.30902 l 2.74594,5.18489 v -5.18489 h 0.78882 z"
         id="path982" />
      <path
         d="m 141.71642,109.20595 q 0.38802,0.42639 0.59268,1.04465 0.20893,0.61827 0.20893,1.40282 0,0.78456 -0.21319,1.40709 -0.20893,0.61826 -0.58842,1.03186 -0.39228,0.43065 -0.92953,0.64811 -0.53298,0.21746 -1.21947,0.21746 -0.66943,0 -1.21947,-0.22172 -0.54578,-0.22172 -0.92953,-0.64385 -0.38375,-0.42212 -0.59268,-1.03613 -0.20467,-0.614 -0.20467,-1.40282 0,-0.77602 0.20467,-1.39002 0.20467,-0.61827 0.59694,-1.05745 0.37523,-0.41786 0.92953,-0.63958 0.55857,-0.22172 1.21521,-0.22172 0.68222,0 1.22374,0.22598 0.54578,0.22172 0.92526,0.63532 z m -0.0768,2.44747 q 0,-1.23652 -0.5543,-1.90595 -0.55431,-0.6737 -1.51369,-0.6737 -0.9679,0 -1.5222,0.6737 -0.55005,0.66943 -0.55005,1.90595 0,1.24932 0.56284,1.91449 0.56283,0.66091 1.50941,0.66091 0.94659,0 1.50516,-0.66091 0.56283,-0.66517 0.56283,-1.91449 z"
         id="path984" />
      <path
         d="m 147.87348,114.82576 h -4.01659 v -6.34893 h 0.84425 v 5.59849 h 3.17234 z"
         id="path986" />
      <path
         d="m 153.36537,109.20595 q 0.38802,0.42639 0.59268,1.04465 0.20893,0.61827 0.20893,1.40282 0,0.78456 -0.21319,1.40709 -0.20893,0.61826 -0.58842,1.03186 -0.39228,0.43065 -0.92953,0.64811 -0.53298,0.21746 -1.21947,0.21746 -0.66943,0 -1.21947,-0.22172 -0.54578,-0.22172 -0.92953,-0.64385 -0.38375,-0.42212 -0.59268,-1.03613 -0.20467,-0.614 -0.20467,-1.40282 0,-0.77602 0.20467,-1.39002 0.20467,-0.61827 0.59694,-1.05745 0.37523,-0.41786 0.92953,-0.63958 0.55857,-0.22172 1.21521,-0.22172 0.68222,0 1.22374,0.22598 0.54578,0.22172 0.92526,0.63532 z m -0.0768,2.44747 q 0,-1.23652 -0.5543,-1.90595 -0.55431,-0.6737 -1.51369,-0.6737 -0.9679,0 -1.5222,0.6737 -0.55005,0.66943 -0.55005,1.90595 0,1.24932 0.56284,1.91449 0.56283,0.66091 1.50941,0.66091 0.94659,0 1.50516,-0.66091 0.56283,-0.66517 0.56283,-1.91449 z"
         id="path988" />
      <path
         d="m 160.8016,114.35673 q -0.52019,0.23878 -1.13846,0.41786 -0.614,0.17482 -1.18962,0.17482 -0.74192,0 -1.36019,-0.20466 -0.61826,-0.20467 -1.05318,-0.614 -0.43918,-0.4136 -0.67796,-1.03187 -0.23877,-0.62252 -0.23877,-1.45398 0,-1.52221 0.88689,-2.40057 0.89115,-0.88263 2.44321,-0.88263 0.54151,0 1.10434,0.13218 0.5671,0.12792 1.21948,0.43918 v 1.00202 h -0.0768 q -0.13218,-0.10234 -0.38375,-0.26863 -0.25157,-0.16629 -0.49462,-0.27715 -0.2942,-0.13218 -0.66943,-0.21746 -0.37096,-0.0895 -0.84425,-0.0895 -1.06597,0 -1.6885,0.68648 -0.61826,0.68223 -0.61826,1.85053 0,1.23227 0.64811,1.91875 0.64811,0.68223 1.76525,0.68223 0.40933,0 0.8144,-0.081 0.40934,-0.081 0.71634,-0.20893 v -1.55632 h -1.7013 v -0.74191 h 2.53702 z"
         id="path990" />
      <path
         d="m 164.51545,114.82576 h -2.50717 v -0.64811 h 0.83146 v -5.05271 h -0.83146 v -0.64811 h 2.50717 v 0.64811 h -0.83146 v 5.05271 h 0.83146 z"
         id="path992" />
      <path
         d="m 170.13526,114.82576 h -4.18288 v -6.34893 h 4.18288 v 0.75044 h -3.33863 v 1.73967 h 3.33863 v 0.75044 h -3.33863 v 2.35794 h 3.33863 z"
         id="path994" />
      <path
         d="m 176.08765,113.01361 q 0,0.37095 -0.17482,0.73339 -0.17055,0.36243 -0.48182,0.614 -0.34111,0.27288 -0.79734,0.42638 -0.45198,0.1535 -1.09156,0.1535 -0.68649,0 -1.23653,-0.12791 -0.54578,-0.12792 -1.11287,-0.37949 v -1.05744 h 0.0597 q 0.48182,0.4008 1.11288,0.61826 0.63105,0.21746 1.18536,0.21746 0.78455,0 1.21947,-0.29421 0.43918,-0.29421 0.43918,-0.78455 0,-0.42213 -0.20893,-0.62253 -0.20466,-0.20041 -0.62679,-0.31127 -0.31979,-0.0853 -0.69501,-0.14071 -0.37096,-0.0554 -0.78882,-0.1407 -0.84425,-0.17909 -1.25359,-0.60974 -0.40507,-0.43492 -0.40507,-1.12993 0,-0.79735 0.6737,-1.30475 0.67369,-0.51167 1.70982,-0.51167 0.66943,0 1.228,0.12792 0.55857,0.12791 0.98922,0.31553 v 0.99775 h -0.0597 q -0.36243,-0.307 -0.95512,-0.50741 -0.58841,-0.20466 -1.20668,-0.20466 -0.67796,0 -1.09155,0.28141 -0.40934,0.28142 -0.40934,0.72486 0,0.39655 0.20467,0.62253 0.20467,0.22599 0.7206,0.34538 0.27289,0.0597 0.77603,0.14497 0.50314,0.0853 0.85277,0.17482 0.70781,0.18761 1.06598,0.5671 0.35816,0.37948 0.35816,1.06171 z"
         id="path996" />
    </g>
    <g
       aria-label="(215) 368-6900"
       transform="matrix(0.62296831,0,0,0.55185104,-8.8789269,38.006221)"
       id="text35311"
       style="font-size:13.3333px;white-space:pre;shape-inside:url(#rect35313);display:inline;fill:#565656;stroke-width:21.518;stroke-linecap:square;paint-order:markers stroke fill">
      <path
         d="m 199.83007,155.75877 h -1.49089 q -1.15234,-1.32161 -1.79036,-2.88411 -0.63802,-1.5625 -0.63802,-3.52213 0,-1.95963 0.63802,-3.52212 0.63802,-1.5625 1.79036,-2.88411 h 1.49089 v 0.0651 q -0.52735,0.47526 -1.00912,1.10026 -0.47526,0.61849 -0.88541,1.44531 -0.39063,0.80078 -0.63802,1.76432 -0.24089,0.96354 -0.24089,2.03124 0,1.11328 0.23438,2.03776 0.24088,0.92448 0.64453,1.75781 0.39062,0.80078 0.89192,1.44531 0.5013,0.65104 1.00261,1.10025 z"
         id="path999" />
      <path
         d="m 208.39775,153.07648 h -6.56248 v -1.36067 q 0.68359,-0.58594 1.36718,-1.17187 0.69011,-0.58594 1.28255,-1.16536 1.25,-1.21094 1.71224,-1.92057 0.46224,-0.71615 0.46224,-1.54297 0,-0.7552 -0.50131,-1.17838 -0.49479,-0.42969 -1.38671,-0.42969 -0.59245,0 -1.28255,0.20834 -0.6901,0.20833 -1.34765,0.63802 h -0.0651 v -1.36719 q 0.46224,-0.22786 1.23047,-0.41666 0.77474,-0.18881 1.49739,-0.18881 1.49088,0 2.33723,0.72266 0.84636,0.71614 0.84636,1.94661 0,0.55338 -0.14323,1.03515 -0.13672,0.47526 -0.41016,0.90495 -0.2539,0.40364 -0.59895,0.79427 -0.33854,0.39062 -0.82682,0.86588 -0.69662,0.68359 -1.4388,1.32812 -0.74219,0.63802 -1.38672,1.18489 h 5.21483 z"
         id="path1001" />
      <path
         d="m 216.32091,153.07648 h -5.24738 v -0.98958 h 2.01822 v -6.49738 h -2.01822 v -0.88541 q 0.41015,0 0.8789,-0.0651 0.46875,-0.0716 0.70963,-0.20182 0.29948,-0.16276 0.46875,-0.41015 0.17578,-0.25391 0.20183,-0.67709 h 1.00911 v 8.73696 h 1.97916 z"
         id="path1003" />
      <path
         d="m 225.27271,149.99706 q 0,0.67709 -0.2474,1.29557 -0.24739,0.61849 -0.67708,1.04167 -0.46875,0.45573 -1.11979,0.70312 -0.64453,0.24089 -1.49739,0.24089 -0.79427,0 -1.52994,-0.16928 -0.73568,-0.16276 -1.24349,-0.39713 v -1.37369 h 0.0911 q 0.53385,0.33854 1.24999,0.57942 0.71615,0.23438 1.40625,0.23438 0.46224,0 0.89193,-0.13021 0.43619,-0.13021 0.77473,-0.45573 0.28646,-0.27995 0.42969,-0.67057 0.14974,-0.39063 0.14974,-0.90495 0,-0.5013 -0.17578,-0.84635 -0.16927,-0.34505 -0.47526,-0.55338 -0.33854,-0.2474 -0.82682,-0.34505 -0.48177,-0.10417 -1.08073,-0.10417 -0.57291,0 -1.10677,0.0781 -0.52734,0.0781 -0.91145,0.15625 v -4.99347 h 5.83332 v 1.13932 h -4.57682 v 2.57812 q 0.27995,-0.026 0.57292,-0.0391 0.29297,-0.013 0.50781,-0.013 0.78776,0 1.38021,0.13672 0.59244,0.13021 1.08723,0.46875 0.52083,0.35807 0.80729,0.92448 0.28646,0.5664 0.28646,1.41926 z"
         id="path1005" />
      <path
         d="m 231.09301,149.35253 q 0,1.95963 -0.63802,3.52213 -0.63802,1.5625 -1.79036,2.88411 h -1.49088 v -0.0651 q 0.5013,-0.44921 1.0026,-1.10025 0.50781,-0.64453 0.89192,-1.44531 0.40365,-0.83333 0.63802,-1.75781 0.24089,-0.92448 0.24089,-2.03776 0,-1.0677 -0.24089,-2.03124 -0.24088,-0.96354 -0.63802,-1.76432 -0.41015,-0.82682 -0.89192,-1.44531 -0.47526,-0.625 -1.0026,-1.10026 v -0.0651 h 1.49088 q 1.15234,1.32161 1.79036,2.88411 0.63802,1.56249 0.63802,3.52212 z"
         id="path1007" />
      <path
         d="m 243.71667,148.40853 q 0.3125,0.27994 0.51432,0.70312 0.20183,0.42318 0.20183,1.09375 0,0.66406 -0.24089,1.21744 -0.24088,0.55339 -0.67708,0.96354 -0.48828,0.45573 -1.15234,0.67708 -0.65755,0.21485 -1.44531,0.21485 -0.80729,0 -1.58854,-0.19532 -0.78124,-0.1888 -1.28255,-0.41666 v -1.36068 h 0.0977 q 0.55338,0.36459 1.30208,0.60547 0.7487,0.24089 1.44531,0.24089 0.41015,0 0.87239,-0.13672 0.46224,-0.13672 0.7487,-0.40365 0.29948,-0.28645 0.44271,-0.63151 0.14974,-0.34505 0.14974,-0.87239 0,-0.52083 -0.16928,-0.85937 -0.16276,-0.34505 -0.45572,-0.54037 -0.29297,-0.20182 -0.70964,-0.27343 -0.41666,-0.0781 -0.89843,-0.0781 h -0.58594 v -1.08072 h 0.45573 q 0.98958,0 1.57552,-0.41016 0.59244,-0.41666 0.59244,-1.21093 0,-0.35156 -0.14974,-0.61198 -0.14974,-0.26693 -0.41666,-0.4362 -0.27995,-0.16927 -0.59896,-0.23437 -0.31901,-0.0651 -0.72265,-0.0651 -0.61849,0 -1.3151,0.22136 -0.69662,0.22135 -1.3151,0.625 h -0.0651 v -1.36068 q 0.46224,-0.22786 1.23047,-0.41666 0.77473,-0.19532 1.49739,-0.19532 0.70963,0 1.25,0.13021 0.54036,0.13021 0.97656,0.41667 0.46874,0.3125 0.70963,0.7552 0.24088,0.44271 0.24088,1.03516 0,0.80729 -0.57291,1.41276 -0.56641,0.59895 -1.34114,0.7552 v 0.0911 q 0.3125,0.0521 0.71614,0.22135 0.40365,0.16276 0.68359,0.41016 z"
         id="path1009" />
      <path
         d="m 253.18931,149.93196 q 0,1.47786 -0.97656,2.41536 -0.97005,0.93099 -2.38281,0.93099 -0.71614,0 -1.30208,-0.22136 -0.58593,-0.22135 -1.03515,-0.65755 -0.5599,-0.54036 -0.86589,-1.43229 -0.29947,-0.89192 -0.29947,-2.14843 0,-1.28906 0.27343,-2.28515 0.27995,-0.99609 0.88542,-1.77083 0.57291,-0.73567 1.47786,-1.14583 0.90494,-0.41666 2.10937,-0.41666 0.38411,0 0.64453,0.0326 0.26041,0.0325 0.52734,0.11718 v 1.24349 h -0.0651 q -0.1823,-0.0977 -0.55339,-0.18229 -0.36458,-0.0911 -0.74869,-0.0911 -1.39974,0 -2.23307,0.87891 -0.83333,0.87239 -0.97005,2.36327 0.54687,-0.33203 1.07421,-0.5013 0.53386,-0.17578 1.23047,-0.17578 0.61849,0 1.08724,0.11719 0.47526,0.11068 0.97005,0.45573 0.57291,0.39713 0.85937,1.0026 0.29297,0.60547 0.29297,1.47135 z m -1.32161,0.0521 q 0,-0.60546 -0.18229,-1.0026 -0.17579,-0.39713 -0.58594,-0.6901 -0.29948,-0.20833 -0.66406,-0.27344 -0.36458,-0.0651 -0.76172,-0.0651 -0.55338,0 -1.02864,0.13021 -0.47526,0.1302 -0.97656,0.40364 -0.013,0.14323 -0.0195,0.27995 -0.007,0.13021 -0.007,0.33203 0,1.02864 0.20833,1.6276 0.21484,0.59244 0.58594,0.9375 0.29947,0.28645 0.64453,0.42317 0.35156,0.13021 0.76171,0.13021 0.94401,0 1.48437,-0.57292 0.54037,-0.57942 0.54037,-1.66015 z"
         id="path1011" />
      <path
         d="m 261.59423,150.37467 q 0,1.2565 -0.98307,2.08984 -0.97656,0.83333 -2.46093,0.83333 -1.57552,0 -2.51301,-0.8138 -0.93099,-0.8138 -0.93099,-2.08333 0,-0.80729 0.46875,-1.45833 0.46875,-0.65755 1.32161,-1.04167 v -0.0391 q -0.78125,-0.41666 -1.15885,-0.91145 -0.37109,-0.49479 -0.37109,-1.23698 0,-1.09375 0.89843,-1.82291 0.89844,-0.72917 2.28515,-0.72917 1.45182,0 2.3177,0.69662 0.86589,0.69661 0.86589,1.77083 0,0.65755 -0.41016,1.29556 -0.41015,0.63151 -1.20442,0.98959 v 0.0391 q 0.91145,0.39062 1.39322,0.96354 0.48177,0.57291 0.48177,1.45833 z m -1.54296,-4.73306 q 0,-0.69662 -0.54037,-1.10677 -0.53385,-0.41667 -1.36718,-0.41667 -0.82031,0 -1.34765,0.39063 -0.52083,0.39062 -0.52083,1.05468 0,0.46875 0.26041,0.8138 0.26693,0.33854 0.80078,0.60547 0.24089,0.11719 0.6901,0.30599 0.45573,0.1888 0.88542,0.3125 0.64453,-0.42969 0.89192,-0.89193 0.2474,-0.46224 0.2474,-1.0677 z m 0.20182,4.85675 q 0,-0.59895 -0.26693,-0.95702 -0.26041,-0.36459 -1.02864,-0.72917 -0.30599,-0.14323 -0.67057,-0.26693 -0.36458,-0.12369 -0.97005,-0.34505 -0.58594,0.31901 -0.94401,0.86589 -0.35156,0.54687 -0.35156,1.23697 0,0.87891 0.60547,1.45182 0.60546,0.57292 1.53645,0.57292 0.95052,0 1.51693,-0.48828 0.57291,-0.48828 0.57291,-1.34115 z"
         id="path1013" />
      <path
         d="m 267.44708,149.42415 h -4.06248 v -1.17838 h 4.06248 z"
         id="path1015" />
      <path
         d="m 276.19706,149.93196 q 0,1.47786 -0.97656,2.41536 -0.97005,0.93099 -2.3828,0.93099 -0.71615,0 -1.30208,-0.22136 -0.58594,-0.22135 -1.03516,-0.65755 -0.55989,-0.54036 -0.86588,-1.43229 -0.29948,-0.89192 -0.29948,-2.14843 0,-1.28906 0.27344,-2.28515 0.27995,-0.99609 0.88541,-1.77083 0.57292,-0.73567 1.47786,-1.14583 0.90495,-0.41666 2.10937,-0.41666 0.38412,0 0.64453,0.0326 0.26042,0.0325 0.52734,0.11718 v 1.24349 h -0.0651 q -0.18229,-0.0977 -0.55338,-0.18229 -0.36459,-0.0911 -0.7487,-0.0911 -1.39974,0 -2.23307,0.87891 -0.83333,0.87239 -0.97005,2.36327 0.54688,-0.33203 1.07422,-0.5013 0.53385,-0.17578 1.23047,-0.17578 0.61848,0 1.08723,0.11719 0.47526,0.11068 0.97005,0.45573 0.57292,0.39713 0.85937,1.0026 0.29297,0.60547 0.29297,1.47135 z m -1.32161,0.0521 q 0,-0.60546 -0.18229,-1.0026 -0.17578,-0.39713 -0.58594,-0.6901 -0.29947,-0.20833 -0.66406,-0.27344 -0.36458,-0.0651 -0.76171,-0.0651 -0.55339,0 -1.02865,0.13021 -0.47526,0.1302 -0.97656,0.40364 -0.013,0.14323 -0.0195,0.27995 -0.007,0.13021 -0.007,0.33203 0,1.02864 0.20833,1.6276 0.21485,0.59244 0.58594,0.9375 0.29948,0.28645 0.64453,0.42317 0.35156,0.13021 0.76172,0.13021 0.94401,0 1.48437,-0.57292 0.54036,-0.57942 0.54036,-1.66015 z"
         id="path1017" />
      <path
         d="m 284.51735,147.64681 q 0,1.26953 -0.29297,2.30468 -0.28645,1.03515 -0.87239,1.76432 -0.59245,0.74218 -1.48437,1.14583 -0.89192,0.40364 -2.09635,0.40364 -0.33854,0 -0.63802,-0.0391 -0.29948,-0.0326 -0.53385,-0.11067 v -1.24349 h 0.0651 q 0.1888,0.0976 0.53386,0.1888 0.34505,0.0846 0.76822,0.0846 1.4388,0 2.2526,-0.85938 0.82031,-0.86588 0.95052,-2.3828 -0.60547,0.36458 -1.13932,0.52083 -0.53385,0.15625 -1.16536,0.15625 -0.59896,0 -1.08724,-0.11719 -0.48177,-0.11719 -0.97005,-0.45573 -0.57291,-0.39713 -0.86588,-1.00911 -0.28646,-0.61198 -0.28646,-1.46484 0,-1.48437 0.97656,-2.41536 0.97656,-0.93099 2.38281,-0.93099 0.70312,0 1.30208,0.22136 0.59895,0.21484 1.04817,0.65104 0.55339,0.54036 0.85286,1.39322 0.29948,0.84636 0.29948,2.19401 z m -1.3151,-0.27995 q 0,-1.00911 -0.20833,-1.62109 -0.20833,-0.61198 -0.57292,-0.95052 -0.30598,-0.29296 -0.65755,-0.41666 -0.35156,-0.13021 -0.76171,-0.13021 -0.9375,0 -1.48437,0.58594 -0.54037,0.58593 -0.54037,1.64713 0,0.61849 0.17578,1.00911 0.17578,0.39062 0.59245,0.68359 0.29297,0.20182 0.64453,0.27344 0.35156,0.0651 0.78125,0.0651 0.50781,0 1.02864,-0.13672 0.52083,-0.13671 0.97656,-0.39713 0.007,-0.13672 0.013,-0.26693 0.013,-0.13672 0.013,-0.34505 z"
         id="path1019" />
      <path
         d="m 292.99389,148.22623 q 0,2.61068 -0.82031,3.83463 -0.8138,1.21745 -2.53254,1.21745 -1.74479,0 -2.55208,-1.23698 -0.80078,-1.23698 -0.80078,-3.80207 0,-2.58463 0.8138,-3.8151 0.8138,-1.23698 2.53906,-1.23698 1.74478,0 2.54556,1.25651 0.80729,1.25 0.80729,3.78254 z m -1.71223,2.95573 q 0.22786,-0.52735 0.30599,-1.23698 0.0846,-0.71614 0.0846,-1.71875 0,-0.98958 -0.0846,-1.71874 -0.0781,-0.72917 -0.3125,-1.23698 -0.22787,-0.5013 -0.625,-0.7552 -0.39063,-0.25391 -1.00911,-0.25391 -0.61198,0 -1.01563,0.25391 -0.39713,0.2539 -0.6315,0.76822 -0.22136,0.48177 -0.30599,1.25651 -0.0781,0.77474 -0.0781,1.69922 0,1.01562 0.0716,1.69921 0.0716,0.68359 0.30598,1.22396 0.21485,0.50781 0.60547,0.77473 0.39714,0.26693 1.04818,0.26693 0.61197,0 1.01562,-0.25391 0.40364,-0.2539 0.625,-0.76822 z"
         id="path1021" />
      <path
         d="m 301.47044,148.22623 q 0,2.61068 -0.82031,3.83463 -0.8138,1.21745 -2.53255,1.21745 -1.74478,0 -2.55207,-1.23698 -0.80078,-1.23698 -0.80078,-3.80207 0,-2.58463 0.8138,-3.8151 0.8138,-1.23698 2.53905,-1.23698 1.74479,0 2.54557,1.25651 0.80729,1.25 0.80729,3.78254 z m -1.71224,2.95573 q 0.22787,-0.52735 0.30599,-1.23698 0.0846,-0.71614 0.0846,-1.71875 0,-0.98958 -0.0846,-1.71874 -0.0781,-0.72917 -0.3125,-1.23698 -0.22786,-0.5013 -0.62499,-0.7552 -0.39063,-0.25391 -1.00912,-0.25391 -0.61197,0 -1.01562,0.25391 -0.39713,0.2539 -0.63151,0.76822 -0.22135,0.48177 -0.30599,1.25651 -0.0781,0.77474 -0.0781,1.69922 0,1.01562 0.0716,1.69921 0.0716,0.68359 0.30599,1.22396 0.21485,0.50781 0.60547,0.77473 0.39713,0.26693 1.04817,0.26693 0.61198,0 1.01563,-0.25391 0.40364,-0.2539 0.62499,-0.76822 z"
         id="path1023" />
    </g>
    <g
       aria-label="Indium Antimonide"
       transform="matrix(1.0798952,0,0,1.2607536,-84.20731,-126.71041)"
       id="text41331"
       style="font-size:13.3333px;white-space:pre;shape-inside:url(#rect41333);display:inline;stroke-width:21.518;stroke-linecap:square;paint-order:markers stroke fill">
      <path
         d="m 173.03059,151.11945 h -3.82812 v -0.98958 h 1.26953 v -7.71482 h -1.26953 v -0.98958 h 3.82812 v 0.98958 h -1.26953 v 7.71482 h 1.26953 z"
         id="path1026" />
      <path
         d="m 181.20765,151.11945 h -1.22396 v -4.14061 q 0,-0.5013 -0.0586,-0.9375 -0.0586,-0.44271 -0.21484,-0.6901 -0.16276,-0.27344 -0.46875,-0.40365 -0.30599,-0.13672 -0.79427,-0.13672 -0.5013,0 -1.04817,0.2474 -0.54688,0.24739 -1.04818,0.63151 v 5.42967 h -1.22395 v -7.27212 h 1.22395 v 0.80729 q 0.57292,-0.47526 1.18489,-0.74218 0.61198,-0.26693 1.25651,-0.26693 1.17838,0 1.79687,0.70964 0.61849,0.70963 0.61849,2.04426 z"
         id="path1028" />
      <path
         d="m 189.46284,151.11945 h -1.22396 v -0.76172 q -0.52734,0.45573 -1.10026,0.70964 -0.57291,0.2539 -1.24348,0.2539 -1.30208,0 -2.07031,-1.0026 -0.76172,-1.0026 -0.76172,-2.77994 0,-0.92448 0.26042,-1.64713 0.26693,-0.72265 0.71614,-1.23047 0.44271,-0.49479 1.02865,-0.7552 0.59244,-0.26042 1.22395,-0.26042 0.57292,0 1.01563,0.1237 0.4427,0.11719 0.93098,0.37109 v -3.15103 h 1.22396 z m -1.22396,-1.79036 v -4.17316 q -0.49479,-0.22136 -0.88541,-0.30599 -0.39063,-0.0846 -0.85286,-0.0846 -1.02865,0 -1.60156,0.71615 -0.57292,0.71614 -0.57292,2.03124 0,1.29557 0.44271,1.97265 0.44271,0.67057 1.41927,0.67057 0.52083,0 1.05468,-0.22786 0.53385,-0.23438 0.99609,-0.59896 z"
         id="path1030" />
      <path
         d="m 193.18679,142.62989 h -1.38021 v -1.26953 h 1.38021 z m -0.0781,8.48956 h -1.22395 v -7.27212 h 1.22395 z"
         id="path1032" />
      <path
         d="m 201.55916,151.11945 h -1.22395 v -0.80729 q -0.61849,0.48828 -1.1849,0.7487 -0.5664,0.26041 -1.24999,0.26041 -1.14583,0 -1.78385,-0.69661 -0.63802,-0.70312 -0.63802,-2.05729 v -4.72004 h 1.22395 v 4.14062 q 0,0.55338 0.0521,0.95052 0.0521,0.39062 0.22135,0.67057 0.17578,0.28646 0.45573,0.41666 0.27995,0.13021 0.8138,0.13021 0.47526,0 1.03515,-0.24739 0.56641,-0.2474 1.05469,-0.63151 v -5.42968 h 1.22395 z"
         id="path1034" />
      <path
         d="m 214.57996,151.11945 h -1.22395 v -4.14061 q 0,-0.46875 -0.0456,-0.90495 -0.0391,-0.4362 -0.17578,-0.69661 -0.14974,-0.27995 -0.42969,-0.42318 -0.27995,-0.14323 -0.80729,-0.14323 -0.51432,0 -1.02864,0.26042 -0.51433,0.25391 -1.02865,0.65104 0.0195,0.14974 0.0325,0.35156 0.013,0.19531 0.013,0.39063 v 4.65493 h -1.22396 v -4.14061 q 0,-0.48177 -0.0456,-0.91146 -0.0391,-0.4362 -0.17578,-0.69661 -0.14974,-0.27995 -0.42969,-0.41667 -0.27995,-0.14323 -0.80729,-0.14323 -0.5013,0 -1.00911,0.2474 -0.5013,0.24739 -1.0026,0.63151 v 5.42967 h -1.22396 v -7.27212 h 1.22396 v 0.80729 q 0.57291,-0.47526 1.13932,-0.74218 0.57291,-0.26693 1.21744,-0.26693 0.74219,0 1.25651,0.3125 0.52083,0.3125 0.77474,0.86588 0.74218,-0.62499 1.35416,-0.89843 0.61198,-0.27995 1.30859,-0.27995 1.19791,0 1.76432,0.72917 0.57291,0.72265 0.57291,2.02473 z"
         id="path1036" />
      <path
         d="m 177.25584,167.78608 h -1.3737 l -0.95052,-2.70182 h -4.19269 l -0.95052,2.70182 h -1.30859 l 3.52863,-9.69399 h 1.71875 z m -2.72135,-3.80859 -1.69921,-4.7591 -1.70573,4.7591 z"
         id="path1038" />
      <path
         d="m 184.71024,167.78608 h -1.22395 v -4.14062 q 0,-0.5013 -0.0586,-0.93749 -0.0586,-0.44271 -0.21485,-0.69011 -0.16276,-0.27343 -0.46875,-0.40364 -0.30598,-0.13672 -0.79426,-0.13672 -0.50131,0 -1.04818,0.24739 -0.54687,0.2474 -1.04817,0.63151 v 5.42968 h -1.22396 v -7.27212 h 1.22396 v 0.80729 q 0.57291,-0.47526 1.18489,-0.74219 0.61198,-0.26692 1.25651,-0.26692 1.17838,0 1.79687,0.70963 0.61848,0.70964 0.61848,2.04427 z"
         id="path1040" />
      <path
         d="m 190.84304,167.72097 q -0.34505,0.0911 -0.7552,0.14974 -0.40365,0.0586 -0.72266,0.0586 -1.11328,0 -1.6927,-0.59896 -0.57943,-0.59896 -0.57943,-1.92057 v -3.86718 h -0.82682 v -1.02864 h 0.82682 v -2.08984 h 1.22396 v 2.08984 h 2.52603 v 1.02864 h -2.52603 v 3.3138 q 0,0.57291 0.026,0.89843 0.026,0.31901 0.18229,0.59896 0.14323,0.26042 0.39062,0.38411 0.25391,0.11719 0.76823,0.11719 0.29948,0 0.625,-0.0846 0.32552,-0.0912 0.46875,-0.14974 h 0.0651 z"
         id="path1042" />
      <path
         d="m 193.636,159.29652 h -1.3802 v -1.26953 h 1.3802 z m -0.0781,8.48956 h -1.22396 v -7.27212 h 1.22396 z"
         id="path1044" />
      <path
         d="m 206.5917,167.78608 h -1.22395 v -4.14062 q 0,-0.46875 -0.0456,-0.90494 -0.0391,-0.4362 -0.17578,-0.69662 -0.14974,-0.27994 -0.42969,-0.42317 -0.27994,-0.14323 -0.80728,-0.14323 -0.51433,0 -1.02865,0.26042 -0.51432,0.2539 -1.02864,0.65104 0.0195,0.14974 0.0326,0.35156 0.013,0.19531 0.013,0.39062 v 4.65494 h -1.22395 v -4.14062 q 0,-0.48177 -0.0456,-0.91145 -0.0391,-0.4362 -0.17578,-0.69662 -0.14974,-0.27994 -0.42968,-0.41666 -0.27995,-0.14323 -0.80729,-0.14323 -0.5013,0 -1.00912,0.24739 -0.5013,0.2474 -1.0026,0.63151 v 5.42968 h -1.22395 v -7.27212 h 1.22395 v 0.80729 q 0.57292,-0.47526 1.13932,-0.74219 0.57292,-0.26692 1.21745,-0.26692 0.74218,0 1.25651,0.3125 0.52083,0.3125 0.77473,0.86588 0.74219,-0.625 1.35417,-0.89843 0.61197,-0.27995 1.30859,-0.27995 1.19791,0 1.76432,0.72916 0.57291,0.72266 0.57291,2.02474 z"
         id="path1046" />
      <path
         d="m 215.14637,164.15327 q 0,1.77734 -0.91146,2.80599 -0.91146,1.02864 -2.4414,1.02864 -1.54296,0 -2.45442,-1.02864 -0.90495,-1.02865 -0.90495,-2.80599 0,-1.77733 0.90495,-2.80598 0.91146,-1.03515 2.45442,-1.03515 1.52994,0 2.4414,1.03515 0.91146,1.02865 0.91146,2.80598 z m -1.26302,0 q 0,-1.41275 -0.55339,-2.09634 -0.55338,-0.69011 -1.53645,-0.69011 -0.99609,0 -1.54947,0.69011 -0.54688,0.68359 -0.54688,2.09634 0,1.36719 0.55339,2.07682 0.55338,0.70313 1.54296,0.70313 0.97656,0 1.52994,-0.69662 0.5599,-0.70312 0.5599,-2.08333 z"
         id="path1048" />
      <path
         d="m 223.12161,167.78608 h -1.22396 v -4.14062 q 0,-0.5013 -0.0586,-0.93749 -0.0586,-0.44271 -0.21485,-0.69011 -0.16276,-0.27343 -0.46875,-0.40364 -0.30598,-0.13672 -0.79426,-0.13672 -0.5013,0 -1.04818,0.24739 -0.54687,0.2474 -1.04817,0.63151 v 5.42968 h -1.22396 v -7.27212 h 1.22396 v 0.80729 q 0.57291,-0.47526 1.18489,-0.74219 0.61198,-0.26692 1.25651,-0.26692 1.17838,0 1.79687,0.70963 0.61849,0.70964 0.61849,2.04427 z"
         id="path1050" />
      <path
         d="m 226.79347,159.29652 h -1.3802 v -1.26953 h 1.3802 z m -0.0781,8.48956 h -1.22396 v -7.27212 h 1.22396 z"
         id="path1052" />
      <path
         d="m 235.03564,167.78608 h -1.22396 v -0.76172 q -0.52734,0.45573 -1.10025,0.70963 -0.57292,0.25391 -1.24349,0.25391 -1.30208,0 -2.07031,-1.0026 -0.76171,-1.0026 -0.76171,-2.77994 0,-0.92448 0.26041,-1.64713 0.26693,-0.72266 0.71615,-1.23047 0.4427,-0.49479 1.02864,-0.75521 0.59245,-0.26041 1.22395,-0.26041 0.57292,0 1.01563,0.1237 0.4427,0.11718 0.93098,0.37109 v -3.15104 h 1.22396 z m -1.22396,-1.79036 v -4.17317 q -0.49479,-0.22135 -0.88541,-0.30599 -0.39062,-0.0846 -0.85286,-0.0846 -1.02865,0 -1.60156,0.71614 -0.57292,0.71615 -0.57292,2.03125 0,1.29557 0.44271,1.97265 0.44271,0.67057 1.41927,0.67057 0.52083,0 1.05468,-0.22787 0.53386,-0.23437 0.99609,-0.59895 z"
         id="path1054" />
      <path
         d="m 243.53171,164.27697 h -5.35805 q 0,0.67057 0.20182,1.17187 0.20182,0.49479 0.55338,0.8138 0.33854,0.3125 0.80078,0.46875 0.46875,0.15625 1.02864,0.15625 0.74219,0 1.49089,-0.29297 0.7552,-0.29947 1.07421,-0.58593 h 0.0651 v 1.33463 q -0.61849,0.26042 -1.26302,0.4362 -0.64453,0.17578 -1.35416,0.17578 -1.8099,0 -2.82552,-0.97656 -1.01562,-0.98307 -1.01562,-2.78645 0,-1.78385 0.97005,-2.83203 0.97656,-1.04817 2.5651,-1.04817 1.47135,0 2.26562,0.85937 0.80077,0.85937 0.80077,2.4414 z m -1.1914,-0.9375 q -0.007,-0.96353 -0.48828,-1.49088 -0.47526,-0.52734 -1.45182,-0.52734 -0.98307,0 -1.569,0.57943 -0.57943,0.57942 -0.65755,1.43879 z"
         id="path1056" />
    </g>
  </g>
</svg>
