<?xml version="1.0" encoding="UTF-8" standalone="no"?>
<!-- Created with Inkscape (http://www.inkscape.org/) -->

<svg
   width="68.626953"
   height="300"
   viewBox="0 0 68.626953 300"
   version="1.1"
   id="svg7877"
   inkscape:version="1.2.1 (9c6d41e410, 2022-07-14)"
   sodipodi:docname="lecture.svg"
   xmlns:inkscape="http://www.inkscape.org/namespaces/inkscape"
   xmlns:sodipodi="http://sodipodi.sourceforge.net/DTD/sodipodi-0.dtd"
   xmlns="http://www.w3.org/2000/svg"
   xmlns:svg="http://www.w3.org/2000/svg">
  <sodipodi:namedview
     id="namedview7879"
     pagecolor="#ffffff"
     bordercolor="#eeeeee"
     borderopacity="1"
     inkscape:showpageshadow="0"
     inkscape:pageopacity="0"
     inkscape:pagecheckerboard="0"
     inkscape:deskcolor="#505050"
     inkscape:document-units="px"
     showgrid="false"
     inkscape:zoom="2.7875647"
     inkscape:cx="134.34666"
     inkscape:cy="180.26487"
     inkscape:window-width="2498"
     inkscape:window-height="1417"
     inkscape:window-x="54"
     inkscape:window-y="-8"
     inkscape:window-maximized="1"
     inkscape:current-layer="lecture" />
  <defs
     id="defs7874">
    <rect
       x="22.105742"
       y="415.87717"
       width="21.899145"
       height="53.508289"
       id="rect1769" />
  </defs>
  <g
     inkscape:label="lecture"
     inkscape:groupmode="layer"
     id="lecture"
     transform="matrix(8.3275587,0,0,8.3275587,-324.50574,-198.75851)">
    <path
       id="rect1303"
       style="fill:#4d4d4d;stroke-width:0.212716"
       inkscape:label="rect1303"
       d="m 43.083356,23.86756 -2.069324,1.056123 0.836595,1.665451 0.386049,-0.004 v 1.672721 H 41.04288 v 1.159554 h 1.193796 v 3.649873 h 1.82306 v -3.649873 h 1.159319 v -1.159554 h -1.159319 v -1.691484 l 0.377136,-0.004 0.761778,-1.682104 z" />
    <path
       id="path836"
       style="fill:#800000;stroke-width:0.213605"
       d="m 43.082418,32.07051 a 3.8633163,4.9356112 0 0 0 -3.855797,4.644781 h -0.0075 v 21.159038 a 4.1204276,1.5021427 0 0 0 -0.251424,0.515982 4.1204276,1.5021427 0 0 0 4.120355,1.502213 4.1204276,1.5021427 0 0 0 4.12059,-1.502213 4.1204276,1.5021427 0 0 0 -0.257288,-0.52208 v -21.15294 h -0.01243 A 3.8633163,4.9356112 0 0 0 43.082418,32.07051 Z" />
    <rect
       style="fill:#666666;stroke-width:0.306204"
       id="rect1697"
       width="6.7780609"
       height="20.206371"
       x="39.706577"
       y="37.801476" />
    <text
       xml:space="preserve"
       id="text1767"
       style="font-style:normal;font-variant:normal;font-weight:normal;font-stretch:normal;font-size:13.3333px;font-family:sans-serif;-inkscape-font-specification:'sans-serif, Normal';font-variant-ligatures:normal;font-variant-caps:normal;font-variant-numeric:normal;font-variant-east-asian:normal;white-space:pre;shape-inside:url(#rect1769);display:inline;fill:#000000"
       transform="matrix(0.26458333,0,0,0.35437079,35.83945,-108.63902)"><tspan
         x="22.105469"
         y="428.04133"
         id="tspan157">O
</tspan><tspan
         x="22.105469"
         y="444.70795"
         id="tspan159">C
</tspan><tspan
         x="22.105469"
         y="461.37458"
         id="tspan161">S</tspan></text>
  </g>
</svg>
