<?xml version="1.0" encoding="UTF-8" standalone="no"?>
<!-- Created with Inkscape (http://www.inkscape.org/) -->

<svg
   width="238.24031"
   height="300"
   viewBox="0 0 238.24032 300"
   version="1.1"
   id="svg4953"
   inkscape:version="1.3 (0e150ed6c4, 2023-07-21)"
   sodipodi:docname="mct.svg"
   xmlns:inkscape="http://www.inkscape.org/namespaces/inkscape"
   xmlns:sodipodi="http://sodipodi.sourceforge.net/DTD/sodipodi-0.dtd"
   xmlns:xlink="http://www.w3.org/1999/xlink"
   xmlns="http://www.w3.org/2000/svg"
   xmlns:svg="http://www.w3.org/2000/svg">
  <sodipodi:namedview
     id="namedview4955"
     pagecolor="#ffffff"
     bordercolor="#eeeeee"
     borderopacity="1"
     inkscape:showpageshadow="0"
     inkscape:pageopacity="0"
     inkscape:pagecheckerboard="0"
     inkscape:deskcolor="#505050"
     inkscape:document-units="px"
     showgrid="false"
     inkscape:zoom="2.7237258"
     inkscape:cx="78.75242"
     inkscape:cy="198.44141"
     inkscape:window-width="1353"
     inkscape:window-height="1237"
     inkscape:window-x="396"
     inkscape:window-y="235"
     inkscape:window-maximized="0"
     inkscape:current-layer="mtc" />
  <defs
     id="defs4950">
    <linearGradient
       inkscape:collect="always"
       id="linearGradient51871">
      <stop
         style="stop-color:#000000;stop-opacity:1;"
         offset="0"
         id="stop51867" />
      <stop
         style="stop-color:#676767;stop-opacity:1;"
         offset="0.40000001"
         id="stop51875" />
      <stop
         style="stop-color:#3f3f3f;stop-opacity:1;"
         offset="0.60000002"
         id="stop51877" />
      <stop
         style="stop-color:#333333;stop-opacity:1;"
         offset="0.80000001"
         id="stop51879" />
      <stop
         style="stop-color:#262626;stop-opacity:1;"
         offset="1"
         id="stop51869" />
    </linearGradient>
    <linearGradient
       inkscape:collect="always"
       id="linearGradient48050">
      <stop
         style="stop-color:#fac000;stop-opacity:1;"
         offset="0"
         id="stop48046" />
      <stop
         style="stop-color:#ffd645;stop-opacity:1;"
         offset="0.2"
         id="stop48054" />
      <stop
         style="stop-color:#ffc505;stop-opacity:1;"
         offset="0.40000001"
         id="stop48056" />
      <stop
         style="stop-color:#ffc80b;stop-opacity:1;"
         offset="0.60000002"
         id="stop48058" />
      <stop
         style="stop-color:#ffd038;stop-opacity:1;"
         offset="0.80000001"
         id="stop48060" />
      <stop
         style="stop-color:#bd9100;stop-opacity:1;"
         offset="1"
         id="stop48048" />
    </linearGradient>
    <linearGradient
       inkscape:collect="always"
       id="linearGradient10014">
      <stop
         style="stop-color:#ffc242;stop-opacity:1;"
         offset="0"
         id="stop10010" />
      <stop
         style="stop-color:#c08a00;stop-opacity:1;"
         offset="0.2"
         id="stop10018" />
      <stop
         style="stop-color:#c09100;stop-opacity:1;"
         offset="0.40000001"
         id="stop10020" />
      <stop
         style="stop-color:#eab100;stop-opacity:1;"
         offset="0.60000002"
         id="stop10022" />
      <stop
         style="stop-color:#d49000;stop-opacity:1;"
         offset="0.80000001"
         id="stop10024" />
      <stop
         style="stop-color:#f79e00;stop-opacity:1;"
         offset="1"
         id="stop10012" />
    </linearGradient>
    <linearGradient
       inkscape:collect="always"
       xlink:href="#linearGradient30571"
       id="linearGradient30573"
       x1="37.800625"
       y1="38.577351"
       x2="83.627411"
       y2="38.577351"
       gradientUnits="userSpaceOnUse"
       gradientTransform="matrix(2.705673,0,0,2.705673,-39.858001,-28.020862)" />
    <linearGradient
       inkscape:collect="always"
       id="linearGradient30571">
      <stop
         style="stop-color:#ffffff;stop-opacity:1;"
         offset="0"
         id="stop30567" />
      <stop
         style="stop-color:#e5e5e5;stop-opacity:1;"
         offset="0.20096463"
         id="stop30575" />
      <stop
         style="stop-color:#cccccc;stop-opacity:1;"
         offset="0.40000001"
         id="stop30577" />
      <stop
         style="stop-color:#b2b2b2;stop-opacity:1;"
         offset="0.60000002"
         id="stop30579" />
      <stop
         style="stop-color:#999999;stop-opacity:1;"
         offset="0.80000001"
         id="stop30581" />
      <stop
         style="stop-color:#b2b2b2;stop-opacity:1;"
         offset="1"
         id="stop30569" />
    </linearGradient>
    <rect
       x="194.73172"
       y="140.91141"
       width="116.44761"
       height="40.120605"
       id="rect35313" />
    <rect
       x="168.31084"
       y="138.9543"
       width="120.36182"
       height="45.013363"
       id="rect41333" />
    <linearGradient
       inkscape:collect="always"
       xlink:href="#linearGradient51871"
       id="linearGradient51873-5"
       x1="87.132767"
       y1="40.778233"
       x2="108.08436"
       y2="40.778233"
       gradientUnits="userSpaceOnUse"
       gradientTransform="matrix(2.705673,0,0,2.705673,-39.85801,-28.020865)" />
    <linearGradient
       inkscape:collect="always"
       xlink:href="#linearGradient68939"
       id="linearGradient47287-8"
       x1="84.663048"
       y1="71.976532"
       x2="113.14297"
       y2="71.976532"
       gradientUnits="userSpaceOnUse"
       gradientTransform="matrix(2.705673,0,0,2.705673,-39.85801,-28.020865)" />
    <linearGradient
       inkscape:collect="always"
       id="linearGradient68939">
      <stop
         style="stop-color:#eb0f0f;stop-opacity:1;"
         offset="0"
         id="stop68927" />
      <stop
         style="stop-color:#c80f0f;stop-opacity:1;"
         offset="0.2"
         id="stop68929" />
      <stop
         style="stop-color:#b90f0f;stop-opacity:1;"
         offset="0.40000001"
         id="stop68931" />
      <stop
         style="stop-color:#af0f0f;stop-opacity:1;"
         offset="0.60000002"
         id="stop68933" />
      <stop
         style="stop-color:#9b0f0f;stop-opacity:1;"
         offset="0.80000001"
         id="stop68935" />
      <stop
         style="stop-color:#870f0f;stop-opacity:1;"
         offset="1"
         id="stop68937" />
    </linearGradient>
    <linearGradient
       inkscape:collect="always"
       xlink:href="#linearGradient48050"
       id="linearGradient48052-0"
       x1="82.088196"
       y1="71.976532"
       x2="115.71782"
       y2="71.976532"
       gradientUnits="userSpaceOnUse"
       gradientTransform="matrix(2.705673,0,0,2.705673,-39.85801,-28.020865)" />
    <linearGradient
       inkscape:collect="always"
       xlink:href="#linearGradient10014"
       id="linearGradient10016-7"
       x1="50.746033"
       y1="15.146142"
       x2="81.038315"
       y2="15.146142"
       gradientUnits="userSpaceOnUse"
       gradientTransform="matrix(2.705673,0,0,2.705673,-39.85801,-28.020865)" />
    <linearGradient
       inkscape:collect="always"
       xlink:href="#linearGradient65784"
       id="linearGradient5174-5"
       x1="37.282806"
       y1="64.209282"
       x2="95.537193"
       y2="64.468185"
       gradientUnits="userSpaceOnUse"
       gradientTransform="matrix(2.705673,0,0,2.705673,-39.85801,-28.020865)" />
    <linearGradient
       inkscape:collect="always"
       id="linearGradient65784">
      <stop
         style="stop-color:#fa0f0f;stop-opacity:1;"
         offset="0"
         id="stop65772" />
      <stop
         style="stop-color:#e60f0f;stop-opacity:1;"
         offset="0.20096463"
         id="stop65774" />
      <stop
         style="stop-color:#c80f0f;stop-opacity:1;"
         offset="0.40000001"
         id="stop65776" />
      <stop
         style="stop-color:#9b0f0f;stop-opacity:1;"
         offset="0.60000002"
         id="stop65778" />
      <stop
         style="stop-color:#b40f0f;stop-opacity:1;"
         offset="0.80000001"
         id="stop65780" />
      <stop
         style="stop-color:#d20f0f;stop-opacity:1;"
         offset="1"
         id="stop65782" />
    </linearGradient>
    <linearGradient
       inkscape:collect="always"
       xlink:href="#linearGradient67250"
       id="linearGradient7094-6"
       x1="36.506081"
       y1="116.50877"
       x2="96.572823"
       y2="116.76768"
       gradientUnits="userSpaceOnUse"
       gradientTransform="matrix(2.705673,0,0,2.705673,-39.85801,-28.020865)" />
    <linearGradient
       inkscape:collect="always"
       id="linearGradient67250">
      <stop
         style="stop-color:#f00000;stop-opacity:1;"
         offset="0"
         id="stop67238" />
      <stop
         style="stop-color:#e10000;stop-opacity:1;"
         offset="0.20096463"
         id="stop67240" />
      <stop
         style="stop-color:#c30000;stop-opacity:1;"
         offset="0.40000001"
         id="stop67242" />
      <stop
         style="stop-color:#870000;stop-opacity:1;"
         offset="0.60000002"
         id="stop67244" />
      <stop
         style="stop-color:#d20000;stop-opacity:1;"
         offset="0.80000001"
         id="stop67246" />
      <stop
         style="stop-color:#b40000;stop-opacity:1;"
         offset="1"
         id="stop67248" />
    </linearGradient>
  </defs>
  <g
     inkscape:label="mtc"
     inkscape:groupmode="layer"
     id="mtc"
     transform="translate(-30.879838)">
    <path
       id="rect49618-1"
       style="fill:url(#linearGradient51873-5);fill-opacity:1;stroke:none;stroke-width:6.72325;stroke-linecap:square;stroke-dasharray:none;stroke-opacity:1;paint-order:markers stroke fill"
       d="m 195.89476,64.82521 v 34.97297 h 39.34865 v -0.21686 a 15.005885,17.486381 0 0 0 2.3335,0.21686 15.005885,17.486381 0 0 0 15.00602,-17.48649 15.005885,17.486381 0 0 0 -15.00602,-17.48648 15.005885,17.486381 0 0 0 -2.3335,0.21535 v -0.21535 z" />
    <rect
       style="fill:url(#linearGradient47287-8);fill-opacity:1;stroke:url(#linearGradient48052-0);stroke-width:5.70053;stroke-linecap:square;stroke-dasharray:none;stroke-opacity:1;paint-order:markers stroke fill"
       id="rect44375-2"
       width="77.057358"
       height="68.651093"
       x="189.21252"
       y="132.39856" />
    <ellipse
       style="fill:url(#linearGradient10016-7);fill-opacity:1;stroke-width:13.7846;stroke-linecap:square;paint-order:markers stroke fill"
       id="path9282-8"
       cx="138.42468"
       cy="12.959638"
       rx="40.980503"
       ry="12.959646" />
    <path
       id="rect4995-9"
       style="fill:url(#linearGradient5174-5);fill-opacity:1;stroke-width:19.1554;stroke-linecap:square;paint-order:markers stroke fill"
       d="M 139.82546,11.2083 A 77.407625,20.665382 0 0 0 62.46332,31.51009 h -0.4656 V 297.89845 H 217.53436 V 31.51009 h -0.31459 A 77.407625,20.665382 0 0 0 139.82546,11.2083 Z" />
    <path
       id="path5000-7"
       style="fill:url(#linearGradient7094-6);fill-opacity:1;stroke-width:5.7472;stroke-linecap:square;paint-order:markers stroke fill"
       d="m 139.82815,275.30489 a 80.893987,1.78009 0 0 0 -80.84646,1.74875 H 58.49512 V 300 h 162.54183 v -22.94636 h -0.32875 a 80.893987,1.78009 0 0 0 -80.88005,-1.74875 z" />
    <ellipse
       style="fill:#e7a600;fill-opacity:1;stroke-width:18.3877;stroke-linecap:square;paint-order:markers stroke fill"
       id="path12977-7"
       cx="68.709206"
       cy="206.13121"
       rx="42.381546"
       ry="65.849014"
       transform="rotate(-1.2742597)" />
    <ellipse
       style="fill:#ffffff;fill-opacity:1;stroke-width:22.6585;stroke-linecap:square;paint-order:markers stroke fill"
       id="path21707-9"
       cx="65.77639"
       cy="207.06288"
       rx="25.218771"
       ry="41.681023"
       transform="rotate(-1.7937035)" />
    <ellipse
       style="fill:#e7a600;fill-opacity:1;stroke-width:6.34651;stroke-linecap:square;paint-order:markers stroke fill"
       id="ellipse26081-1"
       cx="67.018845"
       cy="206.36417"
       rx="15.07034"
       ry="22.060772"
       transform="matrix(0.9997805,-0.02095131,0.02360404,0.99972139,0,0)" />
    <rect
       style="fill:url(#linearGradient30573);fill-opacity:1;stroke-width:16.123;stroke-linecap:square;paint-order:markers stroke fill"
       id="rect28387"
       width="123.9923"
       height="79.859436"
       x="62.418129"
       y="36.427116" />
    <g
       aria-label="TECHNOLOGIES"
       transform="scale(1.0130464,0.98712161)"
       id="text32821"
       style="font-size:8.73245px;stroke-width:14.0929;stroke-linecap:square;paint-order:markers stroke fill">
      <path
         d="m 116.0918,98.735823 h -2.26839 v 5.598487 h -0.84425 v -5.598487 h -2.26839 v -0.750445 h 5.38103 z"
         id="path966" />
      <path
         d="m 121.12746,104.33431 h -4.18288 v -6.348932 h 4.18288 v 0.750445 h -3.33863 v 1.739667 h 3.33863 v 0.75045 h -3.33863 v 2.35793 h 3.33863 z"
         id="path968" />
      <path
         d="m 127.36979,103.87381 q -0.23451,0.10234 -0.42639,0.19188 -0.18761,0.0895 -0.49461,0.18761 -0.26009,0.081 -0.56709,0.13644 -0.30274,0.0597 -0.66944,0.0597 -0.69075,0 -1.25784,-0.19188 -0.56284,-0.19614 -0.9807,-0.60973 -0.40933,-0.40507 -0.63958,-1.0276 -0.23025,-0.62679 -0.23025,-1.45399 0,-0.78455 0.22172,-1.402819 0.22172,-0.618264 0.63958,-1.044653 0.40507,-0.413598 0.97644,-0.631056 0.57562,-0.217459 1.2749,-0.217459 0.51167,0 1.01907,0.123653 0.51167,0.123653 1.13419,0.434917 v 1.002014 h -0.0639 q -0.52446,-0.43918 -1.04039,-0.639583 -0.51593,-0.200403 -1.10435,-0.200403 -0.48182,0 -0.86984,0.157764 -0.38375,0.1535 -0.68648,0.481819 -0.29421,0.319792 -0.4605,0.810136 -0.16203,0.48609 -0.16203,1.12567 0,0.66943 0.17908,1.15125 0.18335,0.48182 0.46903,0.78456 0.29847,0.31553 0.69502,0.46903 0.4008,0.14923 0.84425,0.14923 0.60973,0 1.14272,-0.20893 0.53299,-0.20893 0.99775,-0.62679 h 0.0597 z"
         id="path970" />
      <path
         d="m 133.42026,104.33431 h -0.84425 v -3.10837 h -3.16808 v 3.10837 h -0.84425 v -6.348932 h 0.84425 v 2.490112 h 3.16808 v -2.490112 h 0.84425 z"
         id="path972" />
      <path
         d="m 139.96959,104.33431 h -1.04465 l -3.01031,-5.679501 v 5.679501 h -0.78882 v -6.348932 h 1.30902 l 2.74594,5.184892 v -5.184892 h 0.78882 z"
         id="path974" />
      <path
         d="m 146.39101,98.714504 q 0.38802,0.426389 0.59268,1.044653 0.20893,0.618263 0.20893,1.402823 0,0.78455 -0.21319,1.40708 -0.20893,0.61827 -0.58842,1.03186 -0.39228,0.43066 -0.92953,0.64811 -0.53298,0.21746 -1.21947,0.21746 -0.66943,0 -1.21947,-0.22172 -0.54578,-0.22172 -0.92953,-0.64385 -0.38375,-0.42212 -0.59268,-1.03612 -0.20467,-0.614 -0.20467,-1.40282 0,-0.77603 0.20467,-1.390031 0.20467,-0.618265 0.59694,-1.057445 0.37523,-0.417862 0.92953,-0.639584 0.55857,-0.221722 1.21521,-0.221722 0.68222,0 1.22374,0.225986 0.54578,0.221722 0.92526,0.63532 z m -0.0768,2.447476 q 0,-1.236531 -0.5543,-1.905962 -0.55431,-0.673695 -1.51368,-0.673695 -0.96791,0 -1.52221,0.673695 -0.55005,0.669431 -0.55005,1.905962 0,1.24932 0.56284,1.91448 0.56283,0.66091 1.50942,0.66091 0.94658,0 1.50515,-0.66091 0.56283,-0.66516 0.56283,-1.91448 z"
         id="path976" />
      <path
         d="m 152.54807,104.33431 h -4.01658 v -6.348932 h 0.84425 v 5.598492 h 3.17233 z"
         id="path978" />
      <path
         d="m 158.03996,98.714504 q 0.38802,0.426389 0.59268,1.044653 0.20893,0.618263 0.20893,1.402823 0,0.78455 -0.21319,1.40708 -0.20893,0.61827 -0.58842,1.03186 -0.39227,0.43066 -0.92953,0.64811 -0.53298,0.21746 -1.21947,0.21746 -0.66943,0 -1.21947,-0.22172 -0.54578,-0.22172 -0.92953,-0.64385 -0.38375,-0.42212 -0.59268,-1.03612 -0.20467,-0.614 -0.20467,-1.40282 0,-0.77603 0.20467,-1.390031 0.20467,-0.618265 0.59694,-1.057445 0.37523,-0.417862 0.92953,-0.639584 0.55857,-0.221722 1.21521,-0.221722 0.68222,0 1.22374,0.225986 0.54578,0.221722 0.92526,0.63532 z m -0.0768,2.447476 q 0,-1.236531 -0.5543,-1.905962 -0.55431,-0.673695 -1.51368,-0.673695 -0.96791,0 -1.52221,0.673695 -0.55005,0.669431 -0.55005,1.905962 0,1.24932 0.56284,1.91448 0.56283,0.66091 1.50942,0.66091 0.94658,0 1.50515,-0.66091 0.56283,-0.66516 0.56283,-1.91448 z"
         id="path980" />
      <path
         d="m 165.47619,103.86528 q -0.52019,0.23878 -1.13846,0.41787 -0.614,0.17482 -1.18962,0.17482 -0.74192,0 -1.36019,-0.20467 -0.61826,-0.20467 -1.05318,-0.614 -0.43918,-0.4136 -0.67795,-1.03186 -0.23878,-0.62253 -0.23878,-1.45399 0,-1.52221 0.88689,-2.400571 0.89115,-0.882626 2.44321,-0.882626 0.54151,0 1.10434,0.132181 0.5671,0.127916 1.21948,0.439181 v 1.002014 h -0.0767 q -0.13218,-0.102333 -0.38375,-0.268625 -0.25157,-0.166292 -0.49461,-0.277153 -0.29421,-0.132181 -0.66944,-0.217459 -0.37095,-0.08954 -0.84425,-0.08954 -1.06597,0 -1.6885,0.686486 -0.61826,0.682223 -0.61826,1.850533 0,1.23226 0.64811,1.91875 0.64811,0.68222 1.76525,0.68222 0.40933,0 0.8144,-0.081 0.40934,-0.081 0.71634,-0.20893 v -1.55633 h -1.70129 v -0.74191 h 2.53701 z"
         id="path982" />
      <path
         d="m 169.19004,104.33431 h -2.50717 v -0.64811 h 0.83146 v -5.05271 h -0.83146 v -0.648112 h 2.50717 v 0.648112 h -0.83146 v 5.05271 h 0.83146 z"
         id="path984" />
      <path
         d="m 174.80985,104.33431 h -4.18288 v -6.348932 h 4.18288 v 0.750445 h -3.33863 v 1.739667 h 3.33863 v 0.75045 h -3.33863 v 2.35793 h 3.33863 z"
         id="path986" />
      <path
         d="m 180.76225,102.52216 q 0,0.37096 -0.17482,0.73339 -0.17056,0.36243 -0.48182,0.614 -0.34112,0.27289 -0.79735,0.42639 -0.45197,0.1535 -1.09156,0.1535 -0.68648,0 -1.23653,-0.12792 -0.54577,-0.12792 -1.11287,-0.37949 v -1.05744 h 0.0597 q 0.48182,0.40081 1.11288,0.61826 0.63105,0.21746 1.18536,0.21746 0.78456,0 1.21947,-0.29421 0.43918,-0.2942 0.43918,-0.78455 0,-0.42213 -0.20893,-0.62253 -0.20466,-0.2004 -0.62679,-0.31126 -0.31979,-0.0853 -0.69501,-0.14071 -0.37096,-0.0554 -0.78882,-0.14071 -0.84425,-0.17908 -1.25359,-0.60974 -0.40507,-0.43491 -0.40507,-1.129929 0,-0.797348 0.6737,-1.304751 0.67369,-0.511667 1.70982,-0.511667 0.66943,0 1.228,0.127917 0.55857,0.127917 0.98922,0.315528 v 0.99775 h -0.0597 q -0.36243,-0.307 -0.95511,-0.507403 -0.58842,-0.204666 -1.20669,-0.204666 -0.67795,0 -1.09155,0.281416 -0.40934,0.281417 -0.40934,0.724862 0,0.396543 0.20467,0.622533 0.20467,0.22598 0.7206,0.34537 0.27289,0.0597 0.77603,0.14497 0.50314,0.0853 0.85278,0.17482 0.7078,0.18761 1.06597,0.5671 0.35817,0.37949 0.35817,1.06171 z"
         id="path988" />
    </g>
    <g
       aria-label="(215) 368-6900"
       transform="matrix(0.62296831,0,0,0.55185104,-4.14335,27.64988)"
       id="text35311"
       style="font-size:13.3333px;white-space:pre;shape-inside:url(#rect35313);display:inline;fill:#565656;stroke-width:21.518;stroke-linecap:square;paint-order:markers stroke fill">
      <path
         d="m 199.83007,155.75877 h -1.49089 q -1.15234,-1.32161 -1.79036,-2.88411 -0.63802,-1.5625 -0.63802,-3.52213 0,-1.95963 0.63802,-3.52212 0.63802,-1.5625 1.79036,-2.88411 h 1.49089 v 0.0651 q -0.52735,0.47526 -1.00912,1.10026 -0.47526,0.61849 -0.88541,1.44531 -0.39063,0.80078 -0.63802,1.76432 -0.24089,0.96354 -0.24089,2.03124 0,1.11328 0.23438,2.03776 0.24088,0.92448 0.64453,1.75781 0.39062,0.80078 0.89192,1.44531 0.5013,0.65104 1.00261,1.10025 z"
         id="path991" />
      <path
         d="m 208.39775,153.07648 h -6.56248 v -1.36067 q 0.68359,-0.58594 1.36718,-1.17187 0.69011,-0.58594 1.28255,-1.16536 1.25,-1.21094 1.71224,-1.92057 0.46224,-0.71615 0.46224,-1.54297 0,-0.7552 -0.50131,-1.17838 -0.49479,-0.42969 -1.38671,-0.42969 -0.59245,0 -1.28255,0.20834 -0.6901,0.20833 -1.34765,0.63802 h -0.0651 v -1.36719 q 0.46224,-0.22786 1.23047,-0.41666 0.77474,-0.18881 1.49739,-0.18881 1.49088,0 2.33723,0.72266 0.84636,0.71614 0.84636,1.94661 0,0.55338 -0.14323,1.03515 -0.13672,0.47526 -0.41016,0.90495 -0.2539,0.40364 -0.59895,0.79427 -0.33854,0.39062 -0.82682,0.86588 -0.69662,0.68359 -1.4388,1.32812 -0.74219,0.63802 -1.38672,1.18489 h 5.21483 z"
         id="path993" />
      <path
         d="m 216.32091,153.07648 h -5.24738 v -0.98958 h 2.01822 v -6.49738 h -2.01822 v -0.88541 q 0.41015,0 0.8789,-0.0651 0.46875,-0.0716 0.70963,-0.20182 0.29948,-0.16276 0.46875,-0.41015 0.17578,-0.25391 0.20183,-0.67709 h 1.00911 v 8.73696 h 1.97916 z"
         id="path995" />
      <path
         d="m 225.27271,149.99706 q 0,0.67709 -0.2474,1.29557 -0.24739,0.61849 -0.67708,1.04167 -0.46875,0.45573 -1.11979,0.70312 -0.64453,0.24089 -1.49739,0.24089 -0.79427,0 -1.52994,-0.16928 -0.73568,-0.16276 -1.24349,-0.39713 v -1.37369 h 0.0911 q 0.53385,0.33854 1.24999,0.57942 0.71615,0.23438 1.40625,0.23438 0.46224,0 0.89193,-0.13021 0.43619,-0.13021 0.77473,-0.45573 0.28646,-0.27995 0.42969,-0.67057 0.14974,-0.39063 0.14974,-0.90495 0,-0.5013 -0.17578,-0.84635 -0.16927,-0.34505 -0.47526,-0.55338 -0.33854,-0.2474 -0.82682,-0.34505 -0.48177,-0.10417 -1.08073,-0.10417 -0.57291,0 -1.10677,0.0781 -0.52734,0.0781 -0.91145,0.15625 v -4.99347 h 5.83332 v 1.13932 h -4.57682 v 2.57812 q 0.27995,-0.026 0.57292,-0.0391 0.29297,-0.013 0.50781,-0.013 0.78776,0 1.38021,0.13672 0.59244,0.13021 1.08723,0.46875 0.52083,0.35807 0.80729,0.92448 0.28646,0.5664 0.28646,1.41926 z"
         id="path997" />
      <path
         d="m 231.09301,149.35253 q 0,1.95963 -0.63802,3.52213 -0.63802,1.5625 -1.79036,2.88411 h -1.49088 v -0.0651 q 0.5013,-0.44921 1.0026,-1.10025 0.50781,-0.64453 0.89192,-1.44531 0.40365,-0.83333 0.63802,-1.75781 0.24089,-0.92448 0.24089,-2.03776 0,-1.0677 -0.24089,-2.03124 -0.24088,-0.96354 -0.63802,-1.76432 -0.41015,-0.82682 -0.89192,-1.44531 -0.47526,-0.625 -1.0026,-1.10026 v -0.0651 h 1.49088 q 1.15234,1.32161 1.79036,2.88411 0.63802,1.56249 0.63802,3.52212 z"
         id="path999" />
      <path
         d="m 243.71667,148.40853 q 0.3125,0.27994 0.51432,0.70312 0.20183,0.42318 0.20183,1.09375 0,0.66406 -0.24089,1.21744 -0.24088,0.55339 -0.67708,0.96354 -0.48828,0.45573 -1.15234,0.67708 -0.65755,0.21485 -1.44531,0.21485 -0.80729,0 -1.58854,-0.19532 -0.78124,-0.1888 -1.28255,-0.41666 v -1.36068 h 0.0977 q 0.55338,0.36459 1.30208,0.60547 0.7487,0.24089 1.44531,0.24089 0.41015,0 0.87239,-0.13672 0.46224,-0.13672 0.7487,-0.40365 0.29948,-0.28645 0.44271,-0.63151 0.14974,-0.34505 0.14974,-0.87239 0,-0.52083 -0.16928,-0.85937 -0.16276,-0.34505 -0.45572,-0.54037 -0.29297,-0.20182 -0.70964,-0.27343 -0.41666,-0.0781 -0.89843,-0.0781 h -0.58594 v -1.08072 h 0.45573 q 0.98958,0 1.57552,-0.41016 0.59244,-0.41666 0.59244,-1.21093 0,-0.35156 -0.14974,-0.61198 -0.14974,-0.26693 -0.41666,-0.4362 -0.27995,-0.16927 -0.59896,-0.23437 -0.31901,-0.0651 -0.72265,-0.0651 -0.61849,0 -1.3151,0.22136 -0.69662,0.22135 -1.3151,0.625 h -0.0651 v -1.36068 q 0.46224,-0.22786 1.23047,-0.41666 0.77473,-0.19532 1.49739,-0.19532 0.70963,0 1.25,0.13021 0.54036,0.13021 0.97656,0.41667 0.46874,0.3125 0.70963,0.7552 0.24088,0.44271 0.24088,1.03516 0,0.80729 -0.57291,1.41276 -0.56641,0.59895 -1.34114,0.7552 v 0.0911 q 0.3125,0.0521 0.71614,0.22135 0.40365,0.16276 0.68359,0.41016 z"
         id="path1001" />
      <path
         d="m 253.18931,149.93196 q 0,1.47786 -0.97656,2.41536 -0.97005,0.93099 -2.38281,0.93099 -0.71614,0 -1.30208,-0.22136 -0.58593,-0.22135 -1.03515,-0.65755 -0.5599,-0.54036 -0.86589,-1.43229 -0.29947,-0.89192 -0.29947,-2.14843 0,-1.28906 0.27343,-2.28515 0.27995,-0.99609 0.88542,-1.77083 0.57291,-0.73567 1.47786,-1.14583 0.90494,-0.41666 2.10937,-0.41666 0.38411,0 0.64453,0.0326 0.26041,0.0325 0.52734,0.11718 v 1.24349 h -0.0651 q -0.1823,-0.0977 -0.55339,-0.18229 -0.36458,-0.0911 -0.74869,-0.0911 -1.39974,0 -2.23307,0.87891 -0.83333,0.87239 -0.97005,2.36327 0.54687,-0.33203 1.07421,-0.5013 0.53386,-0.17578 1.23047,-0.17578 0.61849,0 1.08724,0.11719 0.47526,0.11068 0.97005,0.45573 0.57291,0.39713 0.85937,1.0026 0.29297,0.60547 0.29297,1.47135 z m -1.32161,0.0521 q 0,-0.60546 -0.18229,-1.0026 -0.17579,-0.39713 -0.58594,-0.6901 -0.29948,-0.20833 -0.66406,-0.27344 -0.36458,-0.0651 -0.76172,-0.0651 -0.55338,0 -1.02864,0.13021 -0.47526,0.1302 -0.97656,0.40364 -0.013,0.14323 -0.0195,0.27995 -0.007,0.13021 -0.007,0.33203 0,1.02864 0.20833,1.6276 0.21484,0.59244 0.58594,0.9375 0.29947,0.28645 0.64453,0.42317 0.35156,0.13021 0.76171,0.13021 0.94401,0 1.48437,-0.57292 0.54037,-0.57942 0.54037,-1.66015 z"
         id="path1003" />
      <path
         d="m 261.59423,150.37467 q 0,1.2565 -0.98307,2.08984 -0.97656,0.83333 -2.46093,0.83333 -1.57552,0 -2.51301,-0.8138 -0.93099,-0.8138 -0.93099,-2.08333 0,-0.80729 0.46875,-1.45833 0.46875,-0.65755 1.32161,-1.04167 v -0.0391 q -0.78125,-0.41666 -1.15885,-0.91145 -0.37109,-0.49479 -0.37109,-1.23698 0,-1.09375 0.89843,-1.82291 0.89844,-0.72917 2.28515,-0.72917 1.45182,0 2.3177,0.69662 0.86589,0.69661 0.86589,1.77083 0,0.65755 -0.41016,1.29556 -0.41015,0.63151 -1.20442,0.98959 v 0.0391 q 0.91145,0.39062 1.39322,0.96354 0.48177,0.57291 0.48177,1.45833 z m -1.54296,-4.73306 q 0,-0.69662 -0.54037,-1.10677 -0.53385,-0.41667 -1.36718,-0.41667 -0.82031,0 -1.34765,0.39063 -0.52083,0.39062 -0.52083,1.05468 0,0.46875 0.26041,0.8138 0.26693,0.33854 0.80078,0.60547 0.24089,0.11719 0.6901,0.30599 0.45573,0.1888 0.88542,0.3125 0.64453,-0.42969 0.89192,-0.89193 0.2474,-0.46224 0.2474,-1.0677 z m 0.20182,4.85675 q 0,-0.59895 -0.26693,-0.95702 -0.26041,-0.36459 -1.02864,-0.72917 -0.30599,-0.14323 -0.67057,-0.26693 -0.36458,-0.12369 -0.97005,-0.34505 -0.58594,0.31901 -0.94401,0.86589 -0.35156,0.54687 -0.35156,1.23697 0,0.87891 0.60547,1.45182 0.60546,0.57292 1.53645,0.57292 0.95052,0 1.51693,-0.48828 0.57291,-0.48828 0.57291,-1.34115 z"
         id="path1005" />
      <path
         d="m 267.44708,149.42415 h -4.06248 v -1.17838 h 4.06248 z"
         id="path1007" />
      <path
         d="m 276.19706,149.93196 q 0,1.47786 -0.97656,2.41536 -0.97005,0.93099 -2.3828,0.93099 -0.71615,0 -1.30208,-0.22136 -0.58594,-0.22135 -1.03516,-0.65755 -0.55989,-0.54036 -0.86588,-1.43229 -0.29948,-0.89192 -0.29948,-2.14843 0,-1.28906 0.27344,-2.28515 0.27995,-0.99609 0.88541,-1.77083 0.57292,-0.73567 1.47786,-1.14583 0.90495,-0.41666 2.10937,-0.41666 0.38412,0 0.64453,0.0326 0.26042,0.0325 0.52734,0.11718 v 1.24349 h -0.0651 q -0.18229,-0.0977 -0.55338,-0.18229 -0.36459,-0.0911 -0.7487,-0.0911 -1.39974,0 -2.23307,0.87891 -0.83333,0.87239 -0.97005,2.36327 0.54688,-0.33203 1.07422,-0.5013 0.53385,-0.17578 1.23047,-0.17578 0.61848,0 1.08723,0.11719 0.47526,0.11068 0.97005,0.45573 0.57292,0.39713 0.85937,1.0026 0.29297,0.60547 0.29297,1.47135 z m -1.32161,0.0521 q 0,-0.60546 -0.18229,-1.0026 -0.17578,-0.39713 -0.58594,-0.6901 -0.29947,-0.20833 -0.66406,-0.27344 -0.36458,-0.0651 -0.76171,-0.0651 -0.55339,0 -1.02865,0.13021 -0.47526,0.1302 -0.97656,0.40364 -0.013,0.14323 -0.0195,0.27995 -0.007,0.13021 -0.007,0.33203 0,1.02864 0.20833,1.6276 0.21485,0.59244 0.58594,0.9375 0.29948,0.28645 0.64453,0.42317 0.35156,0.13021 0.76172,0.13021 0.94401,0 1.48437,-0.57292 0.54036,-0.57942 0.54036,-1.66015 z"
         id="path1009" />
      <path
         d="m 284.51735,147.64681 q 0,1.26953 -0.29297,2.30468 -0.28645,1.03515 -0.87239,1.76432 -0.59245,0.74218 -1.48437,1.14583 -0.89192,0.40364 -2.09635,0.40364 -0.33854,0 -0.63802,-0.0391 -0.29948,-0.0326 -0.53385,-0.11067 v -1.24349 h 0.0651 q 0.1888,0.0976 0.53386,0.1888 0.34505,0.0846 0.76822,0.0846 1.4388,0 2.2526,-0.85938 0.82031,-0.86588 0.95052,-2.3828 -0.60547,0.36458 -1.13932,0.52083 -0.53385,0.15625 -1.16536,0.15625 -0.59896,0 -1.08724,-0.11719 -0.48177,-0.11719 -0.97005,-0.45573 -0.57291,-0.39713 -0.86588,-1.00911 -0.28646,-0.61198 -0.28646,-1.46484 0,-1.48437 0.97656,-2.41536 0.97656,-0.93099 2.38281,-0.93099 0.70312,0 1.30208,0.22136 0.59895,0.21484 1.04817,0.65104 0.55339,0.54036 0.85286,1.39322 0.29948,0.84636 0.29948,2.19401 z m -1.3151,-0.27995 q 0,-1.00911 -0.20833,-1.62109 -0.20833,-0.61198 -0.57292,-0.95052 -0.30598,-0.29296 -0.65755,-0.41666 -0.35156,-0.13021 -0.76171,-0.13021 -0.9375,0 -1.48437,0.58594 -0.54037,0.58593 -0.54037,1.64713 0,0.61849 0.17578,1.00911 0.17578,0.39062 0.59245,0.68359 0.29297,0.20182 0.64453,0.27344 0.35156,0.0651 0.78125,0.0651 0.50781,0 1.02864,-0.13672 0.52083,-0.13671 0.97656,-0.39713 0.007,-0.13672 0.013,-0.26693 0.013,-0.13672 0.013,-0.34505 z"
         id="path1011" />
      <path
         d="m 292.99389,148.22623 q 0,2.61068 -0.82031,3.83463 -0.8138,1.21745 -2.53254,1.21745 -1.74479,0 -2.55208,-1.23698 -0.80078,-1.23698 -0.80078,-3.80207 0,-2.58463 0.8138,-3.8151 0.8138,-1.23698 2.53906,-1.23698 1.74478,0 2.54556,1.25651 0.80729,1.25 0.80729,3.78254 z m -1.71223,2.95573 q 0.22786,-0.52735 0.30599,-1.23698 0.0846,-0.71614 0.0846,-1.71875 0,-0.98958 -0.0846,-1.71874 -0.0781,-0.72917 -0.3125,-1.23698 -0.22787,-0.5013 -0.625,-0.7552 -0.39063,-0.25391 -1.00911,-0.25391 -0.61198,0 -1.01563,0.25391 -0.39713,0.2539 -0.6315,0.76822 -0.22136,0.48177 -0.30599,1.25651 -0.0781,0.77474 -0.0781,1.69922 0,1.01562 0.0716,1.69921 0.0716,0.68359 0.30598,1.22396 0.21485,0.50781 0.60547,0.77473 0.39714,0.26693 1.04818,0.26693 0.61197,0 1.01562,-0.25391 0.40364,-0.2539 0.625,-0.76822 z"
         id="path1013" />
      <path
         d="m 301.47044,148.22623 q 0,2.61068 -0.82031,3.83463 -0.8138,1.21745 -2.53255,1.21745 -1.74478,0 -2.55207,-1.23698 -0.80078,-1.23698 -0.80078,-3.80207 0,-2.58463 0.8138,-3.8151 0.8138,-1.23698 2.53905,-1.23698 1.74479,0 2.54557,1.25651 0.80729,1.25 0.80729,3.78254 z m -1.71224,2.95573 q 0.22787,-0.52735 0.30599,-1.23698 0.0846,-0.71614 0.0846,-1.71875 0,-0.98958 -0.0846,-1.71874 -0.0781,-0.72917 -0.3125,-1.23698 -0.22786,-0.5013 -0.62499,-0.7552 -0.39063,-0.25391 -1.00912,-0.25391 -0.61197,0 -1.01562,0.25391 -0.39713,0.2539 -0.63151,0.76822 -0.22135,0.48177 -0.30599,1.25651 -0.0781,0.77474 -0.0781,1.69922 0,1.01562 0.0716,1.69921 0.0716,0.68359 0.30599,1.22396 0.21485,0.50781 0.60547,0.77473 0.39713,0.26693 1.04817,0.26693 0.61198,0 1.01563,-0.25391 0.40364,-0.2539 0.62499,-0.76822 z"
         id="path1015" />
    </g>
    <g
       aria-label="Mercury-Cadmium-Telluride"
       transform="matrix(2.7544563,0,0,2.705673,-46.35544,-30.251046)"
       id="text5669"
       style="font-size:5.2446px;white-space:pre;inline-size:47.4604;display:inline;fill:#ff0000;stroke-width:3.96875;paint-order:markers stroke fill">
      <path
         d="M 60.626591,28.822044 H 60.119545 V 25.536487 L 59.059358,27.7721 h -0.30218 l -1.052505,-2.235613 v 3.285557 h -0.473755 v -3.81309 h 0.691427 l 1.016653,2.122936 0.983363,-2.122936 h 0.70423 z"
         style="fill:#000000"
         id="path1018" />
      <path
         d="m 64.0069,27.441752 h -2.107571 q 0,0.263766 0.07939,0.460951 0.07939,0.194624 0.217671,0.320105 0.133164,0.12292 0.314984,0.18438 0.18438,0.06146 0.404612,0.06146 0.291936,0 0.586433,-0.115237 0.297057,-0.117799 0.422538,-0.230476 h 0.02561 v 0.524972 q -0.24328,0.102434 -0.496803,0.171577 -0.253523,0.06914 -0.532655,0.06914 -0.711913,0 -1.111404,-0.384126 -0.399491,-0.386687 -0.399491,-1.096039 0,-0.70167 0.381565,-1.113965 0.384126,-0.412296 1.008971,-0.412296 0.578749,0 0.891172,0.338031 0.314983,0.338031 0.314983,0.960315 z m -0.468634,-0.368761 q -0.0026,-0.379004 -0.192063,-0.586432 -0.186941,-0.207429 -0.571067,-0.207429 -0.386687,0 -0.617162,0.227915 -0.227915,0.227915 -0.258645,0.565946 z"
         style="fill:#000000"
         id="path1020" />
      <path
         d="m 66.521645,26.486559 h -0.02561 q -0.107556,-0.02561 -0.209989,-0.03585 -0.09987,-0.0128 -0.238158,-0.0128 -0.222793,0 -0.430221,0.09987 -0.207429,0.09731 -0.399491,0.253523 v 2.030746 H 64.73674 v -2.860458 h 0.481438 v 0.422539 q 0.286814,-0.230476 0.504485,-0.325227 0.220232,-0.09731 0.448147,-0.09731 0.125481,0 0.18182,0.0077 0.05634,0.0051 0.169015,0.02305 z"
         style="fill:#000000"
         id="path1022" />
      <path
         d="m 69.090167,28.642786 q -0.240719,0.115237 -0.458391,0.179258 -0.21511,0.06402 -0.45839,0.06402 -0.309861,0 -0.568506,-0.08963 -0.258645,-0.09219 -0.443026,-0.276571 -0.186941,-0.18438 -0.289374,-0.466073 -0.102434,-0.281692 -0.102434,-0.658135 0,-0.70167 0.384126,-1.101161 0.386687,-0.399491 1.019214,-0.399491 0.245841,0 0.481438,0.06914 0.238158,0.06914 0.435343,0.169016 v 0.535215 h -0.02561 q -0.220232,-0.171576 -0.455829,-0.263766 -0.233037,-0.09219 -0.45583,-0.09219 -0.409734,0 -0.647892,0.276571 -0.235597,0.27401 -0.235597,0.806665 0,0.517289 0.230475,0.796421 0.233037,0.27657 0.653014,0.27657 0.145968,0 0.297058,-0.03841 0.151089,-0.03841 0.271449,-0.09987 0.104994,-0.05378 0.197184,-0.112677 0.09219,-0.06146 0.145968,-0.104994 h 0.02561 z"
         style="fill:#000000"
         id="path1024" />
      <path
         d="M 72.078667,28.822044 H 71.597229 V 28.5045 q -0.24328,0.192063 -0.466073,0.294497 -0.222793,0.102433 -0.491681,0.102433 -0.450708,0 -0.70167,-0.274009 -0.250962,-0.276571 -0.250962,-0.809226 v -1.856609 h 0.481437 v 1.628694 q 0,0.217672 0.02049,0.373883 0.02049,0.15365 0.08707,0.263767 0.06914,0.112676 0.179258,0.163893 0.110117,0.05122 0.320105,0.05122 0.186942,0 0.407174,-0.09731 0.222793,-0.09731 0.414856,-0.248401 v -2.135741 h 0.481438 z"
         style="fill:#000000"
         id="path1026" />
      <path
         d="m 74.811083,26.486559 h -0.02561 q -0.107555,-0.02561 -0.209989,-0.03585 -0.09987,-0.0128 -0.238158,-0.0128 -0.222793,0 -0.430221,0.09987 -0.207428,0.09731 -0.399491,0.253523 v 2.030746 h -0.481438 v -2.860458 h 0.481438 v 0.422539 q 0.286814,-0.230476 0.504485,-0.325227 0.220232,-0.09731 0.448147,-0.09731 0.125481,0 0.18182,0.0077 0.05634,0.0051 0.169015,0.02305 z"
         style="fill:#000000"
         id="path1028" />
      <path
         d="m 77.738123,25.961586 -1.669668,3.915524 h -0.514729 l 0.532655,-1.193351 -1.139574,-2.722173 h 0.522412 l 0.878368,2.120376 0.88605,-2.120376 z"
         style="fill:#000000"
         id="path1030" />
      <path
         d="m 79.781673,27.385413 h -1.597964 v -0.463512 h 1.597964 z"
         style="fill:#000000"
         id="path1032" />
      <path
         d="m 60.175884,35.101224 q -0.140847,0.06146 -0.256084,0.115238 -0.112677,0.05378 -0.297058,0.112677 -0.156211,0.04866 -0.340591,0.08195 -0.18182,0.03585 -0.402052,0.03585 -0.414856,0 -0.755448,-0.115238 -0.338031,-0.117798 -0.588993,-0.3662 -0.245841,-0.24328 -0.384126,-0.617162 -0.138285,-0.376444 -0.138285,-0.873246 0,-0.471195 0.133163,-0.842517 0.133164,-0.371322 0.384126,-0.627405 0.24328,-0.248402 0.586433,-0.379005 0.345713,-0.130603 0.765691,-0.130603 0.3073,0 0.61204,0.07427 0.307301,0.07426 0.681184,0.261205 v 0.601798 h -0.03841 q -0.314983,-0.263767 -0.624845,-0.384126 -0.309861,-0.12036 -0.663257,-0.12036 -0.289375,0 -0.522412,0.09475 -0.230475,0.09219 -0.412295,0.289375 -0.176698,0.192063 -0.276571,0.48656 -0.09731,0.291936 -0.09731,0.676062 0,0.402051 0.107555,0.691426 0.110116,0.289375 0.281692,0.471195 0.179259,0.189502 0.417417,0.281692 0.240719,0.08963 0.507046,0.08963 0.3662,0 0.686305,-0.125482 0.320105,-0.125481 0.599237,-0.376443 h 0.03585 z"
         style="fill:#000000"
         id="path1034" />
      <path
         d="m 63.077315,35.377794 h -0.478877 v -0.304739 q -0.06402,0.04353 -0.174137,0.12292 -0.107555,0.07682 -0.209989,0.12292 -0.120359,0.0589 -0.276571,0.09731 -0.156211,0.04097 -0.3662,0.04097 -0.386686,0 -0.655575,-0.256084 -0.268888,-0.256084 -0.268888,-0.653015 0,-0.325226 0.138286,-0.524972 0.140846,-0.202306 0.399491,-0.317544 0.261205,-0.115238 0.627405,-0.156211 0.3662,-0.04097 0.786178,-0.06146 v -0.07427 q 0,-0.163893 -0.0589,-0.271449 -0.05634,-0.107555 -0.163894,-0.169015 -0.102434,-0.0589 -0.245841,-0.07939 -0.143407,-0.02049 -0.299618,-0.02049 -0.189502,0 -0.422538,0.05122 -0.233037,0.04866 -0.481438,0.143407 h -0.02561 v -0.48912 q 0.140847,-0.03841 0.407174,-0.08451 0.266327,-0.0461 0.524972,-0.0461 0.302179,0 0.524972,0.05122 0.225354,0.04866 0.389248,0.169015 0.161333,0.117799 0.24584,0.30474 0.08451,0.186941 0.08451,0.463512 z m -0.478877,-0.70423 v -0.796422 q -0.220232,0.01281 -0.51985,0.03841 -0.297058,0.02561 -0.471195,0.07426 -0.207428,0.0589 -0.33547,0.184381 -0.128042,0.12292 -0.128042,0.340591 0,0.245841 0.148529,0.371322 0.148529,0.122921 0.453268,0.122921 0.253524,0 0.463512,-0.09731 0.209989,-0.09987 0.389248,-0.238158 z"
         style="fill:#000000"
         id="path1036" />
      <path
         d="m 66.32446,35.377794 h -0.481438 v -0.299618 q -0.207428,0.179259 -0.432782,0.279132 -0.225354,0.09987 -0.48912,0.09987 -0.512168,0 -0.814347,-0.39437 -0.299618,-0.394369 -0.299618,-1.093478 0,-0.36364 0.102433,-0.647893 0.104995,-0.284253 0.281693,-0.483999 0.174137,-0.194623 0.404612,-0.297057 0.233037,-0.102434 0.481438,-0.102434 0.225354,0 0.399491,0.04866 0.174137,0.0461 0.3662,0.145968 v -1.239446 h 0.481438 z m -0.481438,-0.70423 v -1.641499 q -0.194624,-0.08707 -0.348274,-0.120359 -0.15365,-0.03329 -0.33547,-0.03329 -0.404613,0 -0.629967,0.281692 -0.225354,0.281693 -0.225354,0.798982 0,0.509607 0.174138,0.775935 0.174137,0.263766 0.558263,0.263766 0.204867,0 0.414856,-0.08963 0.209989,-0.09219 0.391808,-0.235597 z"
         style="fill:#000000"
         id="path1038" />
      <path
         d="M 71.44614,35.377794 H 70.964702 V 33.7491 q 0,-0.18438 -0.01793,-0.355956 -0.01537,-0.171577 -0.06914,-0.27401 -0.0589,-0.110116 -0.169016,-0.166455 -0.110116,-0.05634 -0.317544,-0.05634 -0.202306,0 -0.404613,0.102433 -0.202306,0.09987 -0.404612,0.256084 0.0077,0.0589 0.0128,0.138286 0.0051,0.07682 0.0051,0.15365 v 1.831 H 69.118337 V 33.7491 q 0,-0.189502 -0.01793,-0.358517 -0.01536,-0.171576 -0.06914,-0.27401 -0.0589,-0.110116 -0.169015,-0.163894 -0.110116,-0.05634 -0.317544,-0.05634 -0.197185,0 -0.396931,0.09731 -0.197184,0.09731 -0.394369,0.248401 v 2.13574 h -0.481438 v -2.860458 h 0.481438 v 0.317545 q 0.225354,-0.186942 0.448147,-0.291936 0.225354,-0.104995 0.478877,-0.104995 0.291936,0 0.494242,0.122921 0.204867,0.12292 0.30474,0.340591 0.291936,-0.24584 0.532655,-0.353395 0.240719,-0.110117 0.514729,-0.110117 0.471194,0 0.693987,0.286814 0.225354,0.284254 0.225354,0.796422 z"
         style="fill:#000000"
         id="path1040" />
      <path
         d="m 72.890453,32.038459 h -0.542898 v -0.499363 h 0.542898 z m -0.03073,3.339335 h -0.481438 v -2.860458 h 0.481438 z"
         style="fill:#000000"
         id="path1042" />
      <path
         d="M 76.183693,35.377794 H 75.702255 V 35.06025 q -0.24328,0.192063 -0.466073,0.294497 -0.222793,0.102434 -0.491681,0.102434 -0.450708,0 -0.70167,-0.27401 -0.250962,-0.276571 -0.250962,-0.809226 v -1.856609 h 0.481438 v 1.628695 q 0,0.217671 0.02049,0.373882 0.02049,0.153651 0.08707,0.263767 0.06914,0.112677 0.179259,0.163893 0.110116,0.05122 0.320105,0.05122 0.186941,0 0.407173,-0.09731 0.222793,-0.09731 0.414856,-0.248401 v -2.135741 h 0.481438 z"
         style="fill:#000000"
         id="path1044" />
      <path
         d="M 81.305372,35.377794 H 80.823934 V 33.7491 q 0,-0.18438 -0.01793,-0.355956 -0.01537,-0.171577 -0.06914,-0.27401 -0.0589,-0.110116 -0.169016,-0.166455 -0.110116,-0.05634 -0.317544,-0.05634 -0.202306,0 -0.404613,0.102433 -0.202306,0.09987 -0.404612,0.256084 0.0077,0.0589 0.0128,0.138286 0.0051,0.07682 0.0051,0.15365 v 1.831 H 78.977569 V 33.7491 q 0,-0.189502 -0.01793,-0.358517 -0.01537,-0.171576 -0.06914,-0.27401 -0.0589,-0.110116 -0.169015,-0.163894 -0.110116,-0.05634 -0.317544,-0.05634 -0.197185,0 -0.396931,0.09731 -0.197184,0.09731 -0.394369,0.248401 v 2.13574 h -0.481438 v -2.860458 h 0.481438 v 0.317545 q 0.225354,-0.186942 0.448147,-0.291936 0.225354,-0.104995 0.478877,-0.104995 0.291936,0 0.494242,0.122921 0.204867,0.12292 0.30474,0.340591 0.291936,-0.24584 0.532655,-0.353395 0.240719,-0.110117 0.514728,-0.110117 0.471195,0 0.693988,0.286814 0.225354,0.284254 0.225354,0.796422 z"
         style="fill:#000000"
         id="path1046" />
      <path
         d="m 83.748415,33.941163 h -1.597964 v -0.463512 h 1.597964 z"
         style="fill:#000000"
         id="path1048" />
      <path
         d="m 59.95053,38.57116 h -1.362367 v 3.362382 H 58.081117 V 38.57116 H 56.71875 v -0.450708 h 3.23178 z"
         style="fill:#000000"
         id="path1050" />
      <path
         d="m 62.255286,40.55325 h -2.107572 q 0,0.263766 0.07939,0.460951 0.07939,0.194624 0.217672,0.320105 0.133164,0.12292 0.314983,0.18438 0.184381,0.06146 0.404613,0.06146 0.291936,0 0.586432,-0.115238 0.297058,-0.117799 0.422539,-0.230476 h 0.02561 v 0.524972 q -0.24328,0.102434 -0.496803,0.171577 -0.253523,0.06914 -0.532654,0.06914 -0.711914,0 -1.111405,-0.384126 -0.399491,-0.386686 -0.399491,-1.096039 0,-0.70167 0.381565,-1.113965 0.384126,-0.412296 1.008971,-0.412296 0.57875,0 0.891172,0.338031 0.314984,0.338031 0.314984,0.960315 z m -0.468634,-0.368761 q -0.0026,-0.379004 -0.192063,-0.586432 -0.186941,-0.207428 -0.571067,-0.207428 -0.386687,0 -0.617163,0.227914 -0.227914,0.227915 -0.258645,0.565946 z"
         style="fill:#000000"
         id="path1052" />
      <path
         d="m 63.471685,41.933542 h -0.481438 v -3.984666 h 0.481438 z"
         style="fill:#000000"
         id="path1054" />
      <path
         d="m 64.910876,41.933542 h -0.481437 v -3.984666 h 0.481437 z"
         style="fill:#000000"
         id="path1056" />
      <path
         d="m 68.234846,41.933542 h -0.481438 v -0.317544 q -0.243279,0.192063 -0.466072,0.294497 -0.222793,0.102433 -0.491682,0.102433 -0.450707,0 -0.70167,-0.274009 -0.250962,-0.276571 -0.250962,-0.809226 v -1.856609 h 0.481438 v 1.628695 q 0,0.217671 0.02049,0.373882 0.02049,0.153651 0.08707,0.263767 0.06914,0.112677 0.179259,0.163893 0.110116,0.05122 0.320105,0.05122 0.186941,0 0.407173,-0.09731 0.222793,-0.09731 0.414856,-0.248401 v -2.135741 h 0.481438 z"
         style="fill:#000000"
         id="path1058" />
      <path
         d="m 70.967263,39.598057 h -0.02561 q -0.107555,-0.02561 -0.209989,-0.03585 -0.09987,-0.0128 -0.238158,-0.0128 -0.222793,0 -0.430221,0.09987 -0.207428,0.09731 -0.399491,0.253524 v 2.030745 h -0.481438 v -2.860458 h 0.481438 v 0.422539 q 0.286814,-0.230476 0.504486,-0.325227 0.220232,-0.09731 0.448147,-0.09731 0.125481,0 0.181819,0.0077 0.05634,0.0051 0.169016,0.02305 z"
         style="fill:#000000"
         id="path1060" />
      <path
         d="m 71.93782,38.594207 h -0.542898 v -0.499363 h 0.542898 z m -0.03073,3.339335 h -0.481438 v -2.860458 h 0.481438 z"
         style="fill:#000000"
         id="path1062" />
      <path
         d="m 75.179843,41.933542 h -0.481437 v -0.299618 q -0.207428,0.179259 -0.432782,0.279132 -0.225354,0.09987 -0.489121,0.09987 -0.512168,0 -0.814347,-0.394369 -0.299618,-0.394369 -0.299618,-1.093478 0,-0.36364 0.102434,-0.647893 0.104994,-0.284253 0.281692,-0.483999 0.174137,-0.194623 0.404613,-0.297057 0.233036,-0.102434 0.481437,-0.102434 0.225354,0 0.399491,0.04866 0.174138,0.04609 0.366201,0.145968 v -1.239446 h 0.481437 z m -0.481437,-0.70423 v -1.641499 q -0.194624,-0.08707 -0.348275,-0.120359 -0.15365,-0.03329 -0.33547,-0.03329 -0.404612,0 -0.629966,0.281692 -0.225354,0.281693 -0.225354,0.798982 0,0.509607 0.174137,0.775935 0.174137,0.263766 0.558263,0.263766 0.204867,0 0.414856,-0.08963 0.209989,-0.09219 0.391809,-0.235597 z"
         style="fill:#000000"
         id="path1064" />
      <path
         d="m 78.521739,40.55325 h -2.107571 q 0,0.263766 0.07939,0.460951 0.07939,0.194624 0.217672,0.320105 0.133163,0.12292 0.314983,0.18438 0.18438,0.06146 0.404613,0.06146 0.291935,0 0.586432,-0.115238 0.297057,-0.117799 0.422538,-0.230476 h 0.02561 v 0.524972 q -0.24328,0.102434 -0.496803,0.171577 -0.253523,0.06914 -0.532655,0.06914 -0.711913,0 -1.111404,-0.384126 -0.399491,-0.386686 -0.399491,-1.096039 0,-0.70167 0.381565,-1.113965 0.384126,-0.412296 1.008971,-0.412296 0.57875,0 0.891172,0.338031 0.314983,0.338031 0.314983,0.960315 z m -0.468633,-0.368761 q -0.0026,-0.379004 -0.192063,-0.586432 -0.186942,-0.207428 -0.571068,-0.207428 -0.386686,0 -0.617162,0.227914 -0.227915,0.227915 -0.258645,0.565946 z"
         style="fill:#000000"
         id="path1066" />
    </g>
  </g>
</svg>
