<?xml version="1.0" encoding="UTF-8" standalone="no"?>
<!-- Created with Inkscape (http://www.inkscape.org/) -->

<svg
   width="258.42697"
   height="300"
   viewBox="0 0 258.42697 300"
   version="1.1"
   id="svg5"
   inkscape:version="1.2.2 (732a01da63, 2022-12-09)"
   sodipodi:docname="pressure-gauge.svg"
   xmlns:inkscape="http://www.inkscape.org/namespaces/inkscape"
   xmlns:sodipodi="http://sodipodi.sourceforge.net/DTD/sodipodi-0.dtd"
   xmlns:xlink="http://www.w3.org/1999/xlink"
   xmlns="http://www.w3.org/2000/svg"
   xmlns:svg="http://www.w3.org/2000/svg">
  <sodipodi:namedview
     id="namedview7"
     pagecolor="#ffffff"
     bordercolor="#000000"
     borderopacity="0.25"
     inkscape:showpageshadow="2"
     inkscape:pageopacity="0.0"
     inkscape:pagecheckerboard="false"
     inkscape:deskcolor="#d1d1d1"
     inkscape:document-units="px"
     showgrid="false"
     showborder="true"
     borderlayer="true"
     shape-rendering="auto"
     inkscape:zoom="2"
     inkscape:cx="112"
     inkscape:cy="173.75"
     inkscape:window-width="1278"
     inkscape:window-height="1360"
     inkscape:window-x="1266"
     inkscape:window-y="0"
     inkscape:window-maximized="0"
     inkscape:current-layer="svg5" />
  <defs
     id="defs2">
    <linearGradient
       inkscape:collect="always"
       id="linearGradient29180">
      <stop
         style="stop-color:#b3b3b3;stop-opacity:1;"
         offset="0.05337838"
         id="stop29176" />
      <stop
         style="stop-color:#d2d2d2;stop-opacity:1;"
         offset="0.25"
         id="stop29184" />
      <stop
         style="stop-color:#9c9c9c;stop-opacity:1;"
         offset="0.5"
         id="stop29186" />
      <stop
         style="stop-color:#afafaf;stop-opacity:1;"
         offset="0.75"
         id="stop29188" />
      <stop
         style="stop-color:#d0d0d0;stop-opacity:1;"
         offset="0.94999999"
         id="stop29190" />
    </linearGradient>
    <linearGradient
       inkscape:collect="always"
       id="linearGradient29166">
      <stop
         style="stop-color:#b3b3b3;stop-opacity:1;"
         offset="0.05"
         id="stop29162" />
      <stop
         style="stop-color:#d2d2d2;stop-opacity:1;"
         offset="0.25"
         id="stop29170" />
      <stop
         style="stop-color:#9c9c9c;stop-opacity:1;"
         offset="0.5"
         id="stop29172" />
      <stop
         style="stop-color:#afafaf;stop-opacity:1;"
         offset="0.75"
         id="stop29174" />
      <stop
         style="stop-color:#d0d0d0;stop-opacity:1;"
         offset="0.94999999"
         id="stop29164" />
    </linearGradient>
    <linearGradient
       inkscape:collect="always"
       id="linearGradient9133">
      <stop
         style="stop-color:#b3b3b3;stop-opacity:1;"
         offset="0.1"
         id="stop9129" />
      <stop
         style="stop-color:#d2d2d2;stop-opacity:1;"
         offset="0.25"
         id="stop11476" />
      <stop
         style="stop-color:#9c9c9c;stop-opacity:1;"
         offset="0.40000001"
         id="stop11478" />
      <stop
         style="stop-color:#afafaf;stop-opacity:1;"
         offset="0.60000002"
         id="stop11480" />
      <stop
         style="stop-color:#d0d0d0;stop-opacity:1;"
         offset="0.75"
         id="stop11482" />
      <stop
         style="stop-color:#989898;stop-opacity:1;"
         offset="0.94999999"
         id="stop9131" />
    </linearGradient>
    <linearGradient
       inkscape:collect="always"
       xlink:href="#linearGradient9133"
       id="linearGradient9135"
       x1="0"
       y1="57.5"
       x2="114.6312"
       y2="57.5"
       gradientUnits="userSpaceOnUse"
       gradientTransform="scale(2.247191)" />
    <linearGradient
       inkscape:collect="always"
       xlink:href="#linearGradient29166"
       id="linearGradient29168"
       x1="45"
       y1="125.5625"
       x2="70"
       y2="125.5625"
       gradientUnits="userSpaceOnUse"
       gradientTransform="scale(2.247191)" />
    <linearGradient
       inkscape:collect="always"
       xlink:href="#linearGradient29180"
       id="linearGradient29182"
       x1="47.5"
       y1="115.5853"
       x2="67.5"
       y2="115.5853"
       gradientUnits="userSpaceOnUse"
       gradientTransform="scale(2.247191)" />
  </defs>
  <g
     id="pressure-gauge">
    <rect
       style="fill:url(#linearGradient29182);fill-opacity:1;stroke:none;stroke-width:0.116854;stroke-dasharray:none;stroke-opacity:1"
       id="rect29156"
       width="44.943821"
       height="11.235955"
       x="106.74157"
       y="254.12427" />
    <rect
       style="fill:url(#linearGradient29168);fill-opacity:1;stroke:none;stroke-width:0.352591;stroke-dasharray:none;stroke-opacity:1"
       id="rect29158"
       width="56.179775"
       height="35.674156"
       x="101.1236"
       y="264.32584" />
    <circle
       style="fill:url(#linearGradient9135);fill-opacity:1;stroke-width:6.51225"
       id="path234-8"
       cx="129.21349"
       cy="129.21349"
       r="129.21349" />
    <circle
       style="fill:#fbe631;fill-opacity:1;stroke-width:5.66283"
       id="path234"
       cx="129.21349"
       cy="129.21349"
       r="112.35955" />
    <rect
       style="fill:#ffffff;fill-opacity:1;stroke:#000000;stroke-width:1.1236;stroke-dasharray:none;stroke-opacity:1"
       id="rect3310-9"
       width="38.059402"
       height="22.110689"
       x="4.8053575"
       y="243.97321"
       ry="10.692875"
       transform="matrix(-0.70710678,0.70710678,0.70710678,0.70710678,0,0)" />
    <path
       id="rect8596-7"
       style="fill:#000000;fill-opacity:1;stroke:none;stroke-width:0.189453;stroke-dasharray:none;stroke-opacity:1"
       d="m 163.48218,200.86804 6.69399,-6.69398 -0.6694,-0.6694 -6.02829,6.02828 -6.02828,-6.02828 -0.6694,0.6694 6.69584,6.69398 0.002,-0.004 z" />
    <rect
       style="fill:#8e9b81;fill-opacity:1;stroke:#000000;stroke-width:2.79384;stroke-dasharray:none;stroke-opacity:1"
       id="rect1700"
       width="163.82068"
       height="75.857841"
       x="47.303146"
       y="68.812653"
       ry="0" />
    <rect
       style="fill:#ffffff;fill-opacity:1;stroke:#000000;stroke-width:1.0877;stroke-dasharray:none;stroke-opacity:1"
       id="rect3310"
       width="36.84354"
       height="21.404331"
       x="187.39761"
       y="60.893383"
       ry="10.351275"
       transform="matrix(0.707457,0.70675639,-0.707457,0.70675639,0,0)" />
    <path
       id="rect8596"
       style="fill:#000000;fill-opacity:1;stroke:none;stroke-width:0.188764;stroke-dasharray:none;stroke-opacity:1"
       d="m 95.501921,192.94752 -6.693984,6.69399 0.669397,0.66939 6.028286,-6.02828 6.02828,6.02828 0.6694,-0.66939 -6.695831,-6.69399 -0.0018,0.004 z" />
    <rect
       style="fill:#ffffff;fill-opacity:1;stroke:#000000;stroke-width:1.1236;stroke-dasharray:none;stroke-opacity:1"
       id="rect3310-1"
       width="38.202248"
       height="22.47191"
       x="179.77528"
       y="-140.44943"
       ry="10.867565"
       transform="rotate(90)" />
    <rect
       style="fill:#000000;fill-opacity:1;stroke:none;stroke-width:0.0544912;stroke-dasharray:none;stroke-opacity:1"
       id="rect8923"
       width="8.9887638"
       height="1.1235955"
       x="124.7191"
       y="201.1236" />
    <rect
       style="fill:#000000;fill-opacity:1;stroke:none;stroke-width:0.0544912;stroke-dasharray:none;stroke-opacity:1"
       id="rect8923-7"
       width="8.9887638"
       height="1.1235955"
       x="124.7191"
       y="198.31461" />
    <rect
       style="fill:#000000;fill-opacity:1;stroke:none;stroke-width:0.0544912;stroke-dasharray:none;stroke-opacity:1"
       id="rect8923-6"
       width="8.9887638"
       height="1.1235955"
       x="124.7191"
       y="195.50562" />
    <path
       id="path9023"
       style="fill:#000000;fill-opacity:1;stroke:none;stroke-width:0.319142;stroke-dasharray:none;stroke-opacity:1"
       d="m 129.21348,191.01123 a 7.8651685,7.8651685 0 0 0 -7.86517,7.86517 7.8651685,7.8651685 0 0 0 7.86517,7.86517 7.8651685,7.8651685 0 0 0 7.86517,-7.86517 7.8651685,7.8651685 0 0 0 -7.86517,-7.86517 z m 0,1.1236 a 6.741573,6.741573 0 0 1 6.74158,6.74157 6.741573,6.741573 0 0 1 -6.74158,6.74158 6.741573,6.741573 0 0 1 -6.74157,-6.74158 6.741573,6.741573 0 0 1 6.74157,-6.74157 z" />
    <path
       d="m 60.536676,64.290726 v -7.988057 h 2.943584 q 1.632724,0 2.621722,1.158706 0.988997,1.152856 0.988997,2.849953 0,1.697096 -1.018258,2.838247 -1.018258,1.141151 -2.914324,1.141151 z m 1.480571,-1.176263 h 1.199672 q 0.965589,0 1.638575,-0.725657 0.672987,-0.725653 0.672987,-2.159406 0,-1.170414 -0.591059,-1.977996 -0.585204,-0.813436 -1.550795,-0.813436 h -1.36938 z"
       id="path32292"
       style="font-size:5.33333px;font-family:'Franklin Gothic Medium';-inkscape-font-specification:'Franklin Gothic Medium, ';stroke-width:0.116854" />
    <path
       d="m 69.864854,64.290726 h -1.439607 v -7.988057 h 1.439607 z"
       id="path32294"
       style="font-size:5.33333px;font-family:'Franklin Gothic Medium';-inkscape-font-specification:'Franklin Gothic Medium, ';stroke-width:0.116854" />
    <path
       d="m 77.683202,60.205991 v 4.084735 h -0.637874 l -0.438906,-1.076778 q -0.696393,1.199672 -2.159409,1.199672 -1.632723,0 -2.440305,-1.240636 -0.801733,-1.240636 -0.801733,-2.873362 0,-1.726355 0.895364,-2.920175 0.901218,-1.199672 2.516384,-1.199672 1.205524,0 1.983847,0.702247 0.778324,0.696396 0.983146,1.738061 l -1.252339,0.222382 q -0.351123,-1.463014 -1.679541,-1.463014 -0.848549,0 -1.386937,0.690544 -0.532538,0.690542 -0.532538,2.124297 0,3.025512 1.896068,3.025512 0.737357,0 1.217227,-0.509128 0.485721,-0.50913 0.485721,-1.345973 h -1.650281 v -1.158708 z"
       id="path32296"
       style="font-size:5.33333px;font-family:'Franklin Gothic Medium';-inkscape-font-specification:'Franklin Gothic Medium, ';stroke-width:0.116854" />
    <path
       d="M 80.75553,64.290726 H 79.315923 V 56.302669 H 80.75553 Z"
       id="path32298"
       style="font-size:5.33333px;font-family:'Franklin Gothic Medium';-inkscape-font-specification:'Franklin Gothic Medium, ';stroke-width:0.116854" />
    <path
       d="m 85.302577,64.290726 h -1.544941 v -6.753272 h -2.124297 v -1.234785 h 5.793535 v 1.234785 h -2.124297 z"
       id="path32300"
       style="font-size:5.33333px;font-family:'Franklin Gothic Medium';-inkscape-font-specification:'Franklin Gothic Medium, ';stroke-width:0.116854" />
    <path
       d="m 93.951919,64.290726 h -1.53909 l -0.637874,-1.90192 h -3.072331 l -0.626171,1.90192 h -1.22893 l 2.650982,-7.988057 h 1.773173 z m -2.5632,-3.054773 -1.16456,-3.563904 -1.164559,3.563904 z"
       id="path32302"
       style="font-size:5.33333px;font-family:'Franklin Gothic Medium';-inkscape-font-specification:'Franklin Gothic Medium, ';stroke-width:0.116854" />
    <path
       d="m 99.827384,64.290726 h -4.915728 v -7.988057 h 1.515683 v 6.683048 h 3.400045 z"
       id="path32304"
       style="font-size:5.33333px;font-family:'Franklin Gothic Medium';-inkscape-font-specification:'Franklin Gothic Medium, ';stroke-width:0.116854" />
    <path
       d="m 105.32246,64.290726 h -1.4396 v -7.988057 h 3.2713 q 1.39864,0 2.07163,0.708099 0.67884,0.702247 0.67884,1.661985 0,1.094332 -0.73151,1.773173 -0.73151,0.678838 -1.8551,0.678838 h -1.99556 z m 0,-4.400747 h 1.70295 q 0.66714,0 1.01826,-0.327714 0.35112,-0.327717 0.35112,-0.871957 0,-0.491573 -0.32771,-0.842697 -0.32186,-0.351124 -1.17041,-0.351124 h -1.57421 z"
       id="path32306"
       style="font-size:5.33333px;font-family:'Franklin Gothic Medium';-inkscape-font-specification:'Franklin Gothic Medium, ';stroke-width:0.116854" />
    <path
       d="m 117.28992,64.290726 h -1.52153 l -1.24064,-3.283005 h -2.02481 v 3.283005 h -1.43961 v -7.988057 h 3.46442 q 1.44546,0 2.1243,0.65543 0.67883,0.649579 0.67883,1.685393 0,1.53909 -1.4396,2.118445 z m -4.78698,-4.435859 h 1.79073 q 0.77832,0 1.1587,-0.327714 0.38039,-0.327717 0.38039,-0.901218 0,-0.526686 -0.37453,-0.848549 -0.37453,-0.327714 -1.04752,-0.327714 h -1.90777 z"
       id="path32308"
       style="font-size:5.33333px;font-family:'Franklin Gothic Medium';-inkscape-font-specification:'Franklin Gothic Medium, ';stroke-width:0.116854" />
    <path
       d="m 123.95541,64.290726 h -5.19077 v -7.988057 h 5.1381 v 1.187967 h -3.6985 v 2.16526 h 2.97285 v 1.158708 h -2.97285 v 2.235486 h 3.75117 z"
       id="path32310"
       style="font-size:5.33333px;font-family:'Franklin Gothic Medium';-inkscape-font-specification:'Franklin Gothic Medium, ';stroke-width:0.116854" />
    <path
       d="m 124.3592,62.3654 1.39865,-0.298456 q 0.25163,1.187968 1.93117,1.187968 0.76662,0 1.17627,-0.304308 0.41549,-0.304305 0.41549,-0.754914 0,-0.327715 -0.18725,-0.602762 -0.18726,-0.280899 -0.80174,-0.438904 l -1.52738,-0.397941 q -0.78418,-0.204809 -1.15871,-0.462313 -0.37453,-0.263341 -0.60276,-0.737357 -0.22239,-0.474018 -0.22239,-1.012407 0,-1.070925 0.79589,-1.714651 0.79587,-0.64958 2.03651,-0.64958 1.02996,0 1.83754,0.450609 0.81344,0.450609 1.03582,1.275748 l -1.36938,0.339421 q -0.31601,-0.90707 -1.47472,-0.90707 -0.67299,0 -1.02996,0.280899 -0.35113,0.280899 -0.35113,0.71395 0,0.68469 1.11189,0.959737 l 1.35768,0.339421 q 1.23478,0.310157 1.65613,0.918773 0.42135,0.602761 0.42135,1.334267 0,1.176263 -0.88951,1.855103 -0.88366,0.672987 -2.29401,0.672987 -1.18797,0 -2.08333,-0.497425 -0.88951,-0.497427 -1.18212,-1.550795 z"
       id="path32312"
       style="font-size:5.33333px;font-family:'Franklin Gothic Medium';-inkscape-font-specification:'Franklin Gothic Medium, ';stroke-width:0.116854" />
    <path
       d="m 131.20611,62.3654 1.39864,-0.298456 q 0.25164,1.187968 1.93118,1.187968 0.76662,0 1.17626,-0.304308 0.4155,-0.304305 0.4155,-0.754914 0,-0.327715 -0.18726,-0.602762 -0.18726,-0.280899 -0.80173,-0.438904 l -1.52739,-0.397941 q -0.78417,-0.204809 -1.1587,-0.462313 -0.37454,-0.263341 -0.60277,-0.737357 -0.22238,-0.474018 -0.22238,-1.012407 0,-1.070925 0.79588,-1.714651 0.79588,-0.64958 2.03651,-0.64958 1.02997,0 1.83755,0.450609 0.81344,0.450609 1.03581,1.275748 l -1.36938,0.339421 q -0.31601,-0.90707 -1.47472,-0.90707 -0.67298,0 -1.02996,0.280899 -0.35112,0.280899 -0.35112,0.71395 0,0.68469 1.11189,0.959737 l 1.35768,0.339421 q 1.23478,0.310157 1.65613,0.918773 0.42135,0.602761 0.42135,1.334267 0,1.176263 -0.88952,1.855103 -0.88366,0.672987 -2.294,0.672987 -1.18797,0 -2.08333,-0.497425 -0.88952,-0.497427 -1.18212,-1.550795 z"
       id="path32314"
       style="font-size:5.33333px;font-family:'Franklin Gothic Medium';-inkscape-font-specification:'Franklin Gothic Medium, ';stroke-width:0.116854" />
    <path
       d="m 144.37324,56.302669 v 5.132254 q 0,1.041665 -0.23409,1.603463 -0.23408,0.561798 -0.90706,0.971441 -0.66714,0.403793 -1.63273,0.403793 -0.97729,0 -1.60931,-0.351124 -0.62617,-0.351123 -0.90122,-0.959737 -0.27505,-0.614467 -0.27505,-1.562501 v -5.237589 h 1.46887 v 5.132254 q 0,1.053369 0.4389,1.386937 0.44476,0.327715 1.02997,0.327715 0.67298,0 1.07677,-0.351124 0.4038,-0.356975 0.4038,-1.363528 v -5.132254 z"
       id="path32316"
       style="font-size:5.33333px;font-family:'Franklin Gothic Medium';-inkscape-font-specification:'Franklin Gothic Medium, ';stroke-width:0.116854" />
    <path
       d="m 152.24425,64.290726 h -1.52154 l -1.24063,-3.283005 h -2.02481 v 3.283005 h -1.43961 v -7.988057 h 3.46442 q 1.44546,0 2.12429,0.65543 0.67884,0.649579 0.67884,1.685393 0,1.53909 -1.4396,2.118445 z m -4.78698,-4.435859 h 1.79072 q 0.77833,0 1.15871,-0.327714 0.38039,-0.327717 0.38039,-0.901218 0,-0.526686 -0.37454,-0.848549 -0.37453,-0.327714 -1.04751,-0.327714 h -1.90777 z"
       id="path32318"
       style="font-size:5.33333px;font-family:'Franklin Gothic Medium';-inkscape-font-specification:'Franklin Gothic Medium, ';stroke-width:0.116854" />
    <path
       d="m 158.90974,64.290726 h -5.19077 v -7.988057 h 5.1381 v 1.187967 h -3.6985 v 2.16526 h 2.97285 v 1.158708 h -2.97285 v 2.235486 h 3.75117 z"
       id="path32320"
       style="font-size:5.33333px;font-family:'Franklin Gothic Medium';-inkscape-font-specification:'Franklin Gothic Medium, ';stroke-width:0.116854" />
    <path
       d="m 169.20937,60.205991 v 4.084735 h -0.63788 l -0.4389,-1.076778 q -0.6964,1.199672 -2.15941,1.199672 -1.63272,0 -2.44031,-1.240636 -0.80173,-1.240636 -0.80173,-2.873362 0,-1.726355 0.89536,-2.920175 0.90122,-1.199672 2.51639,-1.199672 1.20552,0 1.98385,0.702247 0.77832,0.696396 0.98314,1.738061 l -1.25234,0.222382 q -0.35112,-1.463014 -1.67954,-1.463014 -0.84855,0 -1.38694,0.690544 -0.53253,0.690542 -0.53253,2.124297 0,3.025512 1.89606,3.025512 0.73736,0 1.21723,-0.509128 0.48572,-0.50913 0.48572,-1.345973 h -1.65028 v -1.158708 z"
       id="path32322"
       style="font-size:5.33333px;font-family:'Franklin Gothic Medium';-inkscape-font-specification:'Franklin Gothic Medium, ';stroke-width:0.116854" />
    <path
       d="m 177.16816,64.290726 h -1.53909 l -0.63788,-1.90192 h -3.07233 l -0.62617,1.90192 h -1.22893 l 2.65098,-7.988057 h 1.77318 z m -2.5632,-3.054773 -1.16456,-3.563904 -1.16456,3.563904 z"
       id="path32324"
       style="font-size:5.33333px;font-family:'Franklin Gothic Medium';-inkscape-font-specification:'Franklin Gothic Medium, ';stroke-width:0.116854" />
    <path
       d="m 183.35964,56.302669 v 5.132254 q 0,1.041665 -0.23408,1.603463 -0.23408,0.561798 -0.90707,0.971441 -0.66714,0.403793 -1.63272,0.403793 -0.9773,0 -1.60932,-0.351124 -0.62617,-0.351123 -0.90122,-0.959737 -0.27504,-0.614467 -0.27504,-1.562501 v -5.237589 h 1.46886 v 5.132254 q 0,1.053369 0.43891,1.386937 0.44475,0.327715 1.02996,0.327715 0.67298,0 1.07678,-0.351124 0.40379,-0.356975 0.40379,-1.363528 v -5.132254 z"
       id="path32326"
       style="font-size:5.33333px;font-family:'Franklin Gothic Medium';-inkscape-font-specification:'Franklin Gothic Medium, ';stroke-width:0.116854" />
    <path
       d="m 191.06679,60.205991 v 4.084735 h -0.63787 l -0.43891,-1.076778 q -0.69639,1.199672 -2.1594,1.199672 -1.63273,0 -2.44031,-1.240636 -0.80173,-1.240636 -0.80173,-2.873362 0,-1.726355 0.89536,-2.920175 0.90122,-1.199672 2.51639,-1.199672 1.20552,0 1.98384,0.702247 0.77833,0.696396 0.98315,1.738061 l -1.25234,0.222382 q -0.35112,-1.463014 -1.67954,-1.463014 -0.84855,0 -1.38694,0.690544 -0.53254,0.690542 -0.53254,2.124297 0,3.025512 1.89607,3.025512 0.73736,0 1.21723,-0.509128 0.48572,-0.50913 0.48572,-1.345973 h -1.65028 v -1.158708 z"
       id="path32328"
       style="font-size:5.33333px;font-family:'Franklin Gothic Medium';-inkscape-font-specification:'Franklin Gothic Medium, ';stroke-width:0.116854" />
    <path
       d="m 197.89029,64.290726 h -5.19077 v -7.988057 h 5.1381 v 1.187967 h -3.6985 v 2.16526 h 2.97285 v 1.158708 h -2.97285 v 2.235486 h 3.75117 z"
       id="path32330"
       style="font-size:5.33333px;font-family:'Franklin Gothic Medium';-inkscape-font-specification:'Franklin Gothic Medium, ';stroke-width:0.116854" />
  </g>
</svg>
