<?xml version="1.0" encoding="UTF-8" standalone="no"?>
<!-- Created with Inkscape (http://www.inkscape.org/) -->

<svg
   width="258.42697"
   height="300"
   viewBox="0 0 258.42697 300"
   version="1.1"
   id="svg5"
   inkscape:version="1.2.2 (732a01da63, 2022-12-09)"
   sodipodi:docname="pressure-gauge.svg"
   xmlns:inkscape="http://www.inkscape.org/namespaces/inkscape"
   xmlns:sodipodi="http://sodipodi.sourceforge.net/DTD/sodipodi-0.dtd"
   xmlns:xlink="http://www.w3.org/1999/xlink"
   xmlns="http://www.w3.org/2000/svg"
   xmlns:svg="http://www.w3.org/2000/svg">
  <sodipodi:namedview
     id="namedview7"
     pagecolor="#ffffff"
     bordercolor="#000000"
     borderopacity="0.25"
     inkscape:showpageshadow="2"
     inkscape:pageopacity="0.0"
     inkscape:pagecheckerboard="false"
     inkscape:deskcolor="#d1d1d1"
     inkscape:document-units="px"
     showgrid="false"
     showborder="true"
     borderlayer="true"
     shape-rendering="auto"
     inkscape:zoom="2"
     inkscape:cx="111.75"
     inkscape:cy="173.25"
     inkscape:window-width="1278"
     inkscape:window-height="1360"
     inkscape:window-x="1273"
     inkscape:window-y="0"
     inkscape:window-maximized="0"
     inkscape:current-layer="svg5" />
  <defs
     id="defs2">
    <linearGradient
       inkscape:collect="always"
       id="linearGradient29180">
      <stop
         style="stop-color:#b3b3b3;stop-opacity:1;"
         offset="0.05337838"
         id="stop29176" />
      <stop
         style="stop-color:#d2d2d2;stop-opacity:1;"
         offset="0.25"
         id="stop29184" />
      <stop
         style="stop-color:#9c9c9c;stop-opacity:1;"
         offset="0.5"
         id="stop29186" />
      <stop
         style="stop-color:#afafaf;stop-opacity:1;"
         offset="0.75"
         id="stop29188" />
      <stop
         style="stop-color:#d0d0d0;stop-opacity:1;"
         offset="0.94999999"
         id="stop29190" />
    </linearGradient>
    <linearGradient
       inkscape:collect="always"
       id="linearGradient29166">
      <stop
         style="stop-color:#b3b3b3;stop-opacity:1;"
         offset="0.05"
         id="stop29162" />
      <stop
         style="stop-color:#d2d2d2;stop-opacity:1;"
         offset="0.25"
         id="stop29170" />
      <stop
         style="stop-color:#9c9c9c;stop-opacity:1;"
         offset="0.5"
         id="stop29172" />
      <stop
         style="stop-color:#afafaf;stop-opacity:1;"
         offset="0.75"
         id="stop29174" />
      <stop
         style="stop-color:#d0d0d0;stop-opacity:1;"
         offset="0.94999999"
         id="stop29164" />
    </linearGradient>
    <linearGradient
       inkscape:collect="always"
       id="linearGradient9133">
      <stop
         style="stop-color:#b3b3b3;stop-opacity:1;"
         offset="0.1"
         id="stop9129" />
      <stop
         style="stop-color:#d2d2d2;stop-opacity:1;"
         offset="0.25"
         id="stop11476" />
      <stop
         style="stop-color:#9c9c9c;stop-opacity:1;"
         offset="0.40000001"
         id="stop11478" />
      <stop
         style="stop-color:#afafaf;stop-opacity:1;"
         offset="0.60000002"
         id="stop11480" />
      <stop
         style="stop-color:#d0d0d0;stop-opacity:1;"
         offset="0.75"
         id="stop11482" />
      <stop
         style="stop-color:#989898;stop-opacity:1;"
         offset="0.94999999"
         id="stop9131" />
    </linearGradient>
    <linearGradient
       inkscape:collect="always"
       xlink:href="#linearGradient9133"
       id="linearGradient9135"
       x1="0"
       y1="57.5"
       x2="114.6312"
       y2="57.5"
       gradientUnits="userSpaceOnUse" />
    <linearGradient
       inkscape:collect="always"
       xlink:href="#linearGradient29166"
       id="linearGradient29168"
       x1="45"
       y1="125.5625"
       x2="70"
       y2="125.5625"
       gradientUnits="userSpaceOnUse" />
    <linearGradient
       inkscape:collect="always"
       xlink:href="#linearGradient29180"
       id="linearGradient29182"
       x1="47.5"
       y1="115.5853"
       x2="67.5"
       y2="115.5853"
       gradientUnits="userSpaceOnUse" />
  </defs>
  <g
     id="pressure-gauge">
    <g
       id="base"
       transform="scale(2.247191)">
      <rect
         style="opacity:1;fill:url(#linearGradient29182);fill-opacity:1;stroke:none;stroke-width:0.052;stroke-dasharray:none;stroke-opacity:1"
         id="rect29156"
         width="20"
         height="5"
         x="47.5"
         y="113.0853" />
      <rect
         style="opacity:1;fill:url(#linearGradient29168);fill-opacity:1;stroke:none;stroke-width:0.156903;stroke-dasharray:none;stroke-opacity:1"
         id="rect29158"
         width="25"
         height="15.875"
         x="45"
         y="117.625" />
      <circle
         style="opacity:1;fill:url(#linearGradient9135);fill-opacity:1;stroke-width:2.89795"
         id="path234-8"
         cx="57.5"
         cy="57.5"
         r="57.5" />
      <circle
         style="opacity:1;fill:#fbe631;fill-opacity:1;stroke-width:2.51996"
         id="path234"
         cx="57.5"
         cy="57.5"
         r="50" />
    </g>
    <g
       id="right-button"
       transform="scale(2.247191)">
      <rect
         style="fill:#ffffff;fill-opacity:1;stroke:#000000;stroke-width:0.5;stroke-dasharray:none;stroke-opacity:1"
         id="rect3310-9"
         width="16.936434"
         height="9.8392563"
         x="2.1383841"
         y="108.56808"
         ry="4.7583294"
         transform="matrix(-0.70710678,0.70710678,0.70710678,0.70710678,0,0)" />
      <path
         id="rect8596-7"
         style="fill:#000000;fill-opacity:1;stroke:none;stroke-width:0.0843067;stroke-dasharray:none;stroke-opacity:1"
         d="m 72.749572,89.386278 2.978823,-2.978823 -0.297882,-0.297882 -2.682587,2.682586 -2.682586,-2.682586 -0.297882,0.297882 2.979645,2.978823 8.23e-4,-0.0016 z" />
    </g>
    <g
       id="screen"
       transform="scale(2.247191)">
      <rect
         style="opacity:1;fill:#8e9b81;fill-opacity:1;stroke:#000000;stroke-width:1.24326;stroke-dasharray:none;stroke-opacity:1"
         id="rect1700"
         width="72.9002"
         height="33.756741"
         x="21.0499"
         y="30.62163"
         ry="0" />
    </g>
    <g
       id="left-button"
       transform="scale(2.247191)">
      <rect
         style="opacity:1;fill:#ffffff;fill-opacity:1;stroke:#000000;stroke-width:0.484027;stroke-dasharray:none;stroke-opacity:1"
         id="rect3310"
         width="16.395376"
         height="9.5249271"
         x="83.391937"
         y="27.097555"
         ry="4.6063175"
         transform="matrix(0.707457,0.70675639,-0.707457,0.70675639,0,0)" />
      <path
         id="rect8596"
         style="opacity:1;fill:#000000;fill-opacity:1;stroke:none;stroke-width:0.084;stroke-dasharray:none;stroke-opacity:1"
         d="m 42.498355,85.861648 -2.978823,2.978823 0.297882,0.297882 2.682587,-2.682586 2.682586,2.682586 0.297882,-0.297882 -2.979645,-2.978823 -8.23e-4,0.0016 z" />
    </g>
    <g
       id="center-button"
       transform="matrix(2.247191,0,0,2.247191,0,0.56179775)">
      <rect
         style="fill:#ffffff;fill-opacity:1;stroke:#000000;stroke-width:0.5;stroke-dasharray:none;stroke-opacity:1"
         id="rect3310-1"
         width="17"
         height="10"
         x="79.75"
         y="-62.5"
         ry="4.8360667"
         transform="rotate(90)" />
      <rect
         style="fill:#000000;fill-opacity:1;stroke:none;stroke-width:0.0242486;stroke-dasharray:none;stroke-opacity:1"
         id="rect8923"
         width="4"
         height="0.5"
         x="55.5"
         y="89.25" />
      <rect
         style="fill:#000000;fill-opacity:1;stroke:none;stroke-width:0.0242486;stroke-dasharray:none;stroke-opacity:1"
         id="rect8923-7"
         width="4"
         height="0.5"
         x="55.5"
         y="88" />
      <rect
         style="fill:#000000;fill-opacity:1;stroke:none;stroke-width:0.0242486;stroke-dasharray:none;stroke-opacity:1"
         id="rect8923-6"
         width="4"
         height="0.5"
         x="55.5"
         y="86.75" />
      <path
         id="path9023"
         style="fill:#000000;fill-opacity:1;stroke:none;stroke-width:0.142018;stroke-dasharray:none;stroke-opacity:1"
         d="m 57.5,84.75 a 3.5,3.5 0 0 0 -3.5,3.5 3.5,3.5 0 0 0 3.5,3.5 3.5,3.5 0 0 0 3.5,-3.5 3.5,3.5 0 0 0 -3.5,-3.5 z m 0,0.5 a 3,3 0 0 1 3,3 3,3 0 0 1 -3,3 3,3 0 0 1 -3,-3 3,3 0 0 1 3,-3 z" />
    </g>
    <g
       aria-label="DIGITAL PRESSURE GAUGE"
       id="text"
       style="font-size:5.33333px;font-family:'Franklin Gothic Medium';-inkscape-font-specification:'Franklin Gothic Medium, ';opacity:1;stroke-width:0.052"
       transform="scale(2.247191)">
      <path
         d="m 26.938821,28.609373 v -3.554685 h 1.309895 q 0.726562,0 1.166666,0.515624 0.440104,0.513021 0.440104,1.268229 0,0.755208 -0.453125,1.26302 -0.453125,0.507812 -1.296874,0.507812 z m 0.658854,-0.523437 h 0.533854 q 0.429687,0 0.729166,-0.322917 0.299479,-0.322916 0.299479,-0.960936 0,-0.520834 -0.263021,-0.880208 -0.260416,-0.361979 -0.690104,-0.361979 h -0.609374 z"
         id="path32292" />
      <path
         d="M 31.08986,28.609373 H 30.449235 V 25.054688 H 31.08986 Z"
         id="path32294" />
      <path
         d="m 34.569025,26.791666 v 1.817707 h -0.283854 l -0.195313,-0.479166 q -0.309895,0.533854 -0.960937,0.533854 -0.726562,0 -1.085936,-0.552083 -0.356771,-0.552083 -0.356771,-1.278646 0,-0.768228 0.398437,-1.299478 Q 32.485693,25 33.204442,25 q 0.536458,0 0.882812,0.3125 0.346354,0.309896 0.4375,0.773437 l -0.557291,0.09896 q -0.15625,-0.651041 -0.747396,-0.651041 -0.377604,0 -0.617187,0.307292 -0.236979,0.307291 -0.236979,0.945312 0,1.346353 0.84375,1.346353 0.328124,0 0.541666,-0.226562 0.216146,-0.226563 0.216146,-0.598958 h -0.734375 v -0.515625 z"
         id="path32296" />
      <path
         d="m 35.936211,28.609373 h -0.640625 v -3.554685 h 0.640625 z"
         id="path32298" />
      <path
         d="m 37.959647,28.609373 h -0.687499 v -3.005206 h -0.945312 v -0.549479 h 2.578123 v 0.549479 h -0.945312 z"
         id="path32300" />
      <path
         d="m 41.808604,28.609373 h -0.684895 l -0.283854,-0.846354 h -1.367187 l -0.278646,0.846354 h -0.546874 l 1.179687,-3.554685 h 0.789062 z m -1.140624,-1.359374 -0.518229,-1.585937 -0.518229,1.585937 z"
         id="path32302" />
      <path
         d="m 44.423186,28.609373 h -2.187499 v -3.554685 h 0.674479 v 2.973956 h 1.51302 z"
         id="path32304" />
      <path
         d="m 46.868497,28.609373 h -0.640624 v -3.554685 h 1.455728 q 0.622395,0 0.921874,0.315104 0.302084,0.3125 0.302084,0.739583 0,0.486978 -0.325521,0.789062 -0.325521,0.302083 -0.82552,0.302083 h -0.888021 z m 0,-1.958332 h 0.757812 q 0.296875,0 0.453125,-0.145833 0.15625,-0.145834 0.15625,-0.388021 0,-0.21875 -0.145833,-0.375 -0.143229,-0.15625 -0.520833,-0.15625 h -0.700521 z"
         id="path32306" />
      <path
         d="m 52.194015,28.609373 h -0.677083 l -0.552083,-1.460937 h -0.901041 v 1.460937 h -0.640625 v -3.554685 h 1.541666 q 0.643229,0 0.945312,0.291666 0.302083,0.289063 0.302083,0.75 0,0.684895 -0.640625,0.942708 z m -2.130207,-1.973957 h 0.796874 q 0.346354,0 0.515625,-0.145833 0.169271,-0.145834 0.169271,-0.401042 0,-0.234375 -0.166667,-0.377604 -0.166666,-0.145833 -0.466145,-0.145833 h -0.848958 z"
         id="path32308" />
      <path
         d="m 55.160158,28.609373 h -2.309895 v -3.554685 h 2.286457 v 0.528645 h -1.645832 v 0.963541 h 1.322916 v 0.515625 h -1.322916 v 0.994791 h 1.66927 z"
         id="path32310" />
      <path
         d="m 55.339846,27.752603 0.622396,-0.132813 q 0.111979,0.528646 0.859374,0.528646 0.341146,0 0.523437,-0.135417 0.184896,-0.135416 0.184896,-0.335937 0,-0.145833 -0.08333,-0.268229 -0.08333,-0.125 -0.356771,-0.195312 l -0.679687,-0.177084 q -0.348958,-0.09114 -0.515625,-0.205729 -0.166666,-0.117187 -0.268229,-0.328124 -0.09896,-0.210938 -0.09896,-0.450521 0,-0.476562 0.354167,-0.76302 Q 56.235679,25 56.787762,25 q 0.458333,0 0.817708,0.200521 0.361979,0.200521 0.460937,0.567708 l -0.609374,0.151042 q -0.140625,-0.403646 -0.65625,-0.403646 -0.299479,0 -0.458333,0.125 -0.15625,0.125 -0.15625,0.317708 0,0.304687 0.494791,0.427083 l 0.604167,0.151042 q 0.549478,0.13802 0.736978,0.408854 0.1875,0.268229 0.1875,0.593749 0,0.523437 -0.395833,0.825521 -0.393229,0.299479 -1.020833,0.299479 -0.528645,0 -0.927082,-0.221354 -0.395833,-0.221355 -0.526042,-0.690104 z"
         id="path32312" />
      <path
         d="m 58.386719,27.752603 0.622396,-0.132813 q 0.111979,0.528646 0.859374,0.528646 0.341146,0 0.523438,-0.135417 0.184895,-0.135416 0.184895,-0.335937 0,-0.145833 -0.08333,-0.268229 -0.08333,-0.125 -0.356771,-0.195312 l -0.679687,-0.177084 q -0.348958,-0.09114 -0.515624,-0.205729 -0.166667,-0.117187 -0.268229,-0.328124 -0.09896,-0.210938 -0.09896,-0.450521 0,-0.476562 0.354167,-0.76302 Q 59.282552,25 59.834635,25 q 0.458333,0 0.817708,0.200521 0.361979,0.200521 0.460937,0.567708 l -0.609374,0.151042 q -0.140625,-0.403646 -0.65625,-0.403646 -0.299479,0 -0.458333,0.125 -0.15625,0.125 -0.15625,0.317708 0,0.304687 0.494791,0.427083 l 0.604167,0.151042 q 0.549479,0.13802 0.736978,0.408854 0.1875,0.268229 0.1875,0.593749 0,0.523437 -0.395833,0.825521 -0.393229,0.299479 -1.020832,0.299479 -0.528646,0 -0.927083,-0.221354 -0.395833,-0.221355 -0.526042,-0.690104 z"
         id="path32314" />
      <path
         d="m 64.246091,25.054688 v 2.283853 q 0,0.463541 -0.104167,0.713541 -0.104166,0.25 -0.403645,0.432291 -0.296875,0.179688 -0.726562,0.179688 -0.434896,0 -0.716146,-0.15625 -0.278646,-0.15625 -0.401041,-0.427083 -0.122396,-0.273438 -0.122396,-0.695313 v -2.330727 h 0.653645 v 2.283853 q 0,0.468749 0.195313,0.617187 0.197916,0.145833 0.458333,0.145833 0.299479,0 0.479166,-0.15625 0.179688,-0.158854 0.179688,-0.60677 v -2.283853 z"
         id="path32316" />
      <path
         d="m 67.748691,28.609373 h -0.677083 l -0.552083,-1.460937 h -0.901041 v 1.460937 h -0.640625 v -3.554685 h 1.541666 q 0.643229,0 0.945312,0.291666 0.302083,0.289063 0.302083,0.75 0,0.684895 -0.640625,0.942708 z m -2.130207,-1.973957 h 0.796874 q 0.346354,0 0.515625,-0.145833 0.169271,-0.145834 0.169271,-0.401042 0,-0.234375 -0.166667,-0.377604 -0.166666,-0.145833 -0.466145,-0.145833 h -0.848958 z"
         id="path32318" />
      <path
         d="m 70.714836,28.609373 h -2.309895 v -3.554685 h 2.286457 v 0.528645 h -1.645832 v 0.963541 h 1.322916 v 0.515625 h -1.322916 v 0.994791 h 1.66927 z"
         id="path32320" />
      <path
         d="m 75.298169,26.791666 v 1.817707 h -0.283854 l -0.195312,-0.479166 q -0.309896,0.533854 -0.960937,0.533854 -0.726562,0 -1.085937,-0.552083 -0.356771,-0.552083 -0.356771,-1.278646 0,-0.768228 0.398437,-1.299478 Q 73.214837,25 73.933586,25 q 0.536458,0 0.882812,0.3125 0.346354,0.309896 0.4375,0.773437 l -0.557291,0.09896 q -0.15625,-0.651041 -0.747396,-0.651041 -0.377604,0 -0.617187,0.307292 -0.236979,0.307291 -0.236979,0.945312 0,1.346353 0.84375,1.346353 0.328124,0 0.541666,-0.226562 0.216146,-0.226563 0.216146,-0.598958 h -0.734375 v -0.515625 z"
         id="path32322" />
      <path
         d="m 78.83983,28.609373 h -0.684895 l -0.283854,-0.846354 h -1.367187 l -0.278645,0.846354 h -0.546875 l 1.179687,-3.554685 h 0.789062 z m -1.140624,-1.359374 -0.518229,-1.585937 -0.518229,1.585937 z"
         id="path32324" />
      <path
         d="m 81.59504,25.054688 v 2.283853 q 0,0.463541 -0.104166,0.713541 -0.104167,0.25 -0.403646,0.432291 -0.296875,0.179688 -0.726562,0.179688 -0.434896,0 -0.716145,-0.15625 -0.278646,-0.15625 -0.401042,-0.427083 -0.122396,-0.273438 -0.122396,-0.695313 v -2.330727 h 0.653646 v 2.283853 q 0,0.468749 0.195312,0.617187 0.197917,0.145833 0.458333,0.145833 0.299479,0 0.479167,-0.15625 0.179687,-0.158854 0.179687,-0.60677 v -2.283853 z"
         id="path32326" />
      <path
         d="m 85.024724,26.791666 v 1.817707 H 84.74087 l -0.195313,-0.479166 q -0.309895,0.533854 -0.960937,0.533854 -0.726562,0 -1.085936,-0.552083 -0.356771,-0.552083 -0.356771,-1.278646 0,-0.768228 0.398437,-1.299478 Q 82.941392,25 83.660141,25 q 0.536458,0 0.882812,0.3125 0.346354,0.309896 0.4375,0.773437 l -0.557291,0.09896 q -0.15625,-0.651041 -0.747396,-0.651041 -0.377604,0 -0.617187,0.307292 -0.236979,0.307291 -0.236979,0.945312 0,1.346353 0.84375,1.346353 0.328124,0 0.541666,-0.226562 0.216146,-0.226563 0.216146,-0.598958 h -0.734375 v -0.515625 z"
         id="path32328" />
      <path
         d="m 88.06118,28.609373 h -2.309895 v -3.554685 h 2.286457 v 0.528645 H 86.39191 v 0.963541 h 1.322916 v 0.515625 H 86.39191 v 0.994791 h 1.66927 z"
         id="path32330" />
    </g>
  </g>
</svg>
