<?xml version="1.0" encoding="UTF-8" standalone="no"?>
<!-- Created with Inkscape (http://www.inkscape.org/) -->

<svg
   width="300"
   height="166.99583"
   viewBox="0 0 300 166.99583"
   version="1.1"
   id="svg798"
   sodipodi:docname="pump.svg"
   inkscape:version="1.2.2 (732a01da63, 2022-12-09)"
   xmlns:inkscape="http://www.inkscape.org/namespaces/inkscape"
   xmlns:sodipodi="http://sodipodi.sourceforge.net/DTD/sodipodi-0.dtd"
   xmlns:xlink="http://www.w3.org/1999/xlink"
   xmlns="http://www.w3.org/2000/svg"
   xmlns:svg="http://www.w3.org/2000/svg">
  <sodipodi:namedview
     id="namedview800"
     pagecolor="#ffffff"
     bordercolor="#eeeeee"
     borderopacity="1"
     inkscape:showpageshadow="0"
     inkscape:pageopacity="0"
     inkscape:pagecheckerboard="0"
     inkscape:deskcolor="#505050"
     inkscape:document-units="px"
     showgrid="false"
     inkscape:zoom="2.0000001"
     inkscape:cx="267.49999"
     inkscape:cy="148.74999"
     inkscape:window-width="1920"
     inkscape:window-height="1018"
     inkscape:window-x="676"
     inkscape:window-y="-6"
     inkscape:window-maximized="1"
     inkscape:current-layer="pump" />
  <defs
     id="defs795">
    <linearGradient
       inkscape:collect="always"
       xlink:href="#linearGradient31314"
       id="linearGradient22397"
       gradientUnits="userSpaceOnUse"
       gradientTransform="matrix(-0.84926359,-0.00625268,-0.02362168,-0.30142185,-40.075221,102.16443)"
       x1="134.83498"
       y1="185.42915"
       x2="171.70763"
       y2="185.42915" />
    <linearGradient
       inkscape:collect="always"
       id="linearGradient31314">
      <stop
         style="stop-color:#b3b3b3;stop-opacity:1;"
         offset="0.07717042"
         id="stop31302" />
      <stop
         style="stop-color:#d2d2d2;stop-opacity:1;"
         offset="0.24919616"
         id="stop31304" />
      <stop
         style="stop-color:#9c9c9c;stop-opacity:1;"
         offset="0.40956593"
         id="stop31306" />
      <stop
         style="stop-color:#afafaf;stop-opacity:1;"
         offset="0.61816716"
         id="stop31308" />
      <stop
         style="stop-color:#d0d0d0;stop-opacity:1;"
         offset="0.77893889"
         id="stop31310" />
      <stop
         style="stop-color:#989898;stop-opacity:1;"
         offset="0.95498395"
         id="stop31312" />
    </linearGradient>
    <linearGradient
       inkscape:collect="always"
       xlink:href="#linearGradient44730"
       id="linearGradient55895-5"
       gradientUnits="userSpaceOnUse"
       x1="58.1348"
       y1="65.446602"
       x2="77.912621"
       y2="65.566467"
       gradientTransform="matrix(5.5400352,0,0,5.0306838,-695.16547,-124.41331)" />
    <linearGradient
       inkscape:collect="always"
       id="linearGradient44730">
      <stop
         style="stop-color:#4a4a4a;stop-opacity:1;"
         offset="0"
         id="stop44726" />
      <stop
         style="stop-color:#5b5b5b;stop-opacity:1;"
         offset="0.20096463"
         id="stop44821" />
      <stop
         style="stop-color:#8a8a8a;stop-opacity:1;"
         offset="0.40000001"
         id="stop44823" />
      <stop
         style="stop-color:#424242;stop-opacity:1;"
         offset="0.60000002"
         id="stop44825" />
      <stop
         style="stop-color:#6b6b6b;stop-opacity:1;"
         offset="0.80154741"
         id="stop44829" />
      <stop
         style="stop-color:#4a4a4a;stop-opacity:1;"
         offset="1"
         id="stop44728" />
    </linearGradient>
    <linearGradient
       inkscape:collect="always"
       xlink:href="#linearGradient31314"
       id="linearGradient31318-5"
       x1="134.83498"
       y1="185.42915"
       x2="171.70763"
       y2="185.42915"
       gradientUnits="userSpaceOnUse"
       gradientTransform="matrix(0.09952983,-3.1141283,1.2051657,-0.04560753,-615.17219,645.0634)" />
    <linearGradient
       inkscape:collect="always"
       xlink:href="#linearGradient31314"
       id="linearGradient76316-0"
       gradientUnits="userSpaceOnUse"
       gradientTransform="matrix(-0.01277006,0.92162375,-0.85241923,0.02158476,-73.634429,-72.190404)"
       x1="134.83498"
       y1="185.42915"
       x2="171.70763"
       y2="185.42915" />
    <linearGradient
       inkscape:collect="always"
       xlink:href="#linearGradient48501"
       id="linearGradient48503-5"
       x1="32.603436"
       y1="49.264748"
       x2="77.553024"
       y2="49.025017"
       gradientUnits="userSpaceOnUse"
       gradientTransform="matrix(5.5400352,0,0,5.0306838,-410.94798,-111.14718)" />
    <linearGradient
       inkscape:collect="always"
       id="linearGradient48501">
      <stop
         style="stop-color:#424242;stop-opacity:1;"
         offset="0"
         id="stop48497" />
      <stop
         style="stop-color:#828282;stop-opacity:1;"
         offset="0.2"
         id="stop48505" />
      <stop
         style="stop-color:#929292;stop-opacity:1;"
         offset="0.40000001"
         id="stop48507" />
      <stop
         style="stop-color:#a5a5a5;stop-opacity:1;"
         offset="0.60000002"
         id="stop48509" />
      <stop
         style="stop-color:#878787;stop-opacity:1;"
         offset="0.79602093"
         id="stop48511" />
      <stop
         style="stop-color:#2d2d2d;stop-opacity:1;"
         offset="1"
         id="stop48499" />
    </linearGradient>
    <linearGradient
       inkscape:collect="always"
       xlink:href="#linearGradient44730"
       id="linearGradient44732-4"
       x1="58.1348"
       y1="65.446602"
       x2="77.912621"
       y2="65.566467"
       gradientUnits="userSpaceOnUse"
       gradientTransform="matrix(5.5400352,0,0,5.0306838,-410.94798,-111.14718)" />
    <linearGradient
       inkscape:collect="always"
       xlink:href="#linearGradient92545"
       id="linearGradient7719"
       gradientUnits="userSpaceOnUse"
       x1="6.3565364"
       y1="24.031433"
       x2="18.098412"
       y2="24.152374" />
    <linearGradient
       inkscape:collect="always"
       id="linearGradient92545">
      <stop
         style="stop-color:#2f2f2f;stop-opacity:1;"
         offset="0"
         id="stop92541" />
      <stop
         style="stop-color:#474747;stop-opacity:1;"
         offset="0.24919614"
         id="stop92549" />
      <stop
         style="stop-color:#787878;stop-opacity:1;"
         offset="0.5"
         id="stop92551" />
      <stop
         style="stop-color:#4f4f4f;stop-opacity:1;"
         offset="0.75"
         id="stop92553" />
      <stop
         style="stop-color:#3d3d3d;stop-opacity:1;"
         offset="1"
         id="stop92543" />
    </linearGradient>
  </defs>
  <g
     inkscape:label="pump"
     inkscape:groupmode="layer"
     id="pump"
     transform="matrix(0.722892,0,0,0.722892,285.52308,-29.458362)">
    <path
       id="path76314-5-6"
       style="fill:url(#linearGradient22397);fill-opacity:1;stroke-width:0.478617"
       d="m -174.38457,49.86962 a 15.539625,1.2333388 0.45298716 0 0 15.35595,-0.993754 l 0.0958,7.12e-4 -0.01,-0.12655 -0.51091,-6.51862 -0.0958,-7.12e-4 a 15.539625,1.2333388 0.45298716 0 0 0.086,-0.125826 15.539625,1.2333388 0.45298716 0 0 -15.63541,-1.34887 15.539625,1.2333388 0.45298716 0 0 -15.44193,1.120068 15.539625,1.2333388 0.45298716 0 0 0.10776,0.127261 l -0.0978,-7.22e-4 0.51084,6.518621 0.0101,0.126584 0.0978,7.21e-4 a 15.539625,1.2333388 0.45298716 0 0 15.52771,1.221118 z m 15.67914,-1.117836 -0.76293,-6.710648 z" />
    <rect
       style="fill:#808080;stroke-width:3.4311;stroke-linecap:square;paint-order:markers stroke fill"
       id="rect50079-5"
       width="114.88229"
       height="36.180347"
       x="-203.09738"
       y="227.13904"
       ry="2.2456727" />
    <rect
       style="fill:#666666;stroke-width:1.97997;stroke-linecap:square;paint-order:markers stroke fill"
       id="rect19760-8"
       width="192.57724"
       height="97.686928"
       x="-392.35431"
       y="113.17094"
       ry="15.028758"
       rx="0" />
    <path
       id="rect55893-8"
       style="fill:url(#linearGradient55895-5);fill-opacity:1;stroke:#000000;stroke-width:0.823374;stroke-linecap:square;stroke-opacity:1;paint-order:markers stroke fill"
       d="m -371.51532,108.34706 c -1.2441,0 -2.245,1.00091 -2.245,2.24501 v 9.37869 c 0,1.2441 1.0009,2.245 2.245,2.245 h 105.07861 c 1.2441,0 2.24652,-1.0009 2.24652,-2.245 v -9.37869 c 0,-1.2441 -1.00242,-2.24501 -2.24652,-2.24501 z m 0,15.07533 c -1.2441,0 -2.245,1.00091 -2.245,2.24501 v 9.37869 c 0,1.2441 1.0009,2.245 2.245,2.245 h 105.07861 c 1.2441,0 2.24652,-1.0009 2.24652,-2.245 v -9.37869 c 0,-1.2441 -1.00242,-2.24501 -2.24652,-2.24501 z m 0,15.07533 c -1.2441,0 -2.245,1.00091 -2.245,2.24501 v 9.37869 c 0,1.2441 1.0009,2.245 2.245,2.245 h 105.07861 c 1.2441,0 2.24652,-1.0009 2.24652,-2.245 v -9.37869 c 0,-1.2441 -1.00242,-2.24501 -2.24652,-2.24501 z m 0,15.07533 c -1.2441,0 -2.245,1.00091 -2.245,2.24501 v 9.37717 c 0,1.2441 1.0009,2.24652 2.245,2.24652 h 105.07861 c 1.2441,0 2.24652,-1.00242 2.24652,-2.24652 v -9.37717 c 0,-1.2441 -1.00242,-2.24501 -2.24652,-2.24501 z m 0,15.07382 c -1.2441,0 -2.245,1.00242 -2.245,2.24652 v 9.37717 c 0,1.2441 1.0009,2.24652 2.245,2.24652 h 105.07861 c 1.2441,0 2.24652,-1.00242 2.24652,-2.24652 v -9.37717 c 0,-1.2441 -1.00242,-2.24652 -2.24652,-2.24652 z m 0,15.07533 c -1.2441,0 -2.245,1.00241 -2.245,2.24652 v 9.37717 c 0,1.2441 1.0009,2.24652 2.245,2.24652 h 105.07861 c 1.2441,0 2.24652,-1.00242 2.24652,-2.24652 v -9.37717 c 0,-1.24411 -1.00242,-2.24652 -2.24652,-2.24652 z m 0,15.07533 c -1.2441,0 -2.245,1.00241 -2.245,2.24652 v 9.37717 c 0,1.2441 1.0009,2.245 2.245,2.245 h 105.07861 c 1.2441,0 2.24652,-1.0009 2.24652,-2.245 v -9.37717 c 0,-1.24411 -1.00242,-2.24652 -2.24652,-2.24652 z" />
    <rect
       style="fill:#808080;stroke-width:1.54623;stroke-linecap:square;paint-order:markers stroke fill"
       id="rect32992-8"
       width="57.773174"
       height="136.27931"
       x="-273.4877"
       y="96.286797"
       ry="13.169849" />
    <path
       id="path31294-3"
       style="fill:url(#linearGradient31318-5);fill-opacity:1;stroke-width:1.83205"
       d="m -394.64968,159.55474 a 4.925743,57.008849 1.860713 0 0 2.61804,56.45876 l -0.0112,0.35133 0.50592,-0.0186 26.06318,-0.98631 0.0113,-0.35135 a 4.925743,57.008849 1.860713 0 0 0.49466,0.33242 4.925743,57.008849 1.860713 0 0 6.75679,-57.16488 4.925743,57.008849 1.860713 0 0 -3.11467,-56.7913 4.925743,57.008849 1.860713 0 0 -0.5174,0.37795 l 0.0115,-0.35859 -26.06318,0.98633 -0.50592,0.0186 -0.0115,0.35864 a 4.925743,57.008849 1.860713 0 0 -6.23747,56.78718 z m 3.08493,57.66107 26.85181,-1.88479 z" />
    <path
       id="path76314-7"
       style="fill:url(#linearGradient76316-0);fill-opacity:1;stroke-width:0.838556"
       d="m -220.77025,72.872863 a 3.4883858,16.864999 0.89421315 0 0 -2.89963,-16.67922 l 0.001,-0.10401 -0.35781,0.009 -18.43462,0.46685 -0.001,0.10401 a 3.4883858,16.864999 0.89421315 0 0 -0.3564,-0.095 3.4883858,16.864999 0.89421315 0 0 -3.72471,16.95102 3.4883858,16.864999 0.89421315 0 0 3.25742,16.774218 3.4883858,16.864999 0.89421315 0 0 0.35933,-0.11532 l -0.001,0.10615 18.43462,-0.46681 0.35789,-0.009 0.001,-0.10614 a 3.4883858,16.864999 0.89421315 0 0 3.36399,-16.835848 z m -3.25248,-17.03165 -18.97631,0.73782 z" />
    <rect
       style="fill:url(#linearGradient48503-5);fill-opacity:1;stroke-width:1.57968;stroke-linecap:square;paint-order:markers stroke fill"
       id="rect19032-7"
       width="249.68639"
       height="200.19791"
       x="-231.65195"
       y="45.634323"
       ry="9.6480923" />
    <rect
       style="fill:#999999;stroke-width:1.46274;stroke-linecap:square;paint-order:markers stroke fill"
       id="rect26348-8"
       width="274.25656"
       height="17.487169"
       x="-254.89401"
       y="254.27431"
       ry="6.6330628" />
    <rect
       style="fill:#000000;stroke-width:0.802188;stroke-linecap:square;paint-order:markers stroke fill"
       id="rect31432-3"
       width="2.6562383"
       height="200.19791"
       x="-91.535355"
       y="45.634323"
       ry="0" />
    <rect
       style="fill:#000000;stroke-width:0.802188;stroke-linecap:square;paint-order:markers stroke fill"
       id="rect38076-8"
       width="2.6562383"
       height="200.19791"
       x="-203.76144"
       y="45.634323"
       ry="0" />
    <path
       id="rect43160-9"
       style="fill:url(#linearGradient44732-4);fill-opacity:1;stroke-width:0.823374;stroke-linecap:square;paint-order:markers stroke fill"
       d="m -87.297227,69.754523 c -1.244101,0 -2.246519,1.000903 -2.246519,2.245004 v 9.378689 c 0,1.244102 1.002418,2.245004 2.246519,2.245004 H 17.781384 c 1.244101,0 2.245003,-1.000902 2.245003,-2.245004 v -9.378689 c 0,-1.244101 -1.000902,-2.245004 -2.245003,-2.245004 z m 0,17.48708 c -1.244101,0 -2.246519,1.002418 -2.246519,2.246519 v 9.377174 c 0,1.244104 1.002418,2.245004 2.246519,2.245004 H 17.781384 c 1.244101,0 2.245003,-1.0009 2.245003,-2.245004 v -9.377174 c 0,-1.244101 -1.000902,-2.246519 -2.245003,-2.246519 z m 0,18.090397 c -1.244101,0 -2.246519,1.0009 -2.246519,2.245 v 9.37869 c 0,1.2441 1.002418,2.24501 2.246519,2.24501 H 17.781384 c 1.244101,0 2.245003,-1.00091 2.245003,-2.24501 V 107.577 c 0,-1.2441 -1.000902,-2.245 -2.245003,-2.245 z m 0,17.48708 c -1.244101,0 -2.246519,1.0009 -2.246519,2.245 v 9.37869 c 0,1.2441 1.002418,2.245 2.246519,2.245 H 17.781384 c 1.244101,0 2.245003,-1.0009 2.245003,-2.245 v -9.37869 c 0,-1.2441 -1.000902,-2.245 -2.245003,-2.245 z m 0,16.88376 c -1.244101,0 -2.246519,1.00242 -2.246519,2.24652 v 9.37717 c 0,1.2441 1.002418,2.24652 2.246519,2.24652 H 17.781384 c 1.244101,0 2.245003,-1.00242 2.245003,-2.24652 v -9.37717 c 0,-1.2441 -1.000902,-2.24652 -2.245003,-2.24652 z m 0,18.0904 c -1.244101,0 -2.246519,1.00241 -2.246519,2.24652 v 9.37717 c 0,1.2441 1.002418,2.245 2.246519,2.245 H 17.781384 c 1.244101,0 2.245003,-1.0009 2.245003,-2.245 v -9.37717 c 0,-1.24411 -1.000902,-2.24652 -2.245003,-2.24652 z m 0,19.29702 c -1.244101,0 -2.246519,1.00091 -2.246519,2.24501 v 9.37717 c 0,1.2441 1.002418,2.24652 2.246519,2.24652 H 17.781384 c 1.244101,0 2.245003,-1.00242 2.245003,-2.24652 v -9.37717 c 0,-1.2441 -1.000902,-2.24501 -2.245003,-2.24501 z m 0,17.48708 c -1.244101,0 -2.246519,1.00091 -2.246519,2.24501 v 9.37717 c 0,1.2441 1.002418,2.24652 2.246519,2.24652 H 17.781384 c 1.244101,0 2.245003,-1.00242 2.245003,-2.24652 v -9.37717 c 0,-1.2441 -1.000902,-2.24501 -2.245003,-2.24501 z m 0,17.48708 c -1.244101,0 -2.246519,1.00091 -2.246519,2.24501 v 9.37869 c 0,1.2441 1.002418,2.245 2.246519,2.245 H 17.781384 c 1.244101,0 2.245003,-1.0009 2.245003,-2.245 v -9.37869 c 0,-1.2441 -1.000902,-2.24501 -2.245003,-2.24501 z" />
    <path
       sodipodi:type="star"
       style="fill:url(#linearGradient7719);fill-opacity:1;stroke:#000000;stroke-width:1.33244;stroke-linecap:square;stroke-dasharray:none;stroke-opacity:1;paint-order:markers stroke fill"
       id="path91087-0"
       inkscape:flatsided="true"
       sodipodi:sides="6"
       sodipodi:cx="12.106423"
       sodipodi:cy="24.212847"
       sodipodi:r1="6.0659556"
       sodipodi:r2="4.0947733"
       sodipodi:arg1="1.0541012"
       sodipodi:arg2="1.5776999"
       inkscape:rounded="0"
       inkscape:randomized="0"
       d="m 15.103062,29.486932 -6.0658106,-0.04188 -2.9966391,-5.274085 3.069172,-5.232208 6.0658107,0.04188 2.996639,5.274085 z"
       transform="matrix(1.4090412,0,0,1.2279028,-29.902759,205.54864)" />
  </g>
</svg>
