<?xml version="1.0" encoding="UTF-8" standalone="no"?>
<!-- Created with Inkscape (http://www.inkscape.org/) -->

<svg
   width="300"
   height="187.07965"
   viewBox="0 0 300 187.07965"
   version="1.1"
   id="svg798"
   sodipodi:docname="pump.svg"
   inkscape:version="1.2.2 (732a01da63, 2022-12-09)"
   xmlns:inkscape="http://www.inkscape.org/namespaces/inkscape"
   xmlns:sodipodi="http://sodipodi.sourceforge.net/DTD/sodipodi-0.dtd"
   xmlns:xlink="http://www.w3.org/1999/xlink"
   xmlns="http://www.w3.org/2000/svg"
   xmlns:svg="http://www.w3.org/2000/svg">
  <sodipodi:namedview
     id="namedview800"
     pagecolor="#ffffff"
     bordercolor="#eeeeee"
     borderopacity="1"
     inkscape:showpageshadow="0"
     inkscape:pageopacity="0"
     inkscape:pagecheckerboard="0"
     inkscape:deskcolor="#505050"
     inkscape:document-units="px"
     showgrid="false"
     inkscape:zoom="2.0000001"
     inkscape:cx="137.5"
     inkscape:cy="90.749998"
     inkscape:window-width="1600"
     inkscape:window-height="838"
     inkscape:window-x="-6"
     inkscape:window-y="1073"
     inkscape:window-maximized="1"
     inkscape:current-layer="pump" />
  <defs
     id="defs795">
    <linearGradient
       inkscape:collect="always"
       id="linearGradient92545">
      <stop
         style="stop-color:#2f2f2f;stop-opacity:1;"
         offset="0"
         id="stop92541" />
      <stop
         style="stop-color:#474747;stop-opacity:1;"
         offset="0.24919614"
         id="stop92549" />
      <stop
         style="stop-color:#787878;stop-opacity:1;"
         offset="0.5"
         id="stop92551" />
      <stop
         style="stop-color:#4f4f4f;stop-opacity:1;"
         offset="0.75"
         id="stop92553" />
      <stop
         style="stop-color:#3d3d3d;stop-opacity:1;"
         offset="1"
         id="stop92543" />
    </linearGradient>
    <linearGradient
       inkscape:collect="always"
       id="linearGradient48501">
      <stop
         style="stop-color:#424242;stop-opacity:1;"
         offset="0"
         id="stop48497" />
      <stop
         style="stop-color:#828282;stop-opacity:1;"
         offset="0.2"
         id="stop48505" />
      <stop
         style="stop-color:#929292;stop-opacity:1;"
         offset="0.40000001"
         id="stop48507" />
      <stop
         style="stop-color:#a5a5a5;stop-opacity:1;"
         offset="0.60000002"
         id="stop48509" />
      <stop
         style="stop-color:#878787;stop-opacity:1;"
         offset="0.79602093"
         id="stop48511" />
      <stop
         style="stop-color:#2d2d2d;stop-opacity:1;"
         offset="1"
         id="stop48499" />
    </linearGradient>
    <linearGradient
       inkscape:collect="always"
       id="linearGradient44730">
      <stop
         style="stop-color:#4a4a4a;stop-opacity:1;"
         offset="0"
         id="stop44726" />
      <stop
         style="stop-color:#5b5b5b;stop-opacity:1;"
         offset="0.20096463"
         id="stop44821" />
      <stop
         style="stop-color:#8a8a8a;stop-opacity:1;"
         offset="0.40000001"
         id="stop44823" />
      <stop
         style="stop-color:#424242;stop-opacity:1;"
         offset="0.60000002"
         id="stop44825" />
      <stop
         style="stop-color:#6b6b6b;stop-opacity:1;"
         offset="0.80154741"
         id="stop44829" />
      <stop
         style="stop-color:#4a4a4a;stop-opacity:1;"
         offset="1"
         id="stop44728" />
    </linearGradient>
    <linearGradient
       inkscape:collect="always"
       xlink:href="#linearGradient44730"
       id="linearGradient44732"
       x1="58.1348"
       y1="65.446602"
       x2="77.912621"
       y2="65.566467"
       gradientUnits="userSpaceOnUse"
       gradientTransform="matrix(4.0048448,0,0,4.0048448,-2.0562051,-8.154189)" />
    <linearGradient
       inkscape:collect="always"
       xlink:href="#linearGradient48501"
       id="linearGradient48503"
       x1="32.603436"
       y1="49.264748"
       x2="77.553024"
       y2="49.025017"
       gradientUnits="userSpaceOnUse"
       gradientTransform="matrix(4.0048448,0,0,4.0048448,-2.0562051,-8.154189)" />
    <linearGradient
       inkscape:collect="always"
       xlink:href="#linearGradient44730"
       id="linearGradient55895"
       gradientUnits="userSpaceOnUse"
       x1="58.1348"
       y1="65.446602"
       x2="77.912621"
       y2="65.566467"
       gradientTransform="matrix(4.0048448,0,0,4.0048448,-207.51461,-18.715136)" />
    <linearGradient
       inkscape:collect="always"
       xlink:href="#linearGradient31314"
       id="linearGradient31318"
       x1="134.83498"
       y1="185.42915"
       x2="171.70763"
       y2="185.42915"
       gradientUnits="userSpaceOnUse"
       gradientTransform="matrix(0.07194928,-2.4791064,0.87120414,-0.03630741,-149.68816,593.85264)" />
    <linearGradient
       inkscape:collect="always"
       id="linearGradient31314">
      <stop
         style="stop-color:#b3b3b3;stop-opacity:1;"
         offset="0.07717042"
         id="stop31302" />
      <stop
         style="stop-color:#d2d2d2;stop-opacity:1;"
         offset="0.24919616"
         id="stop31304" />
      <stop
         style="stop-color:#9c9c9c;stop-opacity:1;"
         offset="0.40956593"
         id="stop31306" />
      <stop
         style="stop-color:#afafaf;stop-opacity:1;"
         offset="0.61816716"
         id="stop31308" />
      <stop
         style="stop-color:#d0d0d0;stop-opacity:1;"
         offset="0.77893889"
         id="stop31310" />
      <stop
         style="stop-color:#989898;stop-opacity:1;"
         offset="0.95498395"
         id="stop31312" />
    </linearGradient>
    <linearGradient
       inkscape:collect="always"
       xlink:href="#linearGradient31314"
       id="linearGradient76316"
       gradientUnits="userSpaceOnUse"
       gradientTransform="matrix(-0.00923137,0.73368954,-0.61620669,0.01718327,241.78493,22.858667)"
       x1="134.83498"
       y1="185.42915"
       x2="171.70763"
       y2="185.42915" />
    <linearGradient
       inkscape:collect="always"
       xlink:href="#linearGradient92545"
       id="linearGradient92547"
       x1="6.3565364"
       y1="24.031433"
       x2="18.098412"
       y2="24.152374"
       gradientUnits="userSpaceOnUse" />
    <linearGradient
       inkscape:collect="always"
       xlink:href="#linearGradient31314"
       id="linearGradient5686"
       gradientUnits="userSpaceOnUse"
       gradientTransform="matrix(-0.73373785,-0.00378439,-0.02175736,-0.61606215,286.23713,233.72425)"
       x1="134.83498"
       y1="185.42915"
       x2="171.70763"
       y2="185.42915" />
  </defs>
  <g
     inkscape:label="pump"
     inkscape:groupmode="layer"
     id="pump"
     transform="translate(-9.491714,-109.59346)">
    <path
       id="path76314-5"
       style="fill:url(#linearGradient5686);fill-opacity:1;stroke-width:0.636133"
       d="m 169.96821,128.22125 a 13.425665,2.5217781 0.38034041 0 0 13.26213,-2.19464 l 0.0828,3.8e-4 -0.009,-0.2586 -0.47057,-13.3231 -0.0828,-3.8e-4 a 13.425665,2.5217781 0.38034041 0 0 0.0737,-0.25819 13.425665,2.5217781 0.38034041 0 0 -13.51405,-2.59231 13.425665,2.5217781 0.38034041 0 0 -13.33582,2.45383 13.425665,2.5217781 0.38034041 0 0 0.0937,0.25907 l -0.0845,-3.7e-4 0.47054,13.3231 0.009,0.25866 0.0845,3.6e-4 a 13.425665,2.5217781 0.38034041 0 0 13.42042,2.33224 z m 13.54079,-2.45178 -0.68918,-13.71308 z" />
    <rect
       style="fill:#808080;stroke-width:2.60285;stroke-linecap:square;paint-order:markers stroke fill"
       id="rect50079"
       width="83.04744"
       height="28.802582"
       x="148.19725"
       y="261.14993"
       ry="1.7877432" />
    <rect
       style="fill:#666666;stroke-width:1.50202;stroke-linecap:square;paint-order:markers stroke fill"
       id="rect19760"
       width="139.21246"
       height="77.76696"
       x="11.385001"
       y="170.4218"
       ry="11.964148"
       rx="0" />
    <path
       id="rect55893"
       style="fill:url(#linearGradient55895);fill-opacity:1;stroke:#000000;stroke-width:0.624616;stroke-linecap:square;stroke-opacity:1;paint-order:markers stroke fill"
       d="M 26.614761 166.58174 C 25.624352 166.58174 24.825698 167.37844 24.825698 168.36885 L 24.825698 175.83565 C 24.825698 176.82606 25.624352 177.62276 26.614761 177.62276 L 102.24562 177.62276 C 103.23603 177.62276 104.03273 176.82606 104.03273 175.83565 L 104.03273 168.36885 C 104.03273 167.37844 103.23603 166.58174 102.24562 166.58174 L 26.614761 166.58174 z M 26.614761 178.58174 C 25.624352 178.58174 24.825698 179.3804 24.825698 180.3708 L 24.825698 187.83565 C 24.825698 188.82606 25.624352 189.62276 26.614761 189.62276 L 102.24562 189.62276 C 103.23603 189.62276 104.03273 188.82606 104.03273 187.83565 L 104.03273 180.3708 C 104.03273 179.3804 103.23603 178.58174 102.24562 178.58174 L 26.614761 178.58174 z M 26.614761 190.58369 C 25.624352 190.58369 24.825698 191.3804 24.825698 192.3708 L 24.825698 199.8376 C 24.825698 200.82801 25.624352 201.62471 26.614761 201.62471 L 102.24562 201.62471 C 103.23603 201.62471 104.03273 200.82801 104.03273 199.8376 L 104.03273 192.3708 C 104.03273 191.3804 103.23603 190.58369 102.24562 190.58369 L 26.614761 190.58369 z M 26.614761 202.58565 C 25.624352 202.58565 24.825698 203.38235 24.825698 204.37276 L 24.825698 211.8376 C 24.825698 212.82801 25.624352 213.62471 26.614761 213.62471 L 102.24562 213.62471 C 103.23603 213.62471 104.03273 212.82801 104.03273 211.8376 L 104.03273 204.37276 C 104.03273 203.38235 103.23603 202.58565 102.24562 202.58565 L 26.614761 202.58565 z M 26.614761 214.58565 C 25.624352 214.58565 24.825698 215.38235 24.825698 216.37276 L 24.825698 223.83955 C 24.825698 224.82996 25.624352 225.62666 26.614761 225.62666 L 102.24562 225.62666 C 103.23603 225.62666 104.03273 224.82996 104.03273 223.83955 L 104.03273 216.37276 C 104.03273 215.38235 103.23603 214.58565 102.24562 214.58565 L 26.614761 214.58565 z M 26.614761 226.5876 C 25.624352 226.5876 24.825698 227.3843 24.825698 228.37471 L 24.825698 235.83955 C 24.825698 236.82996 25.624352 237.62862 26.614761 237.62862 L 102.24562 237.62862 C 103.23603 237.62862 104.03273 236.82996 104.03273 235.83955 L 104.03273 228.37471 C 104.03273 227.3843 103.23603 226.5876 102.24562 226.5876 L 26.614761 226.5876 z M 26.614761 238.5876 C 25.624352 238.5876 24.825698 239.3843 24.825698 240.37471 L 24.825698 247.84151 C 24.825698 248.83192 25.624352 249.62862 26.614761 249.62862 L 102.24562 249.62862 C 103.23603 249.62862 104.03273 248.83192 104.03273 247.84151 L 104.03273 240.37471 C 104.03273 239.3843 103.23603 238.5876 102.24562 238.5876 L 26.614761 238.5876 z " />
    <rect
       style="fill:#808080;stroke-width:1.17298;stroke-linecap:square;paint-order:markers stroke fill"
       id="rect32992"
       width="41.763741"
       height="108.48972"
       x="97.312698"
       y="156.98061"
       ry="10.484302" />
    <path
       id="path31294"
       style="fill:url(#linearGradient31318);fill-opacity:1;stroke-width:1.3898"
       d="m 9.7257004,207.34717 a 3.561107,45.379618 1.6875172 0 0 1.8925616,44.94589 l -0.0081,0.27969 0.365723,-0.0148 18.840854,-0.78518 0.0082,-0.27971 a 3.561107,45.379618 1.6875172 0 0 0.357588,0.26464 3.561107,45.379618 1.6875172 0 0 4.884427,-45.50803 3.561107,45.379618 1.6875172 0 0 -2.251568,-45.21061 3.561107,45.379618 1.6875172 0 0 -0.374024,0.30088 l 0.0083,-0.28547 -18.840858,0.7852 -0.365723,0.0148 -0.0083,0.28551 a 3.561107,45.379618 1.6875172 0 0 -4.5090108,45.20733 z m 2.2300716,45.90303 19.410948,-1.50045 z" />
    <path
       id="path76314"
       style="fill:url(#linearGradient76316);fill-opacity:1;stroke-width:0.636133"
       d="m 135.42168,138.34115 a 2.5217781,13.425665 0.80569386 0 0 -2.09612,-13.27805 l 9.9e-4,-0.0828 -0.25866,0.007 -13.32623,0.37165 -9.9e-4,0.0828 a 2.5217781,13.425665 0.80569386 0 0 -0.25764,-0.0756 2.5217781,13.425665 0.80569386 0 0 -2.69256,13.49443 2.5217781,13.425665 0.80569386 0 0 2.35476,13.35368 2.5217781,13.425665 0.80569386 0 0 0.25976,-0.0918 l -0.001,0.0845 13.32623,-0.37162 0.25872,-0.007 9.9e-4,-0.0845 a 2.5217781,13.425665 0.80569386 0 0 2.4318,-13.40274 z m -2.35119,-13.55861 -13.71782,0.58736 z" />
    <rect
       style="fill:url(#linearGradient48503);fill-opacity:1;stroke-width:1.19836;stroke-linecap:square;paint-order:markers stroke fill"
       id="rect19032"
       width="180.49619"
       height="159.37427"
       x="127.55542"
       y="116.657"
       ry="7.6806879" />
    <rect
       style="fill:#999999;stroke-width:1.10964;stroke-linecap:square;paint-order:markers stroke fill"
       id="rect26348"
       width="198.25775"
       height="13.921248"
       x="110.7539"
       y="282.75186"
       ry="5.2804728" />
    <rect
       style="fill:#000000;stroke-width:0.608544;stroke-linecap:square;paint-order:markers stroke fill"
       id="rect31432"
       width="1.9201723"
       height="159.37427"
       x="228.84448"
       y="116.657"
       ry="0" />
    <rect
       style="fill:#000000;stroke-width:0.608544;stroke-linecap:square;paint-order:markers stroke fill"
       id="rect38076"
       width="1.9201723"
       height="159.37427"
       x="147.71721"
       y="116.657"
       ry="0" />
    <path
       id="rect43160"
       style="fill:url(#linearGradient44732);fill-opacity:1;stroke-width:0.624616;stroke-linecap:square;paint-order:markers stroke fill"
       d="M 232.07179 135.85908 C 231.08138 135.85908 230.28468 136.65579 230.28468 137.64619 L 230.28468 145.11104 C 230.28468 146.10145 231.08138 146.9001 232.07179 146.9001 L 307.7046 146.9001 C 308.69501 146.9001 309.49171 146.10145 309.49171 145.11104 L 309.49171 137.64619 C 309.49171 136.65579 308.69501 135.85908 307.7046 135.85908 L 232.07179 135.85908 z M 232.07179 149.78096 C 231.08138 149.78096 230.28468 150.57766 230.28468 151.56807 L 230.28468 159.03291 C 230.28468 160.02332 231.08138 160.82002 232.07179 160.82002 L 307.7046 160.82002 C 308.69501 160.82002 309.49171 160.02332 309.49171 159.03291 L 309.49171 151.56807 C 309.49171 150.57766 308.69501 149.78096 307.7046 149.78096 L 232.07179 149.78096 z M 232.07179 164.18135 C 231.08138 164.18135 230.28468 164.97805 230.28468 165.96846 L 230.28468 173.43526 C 230.28468 174.42567 231.08138 175.22237 232.07179 175.22237 L 307.7046 175.22237 C 308.69501 175.22237 309.49171 174.42567 309.49171 173.43526 L 309.49171 165.96846 C 309.49171 164.97805 308.69501 164.18135 307.7046 164.18135 L 232.07179 164.18135 z M 232.07179 178.10323 C 231.08138 178.10323 230.28468 178.89993 230.28468 179.89033 L 230.28468 187.35518 C 230.28468 188.34559 231.08138 189.14424 232.07179 189.14424 L 307.7046 189.14424 C 308.69501 189.14424 309.49171 188.34559 309.49171 187.35518 L 309.49171 179.89033 C 309.49171 178.89993 308.69501 178.10323 307.7046 178.10323 L 232.07179 178.10323 z M 232.07179 191.54463 C 231.08138 191.54463 230.28468 192.34133 230.28468 193.33174 L 230.28468 200.79658 C 230.28468 201.78699 231.08138 202.58565 232.07179 202.58565 L 307.7046 202.58565 C 308.69501 202.58565 309.49171 201.78699 309.49171 200.79658 L 309.49171 193.33174 C 309.49171 192.34133 308.69501 191.54463 307.7046 191.54463 L 232.07179 191.54463 z M 232.07179 205.94502 C 231.08138 205.94502 230.28468 206.74172 230.28468 207.73213 L 230.28468 215.19893 C 230.28468 216.18934 231.08138 216.98604 232.07179 216.98604 L 307.7046 216.98604 C 308.69501 216.98604 309.49171 216.18934 309.49171 215.19893 L 309.49171 207.73213 C 309.49171 206.74172 308.69501 205.94502 307.7046 205.94502 L 232.07179 205.94502 z M 232.07179 221.30635 C 231.08138 221.30635 230.28468 222.10305 230.28468 223.09346 L 230.28468 230.56026 C 230.28468 231.55067 231.08138 232.34737 232.07179 232.34737 L 307.7046 232.34737 C 308.69501 232.34737 309.49171 231.55067 309.49171 230.56026 L 309.49171 223.09346 C 309.49171 222.10305 308.69501 221.30635 307.7046 221.30635 L 232.07179 221.30635 z M 232.07179 235.22823 C 231.08138 235.22823 230.28468 236.02493 230.28468 237.01533 L 230.28468 244.48018 C 230.28468 245.47059 231.08138 246.26924 232.07179 246.26924 L 307.7046 246.26924 C 308.69501 246.26924 309.49171 245.47059 309.49171 244.48018 L 309.49171 237.01533 C 309.49171 236.02493 308.69501 235.22823 307.7046 235.22823 L 232.07179 235.22823 z M 232.07179 249.14815 C 231.08138 249.14815 230.28468 249.9468 230.28468 250.93721 L 230.28468 258.40205 C 230.28468 259.39246 231.08138 260.18916 232.07179 260.18916 L 307.7046 260.18916 C 308.69501 260.18916 309.49171 259.39246 309.49171 258.40205 L 309.49171 250.93721 C 309.49171 249.9468 308.69501 249.14815 307.7046 249.14815 L 232.07179 249.14815 z " />
    <path
       sodipodi:type="star"
       style="fill:url(#linearGradient92547);fill-opacity:1;stroke:#000000;stroke-width:1.33244;stroke-linecap:square;stroke-dasharray:none;stroke-opacity:1;paint-order:markers stroke fill"
       id="path91087"
       inkscape:flatsided="true"
       sodipodi:sides="6"
       sodipodi:cx="12.106423"
       sodipodi:cy="24.212847"
       sodipodi:r1="6.0659556"
       sodipodi:r2="4.0947733"
       sodipodi:arg1="1.0541012"
       sodipodi:arg2="1.5776999"
       inkscape:rounded="0"
       inkscape:randomized="0"
       d="m 15.103062,29.486932 -6.0658106,-0.04188 -2.9966391,-5.274085 3.069172,-5.232208 6.0658107,0.04188 2.996639,5.274085 z"
       transform="matrix(1.018584,0,0,0.97751332,273.39818,243.96216)" />
  </g>
</svg>
