<?xml version="1.0" encoding="UTF-8" standalone="no"?>
<!-- Created with Inkscape (http://www.inkscape.org/) -->

<svg
   width="300"
   height="167.9458"
   viewBox="0 0 300 167.9458"
   version="1.1"
   id="svg798"
   sodipodi:docname="pump.svg"
   inkscape:version="1.2.2 (732a01da63, 2022-12-09)"
   xmlns:inkscape="http://www.inkscape.org/namespaces/inkscape"
   xmlns:sodipodi="http://sodipodi.sourceforge.net/DTD/sodipodi-0.dtd"
   xmlns:xlink="http://www.w3.org/1999/xlink"
   xmlns="http://www.w3.org/2000/svg"
   xmlns:svg="http://www.w3.org/2000/svg">
  <sodipodi:namedview
     id="namedview800"
     pagecolor="#ffffff"
     bordercolor="#eeeeee"
     borderopacity="1"
     inkscape:showpageshadow="0"
     inkscape:pageopacity="0"
     inkscape:pagecheckerboard="0"
     inkscape:deskcolor="#505050"
     inkscape:document-units="px"
     showgrid="false"
     inkscape:zoom="1.4142136"
     inkscape:cx="223.44573"
     inkscape:cy="195.86857"
     inkscape:window-width="2560"
     inkscape:window-height="1369"
     inkscape:window-x="-8"
     inkscape:window-y="-8"
     inkscape:window-maximized="1"
     inkscape:current-layer="pump-9" />
  <defs
     id="defs795">
    <linearGradient
       inkscape:collect="always"
       id="linearGradient31314">
      <stop
         style="stop-color:#b3b3b3;stop-opacity:1;"
         offset="0.07717042"
         id="stop31302" />
      <stop
         style="stop-color:#d2d2d2;stop-opacity:1;"
         offset="0.24919616"
         id="stop31304" />
      <stop
         style="stop-color:#9c9c9c;stop-opacity:1;"
         offset="0.40956593"
         id="stop31306" />
      <stop
         style="stop-color:#afafaf;stop-opacity:1;"
         offset="0.61816716"
         id="stop31308" />
      <stop
         style="stop-color:#d0d0d0;stop-opacity:1;"
         offset="0.77893889"
         id="stop31310" />
      <stop
         style="stop-color:#989898;stop-opacity:1;"
         offset="0.95498395"
         id="stop31312" />
    </linearGradient>
    <linearGradient
       inkscape:collect="always"
       id="linearGradient44730">
      <stop
         style="stop-color:#4a4a4a;stop-opacity:1;"
         offset="0"
         id="stop44726" />
      <stop
         style="stop-color:#5b5b5b;stop-opacity:1;"
         offset="0.20096463"
         id="stop44821" />
      <stop
         style="stop-color:#8a8a8a;stop-opacity:1;"
         offset="0.40000001"
         id="stop44823" />
      <stop
         style="stop-color:#424242;stop-opacity:1;"
         offset="0.60000002"
         id="stop44825" />
      <stop
         style="stop-color:#6b6b6b;stop-opacity:1;"
         offset="0.80154741"
         id="stop44829" />
      <stop
         style="stop-color:#4a4a4a;stop-opacity:1;"
         offset="1"
         id="stop44728" />
    </linearGradient>
    <linearGradient
       inkscape:collect="always"
       id="linearGradient48501">
      <stop
         style="stop-color:#424242;stop-opacity:1;"
         offset="0"
         id="stop48497" />
      <stop
         style="stop-color:#828282;stop-opacity:1;"
         offset="0.2"
         id="stop48505" />
      <stop
         style="stop-color:#929292;stop-opacity:1;"
         offset="0.40000001"
         id="stop48507" />
      <stop
         style="stop-color:#a5a5a5;stop-opacity:1;"
         offset="0.60000002"
         id="stop48509" />
      <stop
         style="stop-color:#878787;stop-opacity:1;"
         offset="0.79602093"
         id="stop48511" />
      <stop
         style="stop-color:#2d2d2d;stop-opacity:1;"
         offset="1"
         id="stop48499" />
    </linearGradient>
    <linearGradient
       inkscape:collect="always"
       id="linearGradient92545">
      <stop
         style="stop-color:#2f2f2f;stop-opacity:1;"
         offset="0"
         id="stop92541" />
      <stop
         style="stop-color:#474747;stop-opacity:1;"
         offset="0.24919614"
         id="stop92549" />
      <stop
         style="stop-color:#787878;stop-opacity:1;"
         offset="0.5"
         id="stop92551" />
      <stop
         style="stop-color:#4f4f4f;stop-opacity:1;"
         offset="0.75"
         id="stop92553" />
      <stop
         style="stop-color:#3d3d3d;stop-opacity:1;"
         offset="1"
         id="stop92543" />
    </linearGradient>
    <linearGradient
       inkscape:collect="always"
       xlink:href="#linearGradient44730"
       id="linearGradient55895-5-1"
       gradientUnits="userSpaceOnUse"
       x1="58.1348"
       y1="65.446602"
       x2="77.912621"
       y2="65.566467"
       gradientTransform="matrix(5.5400352,0,0,5.0306838,-1082.064,-273.6879)" />
    <linearGradient
       inkscape:collect="always"
       xlink:href="#linearGradient31314"
       id="linearGradient31318-5-7"
       x1="134.83498"
       y1="185.42915"
       x2="171.70763"
       y2="185.42915"
       gradientUnits="userSpaceOnUse"
       gradientTransform="matrix(0.09952983,-3.1141283,1.2051657,-0.04560753,-1002.0707,495.78881)" />
    <linearGradient
       inkscape:collect="always"
       xlink:href="#linearGradient31314"
       id="linearGradient76316-0-8"
       gradientUnits="userSpaceOnUse"
       gradientTransform="matrix(-0.01277006,0.92162375,-0.85241923,0.02158476,-460.53292,-221.465)"
       x1="134.83498"
       y1="185.42915"
       x2="171.70763"
       y2="185.42915" />
    <linearGradient
       inkscape:collect="always"
       xlink:href="#linearGradient12626"
       id="linearGradient12628"
       x1="-577.09863"
       y1="-105.95736"
       x2="-546.05359"
       y2="-105.95736"
       gradientUnits="userSpaceOnUse" />
    <linearGradient
       inkscape:collect="always"
       id="linearGradient12626">
      <stop
         style="stop-color:#989898;stop-opacity:1;"
         offset="0.05000001"
         id="stop12624" />
      <stop
         style="stop-color:#d0d0d0;stop-opacity:1;"
         offset="0.22000003"
         id="stop12636" />
      <stop
         style="stop-color:#afafaf;stop-opacity:1;"
         offset="0.38"
         id="stop12634" />
      <stop
         style="stop-color:#9c9c9c;stop-opacity:1;"
         offset="0.59"
         id="stop12632" />
      <stop
         style="stop-color:#d2d2d2;stop-opacity:1;"
         offset="0.75"
         id="stop12630" />
      <stop
         style="stop-color:#b3b3b3;stop-opacity:1;"
         offset="0.92"
         id="stop12622" />
    </linearGradient>
    <linearGradient
       inkscape:collect="always"
       xlink:href="#linearGradient48501"
       id="linearGradient48503-5-4"
       x1="32.603436"
       y1="49.264748"
       x2="77.553024"
       y2="49.025017"
       gradientUnits="userSpaceOnUse"
       gradientTransform="matrix(5.5400352,0,0,5.0306838,-797.84647,-260.42177)" />
    <linearGradient
       inkscape:collect="always"
       xlink:href="#linearGradient44730"
       id="linearGradient44732-4-3"
       x1="58.1348"
       y1="65.446602"
       x2="77.912621"
       y2="65.566467"
       gradientUnits="userSpaceOnUse"
       gradientTransform="matrix(5.5400352,0,0,5.0306838,-797.84647,-260.42177)" />
    <linearGradient
       inkscape:collect="always"
       xlink:href="#linearGradient92545"
       id="linearGradient75726"
       gradientUnits="userSpaceOnUse"
       x1="6.3565364"
       y1="24.031433"
       x2="18.098412"
       y2="24.152374" />
  </defs>
  <g
     inkscape:label="pump"
     inkscape:groupmode="layer"
     id="pump-9"
     transform="matrix(0.72289202,0,0,0.72289202,565.20892,79.401006)">
    <rect
       style="fill:#808080;stroke-width:3.4311;stroke-linecap:square;paint-order:markers stroke fill"
       id="rect50079-5-3"
       width="114.88229"
       height="36.180347"
       x="-589.99585"
       y="77.864449"
       ry="2.2456727" />
    <rect
       style="fill:#666666;stroke-width:1.97997;stroke-linecap:square;paint-order:markers stroke fill"
       id="rect19760-8-5"
       width="192.57724"
       height="97.686928"
       x="-779.25281"
       y="-36.103657"
       ry="15.028758"
       rx="0" />
    <path
       id="rect55893-8-6"
       style="fill:url(#linearGradient55895-5-1);fill-opacity:1;stroke:#000000;stroke-width:0.823374;stroke-linecap:square;stroke-opacity:1;paint-order:markers stroke fill"
       d="m -758.41381,-40.927533 c -1.2441,0 -2.245,1.00091 -2.245,2.24501 v 9.37869 c 0,1.2441 1.0009,2.245 2.245,2.245 h 105.07861 c 1.2441,0 2.24652,-1.0009 2.24652,-2.245 v -9.37869 c 0,-1.2441 -1.00242,-2.24501 -2.24652,-2.24501 z m 0,15.07533 c -1.2441,0 -2.245,1.00091 -2.245,2.24501 v 9.37869 c 0,1.2441 1.0009,2.245 2.245,2.245 h 105.07861 c 1.2441,0 2.24652,-1.0009 2.24652,-2.245 v -9.37869 c 0,-1.2441 -1.00242,-2.24501 -2.24652,-2.24501 z m 0,15.07533 c -1.2441,0 -2.245,1.0009099 -2.245,2.2450099 v 9.37869001 c 0,1.24409999 1.0009,2.24499999 2.245,2.24499999 h 105.07861 c 1.2441,0 2.24652,-1.0009 2.24652,-2.24499999 V -8.5318631 c 0,-1.2441 -1.00242,-2.2450099 -2.24652,-2.2450099 z m 0,15.0753299 c -1.2441,0 -2.245,1.00091 -2.245,2.24501 v 9.3771701 c 0,1.2441 1.0009,2.24652 2.245,2.24652 h 105.07861 c 1.2441,0 2.24652,-1.00242 2.24652,-2.24652 V 6.5434669 c 0,-1.2441 -1.00242,-2.24501 -2.24652,-2.24501 z m 0,15.0738201 c -1.2441,0 -2.245,1.00242 -2.245,2.24652 v 9.37717 c 0,1.2441 1.0009,2.24652 2.245,2.24652 h 105.07861 c 1.2441,0 2.24652,-1.00242 2.24652,-2.24652 v -9.37717 c 0,-1.2441 -1.00242,-2.24652 -2.24652,-2.24652 z m 0,15.07533 c -1.2441,0 -2.245,1.00241 -2.245,2.24652 v 9.37717 c 0,1.2441 1.0009,2.24652 2.245,2.24652 h 105.07861 c 1.2441,0 2.24652,-1.00242 2.24652,-2.24652 v -9.37717 c 0,-1.24411 -1.00242,-2.24652 -2.24652,-2.24652 z m 0,15.07533 c -1.2441,0 -2.245,1.00241 -2.245,2.24652 v 9.37717 c 0,1.2441 1.0009,2.245 2.245,2.245 h 105.07861 c 1.2441,0 2.24652,-1.0009 2.24652,-2.245 v -9.37717 c 0,-1.24411 -1.00242,-2.24652 -2.24652,-2.24652 z" />
    <rect
       style="fill:#808080;stroke-width:1.54623;stroke-linecap:square;paint-order:markers stroke fill"
       id="rect32992-8-0"
       width="57.773174"
       height="136.27931"
       x="-660.38617"
       y="-52.987797"
       ry="13.169849" />
    <path
       id="path31294-3-9"
       style="fill:url(#linearGradient31318-5-7);fill-opacity:1;stroke-width:1.83205"
       d="m -781.54817,10.280147 a 4.925743,57.008849 1.860713 0 0 2.61804,56.45876 l -0.0112,0.35133 0.50592,-0.0186 26.06318,-0.98631 0.0113,-0.35135 a 4.925743,57.008849 1.860713 0 0 0.49466,0.33242 4.925743,57.008849 1.860713 0 0 6.75679,-57.1648801 4.925743,57.008849 1.860713 0 0 -3.11467,-56.7912999 4.925743,57.008849 1.860713 0 0 -0.5174,0.37795 l 0.0115,-0.35859 -26.06318,0.98633 -0.50592,0.0186 -0.0115,0.35864 a 4.925743,57.008849 1.860713 0 0 -6.23747,56.78718 z m 3.08493,57.66107 26.85181,-1.88479 z" />
    <path
       id="path76314-7-9"
       style="fill:url(#linearGradient76316-0-8);fill-opacity:1;stroke-width:0.838556"
       d="m -607.66874,-76.40173 a 3.4883858,16.864999 0.89421315 0 0 -2.89963,-16.67922 l 10e-4,-0.10401 -0.35781,0.009 -18.43462,0.46685 -0.001,0.10401 a 3.4883858,16.864999 0.89421315 0 0 -0.3564,-0.095 3.4883858,16.864999 0.89421315 0 0 -3.72471,16.95102 3.4883858,16.864999 0.89421315 0 0 3.25742,16.774218 3.4883858,16.864999 0.89421315 0 0 0.35933,-0.11532 l -10e-4,0.10615 18.43462,-0.46681 0.35789,-0.009 10e-4,-0.10614 a 3.4883858,16.864999 0.89421315 0 0 3.36399,-16.835848 z m -3.25248,-17.03165 -18.97631,0.73782 z" />
    <rect
       style="fill:url(#linearGradient12628);fill-opacity:1;stroke:none;stroke-width:0.657027;stroke-linecap:square;stroke-dasharray:none;paint-order:markers stroke fill"
       id="rect12620"
       width="31.045023"
       height="7.7612557"
       x="-577.09863"
       y="-109.83799" />
    <rect
       style="fill:url(#linearGradient48503-5-4);fill-opacity:1;stroke-width:1.57968;stroke-linecap:square;paint-order:markers stroke fill"
       id="rect19032-7-4"
       width="249.68639"
       height="200.19791"
       x="-618.55042"
       y="-103.64027"
       ry="9.6480923" />
    <rect
       style="fill:#999999;stroke-width:1.46274;stroke-linecap:square;paint-order:markers stroke fill"
       id="rect26348-8-3"
       width="274.25656"
       height="17.487169"
       x="-641.79248"
       y="104.99972"
       ry="6.6330628" />
    <rect
       style="fill:#000000;stroke-width:0.802188;stroke-linecap:square;paint-order:markers stroke fill"
       id="rect31432-3-6"
       width="2.6562383"
       height="200.19791"
       x="-478.43384"
       y="-103.64027"
       ry="0" />
    <rect
       style="fill:#000000;stroke-width:0.802188;stroke-linecap:square;paint-order:markers stroke fill"
       id="rect38076-8-7"
       width="2.6562383"
       height="200.19791"
       x="-590.65991"
       y="-103.64027"
       ry="0" />
    <path
       id="rect43160-9-2"
       style="fill:url(#linearGradient44732-4-3);fill-opacity:1;stroke-width:0.823374;stroke-linecap:square;paint-order:markers stroke fill"
       d="m -474.19572,-79.52007 c -1.2441,0 -2.24652,1.000903 -2.24652,2.245004 v 9.378689 c 0,1.244102 1.00242,2.245004 2.24652,2.245004 h 105.07861 c 1.2441,0 2.245,-1.000902 2.245,-2.245004 v -9.378689 c 0,-1.244101 -1.0009,-2.245004 -2.245,-2.245004 z m 0,17.48708 c -1.2441,0 -2.24652,1.002418 -2.24652,2.246519 v 9.377174 c 0,1.244104 1.00242,2.245004 2.24652,2.245004 h 105.07861 c 1.2441,0 2.245,-1.0009 2.245,-2.245004 v -9.377174 c 0,-1.244101 -1.0009,-2.246519 -2.245,-2.246519 z m 0,18.090397 c -1.2441,0 -2.24652,1.0009 -2.24652,2.245 v 9.37869 c 0,1.2441 1.00242,2.24501 2.24652,2.24501 h 105.07861 c 1.2441,0 2.245,-1.00091 2.245,-2.24501 v -9.37869 c 0,-1.2441 -1.0009,-2.245 -2.245,-2.245 z m 0,17.48708 c -1.2441,0 -2.24652,1.0009 -2.24652,2.245 v 9.37869 c 0,1.2441 1.00242,2.245 2.24652,2.245 h 105.07861 c 1.2441,0 2.245,-1.0009 2.245,-2.245 v -9.37869 c 0,-1.2441 -1.0009,-2.245 -2.245,-2.245 z m 0,16.8837599 c -1.2441,0 -2.24652,1.00242 -2.24652,2.24652 v 9.37717 c 0,1.2441 1.00242,2.24652 2.24652,2.24652 h 105.07861 c 1.2441,0 2.245,-1.00242 2.245,-2.24652 v -9.37717 c 0,-1.2441 -1.0009,-2.24652 -2.245,-2.24652 z m 0,18.0904 c -1.2441,0 -2.24652,1.00241 -2.24652,2.2465201 v 9.37717 c 0,1.2441 1.00242,2.245 2.24652,2.245 h 105.07861 c 1.2441,0 2.245,-1.0009 2.245,-2.245 v -9.37717 c 0,-1.2441101 -1.0009,-2.2465201 -2.245,-2.2465201 z m 0,19.2970201 c -1.2441,0 -2.24652,1.00091 -2.24652,2.24501 v 9.37717 c 0,1.2441 1.00242,2.24652 2.24652,2.24652 h 105.07861 c 1.2441,0 2.245,-1.00242 2.245,-2.24652 v -9.37717 c 0,-1.2441 -1.0009,-2.24501 -2.245,-2.24501 z m 0,17.48708 c -1.2441,0 -2.24652,1.00091 -2.24652,2.24501 v 9.37717 c 0,1.2441 1.00242,2.24652 2.24652,2.24652 h 105.07861 c 1.2441,0 2.245,-1.00242 2.245,-2.24652 v -9.37717 c 0,-1.2441 -1.0009,-2.24501 -2.245,-2.24501 z m 0,17.48708 c -1.2441,0 -2.24652,1.00091 -2.24652,2.24501 v 9.37869 c 0,1.2441 1.00242,2.245 2.24652,2.245 h 105.07861 c 1.2441,0 2.245,-1.0009 2.245,-2.245 v -9.37869 c 0,-1.2441 -1.0009,-2.24501 -2.245,-2.24501 z" />
    <path
       sodipodi:type="star"
       style="fill:url(#linearGradient75726);fill-opacity:1;stroke:#000000;stroke-width:1.33244;stroke-linecap:square;stroke-dasharray:none;stroke-opacity:1;paint-order:markers stroke fill"
       id="path91087-0-6"
       inkscape:flatsided="true"
       sodipodi:sides="6"
       sodipodi:cx="12.106423"
       sodipodi:cy="24.212847"
       sodipodi:r1="6.0659556"
       sodipodi:r2="4.0947733"
       sodipodi:arg1="1.0541012"
       sodipodi:arg2="1.5776999"
       inkscape:rounded="0"
       inkscape:randomized="0"
       d="m 15.103062,29.486932 -6.0658106,-0.04188 -2.9966391,-5.274085 3.069172,-5.232208 6.0658107,0.04188 2.996639,5.274085 z"
       transform="matrix(1.4090412,0,0,1.2279028,-416.80125,56.274047)" />
  </g>
</svg>
