<?xml version="1.0" encoding="UTF-8" standalone="no"?>
<!-- Created with Inkscape (http://www.inkscape.org/) -->

<svg
   width="500"
   height="500"
   viewBox="0 0 132.29167 132.29167"
   version="1.1"
   id="svg15208"
   inkscape:version="1.2 (dc2aeda, 2022-05-15)"
   sodipodi:docname="tungsten.svg"
   xmlns:inkscape="http://www.inkscape.org/namespaces/inkscape"
   xmlns:sodipodi="http://sodipodi.sourceforge.net/DTD/sodipodi-0.dtd"
   xmlns:xlink="http://www.w3.org/1999/xlink"
   xmlns="http://www.w3.org/2000/svg"
   xmlns:svg="http://www.w3.org/2000/svg">
  <sodipodi:namedview
     id="namedview15210"
     pagecolor="#505050"
     bordercolor="#eeeeee"
     borderopacity="1"
     inkscape:showpageshadow="0"
     inkscape:pageopacity="0"
     inkscape:pagecheckerboard="0"
     inkscape:deskcolor="#505050"
     inkscape:document-units="px"
     showgrid="false"
     inkscape:zoom="1.046098"
     inkscape:cx="195.48838"
     inkscape:cy="249.49861"
     inkscape:window-width="1280"
     inkscape:window-height="800"
     inkscape:window-x="0"
     inkscape:window-y="0"
     inkscape:window-maximized="0"
     inkscape:current-layer="g736" />
  <defs
     id="defs15205">
    <linearGradient
       inkscape:collect="always"
       id="linearGradient2854">
      <stop
         style="stop-color:#fff9ce;stop-opacity:1;"
         offset="0"
         id="stop2850" />
      <stop
         style="stop-color:#ffe388;stop-opacity:1;"
         offset="0.2"
         id="stop2858" />
      <stop
         style="stop-color:#ffdf29;stop-opacity:1;"
         offset="0.40000001"
         id="stop2860" />
      <stop
         style="stop-color:#ffcc03;stop-opacity:1;"
         offset="0.60000002"
         id="stop2864" />
      <stop
         style="stop-color:#fed400;stop-opacity:1;"
         offset="0.80000001"
         id="stop2862" />
      <stop
         style="stop-color:#ffd301;stop-opacity:1;"
         offset="1"
         id="stop2852" />
    </linearGradient>
    <linearGradient
       inkscape:collect="always"
       xlink:href="#linearGradient2854"
       id="linearGradient2856"
       x1="-165.59645"
       y1="25.455702"
       x2="-165.59645"
       y2="-26.64489"
       gradientUnits="userSpaceOnUse" />
    <linearGradient
       inkscape:collect="always"
       xlink:href="#linearGradient2854"
       id="linearGradient2870"
       gradientUnits="userSpaceOnUse"
       x1="-165.59645"
       y1="25.455702"
       x2="-165.59645"
       y2="-26.64489"
       gradientTransform="matrix(0.98286324,0,0,1.0194728,96.075624,57.59138)" />
    <linearGradient
       inkscape:collect="always"
       xlink:href="#linearGradient2854"
       id="linearGradient2874"
       gradientUnits="userSpaceOnUse"
       gradientTransform="matrix(0.94766053,0,0,1.0573431,201.65408,63.421239)"
       x1="-165.59645"
       y1="25.455702"
       x2="-165.59645"
       y2="-26.64489" />
    <linearGradient
       inkscape:collect="always"
       xlink:href="#linearGradient2854"
       id="linearGradient2878"
       gradientUnits="userSpaceOnUse"
       gradientTransform="matrix(0.92955938,0,0,1.0757784,292.15781,10.258464)"
       x1="-165.59645"
       y1="25.455702"
       x2="-165.59645"
       y2="-26.64489" />
    <linearGradient
       inkscape:collect="always"
       xlink:href="#linearGradient2854"
       id="linearGradient2882"
       gradientUnits="userSpaceOnUse"
       gradientTransform="matrix(0.94766053,0,0,1.057343,355.43833,-85.992957)"
       x1="-165.59645"
       y1="25.455702"
       x2="-165.59645"
       y2="-26.64489" />
    <linearGradient
       inkscape:collect="always"
       xlink:href="#linearGradient2854"
       id="linearGradient2886"
       gradientUnits="userSpaceOnUse"
       gradientTransform="matrix(0.98286325,0,0,1.0194727,372.3323,-191.93254)"
       x1="-165.59645"
       y1="25.455702"
       x2="-165.59645"
       y2="-26.64489" />
    <linearGradient
       inkscape:collect="always"
       xlink:href="#linearGradient2854"
       id="linearGradient2890"
       gradientUnits="userSpaceOnUse"
       gradientTransform="translate(324.55554,-282.62195)"
       x1="-165.59645"
       y1="25.455702"
       x2="-165.59645"
       y2="-26.64489" />
  </defs>
  <g
     inkscape:label="Layer 1"
     inkscape:groupmode="layer"
     id="layer1">
    <g
       id="g393"
       transform="matrix(0.31608626,0,0,0.30822257,16.324477,24.649275)">
	<g
   id="g391">
		
		<g
   id="g736"
   transform="matrix(1.1672273,0,0,1.1126889,-8.142298,-32.002971)">
  <g
     id="g2771"
     transform="translate(-1.3710682,50.886317)">
    <g
       id="g375"
       transform="matrix(0.85673116,0,0,0.89872383,6.9757603,28.761832)">
			<g
   id="XMLID_19_">
				<g
   id="g372">
					
					
					
					
					
				</g>

			</g>

		</g>
    <g
       id="g346">
						<g
   id="g344">
							<path
   style="fill:#fede94"
   d="m 122.086,132.667 c 3.136,3.199 8.236,3.199 11.372,0 3.168,-3.168 3.168,-8.331 0,-11.499 l -2.217,-2.281 h 24.772 l -18.215,18.437 c -1.489,1.521 -2.344,3.611 -2.344,5.765 v 54.74 H 107.641 V 169.35 c 0,-2.914 -1.552,-5.607 -4.055,-7.064 C 79.637,148.348 64.78,122.372 64.78,94.463 c 0,-43.114 34.624,-78.181 77.199,-78.181 42.575,0 77.231,35.068 77.231,78.181 0,28.732 -15.522,55.088 -40.484,68.805 -2.598,1.394 -4.213,4.15 -4.213,7.159 v 27.401 h -22.967 v -51.382 l 29.587,-29.936 c 2.281,-2.344 2.978,-5.829 1.742,-8.87 -1.236,-3.041 -4.181,-5.037 -7.444,-5.037 h -63.609 c -3.263,0 -6.209,1.996 -7.444,5.037 -1.235,3.041 -0.57,6.526 1.742,8.87 z"
   id="path342" />

						</g>

					</g>
    <g
       id="g352">
						<g
   id="g350">
							<path
   style="fill:#2d213f;stroke-width:0.479015;stroke-dasharray:none"
   d="m 64.78,94.464 c 0,27.908 14.857,53.884 38.806,67.823 2.503,1.457 4.055,4.15 4.055,7.064 v 28.478 h 27.813 v -54.74 c 0,-2.154 0.855,-4.245 2.344,-5.765 l 18.215,-18.437 h -24.772 l 2.217,2.281 c 3.168,3.168 3.168,8.331 0,11.499 -3.136,3.199 -8.236,3.199 -11.372,0 L 106.12,116.511 c -2.312,-2.344 -2.978,-5.829 -1.742,-8.87 1.235,-3.041 4.181,-5.037 7.444,-5.037 h 63.609 c 3.263,0 6.209,1.996 7.444,5.037 1.235,3.041 0.539,6.526 -1.742,8.87 l -29.587,29.936 v 51.382 h 22.967 v -27.401 c 0,-3.009 1.616,-5.765 4.213,-7.159 24.962,-13.717 40.484,-40.073 40.484,-68.805 0,-43.114 -34.656,-78.181 -77.231,-78.181 -42.575,0 -77.199,35.067 -77.199,78.181 z m 170.523,0 c 0,33.072 -17.011,63.546 -44.698,80.652 v 30.886 c 0,0.539 -0.063,1.077 -0.158,1.584 2.914,3.358 4.752,7.729 4.752,12.544 v 0.634 c 0,4.055 -1.267,7.793 -3.421,10.897 2.154,3.073 3.421,6.811 3.421,10.866 v 0.634 c 0,10.517 -8.426,19.038 -18.785,19.038 h -8.553 v 0.697 c 0,11.626 -9.345,21.098 -20.844,21.098 h -10.675 c -11.499,0 -20.844,-9.472 -20.844,-21.098 v -0.697 h -10.707 c -10.359,0 -18.785,-8.521 -18.785,-19.038 v -0.634 c 0,-4.055 1.299,-7.793 3.421,-10.866 -2.122,-3.104 -3.421,-6.842 -3.421,-10.897 v -0.634 c 0,-5.29 2.154,-10.074 5.607,-13.526 -0.032,-0.19 -0.063,-0.412 -0.063,-0.602 v -32.09 C 65.004,156.616 48.69,126.585 48.69,94.464 48.688,42.385 90.535,0 141.98,0 c 51.476,0 93.323,42.385 93.323,94.464 z M 179.106,243.16 v -0.634 c 0,-1.489 -1.204,-2.724 -2.693,-2.724 h -71.624 c -1.489,0 -2.693,1.235 -2.693,2.724 v 0.634 c 0,1.521 1.204,2.756 2.693,2.756 h 71.624 c 1.491,0 2.693,-1.235 2.693,-2.756 z m 0,-22.396 v -0.634 c 0,-1.489 -1.204,-2.724 -2.693,-2.724 h -71.624 c -1.489,0 -2.693,1.235 -2.693,2.724 v 0.634 c 0,1.521 1.204,2.756 2.693,2.756 h 71.624 c 1.491,0 2.693,-1.236 2.693,-2.756 z m -27.338,42.132 v -0.697 h -20.179 v 0.697 c 0,2.629 2.154,4.783 4.752,4.783 h 10.675 c 2.63,0 4.752,-2.154 4.752,-4.783 z"
   id="path348" />

						</g>

					</g>
    <g
       id="g358">
						<g
   id="g356">
							<path
   style="fill:#c5cbcf"
   d="M 176.414,245.916 H 104.79 c -1.489,0 -2.693,-1.235 -2.693,-2.756 v -0.634 c 0,-1.489 1.204,-2.724 2.693,-2.724 h 71.624 c 1.489,0 2.693,1.235 2.693,2.724 v 0.634 c -0.001,1.521 -1.203,2.756 -2.693,2.756 z"
   id="path354" />

						</g>

					</g>
    <g
       id="g364">
						<g
   id="g362">
							<path
   style="fill:#eaeeef"
   d="M 176.414,223.52 H 104.79 c -1.489,0 -2.693,-1.235 -2.693,-2.756 v -0.634 c 0,-1.489 1.204,-2.724 2.693,-2.724 h 71.624 c 1.489,0 2.693,1.235 2.693,2.724 v 0.634 c -0.001,1.52 -1.203,2.756 -2.693,2.756 z"
   id="path360" />

						</g>

					</g>
    <g
       id="g370">
						<g
   id="g368">
							<path
   style="fill:#c5cbcf"
   d="m 151.768,262.199 v 0.697 c 0,2.629 -2.122,4.783 -4.752,4.783 h -10.675 c -2.598,0 -4.752,-2.154 -4.752,-4.783 v -0.697 z"
   id="path366" />

						</g>

					</g>
    <g
       id="g389">
			<g
   id="g381">
				<g
   id="g379">
					<path
   style="fill:#f2ce75"
   d="m 103.586,162.286 c 2.503,1.457 4.055,4.15 4.055,7.064 v 28.478 h 27.813 v -54.74 c 0,-2.154 0.855,-4.245 2.344,-5.765 l 1.438,-1.454 c -28.497,-0.653 -52.709,-8.499 -70.458,-16.71 5.924,17.927 18.161,33.44 34.808,43.127 z"
   id="path377" />

				</g>

			</g>

			<g
   id="g387">
				<g
   id="g385">
					<path
   style="fill:#f2ce75"
   d="m 163.156,134.701 -11.61,11.746 v 51.382 h 22.967 v -27.401 c 0,-3.009 1.616,-5.765 4.213,-7.159 17.29,-9.5 30.037,-25.067 36.249,-43.285 -18.101,8.157 -35.485,12.734 -51.819,14.717 z"
   id="path383" />

				</g>

			</g>

		</g>
  </g>
  <rect
     style="fill:url(#linearGradient2856);stroke-width:0.330252;stroke-dasharray:none;paint-order:markers stroke fill;fill-opacity:1"
     id="rect2773"
     width="15.487139"
     height="52.786129"
     x="-172.97128"
     y="-27.673193"
     ry="7.1981091"
     inkscape:transform-center-x="52.608205"
     inkscape:transform-center-y="1.0116976"
     transform="rotate(-90)" />
  <rect
     style="fill:url(#linearGradient2870);fill-opacity:1;stroke-width:0.330582;stroke-dasharray:none;paint-order:markers stroke fill"
     id="rect2866"
     width="15.22174"
     height="53.814026"
     x="-73.931496"
     y="29.379313"
     ry="7.3382769"
     inkscape:transform-center-x="46.065891"
     inkscape:transform-center-y="-25.427946"
     transform="matrix(0.47288338,-0.88112503,0.84948356,0.52761509,0,0)" />
  <rect
     style="fill:url(#linearGradient2874);fill-opacity:1;stroke-width:0.330582;stroke-dasharray:none;paint-order:markers stroke fill"
     id="rect2872"
     width="14.676551"
     height="55.813053"
     x="37.736019"
     y="34.161179"
     ry="7.6108718"
     inkscape:transform-center-x="27.180259"
     inkscape:transform-center-y="-45.054193"
     transform="matrix(0.84948356,-0.52761509,0.47288338,0.88112502,0,0)" />
  <rect
     style="fill:url(#linearGradient2878);fill-opacity:1;stroke-width:0.330252;stroke-dasharray:none;paint-order:markers stroke fill"
     id="rect2876"
     width="14.396215"
     height="56.786182"
     x="131.37073"
     y="-19.511759"
     ry="7.7435713"
     inkscape:transform-center-x="1.0116974"
     inkscape:transform-center-y="-52.608206" />
  <rect
     style="fill:url(#linearGradient2882);fill-opacity:1;stroke-width:0.330582;stroke-dasharray:none;paint-order:markers stroke fill"
     id="rect2880"
     width="14.676551"
     height="55.813053"
     x="191.52026"
     y="-115.25301"
     ry="7.6108718"
     inkscape:transform-center-x="-25.427946"
     inkscape:transform-center-y="-46.065892"
     transform="matrix(0.84948356,0.52761509,-0.47288338,0.88112503,0,0)" />
  <rect
     style="fill:url(#linearGradient2886);fill-opacity:1;stroke-width:0.330582;stroke-dasharray:none;paint-order:markers stroke fill"
     id="rect2884"
     width="15.22174"
     height="53.814026"
     x="202.32518"
     y="-220.14461"
     ry="7.3382769"
     inkscape:transform-center-x="-45.054195"
     inkscape:transform-center-y="-27.180259"
     transform="matrix(0.47288338,0.88112502,-0.84948356,0.52761509,0,0)" />
  <rect
     style="fill:url(#linearGradient2890);fill-opacity:1;stroke-width:0.330252;stroke-dasharray:none;paint-order:markers stroke fill"
     id="rect2888"
     width="15.487139"
     height="52.786129"
     x="151.58427"
     y="-310.29514"
     ry="7.1981091"
     inkscape:transform-center-x="-52.608202"
     inkscape:transform-center-y="-1.0116973"
     transform="rotate(90)" />
</g>

	</g>

</g>
  </g>
</svg>
