<?xml version="1.0" encoding="UTF-8" standalone="no"?>
<!-- Created with Inkscape (http://www.inkscape.org/) -->

<svg
   width="300"
   height="292.41956"
   viewBox="0 0 300 292.41956"
   version="1.1"
   id="svg15208"
   inkscape:version="1.2.1 (9c6d41e410, 2022-07-14)"
   sodipodi:docname="tungsten.svg"
   xmlns:inkscape="http://www.inkscape.org/namespaces/inkscape"
   xmlns:sodipodi="http://sodipodi.sourceforge.net/DTD/sodipodi-0.dtd"
   xmlns:xlink="http://www.w3.org/1999/xlink"
   xmlns="http://www.w3.org/2000/svg"
   xmlns:svg="http://www.w3.org/2000/svg">
  <sodipodi:namedview
     id="namedview15210"
     pagecolor="#ffffff"
     bordercolor="#000000"
     borderopacity="1"
     inkscape:showpageshadow="0"
     inkscape:pageopacity="0"
     inkscape:pagecheckerboard="true"
     inkscape:deskcolor="#ffffff"
     inkscape:document-units="px"
     showgrid="false"
     inkscape:zoom="2.958812"
     inkscape:cx="151.24314"
     inkscape:cy="173.21141"
     inkscape:window-width="2498"
     inkscape:window-height="1417"
     inkscape:window-x="54"
     inkscape:window-y="-8"
     inkscape:window-maximized="1"
     inkscape:current-layer="tungsten" />
  <defs
     id="defs15205">
    <linearGradient
       inkscape:collect="always"
       id="linearGradient2854">
      <stop
         style="stop-color:#fff9ce;stop-opacity:1;"
         offset="0"
         id="stop2850" />
      <stop
         style="stop-color:#ffe388;stop-opacity:1;"
         offset="0.2"
         id="stop2858" />
      <stop
         style="stop-color:#ffdf29;stop-opacity:1;"
         offset="0.40000001"
         id="stop2860" />
      <stop
         style="stop-color:#ffcc03;stop-opacity:1;"
         offset="0.60000002"
         id="stop2864" />
      <stop
         style="stop-color:#fed400;stop-opacity:1;"
         offset="0.80000001"
         id="stop2862" />
      <stop
         style="stop-color:#ffd301;stop-opacity:1;"
         offset="1"
         id="stop2852" />
    </linearGradient>
    <linearGradient
       inkscape:collect="always"
       xlink:href="#linearGradient2854"
       id="linearGradient2856"
       x1="-165.59645"
       y1="25.455702"
       x2="-165.59645"
       y2="-26.64489"
       gradientUnits="userSpaceOnUse"
       gradientTransform="matrix(0.34295583,0,0,0.36894451,-12.996605,12.27906)" />
    <linearGradient
       inkscape:collect="always"
       xlink:href="#linearGradient2854"
       id="linearGradient2870"
       gradientUnits="userSpaceOnUse"
       x1="-165.59645"
       y1="25.455702"
       x2="-165.59645"
       y2="-26.64489"
       gradientTransform="matrix(0.34295583,0,0,0.3689445,28.408332,37.974448)" />
    <linearGradient
       inkscape:collect="always"
       xlink:href="#linearGradient2854"
       id="linearGradient2874"
       gradientUnits="userSpaceOnUse"
       gradientTransform="matrix(0.34295583,0,0,0.36894449,77.113752,39.524838)"
       x1="-165.59645"
       y1="25.455702"
       x2="-165.59645"
       y2="-26.64489" />
    <linearGradient
       inkscape:collect="always"
       xlink:href="#linearGradient2854"
       id="linearGradient2878"
       gradientUnits="userSpaceOnUse"
       gradientTransform="matrix(0.34295583,0,0,0.36894447,120.06908,16.514805)"
       x1="-165.59645"
       y1="25.455702"
       x2="-165.59645"
       y2="-26.64489" />
    <linearGradient
       inkscape:collect="always"
       xlink:href="#linearGradient2854"
       id="linearGradient2882"
       gradientUnits="userSpaceOnUse"
       gradientTransform="matrix(0.34295583,0,0,0.36894446,145.76447,-24.890132)"
       x1="-165.59645"
       y1="25.455702"
       x2="-165.59645"
       y2="-26.64489" />
    <linearGradient
       inkscape:collect="always"
       xlink:href="#linearGradient2854"
       id="linearGradient2886"
       gradientUnits="userSpaceOnUse"
       gradientTransform="matrix(0.34295583,0,0,0.36894447,147.31486,-73.595553)"
       x1="-165.59645"
       y1="25.455702"
       x2="-165.59645"
       y2="-26.64489" />
    <linearGradient
       inkscape:collect="always"
       xlink:href="#linearGradient2854"
       id="linearGradient2890"
       gradientUnits="userSpaceOnUse"
       gradientTransform="matrix(0.34295583,0,0,0.36894451,124.30482,-116.55087)"
       x1="-165.59645"
       y1="25.455702"
       x2="-165.59645"
       y2="-26.64489" />
  </defs>
  <g
     inkscape:label="tungsten"
     inkscape:groupmode="layer"
     id="tungsten"
     transform="matrix(2.4059366,0,0,2.4059366,-4.9783331,-15.16927)">
    <path
       style="fill:#fede94;stroke-width:0.355713"
       d="m 56.816171,75.947286 c 1.15701,1.097116 3.038627,1.097116 4.195637,0 1.168816,-1.086484 1.168816,-2.857165 0,-3.943649 l -0.81795,-0.782282 h 9.139493 l -6.720324,6.323077 c -0.549359,0.521635 -0.864806,1.238413 -0.864806,1.97714 V 98.294978 H 51.486767 v -9.767043 c 0,-0.999373 -0.572602,-1.922953 -1.49607,-2.42264 -8.835851,-4.780118 -14.31726,-13.688739 -14.31726,-23.260293 0,-14.786198 12.774335,-26.812631 28.482147,-26.812631 15.707812,0 28.493953,12.026776 28.493953,26.812631 0,9.853807 -5.726756,18.89275 -14.936349,23.597076 -0.958518,0.47808 -1.554363,1.423266 -1.554363,2.45522 v 9.39733 H 67.685276 V 80.672875 L 78.601237,70.406149 c 0.841563,-0.803889 1.098717,-1.99909 0.642702,-3.042018 -0.456016,-1.042929 -1.542557,-1.727469 -2.746423,-1.727469 H 53.029324 c -1.203866,0 -2.290776,0.68454 -2.746423,1.727469 -0.455646,1.042928 -0.210298,2.238129 0.642702,3.042018 z"
       id="path342" />
    <path
       style="fill:#2d213f;stroke-width:0.170392;stroke-dasharray:none"
       d="m 35.673437,62.845345 c 0,9.571211 5.481409,18.479832 14.31726,23.260293 0.923468,0.499687 1.49607,1.423267 1.49607,2.42264 v 9.7667 H 61.748221 V 79.521572 c 0,-0.738727 0.315447,-1.455848 0.864806,-1.97714 l 6.720324,-6.323077 h -9.139493 l 0.81795,0.782282 c 1.168816,1.086484 1.168816,2.857165 0,3.943649 -1.15701,1.097116 -3.038627,1.097116 -4.195637,0 l -5.890568,-5.540794 c -0.853,-0.803889 -1.098717,-1.99909 -0.642702,-3.042018 0.455647,-1.042929 1.542557,-1.727469 2.746423,-1.727469 h 23.468192 c 1.203866,0 2.290776,0.68454 2.746423,1.727469 0.455646,1.042928 0.198861,2.238129 -0.642702,3.042018 L 67.685276,80.673218 v 17.62176 h 8.473549 v -9.397337 c 0,-1.031954 0.596214,-1.97714 1.554363,-2.45522 9.209593,-4.704326 14.936349,-13.743269 14.936349,-23.597076 0,-14.786198 -12.786141,-26.812631 -28.493953,-26.812631 -15.707812,0 -28.482147,12.026433 -28.482147,26.812631 z m 62.913525,0 c 0,11.342235 -6.276116,21.793471 -16.491082,27.660073 v 10.592532 c 0,0.18486 -0.02324,0.36937 -0.05829,0.54325 1.075105,1.15164 1.753225,2.6507 1.753225,4.30203 v 0.21744 c 0,1.39068 -0.467453,2.67265 -1.26216,3.73719 0.794707,1.0539 1.26216,2.33587 1.26216,3.72656 v 0.21743 c 0,3.60687 -3.108727,6.52919 -6.930623,6.52919 H 73.70461 v 0.23904 c 0,3.98721 -3.447787,7.23569 -7.69028,7.23569 h -3.938482 c -4.242493,0 -7.69028,-3.24848 -7.69028,-7.23569 v -0.23904 h -3.950289 c -3.821895,0 -6.930621,-2.92232 -6.930621,-6.52919 v -0.21743 c 0,-1.39069 0.479258,-2.67266 1.262159,-3.72656 -0.782901,-1.06454 -1.262159,-2.34651 -1.262159,-3.73719 v -0.21744 c 0,-1.81423 0.794706,-3.45493 2.068671,-4.63882 -0.01181,-0.0652 -0.02324,-0.14129 -0.02324,-0.20646 V 90.092499 C 35.756081,84.160735 29.73712,73.861429 29.73712,62.845345 29.736382,44.984547 45.175603,30.448364 64.155953,30.448364 c 18.991787,0 34.431009,14.536183 34.431009,32.396981 z M 77.853387,113.84151 v -0.21744 c 0,-0.51066 -0.44421,-0.93421 -0.993568,-0.93421 H 50.434538 c -0.549359,0 -0.993568,0.42355 -0.993568,0.93421 v 0.21744 c 0,0.52163 0.444209,0.94518 0.993568,0.94518 h 26.425281 c 0.550096,0 0.993568,-0.42355 0.993568,-0.94518 z m 0,-7.68084 v -0.21744 c 0,-0.51066 -0.44421,-0.93421 -0.993568,-0.93421 H 50.434538 c -0.549359,0 -0.993568,0.42355 -0.993568,0.93421 v 0.21744 c 0,0.52163 0.444209,0.94518 0.993568,0.94518 h 26.425281 c 0.550096,0 0.993568,-0.42389 0.993568,-0.94518 z m -10.086205,14.44941 v -0.23904 H 60.32225 v 0.23904 c 0,0.90163 0.794707,1.64036 1.753225,1.64036 h 3.938482 c 0.970324,0 1.753225,-0.73873 1.753225,-1.64036 z"
       id="path348" />
    <path
       style="fill:#c5cbcf;stroke-width:0.355713"
       d="M 76.860188,114.78669 H 50.434906 c -0.549358,0 -0.993567,-0.42355 -0.993567,-0.94518 v -0.21744 c 0,-0.51066 0.444209,-0.93421 0.993567,-0.93421 h 26.425282 c 0.549358,0 0.993568,0.42355 0.993568,0.93421 v 0.21744 c -3.69e-4,0.52163 -0.443841,0.94518 -0.993568,0.94518 z"
       id="path354" />
    <path
       style="fill:#eaeeef;stroke-width:0.355713"
       d="M 76.860188,107.10585 H 50.434906 c -0.549358,0 -0.993567,-0.42355 -0.993567,-0.94518 v -0.21744 c 0,-0.51066 0.444209,-0.93421 0.993567,-0.93421 h 26.425282 c 0.549358,0 0.993568,0.42355 0.993568,0.93421 v 0.21744 c -3.69e-4,0.52129 -0.443841,0.94518 -0.993568,0.94518 z"
       id="path360" />
    <path
       style="fill:#c5cbcf;stroke-width:0.355713"
       d="m 67.767182,120.37104 v 0.23904 c 0,0.90163 -0.782901,1.64036 -1.753225,1.64036 h -3.938482 c -0.958518,0 -1.753225,-0.73873 -1.753225,-1.64036 v -0.23904 z"
       id="path366" />
    <path
       style="fill:#f2ce75;stroke-width:0.355713"
       d="m 49.990697,86.105295 c 0.923468,0.499687 1.49607,1.423267 1.49607,2.42264 v 9.766693 H 61.748221 V 79.521229 c 0,-0.738727 0.315447,-1.455848 0.864806,-1.97714 l 0.530542,-0.498658 c -10.513812,-0.22395 -19.446695,-2.914782 -25.995092,-5.730792 2.185628,6.148169 6.700402,11.468443 12.84222,14.790656 z"
       id="path377" />
    <path
       style="fill:#f2ce75;stroke-width:0.355713"
       d="m 71.968722,76.644858 -4.283446,4.02836 v 17.62176 h 8.473549 v -9.397337 c 0,-1.031954 0.596214,-1.97714 1.554363,-2.45522 6.37905,-3.258081 11.081986,-8.596874 13.373869,-14.844844 -6.678264,2.797491 -13.091996,4.3672 -19.118335,5.047281 z"
       id="path383" />
    <rect
       style="fill:url(#linearGradient2856);fill-opacity:1;stroke-width:0.117475;stroke-dasharray:none;paint-order:markers stroke fill"
       id="rect2773"
       width="5.3114047"
       height="19.475153"
       x="-72.318115"
       y="2.0691872"
       ry="2.6557028"
       inkscape:transform-center-x="52.608205"
       inkscape:transform-center-y="1.0116976"
       transform="rotate(-90)" />
    <rect
       style="fill:url(#linearGradient2870);fill-opacity:1;stroke-width:0.117475;stroke-dasharray:none;paint-order:markers stroke fill"
       id="rect2866"
       width="5.3114047"
       height="19.475153"
       x="-30.913179"
       y="27.764576"
       ry="2.6557028"
       inkscape:transform-center-x="46.065891"
       inkscape:transform-center-y="-25.427946"
       transform="rotate(-60)" />
    <rect
       style="fill:url(#linearGradient2874);fill-opacity:1;stroke-width:0.117475;stroke-dasharray:none;paint-order:markers stroke fill"
       id="rect2872"
       width="5.3114047"
       height="19.475153"
       x="17.79224"
       y="29.314964"
       ry="2.6557031"
       inkscape:transform-center-x="27.180259"
       inkscape:transform-center-y="-45.054193"
       transform="rotate(-29.999999)" />
    <rect
       style="fill:url(#linearGradient2878);fill-opacity:1;stroke-width:0.117475;stroke-dasharray:none;paint-order:markers stroke fill"
       id="rect2876"
       width="5.3114047"
       height="19.475153"
       x="60.74757"
       y="6.3049335"
       ry="2.6557028"
       inkscape:transform-center-x="1.0116974"
       inkscape:transform-center-y="-52.608206" />
    <rect
       style="fill:url(#linearGradient2882);fill-opacity:1;stroke-width:0.117475;stroke-dasharray:none;paint-order:markers stroke fill"
       id="rect2880"
       width="5.3114047"
       height="19.475153"
       x="86.442955"
       y="-35.100002"
       ry="2.6557031"
       inkscape:transform-center-x="-25.427946"
       inkscape:transform-center-y="-46.065892"
       transform="rotate(29.999999)" />
    <rect
       style="fill:url(#linearGradient2886);fill-opacity:1;stroke-width:0.117475;stroke-dasharray:none;paint-order:markers stroke fill"
       id="rect2884"
       width="5.3114047"
       height="19.475153"
       x="87.993347"
       y="-83.80542"
       ry="2.6557028"
       inkscape:transform-center-x="-45.054195"
       inkscape:transform-center-y="-27.180259"
       transform="rotate(59.999999)" />
    <rect
       style="fill:url(#linearGradient2890);fill-opacity:1;stroke-width:0.117475;stroke-dasharray:none;paint-order:markers stroke fill"
       id="rect2888"
       width="5.3114047"
       height="19.475153"
       x="64.983315"
       y="-126.76075"
       ry="2.6557028"
       inkscape:transform-center-x="-52.608202"
       inkscape:transform-center-y="-1.0116973"
       transform="rotate(90)" />
  </g>
</svg>
