<?xml version="1.0" encoding="UTF-8" standalone="no"?>
<!-- Created with Inkscape (http://www.inkscape.org/) -->

<svg
   width="520"
   height="500"
   viewBox="0 0 520 500"
   version="1.1"
   id="svg5"
   inkscape:export-filename="..\hendi-outline-v3.svg"
   inkscape:export-xdpi="96"
   inkscape:export-ydpi="96"
   inkscape:version="1.2 (dc2aedaf03, 2022-05-15)"
   sodipodi:docname="hendi-laser-symbol.svg"
   xmlns:inkscape="http://www.inkscape.org/namespaces/inkscape"
   xmlns:sodipodi="http://sodipodi.sourceforge.net/DTD/sodipodi-0.dtd"
   xmlns="http://www.w3.org/2000/svg"
   xmlns:svg="http://www.w3.org/2000/svg">
  <sodipodi:namedview
     id="namedview7"
     pagecolor="#ffffff"
     bordercolor="#000000"
     borderopacity="0.25"
     inkscape:showpageshadow="true"
     inkscape:pageopacity="0.0"
     inkscape:pagecheckerboard="false"
     inkscape:deskcolor="#d1d1d1"
     inkscape:document-units="px"
     showgrid="false"
     borderlayer="true"
     inkscape:lockguides="false"
     inkscape:zoom="5.8665471"
     inkscape:cx="103.46802"
     inkscape:cy="327.19417"
     inkscape:window-width="1920"
     inkscape:window-height="1001"
     inkscape:window-x="2391"
     inkscape:window-y="-9"
     inkscape:window-maximized="1"
     inkscape:current-layer="svg5"
     showguides="true"
     showborder="true">
    <inkscape:grid
       type="xygrid"
       id="grid221"
       color="#0099e5"
       opacity="0"
       empspacing="5"
       originx="18.123966"
       originy="0" />
  </sodipodi:namedview>
  <defs
     id="defs2">
    <linearGradient
       id="linearGradient3651"
       inkscape:swatch="solid">
      <stop
         style="stop-color:#000000;stop-opacity:1;"
         offset="0"
         id="stop3649" />
    </linearGradient>
    <linearGradient
       id="linearGradient898"
       inkscape:swatch="solid">
      <stop
         style="stop-color:#000000;stop-opacity:1;"
         offset="0"
         id="stop896" />
    </linearGradient>
    <linearGradient
       id="linearGradient4079"
       inkscape:swatch="solid">
      <stop
         style="stop-color:#000000;stop-opacity:1;"
         offset="0"
         id="stop4077" />
    </linearGradient>
    <linearGradient
       id="linearGradient4073"
       inkscape:swatch="solid">
      <stop
         style="stop-color:#000000;stop-opacity:1;"
         offset="0"
         id="stop4071" />
    </linearGradient>
    <linearGradient
       id="linearGradient4067"
       inkscape:swatch="solid">
      <stop
         style="stop-color:#000000;stop-opacity:1;"
         offset="0"
         id="stop4065" />
    </linearGradient>
    <linearGradient
       id="linearGradient4061"
       inkscape:swatch="solid">
      <stop
         style="stop-color:#000000;stop-opacity:1;"
         offset="0"
         id="stop4059" />
    </linearGradient>
    <linearGradient
       id="linearGradient4055"
       inkscape:swatch="solid">
      <stop
         style="stop-color:#000000;stop-opacity:1;"
         offset="0"
         id="stop4053" />
    </linearGradient>
    <linearGradient
       id="linearGradient4049"
       inkscape:swatch="solid">
      <stop
         style="stop-color:#000000;stop-opacity:1;"
         offset="0"
         id="stop4047" />
    </linearGradient>
    <linearGradient
       id="linearGradient4043"
       inkscape:swatch="solid">
      <stop
         style="stop-color:#000000;stop-opacity:1;"
         offset="0"
         id="stop4041" />
    </linearGradient>
    <linearGradient
       id="linearGradient4037"
       inkscape:swatch="solid">
      <stop
         style="stop-color:#000000;stop-opacity:1;"
         offset="0"
         id="stop4035" />
    </linearGradient>
    <linearGradient
       id="linearGradient4031"
       inkscape:swatch="solid">
      <stop
         style="stop-color:#000000;stop-opacity:1;"
         offset="0"
         id="stop4029" />
    </linearGradient>
    <linearGradient
       id="linearGradient4025"
       inkscape:swatch="solid">
      <stop
         style="stop-color:#000000;stop-opacity:1;"
         offset="0"
         id="stop4023" />
    </linearGradient>
    <linearGradient
       id="linearGradient4019"
       inkscape:swatch="solid">
      <stop
         style="stop-color:#000000;stop-opacity:1;"
         offset="0"
         id="stop4017" />
    </linearGradient>
    <linearGradient
       id="linearGradient4013"
       inkscape:swatch="solid">
      <stop
         style="stop-color:#000000;stop-opacity:1;"
         offset="0"
         id="stop4011" />
    </linearGradient>
    <linearGradient
       id="linearGradient3281"
       inkscape:swatch="solid">
      <stop
         style="stop-color:#000000;stop-opacity:1;"
         offset="0"
         id="stop3279" />
    </linearGradient>
  </defs>
  <g
     inkscape:groupmode="layer"
     id="layer2"
     inkscape:label="Laser symbol"
     transform="translate(18.123966)">
    <path
       sodipodi:type="star"
       style="display:inline;fill:#ffd42a;stroke:#000000;stroke-opacity:1;paint-order:markers stroke fill"
       id="path218"
       inkscape:flatsided="true"
       sodipodi:sides="3"
       sodipodi:cx="0"
       sodipodi:cy="284.93985"
       sodipodi:r1="10.323408"
       sodipodi:r2="5.1617041"
       sodipodi:arg1="0.52327832"
       sodipodi:arg2="1.5704759"
       inkscape:rounded="-3.469447e-18"
       inkscape:randomized="0"
       d="m 8.9419873,290.09869 -17.8806664,0.006 8.93537091,-15.48798 z"
       inkscape:transform-center-x="-0.0016540859"
       inkscape:transform-center-y="-2.5794193" />
    <ellipse
       style="fill:#ff0000"
       id="path553"
       cx="-1.6335007"
       cy="285.24673"
       rx="1.7941729"
       ry="1.6870581" />
    <rect
       style="fill:#ff0000;stroke-width:1.04078"
       id="rect711"
       width="12.318202"
       height="0.40169284"
       x="-5.8377566"
       y="285.05927" />
    <rect
       style="fill:#ff0000;stroke-width:0.851652"
       id="rect711-1"
       width="8.2448883"
       height="0.40185043"
       x="-289.28287"
       y="-2.2328537"
       transform="matrix(-0.00148924,-0.99999889,0.9997391,-0.02284134,0,0)" />
    <path
       id="rect711-1-6-4"
       style="fill:#ff0000;stroke-width:0.914982"
       d="m -6.6113281,282.33984 c -0.00131,-7e-4 -0.00578,-1.6e-4 -0.00781,0.002 -0.0055,0.003 -0.00893,0.009 -0.00977,0.0137 v 0.004 c 0.00816,-0.002 0.015572,-0.0119 0.021484,-0.0195 z m 1.5234375,0.70508 c -0.034844,0.0437 -0.067884,0.0885 -0.099609,0.13477 -0.025517,0.0417 -0.048423,0.088 -0.068359,0.13281 l 7.5859375,4.18359 c 0.019483,-0.0226 0.037975,-0.045 0.056641,-0.0684 0.036363,-0.0371 0.066359,-0.0794 0.09375,-0.12304 0.013222,-0.0205 0.026676,-0.0399 0.039062,-0.0605 z" />
    <path
       id="path1241"
       style="fill:#ff0000;stroke-width:0.835174"
       d="m -4.4137426,280.17084 c -0.00466,0.003 -0.00901,0.009 -0.013272,0.0122 l -0.010778,-0.0187 z m 0.9689196,1.21641 4.18002892,7.65245 c -0.0330036,0.0108 -0.0655412,0.0231 -0.0987039,0.0349 -0.0578634,0.0191 -0.11467931,0.0431 -0.16684261,0.0739 L -3.697179,281.52142 c 0.015157,-0.0114 0.030913,-0.0223 0.046588,-0.0331 0.025468,-0.02 0.049604,-0.0394 0.080869,-0.0495 0.042858,-0.0155 0.084081,-0.032 0.1250654,-0.0516 z m 4.7456156,8.68638 0.017048,0.0324 -0.04178,-0.0133 c 0.00866,-0.005 0.016383,-0.0115 0.024929,-0.0191 z" />
    <path
       id="path1239"
       style="fill:#ff0000;stroke-width:0.92416"
       d="m 3.5800781,282.04297 c 0.00663,0.008 0.014898,0.0166 0.023437,0.0176 v -0.004 c -0.00122,-0.006 -0.00578,-0.009 -0.011719,-0.0117 -0.00226,-10e-4 -0.00651,-0.003 -0.00781,-0.002 z m -1.5058593,0.82031 -7.4863282,4.76563 c 0.014328,0.0194 0.029752,0.0374 0.044922,0.0566 0.031498,0.0407 0.063266,0.0796 0.1035156,0.11328 0.021001,0.0218 0.042664,0.0437 0.064453,0.0644 l 7.4667969,-4.75 c -0.023958,-0.0425 -0.050632,-0.0859 -0.080078,-0.125 -0.036184,-0.0432 -0.074094,-0.0847 -0.1132812,-0.125 z" />
    <path
       id="path1364"
       style="fill:#ff0000;stroke-width:0.835174"
       d="m 1.2937906,280.17084 c 0.00466,0.003 0.00901,0.009 0.013272,0.0122 l 0.010778,-0.0187 z m -0.9689196,1.21641 -4.1800289,7.65245 c 0.033004,0.0108 0.065541,0.0231 0.098704,0.0349 0.057863,0.0191 0.1146793,0.0431 0.1668426,0.0739 l 4.1668384,-7.62708 c -0.015157,-0.0114 -0.030913,-0.0223 -0.046588,-0.0331 -0.025468,-0.02 -0.049604,-0.0394 -0.080869,-0.0495 -0.042858,-0.0155 -0.084081,-0.032 -0.1250654,-0.0516 z m -4.7456156,8.68638 -0.017048,0.0324 0.04178,-0.0133 c -0.00866,-0.005 -0.016383,-0.0115 -0.024929,-0.0191 z" />
    <g
       inkscape:groupmode="layer"
       id="layer3"
       inkscape:label="little lasers"
       style="display:inline"
       transform="matrix(1.0623991,0,0,1.0372494,0.12017945,-10.624077)">
      <path
         id="rect711-1-8"
         style="display:inline;fill:#ff0000;stroke-width:0.736764"
         d="m -302.80734,-81.955415 c -0.002,-0.0095 -0.005,-0.01856 -0.007,-0.02786 -0.008,-0.02542 -0.0147,-0.04918 -0.0229,-0.07455 -0.0117,-0.02933 -0.0286,-0.05955 -0.0422,-0.0889 -0.0158,-0.03845 -0.0328,-0.07648 -0.0415,-0.114636 -0.007,-0.03199 -0.0136,-0.06395 -0.0177,-0.09539 l -5.85278,1.83e-4 8.1e-4,0.40018 z"
         transform="matrix(-0.26162143,-0.96517057,0.99282387,0.1195858,0,0)" />
      <path
         id="rect1401"
         style="display:inline;fill:#ff0000;stroke-width:0.736764"
         d="m -302.16898,-79.039161 8.1e-4,0.40018 -6.21178,2.1e-5 -8.1e-4,-0.40018 z"
         transform="matrix(0.26162143,-0.96517057,-0.99282387,0.1195858,0,0)" />
      <path
         id="rect1403"
         style="display:inline;fill:#ff0000;stroke-width:0.736764"
         d="m 36.956097,296.04695 c 2.64e-4,0.002 4.35e-4,0.004 6.39e-4,0.006 l -0.002,-5.5e-4 c -6.3e-5,-10e-4 -4.6e-5,-0.003 -4.26e-4,-0.004 z m -0.04211,-3.3e-4 c 8.79e-4,0.005 0.0029,0.0108 0.0037,0.0162 l -0.002,-5.5e-4 c -1.35e-4,-0.001 -3.2e-4,-0.003 -4.26e-4,-0.004 l -2.13e-4,-0.002 c -3.63e-4,-0.005 -10e-4,-0.008 -0.003,-0.0103 z m -0.01908,3.9e-4 c -3.55e-4,0.002 4.16e-4,0.003 6.39e-4,0.006 0.0011,0.0117 0.0018,0.0233 0.0038,0.0351 0.0018,0.0102 0.0058,0.0222 0.0093,0.0329 0.0026,0.009 0.0049,0.0163 0.0085,0.0251 0.0036,0.007 0.0073,0.0161 0.01023,0.0237 0.0043,0.008 0.0064,0.0148 0.01023,0.0237 0.0036,0.007 0.0081,0.0163 0.01023,0.0237 0.0029,0.008 0.0044,0.0143 0.0063,0.0226 0.0034,0.0104 0.006,0.0223 0.0093,0.0329 0.0026,0.009 0.0052,0.018 0.0087,0.027 -0.0036,2.8e-4 -0.0072,0.002 -0.0066,0.01 9.47e-4,0.0121 0.004,0.0253 0.006,0.0376 4.78e-4,0.002 2.17e-4,0.003 4.26e-4,0.004 l 2.13e-4,0.002 c 1.69e-4,8.9e-4 8.47e-4,0.01 0.0013,0.0117 0.0022,0.0111 0.0098,0.0164 0.01508,0.0155 -6.9e-5,10e-4 4.41e-4,0.003 4.26e-4,0.004 1.32e-4,0.0104 0.0023,0.0224 0.0036,0.0332 l 0.0038,0.0351 -6.20095,-10e-4 -0.0013,-0.39798 z m 0.08377,0.2069 c 2.55e-4,0.003 5.02e-4,0.005 8.52e-4,0.008 -7.15e-4,-0.003 -0.0017,-0.006 -0.0028,-0.008 z"
         transform="matrix(-0.96118299,-0.27591168,0.10484334,0.99448875,0,0)" />
      <path
         id="rect1405"
         style="display:inline;fill:#ff0000;stroke-width:0.736764"
         d="m -284.93933,-208.39058 c -0.001,-0.003 -0.003,-0.006 -0.004,-0.008 -0.0137,-0.043 -0.0269,-0.0868 -0.0385,-0.12959 -0.009,-0.0334 -0.018,-0.0661 -0.0225,-0.0985 -0.003,-0.003 -0.006,-0.006 -0.007,-0.0112 -0.004,-0.0117 -0.006,-0.0225 -0.009,-0.0342 -0.002,-0.009 -0.007,-0.0206 -0.009,-0.0299 -0.003,-0.007 -0.004,-0.0128 -0.006,-0.0199 -0.003,-0.008 -0.004,-0.0178 -0.006,-0.0257 -0.002,-0.008 -0.003,-0.0151 -0.005,-0.0229 -7.1e-4,-0.005 -0.003,-0.0103 -0.005,-0.0156 l -6.04781,3.7e-4 -8.3e-4,0.39739 z"
         transform="matrix(-0.67386547,-0.73885407,0.93769735,-0.34745314,0,0)" />
      <path
         id="rect1407"
         style="display:inline;fill:#ff0000;stroke-width:0.736764"
         d="m -284.93933,-208.39058 c -0.001,-0.003 -0.003,-0.006 -0.004,-0.008 -0.0137,-0.043 -0.0269,-0.0868 -0.0385,-0.12959 -0.009,-0.0334 -0.018,-0.0661 -0.0225,-0.0985 -0.003,-0.003 -0.006,-0.006 -0.007,-0.0112 -0.004,-0.0117 -0.006,-0.0225 -0.009,-0.0342 -0.002,-0.009 -0.007,-0.0206 -0.009,-0.0299 -0.003,-0.007 -0.004,-0.0128 -0.006,-0.0199 -0.003,-0.008 -0.004,-0.0178 -0.006,-0.0257 -0.002,-0.008 -0.003,-0.0151 -0.005,-0.0229 -7.1e-4,-0.005 -0.003,-0.0103 -0.005,-0.0156 l -6.04781,3.7e-4 -8.3e-4,0.39739 z"
         transform="matrix(-0.67386547,-0.73885407,0.93769735,-0.34745314,0,0)" />
      <path
         id="rect1409"
         style="display:inline;fill:#ff0000;stroke-width:0.736764"
         d="m 31.990773,294.64099 -6.21307,-8.1e-4 0.0011,0.39958 6.21307,8.1e-4 z"
         transform="matrix(0.95959712,-0.28137762,-0.09918168,0.99506934,0,0)" />
      <path
         id="rect1411"
         style="display:inline;fill:#ff0000;stroke-width:0.736764"
         d="m -129.57509,207.41117 -6.21286,8.4e-4 0.001,0.39875 6.21199,5.4e-4 z"
         transform="matrix(0.67856513,-0.73454024,0.4263144,0.90457506,0,0)" />
    </g>
  </g>
</svg>
