<?xml version="1.0" encoding="UTF-8" standalone="no"?>
<svg
   width="550"
   height="400"
   version="1.1"
   id="svg5"
   sodipodi:docname="hendi-exterior.svg"
   inkscape:version="1.2.1 (9c6d41e410, 2022-07-14)"
   xml:space="preserve"
   xmlns:inkscape="http://www.inkscape.org/namespaces/inkscape"
   xmlns:sodipodi="http://sodipodi.sourceforge.net/DTD/sodipodi-0.dtd"
   xmlns:xlink="http://www.w3.org/1999/xlink"
   xmlns="http://www.w3.org/2000/svg"
   xmlns:svg="http://www.w3.org/2000/svg"><sodipodi:namedview
     id="namedview217"
     pagecolor="#ffffff"
     bordercolor="#000000"
     borderopacity="0.25"
     inkscape:showpageshadow="2"
     inkscape:pageopacity="0.0"
     inkscape:pagecheckerboard="0"
     inkscape:deskcolor="#d1d1d1"
     showgrid="false"
     inkscape:zoom="2"
     inkscape:cx="276.5"
     inkscape:cy="179.25"
     inkscape:window-width="2498"
     inkscape:window-height="1417"
     inkscape:window-x="54"
     inkscape:window-y="-8"
     inkscape:window-maximized="1"
     inkscape:current-layer="hendi"
     showguides="true" /><defs
     id="defs2"><linearGradient
       xlink:href="#linearGradient6292"
       id="linearGradient6312"
       x1="185.06396"
       y1="307.84872"
       x2="185.30064"
       y2="271.59473"
       gradientUnits="userSpaceOnUse"
       spreadMethod="reflect"
       gradientTransform="translate(80.653335,-0.84651185)" /><linearGradient
       id="linearGradient6292"><stop
         style="stop-color:#fd5;stop-opacity:1"
         offset="0"
         id="stop6288" /><stop
         style="stop-color:#ff0b0b;stop-opacity:.79874212"
         offset=".34793249"
         id="stop6290" /></linearGradient><linearGradient
       inkscape:collect="always"
       xlink:href="#linearGradient31314-2"
       id="linearGradient30439"
       gradientUnits="userSpaceOnUse"
       gradientTransform="matrix(0.77838456,0,0,1.6103112,-81.05124,-244.30511)"
       x1="134.83498"
       y1="185.42915"
       x2="171.70763"
       y2="185.42915" /><linearGradient
       inkscape:collect="always"
       id="linearGradient31314-2"><stop
         style="stop-color:#b3b3b3;stop-opacity:1;"
         offset="0.07717042"
         id="stop31302-3" /><stop
         style="stop-color:#d2d2d2;stop-opacity:1;"
         offset="0.24919616"
         id="stop31304-6" /><stop
         style="stop-color:#9c9c9c;stop-opacity:1;"
         offset="0.40956593"
         id="stop31306-5" /><stop
         style="stop-color:#afafaf;stop-opacity:1;"
         offset="0.61816716"
         id="stop31308-58" /><stop
         style="stop-color:#d0d0d0;stop-opacity:1;"
         offset="0.77893889"
         id="stop31310-1" /><stop
         style="stop-color:#989898;stop-opacity:1;"
         offset="0.95498395"
         id="stop31312-4" /></linearGradient><linearGradient
       inkscape:collect="always"
       xlink:href="#linearGradient31314-2"
       id="linearGradient31318-32"
       x1="134.83498"
       y1="185.42915"
       x2="171.70763"
       y2="185.42915"
       gradientUnits="userSpaceOnUse"
       gradientTransform="matrix(1.2416479,0,0,0.22349536,-151.59035,33.816425)" /><linearGradient
       inkscape:collect="always"
       xlink:href="#linearGradient29442"
       id="linearGradient29444"
       x1="40.405777"
       y1="21.268559"
       x2="73.111427"
       y2="22.554464"
       gradientUnits="userSpaceOnUse" /><linearGradient
       inkscape:collect="always"
       id="linearGradient29442"><stop
         style="stop-color:#bdbdbd;stop-opacity:1;"
         offset="0"
         id="stop29438" /><stop
         style="stop-color:#a8a8a8;stop-opacity:1;"
         offset="0.2"
         id="stop29446" /><stop
         style="stop-color:#8c8c8c;stop-opacity:1;"
         offset="0.39951771"
         id="stop29448" /><stop
         style="stop-color:#5b5b5b;stop-opacity:1;"
         offset="0.60490352"
         id="stop29450" /><stop
         style="stop-color:#606060;stop-opacity:1;"
         offset="0.79923636"
         id="stop29452" /><stop
         style="stop-color:#c0c0c0;stop-opacity:1;"
         offset="1"
         id="stop29440" /></linearGradient><linearGradient
       inkscape:collect="always"
       xlink:href="#linearGradient28700"
       id="linearGradient28702"
       x1="26.192024"
       y1="39.753902"
       x2="51.866421"
       y2="55.489822"
       gradientUnits="userSpaceOnUse" /><linearGradient
       inkscape:collect="always"
       id="linearGradient28700"><stop
         style="stop-color:#c9634e;stop-opacity:1;"
         offset="0"
         id="stop28696" /><stop
         style="stop-color:#f14a2c;stop-opacity:1;"
         offset="0.2"
         id="stop28704" /><stop
         style="stop-color:#e34424;stop-opacity:1;"
         offset="0.40000001"
         id="stop28706" /><stop
         style="stop-color:#ef4f32;stop-opacity:0.98113215;"
         offset="0.60000002"
         id="stop28708" /><stop
         style="stop-color:#f68a74;stop-opacity:1;"
         offset="0.79923636"
         id="stop28710" /><stop
         style="stop-color:#ff2525;stop-opacity:0.93081754;"
         offset="1"
         id="stop28698" /></linearGradient><linearGradient
       inkscape:collect="always"
       xlink:href="#linearGradient29458"
       id="linearGradient29460"
       x1="27.744911"
       y1="40.582108"
       x2="50.417057"
       y2="55.282772"
       gradientUnits="userSpaceOnUse" /><linearGradient
       inkscape:collect="always"
       id="linearGradient29458"><stop
         style="stop-color:#acacac;stop-opacity:1;"
         offset="0"
         id="stop29454" /><stop
         style="stop-color:#626262;stop-opacity:1;"
         offset="0.20096463"
         id="stop29462" /><stop
         style="stop-color:#575757;stop-opacity:1;"
         offset="0.40000001"
         id="stop29464" /><stop
         style="stop-color:#676767;stop-opacity:1;"
         offset="0.60490352"
         id="stop29466" /><stop
         style="stop-color:#b0b0b0;stop-opacity:1;"
         offset="0.79923636"
         id="stop29468" /><stop
         style="stop-color:#adadad;stop-opacity:1;"
         offset="1"
         id="stop29456" /></linearGradient><linearGradient
       inkscape:collect="always"
       xlink:href="#linearGradient29474"
       id="linearGradient29476"
       x1="39.132748"
       y1="42.031471"
       x2="38.718643"
       y2="54.55809"
       gradientUnits="userSpaceOnUse" /><linearGradient
       inkscape:collect="always"
       id="linearGradient29474"><stop
         style="stop-color:#929292;stop-opacity:1;"
         offset="0"
         id="stop29470" /><stop
         style="stop-color:#9a9a9a;stop-opacity:1;"
         offset="0.20418006"
         id="stop29478" /><stop
         style="stop-color:#848484;stop-opacity:1;"
         offset="0.39951769"
         id="stop29480" /><stop
         style="stop-color:#727272;stop-opacity:1;"
         offset="0.60168809"
         id="stop29482" /><stop
         style="stop-color:#606060;stop-opacity:1;"
         offset="0.79602093"
         id="stop29484" /><stop
         style="stop-color:#2b2b2b;stop-opacity:1;"
         offset="1"
         id="stop29472" /></linearGradient></defs><g
     inkscape:groupmode="layer"
     id="hendi"
     inkscape:label="hendi"
     transform="translate(-9.9999997,-9.9999995)"><path
       style="display:inline;fill:#cccccc"
       d="m 144.64227,302.20548 h -1.52916 c -0.38902,0 -0.59649,0 -1.55616,0.10369 -0.95967,0.10369 -2.67133,0.31116 -4.48698,0.82981 -1.81565,0.51865 -3.73479,1.34855 -5.08375,2.64565 -1.34895,1.29709 -2.12698,3.06062 -2.74939,5.13558 -0.62242,2.07496 -1.08923,4.4609 -1.29663,7.9882 -0.2074,3.52729 -0.15553,8.19546 0.15592,11.25588 0.31146,3.06041 0.88201,4.51273 3.6833,5.34206 2.80129,0.82933 7.83255,1.03681 24.79417,1.1924 16.96161,0.15559 45.85239,0.25932 60.32403,0.31119 14.47162,0.0519 14.52346,0.0519 14.54889,1.73816 0.0254,1.6863 0.0254,5.05775 0.0513,6.63962 0.0258,1.58187 0.0777,1.3744 -15.58664,1.37405 -15.66434,-3.6e-4 -47.0448,0.20712 -63.61706,0.10351 -16.57227,-0.1036 -18.33579,-0.51855 -20.12533,-0.88168 -1.78953,-0.36313 -3.60493,-0.67434 -5.57603,-1.76325 -1.9711,-1.08891 -4.09772,-2.95618 -5.47271,-5.93862 -1.375,-2.98244 -1.99742,-7.08005 -2.33465,-10.84068 -0.33723,-3.76064 -0.3891,-7.18396 -0.2854,-10.89271 0.10371,-3.70875 0.36305,-7.70263 1.40048,-10.65966 1.03743,-2.95704 2.85282,-4.87617 4.43495,-6.35453 1.58211,-1.47836 2.93069,-2.51573 4.56476,-3.47538 1.63406,-0.95964 3.5532,-1.84141 5.47259,-2.41193 1.91939,-0.57052 3.83854,-0.82987 5.57626,-0.95948 1.73772,-0.12962 3.29377,-0.12962 4.84886,-0.12962"
       id="tube3" /><path
       id="tube2"
       style="display:inline;fill:#cccccc"
       d="m 280.05581,287.64577 c -2.69323,0.0178 -5.5951,0.23648 -8.40234,0.57617 -3.74302,0.45292 -7.31855,1.12097 -10.29884,2.16992 -2.98029,1.04896 -5.36437,2.47921 -7.3672,4.50586 -2.00282,2.02665 -3.62371,4.64898 -4.625,6.91406 -1.00129,2.26509 -1.38275,4.17125 -1.62109,6.7461 -0.23834,2.57483 -0.3332,5.8167 -0.38086,9.03515 -0.0477,3.21846 -0.0483,6.41341 -0.0723,8.08203 -0.0239,1.66864 -0.0705,1.812 1.52735,1.85938 1.59786,0.0474 4.8382,3.5e-4 6.43554,-0.0234 1.59736,-0.0238 1.55015,-0.0235 1.50197,-2.47851 -0.0482,-2.45503 -0.0958,-7.36621 0.26171,-11.22852 0.35751,-3.86231 1.12168,-6.67556 2.12305,-8.75 1.00137,-2.07444 2.24002,-3.40908 3.74219,-4.50586 1.50216,-1.09678 3.26591,-1.95673 4.74414,-2.55273 1.47823,-0.59601 2.67036,-0.9285 4.60157,-1.11914 1.93122,-0.19064 4.60122,-0.23789 6.00781,-0.26172 1.40661,-0.0238 1.55028,-0.0243 2.50391,0.0234 0.95363,0.0477 2.71806,0.14185 4.72071,0.52344 2.00266,0.38159 4.24271,1.05008 5.72071,1.76563 1.47799,0.71554 2.19442,1.47896 3.05273,2.26562 0.85832,0.78666 1.85814,1.59593 2.5254,2.38281 0.66725,0.7869 1.00135,1.55012 1.16797,2.28907 0.16662,0.73894 0.16602,1.45376 0.16602,2.16797 l 0.78711,0.0801 h 0.36914 c 0.17613,-0.005 0.35124,-0.0155 0.52734,-0.0215 0.15119,-0.005 0.30186,-0.008 0.45313,-0.01 0.1112,-10e-4 0.22274,-0.002 0.33398,-0.002 0.11122,-2.3e-4 0.22276,5e-5 0.33398,0 0.10565,-3e-5 0.21076,0 0.31641,0 0.12184,-10e-6 0.24339,0 0.36523,0 h 0.77735 c 0.12105,-0.003 0.24262,0.008 0.36328,0.0156 0.10877,0.007 0.21718,0.01 0.32617,0.0117 0.11193,0.002 0.22399,0.004 0.33594,0.004 0.14737,3.8e-4 0.29406,-9e-5 0.4414,0 0.11272,6e-5 0.22519,-1e-5 0.3379,0 0.10338,10e-4 0.20752,-0.0106 0.31054,-0.0176 0.12217,-0.008 0.24483,-0.0126 0.36719,-0.01 0.13697,0.0109 0.27329,0.0289 0.41016,0.041 0.10501,0.008 0.20918,0.0126 0.31445,0.0156 0.11819,0.002 0.23726,0.004 0.35547,0.004 0.11926,0.004 0.23746,-0.0152 0.35547,-0.0293 0.0922,-0.009 0.18368,-0.0183 0.27539,-0.0273 0.0284,-1.4481 -0.003,-2.89895 -0.44531,-4.36718 -0.52411,-1.74025 -1.62038,-3.50435 -3.28907,-5.55469 -1.66869,-2.05034 -3.91043,-4.38725 -5.86523,-5.96094 -1.95481,-1.57369 -3.62424,-2.38463 -5.86525,-3.07617 -2.241,-0.69155 -5.05247,-1.26266 -8.41407,-1.42969 -0.8404,-0.0418 -1.71554,-0.0587 -2.61328,-0.0527 z m 21.69924,20.75976 0.21484,0.0215 c 0.007,-0.005 0.0216,-0.004 0.0352,0 0.0889,-0.004 0.17906,-0.007 0.26758,-0.0156 0.0196,-0.002 0.039,-0.004 0.0586,-0.006 h -0.33203 z" /><path
       style="display:inline;fill:#cccccc"
       d="m 273.69929,336.88825 c 17.89237,-0.0461 35.78374,-0.0922 45.76679,-0.4151 9.98306,-0.32289 12.05804,-0.92233 13.80995,-2.0289 1.7519,-1.10658 3.18134,-2.72045 4.91056,-4.65717 1.72921,-1.93672 3.75809,-4.19615 6.50196,-6.34048 2.74386,-2.14434 6.20218,-4.17322 10.72142,-5.71795 4.51924,-1.54474 10.09866,-2.60529 15.12496,-3.27387 5.0263,-0.66858 9.49906,-0.94524 15.05562,-1.15273 5.55657,-0.20749 12.19653,-0.34582 18.14502,-0.39191 5.94848,-0.0461 11.20512,10e-6 15.19389,0.27679 3.98876,0.27677 6.7093,0.78399 9.19939,1.56808 2.49009,0.78409 4.74952,1.84464 6.77837,3.22821 2.02884,1.38358 3.82716,3.08967 4.91047,4.54232 1.0833,1.45264 1.45219,2.65153 1.63645,4.15008 0.18426,1.49855 0.18426,3.29687 0.11509,4.26472 -0.0692,0.96785 -0.2075,1.10618 -1.70566,1.17534 -1.49816,0.0692 -4.35703,0.0692 -5.787,-0.0456 -1.42996,-0.11478 -1.42996,-0.34533 -1.476,-0.82946 -0.046,-0.48413 -0.13827,-1.2219 -0.25353,-2.05191 -0.11527,-0.83002 -0.25361,-1.75223 -0.71423,-2.46716 -0.46063,-0.71492 -1.24452,-1.22214 -2.30509,-1.70648 -1.06056,-0.48435 -2.39778,-0.94546 -3.66598,-1.15319 -1.26821,-0.20773 -2.46709,-0.16162 -4.1732,-0.18463 -1.70612,-0.023 -3.91944,-0.11524 -7.83904,-0.0692 -3.91959,0.0461 -9.54511,0.23052 -16.41587,0.50719 -6.87074,0.27667 -14.98625,0.64556 -20.49665,0.94527 -5.51042,0.29972 -8.41539,0.53027 -10.46742,0.73775 -2.05203,0.20747 -3.25091,0.39192 -4.51913,0.71466 -1.26821,0.32275 -2.60543,0.78386 -3.6894,1.52182 -1.08397,0.73795 -1.91396,1.75239 -2.60555,2.49009 -0.69159,0.7377 -1.24492,1.19881 -1.89061,1.93673 -0.64568,0.73793 -1.38345,1.75237 -2.19037,2.74372 -0.80692,0.99134 -1.68303,1.95968 -2.85886,3.11243 -1.17582,1.15276 -2.65136,2.48997 -4.8875,3.57354 -2.23614,1.08356 -5.23335,1.91356 -7.93088,2.5822 -2.69751,0.66864 -5.09527,1.17585 -7.60829,1.49869 -2.51303,0.32284 -5.14136,0.46117 -14.31773,0.59953 -9.17638,0.13836 -24.90018,0.27669 -40.62529,0.41503"
       id="tube1" /><g
       id="beam"
       transform="matrix(0.7922506,0,0,1,-22.605478,-110.573)"><path
         style="fill:url(#linearGradient6312);fill-opacity:1"
         id="rect5053"
         d="M 80.653328,295.83441 H 592.23985 v 2.94391 H 80.653328 Z" /><path
         style="display:inline;opacity:0.24;fill:#ffd42a;fill-opacity:1;stroke-width:1.22959"
         id="rect5049"
         d="M 80.945892,295.06836 H 592.53241 v 4.45089 H 80.945892 Z" /></g><g
       id="laser"
       transform="matrix(0.7922506,0,0,1,-22.605478,-110.573)"
       inkscape:label="laser"><path
         style="display:inline;fill:#ffd42a;stroke:#000000;stroke-width:1.12349;stroke-opacity:1;paint-order:markers stroke fill"
         d="m 87.624998,305.00336 -22.568632,0.006 11.278005,-15.488 z"
         id="path4004" /><path
         id="ellipse4006"
         style="fill:#ff0000;stroke-width:0"
         d="M 70.736487 295.06909 L 70.751279 295.08667 L 70.766071 295.07495 L 70.736487 295.06909 z M 78.001688 295.06909 L 77.972104 295.07495 L 77.986896 295.08667 L 78.001688 295.06909 z M 74.555217 295.98511 L 74.049833 295.99292 L 74.054764 298.4773 A 2.2644367 1.687 0 0 0 74.037507 298.4773 L 73.613477 297.2605 L 73.578963 297.26441 L 73.485282 297.27808 C 73.449552 297.28608 73.415788 297.29993 73.38174 297.30933 C 73.33676 297.32063 73.29358 297.33237 73.246149 297.33667 A 1.6654925 1.0060893 24.814857 0 1 73.122885 297.34253 L 73.544449 298.5437 L 71.991318 296.29175 L 71.988853 296.29175 C 71.937102 296.31075 71.885355 296.32753 71.831075 296.34253 C 71.791945 296.35253 71.762818 296.37331 71.729998 296.39331 A 1.7418744 1.38 0 0 0 71.670831 296.42456 L 73.214101 298.6648 A 2.2644367 1.687 0 0 0 73.07851 298.72534 L 71.937082 297.75659 C 71.932082 297.75759 71.931286 297.76045 71.929686 297.76245 A 4.8647279 2.5799957 7.9502074 0 1 71.801491 297.83862 C 71.768131 297.85742 71.735828 297.87636 71.697949 297.89136 C 71.696849 297.89436 71.694653 297.89912 71.690553 297.90112 L 71.656039 297.92066 C 71.644359 297.92466 71.637216 297.93303 71.626456 297.93823 L 71.606734 297.94995 C 71.599434 297.95495 71.5854 297.95962 71.57715 297.96362 L 71.554963 297.97534 L 71.540171 297.98511 L 72.681599 298.95386 A 2.2644367 1.687 0 0 0 72.52382 299.09058 L 69.915547 297.94995 A 2.9283685 2.32 0 0 0 69.789817 298.08472 A 1.4717576 1.166 0 0 0 69.703532 298.21558 L 72.289618 299.34644 A 2.2644367 1.687 0 0 0 72.208264 299.47144 L 70.558987 299.10425 L 70.558987 299.11011 C 70.560687 299.12251 70.559787 299.13337 70.558987 299.14527 L 70.551591 299.17652 A 0.32751838 0.21188844 31.2475 0 1 70.534334 299.22144 C 70.529034 299.22844 70.527073 299.23452 70.524473 299.24292 A 0.20893414 0.13517021 31.247499 0 0 70.509681 299.28589 L 70.502285 299.31714 A 0.44186746 0.28586673 31.2475 0 1 70.494889 299.34253 C 70.498789 299.34339 70.50495 299.34625 70.50475 299.35425 C 70.50645 299.36665 70.503185 299.37956 70.502285 299.39136 L 70.502285 299.39722 L 70.502285 299.40894 C 70.499985 299.41944 70.492758 299.42236 70.485028 299.42066 L 70.485028 299.42456 C 70.486428 299.43486 70.486059 299.44697 70.485028 299.45777 L 70.485028 299.49292 L 72.052951 299.84058 A 2.2644367 1.687 0 0 0 72.030763 299.96362 L 68.968877 299.96362 L 68.968877 300.36597 L 72.033228 300.36597 A 2.2644367 1.687 0 0 0 72.067742 300.50659 L 70.472702 300.86792 L 70.420931 301.28003 L 72.230451 300.86987 A 2.2644367 1.687 0 0 0 72.39316 301.07886 L 69.506309 302.53394 C 69.523979 302.55394 69.544081 302.57058 69.563011 302.59058 C 69.602141 302.63058 69.643182 302.67086 69.693671 302.70386 L 69.775026 302.76831 L 72.647085 301.32105 A 2.2644367 1.687 0 0 0 72.69146 301.35425 L 71.505657 302.34644 L 71.734929 302.71948 L 73.093302 301.58472 A 2.2644367 1.687 0 0 0 73.098232 301.58667 L 71.471143 303.94409 C 71.514063 303.95409 71.55396 303.96725 71.596873 303.97925 A 1.1486273 0.91 0 0 1 71.806422 304.05152 L 73.42365 301.70972 A 2.2644367 1.687 0 0 0 73.527192 301.74097 L 72.997155 303.25073 L 73.529657 303.20191 L 74.012854 301.823 A 2.2644367 1.687 0 0 0 74.059694 301.82495 L 74.064625 304.23902 L 74.572474 304.22925 L 74.567543 301.82105 A 2.2644367 1.687 0 0 0 74.688342 301.80737 L 75.176469 303.20191 L 75.708971 303.25073 L 75.164143 301.698 A 2.2644367 1.687 0 0 0 75.282476 301.66284 L 76.931753 304.05152 A 1.080467 0.856 0 0 1 77.141303 303.97925 C 77.184216 303.96725 77.224112 303.95409 77.267032 303.94409 L 75.598033 301.52222 A 2.2644367 1.687 0 0 0 75.662131 301.4812 L 77.005712 302.61987 L 77.506165 302.4773 L 76.022062 301.21948 A 2.2644367 1.687 0 0 0 76.184771 301.04956 L 79.278706 302.40112 L 79.3502 302.33277 A 0.90880402 0.72 0 0 0 79.468533 302.20972 L 79.517839 302.14917 L 76.490467 300.82495 L 78.477488 301.26636 L 78.423252 300.8562 L 76.507724 300.43042 A 2.2644367 1.687 0 0 0 76.517585 300.36597 L 84.517441 300.36597 L 84.517441 299.96362 L 76.524981 299.96362 A 2.2644367 1.687 0 0 0 76.51512 299.89722 L 78.415856 299.46558 L 78.467627 299.05542 L 76.379529 299.53003 A 2.2644367 1.687 0 0 0 76.340084 299.45972 L 79.199817 298.01831 A 1.4389397 1.14 0 0 0 79.09874 297.89331 A 2.870306 2.274 0 0 0 78.955754 297.76831 L 76.137931 299.19019 A 2.2644367 1.687 0 0 0 76.051646 299.1062 L 77.387831 297.98706 L 77.15856 297.61011 L 75.694179 298.83667 A 2.2644367 1.687 0 0 0 75.479699 298.72339 L 77.067344 296.42456 A 1.7418744 1.38 0 0 0 77.008177 296.39331 C 76.975357 296.37331 76.94623 296.35253 76.9071 296.34253 A 1.7103187 1.355 0 0 1 76.749322 296.29175 L 76.746857 296.29175 L 75.156747 298.59839 A 2.2644367 1.687 0 0 0 75.14442 298.59448 L 75.708971 296.98316 L 75.176469 297.03394 L 74.666155 298.48902 A 2.2644367 1.687 0 0 0 74.560147 298.4773 L 74.555217 295.98511 z M 80.85649 296.948 C 80.86529 296.956 80.874713 296.96458 80.886073 296.96558 L 80.886073 296.96167 A 0.0227201 0.018 0 0 0 80.871282 296.94995 C 80.868782 296.94895 80.862721 296.947 80.861421 296.948 L 80.85649 296.948 z M 67.992623 297.24487 C 67.990123 297.24487 67.985262 297.24483 67.982762 297.24683 A 0.02524456 0.02 0 0 0 67.970436 297.2605 L 67.970436 297.26441 C 67.980536 297.26241 67.989984 297.25287 67.997554 297.24487 L 67.992623 297.24487 z M 70.534334 299.09644 C 70.534864 299.10021 70.532904 299.10407 70.531869 299.10816 L 70.534334 299.1062 C 70.533631 299.1012 70.534464 299.09744 70.536799 299.09644 L 70.534334 299.09644 z M 70.480098 299.29175 L 70.480098 299.29956 A 0.04799839 0.03105262 31.247501 0 1 70.482563 299.29175 L 70.480098 299.29175 z M 70.758675 304.9773 L 70.758675 304.97925 L 70.736487 305.0105 L 70.788258 304.99683 A 0.19438308 0.154 0 0 1 70.758675 304.9773 z M 77.9795 304.9773 A 0.19438308 0.154 0 0 1 77.949917 304.99683 L 78.001688 305.0105 L 77.9795 304.97925 L 77.9795 304.9773 z " /></g><path
       style="display:inline;fill:#999999;stroke:#000000;stroke-width:0.999808;stroke-linecap:square;stroke-linejoin:miter;stroke-miterlimit:4;stroke-dasharray:none;stroke-opacity:1;paint-order:markers stroke fill"
       id="rect274-3-9-9-1"
       d="m 242.43936,167.3432 h 24.00021 v 39.00019 h -24.00021 z" /><rect
       style="display:inline;fill:#999999;stroke:#000000;stroke-width:0.999801;stroke-linecap:square;stroke-linejoin:miter;stroke-miterlimit:4;stroke-dasharray:none;stroke-opacity:1;paint-order:markers stroke fill"
       id="rect274-3-9-9-1-8"
       width="59.000248"
       height="84.000198"
       x="442.43951"
       y="17.34322"
       ry="0"
       onmouseover=""
       onmouseout="" /><rect
       style="display:inline;fill:#999999;stroke:#000000;stroke-width:1.00002;stroke-linecap:square;stroke-linejoin:miter;stroke-miterlimit:4;stroke-dasharray:none;stroke-opacity:1;paint-order:markers stroke fill"
       id="rect274-3-9-9-1-8-5"
       width="39.000015"
       height="118.99998"
       x="172.43939"
       y="17.343311"
       ry="0" /><rect
       style="display:inline;fill:#999999;stroke:#000000;stroke-width:1.00004;stroke-linecap:square;stroke-linejoin:miter;stroke-miterlimit:4;stroke-dasharray:none;stroke-opacity:1;paint-order:markers stroke fill"
       id="rect274-3-9-9-1-8-5-5"
       width="69.000008"
       height="28.999954"
       x="287.43951"
       y="102.34334"
       ry="0" /><rect
       style="display:inline;fill:#999999;stroke:#000000;stroke-width:0.999905;stroke-linecap:square;stroke-linejoin:miter;stroke-miterlimit:4;stroke-dasharray:none;stroke-opacity:1;paint-order:markers stroke fill"
       id="rect274-3-9-9-1-8-5-5-5"
       width="79.000153"
       height="4.0000949"
       x="282.43945"
       y="97.343246"
       ry="0" /><rect
       style="display:inline;fill:#999999;stroke:#000000;stroke-width:0.999904;stroke-linecap:square;stroke-linejoin:miter;stroke-miterlimit:4;stroke-dasharray:none;stroke-opacity:1;paint-order:markers stroke fill"
       id="rect274-3-9-9-1-8-5-5-2"
       width="14.000107"
       height="11.000097"
       x="314.93948"
       y="85.343277"
       ry="0" /><rect
       style="display:inline;fill:#999999;stroke:#000000;stroke-width:0.999963;stroke-linecap:square;stroke-linejoin:miter;stroke-miterlimit:4;stroke-dasharray:none;stroke-opacity:1;paint-order:markers stroke fill"
       id="rect274-3-9-9-1-8-5-5-6"
       width="69.000092"
       height="29.000036"
       x="287.43948"
       y="242.34328"
       ry="0" /><rect
       style="display:inline;fill:#999999;stroke:#000000;stroke-width:0.999983;stroke-linecap:square;stroke-linejoin:miter;stroke-miterlimit:4;stroke-dasharray:none;stroke-opacity:1;paint-order:markers stroke fill"
       id="rect274-3-9-9-1-8-5-5-6-4"
       width="39.000046"
       height="34.001369"
       x="172.43939"
       y="237.34331"
       ry="0" /><path
       style="display:inline;fill:#999999;stroke:#000000;stroke-width:0.999808;stroke-linecap:square;stroke-linejoin:miter;stroke-miterlimit:4;stroke-dasharray:none;stroke-opacity:1;paint-order:markers stroke fill"
       id="rect274-3-9-9-1-4"
       d="m 377.43949,167.3432 h 24.0002 v 39.00019 h -24.0002 z" /><path
       style="display:inline;fill:#999999;stroke:#000000;stroke-width:0.999808;stroke-linecap:square;stroke-linejoin:miter;stroke-miterlimit:4;stroke-dasharray:none;stroke-opacity:1;paint-order:markers stroke fill"
       id="rect274-3-9-9-1-7"
       d="m 117.43927,167.3432 h 24.00022 v 39.00019 h -24.00022 z" /><g
       id="rotary-pump"
       transform="translate(18.345112,-92.349523)"
       style="display:inline"
       inkscape:label="rotary-pump"><path
         id="rect3645"
         style="display:inline;fill:#999999;fill-opacity:1;stroke:#000000;stroke-width:1;stroke-dasharray:none;stroke-opacity:1;paint-order:markers stroke fill"
         d="m 227.59071,418.96317 v 1.80664 h 0.77344 v 8.23242 h -13.62109 v -0.60156 h -1.7168 v 11.75586 h 1.7168 v -0.73828 h 13.62109 v 19.91797 h -29.17773 v 13.21093 l -0.0898,0.002 v -8.44531 c 0,0 -20.07226,2.15212 -20.07226,5.01953 0,1.37366 -0.0341,2.79685 -0.0684,3.92382 l -0.041,0.002 c 0,0 -0.0131,1.16675 -0.0176,1.64062 -0.003,0.0816 -0.0156,0.45508 -0.0156,0.45508 h 0.0117 c -0.0229,2.36173 -0.0684,6.69851 -0.12305,8.93945 -0.0701,2.87581 19.57766,5.11845 20.41602,5.21289 v 5.70899 H 249.6083 V 459.3363 h -10.1289 v -19.91797 h 13.75 v 0.73828 h 1.71679 v -11.75586 h -1.71679 v 0.60156 h -13.75 v -8.23242 h 0.65429 v -1.80664 z m -23.88867,27.66016 c -0.35977,-4.7e-4 -0.77546,0.002 -1.26758,0.006 -1.96847,0.0149 -5.15856,0.0447 -6.79882,0.0449 -0.49932,6e-5 -0.85344,-0.002 -1.10743,0.0293 h -6.97656 v 7.3379 h 7.24805 v -0.0312 c 0.82763,-0.0259 2.35837,0.001 3.38476,0.0156 1.05878,0.0149 1.56701,0.0156 2.0293,0.0156 0.46229,0 0.87907,-6.4e-4 1.25195,0.0293 0.37289,0.0299 0.701,0.0907 1.10352,0.4043 0.40252,0.3136 0.87904,0.87888 1.11719,1.6543 0.23814,0.77541 0.23828,1.76092 0.23828,2.74414 l 9.93164,-0.17969 c 0.0298,-0.9236 0.0598,-1.84784 0.0449,-2.66797 -0.0148,-0.82013 -0.0732,-1.53569 -0.25195,-2.28125 -0.17877,-0.74556 -0.47738,-1.52137 -0.93946,-2.29687 -0.46207,-0.77551 -1.08831,-1.55196 -1.78906,-2.19336 -0.70075,-0.64141 -1.47618,-1.14674 -2.32617,-1.56446 -0.84999,-0.41771 -1.77418,-0.7459 -2.60938,-0.91015 -0.6264,-0.12319 -1.2039,-0.15485 -2.2832,-0.15625 z" /><path
         id="rect3687"
         style="fill:#4d4d4d;stroke-width:1.07682"
         d="M 224.12754 460.82413 C 223.96134 460.82413 223.82872 460.95871 223.82872 461.12491 L 223.82872 461.50773 C 223.82872 461.67393 223.96134 461.80851 224.12754 461.80851 L 248.52403 461.80851 C 248.69023 461.80851 248.82481 461.67393 248.82481 461.50773 L 248.82481 461.12491 C 248.82481 460.95871 248.69023 460.82413 248.52403 460.82413 L 224.12754 460.82413 z M 224.15879 462.48234 C 223.99259 462.48234 223.85801 462.61692 223.85801 462.78312 L 223.85801 463.16593 C 223.85801 463.33213 223.99259 463.46671 224.15879 463.46671 L 248.55528 463.46671 C 248.72148 463.46671 248.85606 463.33213 248.85606 463.16593 L 248.85606 462.78312 C 248.85606 462.61692 248.72148 462.48234 248.55528 462.48234 L 224.15879 462.48234 z M 224.21934 464.26359 C 224.05314 464.26359 223.92051 464.39817 223.92051 464.56437 L 223.92051 464.94718 C 223.92051 465.11338 224.05314 465.24796 224.21934 465.24796 L 248.61583 465.24796 C 248.78203 465.24796 248.91661 465.11338 248.91661 464.94718 L 248.91661 464.56437 C 248.91661 464.39817 248.78203 464.26359 248.61583 464.26359 L 224.21934 464.26359 z M 224.15879 465.92179 C 223.99259 465.92179 223.85801 466.05637 223.85801 466.22257 L 223.85801 466.60538 C 223.85801 466.77158 223.99259 466.90616 224.15879 466.90616 L 248.55528 466.90616 C 248.72148 466.90616 248.85606 466.77158 248.85606 466.60538 L 248.85606 466.22257 C 248.85606 466.05637 248.72148 465.92179 248.55528 465.92179 L 224.15879 465.92179 z M 224.09629 467.4589 C 223.93009 467.4589 223.79747 467.59153 223.79747 467.75773 L 223.79747 468.14054 C 223.79747 468.30674 223.93009 468.44132 224.09629 468.44132 L 248.49473 468.44132 C 248.66093 468.44132 248.79356 468.30674 248.79356 468.14054 L 248.79356 467.75773 C 248.79356 467.59153 248.66093 467.4589 248.49473 467.4589 L 224.09629 467.4589 z M 224.15879 469.0546 C 223.99259 469.0546 223.85801 469.18918 223.85801 469.35538 L 223.85801 469.73819 C 223.85801 469.90439 223.99259 470.03702 224.15879 470.03702 L 248.55528 470.03702 C 248.72148 470.03702 248.85606 469.90439 248.85606 469.73819 L 248.85606 469.35538 C 248.85606 469.18918 248.72148 469.0546 248.55528 469.0546 L 224.15879 469.0546 z M 224.19981 470.64444 C 224.03361 470.64444 223.89903 470.77903 223.89903 470.94523 L 223.89903 471.32804 C 223.89903 471.49424 224.03361 471.62882 224.19981 471.62882 L 248.59629 471.62882 C 248.76249 471.62882 248.89512 471.49424 248.89512 471.32804 L 248.89512 470.94523 C 248.89512 470.77903 248.76249 470.64444 248.59629 470.64444 L 224.19981 470.64444 z M 224.19981 472.2128 C 224.03361 472.2128 223.89903 472.34739 223.89903 472.51359 L 223.89903 472.8964 C 223.89903 473.0626 224.03361 473.19523 224.19981 473.19523 L 248.59629 473.19523 C 248.76249 473.19523 248.89512 473.0626 248.89512 472.8964 L 248.89512 472.51359 C 248.89512 472.34739 248.76249 472.2128 248.59629 472.2128 L 224.19981 472.2128 z M 224.14708 473.78116 C 223.98088 473.78116 223.84629 473.91379 223.84629 474.07999 L 223.84629 474.4628 C 223.84629 474.629 223.98088 474.76359 224.14708 474.76359 L 248.54356 474.76359 C 248.70976 474.76359 248.84434 474.629 248.84434 474.4628 L 248.84434 474.07999 C 248.84434 473.91379 248.70976 473.78116 248.54356 473.78116 L 224.14708 473.78116 z M 224.14708 475.34757 C 223.98088 475.34757 223.84629 475.48215 223.84629 475.64835 L 223.84629 476.03116 C 223.84629 476.19736 223.98088 476.33194 224.14708 476.33194 L 248.54356 476.33194 C 248.70976 476.33194 248.84434 476.19736 248.84434 476.03116 L 248.84434 475.64835 C 248.84434 475.48215 248.70976 475.34757 248.54356 475.34757 L 224.14708 475.34757 z M 224.14708 476.96866 C 223.98088 476.96866 223.84629 477.10324 223.84629 477.26944 L 223.84629 477.6503 C 223.84629 477.8165 223.98088 477.95109 224.14708 477.95109 L 248.54356 477.95109 C 248.70976 477.95109 248.84434 477.8165 248.84434 477.6503 L 248.84434 477.26944 C 248.84434 477.10324 248.70976 476.96866 248.54356 476.96866 L 224.14708 476.96866 z M 224.19981 478.64054 C 224.03361 478.64054 223.89903 478.77512 223.89903 478.94132 L 223.89903 479.32413 C 223.89903 479.49033 224.03361 479.62296 224.19981 479.62296 L 248.59629 479.62296 C 248.76249 479.62296 248.89512 479.49033 248.89512 479.32413 L 248.89512 478.94132 C 248.89512 478.77512 248.76249 478.64054 248.59629 478.64054 L 224.19981 478.64054 z M 224.19981 480.15616 C 224.03361 480.15616 223.89903 480.29074 223.89903 480.45694 L 223.89903 480.83976 C 223.89903 481.00596 224.03361 481.13859 224.19981 481.13859 L 248.59629 481.13859 C 248.76249 481.13859 248.89512 481.00596 248.89512 480.83976 L 248.89512 480.45694 C 248.89512 480.29074 248.76249 480.15616 248.59629 480.15616 L 224.19981 480.15616 z M 224.2252 481.82804 C 224.059 481.82804 223.92637 481.96262 223.92637 482.12882 L 223.92637 482.51163 C 223.92637 482.67783 224.059 482.81046 224.2252 482.81046 L 248.62168 482.81046 C 248.78788 482.81046 248.92247 482.67783 248.92247 482.51163 L 248.92247 482.12882 C 248.92247 481.96262 248.78788 481.82804 248.62168 481.82804 L 224.2252 481.82804 z M 224.2252 483.3964 C 224.059 483.3964 223.92637 483.52903 223.92637 483.69523 L 223.92637 484.07804 C 223.92637 484.24424 224.059 484.37882 224.2252 484.37882 L 248.62168 484.37882 C 248.78788 484.37882 248.92247 484.24424 248.92247 484.07804 L 248.92247 483.69523 C 248.92247 483.52903 248.78788 483.3964 248.62168 483.3964 L 224.2252 483.3964 z M 224.2252 485.01554 C 224.059 485.01554 223.92637 485.15012 223.92637 485.31632 L 223.92637 485.69913 C 223.92637 485.86533 224.059 485.99796 224.2252 485.99796 L 248.62168 485.99796 C 248.78788 485.99796 248.92247 485.86533 248.92247 485.69913 L 248.92247 485.31632 C 248.92247 485.15012 248.78788 485.01554 248.62168 485.01554 L 224.2252 485.01554 z M 224.27793 486.63663 C 224.11173 486.63663 223.97715 486.76926 223.97715 486.93546 L 223.97715 487.31827 C 223.97715 487.48447 224.11173 487.61905 224.27793 487.61905 L 248.67442 487.61905 C 248.84062 487.61905 248.9752 487.48447 248.9752 487.31827 L 248.9752 486.93546 C 248.9752 486.76926 248.84062 486.63663 248.67442 486.63663 L 224.27793 486.63663 z M 224.17247 488.20304 C 224.00627 488.20304 223.87364 488.33762 223.87364 488.50382 L 223.87364 488.88663 C 223.87364 489.05283 224.00627 489.18546 224.17247 489.18546 L 248.56895 489.18546 C 248.73515 489.18546 248.86973 489.05283 248.86973 488.88663 L 248.86973 488.50382 C 248.86973 488.33762 248.73515 488.20304 248.56895 488.20304 L 224.17247 488.20304 z M 224.30333 489.7714 C 224.13713 489.7714 224.0045 489.90598 224.0045 490.07218 L 224.0045 490.45499 C 224.0045 490.62119 224.13713 490.75382 224.30333 490.75382 L 248.69981 490.75382 C 248.86601 490.75382 249.00059 490.62119 249.00059 490.45499 L 249.00059 490.07218 C 249.00059 489.90598 248.86601 489.7714 248.69981 489.7714 L 224.30333 489.7714 z M 224.30333 491.39054 C 224.13713 491.39054 224.0045 491.52512 224.0045 491.69132 L 224.0045 492.07413 C 224.0045 492.24033 224.13713 492.37491 224.30333 492.37491 L 248.69981 492.37491 C 248.86601 492.37491 249.00059 492.24033 249.00059 492.07413 L 249.00059 491.69132 C 249.00059 491.52512 248.86601 491.39054 248.69981 491.39054 L 224.30333 491.39054 z M 224.35606 493.01163 C 224.18986 493.01163 224.05528 493.14426 224.05528 493.31046 L 224.05528 493.69327 C 224.05528 493.85947 224.18986 493.99405 224.35606 493.99405 L 248.75254 493.99405 C 248.91874 493.99405 249.05333 493.85947 249.05333 493.69327 L 249.05333 493.31046 C 249.05333 493.14426 248.91874 493.01163 248.75254 493.01163 L 224.35606 493.01163 z " /><path
         style="display:inline;fill:#ff0000;stroke:#000000;stroke-width:1;stroke-dasharray:none;stroke-opacity:1;paint-order:markers stroke fill"
         id="rect3667"
         d="m 201.25661,459.32928 h 20.3945 v 35.64232 h -20.3945 z" /><path
         id="path3669"
         style="display:inline;fill:#333333;stroke:#000000;stroke-width:0.5;stroke-dasharray:none;stroke-opacity:1;paint-order:markers stroke fill"
         d="M 220.01426 459.80851 C 219.75152 459.80969 219.48819 459.81714 219.46934 459.82804 C 219.43173 459.84987 218.93009 460.72614 218.93028 460.76944 C 218.93048 460.81277 219.43925 461.68349 219.47715 461.70499 C 219.51496 461.72629 220.5294 461.72093 220.567 461.69913 C 220.60462 461.6773 221.10626 460.80298 221.10606 460.75968 C 221.10586 460.71636 220.59698 459.84368 220.55918 459.82218 C 220.54028 459.81153 220.27701 459.80732 220.01426 459.80851 z M 203.41075 459.90421 C 203.148 459.90546 202.88663 459.91349 202.86778 459.92569 C 202.83017 459.95004 202.32657 460.92622 202.32676 460.97452 C 202.32696 461.02285 202.83769 461.99359 202.87559 462.01749 C 202.9134 462.04189 203.92588 462.03603 203.96348 462.01163 C 204.0011 461.98729 204.5047 461.0111 204.5045 460.9628 C 204.5043 460.91448 203.99347 459.94373 203.95567 459.91984 C 203.93676 459.90764 203.67349 459.90296 203.41075 459.90421 z M 219.73301 475.32023 C 219.45889 475.32144 219.1843 475.32831 219.16465 475.33976 C 219.12541 475.36265 218.60195 476.28069 218.60215 476.32609 C 218.60235 476.37152 219.13492 477.28405 219.17442 477.30655 C 219.21387 477.32915 220.27194 477.32555 220.31114 477.30265 C 220.35039 477.27976 220.87384 476.36172 220.87364 476.31632 C 220.87343 476.27089 220.34077 475.3564 220.30137 475.3339 C 220.28165 475.3226 220.00714 475.31901 219.73301 475.32023 z M 203.13536 475.40226 C 202.86123 475.40347 202.58665 475.41034 202.567 475.42179 C 202.52776 475.44468 202.0043 476.36272 202.0045 476.40812 C 202.0047 476.45356 202.53726 477.36609 202.57676 477.38859 C 202.61621 477.41118 203.67233 477.40758 203.71153 477.38468 C 203.75078 477.36179 204.27618 476.44375 204.27598 476.39835 C 204.27577 476.35292 203.74312 475.43843 203.70372 475.41593 C 203.68399 475.40463 203.40948 475.40104 203.13536 475.40226 z M 202.72715 492.24601 C 202.45303 492.24722 202.17844 492.25409 202.15879 492.26554 C 202.11955 492.28843 201.59414 493.20647 201.59434 493.25187 C 201.59454 493.29731 202.12906 494.20984 202.16856 494.23234 C 202.20801 494.25493 203.26413 494.24938 203.30333 494.22648 C 203.34258 494.20359 203.86798 493.28555 203.86778 493.24015 C 203.86757 493.19472 203.33491 492.28218 203.29551 492.25968 C 203.27579 492.24838 203.00128 492.24479 202.72715 492.24601 z M 219.89708 492.32609 C 219.62295 492.3273 219.34837 492.33417 219.32872 492.34562 C 219.28948 492.36851 218.76602 493.28654 218.76622 493.33194 C 218.76642 493.37738 219.29898 494.29187 219.33848 494.31437 C 219.37793 494.33697 220.43405 494.33141 220.47325 494.30851 C 220.5125 494.28562 221.0379 493.36758 221.0377 493.32218 C 221.03749 493.27675 220.50483 492.36421 220.46543 492.34171 C 220.44571 492.33041 220.1712 492.32487 219.89708 492.32609 z " /></g><g
       id="diffusion-pump-1"
       transform="translate(18.041292,-92.310183)"><path
         id="path1569"
         style="display:inline;fill:#333333;stroke:#000000;stroke-width:1.80917;stroke-dasharray:none;stroke-opacity:1;paint-order:markers stroke fill"
         d="m 467.86263,363.85709 v 24.71405 h -0.14467 c 0.0964,1.88 0.18904,3.75847 0.28542,5.17977 0.0964,1.42129 0.19296,2.38545 0.57866,3.49362 0.3857,1.10816 1.06273,2.36218 1.97838,3.39783 0.91565,1.03564 2.07208,1.85395 3.42112,2.67291 1.34903,0.81895 2.89167,1.63908 4.74656,2.60265 1.85489,0.96357 4.02112,2.07168 6.04463,3.05932 2.02352,0.98764 3.90356,1.85487 5.49334,3.01142 1.58977,1.15654 2.88906,2.59929 4.09361,3.75548 1.20455,1.1562 2.31178,2.02346 2.88938,3.32438 0.38044,0.85685 0.5229,1.8852 0.57475,2.74636 -0.008,0.0857 -0.0313,0.16797 -0.0313,0.25547 v 11.26008 h -9.91147 v -8.79474 c 0,-0.43117 -0.42611,-0.7792 -0.954,-0.7792 h -17.34019 c -0.52789,0 -0.95009,0.34803 -0.95009,0.7792 v 23.28658 c 0,0.43117 0.4222,0.7792 0.95009,0.7792 h 17.34019 c 0.52789,0 0.954,-0.34803 0.954,-0.7792 v -4.38459 h 9.91147 v 6.77967 c 0,1.81163 1.78565,3.27009 4.00369,3.27009 h 32.20934 c 2.21805,0 4.00369,-1.45846 4.00369,-3.27009 v -26.65247 c 0.17348,-0.12902 0.16482,-0.32297 0.1564,-0.6323 -0.0236,-0.8667 0.0245,-2.60146 0.60211,-3.90238 0.5776,-1.30092 1.68483,-2.16818 2.88938,-3.32438 1.20455,-1.1562 2.50776,-2.60214 4.09752,-3.75868 1.58978,-1.15655 3.46592,-2.02378 5.48943,-3.01141 2.02351,-0.98764 4.19366,-2.09575 6.04854,-3.05932 1.85489,-0.96357 3.39753,-1.78052 4.74656,-2.59946 1.34904,-0.81896 2.50547,-1.64046 3.42112,-2.67611 0.91565,-1.03565 1.58878,-2.28647 1.97448,-3.39463 0.38569,-1.10817 0.48225,-2.07234 0.57865,-3.49362 0.0964,-1.4213 0.19293,-3.29977 0.28933,-5.17977 h -0.2776 v -24.67573 z"
         transform="matrix(0.49954,0,0,0.6116,45.157147,141.13509)" /></g><g
       id="diffusion-pump-2"
       transform="translate(18.041292,-92.310183)"><path
         id="rect1380"
         style="display:inline;fill:#333333;stroke:#000000;stroke-width:1;stroke-linecap:square;stroke-dasharray:none;stroke-opacity:1;paint-order:markers stroke fill"
         d="m 404.08524,364.39335 v 24.7168 h -0.14453 c 0.0964,1.88 0.19268,3.75839 0.28906,5.17968 0.0964,1.42129 0.19242,2.38402 0.57812,3.49219 0.3857,1.10816 1.06092,2.36084 1.97657,3.39649 0.91565,1.03565 2.07283,1.85487 3.42187,2.67382 1.34903,0.81895 2.88925,1.638 4.74414,2.60157 1.85489,0.96357 4.02337,2.07291 6.04688,3.06054 2.02351,0.98764 3.90241,1.85322 5.49218,3.00977 1.58977,1.15654 2.89116,2.60357 4.09571,3.75977 1.20455,1.15619 2.31302,2.0233 2.89062,3.32421 0.31995,0.72061 0.46818,1.56267 0.54102,2.32813 v 11.92969 h -9.58789 v -9.09571 c 0,-0.2637 -0.21286,-0.47461 -0.47657,-0.47461 h -9.26562 c -0.2637,0 -0.47656,0.21091 -0.47656,0.47461 v 23.89258 c 0,0.26371 0.21286,0.47656 0.47656,0.47656 h 9.26562 c 0.26371,0 0.47657,-0.21285 0.47657,-0.47656 v -4.68555 h 9.58789 v 8.04883 c 0,1.108 0.892,2 2,2 h 36.21679 c 1.108,0 2,-0.892 2,-2 v -27.91601 c 0.18088,-0.12887 0.16479,-0.32724 0.15625,-0.64063 -0.0236,-0.8667 0.0259,-2.60142 0.60352,-3.90234 0.5776,-1.30092 1.68608,-2.16802 2.89063,-3.32422 1.20454,-1.1562 2.50398,-2.60127 4.09375,-3.75781 1.58977,-1.15655 3.46866,-2.02408 5.49218,-3.01172 2.02351,-0.98764 4.19199,-2.09503 6.04688,-3.0586 1.85489,-0.96356 3.39706,-1.78261 4.74609,-2.60156 1.34904,-0.81896 2.50427,-1.63818 3.41992,-2.67383 0.91565,-1.03564 1.59087,-2.28832 1.97657,-3.39648 0.3857,-1.10817 0.48172,-2.0709 0.57812,-3.49219 0.0964,-1.4213 0.19266,-3.30164 0.28906,-5.18164 h -0.27734 v -24.67578 z"
         transform="translate(0.03455891,-0.51835043)" /></g><g
       id="detection-chamber"
       style="display:inline"
       transform="translate(18.041292,-92.310183)"><path
         style="display:inline;fill:#999999;stroke:#000000;stroke-width:0.999901;stroke-linecap:square;stroke-linejoin:miter;stroke-dasharray:none;stroke-opacity:1;paint-order:markers stroke fill"
         id="rect274-3-9-0"
         d="m 124.39795,229.65344 h 99.0001 v 99.0001 h -99.0001 z" /><path
         id="path15021"
         style="display:inline;opacity:1;fill:#808080;fill-opacity:1;stroke:#000000;stroke-width:1;stroke-linecap:square;stroke-linejoin:miter;stroke-miterlimit:4;stroke-dasharray:none;stroke-opacity:1;paint-order:markers stroke fill"
         d="M -99.687134 -5.0978063 L -105.51885 -5.0001938 L -108.34711 0.098179503 L -105.34866 5.0989404 L -99.516938 4.998825 L -96.68868 -0.097045396 L -99.687134 -5.0978063 z M 2.8309671 -5.0978063 L -3.000751 -5.0001938 L -5.8290092 0.098179503 L -2.8305549 5.0989404 L 3.0011632 4.998825 L 5.8294213 -0.097045396 L 2.8309671 -5.0978063 z M -99.687134 97.420295 L -105.51885 97.517907 L -108.34711 102.61628 L -105.34866 107.61704 L -99.516938 107.51693 L -96.68868 102.42106 L -99.687134 97.420295 z M 2.8309671 97.420295 L -3.000751 97.517907 L -5.8290092 102.61628 L -2.8305549 107.61704 L 3.0011632 107.51693 L 5.8294213 102.42106 L 2.8309671 97.420295 z "
         transform="matrix(0.78035,0,0,0.78035,213.898,239.15349)" /></g><g
       id="doping-chamber"
       style="display:inline"
       transform="translate(18.041292,-92.310183)"><path
         style="display:inline;fill:#999999;stroke:#000000;stroke-width:1.00001;stroke-linecap:square;stroke-linejoin:miter;stroke-dasharray:none;stroke-opacity:1;paint-order:markers stroke fill"
         id="rect274-3-9"
         d="M 249.39799,224.65349 H 358.398 V 333.65348 H 249.39799 Z" /><path
         id="path15021-1"
         style="display:inline;fill:#808080;fill-opacity:1;stroke:#000000;stroke-width:1;stroke-linecap:square;stroke-linejoin:miter;stroke-miterlimit:4;stroke-dasharray:none;stroke-opacity:1;paint-order:markers stroke fill"
         d="M 2.8309671 -120.43067 L -3.000751 -120.33306 L -5.8290092 -115.23468 L -2.8305549 -110.23392 L 3.0011632 -110.33404 L 5.8294213 -115.42991 L 2.8309671 -120.43067 z M 118.16383 -120.43067 L 112.33211 -120.33306 L 109.50385 -115.23468 L 112.50231 -110.23392 L 118.33403 -110.33404 L 121.16228 -115.42991 L 118.16383 -120.43067 z M 2.8309671 -5.0978063 L -3.000751 -5.0001938 L -5.8290092 0.098179503 L -2.8305549 5.0989404 L 3.0011632 4.998825 L 5.8294213 -0.097045396 L 2.8309671 -5.0978063 z M 118.16383 -5.0978063 L 112.33211 -5.0001938 L 109.50385 0.098179503 L 112.50231 5.0989404 L 118.33403 4.998825 L 121.16228 -0.097045396 L 118.16383 -5.0978063 z "
         transform="matrix(0.78035,0,0,0.78035,258.898,324.15349)" /></g><g
       id="source-chamber"
       onmouseover=""
       style="display:inline"
       transform="translate(18.041292,-92.310183)"><path
         style="display:inline;fill:#999999;stroke:#000000;stroke-width:1.00012;stroke-linecap:square;stroke-linejoin:miter;stroke-dasharray:none;stroke-opacity:1;paint-order:markers stroke fill"
         id="rect274-3-9-7"
         d="M 384.39807,194.65355 H 523.39795 V 363.65343 H 384.39807 Z" /><path
         id="path15021-17"
         style="display:inline;fill:#808080;fill-opacity:1;stroke:#000000;stroke-width:0.78035;stroke-linecap:square;stroke-linejoin:miter;stroke-miterlimit:4;stroke-dasharray:none;stroke-opacity:1;paint-order:markers stroke fill"
         d="M 396.10715 200.17542 L 391.55636 200.25159 L 389.34933 204.2301 L 391.68918 208.13245 L 396.23996 208.05432 L 398.44699 204.07776 L 396.10715 200.17542 z M 516.10715 200.17542 L 511.55636 200.25159 L 509.34933 204.2301 L 511.68918 208.13245 L 516.23996 208.05432 L 518.44699 204.07776 L 516.10715 200.17542 z M 396.10715 350.17542 L 391.55636 350.25159 L 389.34933 354.2301 L 391.68918 358.13245 L 396.23996 358.05432 L 398.44699 354.07776 L 396.10715 350.17542 z M 516.10715 350.17542 L 511.55636 350.25159 L 509.34933 354.2301 L 511.68918 358.13245 L 516.23996 358.05432 L 518.44699 354.07776 L 516.10715 350.17542 z " /></g><g
       id="ion-gauge-3"
       style="display:inline"
       transform="translate(283.0567,-127.5205)"><path
         style="fill:#999999;fill-opacity:1;stroke:#000000;stroke-opacity:1;paint-order:markers stroke fill"
         id="rect445"
         d="m 133.93692,218.85104 h 10.07635 v 10.24154 h -10.07635 z" /><path
         style="display:inline;fill:#333333;fill-opacity:1;stroke:#000000;stroke-width:1;stroke-dasharray:none;stroke-opacity:1;paint-order:markers stroke fill"
         id="rect447"
         d="m 128.65096,189.15913 h 20.48308 v 29.6919 h -20.48308 z" /><path
         id="rect451"
         style="fill:#ffd42a;stroke-width:0.884725"
         d="M 128.95502 189.13183 C 128.78882 189.13183 128.65424 189.26446 128.65424 189.43066 L 128.65424 218.42284 C 128.65424 218.58904 128.78882 218.72362 128.95502 218.72362 L 132.31439 218.72362 C 132.48059 218.72362 132.61517 218.58904 132.61517 218.42284 L 132.61517 189.43066 C 132.61517 189.26446 132.48059 189.13183 132.31439 189.13183 L 128.95502 189.13183 z M 145.46674 189.13183 C 145.30054 189.13183 145.16791 189.26446 145.16791 189.43066 L 145.16791 218.4873 C 145.16791 218.6535 145.30054 218.78808 145.46674 218.78808 L 148.91596 218.78808 C 149.08216 218.78808 149.21478 218.6535 149.21478 218.4873 L 149.21478 189.43066 C 149.21478 189.26446 149.08216 189.13183 148.91596 189.13183 L 145.46674 189.13183 z M 134.59955 204.79589 C 134.43335 204.79589 134.30072 204.93047 134.30072 205.09667 L 134.30072 208.40331 C 134.30072 208.56951 134.43335 208.70409 134.59955 208.70409 L 138.23822 208.70409 C 138.40442 208.70409 138.539 208.56951 138.539 208.40331 L 138.539 205.09667 C 138.539 204.93047 138.40442 204.79589 138.23822 204.79589 L 134.59955 204.79589 z M 139.5683 204.82909 C 139.4021 204.82909 139.26752 204.96367 139.26752 205.12987 L 139.26752 208.43652 C 139.26752 208.60271 139.4021 208.7373 139.5683 208.7373 L 143.20697 208.7373 C 143.37317 208.7373 143.5058 208.60271 143.5058 208.43652 L 143.5058 205.12987 C 143.5058 204.96367 143.37317 204.82909 143.20697 204.82909 L 139.5683 204.82909 z M 134.53314 209.59862 C 134.36694 209.59862 134.23432 209.73125 134.23432 209.89745 L 134.23432 213.20605 C 134.23432 213.37225 134.36694 213.50683 134.53314 213.50683 L 138.17182 213.50683 C 138.33802 213.50683 138.4726 213.37225 138.4726 213.20605 L 138.4726 209.89745 C 138.4726 209.73125 138.33802 209.59862 138.17182 209.59862 L 134.53314 209.59862 z M 139.63275 209.59862 C 139.46655 209.59862 139.33392 209.73125 139.33392 209.89745 L 139.33392 213.20605 C 139.33392 213.37225 139.46655 213.50683 139.63275 213.50683 L 143.27142 213.50683 C 143.43762 213.50683 143.57221 213.37225 143.57221 213.20605 L 143.57221 209.89745 C 143.57221 209.73125 143.43762 209.59862 143.27142 209.59862 L 139.63275 209.59862 z " /><rect
         style="fill:#000000"
         id="rect463"
         width="8.742321"
         height="9.4046173"
         x="134.49886"
         y="191.55077"
         rx="0.30000001"
         ry="0.30000001" /><path
         style="display:inline;fill:#000000"
         id="path465"
         d="m 76.154502,210.04994 -1.171932,-0.74241 1.228914,-0.64372 z"
         transform="translate(64.844561,-1.4086983)" /><path
         style="display:inline;fill:none;fill-rule:evenodd;stroke:#000000"
         id="path467"
         d="m 74.566543,206.06313 c 0.294473,-1.06746 1.43273,-1.7135 2.500193,-1.41903 1.067463,0.29448 1.7135,1.43273 1.419028,2.5002 -0.294473,1.06746 -1.432729,1.7135 -2.500193,1.41902"
         transform="matrix(0.7099,0,0,0.61717,87.016129,79.259272)" /><path
         id="rect469"
         style="display:inline;fill:#000000"
         d="M 142.52338 210.23925 C 142.35718 210.23925 142.22455 210.37383 142.22455 210.54003 L 142.22455 211.68066 L 140.80463 211.68066 C 140.76374 211.68066 140.72681 211.6894 140.69135 211.70409 L 140.68939 211.37011 L 139.51752 212.18652 L 140.69916 212.98339 L 140.69721 212.62987 C 140.7311 212.64309 140.76595 212.65136 140.80463 212.65136 L 142.69916 212.65136 C 142.82757 212.65136 142.93745 212.57098 142.98041 212.458 C 143.0104 212.41128 143.02728 212.35576 143.02728 212.29589 L 143.02728 210.54003 C 143.02728 210.37383 142.89466 210.23925 142.72846 210.23925 L 142.52338 210.23925 z " /><path
         id="path475"
         style="display:inline;fill:#000000"
         d="M 136.3808 205.05956 L 135.33392 206.89355 L 135.91791 206.89159 C 135.89539 206.93374 135.88275 206.98286 135.88275 207.03417 L 135.88275 208.09862 C 135.88275 208.26482 136.01733 208.39745 136.18353 208.39745 L 136.59174 208.39745 C 136.75794 208.39745 136.89057 208.26482 136.89057 208.09862 L 136.89057 207.03417 C 136.89057 206.98124 136.87733 206.93077 136.85346 206.88769 L 137.44721 206.88573 L 136.3808 205.05956 z " /><path
         id="path481"
         style="display:inline;fill:#000000"
         d="M 136.13275 209.90136 C 135.96655 209.90136 135.83197 210.03594 135.83197 210.20214 L 135.83197 211.26659 C 135.83197 211.31853 135.84604 211.36666 135.86908 211.40917 L 135.28314 211.40722 L 136.33197 213.2412 L 137.39642 211.41503 L 136.80267 211.41308 C 136.82703 211.36967 136.84174 211.3201 136.84174 211.26659 L 136.84174 210.20214 C 136.84174 210.03594 136.70716 209.90136 136.54096 209.90136 L 136.13275 209.90136 z " /></g><g
       id="ion-gauge-2"
       style="display:inline"
       transform="translate(133.53541,-97.269378)"><path
         style="fill:#999999;fill-opacity:1;stroke:#000000;stroke-opacity:1;paint-order:markers stroke fill"
         id="rect716"
         d="m 133.93692,218.85104 h 10.07635 v 10.24154 h -10.07635 z" /><path
         style="display:inline;fill:#333333;fill-opacity:1;stroke:#000000;stroke-width:1;stroke-dasharray:none;stroke-opacity:1;paint-order:markers stroke fill"
         id="rect718"
         d="m 128.65096,189.15913 h 20.48308 v 29.6919 h -20.48308 z" /><path
         id="rect722"
         style="fill:#ffd42a;stroke-width:0.884725"
         d="M 128.95482 189.13071 C 128.78862 189.13071 128.65404 189.26529 128.65404 189.43149 L 128.65404 218.42367 C 128.65404 218.58987 128.78862 218.7225 128.95482 218.7225 L 132.31615 218.7225 C 132.48235 218.7225 132.61498 218.58987 132.61498 218.42367 L 132.61498 189.43149 C 132.61498 189.26529 132.48235 189.13071 132.31615 189.13071 L 128.95482 189.13071 z M 145.46654 189.13071 C 145.30034 189.13071 145.16771 189.26529 145.16771 189.43149 L 145.16771 218.48813 C 145.16771 218.65433 145.30034 218.78696 145.46654 218.78696 L 148.91576 218.78696 C 149.08196 218.78696 149.21459 218.65433 149.21459 218.48813 L 149.21459 189.43149 C 149.21459 189.26529 149.08196 189.13071 148.91576 189.13071 L 145.46654 189.13071 z M 134.59936 204.79672 C 134.43316 204.79672 134.30053 204.9313 134.30053 205.0975 L 134.30053 208.40414 C 134.30053 208.57034 134.43316 208.70492 134.59936 208.70492 L 138.23803 208.70492 C 138.40423 208.70492 138.53881 208.57034 138.53881 208.40414 L 138.53881 205.0975 C 138.53881 204.9313 138.40423 204.79672 138.23803 204.79672 L 134.59936 204.79672 z M 139.56811 204.82992 C 139.40191 204.82992 139.26732 204.96451 139.26732 205.13071 L 139.26732 208.43735 C 139.26732 208.60355 139.40191 208.73813 139.56811 208.73813 L 143.20678 208.73813 C 143.37298 208.73813 143.50561 208.60355 143.50561 208.43735 L 143.50561 205.13071 C 143.50561 204.96451 143.37298 204.82992 143.20678 204.82992 L 139.56811 204.82992 z M 134.5349 209.5975 C 134.3687 209.5975 134.23412 209.73208 134.23412 209.89828 L 134.23412 213.20688 C 134.23412 213.37308 134.3687 213.50571 134.5349 213.50571 L 138.17357 213.50571 C 138.33977 213.50571 138.4724 213.37308 138.4724 213.20688 L 138.4724 209.89828 C 138.4724 209.73208 138.33977 209.5975 138.17357 209.5975 L 134.5349 209.5975 z M 139.63451 209.5975 C 139.46831 209.5975 139.33373 209.73208 139.33373 209.89828 L 139.33373 213.20688 C 139.33373 213.37308 139.46831 213.50571 139.63451 213.50571 L 143.27318 213.50571 C 143.43938 213.50571 143.57201 213.37308 143.57201 213.20688 L 143.57201 209.89828 C 143.57201 209.73208 143.43938 209.5975 143.27318 209.5975 L 139.63451 209.5975 z " /><rect
         style="fill:#000000"
         id="rect734"
         width="8.742321"
         height="9.4046173"
         x="134.49886"
         y="191.55077"
         rx="0.30000001"
         ry="0.30000001" /><path
         style="display:inline;fill:#000000"
         id="path736"
         d="m 76.154502,210.04994 -1.171932,-0.74241 1.228914,-0.64372 z"
         transform="translate(64.844561,-1.4086983)" /><path
         style="display:inline;fill:none;fill-rule:evenodd;stroke:#000000"
         id="path738"
         d="m 74.566543,206.06313 c 0.294473,-1.06746 1.43273,-1.7135 2.500193,-1.41903 1.067463,0.29448 1.7135,1.43273 1.419028,2.5002 -0.294473,1.06746 -1.432729,1.7135 -2.500193,1.41902"
         transform="matrix(0.7099,0,0,0.61717,87.016129,79.259272)" /><path
         id="rect740"
         style="display:inline;fill:#000000"
         d="M 142.52318 210.24008 C 142.35698 210.24008 142.22436 210.37466 142.22436 210.54086 L 142.22436 211.68149 L 140.80639 211.68149 C 140.76639 211.68149 140.72794 211.68889 140.69311 211.70297 L 140.69115 211.37094 L 139.51732 212.18539 L 140.69896 212.98422 L 140.69701 212.63071 C 140.73091 212.64392 140.7677 212.65219 140.80639 212.65219 L 142.70092 212.65219 C 142.82933 212.65219 142.93725 212.57181 142.98021 212.45883 C 143.0102 212.41211 143.02709 212.35659 143.02709 212.29672 L 143.02709 210.54086 C 143.02709 210.37466 142.89446 210.24008 142.72826 210.24008 L 142.52318 210.24008 z " /><path
         id="path746"
         style="display:inline;fill:#000000"
         d="M 136.38256 205.05844 L 135.33373 206.89438 L 135.91967 206.89242 C 135.89714 206.93458 135.88256 206.98173 135.88256 207.03305 L 135.88256 208.0975 C 135.88256 208.2637 136.01714 208.39828 136.18334 208.39828 L 136.59154 208.39828 C 136.75774 208.39828 136.89232 208.2637 136.89232 208.0975 L 136.89232 207.03305 C 136.89232 206.9796 136.87757 206.92994 136.85326 206.88657 L 137.44701 206.88461 L 136.38256 205.05844 z " /><path
         id="path752"
         style="display:inline;fill:#000000"
         d="M 136.13256 209.90219 C 135.96636 209.90219 135.83178 210.03677 135.83178 210.20297 L 135.83178 211.26742 C 135.83178 211.31874 135.84636 211.36589 135.86889 211.40805 L 135.28295 211.4061 L 136.33178 213.24203 L 137.39623 211.41586 L 136.80248 211.41391 C 136.82684 211.3705 136.84154 211.32093 136.84154 211.26742 L 136.84154 210.20297 C 136.84154 210.03677 136.70696 209.90219 136.54076 209.90219 L 136.13256 209.90219 z " /></g><g
       id="ion-gauge-1"
       style="display:inline"
       transform="translate(17.879312,-92.380823)"><path
         style="fill:#999999;fill-opacity:1;stroke:#000000;stroke-opacity:1;paint-order:markers stroke fill"
         id="rect766"
         d="m 133.93692,218.85104 h 10.07635 v 10.24154 h -10.07635 z" /><path
         style="display:inline;fill:#333333;fill-opacity:1;stroke:#000000;stroke-width:1;stroke-dasharray:none;stroke-opacity:1;paint-order:markers stroke fill"
         id="rect768"
         d="m 128.65096,189.15913 h 20.48308 v 29.6919 h -20.48308 z" /><path
         id="rect772"
         style="fill:#ffd42a;stroke-width:0.884725"
         d="M 128.95467 189.13082 C 128.78847 189.13082 128.65389 189.2654 128.65389 189.4316 L 128.65389 218.42379 C 128.65389 218.58999 128.78847 218.72262 128.95467 218.72262 L 132.316 218.72262 C 132.4822 218.72262 132.61483 218.58999 132.61483 218.42379 L 132.61483 189.4316 C 132.61483 189.2654 132.4822 189.13082 132.316 189.13082 L 128.95467 189.13082 z M 145.46639 189.13082 C 145.30019 189.13082 145.16756 189.2654 145.16756 189.4316 L 145.16756 218.48824 C 145.16756 218.65444 145.30019 218.78707 145.46639 218.78707 L 148.91561 218.78707 C 149.08181 218.78707 149.21444 218.65444 149.21444 218.48824 L 149.21444 189.4316 C 149.21444 189.2654 149.08181 189.13082 148.91561 189.13082 L 145.46639 189.13082 z M 134.5992 204.79684 C 134.433 204.79684 134.30038 204.93142 134.30038 205.09762 L 134.30038 208.40426 C 134.30038 208.57046 134.433 208.70504 134.5992 208.70504 L 138.23983 208.70504 C 138.40603 208.70504 138.53866 208.57046 138.53866 208.40426 L 138.53866 205.09762 C 138.53866 204.93142 138.40603 204.79684 138.23983 204.79684 L 134.5992 204.79684 z M 139.56795 204.83004 C 139.40175 204.83004 139.26717 204.96267 139.26717 205.12887 L 139.26717 208.43746 C 139.26717 208.60366 139.40175 208.73824 139.56795 208.73824 L 143.20663 208.73824 C 143.37283 208.73824 143.50545 208.60366 143.50545 208.43746 L 143.50545 205.12887 C 143.50545 204.96267 143.37283 204.83004 143.20663 204.83004 L 139.56795 204.83004 z M 134.53475 209.59762 C 134.36855 209.59762 134.23397 209.7322 134.23397 209.8984 L 134.23397 213.20504 C 134.23397 213.37124 134.36855 213.50582 134.53475 213.50582 L 138.17342 213.50582 C 138.33962 213.50582 138.47225 213.37124 138.47225 213.20504 L 138.47225 209.8984 C 138.47225 209.7322 138.33962 209.59762 138.17342 209.59762 L 134.53475 209.59762 z M 139.63436 209.59762 C 139.46816 209.59762 139.33358 209.7322 139.33358 209.8984 L 139.33358 213.20504 C 139.33358 213.37124 139.46816 213.50582 139.63436 213.50582 L 143.27303 213.50582 C 143.43923 213.50582 143.57186 213.37124 143.57186 213.20504 L 143.57186 209.8984 C 143.57186 209.7322 143.43923 209.59762 143.27303 209.59762 L 139.63436 209.59762 z " /><rect
         style="fill:#000000"
         id="rect784"
         width="8.742321"
         height="9.4046173"
         x="134.49886"
         y="191.55077"
         rx="0.30000001"
         ry="0.30000001" /><path
         style="display:inline;fill:#000000"
         id="path786"
         d="m 76.154502,210.04994 -1.171932,-0.74241 1.228914,-0.64372 z"
         transform="translate(64.844561,-1.4086983)" /><path
         style="display:inline;fill:none;fill-rule:evenodd;stroke:#000000"
         id="path788"
         d="m 74.566543,206.06313 c 0.294473,-1.06746 1.43273,-1.7135 2.500193,-1.41903 1.067463,0.29448 1.7135,1.43273 1.419028,2.5002 -0.294473,1.06746 -1.432729,1.7135 -2.500193,1.41902"
         transform="matrix(0.7099,0,0,0.61717,87.016129,79.259272)" /><path
         id="rect790"
         style="display:inline;fill:#000000"
         d="M 142.52303 210.2402 C 142.35683 210.2402 142.2242 210.37478 142.2242 210.54098 L 142.2242 211.6816 L 140.80623 211.6816 C 140.76624 211.6816 140.72779 211.689 140.69295 211.70309 L 140.691 211.37106 L 139.51913 212.18551 L 140.69881 212.98434 L 140.69686 212.63082 C 140.73063 212.64393 140.76773 212.65231 140.80623 212.65231 L 142.70077 212.65231 C 142.82918 212.65231 142.9371 212.57192 142.98006 212.45895 C 143.01005 212.41222 143.02694 212.35671 143.02694 212.29684 L 143.02694 210.54098 C 143.02694 210.37478 142.89431 210.2402 142.72811 210.2402 L 142.52303 210.2402 z " /><path
         id="path796"
         style="display:inline;fill:#000000"
         d="M 136.38241 205.05856 L 135.33358 206.89449 L 135.91952 206.89254 C 135.89699 206.9347 135.88241 206.98185 135.88241 207.03317 L 135.88241 208.09762 C 135.88241 208.26382 136.01699 208.3984 136.18319 208.3984 L 136.59139 208.3984 C 136.75759 208.3984 136.89217 208.26382 136.89217 208.09762 L 136.89217 207.03317 C 136.89217 206.97966 136.87746 206.93009 136.85311 206.88668 L 137.44686 206.88473 L 136.38241 205.05856 z " /><path
         id="path802"
         style="display:inline;fill:#000000"
         d="M 136.13241 209.90231 C 135.96621 209.90231 135.83163 210.03689 135.83163 210.20309 L 135.83163 211.26754 C 135.83163 211.31886 135.84621 211.36601 135.86873 211.40817 L 135.2828 211.40621 L 136.33163 213.24215 L 137.39608 211.41598 L 136.80233 211.41403 C 136.82668 211.37062 136.84139 211.32105 136.84139 211.26754 L 136.84139 210.20309 C 136.84139 210.03689 136.70681 209.90231 136.54061 209.90231 L 136.13241 209.90231 z " /></g><g
       id="turbo-pump"
       transform="translate(18.041292,-92.310183)"><path
         id="rect2080"
         style="fill:#333333;stroke:#000000;stroke-opacity:1;paint-order:markers stroke fill"
         d="m 143.63594,364.25983 v 19.9336 h -13.75 v -0.98633 h -3.31641 v 12.51172 h 3.31641 v -0.94532 h 13.75 v 4.29493 h 59.95508 v -34.8086 z"
         transform="translate(0.36210735,-0.26764479)" /></g><g
       id="lecture"
       inkscape:label="lecture"
       transform="translate(18.041292,-92.310183)"><path
         id="rect1303"
         style="fill:#4d4d4d;stroke-width:0.694687"
         d="M 32.542692 374.12659 L 24.72238 377.10706 L 27.884489 381.80628 L 29.343473 381.79456 L 29.343473 386.51526 L 24.831755 386.51526 L 24.831755 389.7887 L 29.343473 389.7887 L 29.343473 400.08753 L 36.234098 400.08753 L 36.234098 389.7887 L 40.614958 389.7887 L 40.614958 386.51526 L 36.234098 386.51526 L 36.234098 381.74182 L 37.657926 381.7301 L 40.538786 376.98401 L 32.542692 374.12659 z " /><path
         id="path836"
         style="fill:#800000;stroke-width:0.697593"
         d="M 32.540739 397.27503 A 14.601511 13.927815 0 0 0 17.999723 410.38245 L 17.939176 410.38245 L 17.939176 411.20276 L 17.939176 470.09729 A 15.57327 4.2389007 0 0 0 16.988005 471.54651 A 15.57327 4.2389007 0 0 0 32.562223 475.78674 A 15.57327 4.2389007 0 0 0 48.134489 471.54651 A 15.57327 4.2389007 0 0 0 47.163786 470.07581 L 47.163786 410.38245 L 47.114958 410.38245 A 14.601511 13.927815 0 0 0 32.540739 397.27503 z "
         transform="translate(0)" /><path
         style="fill:#666666;stroke-width:0.999996"
         id="rect1697"
         d="M 19.780813,413.44748 H 45.398681 V 470.4679 H 19.780813 Z" /></g><g
       id="salt"
       transform="matrix(-9.1192762e-5,-0.36267759,0.6138125,-6.2728252e-5,68.865548,200.88714)"
       style="display:inline"><path
         id="path25788"
         style="display:inline;opacity:1;fill:url(#linearGradient29460);fill-opacity:1;stroke-width:0.315818;stroke-dasharray:0.157909, 0.157909"
         d="m 30.686168,39.290212 a 13.190802,5.419284 30.6369 0 0 -3.357945,1.526316 13.190802,5.419284 30.6369 0 0 8.801815,11.414825 13.190802,5.419284 30.6369 0 0 13.979048,1.885248 13.190802,5.419284 30.6369 0 0 -8.801812,-11.414826 13.190802,5.419284 30.6369 0 0 -10.621106,-3.411563 z"
         transform="translate(1.3787195e-6)" /><path
         id="path30437"
         style="display:inline;fill:url(#linearGradient30439);fill-opacity:1;stroke-width:1.0594"
         d="m 41.06571,30.07465 c 0.07731,0.01258 0.154797,0.02438 0.232027,0.03728 0.2035,0.03565 0.406599,0.07341 0.609265,0.112944 -0.0054,-0.02029 -0.0091,-0.04006 -0.01137,-0.05976 A 14.241977,6.5931061 0 0 0 41.06571,30.07465 Z m -15.109155,8.263584 c -0.0132,0.0076 -0.02444,0.01819 -0.03669,0.02741 -0.06396,0.04521 -0.129242,0.09019 -0.201022,0.119523 -0.164993,0.08362 -0.133698,0.06784 -0.115238,0.05866 v 5.48e-4 c 0.01654,-0.0083 0.03414,-0.01675 0.03927,-0.01919 -0.0051,0.0028 -0.01758,0.0094 -0.04082,0.02138 7.65e-4,-10e-4 8.82e-4,-0.0013 0.0016,-0.0022 -0.01001,0.005 -0.0175,0.0088 -0.02739,0.01371 H 25.5757 c -0.06022,0.0538 -0.170868,0.162772 -0.09767,0.07676 -0.08512,0.07599 -0.191303,0.138628 -0.194303,0.139261 -0.07464,0.05549 -0.112676,0.0831 -0.135909,0.09978 -0.09903,0.09401 -0.204449,0.176611 -0.318844,0.248916 -0.03903,0.02257 -0.104789,0.07888 -0.137459,0.1113 -0.0085,0.007 -0.01495,0.01217 -0.0217,0.01755 -0.01127,0.01553 -0.03224,0.04167 -0.07028,0.08499 -0.03938,0.04398 -0.07725,0.08915 -0.114205,0.135423 -0.01291,0.01446 -0.02485,0.02995 -0.03876,0.04331 -0.0053,0.0051 -0.0087,0.0082 -0.01344,0.01262 -0.0013,0.0017 -0.0018,0.0027 -0.0031,0.0043 -0.01228,0.01794 -0.0376,0.05552 -0.04961,0.07128 -0.0012,0.0016 -0.0037,0.0051 -0.0052,0.0071 -0.0057,0.01212 -0.0125,0.02338 -0.02015,0.03126 -0.03203,0.05473 -0.06049,0.09124 -0.0832,0.121168 -0.04435,0.09207 -0.115143,0.232344 -0.125057,0.234113 -0.0091,0.01405 -0.01826,0.02815 -0.02739,0.04222 v 31.327276 h 0.08785 a 14.241977,6.5931061 0 0 0 -0.08785,0.676021 14.241977,6.5931061 0 0 0 14.242024,6.594638 14.241977,6.5931061 0 0 0 14.242025,-6.594638 14.241977,6.5931061 0 0 0 -0.08992,-0.676021 h 0.08992 V 55.385715 c -0.195011,-0.133176 -0.391351,-0.269646 -0.574642,-0.417785 0.06888,0.02535 0.04109,0.01102 -0.112655,-0.08718 -0.02925,-0.01662 -0.05901,-0.03291 -0.08837,-0.04935 -0.203983,-0.126404 -0.334617,-0.212202 -0.61495,-0.407367 -0.149092,-0.0985 -0.287379,-0.21068 -0.445968,-0.292779 C 50.53213,54.001081 50.298718,53.8685 50.060987,53.744173 49.772017,53.584088 49.476924,53.434538 49.196441,53.258402 48.966704,53.12703 48.735707,53.00027 48.50501,52.871873 48.312281,52.753925 48.106949,52.65913 47.909698,52.550036 47.55167,52.378769 47.194436,52.207129 46.843613,52.019855 46.512203,51.821039 46.174019,51.633652 45.852459,51.417302 45.513136,51.210422 45.161935,51.027355 44.826165,50.813653 44.53335,50.617157 44.226205,50.444445 43.932163,50.249478 43.603385,50.040597 43.278649,49.825225 42.952416,49.611842 42.637486,49.368963 42.30989,49.145393 41.990718,48.908955 41.761996,48.742412 41.536317,48.573139 41.301871,48.416057 41.084309,48.249994 40.86144,48.092143 40.636279,47.937962 40.512015,47.830551 40.367247,47.753552 40.230102,47.667115 40.095334,47.594358 39.835713,47.45975 39.604817,47.311833 39.396542,47.211339 39.21419,47.052414 39.017773,46.930235 38.729768,46.743854 38.444179,46.555036 38.157877,46.365513 37.921827,46.212203 37.68152,46.066238 37.444742,45.914283 37.162887,45.727505 36.889801,45.528515 36.62257,45.318858 36.444322,45.183345 36.281224,45.029391 36.083068,44.9241 35.829847,44.746655 35.578602,44.566293 35.331693,44.379116 35.085822,44.198541 34.8341,44.026705 34.586002,43.849483 34.224345,43.613807 33.87268,43.360562 33.507515,43.130696 33.054042,42.82732 32.599108,42.526775 32.146358,42.222207 31.607763,41.875715 31.056487,41.551695 30.523201,41.195838 29.914712,40.788589 29.306275,40.380231 28.6675,40.027466 c -0.610997,-0.345299 -1.200384,-0.728892 -1.800406,-1.094903 -0.28808,-0.191434 -0.572644,-0.388709 -0.855762,-0.588298 -0.03045,0.0138 -0.05565,0.02128 -0.06925,0.01644 -0.0028,3.12e-4 -0.006,7.84e-4 -0.0088,0.0011 0.0066,-0.0034 0.01355,-0.007 0.02015,-0.0104 0.0478,-0.03813 -0.03191,0.02024 -0.0186,0.0055 0.0065,-0.0072 0.0299,-0.02342 0.0217,-0.01864 z m -0.380339,0.219858 c -0.0083,0.0041 0.0318,-0.01645 0.02739,-0.01426 0.01718,-0.02371 8.6e-5,-0.01029 -0.02739,0.01426 z"
         transform="translate(1.3787195e-6)" /><path
         id="path31294-69"
         style="display:inline;fill:url(#linearGradient31318-32);fill-opacity:1;stroke-width:0.498473"
         d="m 38.89195,71.880245 a 22.718232,0.91505818 0 0 0 -22.577726,0.82114 H 16.1741 v 0.0938 4.83336 h 0.140124 a 22.718232,0.91505818 0 0 0 -0.140124,0.0938 22.718232,0.91505818 0 0 0 22.717994,0.91532 22.718232,0.91505818 0 0 0 22.717984,-0.91532 22.718232,0.91505818 0 0 0 -0.142995,-0.0938 h 0.142995 v -4.83336 -0.0938 h -0.142995 a 22.718232,0.91505818 0 0 0 -22.575082,-0.82114 z m -23.064739,0.91496 0.346753,4.97446 z"
         transform="translate(1.3787195e-6)" /><path
         id="path24268"
         style="display:inline;opacity:1;fill:url(#linearGradient29444);fill-opacity:1;stroke-width:0.384162;stroke-dasharray:0.19208, 0.19208"
         transform="matrix(0.86394914,0.50357907,-0.47797651,0.87837262,1.3787195e-6,-4.8854378e-7)"
         d="m 43.01171,17.951257 a 16.046764,6.5913706 0 0 0 -2.704668,3.662092 16.046764,6.5913706 0 0 0 16.04673,6.591364 16.046764,6.5913706 0 0 0 16.046925,-6.591825 16.046764,6.5913706 0 0 0 -16.04673,-6.591365 16.046764,6.5913706 0 0 0 -13.342257,2.929734 z" /><path
         id="path25060"
         style="display:inline;opacity:1;fill:url(#linearGradient28702);fill-opacity:1;stroke-width:0.349992;stroke-dasharray:0.174997, 0.174997"
         d="M 29.346583,38.255397 A 14.663122,5.9872414 30.194104 0 0 25.601744,39.936231 14.663122,5.9872414 30.194104 0 0 35.41768,52.506654 14.663122,5.9872414 30.194104 0 0 51.007358,54.582758 14.663122,5.9872414 30.194104 0 0 41.191425,42.012334 14.663122,5.9872414 30.194104 0 0 29.346583,38.255397 Z"
         transform="translate(1.3787195e-6)" /><path
         id="path27968"
         style="display:inline;opacity:1;fill:url(#linearGradient29476);fill-opacity:1;stroke-width:0.283433;stroke-dasharray:0.141717, 0.141717"
         d="m 31.469269,40.117948 a 11.870565,4.8503169 30.2427 0 0 -3.030574,1.36214 11.870565,4.8503169 30.2427 0 0 7.943712,10.187002 11.870565,4.8503169 30.2427 0 0 12.616209,1.682464 11.870565,4.8503169 30.2427 0 0 -7.94371,-10.187004 11.870565,4.8503169 30.2427 0 0 -9.585637,-3.044602 z"
         transform="translate(1.3787195e-6)" /></g></g></svg>
