<?xml version="1.0" encoding="UTF-8" standalone="no"?>
<!-- Created with Inkscape (http://www.inkscape.org/) -->

<svg
   width="19.62999"
   height="17.003862"
   viewBox="0 0 19.62999 17.003862"
   version="1.1"
   id="svg11081"
   inkscape:version="1.2.1 (9c6d41e410, 2022-07-14)"
   sodipodi:docname="laser.svg"
   xmlns:inkscape="http://www.inkscape.org/namespaces/inkscape"
   xmlns:sodipodi="http://sodipodi.sourceforge.net/DTD/sodipodi-0.dtd"
   xmlns="http://www.w3.org/2000/svg"
   xmlns:svg="http://www.w3.org/2000/svg">
  <sodipodi:namedview
     id="namedview11083"
     pagecolor="#ffffff"
     bordercolor="#000000"
     borderopacity="0.25"
     inkscape:showpageshadow="2"
     inkscape:pageopacity="0.0"
     inkscape:pagecheckerboard="0"
     inkscape:deskcolor="#d1d1d1"
     inkscape:document-units="px"
     showgrid="false"
     inkscape:zoom="1.829812"
     inkscape:cx="78.969861"
     inkscape:cy="134.16679"
     inkscape:window-width="1462"
     inkscape:window-height="1207"
     inkscape:window-x="1240"
     inkscape:window-y="140"
     inkscape:window-maximized="0"
     inkscape:current-layer="svg11081" />
  <defs
     id="defs11078" />
  <g
     id="laser"
     transform="matrix(0.7922506,0,0,1,-50.666175,-288.56754)"
     inkscape:label="laser">
    <path
       style="display:inline;fill:#ffd42a;stroke:#000000;stroke-width:1.12349;stroke-opacity:1;paint-order:markers stroke fill"
       d="m 87.624998,305.00336 -22.568632,0.006 11.278005,-15.488 z"
       id="path4004" />
    <ellipse
       style="fill:#ff0000;stroke-width:0"
       cx="74.275681"
       cy="300.1514"
       rx="2.2644367"
       ry="1.687"
       id="ellipse4006" />
    <path
       style="fill:#ff0000;stroke-width:0"
       d="m 68.969272,299.96336 h 15.548121 v 0.402 H 68.969272 Z"
       id="path4008" />
    <path
       style="fill:#ff0000;stroke-width:0"
       d="m 74.064396,304.23836 -0.01551,-8.245 0.507284,-0.009 0.01551,8.245 z"
       id="path4010" />
    <path
       style="fill:#ff0000;stroke-width:0"
       d="m 67.99357,297.24436 c -0.0025,0 -0.0076,0 -0.0101,0.002 a 0.02524456,0.02 0 0 0 -0.01262,0.014 v 0.004 c 0.0101,-0.002 0.0202,-0.012 0.02777,-0.02 z m 1.922372,0.705 a 2.9283685,2.32 0 0 0 -0.126223,0.135 1.4717576,1.166 0 0 0 -0.08583,0.132 l 9.575259,4.184 0.07195,-0.068 a 0.90880402,0.72 0 0 0 0.117387,-0.123 l 0.05049,-0.06 z"
       id="path4012" />
    <path
       style="fill:#ff0000;stroke-width:0"
       d="m 70.766684,295.07436 -0.01641,0.013 -0.01262,-0.019 z m 1.224361,1.217 5.276112,7.653 c -0.04292,0.01 -0.08331,0.023 -0.126223,0.035 a 1.080467,0.856 0 0 0 -0.20953,0.073 l -5.259703,-7.627 a 1.7418744,1.38 0 0 1 0.05806,-0.033 c 0.03282,-0.02 0.06311,-0.04 0.10224,-0.05 0.05428,-0.015 0.106027,-0.031 0.157778,-0.05 z m 5.989271,8.687 0.02146,0.032 -0.05301,-0.013 a 0.19438308,0.154 0 0 0 0.03156,-0.02 z"
       id="path4014" />
    <path
       style="fill:#ff0000;stroke-width:0"
       d="m 80.856933,296.94736 c 0.0088,0.008 0.01893,0.017 0.03029,0.018 v -0.004 a 0.0227201,0.018 0 0 0 -0.01515,-0.012 c -0.0025,-0.001 -0.0088,-0.003 -0.0101,-0.002 z m -1.900915,0.82 -9.449037,4.766 c 0.01767,0.02 0.03787,0.037 0.0568,0.057 0.03913,0.04 0.07952,0.08 0.130009,0.113 l 0.08204,0.064 9.425055,-4.75 a 1.4389397,1.14 0 0 0 -0.100978,-0.125 2.870306,2.274 0 0 0 -0.143894,-0.125 z"
       id="path4016" />
    <path
       style="fill:#ff0000;stroke-width:0"
       d="m 77.97148,295.07436 0.01641,0.013 0.01262,-0.019 z m -1.224361,1.217 -5.276112,7.653 c 0.04292,0.01 0.08331,0.023 0.126223,0.035 a 1.1486273,0.91 0 0 1 0.209529,0.073 l 5.259704,-7.627 a 1.7418744,1.38 0 0 0 -0.05806,-0.033 c -0.03282,-0.02 -0.06311,-0.04 -0.10224,-0.05 a 1.7103187,1.355 0 0 1 -0.157779,-0.05 z m -5.989271,8.687 -0.02146,0.032 0.05301,-0.013 a 0.19438308,0.154 0 0 1 -0.03156,-0.02 z"
       id="path4018" />
    <path
       style="display:inline;fill:#ff0000;stroke-width:0"
       d="m 73.612642,297.26081 -0.03482,0.004 -0.09178,0.0137 c -0.03573,0.008 -0.06971,0.0216 -0.103758,0.031 -0.04498,0.0113 -0.08961,0.0236 -0.137041,0.0279 a 1.6654925,1.0060893 24.814857 0 1 -0.121497,0.006 l 2.053093,5.85855 0.532549,0.0496 z"
       id="path4020" />
    <path
       style="display:inline;fill:#ff0000;stroke-width:0"
       d="m 70.479762,299.08528 8.44e-4,0.006 0.0013,2.9e-4 -7.03e-4,-0.005 z m 0.05414,0.012 c 7.03e-4,0.005 -0.0025,0.009 -0.0029,0.0154 l 0.0026,5.8e-4 -7.03e-4,-0.005 0.001,-0.002 c -7.03e-4,-0.005 1.65e-4,-0.008 0.0025,-0.009 z m 0.02578,0.006 -0.0017,0.006 c 0.0017,0.0124 0.0019,0.0234 0.0011,0.0353 l -0.0083,0.0312 a 0.32751838,0.21188844 31.2475 0 1 -0.01631,0.0454 c -0.0053,0.007 -0.0069,0.0135 -0.0095,0.0219 a 0.20893414,0.13517021 31.247499 0 0 -0.01544,0.0426 l -0.0083,0.0312 a 0.44186746,0.28586673 31.2475 0 1 -0.0065,0.0256 c 0.0039,8.6e-4 0.0093,0.004 0.0091,0.012 0.0017,0.0124 -0.0016,0.0247 -0.0025,0.0365 l 8.44e-4,0.006 3.98e-4,0.0121 c -0.0023,0.0105 -0.01064,0.0136 -0.01837,0.0119 l 5.63e-4,0.004 c 0.0014,0.0103 5.15e-4,0.0221 -5.16e-4,0.0329 l 0.0011,0.0353 7.991266,1.77334 -0.05338,-0.40997 z m -0.08046,0.1892 0.0011,0.008 a 0.04799839,0.03105262 31.247501 0 1 0.0015,-0.008 z"
       id="path4022" />
    <path
       style="display:inline;fill:#ff0000;stroke-width:0"
       d="m 75.709489,296.98367 -0.53388,0.0497 -2.178693,6.21695 0.531847,-0.0476 z"
       id="path4024" />
    <path
       style="display:inline;fill:#ff0000;stroke-width:0"
       d="m 71.937119,297.75643 c -0.005,10e-4 -0.007,0.004 -0.0086,0.006 a 4.8647279,2.5799957 7.9502074 0 1 -0.128224,0.0767 c -0.03336,0.0188 -0.06547,0.0372 -0.103349,0.0522 -0.0011,0.003 -0.0021,0.007 -0.0062,0.009 l -0.03497,0.0203 c -0.01168,0.004 -0.01973,0.0118 -0.03049,0.017 l -0.01973,0.0118 c -0.0073,0.005 -0.01902,0.01 -0.02727,0.014 l -0.02315,0.0118 -0.0156,0.01 5.465224,4.63507 0.501361,-0.14268 z"
       id="path4026" />
    <path
       style="display:inline;fill:#ff0000;stroke-width:0"
       d="m 71.937119,297.75643 c -0.005,10e-4 -0.007,0.004 -0.0086,0.006 a 4.8647279,2.5799957 7.9502074 0 1 -0.128224,0.0767 c -0.03336,0.0188 -0.06547,0.0372 -0.103349,0.0522 -0.0011,0.003 -0.0021,0.007 -0.0062,0.009 l -0.03497,0.0203 c -0.01168,0.004 -0.01973,0.0118 -0.03049,0.017 l -0.01973,0.0118 c -0.0073,0.005 -0.01902,0.01 -0.02727,0.014 l -0.02315,0.0118 -0.0156,0.01 5.465224,4.63507 0.501361,-0.14268 z"
       id="path4028" />
    <path
       style="display:inline;fill:#ff0000;stroke-width:0"
       d="m 78.467337,299.05452 -7.993701,1.81303 -0.05307,0.41183 7.996274,-1.81362 z"
       id="path4030" />
    <path
       style="display:inline;fill:#ff0000;stroke-width:0"
       d="m 77.158571,297.61107 -5.652886,4.73462 0.229014,0.37361 5.652547,-4.73292 z"
       id="path4032" />
  </g>
</svg>
