<?xml version="1.0" encoding="UTF-8" standalone="no"?>
<!-- Created with Inkscape (http://www.inkscape.org/) -->

<svg
   width="300.00006"
   height="300"
   viewBox="0 0 300.00005 300"
   version="1.1"
   id="svg23100"
   inkscape:version="1.2.1 (9c6d41e410, 2022-07-14)"
   sodipodi:docname="chamber.svg"
   xmlns:inkscape="http://www.inkscape.org/namespaces/inkscape"
   xmlns:sodipodi="http://sodipodi.sourceforge.net/DTD/sodipodi-0.dtd"
   xmlns="http://www.w3.org/2000/svg"
   xmlns:svg="http://www.w3.org/2000/svg">
  <sodipodi:namedview
     id="namedview23102"
     pagecolor="#ffffff"
     bordercolor="#000000"
     borderopacity="0.25"
     inkscape:showpageshadow="2"
     inkscape:pageopacity="0.0"
     inkscape:pagecheckerboard="0"
     inkscape:deskcolor="#d1d1d1"
     inkscape:document-units="px"
     showgrid="false"
     inkscape:zoom="0.914906"
     inkscape:cx="-23.499682"
     inkscape:cy="-79.243114"
     inkscape:window-width="2498"
     inkscape:window-height="1417"
     inkscape:window-x="54"
     inkscape:window-y="-8"
     inkscape:window-maximized="1"
     inkscape:current-layer="svg23100" />
  <defs
     id="defs23097" />
  <g
     id="chamber"
     style="display:inline"
     transform="matrix(2.7272727,0,0,2.7272727,-678.81268,-611.32768)"
     inkscape:label="chamber">
    <path
       style="display:inline;fill:#999999;stroke:#000000;stroke-width:1.00001;stroke-linecap:square;stroke-linejoin:miter;stroke-dasharray:none;stroke-opacity:1;paint-order:markers stroke fill"
       id="rect274-3-9"
       d="M 249.39799,224.65349 H 358.398 V 333.65348 H 249.39799 Z" />
    <path
       id="path15021-1"
       style="display:inline;fill:#808080;fill-opacity:1;stroke:#000000;stroke-width:1;stroke-linecap:square;stroke-linejoin:miter;stroke-miterlimit:4;stroke-dasharray:none;stroke-opacity:1;paint-order:markers stroke fill"
       d="m 2.8305751,-120.43049 -5.8302999,0.0973 -2.8302605,5.09887 3.0000394,4.99976 5.8302999,-0.0982 2.8293428,-5.09795 z m 115.3321949,0 -5.8303,0.0973 -2.82934,5.09887 3.00004,4.99976 5.82938,-0.0982 2.83026,-5.09795 z M 2.8305751,-5.0982951 l -5.8302999,0.098196 -2.8302605,5.0979562 3.0000394,4.9997598 5.8302999,-0.097279 2.8293428,-5.09795619 z m 115.3321949,0 -5.8303,0.098196 -2.82934,5.0979562 3.00004,4.9997598 5.82938,-0.097279 2.83026,-5.09795619 z"
       transform="matrix(0.78035,0,0,0.78035,258.898,324.15349)" />
  </g>
</svg>
