<?xml version="1.0" encoding="UTF-8" standalone="no"?>
<!-- Created with Inkscape (http://www.inkscape.org/) -->

<svg
   width="177.37004"
   height="300"
   viewBox="0 0 177.37003 300.00001"
   version="1.1"
   id="svg5"
   inkscape:version="1.2.1 (9c6d41e410, 2022-07-14)"
   sodipodi:docname="coldhead.svg"
   xmlns:inkscape="http://www.inkscape.org/namespaces/inkscape"
   xmlns:sodipodi="http://sodipodi.sourceforge.net/DTD/sodipodi-0.dtd"
   xmlns:xlink="http://www.w3.org/1999/xlink"
   xmlns="http://www.w3.org/2000/svg"
   xmlns:svg="http://www.w3.org/2000/svg">
  <sodipodi:namedview
     id="namedview7"
     pagecolor="#505050"
     bordercolor="#eeeeee"
     borderopacity="1"
     inkscape:showpageshadow="0"
     inkscape:pageopacity="0"
     inkscape:pagecheckerboard="0"
     inkscape:deskcolor="#505050"
     inkscape:document-units="px"
     showgrid="false"
     inkscape:zoom="1.9913155"
     inkscape:cx="-18.329592"
     inkscape:cy="168.48159"
     inkscape:window-width="2498"
     inkscape:window-height="1417"
     inkscape:window-x="54"
     inkscape:window-y="-8"
     inkscape:window-maximized="1"
     inkscape:current-layer="coldhead">
    <inkscape:grid
       type="xygrid"
       id="grid869"
       originx="-173.48685"
       originy="-175.16622" />
  </sodipodi:namedview>
  <defs
     id="defs2">
    <linearGradient
       inkscape:collect="always"
       id="linearGradient8208">
      <stop
         style="stop-color:#777777;stop-opacity:1;"
         offset="0"
         id="stop8204" />
      <stop
         style="stop-color:#303030;stop-opacity:1;"
         offset="0.20096463"
         id="stop8212" />
      <stop
         style="stop-color:#4a4a4a;stop-opacity:1;"
         offset="0.39951769"
         id="stop8214" />
      <stop
         style="stop-color:#353535;stop-opacity:1;"
         offset="0.59847265"
         id="stop8216" />
      <stop
         style="stop-color:#3f3f3f;stop-opacity:1;"
         offset="0.79602093"
         id="stop8218" />
      <stop
         style="stop-color:#707070;stop-opacity:1;"
         offset="1"
         id="stop8206" />
    </linearGradient>
    <linearGradient
       inkscape:collect="always"
       id="linearGradient7901">
      <stop
         style="stop-color:#c99b07;stop-opacity:1;"
         offset="0"
         id="stop7897" />
      <stop
         style="stop-color:#997407;stop-opacity:1;"
         offset="0.20096463"
         id="stop7992" />
      <stop
         style="stop-color:#ba9d00;stop-opacity:1;"
         offset="0.39951769"
         id="stop7994" />
      <stop
         style="stop-color:#847006;stop-opacity:1;"
         offset="0.60490352"
         id="stop7996" />
      <stop
         style="stop-color:#da9b00;stop-opacity:1;"
         offset="0.79923636"
         id="stop7998" />
      <stop
         style="stop-color:#8d6407;stop-opacity:1;"
         offset="1"
         id="stop7899" />
    </linearGradient>
    <linearGradient
       inkscape:collect="always"
       id="linearGradient16706">
      <stop
         style="stop-color:#ff7412;stop-opacity:1;"
         offset="0"
         id="stop16702" />
      <stop
         style="stop-color:#d05500;stop-opacity:1;"
         offset="0.2652733"
         id="stop16805" />
      <stop
         style="stop-color:#ff7a22;stop-opacity:1;"
         offset="0.46061093"
         id="stop16807" />
      <stop
         style="stop-color:#ff8838;stop-opacity:1;"
         offset="0.67564309"
         id="stop16809" />
      <stop
         style="stop-color:#ffc79f;stop-opacity:1;"
         offset="0.9163987"
         id="stop16704" />
    </linearGradient>
    <linearGradient
       inkscape:collect="always"
       id="linearGradient31314">
      <stop
         style="stop-color:#b3b3b3;stop-opacity:1;"
         offset="0.07717042"
         id="stop31302" />
      <stop
         style="stop-color:#d2d2d2;stop-opacity:1;"
         offset="0.24919616"
         id="stop31304" />
      <stop
         style="stop-color:#9c9c9c;stop-opacity:1;"
         offset="0.40956593"
         id="stop31306" />
      <stop
         style="stop-color:#afafaf;stop-opacity:1;"
         offset="0.61816716"
         id="stop31308" />
      <stop
         style="stop-color:#d0d0d0;stop-opacity:1;"
         offset="0.77893889"
         id="stop31310" />
      <stop
         style="stop-color:#989898;stop-opacity:1;"
         offset="0.95498395"
         id="stop31312" />
    </linearGradient>
    <linearGradient
       inkscape:collect="always"
       id="linearGradient13900">
      <stop
         style="stop-color:#e4a562;stop-opacity:1;"
         offset="0.1607717"
         id="stop13888" />
      <stop
         style="stop-color:#b35d18;stop-opacity:0.98113215;"
         offset="0.38102895"
         id="stop13890" />
      <stop
         style="stop-color:#b34225;stop-opacity:1;"
         offset="0.6153537"
         id="stop13892" />
      <stop
         style="stop-color:#ea6245;stop-opacity:1;"
         offset="0.75"
         id="stop13894" />
      <stop
         style="stop-color:#ff8222;stop-opacity:1;"
         offset="0.87861735"
         id="stop13896" />
      <stop
         style="stop-color:#ff0e0a;stop-opacity:0.57232702;"
         offset="1"
         id="stop13898" />
    </linearGradient>
    <linearGradient
       inkscape:collect="always"
       id="linearGradient12420">
      <stop
         style="stop-color:#b3b3b3;stop-opacity:0.96226418;"
         offset="0.1607717"
         id="stop12416" />
      <stop
         style="stop-color:#b3b3b3;stop-opacity:0.49803922;"
         offset="0.38102895"
         id="stop12424" />
      <stop
         style="stop-color:#b3b3b3;stop-opacity:0.37254902;"
         offset="0.6153537"
         id="stop12428" />
      <stop
         style="stop-color:#b3b3b3;stop-opacity:0.0754717;"
         offset="0.75"
         id="stop12430" />
      <stop
         style="stop-color:#b3b3b3;stop-opacity:0.24705882;"
         offset="0.87861735"
         id="stop12426" />
      <stop
         style="stop-color:#b3b3b3;stop-opacity:0.87421381;"
         offset="1"
         id="stop12418" />
    </linearGradient>
    <linearGradient
       inkscape:collect="always"
       xlink:href="#linearGradient12420"
       id="linearGradient12422"
       x1="136.54213"
       y1="221.64102"
       x2="169.81387"
       y2="221.38509"
       gradientUnits="userSpaceOnUse"
       gradientTransform="matrix(1.4253035,0,0,2.4874582,21.110306,-319.26609)" />
    <linearGradient
       inkscape:collect="always"
       xlink:href="#linearGradient13900"
       id="linearGradient13160"
       gradientUnits="userSpaceOnUse"
       x1="136.54213"
       y1="221.64102"
       x2="169.81387"
       y2="221.38509"
       gradientTransform="matrix(2.0558847,0,0,0.22539255,-75.593777,218.70712)" />
    <linearGradient
       inkscape:collect="always"
       xlink:href="#linearGradient13900"
       id="linearGradient15356"
       gradientUnits="userSpaceOnUse"
       gradientTransform="matrix(1.5192997,0,0,0.83530603,6.429026,97.974796)"
       x1="136.54213"
       y1="221.64102"
       x2="169.81387"
       y2="221.38509" />
    <linearGradient
       inkscape:collect="always"
       xlink:href="#linearGradient12420"
       id="linearGradient16086"
       gradientUnits="userSpaceOnUse"
       x1="136.54213"
       y1="221.64102"
       x2="169.81387"
       y2="221.38509"
       gradientTransform="matrix(0.954838,0,0,3.1753097,92.325071,-363.99425)" />
    <linearGradient
       inkscape:collect="always"
       xlink:href="#linearGradient13900"
       id="linearGradient19721"
       gradientUnits="userSpaceOnUse"
       gradientTransform="matrix(1.1409884,0,0,1.0640234,63.72918,143.2837)"
       x1="136.54213"
       y1="221.64102"
       x2="169.81387"
       y2="221.38509" />
    <linearGradient
       inkscape:collect="always"
       xlink:href="#linearGradient13900"
       id="linearGradient20451"
       gradientUnits="userSpaceOnUse"
       gradientTransform="matrix(1.3697125,0,0,0.16821426,28.371601,359.61521)"
       x1="136.54213"
       y1="221.64102"
       x2="169.81387"
       y2="221.38509" />
    <linearGradient
       inkscape:collect="always"
       xlink:href="#linearGradient13900"
       id="linearGradient27594"
       gradientUnits="userSpaceOnUse"
       gradientTransform="matrix(1.5816789,0,0,0.70188747,-3.469388,102.69393)"
       x1="136.54213"
       y1="221.64102"
       x2="169.81387"
       y2="221.38509" />
    <linearGradient
       inkscape:collect="always"
       xlink:href="#linearGradient31314"
       id="linearGradient31318"
       x1="134.83498"
       y1="185.42915"
       x2="171.70763"
       y2="185.42915"
       gradientUnits="userSpaceOnUse"
       gradientTransform="matrix(1.5916482,0,0,1.5916482,-3.646395,-95.909735)" />
    <linearGradient
       inkscape:collect="always"
       xlink:href="#linearGradient16706"
       id="linearGradient16708"
       x1="105.97266"
       y1="386.48849"
       x2="219.56425"
       y2="385.79587"
       gradientUnits="userSpaceOnUse"
       gradientTransform="matrix(0.81326528,0,0,0.59720792,27.142616,106.97456)" />
    <clipPath
       clipPathUnits="userSpaceOnUse"
       id="clipPath2690">
      <path
         id="path2692"
         style="fill:#ff0000;fill-opacity:1;fill-rule:nonzero;stroke:none"
         d="m 112.17188,312.30859 v 51.3418 h 28.66406 c 0.4122,-0.22391 0.96068,-0.36523 1.65039,-0.36523 h 1.6582 1.23828 0.81446 c 0.0958,-0.005 0.15607,-0.005 0.20703,-0.006 8.4e-4,-2.9e-4 0.003,-0.002 0.004,-0.002 0.0415,-0.0139 0.10496,-0.0306 0.19922,-0.0547 0.39969,-0.0989 0.80454,-0.1668 1.21289,-0.2168 0.0702,-0.0289 1.01708,-0.0662 0.52539,-0.0469 0.2445,-0.0987 0.49991,-0.16506 0.75586,-0.22656 0.41771,-0.0892 0.84598,-0.10619 1.27149,-0.12109 -0.47792,0.032 0.86241,-0.21475 0.88281,-0.21875 0.37718,-0.0581 0.75787,-0.0959 1.13867,-0.11914 0.31817,-0.0189 0.63647,-0.0214 0.95508,-0.0234 0.39321,-0.002 0.78647,-10e-4 1.17969,-0.002 0.3897,-3.9e-4 0.78022,7e-5 1.16992,0 0.11616,-0.005 0.23089,-0.009 0.3457,-0.008 0.34444,0.002 0.68431,0.0299 1.0293,0.0781 0.26417,0.0674 0.51599,0.16792 0.78125,0.22852 0.13578,0.0162 0.27343,0.0243 0.41015,0.0312 0.15904,0.008 0.31737,0.0117 0.47657,0.0137 0.17283,10e-4 0.34669,0.002 0.51953,0.002 0.2314,2.7e-4 0.46196,-6e-5 0.69336,0 0.13675,2e-5 0.2734,-1e-5 0.41015,0 1.25751,9e-5 2.05171,0.46661 2.38672,1.05664 h 42.9336 v -51.3418 z" />
    </clipPath>
    <linearGradient
       inkscape:collect="always"
       xlink:href="#linearGradient7901"
       id="linearGradient7903"
       x1="176.27478"
       y1="341.81375"
       x2="205.71162"
       y2="322.07376"
       gradientUnits="userSpaceOnUse"
       gradientTransform="matrix(1.5916482,0,0,1.5916482,-5.05131,-103.63677)" />
    <linearGradient
       inkscape:collect="always"
       xlink:href="#linearGradient8208"
       id="linearGradient8210"
       x1="214.71584"
       y1="274.97479"
       x2="267.00952"
       y2="274.62848"
       gradientUnits="userSpaceOnUse"
       gradientTransform="matrix(0.19765571,0,0,0.20691419,268.49081,347.33816)" />
  </defs>
  <g
     inkscape:label="coldhead"
     inkscape:groupmode="layer"
     id="coldhead"
     transform="translate(-173.48686,-175.1662)">
    <rect
       style="fill:url(#linearGradient8210);fill-opacity:1;stroke-width:2.66684;stroke-dasharray:1.33341, 1.33341"
       id="rect8202"
       width="10.47305"
       height="7.1657662"
       x="310.79373"
       y="400.72311" />
    <path
       id="path16306"
       style="fill:url(#linearGradient16708);fill-opacity:1;stroke:none;stroke-width:1.02934;stroke-dasharray:none;stroke-opacity:0.740425"
       inkscape:transform-center-x="0.18744413"
       inkscape:transform-center-y="-2.0523685"
       d="m 151.17188,312.30859 -39,9.72461 0.24218,0.24414 h -0.21289 v 11.99414 h 3.09766 v 3.31055 h 21.40429 v -0.084 l 38.86719,-0.1211 v 2.4961 l -48.06445,0.23437 -0.15234,0.16211 h -12.05469 v 3.10352 h -2.53516 v 12.4082 h 0.4961 l 31.89257,7.58984 v 0.27539 c 0.4076,-0.003 0.81508,-0.005 1.22266,-0.008 0.54107,-0.003 1.08197,-0.005 1.62305,-0.006 0.10511,-7.3e-4 0.2095,0.0139 0.31445,0.0176 0.0782,-0.0138 0.15614,-0.0294 0.23438,-0.043 0.8824,-0.18062 1.78035,-0.22626 2.67773,-0.25976 0.95668,-0.03 1.91207,-0.0447 2.86914,-0.0527 0.74603,-0.0613 1.4904,-0.14456 2.23437,-0.22656 0.55654,-0.0663 1.11594,-0.0908 1.67579,-0.10547 0.40603,1.6e-4 0.7988,-0.12586 1.19921,-0.19336 0.36655,-0.0616 0.73912,-0.0893 1.10938,-0.11719 0.10683,-0.008 0.2099,-0.0127 0.31055,-0.0137 0.44732,-0.005 0.8309,0.06 1.15429,0.17188 l 29.73438,-7.47461 -0.16797,-0.16797 v -12.82813 h 14.08008 v -7.44726 h -0.0664 l 0.32813,-10.51367 -9.01172,-0.0918 -0.32813,10.60547 h -5.00195 v -13.0293 h -0.71289 l 0.0684,-0.0742 z"
       clip-path="url(#clipPath2690)"
       transform="matrix(1.5916482,0,0,1.5916482,-5.05131,-103.63677)" />
    <path
       id="path16084"
       style="fill:url(#linearGradient16086);fill-opacity:1;stroke-width:1.74123"
       d="m 238.5857,283.30296 a 16.006754,15.847213 0 0 0 -15.90774,14.22067 h -0.0988 v 1.62484 83.70535 h 0.0988 a 16.006754,15.847213 0 0 0 -0.0988,1.62493 16.006754,15.847213 0 0 0 16.0066,15.85173 16.006754,15.847213 0 0 0 16.00658,-15.85173 16.006754,15.847213 0 0 0 -0.10059,-1.62493 h 0.10059 v -83.70535 -1.62484 h -0.10059 a 16.006754,15.847213 0 0 0 -15.90588,-14.22067 z m -16.25089,15.84551 0.24431,86.14886 z" />
    <path
       id="path6085"
       style="fill:url(#linearGradient12422);fill-opacity:1;stroke-width:1.88292"
       d="m 239.43617,187.81043 a 23.893562,12.414312 0 0 0 -23.74579,11.1401 H 215.543 v 1.27288 65.5727 h 0.14738 a 23.893562,12.414312 0 0 0 -0.14738,1.27289 23.893562,12.414312 0 0 0 23.89331,12.41787 23.893562,12.414312 0 0 0 23.89331,-12.41787 23.893562,12.414312 0 0 0 -0.15041,-1.27289 h 0.15041 v -65.5727 -1.27288 h -0.15041 a 23.893562,12.414312 0 0 0 -23.74299,-11.1401 z m -24.25799,12.41298 0.36467,67.48688 z" />
    <path
       id="path15354"
       style="fill:url(#linearGradient15356);fill-opacity:1;stroke-width:1.12653"
       d="m 239.15308,268.25459 a 25.469302,4.1688132 0 0 0 -25.31178,3.74093 h -0.15725 v 0.42742 22.01979 h 0.15725 a 25.469302,4.1688132 0 0 0 -0.15725,0.42742 25.469302,4.1688132 0 0 0 25.46903,4.17004 25.469302,4.1688132 0 0 0 25.46904,-4.17004 25.469302,4.1688132 0 0 0 -0.16024,-0.42742 h 0.16024 v -22.01979 -0.42742 h -0.16024 a 25.469302,4.1688132 0 0 0 -25.3088,-3.74093 z m -25.85778,4.16835 0.38875,22.66262 z" />
    <path
       id="path27592"
       style="fill:url(#linearGradient27594);fill-opacity:1;stroke-width:1.05364"
       d="m 238.80982,245.77595 a 26.515019,3.502953 0 0 0 -26.35101,3.14341 h -0.16371 v 0.35915 18.50269 h 0.16371 a 26.515019,3.502953 0 0 0 -0.16371,0.35916 26.515019,3.502953 0 0 0 26.51472,3.50398 26.515019,3.502953 0 0 0 26.51476,-3.50398 26.515019,3.502953 0 0 0 -0.16684,-0.35916 h 0.16684 v -18.50269 -0.35915 h -0.16684 a 26.515019,3.502953 0 0 0 -26.34792,-3.14341 z m -26.91943,3.50256 0.40471,19.04285 z" />
    <path
       id="path13158"
       style="fill:url(#linearGradient13160);fill-opacity:1;stroke-width:0.680721"
       d="m 239.32357,264.65412 a 34.464527,1.1248805 0 0 0 -34.25136,1.00943 h -0.2128 v 0.11539 5.94165 h 0.2128 a 34.464527,1.1248805 0 0 0 -0.2128,0.1154 34.464527,1.1248805 0 0 0 34.46416,1.1252 34.464527,1.1248805 0 0 0 34.46419,-1.1252 34.464527,1.1248805 0 0 0 -0.21685,-0.1154 h 0.21685 v -5.94165 -0.11539 h -0.21685 a 34.464527,1.1248805 0 0 0 -34.24734,-1.00943 z m -34.99019,1.12476 0.52603,6.11509 z" />
    <path
       id="path19719"
       style="fill:url(#linearGradient19721);fill-opacity:1;stroke-width:1.10183"
       d="m 238.50407,360.18832 a 19.127349,5.3102873 0 0 0 -19.00904,4.76523 h -0.1181 v 0.54447 28.04908 h 0.1181 a 19.127349,5.3102873 0 0 0 -0.1181,0.54447 19.127349,5.3102873 0 0 0 19.12714,5.31184 19.127349,5.3102873 0 0 0 19.12717,-5.31184 19.127349,5.3102873 0 0 0 -0.12033,-0.54447 h 0.12033 v -28.04908 -0.54447 h -0.12033 a 19.127349,5.3102873 0 0 0 -19.00681,-4.76523 z m -19.41908,5.3097 0.29194,28.8679 z" />
    <path
       id="path31294"
       style="fill:url(#linearGradient31318);fill-opacity:1;stroke-width:1.50611"
       d="m 240.52976,175.1662 a 29.122131,6.5166937 0 0 0 -28.94202,5.84783 h -0.17964 v 0.66817 34.42134 h 0.17964 a 29.122131,6.5166937 0 0 0 -0.17964,0.66817 29.122131,6.5166937 0 0 0 29.12183,6.51856 29.122131,6.5166937 0 0 0 29.12182,-6.51856 29.122131,6.5166937 0 0 0 -0.18331,-0.66817 h 0.18331 v -34.42134 -0.66817 h -0.18331 A 29.122131,6.5166937 0 0 0 240.5298,175.1662 Z m -29.56632,6.516 0.44449,35.42616 z" />
    <path
       id="path20449"
       style="fill:url(#linearGradient20451);fill-opacity:1;stroke-width:0.480003"
       d="m 238.18211,393.90627 a 22.961644,0.83951742 0 0 0 -22.81964,0.75336 h -0.14181 v 0.086 4.43435 h 0.14181 a 22.961644,0.83951742 0 0 0 -0.14181,0.0863 22.961644,0.83951742 0 0 0 22.9614,0.83976 22.961644,0.83951742 0 0 0 22.9614,-0.83976 22.961644,0.83951742 0 0 0 -0.14452,-0.0863 h 0.14452 v -4.43435 -0.086 h -0.14452 a 22.961644,0.83951742 0 0 0 -22.81693,-0.75336 z m -23.31187,0.83942 0.35046,4.56381 z" />
    <path
       id="rect6376"
       style="fill:url(#linearGradient7903);fill-opacity:1;stroke-width:1.80864;stroke-dasharray:0.904308, 0.904308"
       d="M 306.54751,405.68518 V 427.732 h -32.68507 v 15.43462 h 32.68507 16.92514 V 427.732 405.68518 Z" />
    <path
       style="fill:none;fill-opacity:1;stroke:none;stroke-width:2.10575;stroke-dasharray:1.05287, 1.05287"
       d="m 317.95951,401.82556 -1.10242,-9.92182 -6.61456,-2.75607 -6.61455,-0.55122 -9.92183,-1.10242 -13.22911,-0.5512 h -13.78033 l -8.8194,-0.55122 -11.57549,-1.65365 -9.92182,-1.10242 -7.717,-1.10242 -7.71698,-2.20485 -2.20484,-2.20486 -1.10243,-2.20485 1.65364,-1.65364"
       id="path8358" />
    <path
       style="fill:none;fill-opacity:1;stroke:#000000;stroke-width:2.10575;stroke-dasharray:none;stroke-opacity:1"
       d="m 317.40831,402.37678 -8.81942,-8.8194 -7.71698,-2.20486 -19.84367,-0.5512 -15.43395,-0.55122 -42.99463,-0.55121 -3.85848,-3.30728"
       id="path8461" />
    <path
       style="fill:none;fill-opacity:1;stroke:#000000;stroke-width:2.1874;stroke-dasharray:none;stroke-opacity:1"
       d="m 258.41539,384.74591 -33.17715,-0.55339 -6.51696,-3.32035"
       id="path9923" />
    <path
       style="fill:none;fill-opacity:1;stroke:#000000;stroke-width:2.1874;stroke-dasharray:none;stroke-opacity:1"
       d="m 258.41539,378.68257 -33.17715,-0.55338 -6.51696,-3.32036"
       id="path9925" />
    <path
       style="fill:none;fill-opacity:1;stroke:#000000;stroke-width:2.1874;stroke-dasharray:none;stroke-opacity:1"
       d="m 258.41539,371.51681 -33.17715,-0.55338 -6.51696,-3.32036"
       id="path9927" />
    <path
       style="fill:none;fill-opacity:1;stroke:#000000;stroke-width:2.10575;stroke-dasharray:none;stroke-opacity:1"
       d="m 257.32609,364.8943 16.53639,-2.20485 15.98518,-6.06335 19.29245,-9.92183 18.19002,-13.22911 14.88276,-13.78033 7.71698,-14.33154"
       id="path9929" />
  </g>
</svg>
