<?xml version="1.0" encoding="UTF-8" standalone="no"?>
<!-- Created with Inkscape (http://www.inkscape.org/) -->

<svg
   width="157.44884"
   height="300"
   viewBox="0 0 157.44884 300.00001"
   version="1.1"
   id="svg1719"
   inkscape:version="1.2.1 (9c6d41e410, 2022-07-14)"
   sodipodi:docname="ion-gauge.svg"
   xmlns:inkscape="http://www.inkscape.org/namespaces/inkscape"
   xmlns:sodipodi="http://sodipodi.sourceforge.net/DTD/sodipodi-0.dtd"
   xmlns="http://www.w3.org/2000/svg"
   xmlns:svg="http://www.w3.org/2000/svg">
  <sodipodi:namedview
     id="namedview1721"
     pagecolor="#ffffff"
     bordercolor="#000000"
     borderopacity="0.25"
     inkscape:showpageshadow="2"
     inkscape:pageopacity="0.0"
     inkscape:pagecheckerboard="0"
     inkscape:deskcolor="#d1d1d1"
     inkscape:document-units="px"
     showgrid="false"
     inkscape:zoom="3.6596241"
     inkscape:cx="120.64081"
     inkscape:cy="153.15781"
     inkscape:window-width="2498"
     inkscape:window-height="1417"
     inkscape:window-x="54"
     inkscape:window-y="-8"
     inkscape:window-maximized="1"
     inkscape:current-layer="ion-gauge" />
  <defs
     id="defs1716" />
  <g
     id="ion-gauge"
     style="display:inline"
     transform="translate(-199.42654,-188.65913)">
    <path
       style="fill:#999999;fill-opacity:1;stroke:#000000;stroke-width:7.32897;stroke-opacity:1;paint-order:markers stroke fill"
       id="rect766"
       d="m 241.83166,409.93471 h 73.84926 v 75.05994 h -73.84926 z" />
    <path
       style="display:inline;fill:#333333;fill-opacity:1;stroke:#000000;stroke-width:7.32897;stroke-dasharray:none;stroke-opacity:1;paint-order:markers stroke fill"
       id="rect768"
       d="M 203.09102,192.32361 H 353.21089 V 409.93464 H 203.09102 Z" />
    <path
       id="rect772"
       style="fill:#ffd42a;stroke-width:6.48412"
       d="M 205.30935 192.12397 C 204.09127 192.12397 203.1199 193.09536 203.1199 194.31343 L 203.1199 406.79585 C 203.1199 408.01393 204.09127 409.00093 205.30935 409.00093 L 229.94412 409.00093 C 231.1622 409.00093 232.1492 408.01393 232.1492 406.79585 L 232.1492 194.31343 C 232.1492 193.09536 231.16219 192.12397 229.94412 192.12397 L 205.30935 192.12397 z M 326.33865 192.12397 C 325.12058 192.12397 324.13357 193.09536 324.13357 194.31343 L 324.13357 407.26851 C 324.13357 408.4865 325.12058 409.47358 326.33865 409.47358 L 351.60232 409.47358 C 352.8204 409.47358 353.8074 408.4865 353.8074 407.26851 L 353.8074 194.31343 C 353.8074 193.09536 352.8204 192.12397 351.60232 192.12397 L 326.33865 192.12397 z M 246.69216 306.93061 C 245.47409 306.93061 244.4949 307.91176 244.4949 309.12983 L 244.4949 333.37007 C 244.4949 334.58814 245.47409 335.56929 246.69216 335.56929 L 273.36013 335.56929 C 274.57821 335.56929 275.55935 334.58814 275.55935 333.37007 L 275.55935 309.12983 C 275.55935 307.91176 274.57821 306.93061 273.36013 306.93061 L 246.69216 306.93061 z M 283.09646 307.1728 C 281.87839 307.1728 280.8992 308.15395 280.8992 309.37202 L 280.8992 333.61421 C 280.8992 334.83228 281.87839 335.81147 283.09646 335.81147 L 309.76443 335.81147 C 310.9825 335.81147 311.96365 334.83228 311.96365 333.61421 L 311.96365 309.37202 C 311.96365 308.15395 310.9825 307.1728 309.76443 307.1728 L 283.09646 307.1728 z M 246.20779 342.12202 C 244.98972 342.12202 244.00857 343.10317 244.00857 344.32124 L 244.00857 368.56147 C 244.00857 369.77955 244.98972 370.76069 246.20779 370.76069 L 272.87576 370.76069 C 274.09383 370.76069 275.07302 369.77955 275.07302 368.56147 L 275.07302 344.32124 C 275.07302 343.10317 274.09383 342.12202 272.87576 342.12202 L 246.20779 342.12202 z M 283.58279 342.12202 C 282.36472 342.12202 281.38357 343.10317 281.38357 344.32124 L 281.38357 368.56147 C 281.38357 369.77955 282.36472 370.76069 283.58279 370.76069 L 310.25076 370.76069 C 311.46883 370.76069 312.44998 369.77955 312.44998 368.56147 L 312.44998 344.32124 C 312.44998 343.10317 311.46883 342.12202 310.25076 342.12202 L 283.58279 342.12202 z " />
    <rect
       style="fill:#000000;stroke-width:7.32897"
       id="rect784"
       width="64.072205"
       height="68.926155"
       x="245.95009"
       y="209.85184"
       rx="2.1986909"
       ry="2.1986909" />
    <path
       style="display:inline;fill:#000000;stroke-width:7.32897"
       id="path786"
       d="m 293.5899,335.10741 -8.58906,-5.4411 9.00667,-4.7178 z" />
    <path
       style="display:inline;fill:none;fill-rule:evenodd;stroke:#000000;stroke-width:4.85114"
       id="path788"
       d="m 285.90807,318.9398 c 1.53209,-4.82836 7.45426,-7.75054 13.00809,-6.41859 5.55385,1.332 8.91507,6.48056 7.38297,11.30896 -1.53209,4.82835 -7.45425,7.75053 -13.00809,6.41854" />
    <path
       id="rect790"
       style="display:inline;fill:#000000;stroke-width:7.32897"
       d="m 304.76618,346.81887 c -1.21807,0 -2.2044,0.98634 -2.2044,2.20441 v 8.35957 h -10.39225 c -0.29316,0 -0.57533,0.0513 -0.83024,0.15757 l -0.0147,-2.43343 -8.5886,5.98337 8.66021,5.84031 -0.0147,-2.57658 c 0.24333,0.0924 0.51011,0.14292 0.78735,0.14292 h 13.88495 c 0.94596,0 1.7498,-0.59658 2.06129,-1.43142 0.21473,-0.34007 0.34372,-0.74008 0.34372,-1.17381 v -12.86864 c 0,-1.21808 -0.98633,-2.20441 -2.2044,-2.20441 z" />
    <path
       id="path796"
       style="display:inline;fill:#000000;stroke-width:7.32897"
       d="m 259.74741,308.85709 -7.68685,13.44125 4.29435,-0.0147 c -0.16492,0.30855 -0.25799,0.66914 -0.25799,1.04497 v 7.80132 c 0,1.21807 0.97204,2.19012 2.19011,2.19012 h 3.00606 c 1.21807,0 2.19004,-0.97205 2.19004,-2.19012 v -7.80132 c 0,-0.3877 -0.0967,-0.75782 -0.2719,-1.07355 l 4.33728,-0.0147 z" />
    <path
       id="path802"
       style="display:inline;fill:#000000;stroke-width:7.32897"
       d="m 257.91516,344.34249 c -1.21807,0 -2.19012,0.98633 -2.19012,2.20441 v 7.80132 c 0,0.37597 0.0924,0.73605 0.25798,1.04496 l -4.29433,-0.0147 7.68684,13.44119 7.80132,-13.38395 -4.33728,-0.0147 c 0.17516,-0.31588 0.2719,-0.68526 0.2719,-1.07362 v -7.80133 c 0,-1.21807 -0.97204,-2.2044 -2.19011,-2.2044 z" />
  </g>
</svg>
