<?xml version="1.0" encoding="UTF-8" standalone="no"?>
<!-- Created with Inkscape (http://www.inkscape.org/) -->

<svg
   width="300"
   height="259.8656"
   viewBox="0 0 300.00001 259.86559"
   version="1.1"
   id="svg11081"
   inkscape:version="1.2.1 (9c6d41e410, 2022-07-14)"
   sodipodi:docname="laser.svg"
   xmlns:inkscape="http://www.inkscape.org/namespaces/inkscape"
   xmlns:sodipodi="http://sodipodi.sourceforge.net/DTD/sodipodi-0.dtd"
   xmlns="http://www.w3.org/2000/svg"
   xmlns:svg="http://www.w3.org/2000/svg">
  <sodipodi:namedview
     id="namedview11083"
     pagecolor="#ffffff"
     bordercolor="#000000"
     borderopacity="0.25"
     inkscape:showpageshadow="2"
     inkscape:pageopacity="0.0"
     inkscape:pagecheckerboard="0"
     inkscape:deskcolor="#d1d1d1"
     inkscape:document-units="px"
     showgrid="false"
     inkscape:zoom="2"
     inkscape:cx="-0.75"
     inkscape:cy="153.25"
     inkscape:window-width="2498"
     inkscape:window-height="1417"
     inkscape:window-x="54"
     inkscape:window-y="-8"
     inkscape:window-maximized="1"
     inkscape:current-layer="svg11081" />
  <defs
     id="defs11078" />
  <g
     id="laser"
     transform="matrix(12.107759,0,0,15.282738,-774.31791,-4410.102)"
     inkscape:label="laser">
    <path
       style="display:inline;fill:#ffd42a;stroke:#000000;stroke-width:1.12349;stroke-opacity:1;paint-order:markers stroke fill"
       d="m 87.624998,305.00336 -22.568632,0.006 11.278005,-15.488 z"
       id="path4004" />
    <path
       id="ellipse4006"
       style="fill:#ff0000;stroke-width:0"
       d="m 70.736677,295.06754 0.01479,0.0195 0.01479,-0.0137 z m 7.262735,0 -0.02712,0.006 0.01479,0.0137 z m -3.444005,0.91602 -0.505384,0.01 0.0049,2.48438 a 2.2644367,1.687 0 0 0 -0.01479,0 l -0.426495,-1.2168 -0.03698,0.004 -0.09122,0.0137 c -0.03573,0.008 -0.06949,0.0218 -0.103542,0.0312 -0.04498,0.0113 -0.08816,0.023 -0.135591,0.0273 a 1.6654925,1.0060893 24.814857 0 1 -0.123264,0.006 l 0.421564,1.20117 -1.553131,-2.25195 h -0.0025 c -0.05175,0.019 -0.103498,0.0358 -0.157778,0.0508 -0.03913,0.01 -0.06826,0.0288 -0.101077,0.0488 a 1.7418744,1.38 0 0 0 -0.05917,0.0332 l 1.54327,2.23828 a 2.2644367,1.687 0 0 0 -0.133126,0.0625 L 71.9372,297.75739 c -0.005,0.001 -0.0083,0.004 -0.0099,0.006 a 4.8647279,2.5799957 7.9502074 0 1 -0.128195,0.0762 c -0.03336,0.0188 -0.0632,0.0377 -0.101077,0.0527 -0.0011,0.003 -0.0033,0.006 -0.0074,0.008 l -0.03451,0.0215 c -0.01168,0.004 -0.02129,0.0104 -0.03205,0.0156 l -0.01972,0.0137 c -0.0073,0.005 -0.01887,0.01 -0.02712,0.0137 l -0.02219,0.0117 -0.01479,0.01 1.141428,0.96875 A 2.2644367,1.687 0 0 0 72.523897,299.09 l -2.608273,-1.14062 a 2.9283685,2.32 0 0 0 -0.12573,0.13672 1.4717576,1.166 0 0 0 -0.08629,0.13086 l 2.586086,1.13086 a 2.2644367,1.687 0 0 0 -0.07889,0.125 l -1.651742,-0.36914 v 0.006 c 0.0017,0.0124 8e-4,0.0232 0,0.0351 l -0.0074,0.0312 a 0.32751838,0.21188844 31.2475 0 1 -0.01726,0.0469 c -0.0053,0.007 -0.0073,0.0131 -0.0099,0.0215 a 0.20893414,0.13517021 31.247499 0 0 -0.01479,0.043 l -0.0099,0.0312 a 0.44186746,0.28586673 31.2475 0 1 -0.0049,0.0254 c 0.0039,8.6e-4 0.01006,0.004 0.0099,0.0117 0.0017,0.0124 -0.0016,0.0253 -0.0025,0.0371 v 0.006 0.0117 c -0.0023,0.0105 -0.0095,0.0134 -0.01726,0.0117 v 0.004 c 0.0014,0.0103 10e-4,0.0224 0,0.0332 v 0.0352 l 1.567922,0.34766 a 2.2644367,1.687 0 0 0 -0.02219,0.12304 h -3.061886 v 0.40039 h 3.064351 a 2.2644367,1.687 0 0 0 0.03451,0.14063 l -1.59504,0.36328 -0.05177,0.41016 1.80952,-0.41016 a 2.2644367,1.687 0 0 0 0.157778,0.20899 l -2.88192,1.45507 c 0.01767,0.02 0.03777,0.0386 0.0567,0.0586 0.03913,0.04 0.08017,0.0803 0.13066,0.11328 l 0.08135,0.0625 2.869594,-1.44727 a 2.2644367,1.687 0 0 0 0.04438,0.0352 l -1.183337,0.99023 0.229271,0.375 1.358374,-1.13476 a 2.2644367,1.687 0 0 0 0.0049,0.002 l -1.627089,2.35742 c 0.04292,0.01 0.08282,0.0232 0.125729,0.0352 a 1.1486273,0.91 0 0 1 0.20955,0.0723 l 1.617228,-2.34375 a 2.2644367,1.687 0 0 0 0.103542,0.0312 l -0.530037,1.51172 0.532502,-0.0488 0.483197,-1.37891 a 2.2644367,1.687 0 0 0 0.04684,0.002 l 0.0049,2.41211 0.507849,-0.008 -0.0049,-2.4082 a 2.2644367,1.687 0 0 0 0.120799,-0.0137 l 0.488127,1.39454 0.532502,0.0488 -0.544829,-1.55273 a 2.2644367,1.687 0 0 0 0.118334,-0.0371 l 1.649277,2.39062 a 1.080467,0.856 0 0 1 0.20955,-0.0723 c 0.04291,-0.012 0.08281,-0.0252 0.125729,-0.0352 l -1.671464,-2.42383 a 2.2644367,1.687 0 0 0 0.06656,-0.0391 l 1.343582,1.13867 0.500453,-0.14257 -1.484103,-1.25782 a 2.2644367,1.687 0 0 0 0.165175,-0.17187 l 3.091469,1.35156 0.07149,-0.0664 a 0.90880402,0.72 0 0 0 0.118333,-0.12304 l 0.04931,-0.0606 -3.022442,-1.32226 1.982091,0.43945 -0.05424,-0.41016 -1.915528,-0.42773 a 2.2644367,1.687 0 0 0 0.0099,-0.0645 h 7.999856 v -0.40039 h -7.99246 a 2.2644367,1.687 0 0 0 -0.0099,-0.0664 l 1.900736,-0.43164 0.05177,-0.41211 -2.088098,0.47265 a 2.2644367,1.687 0 0 0 -0.03945,-0.0684 l 2.859733,-1.4414 a 1.4389397,1.14 0 0 0 -0.101077,-0.125 2.870306,2.274 0 0 0 -0.142986,-0.125 l -2.820289,1.42187 a 2.2644367,1.687 0 0 0 -0.08382,-0.084 l 1.336185,-1.11914 -0.229271,-0.375 -1.464381,1.22656 a 2.2644367,1.687 0 0 0 -0.212015,-0.11328 l 1.58518,-2.29883 a 1.7418744,1.38 0 0 0 -0.05917,-0.0332 c -0.03282,-0.02 -0.06195,-0.0388 -0.101077,-0.0488 a 1.7103187,1.355 0 0 1 -0.157778,-0.0508 h -0.0025 l -1.59011,2.30664 a 2.2644367,1.687 0 0 0 -0.01233,-0.004 l 0.564551,-1.61132 -0.532502,0.0508 -0.510314,1.45507 a 2.2644367,1.687 0 0 0 -0.106008,-0.0117 z m 6.301273,0.96289 c 0.0088,0.008 0.01822,0.0185 0.02958,0.0195 v -0.004 a 0.0227201,0.018 0 0 0 -0.01479,-0.0137 c -0.0025,-10e-4 -0.0086,-0.003 -0.0099,-0.002 z m -12.863867,0.29882 c -0.0025,0 -0.0074,-4e-5 -0.0099,0.002 a 0.02524456,0.02 0 0 0 -0.01233,0.0137 v 0.004 c 0.0101,-0.002 0.01955,-0.0115 0.02712,-0.0195 z m 2.487474,1.8418 v 0.004 h 0.0025 z m 0.05424,0.01 c 5.3e-4,0.004 -0.0014,0.008 -0.0025,0.0117 l 0.0025,-0.002 c -7.03e-4,-0.005 1.3e-4,-0.009 0.0025,-0.01 z m -0.0025,0.0117 c -3.38e-4,0.001 9.9e-5,0.002 0,0.004 h 0.0025 z m -0.05177,0.18359 v 0.008 a 0.04799839,0.03105262 31.247501 0 1 0.0025,-0.008 z m 0.278578,5.68555 -0.02219,0.0332 0.05177,-0.0137 a 0.19438308,0.154 0 0 1 -0.02958,-0.0195 z m 7.220825,0 a 0.19438308,0.154 0 0 1 -0.03205,0.0195 l 0.05424,0.0137 z" />
  </g>
</svg>
