<?xml version="1.0" encoding="UTF-8" standalone="no"?>
<!-- Created with Inkscape (http://www.inkscape.org/) -->

<svg
   width="77.17601"
   height="77.043053"
   viewBox="0 0 77.17601 77.043053"
   version="1.1"
   id="svg18654"
   inkscape:version="1.2.1 (9c6d41e410, 2022-07-14)"
   sodipodi:docname="rotary-pump.svg"
   xmlns:inkscape="http://www.inkscape.org/namespaces/inkscape"
   xmlns:sodipodi="http://sodipodi.sourceforge.net/DTD/sodipodi-0.dtd"
   xmlns="http://www.w3.org/2000/svg"
   xmlns:svg="http://www.w3.org/2000/svg">
  <sodipodi:namedview
     id="namedview18656"
     pagecolor="#ffffff"
     bordercolor="#000000"
     borderopacity="0.25"
     inkscape:showpageshadow="2"
     inkscape:pageopacity="0.0"
     inkscape:pagecheckerboard="0"
     inkscape:deskcolor="#d1d1d1"
     inkscape:document-units="px"
     showgrid="false"
     inkscape:zoom="3.659624"
     inkscape:cx="65.170629"
     inkscape:cy="20.08403"
     inkscape:window-width="1462"
     inkscape:window-height="1243"
     inkscape:window-x="1531"
     inkscape:window-y="87"
     inkscape:window-maximized="0"
     inkscape:current-layer="svg18654" />
  <defs
     id="defs18651" />
  <g
     id="rotary-pump"
     transform="translate(-178.27018,-418.46317)"
     style="display:inline"
     inkscape:label="rotary-pump">
    <path
       id="rect3645"
       style="display:inline;fill:#999999;fill-opacity:1;stroke:#000000;stroke-width:1;stroke-dasharray:none;stroke-opacity:1;paint-order:markers stroke fill"
       d="m 227.59071,418.96317 v 1.80664 h 0.77344 v 8.23242 h -13.62109 v -0.60156 h -1.7168 v 11.75586 h 1.7168 v -0.73828 h 13.62109 v 19.91797 h -29.17773 v 13.21093 l -0.0898,0.002 v -8.44531 c 0,0 -20.07226,2.15212 -20.07226,5.01953 0,1.37366 -0.0341,2.79685 -0.0684,3.92382 l -0.041,0.002 c 0,0 -0.0131,1.16675 -0.0176,1.64062 -0.003,0.0816 -0.0156,0.45508 -0.0156,0.45508 h 0.0117 c -0.0229,2.36173 -0.0684,6.69851 -0.12305,8.93945 -0.0701,2.87581 19.57766,5.11845 20.41602,5.21289 v 5.70899 H 249.6083 V 459.3363 h -10.1289 v -19.91797 h 13.75 v 0.73828 h 1.71679 v -11.75586 h -1.71679 v 0.60156 h -13.75 v -8.23242 h 0.65429 v -1.80664 z m -23.88867,27.66016 c -0.35977,-4.7e-4 -0.77546,0.002 -1.26758,0.006 -1.96847,0.0149 -5.15856,0.0447 -6.79882,0.0449 -0.49932,6e-5 -0.85344,-0.002 -1.10743,0.0293 h -6.97656 v 7.3379 h 7.24805 v -0.0312 c 0.82763,-0.0259 2.35837,0.001 3.38476,0.0156 1.05878,0.0149 1.56701,0.0156 2.0293,0.0156 0.46229,0 0.87907,-6.4e-4 1.25195,0.0293 0.37289,0.0299 0.701,0.0907 1.10352,0.4043 0.40252,0.3136 0.87904,0.87888 1.11719,1.6543 0.23814,0.77541 0.23828,1.76092 0.23828,2.74414 l 9.93164,-0.17969 c 0.0298,-0.9236 0.0598,-1.84784 0.0449,-2.66797 -0.0148,-0.82013 -0.0732,-1.53569 -0.25195,-2.28125 -0.17877,-0.74556 -0.47738,-1.52137 -0.93946,-2.29687 -0.46207,-0.77551 -1.08831,-1.55196 -1.78906,-2.19336 -0.70075,-0.64141 -1.47618,-1.14674 -2.32617,-1.56446 -0.84999,-0.41771 -1.77418,-0.7459 -2.60938,-0.91015 -0.6264,-0.12319 -1.2039,-0.15485 -2.2832,-0.15625 z" />
    <rect
       style="fill:#4d4d4d;stroke-width:1.07682"
       id="rect3687"
       width="24.996719"
       height="0.98267198"
       x="223.82787"
       y="460.82504"
       rx="0.30000001"
       ry="0.30000001" />
    <rect
       style="fill:#4d4d4d;stroke-width:1.07682"
       id="rect3689"
       width="24.996719"
       height="0.98267198"
       x="223.85857"
       y="462.48331"
       rx="0.30000001"
       ry="0.30000001" />
    <rect
       style="fill:#4d4d4d;stroke-width:1.07682"
       id="rect3691"
       width="24.996719"
       height="0.98267198"
       x="223.91998"
       y="464.2644"
       rx="0.30000001"
       ry="0.30000001" />
    <rect
       style="fill:#4d4d4d;stroke-width:1.07682"
       id="rect3693"
       width="24.996719"
       height="0.98267198"
       x="223.85857"
       y="465.92267"
       rx="0.30000001"
       ry="0.30000001" />
    <rect
       style="fill:#4d4d4d;stroke-width:1.07682"
       id="rect3695"
       width="24.996719"
       height="0.98267198"
       x="223.79715"
       y="467.4581"
       rx="0.30000001"
       ry="0.30000001" />
    <rect
       style="fill:#4d4d4d;stroke-width:1.07682"
       id="rect3697"
       width="24.996719"
       height="0.98267198"
       x="223.85857"
       y="469.05493"
       rx="0.30000001"
       ry="0.30000001" />
    <rect
       style="fill:#4d4d4d;stroke-width:1.07682"
       id="rect3699"
       width="24.996719"
       height="0.98267198"
       x="223.89928"
       y="470.64542"
       rx="0.30000001"
       ry="0.30000001" />
    <rect
       style="fill:#4d4d4d;stroke-width:1.07682"
       id="rect3701"
       width="24.996719"
       height="0.98267198"
       x="223.89928"
       y="472.2131"
       rx="0.30000001"
       ry="0.30000001" />
    <rect
       style="fill:#4d4d4d;stroke-width:1.07682"
       id="rect3703"
       width="24.996719"
       height="0.98267198"
       x="223.84702"
       y="473.78079"
       rx="0.30000001"
       ry="0.30000001" />
    <rect
       style="fill:#4d4d4d;stroke-width:1.07682"
       id="rect3705"
       width="24.996719"
       height="0.98267198"
       x="223.84702"
       y="475.34851"
       rx="0.30000001"
       ry="0.30000001" />
    <rect
       style="fill:#4d4d4d;stroke-width:1.07682"
       id="rect3707"
       width="24.996719"
       height="0.98267198"
       x="223.84702"
       y="476.96848"
       rx="0.30000001"
       ry="0.30000001" />
    <rect
       style="fill:#4d4d4d;stroke-width:1.07682"
       id="rect3709"
       width="24.996719"
       height="0.98267198"
       x="223.89926"
       y="478.64066"
       rx="0.30000001"
       ry="0.30000001" />
    <rect
       style="fill:#4d4d4d;stroke-width:1.07682"
       id="rect3711"
       width="24.996719"
       height="0.98267198"
       x="223.89928"
       y="480.15613"
       rx="0.30000001"
       ry="0.30000001" />
    <rect
       style="fill:#4d4d4d;stroke-width:1.07682"
       id="rect3713"
       width="24.996719"
       height="0.98267198"
       x="223.92542"
       y="481.82834"
       rx="0.30000001"
       ry="0.30000001" />
    <rect
       style="fill:#4d4d4d;stroke-width:1.07682"
       id="rect3715"
       width="24.996719"
       height="0.98267198"
       x="223.92542"
       y="483.39606"
       rx="0.30000001"
       ry="0.30000001" />
    <rect
       style="fill:#4d4d4d;stroke-width:1.07682"
       id="rect3717"
       width="24.996719"
       height="0.98267198"
       x="223.92542"
       y="485.01602"
       rx="0.30000001"
       ry="0.30000001" />
    <rect
       style="fill:#4d4d4d;stroke-width:1.07682"
       id="rect3719"
       width="24.996719"
       height="0.98267198"
       x="223.97766"
       y="486.63596"
       rx="0.30000001"
       ry="0.30000001" />
    <rect
       style="fill:#4d4d4d;stroke-width:1.07682"
       id="rect3721"
       width="24.996719"
       height="0.98267198"
       x="223.87317"
       y="488.20367"
       rx="0.30000001"
       ry="0.30000001" />
    <rect
       style="fill:#4d4d4d;stroke-width:1.07682"
       id="rect3723"
       width="24.996719"
       height="0.98267198"
       x="224.00378"
       y="489.77139"
       rx="0.30000001"
       ry="0.30000001" />
    <rect
       style="fill:#4d4d4d;stroke-width:1.07682"
       id="rect3725"
       width="24.996719"
       height="0.98267198"
       x="224.00378"
       y="491.39136"
       rx="0.30000001"
       ry="0.30000001" />
    <rect
       style="fill:#4d4d4d;stroke-width:1.07682"
       id="rect3727"
       width="24.996719"
       height="0.98267198"
       x="224.05603"
       y="493.01129"
       rx="0.30000001"
       ry="0.30000001" />
    <path
       style="display:inline;fill:#ff0000;stroke:#000000;stroke-width:1;stroke-dasharray:none;stroke-opacity:1;paint-order:markers stroke fill"
       id="rect3667"
       d="m 201.25661,459.32928 h 20.3945 v 35.64232 h -20.3945 z" />
    <path
       style="display:inline;fill:#333333;stroke:#000000;stroke-width:0.5;stroke-dasharray:none;stroke-opacity:1;paint-order:markers stroke fill"
       id="path3669"
       d="m 203.96401,462.01245 c -0.0376,0.0244 -1.05091,0.0294 -1.08872,0.005 -0.0379,-0.0239 -0.54839,-0.99529 -0.54859,-1.04362 -1.9e-4,-0.0483 0.50253,-1.02466 0.54014,-1.04901 0.0377,-0.0244 1.05092,-0.0294 1.08873,-0.005 0.0378,0.0239 0.54838,0.99529 0.54858,1.04361 2e-4,0.0483 -0.50252,1.02468 -0.54014,1.04902 z" />
    <path
       style="display:inline;fill:#333333;stroke:#000000;stroke-width:0.500001;stroke-dasharray:none;stroke-opacity:1;paint-order:markers stroke fill"
       id="path3671"
       d="m 220.56675,461.69923 c -0.0376,0.0218 -1.05091,0.0263 -1.08872,0.005 -0.0379,-0.0215 -0.54839,-0.8923 -0.54859,-0.93563 -1.9e-4,-0.0433 0.50253,-0.91863 0.54014,-0.94046 0.0377,-0.0218 1.05092,-0.0263 1.08873,-0.005 0.0378,0.0215 0.54838,0.89229 0.54858,0.93561 2e-4,0.0433 -0.50252,0.91864 -0.54014,0.94047 z" />
    <path
       style="display:inline;fill:#333333;stroke:#000000;stroke-width:0.5;stroke-dasharray:none;stroke-opacity:1;paint-order:markers stroke fill"
       id="path3673"
       d="m 220.31018,477.30216 c -0.0392,0.0229 -1.09642,0.0276 -1.13587,0.005 -0.0395,-0.0225 -0.57214,-0.93572 -0.57234,-0.98116 -2e-4,-0.0454 0.52429,-0.96334 0.56353,-0.98623 0.0393,-0.0229 1.09643,-0.0276 1.13588,-0.005 0.0394,0.0225 0.57213,0.93572 0.57234,0.98115 2e-4,0.0454 -0.52429,0.96335 -0.56354,0.98624 z" />
    <path
       style="display:inline;fill:#333333;stroke:#000000;stroke-width:0.5;stroke-dasharray:none;stroke-opacity:1;paint-order:markers stroke fill"
       id="path3675"
       d="m 220.4737,494.30882 c -0.0392,0.0229 -1.09642,0.0276 -1.13587,0.005 -0.0395,-0.0225 -0.57214,-0.93572 -0.57234,-0.98116 -2e-4,-0.0454 0.52429,-0.96334 0.56353,-0.98623 0.0393,-0.0229 1.09643,-0.0276 1.13588,-0.005 0.0394,0.0225 0.57213,0.93572 0.57234,0.98115 2e-4,0.0454 -0.52429,0.96335 -0.56354,0.98624 z" />
    <path
       style="display:inline;fill:#333333;stroke:#000000;stroke-width:0.5;stroke-dasharray:none;stroke-opacity:1;paint-order:markers stroke fill"
       id="path3677"
       d="m 203.71234,477.38392 c -0.0392,0.0229 -1.09642,0.0276 -1.13587,0.005 -0.0395,-0.0225 -0.57214,-0.93572 -0.57234,-0.98116 -2e-4,-0.0454 0.52429,-0.96334 0.56353,-0.98623 0.0393,-0.0229 1.09643,-0.0276 1.13588,-0.005 0.0394,0.0225 0.57213,0.93572 0.57234,0.98115 2e-4,0.0454 -0.52429,0.96335 -0.56354,0.98624 z" />
    <path
       style="display:inline;fill:#333333;stroke:#000000;stroke-width:0.5;stroke-dasharray:none;stroke-opacity:1;paint-order:markers stroke fill"
       id="path3679"
       d="m 203.30352,494.22705 c -0.0392,0.0229 -1.09642,0.0276 -1.13587,0.005 -0.0395,-0.0225 -0.57214,-0.93572 -0.57234,-0.98116 -2e-4,-0.0454 0.52429,-0.96334 0.56353,-0.98623 0.0393,-0.0229 1.09643,-0.0276 1.13588,-0.005 0.0394,0.0225 0.57213,0.93572 0.57234,0.98115 2e-4,0.0454 -0.52429,0.96335 -0.56354,0.98624 z" />
  </g>
</svg>
