<?xml version="1.0" encoding="UTF-8" standalone="no"?>
<!-- Created with Inkscape (http://www.inkscape.org/) -->

<svg
   width="300"
   height="299.48318"
   viewBox="0 0 300 299.48318"
   version="1.1"
   id="svg18654"
   inkscape:version="1.2.1 (9c6d41e410, 2022-07-14)"
   sodipodi:docname="rotary-pump.svg"
   xmlns:inkscape="http://www.inkscape.org/namespaces/inkscape"
   xmlns:sodipodi="http://sodipodi.sourceforge.net/DTD/sodipodi-0.dtd"
   xmlns="http://www.w3.org/2000/svg"
   xmlns:svg="http://www.w3.org/2000/svg">
  <sodipodi:namedview
     id="namedview18656"
     pagecolor="#ffffff"
     bordercolor="#000000"
     borderopacity="0.25"
     inkscape:showpageshadow="2"
     inkscape:pageopacity="0.0"
     inkscape:pagecheckerboard="0"
     inkscape:deskcolor="#d1d1d1"
     inkscape:document-units="px"
     showgrid="false"
     inkscape:zoom="2.5877449"
     inkscape:cx="131.19531"
     inkscape:cy="126.17163"
     inkscape:window-width="2498"
     inkscape:window-height="1417"
     inkscape:window-x="54"
     inkscape:window-y="-8"
     inkscape:window-maximized="1"
     inkscape:current-layer="svg18654" />
  <defs
     id="defs18651" />
  <g
     id="rotary-pump"
     transform="matrix(3.8872184,0,0,3.8872184,-692.97513,-1626.6577)"
     style="display:inline"
     inkscape:label="rotary-pump">
    <path
       id="rect3645"
       style="display:inline;fill:#999999;fill-opacity:1;stroke:#000000;stroke-width:1;stroke-dasharray:none;stroke-opacity:1;paint-order:markers stroke fill"
       d="m 227.59071,418.96317 v 1.80664 h 0.77344 v 8.23242 h -13.62109 v -0.60156 h -1.7168 v 11.75586 h 1.7168 v -0.73828 h 13.62109 v 19.91797 h -29.17773 v 13.21093 l -0.0898,0.002 v -8.44531 c 0,0 -20.07226,2.15212 -20.07226,5.01953 0,1.37366 -0.0341,2.79685 -0.0684,3.92382 l -0.041,0.002 c 0,0 -0.0131,1.16675 -0.0176,1.64062 -0.003,0.0816 -0.0156,0.45508 -0.0156,0.45508 h 0.0117 c -0.0229,2.36173 -0.0684,6.69851 -0.12305,8.93945 -0.0701,2.87581 19.57766,5.11845 20.41602,5.21289 v 5.70899 H 249.6083 V 459.3363 h -10.1289 v -19.91797 h 13.75 v 0.73828 h 1.71679 v -11.75586 h -1.71679 v 0.60156 h -13.75 v -8.23242 h 0.65429 v -1.80664 z m -23.88867,27.66016 c -0.35977,-4.7e-4 -0.77546,0.002 -1.26758,0.006 -1.96847,0.0149 -5.15856,0.0447 -6.79882,0.0449 -0.49932,6e-5 -0.85344,-0.002 -1.10743,0.0293 h -6.97656 v 7.3379 h 7.24805 v -0.0312 c 0.82763,-0.0259 2.35837,0.001 3.38476,0.0156 1.05878,0.0149 1.56701,0.0156 2.0293,0.0156 0.46229,0 0.87907,-6.4e-4 1.25195,0.0293 0.37289,0.0299 0.701,0.0907 1.10352,0.4043 0.40252,0.3136 0.87904,0.87888 1.11719,1.6543 0.23814,0.77541 0.23828,1.76092 0.23828,2.74414 l 9.93164,-0.17969 c 0.0298,-0.9236 0.0598,-1.84784 0.0449,-2.66797 -0.0148,-0.82013 -0.0732,-1.53569 -0.25195,-2.28125 -0.17877,-0.74556 -0.47738,-1.52137 -0.93946,-2.29687 -0.46207,-0.77551 -1.08831,-1.55196 -1.78906,-2.19336 -0.70075,-0.64141 -1.47618,-1.14674 -2.32617,-1.56446 -0.84999,-0.41771 -1.77418,-0.7459 -2.60938,-0.91015 -0.6264,-0.12319 -1.2039,-0.15485 -2.2832,-0.15625 z" />
    <path
       id="rect3687"
       style="fill:#4d4d4d;stroke-width:1.07682"
       d="m 224.1276,460.8245 c -0.1662,0 -0.29883,0.13458 -0.29883,0.30078 v 0.38281 c 0,0.1662 0.13263,0.29883 0.29883,0.29883 h 24.39649 c 0.1662,0 0.30078,-0.13263 0.30078,-0.29883 v -0.38281 c 0,-0.1662 -0.13458,-0.30078 -0.30078,-0.30078 z m 0.0312,1.6582 c -0.1662,0 -0.30078,0.13458 -0.30078,0.30078 v 0.38281 c 0,0.1662 0.13458,0.29883 0.30078,0.29883 h 24.39649 c 0.1662,0 0.30078,-0.13263 0.30078,-0.29883 v -0.38281 c 0,-0.1662 -0.13458,-0.30078 -0.30078,-0.30078 z m 0.0606,1.78125 c -0.1662,0 -0.29883,0.13458 -0.29883,0.30078 v 0.38281 c 0,0.1662 0.13263,0.29883 0.29883,0.29883 h 24.39648 c 0.1662,0 0.30078,-0.13263 0.30078,-0.29883 v -0.38281 c 0,-0.1662 -0.13458,-0.30078 -0.30078,-0.30078 z m -0.0606,1.6582 c -0.1662,0 -0.30078,0.13459 -0.30078,0.30079 v 0.38281 c 0,0.1662 0.13458,0.29883 0.30078,0.29883 h 24.39649 c 0.1662,0 0.30078,-0.13263 0.30078,-0.29883 v -0.38281 c 0,-0.1662 -0.13458,-0.30079 -0.30078,-0.30079 z m -0.0625,1.53516 c -0.1662,0 -0.29883,0.13458 -0.29883,0.30078 v 0.38281 c 0,0.1662 0.13263,0.30079 0.29883,0.30079 h 24.39844 c 0.1662,0 0.29883,-0.13459 0.29883,-0.30079 v -0.38281 c 0,-0.1662 -0.13263,-0.30078 -0.29883,-0.30078 z m 0.0625,1.59766 c -0.1662,0 -0.30078,0.13458 -0.30078,0.30078 v 0.38281 c 0,0.1662 0.13458,0.29883 0.30078,0.29883 h 24.39649 c 0.1662,0 0.30078,-0.13263 0.30078,-0.29883 v -0.38281 c 0,-0.1662 -0.13458,-0.30078 -0.30078,-0.30078 z m 0.041,1.58984 c -0.1662,0 -0.30078,0.13458 -0.30078,0.30078 v 0.38281 c 0,0.1662 0.13458,0.29883 0.30078,0.29883 h 24.39648 c 0.1662,0 0.29883,-0.13263 0.29883,-0.29883 v -0.38281 c 0,-0.1662 -0.13263,-0.30078 -0.29883,-0.30078 z m 0,1.56836 c -0.1662,0 -0.30078,0.13458 -0.30078,0.30078 v 0.38086 c 0,0.1662 0.13458,0.30078 0.30078,0.30078 h 24.39648 c 0.1662,0 0.29883,-0.13458 0.29883,-0.30078 v -0.38086 c 0,-0.1662 -0.13263,-0.30078 -0.29883,-0.30078 z m -0.0527,1.56836 c -0.1662,0 -0.30078,0.13263 -0.30078,0.29883 v 0.38281 c 0,0.1662 0.13458,0.30078 0.30078,0.30078 h 24.39649 c 0.1662,0 0.30078,-0.13458 0.30078,-0.30078 v -0.38281 c 0,-0.1662 -0.13458,-0.29883 -0.30078,-0.29883 z m 0,1.56641 c -0.1662,0 -0.30078,0.13458 -0.30078,0.30078 v 0.38281 c 0,0.1662 0.13458,0.29883 0.30078,0.29883 h 24.39649 c 0.1662,0 0.30078,-0.13263 0.30078,-0.29883 v -0.38281 c 0,-0.1662 -0.13458,-0.30078 -0.30078,-0.30078 z m 0,1.62109 c -0.1662,0 -0.30078,0.13263 -0.30078,0.29883 v 0.38281 c 0,0.1662 0.13458,0.30078 0.30078,0.30078 h 24.39649 c 0.1662,0 0.30078,-0.13458 0.30078,-0.30078 v -0.38281 c 0,-0.1662 -0.13458,-0.29883 -0.30078,-0.29883 z m 0.0527,1.67187 c -0.1662,0 -0.30078,0.13263 -0.30078,0.29883 v 0.38281 c 0,0.1662 0.13458,0.30079 0.30078,0.30079 h 24.39648 c 0.1662,0 0.29883,-0.13459 0.29883,-0.30079 v -0.38281 c 0,-0.1662 -0.13263,-0.29883 -0.29883,-0.29883 z m 0,1.51563 c -0.1662,0 -0.30078,0.13263 -0.30078,0.29883 v 0.38281 c 0,0.1662 0.13458,0.30078 0.30078,0.30078 h 24.39648 c 0.1662,0 0.29883,-0.13458 0.29883,-0.30078 v -0.38281 c 0,-0.1662 -0.13263,-0.29883 -0.29883,-0.29883 z m 0.0254,1.67187 c -0.1662,0 -0.30078,0.13459 -0.30078,0.30079 v 0.38085 c 0,0.1662 0.13458,0.30079 0.30078,0.30079 h 24.39648 c 0.1662,0 0.30078,-0.13459 0.30078,-0.30079 v -0.38085 c 0,-0.1662 -0.13458,-0.30079 -0.30078,-0.30079 z m 0,1.56836 c -0.1662,0 -0.30078,0.13263 -0.30078,0.29883 v 0.38281 c 0,0.1662 0.13458,0.30079 0.30078,0.30079 h 24.39648 c 0.1662,0 0.30078,-0.13459 0.30078,-0.30079 v -0.38281 c 0,-0.1662 -0.13458,-0.29883 -0.30078,-0.29883 z m 0,1.61914 c -0.1662,0 -0.30078,0.13459 -0.30078,0.30079 v 0.38281 c 0,0.1662 0.13458,0.29883 0.30078,0.29883 h 24.39648 c 0.1662,0 0.30078,-0.13263 0.30078,-0.29883 v -0.38281 c 0,-0.1662 -0.13458,-0.30079 -0.30078,-0.30079 z m 0.0527,1.61914 c -0.1662,0 -0.30078,0.13459 -0.30078,0.30079 v 0.38281 c 0,0.1662 0.13458,0.30078 0.30078,0.30078 h 24.39649 c 0.1662,0 0.30078,-0.13458 0.30078,-0.30078 v -0.38281 c 0,-0.1662 -0.13458,-0.30079 -0.30078,-0.30079 z m -0.10547,1.56836 c -0.1662,0 -0.29882,0.13459 -0.29882,0.30079 v 0.38281 c 0,0.1662 0.13262,0.29883 0.29882,0.29883 h 24.39649 c 0.1662,0 0.30078,-0.13263 0.30078,-0.29883 v -0.38281 c 0,-0.1662 -0.13458,-0.30079 -0.30078,-0.30079 z m 0.13086,1.56836 c -0.1662,0 -0.29882,0.13263 -0.29882,0.29883 v 0.38281 c 0,0.1662 0.13262,0.30079 0.29882,0.30079 h 24.39649 c 0.1662,0 0.30078,-0.13459 0.30078,-0.30079 v -0.38281 c 0,-0.1662 -0.13458,-0.29883 -0.30078,-0.29883 z m 0,1.61914 c -0.1662,0 -0.29882,0.13459 -0.29882,0.30079 v 0.38281 c 0,0.1662 0.13262,0.29883 0.29882,0.29883 h 24.39649 c 0.1662,0 0.30078,-0.13263 0.30078,-0.29883 v -0.38281 c 0,-0.1662 -0.13458,-0.30079 -0.30078,-0.30079 z m 0.0527,1.6211 c -0.1662,0 -0.30078,0.13263 -0.30078,0.29883 v 0.38281 c 0,0.1662 0.13458,0.30078 0.30078,0.30078 h 24.39648 c 0.1662,0 0.30078,-0.13458 0.30078,-0.30078 v -0.38281 c 0,-0.1662 -0.13458,-0.29883 -0.30078,-0.29883 z" />
    <path
       style="display:inline;fill:#ff0000;stroke:#000000;stroke-width:1;stroke-dasharray:none;stroke-opacity:1;paint-order:markers stroke fill"
       id="rect3667"
       d="m 201.25661,459.32928 h 20.3945 v 35.64232 h -20.3945 z" />
    <path
       id="path3669"
       style="display:inline;fill:#333333;stroke:#000000;stroke-width:0.5;stroke-dasharray:none;stroke-opacity:1;paint-order:markers stroke fill"
       d="m 220.01432,459.80887 c -0.26274,10e-4 -0.52607,0.009 -0.54492,0.0195 -0.0376,0.0218 -0.53925,0.89616 -0.53906,0.93946 2e-4,0.0433 0.50897,0.91404 0.54687,0.93554 0.0378,0.0213 1.05225,0.0179 1.08985,-0.004 0.0376,-0.0218 0.53926,-0.89811 0.53906,-0.94141 -2e-4,-0.0433 -0.50908,-0.91405 -0.54688,-0.93555 -0.0189,-0.0106 -0.28218,-0.0149 -0.54492,-0.0137 z m -16.60351,0.0957 c -0.26275,0.001 -0.52608,0.007 -0.54493,0.0195 -0.0376,0.0244 -0.53925,1.00053 -0.53906,1.04883 2e-4,0.0483 0.51093,1.02102 0.54883,1.04492 0.0378,0.0244 1.05029,0.0185 1.08789,-0.006 0.0376,-0.0243 0.54121,-1.00053 0.54102,-1.04883 -2e-4,-0.0483 -0.51103,-1.01907 -0.54883,-1.04297 -0.0189,-0.0122 -0.28218,-0.0169 -0.54492,-0.0156 z m 16.32226,15.41601 c -0.27413,10e-4 -0.54871,0.008 -0.56836,0.0195 -0.0392,0.0229 -0.5627,0.94093 -0.5625,0.98633 2e-4,0.0454 0.53277,0.95797 0.57227,0.98047 0.0395,0.0226 1.09556,0.019 1.13476,-0.004 0.0393,-0.0229 0.56466,-0.94092 0.56446,-0.98632 -2.1e-4,-0.0454 -0.53287,-0.95993 -0.57227,-0.98243 -0.0197,-0.0113 -0.29423,-0.0149 -0.56836,-0.0137 z m -16.59766,0.082 c -0.27412,10e-4 -0.54871,0.008 -0.56835,0.0195 -0.0392,0.0229 -0.5627,0.94093 -0.5625,0.98633 1.9e-4,0.0454 0.53276,0.95797 0.57226,0.98047 0.0394,0.0226 1.09557,0.017 1.13477,-0.006 0.0393,-0.0229 0.56465,-0.94093 0.56445,-0.98633 -2.1e-4,-0.0454 -0.53287,-0.95797 -0.57227,-0.98047 -0.0197,-0.0113 -0.29423,-0.0149 -0.56836,-0.0137 z m -0.4082,16.8418 c -0.27412,0.001 -0.54871,0.008 -0.56836,0.0195 -0.0392,0.0229 -0.56465,0.94093 -0.56445,0.98633 2e-4,0.0454 0.53472,0.95992 0.57422,0.98242 0.0394,0.0226 1.09556,0.017 1.13476,-0.006 0.0393,-0.0229 0.56466,-0.94093 0.56446,-0.98633 -2.1e-4,-0.0454 -0.53287,-0.95797 -0.57227,-0.98047 -0.0197,-0.0113 -0.29423,-0.0168 -0.56836,-0.0156 z m 17.16992,0.082 c -0.27412,0.001 -0.54871,0.008 -0.56836,0.0195 -0.0392,0.0229 -0.5627,0.94093 -0.5625,0.98633 2e-4,0.0454 0.53277,0.95992 0.57227,0.98242 0.0395,0.0226 1.09557,0.017 1.13477,-0.006 0.0392,-0.0229 0.56465,-0.94093 0.56445,-0.98633 -2.1e-4,-0.0454 -0.53287,-0.95796 -0.57227,-0.98046 -0.0197,-0.0113 -0.29423,-0.0168 -0.56836,-0.0156 z" />
  </g>
</svg>
