<?xml version="1.0" encoding="UTF-8" standalone="no"?>
<!-- Created with Inkscape (http://www.inkscape.org/) -->

<svg
   width="300"
   height="270.9342"
   viewBox="0 0 300 270.9342"
   version="1.1"
   id="svg19266"
   inkscape:version="1.2.1 (9c6d41e410, 2022-07-14)"
   sodipodi:docname="salt.svg"
   xmlns:inkscape="http://www.inkscape.org/namespaces/inkscape"
   xmlns:sodipodi="http://sodipodi.sourceforge.net/DTD/sodipodi-0.dtd"
   xmlns:xlink="http://www.w3.org/1999/xlink"
   xmlns="http://www.w3.org/2000/svg"
   xmlns:svg="http://www.w3.org/2000/svg">
  <sodipodi:namedview
     id="namedview19268"
     pagecolor="#505050"
     bordercolor="#eeeeee"
     borderopacity="1"
     inkscape:showpageshadow="0"
     inkscape:pageopacity="0"
     inkscape:pagecheckerboard="0"
     inkscape:deskcolor="#505050"
     inkscape:document-units="px"
     showgrid="false"
     inkscape:zoom="2.8284271"
     inkscape:cx="175.89281"
     inkscape:cy="159.62936"
     inkscape:window-width="2498"
     inkscape:window-height="1417"
     inkscape:window-x="54"
     inkscape:window-y="-8"
     inkscape:window-maximized="1"
     inkscape:current-layer="salt" />
  <defs
     id="defs19263">
    <linearGradient
       inkscape:collect="always"
       id="linearGradient29474">
      <stop
         style="stop-color:#929292;stop-opacity:1;"
         offset="0"
         id="stop29470" />
      <stop
         style="stop-color:#9a9a9a;stop-opacity:1;"
         offset="0.20418006"
         id="stop29478" />
      <stop
         style="stop-color:#848484;stop-opacity:1;"
         offset="0.39951769"
         id="stop29480" />
      <stop
         style="stop-color:#727272;stop-opacity:1;"
         offset="0.60168809"
         id="stop29482" />
      <stop
         style="stop-color:#606060;stop-opacity:1;"
         offset="0.79602093"
         id="stop29484" />
      <stop
         style="stop-color:#2b2b2b;stop-opacity:1;"
         offset="1"
         id="stop29472" />
    </linearGradient>
    <linearGradient
       inkscape:collect="always"
       id="linearGradient29458">
      <stop
         style="stop-color:#acacac;stop-opacity:1;"
         offset="0"
         id="stop29454" />
      <stop
         style="stop-color:#626262;stop-opacity:1;"
         offset="0.20096463"
         id="stop29462" />
      <stop
         style="stop-color:#575757;stop-opacity:1;"
         offset="0.40000001"
         id="stop29464" />
      <stop
         style="stop-color:#676767;stop-opacity:1;"
         offset="0.60490352"
         id="stop29466" />
      <stop
         style="stop-color:#b0b0b0;stop-opacity:1;"
         offset="0.79923636"
         id="stop29468" />
      <stop
         style="stop-color:#adadad;stop-opacity:1;"
         offset="1"
         id="stop29456" />
    </linearGradient>
    <linearGradient
       inkscape:collect="always"
       id="linearGradient29442">
      <stop
         style="stop-color:#bdbdbd;stop-opacity:1;"
         offset="0"
         id="stop29438" />
      <stop
         style="stop-color:#a8a8a8;stop-opacity:1;"
         offset="0.2"
         id="stop29446" />
      <stop
         style="stop-color:#8c8c8c;stop-opacity:1;"
         offset="0.39951771"
         id="stop29448" />
      <stop
         style="stop-color:#5b5b5b;stop-opacity:1;"
         offset="0.60490352"
         id="stop29450" />
      <stop
         style="stop-color:#606060;stop-opacity:1;"
         offset="0.79923636"
         id="stop29452" />
      <stop
         style="stop-color:#c0c0c0;stop-opacity:1;"
         offset="1"
         id="stop29440" />
    </linearGradient>
    <linearGradient
       inkscape:collect="always"
       id="linearGradient28700">
      <stop
         style="stop-color:#c9634e;stop-opacity:1;"
         offset="0"
         id="stop28696" />
      <stop
         style="stop-color:#f14a2c;stop-opacity:1;"
         offset="0.2"
         id="stop28704" />
      <stop
         style="stop-color:#e34424;stop-opacity:1;"
         offset="0.40000001"
         id="stop28706" />
      <stop
         style="stop-color:#ef4f32;stop-opacity:0.98113215;"
         offset="0.60000002"
         id="stop28708" />
      <stop
         style="stop-color:#f68a74;stop-opacity:1;"
         offset="0.79923636"
         id="stop28710" />
      <stop
         style="stop-color:#ff2525;stop-opacity:0.93081754;"
         offset="1"
         id="stop28698" />
    </linearGradient>
    <linearGradient
       inkscape:collect="always"
       xlink:href="#linearGradient31314"
       id="linearGradient31318"
       x1="134.83498"
       y1="185.42915"
       x2="171.70763"
       y2="185.42915"
       gradientUnits="userSpaceOnUse"
       gradientTransform="matrix(8.1361081,0,0,1.4644912,-1081.2047,21.842977)" />
    <linearGradient
       inkscape:collect="always"
       id="linearGradient31314">
      <stop
         style="stop-color:#b3b3b3;stop-opacity:1;"
         offset="0.07717042"
         id="stop31302" />
      <stop
         style="stop-color:#d2d2d2;stop-opacity:1;"
         offset="0.24919616"
         id="stop31304" />
      <stop
         style="stop-color:#9c9c9c;stop-opacity:1;"
         offset="0.40956593"
         id="stop31306" />
      <stop
         style="stop-color:#afafaf;stop-opacity:1;"
         offset="0.61816716"
         id="stop31308" />
      <stop
         style="stop-color:#d0d0d0;stop-opacity:1;"
         offset="0.77893889"
         id="stop31310" />
      <stop
         style="stop-color:#989898;stop-opacity:1;"
         offset="0.95498395"
         id="stop31312" />
    </linearGradient>
    <linearGradient
       inkscape:collect="always"
       xlink:href="#linearGradient31314"
       id="linearGradient30439"
       gradientUnits="userSpaceOnUse"
       gradientTransform="matrix(5.1004967,0,0,10.551837,-618.98525,-1800.5955)"
       x1="134.83498"
       y1="185.42915"
       x2="171.70763"
       y2="185.42915" />
    <linearGradient
       inkscape:collect="always"
       xlink:href="#linearGradient28700"
       id="linearGradient28702"
       x1="26.192024"
       y1="39.753902"
       x2="51.866421"
       y2="55.489822"
       gradientUnits="userSpaceOnUse"
       gradientTransform="matrix(6.5526694,0,0,6.5526694,-87.883269,-199.74487)" />
    <linearGradient
       inkscape:collect="always"
       xlink:href="#linearGradient29442"
       id="linearGradient29444"
       x1="40.405777"
       y1="21.268559"
       x2="73.111427"
       y2="22.554464"
       gradientUnits="userSpaceOnUse"
       gradientTransform="matrix(5.7924316,3.3362606,-3.2046404,5.8193046,-92.990687,-203.31933)" />
    <linearGradient
       inkscape:collect="always"
       xlink:href="#linearGradient29458"
       id="linearGradient29460"
       x1="27.744911"
       y1="40.582108"
       x2="50.417057"
       y2="55.282772"
       gradientUnits="userSpaceOnUse"
       gradientTransform="matrix(6.5526694,0,0,6.5526694,-87.883269,-199.74487)" />
    <linearGradient
       inkscape:collect="always"
       xlink:href="#linearGradient29474"
       id="linearGradient29476"
       x1="39.132748"
       y1="42.031471"
       x2="38.718643"
       y2="54.55809"
       gradientUnits="userSpaceOnUse"
       gradientTransform="matrix(6.5526694,0,0,6.5526694,-87.883269,-199.74487)" />
  </defs>
  <g
     inkscape:label="salt"
     inkscape:groupmode="layer"
     id="salt"
     transform="translate(-15.827212,-44.607552)">
    <path
       id="path30437"
       style="fill:url(#linearGradient30439);fill-opacity:1;stroke-width:6.9419"
       d="m 82.201455,51.472893 c -0.08649,0.0498 -0.160147,0.119193 -0.240417,0.179609 -0.419109,0.296246 -0.84688,0.590985 -1.317231,0.783195 -1.081144,0.547934 -0.876079,0.444532 -0.755117,0.384379 v 0.0036 c 0.108382,-0.05438 0.223709,-0.109757 0.257325,-0.125746 -0.03342,0.01835 -0.115197,0.0616 -0.267481,0.140096 0.005,-0.0066 0.0057,-0.0085 0.0105,-0.01442 -0.06559,0.03277 -0.114672,0.05766 -0.179477,0.08983 h -0.0037 c -0.394602,0.352534 -1.119642,1.066592 -0.639999,0.502983 -0.557763,0.497937 -1.253545,0.908383 -1.273204,0.912531 -0.48909,0.363608 -0.738328,0.544527 -0.890566,0.653825 -0.648911,0.616017 -1.339687,1.157274 -2.08928,1.631065 -0.25575,0.147893 -0.686647,0.516875 -0.900724,0.729312 -0.0557,0.04586 -0.09796,0.07975 -0.142192,0.114999 -0.07385,0.101766 -0.211258,0.27305 -0.460522,0.556911 -0.258044,0.288187 -0.506194,0.584171 -0.748348,0.887383 -0.08459,0.09476 -0.162834,0.196252 -0.253981,0.283796 -0.03473,0.03342 -0.057,0.05374 -0.08807,0.08269 -0.0085,0.01114 -0.0118,0.01769 -0.02031,0.02817 -0.08047,0.117555 -0.24638,0.363804 -0.325079,0.467074 -0.0078,0.0105 -0.02425,0.03341 -0.03407,0.04652 -0.03735,0.07942 -0.08191,0.153201 -0.132036,0.204836 -0.209882,0.358628 -0.396371,0.597866 -0.545183,0.793975 -0.290611,0.603304 -0.754493,1.522473 -0.819456,1.534064 -0.05963,0.09206 -0.119652,0.184458 -0.179478,0.276654 V 267.89751 l -0.03539,4.48023 c -0.355679,1.47104 0.0629,-1.53065 0.03539,-0.0505 -0.01179,23.86403 41.773831,43.21257 93.323271,43.21248 51.54945,9e-5 93.33526,-19.34845 93.32329,-43.21248 -0.0321,-1.48028 -0.22902,-2.95881 -0.58923,-4.42974 l 0.69105,4.27659 -0.10183,-108.99472 c -1.27785,-0.87269 -2.56439,-1.76693 -3.76544,-2.73763 0.45135,0.1661 0.26924,0.0722 -0.73819,-0.57127 -0.19166,-0.1089 -0.38668,-0.21564 -0.57906,-0.32337 -1.33664,-0.82829 -2.19263,-1.39049 -4.02956,-2.66935 -0.97695,-0.64543 -1.88311,-1.38051 -2.92229,-1.91848 -1.53827,-0.85298 -3.06774,-1.72173 -4.62552,-2.53641 -1.89352,-1.04898 -3.82717,-2.02893 -5.66508,-3.1831 -1.50539,-0.86084 -3.01904,-1.69145 -4.53073,-2.5328 -1.26288,-0.77287 -2.60835,-1.39403 -3.90087,-2.10889 -2.34604,-1.12225 -4.68688,-2.24695 -6.9857,-3.47409 -2.17162,-1.30278 -4.38764,-2.53067 -6.49471,-3.94834 -2.22347,-1.35561 -4.52478,-2.55519 -6.72497,-3.95551 -1.91872,-1.28758 -3.93134,-2.41929 -5.8581,-3.69685 -2.15437,-1.36873 -4.28225,-2.77999 -6.41995,-4.17822 -2.06363,-1.59151 -4.21026,-3.05649 -6.30169,-4.60578 -1.49874,-1.09131 -2.97754,-2.2005 -4.51379,-3.2298 -1.42561,-1.08816 -2.886,-2.1225 -4.3614,-3.1328 -0.81427,-0.70383 -1.76288,-1.20838 -2.66155,-1.77477 -0.88309,-0.47675 -2.5843,-1.3588 -4.09728,-2.32805 -1.36476,-0.65851 -2.55966,-1.69988 -3.84671,-2.50049 -1.8872,-1.22128 -3.75857,-2.45855 -5.63461,-3.70043 -1.54676,-1.00459 -3.12142,-1.96105 -4.67294,-2.95676 -1.8469,-1.223892 -3.63634,-2.527812 -5.38742,-3.901632 -1.16801,-0.88796 -2.23673,-1.89678 -3.53518,-2.58671 -1.65927,-1.16274 -3.3056,-2.3446 -4.92352,-3.5711 -1.61111,-1.18325 -3.26056,-2.30923 -4.88626,-3.47051 -2.36982,-1.54431 -4.67416,-3.20374 -7.06697,-4.70997 -2.97146,-1.98793 -5.95249,-3.9573 -8.91921,-5.95303 -3.52924,-2.27045 -7.14157,-4.39365 -10.63601,-6.72546 -3.98723,-2.668574 -7.97412,-5.344409 -12.159807,-7.655961 -4.00365,-2.262631 -7.86571,-4.776189 -11.797454,-7.174538 -1.887693,-1.254405 -3.752347,-2.547082 -5.607525,-3.854923 -0.199529,0.09043 -0.364657,0.139441 -0.453773,0.107726 -0.01835,0.002 -0.03931,0.0051 -0.05766,0.0072 0.04325,-0.02228 0.08879,-0.04587 0.132036,-0.06815 0.313217,-0.249854 -0.209095,0.132625 -0.121879,0.03604 0.04259,-0.04718 0.195924,-0.153463 0.142192,-0.122141 z M 79.70922,52.91355 c -0.05438,0.02687 0.208375,-0.107792 0.179478,-0.09344 0.112574,-0.155364 5.63e-4,-0.06743 -0.179478,0.09344 z"
       sodipodi:nodetypes="cccccccccccccccccccccccccccccccccccccccccccccccccccccccccccccccccccccscccccc" />
    <path
       id="path31294"
       style="fill:url(#linearGradient31318);fill-opacity:1;stroke-width:3.26633"
       d="m 166.96282,271.2626 a 148.86506,5.9960738 0 0 0 -147.944372,5.38067 h -0.918187 v 0.61463 31.67142 h 0.918187 a 148.86506,5.9960738 0 0 0 -0.918187,0.61463 148.86506,5.9960738 0 0 0 148.863499,5.9978 148.86506,5.9960738 0 0 0 148.86344,-5.9978 148.86506,5.9960738 0 0 0 -0.93699,-0.61463 h 0.93699 v -31.67142 -0.61463 h -0.93699 A 148.86506,5.9960738 0 0 0 166.96316,271.2626 Z m -151.135608,5.99544 2.272158,32.59598 z" />
    <path
       id="path24268"
       style="fill:url(#linearGradient29444);fill-opacity:1;stroke-width:2.55978;stroke-dasharray:1.27989, 1.27989"
       d="M 98.624373,44.642777 A 107.26897,43.779073 30.160372 0 0 71.222091,56.930133 107.26897,43.779073 30.160372 0 0 143.04873,148.82335 107.26897,43.779073 30.160372 0 0 257.12387,164.00025 107.26897,43.779073 30.160372 0 0 185.29724,72.107008 107.26897,43.779073 30.160372 0 0 98.624373,44.642777 Z" />
    <path
       id="path25060"
       style="fill:url(#linearGradient28702);fill-opacity:1;stroke-width:2.29338;stroke-dasharray:1.1467, 1.1467"
       d="M 104.41519,50.930089 A 96.082592,39.232414 30.194104 0 0 79.876496,61.94404 96.082592,39.232414 30.194104 0 0 144.19708,144.31387 96.082592,39.232414 30.194104 0 0 246.35109,157.91789 96.082592,39.232414 30.194104 0 0 182.03052,75.548058 96.082592,39.232414 30.194104 0 0 104.41519,50.930089 Z" />
    <path
       id="path25788"
       style="fill:url(#linearGradient29460);fill-opacity:1;stroke-width:2.06945;stroke-dasharray:1.03473, 1.03473"
       d="M 113.19304,57.71089 A 86.434966,35.510777 30.6369 0 0 91.189542,67.712334 86.434966,35.510777 30.6369 0 0 148.86493,142.50991 86.434966,35.510777 30.6369 0 0 240.46501,154.86332 86.434966,35.510777 30.6369 0 0 182.78965,80.065738 86.434966,35.510777 30.6369 0 0 113.19304,57.71089 Z" />
    <path
       id="path27968"
       style="fill:url(#linearGradient29476);fill-opacity:1;stroke-width:1.85724;stroke-dasharray:0.928625, 0.928625"
       d="m 118.32445,63.134771 a 77.783889,31.782524 30.2427 0 0 -19.858357,8.925657 77.783889,31.782524 30.2427 0 0 52.052527,66.752062 77.783889,31.782524 30.2427 0 0 82.66984,11.02463 77.783889,31.782524 30.2427 0 0 -52.0525,-66.752082 77.783889,31.782524 30.2427 0 0 -62.81151,-19.950267 z" />
  </g>
</svg>
