<?xml version="1.0" encoding="UTF-8" standalone="no"?>
<!-- Created with Inkscape (http://www.inkscape.org/) -->

<svg
   width="247.05882"
   height="300"
   viewBox="0 0 247.05882 300"
   version="1.1"
   id="svg27397"
   inkscape:version="1.2.1 (9c6d41e410, 2022-07-14)"
   sodipodi:docname="source-chamber.svg"
   xmlns:inkscape="http://www.inkscape.org/namespaces/inkscape"
   xmlns:sodipodi="http://sodipodi.sourceforge.net/DTD/sodipodi-0.dtd"
   xmlns="http://www.w3.org/2000/svg"
   xmlns:svg="http://www.w3.org/2000/svg">
  <sodipodi:namedview
     id="namedview27399"
     pagecolor="#ffffff"
     bordercolor="#000000"
     borderopacity="0.25"
     inkscape:showpageshadow="2"
     inkscape:pageopacity="0.0"
     inkscape:pagecheckerboard="0"
     inkscape:deskcolor="#d1d1d1"
     inkscape:document-units="px"
     showgrid="false"
     inkscape:zoom="0.914906"
     inkscape:cx="25.685699"
     inkscape:cy="50.824893"
     inkscape:window-width="2498"
     inkscape:window-height="1417"
     inkscape:window-x="54"
     inkscape:window-y="-8"
     inkscape:window-maximized="1"
     inkscape:current-layer="svg27397" />
  <defs
     id="defs27394" />
  <g
     id="source-chamber"
     onmouseover=""
     style="display:inline"
     transform="matrix(1.7647059,0,0,1.7647059,-677.46708,-342.62381)">
    <path
       style="display:inline;fill:#999999;stroke:#000000;stroke-width:1.00012;stroke-linecap:square;stroke-linejoin:miter;stroke-dasharray:none;stroke-opacity:1;paint-order:markers stroke fill"
       id="rect274-3-9-7"
       d="M 384.39807,194.65355 H 523.39795 V 363.65343 H 384.39807 Z" />
    <path
       id="path15021-17"
       style="display:inline;fill:#808080;fill-opacity:1;stroke:#000000;stroke-width:0.78035;stroke-linecap:square;stroke-linejoin:miter;stroke-miterlimit:4;stroke-dasharray:none;stroke-opacity:1;paint-order:markers stroke fill"
       d="m 396.10699,200.17497 -4.55078,0.0762 -2.20703,3.97851 2.33985,3.90235 4.55078,-0.0762 2.20703,-3.97851 z m 120,0 -4.55078,0.0762 -2.20703,3.97851 2.33985,3.90235 4.55078,-0.0762 2.20703,-3.97851 z m -120,150 -4.55078,0.0762 -2.20703,3.97851 2.33985,3.90235 4.55078,-0.0762 2.20703,-3.97851 z m 120,0 -4.55078,0.0762 -2.20703,3.97851 2.33985,3.90235 4.55078,-0.0762 2.20703,-3.97851 z" />
  </g>
</svg>
