<?xml version="1.0" encoding="UTF-8" standalone="no"?>
<!-- Created with Inkscape (http://www.inkscape.org/) -->

<svg
   width="299.99969"
   height="182.63284"
   viewBox="0 0 299.99969 182.63284"
   version="1.1"
   id="svg34074"
   inkscape:version="1.2.1 (9c6d41e410, 2022-07-14)"
   sodipodi:docname="stark.svg"
   xmlns:inkscape="http://www.inkscape.org/namespaces/inkscape"
   xmlns:sodipodi="http://sodipodi.sourceforge.net/DTD/sodipodi-0.dtd"
   xmlns:xlink="http://www.w3.org/1999/xlink"
   xmlns="http://www.w3.org/2000/svg"
   xmlns:svg="http://www.w3.org/2000/svg">
  <sodipodi:namedview
     id="namedview34076"
     pagecolor="#505050"
     bordercolor="#eeeeee"
     borderopacity="1"
     inkscape:showpageshadow="0"
     inkscape:pageopacity="0"
     inkscape:pagecheckerboard="0"
     inkscape:deskcolor="#505050"
     inkscape:document-units="px"
     showgrid="false"
     inkscape:zoom="2.4346952"
     inkscape:cx="107.81637"
     inkscape:cy="95.494499"
     inkscape:window-width="2498"
     inkscape:window-height="1417"
     inkscape:window-x="54"
     inkscape:window-y="-8"
     inkscape:window-maximized="1"
     inkscape:current-layer="stark" />
  <defs
     id="defs34071">
    <linearGradient
       inkscape:collect="always"
       id="linearGradient13835">
      <stop
         style="stop-color:#1e0505;stop-opacity:1;"
         offset="0"
         id="stop13821" />
      <stop
         style="stop-color:#2b2b2b;stop-opacity:1;"
         offset="0.14630227"
         id="stop13823" />
      <stop
         style="stop-color:#383838;stop-opacity:1;"
         offset="0.3002412"
         id="stop13825" />
      <stop
         style="stop-color:#454545;stop-opacity:1;"
         offset="0.44774917"
         id="stop13827" />
      <stop
         style="stop-color:#5f5f5f;stop-opacity:1;"
         offset="0.60000002"
         id="stop13829" />
      <stop
         style="stop-color:#676767;stop-opacity:1;"
         offset="0.7512058"
         id="stop13831" />
      <stop
         style="stop-color:#4d4d4d;stop-opacity:1;"
         offset="0.90032154"
         id="stop13833" />
    </linearGradient>
    <linearGradient
       inkscape:collect="always"
       id="linearGradient13019">
      <stop
         style="stop-color:#cccccc;stop-opacity:1;"
         offset="0"
         id="stop13015" />
      <stop
         style="stop-color:#9a9a9a;stop-opacity:1;"
         offset="0.2"
         id="stop13087" />
      <stop
         style="stop-color:#828282;stop-opacity:1;"
         offset="0.40000001"
         id="stop13089" />
      <stop
         style="stop-color:#808080;stop-opacity:1;"
         offset="0.60000002"
         id="stop13091" />
      <stop
         style="stop-color:#9a9a9a;stop-opacity:1;"
         offset="0.80000001"
         id="stop13093" />
      <stop
         style="stop-color:#cccccc;stop-opacity:1;"
         offset="1"
         id="stop13017" />
    </linearGradient>
    <linearGradient
       inkscape:collect="always"
       id="linearGradient6155">
      <stop
         style="stop-color:#d5f7fd;stop-opacity:1;"
         offset="0"
         id="stop6143" />
      <stop
         style="stop-color:#cffbff;stop-opacity:1;"
         offset="0.2"
         id="stop6145" />
      <stop
         style="stop-color:#65acff;stop-opacity:1;"
         offset="0.40000001"
         id="stop6147" />
      <stop
         style="stop-color:#2b8eb9;stop-opacity:1;"
         offset="0.60000002"
         id="stop6149" />
      <stop
         style="stop-color:#d5f2fc;stop-opacity:1;"
         offset="0.80000001"
         id="stop6151" />
      <stop
         style="stop-color:#dbecf9;stop-opacity:1;"
         offset="1"
         id="stop6153" />
    </linearGradient>
    <linearGradient
       inkscape:collect="always"
       id="linearGradient5320">
      <stop
         style="stop-color:#000000;stop-opacity:1;"
         offset="0"
         id="stop5316" />
      <stop
         style="stop-color:#000000;stop-opacity:1;"
         offset="1"
         id="stop5318" />
    </linearGradient>
    <linearGradient
       inkscape:collect="always"
       id="linearGradient4467">
      <stop
         style="stop-color:#000000;stop-opacity:1;"
         offset="0"
         id="stop4463" />
      <stop
         style="stop-color:#442f2f;stop-opacity:1;"
         offset="1"
         id="stop4465" />
    </linearGradient>
    <linearGradient
       inkscape:collect="always"
       id="linearGradient58375">
      <stop
         style="stop-color:#1e0505;stop-opacity:1;"
         offset="0"
         id="stop58361" />
      <stop
         style="stop-color:#2b2b2b;stop-opacity:1;"
         offset="0.14630227"
         id="stop58363" />
      <stop
         style="stop-color:#383838;stop-opacity:1;"
         offset="0.3002412"
         id="stop58365" />
      <stop
         style="stop-color:#505050;stop-opacity:1;"
         offset="0.44774917"
         id="stop58367" />
      <stop
         style="stop-color:#7b7b7b;stop-opacity:1;"
         offset="0.60000002"
         id="stop58369" />
      <stop
         style="stop-color:#848484;stop-opacity:1;"
         offset="0.7512058"
         id="stop58371" />
      <stop
         style="stop-color:#a8a8a8;stop-opacity:1;"
         offset="0.90032154"
         id="stop58373" />
    </linearGradient>
    <linearGradient
       inkscape:collect="always"
       id="linearGradient55441">
      <stop
         style="stop-color:#333333;stop-opacity:1;"
         offset="0"
         id="stop55437" />
      <stop
         style="stop-color:#656565;stop-opacity:1;"
         offset="0.20096463"
         id="stop55445" />
      <stop
         style="stop-color:#989898;stop-opacity:1;"
         offset="0.39951769"
         id="stop55447" />
      <stop
         style="stop-color:#a6a6a6;stop-opacity:1;"
         offset="0.60000002"
         id="stop55449" />
      <stop
         style="stop-color:#b2b2b2;stop-opacity:1;"
         offset="0.80000001"
         id="stop55451" />
      <stop
         style="stop-color:#373737;stop-opacity:1;"
         offset="1"
         id="stop55439" />
    </linearGradient>
    <linearGradient
       inkscape:collect="always"
       xlink:href="#linearGradient31314"
       id="linearGradient31318"
       x1="134.83498"
       y1="185.42915"
       x2="171.70763"
       y2="185.42915"
       gradientUnits="userSpaceOnUse"
       gradientTransform="matrix(6.8560332,0,0,0.21525058,-891.44499,65.911536)" />
    <linearGradient
       inkscape:collect="always"
       id="linearGradient31314">
      <stop
         style="stop-color:#d9d9d9;stop-opacity:1;"
         offset="0"
         id="stop31302" />
      <stop
         style="stop-color:#b2b2b2;stop-opacity:1;"
         offset="0.14630227"
         id="stop31304" />
      <stop
         style="stop-color:#808080;stop-opacity:1;"
         offset="0.3002412"
         id="stop31306" />
      <stop
         style="stop-color:#989898;stop-opacity:1;"
         offset="0.44774917"
         id="stop31308" />
      <stop
         style="stop-color:#b0b0b0;stop-opacity:1;"
         offset="0.60000002"
         id="stop31310" />
      <stop
         style="stop-color:#b2b2b2;stop-opacity:1;"
         offset="0.7512058"
         id="stop46591" />
      <stop
         style="stop-color:#d9d9d9;stop-opacity:1;"
         offset="0.90032154"
         id="stop31312" />
    </linearGradient>
    <linearGradient
       inkscape:collect="always"
       xlink:href="#linearGradient31314"
       id="linearGradient47325"
       gradientUnits="userSpaceOnUse"
       gradientTransform="matrix(6.8560332,0,0,0.21525058,-891.44499,86.17827)"
       x1="134.83498"
       y1="185.42915"
       x2="171.70763"
       y2="185.42915" />
    <linearGradient
       inkscape:collect="always"
       xlink:href="#linearGradient31314-8"
       id="linearGradient31318-3"
       x1="134.83498"
       y1="185.42915"
       x2="171.70763"
       y2="185.42915"
       gradientUnits="userSpaceOnUse"
       gradientTransform="matrix(0.4543309,0,0,1.3718446,-20.173735,-108.90012)" />
    <linearGradient
       inkscape:collect="always"
       id="linearGradient31314-8">
      <stop
         style="stop-color:#c40d84;stop-opacity:1;"
         offset="0.07717042"
         id="stop31302-1" />
      <stop
         style="stop-color:#b0007e;stop-opacity:1;"
         offset="0.24919616"
         id="stop31304-5" />
      <stop
         style="stop-color:#840056;stop-opacity:1;"
         offset="0.40956593"
         id="stop31306-3" />
      <stop
         style="stop-color:#7e1f51;stop-opacity:1;"
         offset="0.61816716"
         id="stop31308-5" />
      <stop
         style="stop-color:#b423a1;stop-opacity:1;"
         offset="0.77893889"
         id="stop31310-4" />
      <stop
         style="stop-color:#e749ac;stop-opacity:1;"
         offset="0.95498395"
         id="stop31312-3" />
    </linearGradient>
    <linearGradient
       inkscape:collect="always"
       xlink:href="#linearGradient31314-8"
       id="linearGradient53925"
       gradientUnits="userSpaceOnUse"
       gradientTransform="matrix(0.4543309,0,0,1.3718446,91.889386,-108.90012)"
       x1="134.83498"
       y1="185.42915"
       x2="171.70763"
       y2="185.42915" />
    <linearGradient
       inkscape:collect="always"
       xlink:href="#linearGradient55441"
       id="linearGradient55443"
       x1="1.3459922"
       y1="42.827023"
       x2="44.540104"
       y2="42.582298"
       gradientUnits="userSpaceOnUse"
       gradientTransform="matrix(3.247609,0,0,3.247609,31.579744,29.244184)" />
    <linearGradient
       inkscape:collect="always"
       xlink:href="#linearGradient13835"
       id="linearGradient57633"
       gradientUnits="userSpaceOnUse"
       gradientTransform="matrix(1.070286,0,0,2.9448181,-88.977972,-336.2635)"
       x1="134.83498"
       y1="185.42915"
       x2="171.70763"
       y2="185.42915" />
    <linearGradient
       inkscape:collect="always"
       xlink:href="#linearGradient58375"
       id="linearGradient63507"
       gradientUnits="userSpaceOnUse"
       gradientTransform="matrix(0.17690668,0,0,0.48518883,247.09651,45.206259)"
       x1="134.83498"
       y1="185.42915"
       x2="171.70763"
       y2="185.42915" />
    <linearGradient
       inkscape:collect="always"
       xlink:href="#linearGradient58375"
       id="linearGradient65694"
       gradientUnits="userSpaceOnUse"
       gradientTransform="matrix(0.17690668,0,0,0.48518883,133.79843,95.616408)"
       x1="134.83498"
       y1="185.42915"
       x2="171.70763"
       y2="185.42915" />
    <linearGradient
       inkscape:collect="always"
       xlink:href="#linearGradient58375"
       id="linearGradient67150"
       gradientUnits="userSpaceOnUse"
       gradientTransform="matrix(-0.17690665,-9.2417933e-5,2.5346781e-4,-0.48518876,73.186549,185.72676)"
       x1="134.83498"
       y1="185.42915"
       x2="171.70763"
       y2="185.42915" />
    <filter
       inkscape:collect="always"
       style="color-interpolation-filters:sRGB"
       id="filter2452"
       x="-0.048082037"
       y="-0.019237375"
       width="1.0914854"
       height="1.0359296">
      <feGaussianBlur
         inkscape:collect="always"
         stdDeviation="0.16322064"
         id="feGaussianBlur2454" />
    </filter>
    <linearGradient
       inkscape:collect="always"
       xlink:href="#linearGradient4467"
       id="linearGradient4469"
       x1="-14.093669"
       y1="37.786476"
       x2="9.023778"
       y2="37.786476"
       gradientUnits="userSpaceOnUse" />
    <filter
       inkscape:collect="always"
       style="color-interpolation-filters:sRGB"
       id="filter5312"
       x="-0.013132406"
       y="-0.034049564"
       width="1.0294596"
       height="1.0708497">
      <feGaussianBlur
         inkscape:collect="always"
         stdDeviation="0.22473666"
         id="feGaussianBlur5314" />
    </filter>
    <linearGradient
       inkscape:collect="always"
       xlink:href="#linearGradient5320"
       id="linearGradient5322"
       x1="18.173168"
       y1="50.459732"
       x2="75.920914"
       y2="50.459732"
       gradientUnits="userSpaceOnUse" />
    <filter
       inkscape:collect="always"
       style="color-interpolation-filters:sRGB"
       id="filter6883"
       x="-0.06888009"
       y="-0.11902527"
       width="1.1377602"
       height="1.2380505">
      <feGaussianBlur
         inkscape:collect="always"
         stdDeviation="0.2142071"
         id="feGaussianBlur6885" />
    </filter>
    <linearGradient
       inkscape:collect="always"
       xlink:href="#linearGradient6155"
       id="linearGradient6889"
       x1="60.482689"
       y1="68.449326"
       x2="68.568336"
       y2="68.449326"
       gradientUnits="userSpaceOnUse"
       gradientTransform="translate(-59.168916,-41.648769)" />
    <linearGradient
       inkscape:collect="always"
       xlink:href="#linearGradient6155"
       id="linearGradient7732"
       gradientUnits="userSpaceOnUse"
       gradientTransform="translate(-24.743365,-41.95614)"
       x1="60.482689"
       y1="68.449326"
       x2="68.568336"
       y2="68.449326" />
    <linearGradient
       inkscape:collect="always"
       xlink:href="#linearGradient6155"
       id="linearGradient7736"
       gradientUnits="userSpaceOnUse"
       gradientTransform="translate(9.5285004,-41.95614)"
       x1="60.482689"
       y1="68.449326"
       x2="68.568336"
       y2="68.449326" />
    <linearGradient
       inkscape:collect="always"
       xlink:href="#linearGradient13019"
       id="linearGradient13021"
       x1="241.86053"
       y1="206.93997"
       x2="299.10614"
       y2="200.60178"
       gradientUnits="userSpaceOnUse" />
    <linearGradient
       inkscape:collect="always"
       xlink:href="#linearGradient13019"
       id="linearGradient13967"
       gradientUnits="userSpaceOnUse"
       x1="241.86053"
       y1="206.93997"
       x2="299.10614"
       y2="200.60178" />
    <linearGradient
       inkscape:collect="always"
       xlink:href="#linearGradient13019"
       id="linearGradient13971"
       gradientUnits="userSpaceOnUse"
       x1="241.86053"
       y1="206.93997"
       x2="299.10614"
       y2="200.60178" />
    <linearGradient
       inkscape:collect="always"
       xlink:href="#linearGradient13019"
       id="linearGradient13975"
       gradientUnits="userSpaceOnUse"
       x1="241.86053"
       y1="206.93997"
       x2="299.10614"
       y2="200.60178" />
  </defs>
  <g
     inkscape:label="stark"
     inkscape:groupmode="layer"
     id="stark"
     transform="translate(14.132399,-71.677137)">
    <path
       id="path6139"
       style="mix-blend-mode:normal;fill:url(#linearGradient6889);fill-opacity:1;stroke-width:0.160907;filter:url(#filter6883)"
       d="m 5.3848505,24.64094 a 3.7035945,0.58488556 0 0 0 -3.680688,0.524853 h -0.02285 v 0.05997 3.08938 h 0.02285 a 3.7035945,0.58488556 0 0 0 -0.02285,0.05997 3.7035945,0.58488556 0 0 0 3.703556,0.585053 3.7035945,0.58488556 0 0 0 3.703552,-0.585053 3.7035945,0.58488556 0 0 0 -0.02331,-0.05997 h 0.02331 v -3.08938 -0.05997 h -0.02331 A 3.7035945,0.58488556 0 0 0 5.3848485,24.64094 Z m -3.760082,0.584824 0.05653,3.179565 z"
       transform="matrix(3.2476089,0,0,4.6476592,31.579742,-8.0283791)" />
    <path
       id="path7730"
       style="mix-blend-mode:normal;fill:url(#linearGradient7732);fill-opacity:1;stroke-width:0.160907;filter:url(#filter6883)"
       d="m 39.810401,24.333569 a 3.7035945,0.58488556 0 0 0 -3.680688,0.524853 h -0.02285 v 0.05997 3.08938 h 0.02285 a 3.7035945,0.58488556 0 0 0 -0.02285,0.05997 3.7035945,0.58488556 0 0 0 3.703556,0.585053 3.7035945,0.58488556 0 0 0 3.703552,-0.585053 3.7035945,0.58488556 0 0 0 -0.02331,-0.05997 h 0.02331 v -3.08938 -0.05997 h -0.02331 a 3.7035945,0.58488556 0 0 0 -3.680262,-0.524853 z m -3.760082,0.584824 0.05653,3.179565 z"
       transform="matrix(1.2492503,0,0,3.8076291,102.59385,14.906579)" />
    <path
       id="path7734"
       style="mix-blend-mode:normal;fill:url(#linearGradient7736);fill-opacity:1;stroke-width:0.160907;filter:url(#filter6883)"
       d="m 74.082266,24.333569 a 3.7035945,0.58488556 0 0 0 -3.680688,0.524853 h -0.02285 v 0.05997 3.08938 h 0.02285 a 3.7035945,0.58488556 0 0 0 -0.02285,0.05997 3.7035945,0.58488556 0 0 0 3.703556,0.585053 3.7035945,0.58488556 0 0 0 3.703552,-0.585053 3.7035945,0.58488556 0 0 0 -0.02331,-0.05997 h 0.02331 v -3.08938 -0.05997 h -0.02331 a 3.7035945,0.58488556 0 0 0 -3.680262,-0.524853 z m -3.760082,0.584824 0.05653,3.179565 z"
       transform="matrix(3.2476089,0,0,4.4609857,31.579742,-2.652474)" />
    <path
       style="fill:none;stroke:url(#linearGradient5322);stroke-width:1.32292;stroke-dasharray:0.661458, 0.661458;stroke-dashoffset:0;stroke-opacity:1;filter:url(#filter5312)"
       d="m 75.00504,34.509531 -5.993736,4.149508 -4.610566,3.07371 -4.456877,4.45688 -7.22322,5.378992 -5.378992,3.073709 -5.686362,3.07371 -7.376903,3.381081 -7.991647,2.920024 -7.376903,2.305283"
       id="path5310"
       transform="matrix(3.2476089,0,0,3.2476089,31.579743,29.244182)" />
    <path
       style="fill:none;stroke:url(#linearGradient4469);stroke-width:1.32292;stroke-dasharray:0.661458, 0.661458;stroke-dashoffset:0;stroke-opacity:1;filter:url(#filter2452)"
       d="m 4.3031939,18.74963 -5.6863633,-4.76425 -5.5326777,0.614742 -3.9958229,4.149508 -2.151597,6.454791 1.075799,7.223219 3.0737093,8.452702 5.0716214,8.913757 7.530589,6.45479 4.3031939,5.532679"
       id="path2342"
       transform="matrix(3.2476089,0,0,3.2476089,31.579743,29.244182)" />
    <path
       id="path67148"
       style="fill:url(#linearGradient67150);fill-opacity:1;stroke-width:0.277227"
       d="m 46.054951,105.07526 a 7.6948347,0.70235672 0.02993193 0 0 7.648106,-0.62535 l 0.04699,3e-5 3.6e-5,-0.0721 0.0019,-3.71061 -0.04699,-2e-5 a 7.6948347,0.70235672 0.02993193 0 0 0.04703,-0.0721 7.6948347,0.70235672 0.02993193 0 0 -4.423532,-0.636687 l 0.0049,-9.356234 -0.02011,-9e-6 a 3.2368325,1.9865112 0.02993193 0 0 0.02011,-0.203059 3.2368325,1.9865112 0.02993193 0 0 -3.236305,-1.988739 3.2368325,1.9865112 0.02993193 0 0 -3.2367,1.98536 3.2368325,1.9865112 0.02993193 0 0 0.02011,0.203059 l -0.02011,-9e-6 -0.0049,9.352881 a 7.6948347,0.70235672 0.02993193 0 0 -4.493004,0.635377 7.6948347,0.70235672 0.02993193 0 0 0.04865,0.0722 l -0.04868,-2e-5 -0.0019,3.7106 -3.9e-5,0.0721 0.04868,2e-5 a 7.6948347,0.70235672 0.02993193 0 0 7.64577,0.63333 z m 7.812611,-0.69743 -0.115484,-3.81807 z"
       inkscape:transform-center-x="-25.953743"
       inkscape:transform-center-y="14.973331" />
    <path
       id="path65692"
       style="fill:url(#linearGradient65694);fill-opacity:1;stroke-width:0.277227"
       d="m 160.97217,176.25372 a 7.6948347,0.70235672 0 0 0 -7.64779,0.62933 h -0.0469 v 0.0721 3.7106 h 0.0469 a 7.6948347,0.70235672 0 0 0 -0.0469,0.0722 7.6948347,0.70235672 0 0 0 4.42387,0.63438 v 9.35623 h 0.0202 a 3.2368325,1.9865112 0 0 0 -0.0202,0.20305 3.2368325,1.9865112 0 0 0 3.23734,1.98706 3.2368325,1.9865112 0 0 0 3.23567,-1.98706 3.2368325,1.9865112 0 0 0 -0.0202,-0.20305 h 0.0202 v -9.35288 a 7.6948347,0.70235672 0 0 0 4.49267,-0.63773 7.6948347,0.70235672 0 0 0 -0.0486,-0.0722 h 0.0486 v -3.7106 -0.0721 h -0.0486 a 7.6948347,0.70235672 0 0 0 -7.64608,-0.62933 z m -7.81225,0.7015 0.11746,3.81801 z" />
    <path
       id="path63505"
       style="fill:url(#linearGradient63507);fill-opacity:1;stroke-width:0.277227"
       d="m 274.27022,125.84356 a 7.6948347,0.70235672 0 0 0 -7.64778,0.62935 h -0.0469 v 0.0721 3.71061 h 0.0469 a 7.6948347,0.70235672 0 0 0 -0.0469,0.0721 7.6948347,0.70235672 0 0 0 4.42387,0.63438 v 9.35624 h 0.0202 a 3.2368325,1.9865112 0 0 0 -0.0202,0.20305 3.2368325,1.9865112 0 0 0 3.23733,1.98705 3.2368325,1.9865112 0 0 0 3.23567,-1.98705 3.2368325,1.9865112 0 0 0 -0.0202,-0.20305 h 0.0202 v -9.35289 a 7.6948347,0.70235672 0 0 0 4.49267,-0.63773 7.6948347,0.70235672 0 0 0 -0.0486,-0.0721 h 0.0486 v -3.71061 -0.0721 h -0.0486 a 7.6948347,0.70235672 0 0 0 -7.64609,-0.62935 z m -7.81225,0.70151 0.11746,3.81802 z" />
    <path
       id="path57631"
       style="fill:url(#linearGradient57633);fill-opacity:1;stroke-width:1.67991"
       d="M 75.215554,165.27274 A 19.58285,12.056984 0 0 0 55.753816,176.0922 h -0.12078 v 1.23604 63.68526 h 0.12078 a 19.58285,12.056984 0 0 0 -0.12078,1.23605 19.58285,12.056984 0 0 0 19.582648,12.06043 19.58285,12.056984 0 0 0 19.582635,-12.06043 19.58285,12.056984 0 0 0 -0.123287,-1.23605 h 0.123287 V 177.32824 176.0922 H 94.675032 A 19.58285,12.056984 0 0 0 75.215593,165.27274 Z m -19.881537,12.05572 0.298896,65.54435 z" />
    <path
       id="path53921"
       style="fill:url(#linearGradient53925);fill-opacity:1;stroke-width:0.747037"
       d="m 161.58867,124.74075 a 8.3128194,5.6167507 0 0 0 -8.2614,5.04024 h -0.0512 v 0.5759 29.66781 h 0.0512 a 8.3128194,5.6167507 0 0 0 -0.0512,0.57592 8.3128194,5.6167507 0 0 0 8.31273,5.61834 8.3128194,5.6167507 0 0 0 8.31274,-5.61834 8.3128194,5.6167507 0 0 0 -0.0523,-0.57592 h 0.0523 v -29.66781 -0.5759 h -0.0523 a 8.3128194,5.6167507 0 0 0 -8.26047,-5.04024 z m -8.4396,5.61614 0.12689,30.53387 z" />
    <path
       id="path31294-6"
       style="fill:url(#linearGradient31318-3);fill-opacity:1;stroke-width:0.747037"
       d="m 49.525567,124.74075 a 8.3128194,5.6167507 0 0 0 -8.261406,5.04024 h -0.05127 v 0.5759 29.66781 h 0.05127 a 8.3128194,5.6167507 0 0 0 -0.05127,0.57592 8.3128194,5.6167507 0 0 0 8.312733,5.61834 8.3128194,5.6167507 0 0 0 8.312727,-5.61834 8.3128194,5.6167507 0 0 0 -0.05231,-0.57592 h 0.05231 v -29.66781 -0.5759 h -0.05231 a 8.3128194,5.6167507 0 0 0 -8.26045,-5.04024 z m -8.439609,5.61614 0.126883,30.53387 z" />
    <path
       id="path31294"
       style="fill:url(#linearGradient31318);fill-opacity:1;stroke-width:1.14952"
       d="m 160.34518,102.57117 a 125.44374,0.88130156 0 0 0 -124.667896,0.79085 h -0.773726 v 0.0904 4.65504 h 0.773726 a 125.44374,0.88130156 0 0 0 -0.773726,0.0904 125.44374,0.88130156 0 0 0 125.442422,0.88156 125.44374,0.88130156 0 0 0 125.44237,-0.88156 125.44374,0.88130156 0 0 0 -0.78958,-0.0904 h 0.78958 v -4.65504 -0.0904 h -0.78958 a 125.44374,0.88130156 0 0 0 -124.6533,-0.79085 z m -127.357046,0.88122 1.914672,4.79093 z" />
    <path
       id="path47323"
       style="fill:url(#linearGradient47325);fill-opacity:1;stroke-width:1.14952"
       d="m 160.34518,122.8379 a 125.44374,0.88130156 0 0 0 -124.667896,0.79085 h -0.773726 v 0.0904 4.65506 h 0.773726 a 125.44374,0.88130156 0 0 0 -0.773726,0.0904 125.44374,0.88130156 0 0 0 125.442422,0.88156 125.44374,0.88130156 0 0 0 125.44237,-0.88156 125.44374,0.88130156 0 0 0 -0.78958,-0.0904 h 0.78958 v -4.65506 -0.0904 h -0.78958 a 125.44374,0.88130156 0 0 0 -124.6533,-0.79085 z m -127.357046,0.88121 1.914672,4.79095 z" />
    <rect
       style="fill:url(#linearGradient55443);fill-opacity:1;stroke-width:1.28;stroke-opacity:0.740425"
       id="rect55435"
       width="141.07234"
       height="18.677187"
       x="35.156223"
       y="160.38187" />
    <path
       sodipodi:type="star"
       style="fill:url(#linearGradient13021);fill-opacity:1;stroke:none;stroke-width:1.323;stroke-dasharray:0.661498, 0.661498;stroke-dashoffset:0;stroke-opacity:1"
       id="path12227"
       inkscape:flatsided="true"
       sodipodi:sides="8"
       sodipodi:cx="268.35666"
       sodipodi:cy="204.4622"
       sodipodi:r1="29.509672"
       sodipodi:r2="23.873827"
       sodipodi:arg1="0.93910569"
       sodipodi:arg2="1.3318048"
       inkscape:rounded="0"
       inkscape:randomized="0"
       d="m 285.78242,228.2774 -21.94378,5.34656 -19.29718,-11.736 -5.34656,-21.94378 11.736,-19.29718 21.94378,-5.34656 19.29718,11.73601 5.34656,21.94377 z"
       transform="matrix(0.18697486,0.03922086,-0.04285021,0.19470336,19.495878,147.15793)"
       inkscape:transform-center-x="-0.11372981"
       inkscape:transform-center-y="-0.54417482" />
    <path
       sodipodi:type="star"
       style="fill:url(#linearGradient13967);fill-opacity:1;stroke:none;stroke-width:1.323;stroke-dasharray:0.661498, 0.661498;stroke-dashoffset:0;stroke-opacity:1"
       id="path13965"
       inkscape:flatsided="true"
       sodipodi:sides="8"
       sodipodi:cx="268.35666"
       sodipodi:cy="204.4622"
       sodipodi:r1="29.509672"
       sodipodi:r2="23.873827"
       sodipodi:arg1="0.93910569"
       sodipodi:arg2="1.3318048"
       inkscape:rounded="0"
       inkscape:randomized="0"
       d="m 285.78242,228.2774 -21.94378,5.34656 -19.29718,-11.736 -5.34656,-21.94378 11.736,-19.29718 21.94378,-5.34656 19.29718,11.73601 5.34656,21.94377 z"
       transform="matrix(0.18697486,0.03922086,-0.04285021,0.19470336,19.495878,180.59833)"
       inkscape:transform-center-x="-0.11372981"
       inkscape:transform-center-y="-0.54417057" />
    <path
       sodipodi:type="star"
       style="fill:url(#linearGradient13971);fill-opacity:1;stroke:none;stroke-width:1.323;stroke-dasharray:0.661498, 0.661498;stroke-dashoffset:0;stroke-opacity:1"
       id="path13969"
       inkscape:flatsided="true"
       sodipodi:sides="8"
       sodipodi:cx="268.35666"
       sodipodi:cy="204.4622"
       sodipodi:r1="29.509672"
       sodipodi:r2="23.873827"
       sodipodi:arg1="0.93910569"
       sodipodi:arg2="1.3318048"
       inkscape:rounded="0"
       inkscape:randomized="0"
       d="m 285.78242,228.2774 -21.94378,5.34656 -19.29718,-11.736 -5.34656,-21.94378 11.736,-19.29718 21.94378,-5.34656 19.29718,11.73601 5.34656,21.94377 z"
       transform="matrix(0.18697486,0.03922086,-0.04285021,0.19470336,46.447838,147.15793)"
       inkscape:transform-center-x="-0.11372954"
       inkscape:transform-center-y="-0.54417482" />
    <path
       sodipodi:type="star"
       style="fill:url(#linearGradient13975);fill-opacity:1;stroke:none;stroke-width:1.323;stroke-dasharray:0.661498, 0.661498;stroke-dashoffset:0;stroke-opacity:1"
       id="path13973"
       inkscape:flatsided="true"
       sodipodi:sides="8"
       sodipodi:cx="268.35666"
       sodipodi:cy="204.4622"
       sodipodi:r1="29.509672"
       sodipodi:r2="23.873827"
       sodipodi:arg1="0.93910569"
       sodipodi:arg2="1.3318048"
       inkscape:rounded="0"
       inkscape:randomized="0"
       d="m 285.78242,228.2774 -21.94378,5.34656 -19.29718,-11.736 -5.34656,-21.94378 11.736,-19.29718 21.94378,-5.34656 19.29718,11.73601 5.34656,21.94377 z"
       transform="matrix(0.18697486,0.03922086,-0.04285021,0.19470336,46.447838,179.60011)"
       inkscape:transform-center-x="-0.11372954"
       inkscape:transform-center-y="-0.5441698" />
  </g>
</svg>
