<?xml version="1.0" encoding="UTF-8" standalone="no"?>
<!-- Created with Inkscape (http://www.inkscape.org/) -->

<svg
   width="500"
   height="500"
   viewBox="0 0 500 500"
   version="1.1"
   id="svg5"
   inkscape:export-filename="..\hendi-outline-v3.svg"
   inkscape:export-xdpi="96"
   inkscape:export-ydpi="96"
   inkscape:version="1.2 (dc2aedaf03, 2022-05-15)"
   sodipodi:docname="hendi-rotary-pump.svg"
   xmlns:inkscape="http://www.inkscape.org/namespaces/inkscape"
   xmlns:sodipodi="http://sodipodi.sourceforge.net/DTD/sodipodi-0.dtd"
   xmlns="http://www.w3.org/2000/svg"
   xmlns:svg="http://www.w3.org/2000/svg">
  <sodipodi:namedview
     id="namedview7"
     pagecolor="#ffffff"
     bordercolor="#000000"
     borderopacity="0.25"
     inkscape:showpageshadow="true"
     inkscape:pageopacity="0.0"
     inkscape:pagecheckerboard="false"
     inkscape:deskcolor="#d1d1d1"
     inkscape:document-units="px"
     showgrid="true"
     borderlayer="true"
     inkscape:lockguides="false"
     inkscape:zoom="3.3761502"
     inkscape:cx="156.39114"
     inkscape:cy="530.93016"
     inkscape:window-width="1920"
     inkscape:window-height="1001"
     inkscape:window-x="2391"
     inkscape:window-y="-9"
     inkscape:window-maximized="1"
     inkscape:current-layer="svg5"
     showguides="true"
     showborder="true">
    <inkscape:grid
       type="xygrid"
       id="grid221"
       color="#0099e5"
       opacity="0"
       empspacing="5"
       originx="0"
       originy="0" />
  </sodipodi:namedview>
  <defs
     id="defs2">
    <inkscape:path-effect
       effect="bspline"
       id="path-effect4166"
       is_visible="true"
       lpeversion="1"
       weight="33.333333"
       steps="2"
       helper_size="0"
       apply_no_weight="true"
       apply_with_weight="true"
       only_selected="false" />
    <inkscape:path-effect
       effect="bspline"
       id="path-effect4162"
       is_visible="true"
       lpeversion="1"
       weight="33.333333"
       steps="2"
       helper_size="0"
       apply_no_weight="true"
       apply_with_weight="true"
       only_selected="false" />
    <inkscape:path-effect
       effect="bspline"
       id="path-effect4158"
       is_visible="true"
       lpeversion="1"
       weight="33.333333"
       steps="2"
       helper_size="0"
       apply_no_weight="true"
       apply_with_weight="true"
       only_selected="false" />
    <inkscape:path-effect
       effect="bspline"
       id="path-effect4154"
       is_visible="true"
       lpeversion="1"
       weight="33.333333"
       steps="2"
       helper_size="0"
       apply_no_weight="true"
       apply_with_weight="true"
       only_selected="false" />
    <inkscape:path-effect
       effect="bspline"
       id="path-effect3745"
       is_visible="true"
       lpeversion="1"
       weight="33.333333"
       steps="2"
       helper_size="0"
       apply_no_weight="true"
       apply_with_weight="true"
       only_selected="false" />
    <inkscape:path-effect
       effect="bspline"
       id="path-effect3741"
       is_visible="true"
       lpeversion="1"
       weight="33.333333"
       steps="2"
       helper_size="0"
       apply_no_weight="true"
       apply_with_weight="true"
       only_selected="false" />
    <inkscape:path-effect
       effect="bspline"
       id="path-effect3737"
       is_visible="true"
       lpeversion="1"
       weight="33.333333"
       steps="2"
       helper_size="0"
       apply_no_weight="true"
       apply_with_weight="true"
       only_selected="false" />
    <inkscape:path-effect
       effect="bspline"
       id="path-effect3733"
       is_visible="true"
       lpeversion="1"
       weight="33.333333"
       steps="2"
       helper_size="0"
       apply_no_weight="true"
       apply_with_weight="true"
       only_selected="false" />
    <inkscape:path-effect
       effect="bspline"
       id="path-effect3543"
       is_visible="true"
       lpeversion="1"
       weight="33.333333"
       steps="2"
       helper_size="0"
       apply_no_weight="true"
       apply_with_weight="true"
       only_selected="false" />
    <inkscape:path-effect
       effect="bspline"
       id="path-effect3539"
       is_visible="true"
       lpeversion="1"
       weight="33.333333"
       steps="2"
       helper_size="0"
       apply_no_weight="true"
       apply_with_weight="true"
       only_selected="false" />
    <inkscape:path-effect
       effect="bspline"
       id="path-effect3535"
       is_visible="true"
       lpeversion="1"
       weight="33.333333"
       steps="2"
       helper_size="0"
       apply_no_weight="true"
       apply_with_weight="true"
       only_selected="false" />
    <inkscape:path-effect
       effect="bspline"
       id="path-effect3531"
       is_visible="true"
       lpeversion="1"
       weight="33.333333"
       steps="2"
       helper_size="0"
       apply_no_weight="true"
       apply_with_weight="true"
       only_selected="false" />
    <inkscape:path-effect
       effect="bspline"
       id="path-effect3341"
       is_visible="true"
       lpeversion="1"
       weight="33.333333"
       steps="2"
       helper_size="0"
       apply_no_weight="true"
       apply_with_weight="true"
       only_selected="false" />
    <inkscape:path-effect
       effect="bspline"
       id="path-effect3337"
       is_visible="true"
       lpeversion="1"
       weight="33.333333"
       steps="2"
       helper_size="0"
       apply_no_weight="true"
       apply_with_weight="true"
       only_selected="false" />
    <inkscape:path-effect
       effect="bspline"
       id="path-effect3333"
       is_visible="true"
       lpeversion="1"
       weight="33.333333"
       steps="2"
       helper_size="0"
       apply_no_weight="true"
       apply_with_weight="true"
       only_selected="false" />
    <inkscape:path-effect
       effect="bspline"
       id="path-effect3329"
       is_visible="true"
       lpeversion="1"
       weight="33.333333"
       steps="2"
       helper_size="0"
       apply_no_weight="true"
       apply_with_weight="true"
       only_selected="false" />
    <inkscape:path-effect
       effect="bspline"
       id="path-effect2947"
       is_visible="true"
       lpeversion="1"
       weight="33.333333"
       steps="2"
       helper_size="0"
       apply_no_weight="true"
       apply_with_weight="true"
       only_selected="false" />
    <inkscape:path-effect
       effect="bspline"
       id="path-effect2943"
       is_visible="true"
       lpeversion="1"
       weight="33.333333"
       steps="2"
       helper_size="0"
       apply_no_weight="true"
       apply_with_weight="true"
       only_selected="false" />
    <inkscape:path-effect
       effect="bspline"
       id="path-effect2939"
       is_visible="true"
       lpeversion="1"
       weight="33.333333"
       steps="2"
       helper_size="0"
       apply_no_weight="true"
       apply_with_weight="true"
       only_selected="false" />
    <inkscape:path-effect
       effect="bspline"
       id="path-effect2935"
       is_visible="true"
       lpeversion="1"
       weight="33.333333"
       steps="2"
       helper_size="0"
       apply_no_weight="true"
       apply_with_weight="true"
       only_selected="false" />
    <inkscape:path-effect
       effect="bspline"
       id="path-effect2745"
       is_visible="true"
       lpeversion="1"
       weight="33.333333"
       steps="2"
       helper_size="0"
       apply_no_weight="true"
       apply_with_weight="true"
       only_selected="false" />
    <inkscape:path-effect
       effect="bspline"
       id="path-effect2741"
       is_visible="true"
       lpeversion="1"
       weight="33.333333"
       steps="2"
       helper_size="0"
       apply_no_weight="true"
       apply_with_weight="true"
       only_selected="false" />
    <inkscape:path-effect
       effect="bspline"
       id="path-effect2737"
       is_visible="true"
       lpeversion="1"
       weight="33.333333"
       steps="2"
       helper_size="0"
       apply_no_weight="true"
       apply_with_weight="true"
       only_selected="false" />
    <inkscape:path-effect
       effect="bspline"
       id="path-effect2733"
       is_visible="true"
       lpeversion="1"
       weight="33.333333"
       steps="2"
       helper_size="0"
       apply_no_weight="true"
       apply_with_weight="true"
       only_selected="false" />
    <inkscape:path-effect
       effect="bspline"
       id="path-effect3764"
       is_visible="true"
       lpeversion="1"
       weight="33.333333"
       steps="2"
       helper_size="0"
       apply_no_weight="true"
       apply_with_weight="true"
       only_selected="false" />
    <inkscape:path-effect
       effect="bspline"
       id="path-effect3688"
       is_visible="true"
       lpeversion="1"
       weight="33.333333"
       steps="2"
       helper_size="0"
       apply_no_weight="true"
       apply_with_weight="true"
       only_selected="false" />
    <inkscape:path-effect
       effect="bspline"
       id="path-effect3680"
       is_visible="true"
       lpeversion="1"
       weight="33.333333"
       steps="2"
       helper_size="0"
       apply_no_weight="true"
       apply_with_weight="true"
       only_selected="false" />
    <inkscape:path-effect
       effect="bspline"
       id="path-effect3556"
       is_visible="true"
       lpeversion="1"
       weight="33.333333"
       steps="2"
       helper_size="0"
       apply_no_weight="true"
       apply_with_weight="true"
       only_selected="false" />
    <inkscape:path-effect
       effect="bspline"
       id="path-effect2022"
       is_visible="true"
       lpeversion="1"
       weight="33.333333"
       steps="2"
       helper_size="0"
       apply_no_weight="true"
       apply_with_weight="true"
       only_selected="false" />
    <inkscape:path-effect
       effect="bspline"
       id="path-effect2012"
       is_visible="true"
       lpeversion="1"
       weight="33.333333"
       steps="2"
       helper_size="0"
       apply_no_weight="true"
       apply_with_weight="true"
       only_selected="false" />
    <inkscape:path-effect
       effect="bspline"
       id="path-effect1854"
       is_visible="true"
       lpeversion="1"
       weight="33.333333"
       steps="2"
       helper_size="0"
       apply_no_weight="true"
       apply_with_weight="true"
       only_selected="false" />
    <inkscape:path-effect
       effect="bspline"
       id="path-effect1818"
       is_visible="true"
       lpeversion="1"
       weight="33.333333"
       steps="2"
       helper_size="0"
       apply_no_weight="true"
       apply_with_weight="true"
       only_selected="false" />
    <inkscape:path-effect
       effect="bspline"
       id="path-effect1814"
       is_visible="true"
       lpeversion="1"
       weight="33.333333"
       steps="2"
       helper_size="0"
       apply_no_weight="true"
       apply_with_weight="true"
       only_selected="false" />
    <inkscape:path-effect
       effect="bspline"
       id="path-effect1600"
       is_visible="true"
       lpeversion="1"
       weight="33.333333"
       steps="2"
       helper_size="0"
       apply_no_weight="true"
       apply_with_weight="true"
       only_selected="false" />
    <inkscape:path-effect
       effect="bspline"
       id="path-effect2453"
       is_visible="true"
       lpeversion="1"
       weight="33.333333"
       steps="2"
       helper_size="0"
       apply_no_weight="true"
       apply_with_weight="true"
       only_selected="false" />
    <inkscape:path-effect
       effect="bspline"
       id="path-effect2449"
       is_visible="true"
       lpeversion="1"
       weight="33.333333"
       steps="2"
       helper_size="0"
       apply_no_weight="true"
       apply_with_weight="true"
       only_selected="false" />
    <inkscape:path-effect
       effect="bspline"
       id="path-effect2445"
       is_visible="true"
       lpeversion="1"
       weight="33.333333"
       steps="2"
       helper_size="0"
       apply_no_weight="true"
       apply_with_weight="true"
       only_selected="false" />
    <inkscape:path-effect
       effect="bspline"
       id="path-effect2441"
       is_visible="true"
       lpeversion="1"
       weight="33.333333"
       steps="2"
       helper_size="0"
       apply_no_weight="true"
       apply_with_weight="true"
       only_selected="false" />
    <inkscape:path-effect
       effect="bspline"
       id="path-effect2437"
       is_visible="true"
       lpeversion="1"
       weight="33.333333"
       steps="2"
       helper_size="0"
       apply_no_weight="true"
       apply_with_weight="true"
       only_selected="false" />
    <inkscape:path-effect
       effect="bspline"
       id="path-effect2433"
       is_visible="true"
       lpeversion="1"
       weight="33.333333"
       steps="2"
       helper_size="0"
       apply_no_weight="true"
       apply_with_weight="true"
       only_selected="false" />
    <inkscape:path-effect
       effect="bspline"
       id="path-effect1775"
       is_visible="true"
       lpeversion="1"
       weight="33.333333"
       steps="2"
       helper_size="0"
       apply_no_weight="true"
       apply_with_weight="true"
       only_selected="false" />
    <inkscape:path-effect
       effect="bspline"
       id="path-effect1771"
       is_visible="true"
       lpeversion="1"
       weight="33.333333"
       steps="2"
       helper_size="0"
       apply_no_weight="true"
       apply_with_weight="true"
       only_selected="false" />
    <inkscape:path-effect
       effect="bspline"
       id="path-effect1710"
       is_visible="true"
       lpeversion="1"
       weight="33.333333"
       steps="2"
       helper_size="0"
       apply_no_weight="true"
       apply_with_weight="true"
       only_selected="false" />
    <inkscape:path-effect
       effect="bspline"
       id="path-effect1698"
       is_visible="true"
       lpeversion="1"
       weight="33.333333"
       steps="2"
       helper_size="0"
       apply_no_weight="true"
       apply_with_weight="true"
       only_selected="false" />
    <linearGradient
       id="linearGradient3651"
       inkscape:swatch="solid">
      <stop
         style="stop-color:#000000;stop-opacity:1;"
         offset="0"
         id="stop3649" />
    </linearGradient>
    <linearGradient
       id="linearGradient898"
       inkscape:swatch="solid">
      <stop
         style="stop-color:#000000;stop-opacity:1;"
         offset="0"
         id="stop896" />
    </linearGradient>
    <linearGradient
       id="linearGradient4079"
       inkscape:swatch="solid">
      <stop
         style="stop-color:#000000;stop-opacity:1;"
         offset="0"
         id="stop4077" />
    </linearGradient>
    <linearGradient
       id="linearGradient4073"
       inkscape:swatch="solid">
      <stop
         style="stop-color:#000000;stop-opacity:1;"
         offset="0"
         id="stop4071" />
    </linearGradient>
    <linearGradient
       id="linearGradient4067"
       inkscape:swatch="solid">
      <stop
         style="stop-color:#000000;stop-opacity:1;"
         offset="0"
         id="stop4065" />
    </linearGradient>
    <linearGradient
       id="linearGradient4061"
       inkscape:swatch="solid">
      <stop
         style="stop-color:#000000;stop-opacity:1;"
         offset="0"
         id="stop4059" />
    </linearGradient>
    <linearGradient
       id="linearGradient4055"
       inkscape:swatch="solid">
      <stop
         style="stop-color:#000000;stop-opacity:1;"
         offset="0"
         id="stop4053" />
    </linearGradient>
    <linearGradient
       id="linearGradient4049"
       inkscape:swatch="solid">
      <stop
         style="stop-color:#000000;stop-opacity:1;"
         offset="0"
         id="stop4047" />
    </linearGradient>
    <linearGradient
       id="linearGradient4043"
       inkscape:swatch="solid">
      <stop
         style="stop-color:#000000;stop-opacity:1;"
         offset="0"
         id="stop4041" />
    </linearGradient>
    <linearGradient
       id="linearGradient4037"
       inkscape:swatch="solid">
      <stop
         style="stop-color:#000000;stop-opacity:1;"
         offset="0"
         id="stop4035" />
    </linearGradient>
    <linearGradient
       id="linearGradient4031"
       inkscape:swatch="solid">
      <stop
         style="stop-color:#000000;stop-opacity:1;"
         offset="0"
         id="stop4029" />
    </linearGradient>
    <linearGradient
       id="linearGradient4025"
       inkscape:swatch="solid">
      <stop
         style="stop-color:#000000;stop-opacity:1;"
         offset="0"
         id="stop4023" />
    </linearGradient>
    <linearGradient
       id="linearGradient4019"
       inkscape:swatch="solid">
      <stop
         style="stop-color:#000000;stop-opacity:1;"
         offset="0"
         id="stop4017" />
    </linearGradient>
    <linearGradient
       id="linearGradient4013"
       inkscape:swatch="solid">
      <stop
         style="stop-color:#000000;stop-opacity:1;"
         offset="0"
         id="stop4011" />
    </linearGradient>
    <linearGradient
       id="linearGradient3281"
       inkscape:swatch="solid">
      <stop
         style="stop-color:#000000;stop-opacity:1;"
         offset="0"
         id="stop3279" />
    </linearGradient>
    <inkscape:path-effect
       effect="bspline"
       id="path-effect1710-4"
       is_visible="true"
       lpeversion="1"
       weight="33.333333"
       steps="2"
       helper_size="0"
       apply_no_weight="true"
       apply_with_weight="true"
       only_selected="false" />
    <inkscape:path-effect
       effect="bspline"
       id="path-effect1698-7"
       is_visible="true"
       lpeversion="1"
       weight="33.333333"
       steps="2"
       helper_size="0"
       apply_no_weight="true"
       apply_with_weight="true"
       only_selected="false" />
    <inkscape:path-effect
       effect="bspline"
       id="path-effect1771-3"
       is_visible="true"
       lpeversion="1"
       weight="33.333333"
       steps="2"
       helper_size="0"
       apply_no_weight="true"
       apply_with_weight="true"
       only_selected="false" />
    <inkscape:path-effect
       effect="bspline"
       id="path-effect1775-4"
       is_visible="true"
       lpeversion="1"
       weight="33.333333"
       steps="2"
       helper_size="0"
       apply_no_weight="true"
       apply_with_weight="true"
       only_selected="false" />
    <inkscape:path-effect
       effect="bspline"
       id="path-effect2364"
       is_visible="true"
       lpeversion="1"
       weight="33.333333"
       steps="2"
       helper_size="0"
       apply_no_weight="true"
       apply_with_weight="true"
       only_selected="false" />
    <inkscape:path-effect
       effect="bspline"
       id="path-effect2368"
       is_visible="true"
       lpeversion="1"
       weight="33.333333"
       steps="2"
       helper_size="0"
       apply_no_weight="true"
       apply_with_weight="true"
       only_selected="false" />
    <inkscape:path-effect
       effect="bspline"
       id="path-effect2372"
       is_visible="true"
       lpeversion="1"
       weight="33.333333"
       steps="2"
       helper_size="0"
       apply_no_weight="true"
       apply_with_weight="true"
       only_selected="false" />
    <inkscape:path-effect
       effect="bspline"
       id="path-effect2376"
       is_visible="true"
       lpeversion="1"
       weight="33.333333"
       steps="2"
       helper_size="0"
       apply_no_weight="true"
       apply_with_weight="true"
       only_selected="false" />
    <inkscape:path-effect
       effect="bspline"
       id="path-effect2380"
       is_visible="true"
       lpeversion="1"
       weight="33.333333"
       steps="2"
       helper_size="0"
       apply_no_weight="true"
       apply_with_weight="true"
       only_selected="false" />
    <inkscape:path-effect
       effect="bspline"
       id="path-effect2384"
       is_visible="true"
       lpeversion="1"
       weight="33.333333"
       steps="2"
       helper_size="0"
       apply_no_weight="true"
       apply_with_weight="true"
       only_selected="false" />
    <inkscape:path-effect
       effect="bspline"
       id="path-effect2582"
       is_visible="true"
       lpeversion="1"
       weight="33.333333"
       steps="2"
       helper_size="0"
       apply_no_weight="true"
       apply_with_weight="true"
       only_selected="false" />
    <inkscape:path-effect
       effect="bspline"
       id="path-effect2586"
       is_visible="true"
       lpeversion="1"
       weight="33.333333"
       steps="2"
       helper_size="0"
       apply_no_weight="true"
       apply_with_weight="true"
       only_selected="false" />
    <inkscape:path-effect
       effect="bspline"
       id="path-effect2590"
       is_visible="true"
       lpeversion="1"
       weight="33.333333"
       steps="2"
       helper_size="0"
       apply_no_weight="true"
       apply_with_weight="true"
       only_selected="false" />
    <inkscape:path-effect
       effect="bspline"
       id="path-effect2594"
       is_visible="true"
       lpeversion="1"
       weight="33.333333"
       steps="2"
       helper_size="0"
       apply_no_weight="true"
       apply_with_weight="true"
       only_selected="false" />
    <inkscape:path-effect
       effect="bspline"
       id="path-effect2598"
       is_visible="true"
       lpeversion="1"
       weight="33.333333"
       steps="2"
       helper_size="0"
       apply_no_weight="true"
       apply_with_weight="true"
       only_selected="false" />
    <inkscape:path-effect
       effect="bspline"
       id="path-effect2602"
       is_visible="true"
       lpeversion="1"
       weight="33.333333"
       steps="2"
       helper_size="0"
       apply_no_weight="true"
       apply_with_weight="true"
       only_selected="false" />
  </defs>
  <g
     inkscape:groupmode="layer"
     id="g4150"
     inkscape:label="Rotary Pump">
    <g
       inkscape:groupmode="layer"
       id="g4042"
       inkscape:label="tubes"
       style="fill:#b3b3b3">
      <path
         style="fill:#cccccc"
         d="m 62.399058,395.40151 c -0.569565,0 -1.14013,0 -1.529154,0 -0.389024,0 -0.596498,0 -1.556168,0.10369 -0.959671,0.10369 -2.671332,0.31116 -4.486979,0.82981 -1.815647,0.51865 -3.734782,1.34855 -5.083739,2.64564 -1.348958,1.2971 -2.126985,3.06063 -2.749397,5.13559 -0.622412,2.07495 -1.089228,4.4609 -1.296625,7.9882 -0.207396,3.52729 -0.155528,8.19546 0.155925,11.25587 0.311454,3.06042 0.882008,4.51274 3.683297,5.34207 2.801288,0.82933 7.832534,1.03681 24.794145,1.1924 16.961611,0.15559 45.852367,0.25932 60.323987,0.31119 14.47161,0.0519 14.52345,0.0519 14.54888,1.73816 0.0254,1.6863 0.0254,5.05775 0.0513,6.63962 0.0258,1.58187 0.0777,1.3744 -15.58662,1.37405 -15.66433,-3.6e-4 -47.044774,0.20712 -63.617021,0.10351 -16.572246,-0.1036 -18.335776,-0.51855 -20.125309,-0.88168 -1.789534,-0.36313 -3.604931,-0.67434 -5.576034,-1.76325 -1.971103,-1.08891 -4.097713,-2.95618 -5.472707,-5.93862 -1.374993,-2.98244 -1.997415,-7.08005 -2.334645,-10.84068 -0.33723,-3.76064 -0.389099,-7.18396 -0.285395,-10.89271 0.103704,-3.70875 0.363047,-7.70263 1.400474,-10.65966 1.037428,-2.95704 2.852823,-4.87617 4.434941,-6.35453 1.582119,-1.47836 2.930699,-2.51574 4.564761,-3.47538 1.634063,-0.95964 3.553196,-1.84141 5.47259,-2.41193 1.919394,-0.57052 3.838529,-0.82986 5.57625,-0.95948 1.73772,-0.12962 3.293775,-0.12962 4.848861,-0.12962"
         id="path4036"
         inkscape:path-effect="#path-effect4154"
         inkscape:original-d="m 62.399058,395.40151 c -0.569565,0.001 -1.14013,0.001 -1.711695,0 -0.206483,0.001 -0.413957,0.001 -0.622435,0 -1.710729,0.20848 -3.422389,0.41596 -5.135084,0.62243 -1.918212,0.83093 -3.837346,1.66083 -5.757519,2.48974 -0.777059,1.7646 -1.555087,3.52813 -2.33413,5.2907 -0.465835,2.38704 -0.932651,4.77299 -1.400477,7.15799 0.05287,4.66935 0.104739,9.33752 0.155608,14.00478 0.571577,1.45337 1.14213,2.90569 1.711695,4.35704 5.032446,0.20848 10.063691,0.41596 15.094037,0.62243 28.892912,0.10474 57.783672,0.20848 86.674002,0.31122 0.0529,0.001 0.10474,0.001 0.15561,0 0.001,3.37259 0.001,6.74404 0,10.11456 0.0529,-0.20648 0.10474,-0.41396 0.15561,-0.62243 -31.3807,0.20848 -62.761147,0.41595 -94.143219,0.62243 -1.7626,-0.41396 -3.526129,-0.82891 -5.290693,-1.24487 -1.81447,-0.31022 -3.629868,-0.62143 -5.446302,-0.93365 -2.125694,-1.86634 -4.252302,-3.73361 -6.379954,-5.60191 -0.621446,-4.09678 -1.243868,-8.19439 -1.867303,-12.29308 -0.05087,-3.42246 -0.102739,-6.84578 -0.155609,-10.27017 0.260353,-3.99303 0.519696,-7.98691 0.778044,-11.98186 1.81647,-1.91822 3.631867,-3.83735 5.446301,-5.75752 1.349635,-1.03641 2.698216,-2.07378 4.045824,-3.11218 1.920212,-0.8808 3.839346,-1.76256 5.757519,-2.64534 1.920212,-0.25835 3.839347,-0.5177 5.75752,-0.77805 1.557117,0.001 3.113172,0.001 4.668258,0" />
      <path
         id="path4038"
         style="fill:#cccccc"
         d="m 197.8125,380.8418 c -2.69323,0.0178 -5.5951,0.23648 -8.40234,0.57617 -3.74301,0.45292 -7.31854,1.12097 -10.29883,2.16992 -2.98029,1.04896 -5.36436,2.47921 -7.36719,4.50586 -2.00282,2.02665 -3.62371,4.64898 -4.625,6.91406 -1.00129,2.26509 -1.38275,4.17125 -1.62109,6.7461 -0.23834,2.57483 -0.3332,5.8167 -0.38086,9.03515 -0.0477,3.21846 -0.0483,6.41341 -0.0723,8.08203 -0.0239,1.66864 -0.0705,1.812 1.52735,1.85938 1.59786,0.0474 4.8382,3.5e-4 6.43554,-0.0234 1.59735,-0.0238 1.55014,-0.0235 1.50196,-2.47851 -0.0482,-2.45503 -0.0958,-7.36621 0.26171,-11.22852 0.35751,-3.86231 1.12168,-6.67556 2.12305,-8.75 1.00137,-2.07444 2.24002,-3.40908 3.74219,-4.50586 1.50216,-1.09678 3.26591,-1.95673 4.74414,-2.55273 1.47823,-0.59601 2.67035,-0.9285 4.60156,-1.11914 1.93122,-0.19064 4.60122,-0.23789 6.00781,-0.26172 1.40661,-0.0238 1.55028,-0.0243 2.50391,0.0234 0.95363,0.0477 2.71805,0.14185 4.7207,0.52344 2.00266,0.38159 4.24271,1.05008 5.72071,1.76563 1.47799,0.71554 2.19442,1.47896 3.05273,2.26562 0.85832,0.78666 1.85814,1.59593 2.52539,2.38281 0.66725,0.7869 1.00135,1.55012 1.16797,2.28907 0.16662,0.73894 0.16602,1.45376 0.16602,2.16797 l 0.78711,0.0801 h 0.36914 c 0.17613,-0.005 0.35124,-0.0155 0.52734,-0.0215 0.15119,-0.005 0.30186,-0.008 0.45313,-0.01 0.1112,-10e-4 0.22274,-0.002 0.33398,-0.002 0.11122,-2.3e-4 0.22276,5e-5 0.33398,0 0.10565,-3e-5 0.21076,0 0.31641,0 0.12184,-1e-5 0.24339,0 0.36523,0 h 0.42188 0.35547 c 0.12105,-0.003 0.24262,0.008 0.36328,0.0156 0.10877,0.007 0.21718,0.01 0.32617,0.0117 0.11193,0.002 0.22399,0.004 0.33594,0.004 0.14737,3.8e-4 0.29406,-9e-5 0.4414,0 0.11272,6e-5 0.22519,-1e-5 0.3379,0 0.10338,10e-4 0.20752,-0.0106 0.31054,-0.0176 0.12217,-0.008 0.24483,-0.0126 0.36719,-0.01 0.13697,0.0109 0.27329,0.0289 0.41016,0.041 0.10501,0.008 0.20918,0.0126 0.31445,0.0156 0.11819,0.002 0.23726,0.004 0.35547,0.004 0.11926,0.004 0.23746,-0.0152 0.35547,-0.0293 0.0922,-0.009 0.18368,-0.0183 0.27539,-0.0273 0.0284,-1.4481 -0.003,-2.89895 -0.44531,-4.36718 -0.52411,-1.74025 -1.62038,-3.50435 -3.28907,-5.55469 -1.66869,-2.05034 -3.91043,-4.38725 -5.86523,-5.96094 -1.9548,-1.57369 -3.62423,-2.38463 -5.86524,-3.07617 -2.241,-0.69155 -5.05247,-1.26266 -8.41406,-1.42969 -0.8404,-0.0418 -1.71554,-0.0587 -2.61328,-0.0527 z m 21.69922,20.75976 0.21484,0.0215 c 0.007,-0.005 0.0216,-0.004 0.0352,0 0.0889,-0.004 0.17906,-0.007 0.26758,-0.0156 0.0196,-0.002 0.039,-0.004 0.0586,-0.006 h -0.33203 z" />
      <path
         style="fill:#cccccc"
         d="m 191.45598,430.08428 c 17.89236,-0.0461 35.78372,-0.0922 45.76676,-0.4151 9.98305,-0.32289 12.05803,-0.92233 13.80994,-2.0289 1.7519,-1.10658 3.18133,-2.72045 4.91055,-4.65717 1.72921,-1.93672 3.75809,-4.19615 6.50196,-6.34048 2.74386,-2.14434 6.20217,-4.17322 10.72141,-5.71795 4.51924,-1.54474 10.09865,-2.60529 15.12495,-3.27387 5.0263,-0.66858 9.49905,-0.94524 15.05561,-1.15273 5.55656,-0.20749 12.19652,-0.34582 18.145,-0.39191 5.94848,-0.0461 11.20512,10e-6 15.19388,0.27679 3.98876,0.27677 6.7093,0.78399 9.19939,1.56808 2.49008,0.78409 4.74951,1.84464 6.77836,3.22821 2.02884,1.38358 3.82716,3.08967 4.91047,4.54232 1.0833,1.45264 1.45219,2.65153 1.63645,4.15008 0.18426,1.49855 0.18426,3.29687 0.11509,4.26472 -0.0692,0.96785 -0.2075,1.10618 -1.70566,1.17534 -1.49816,0.0692 -4.35703,0.0692 -5.787,-0.0456 -1.42996,-0.11478 -1.42996,-0.34533 -1.476,-0.82946 -0.0461,-0.48413 -0.13827,-1.2219 -0.25353,-2.05191 -0.11527,-0.83002 -0.25361,-1.75223 -0.71423,-2.46716 -0.46063,-0.71492 -1.24452,-1.22214 -2.30508,-1.70648 -1.06056,-0.48435 -2.39778,-0.94546 -3.66598,-1.15319 -1.26821,-0.20773 -2.46709,-0.16162 -4.1732,-0.18463 -1.70612,-0.023 -3.91944,-0.11524 -7.83903,-0.0692 -3.91959,0.0461 -9.54511,0.23052 -16.41586,0.50719 -6.87074,0.27667 -14.98624,0.64556 -20.49664,0.94527 -5.51041,0.29972 -8.41538,0.53027 -10.46741,0.73775 -2.05203,0.20747 -3.25091,0.39192 -4.51912,0.71466 -1.26821,0.32275 -2.60543,0.78386 -3.6894,1.52182 -1.08397,0.73795 -1.91396,1.75239 -2.60555,2.49009 -0.69159,0.7377 -1.24492,1.19881 -1.89061,1.93673 -0.64568,0.73793 -1.38345,1.75237 -2.19037,2.74372 -0.80692,0.99134 -1.68303,1.95968 -2.85885,3.11243 -1.17582,1.15276 -2.65136,2.48997 -4.8875,3.57354 -2.23614,1.08356 -5.23335,1.91356 -7.93087,2.5822 -2.69751,0.66864 -5.09527,1.17585 -7.60829,1.49869 -2.51303,0.32284 -5.14135,0.46117 -14.31772,0.59953 -9.17637,0.13836 -24.90016,0.27669 -40.62526,0.41503"
         id="path4040"
         inkscape:path-effect="#path-effect4158"
         inkscape:original-d="m 191.45598,430.08428 c 17.89236,-0.0451 35.78372,-0.0912 53.67408,-0.13833 2.07607,-0.59847 4.15105,-1.19791 6.22508,-1.79836 1.4305,-1.61295 2.85993,-3.22682 4.2884,-4.84174 2.02995,-2.25852 4.05883,-4.51795 6.08675,-6.77842 3.45945,-2.02796 6.91776,-4.05684 10.37514,-6.08675 5.58063,-1.0596 11.16004,-2.12014 16.73856,-3.18171 4.47393,-0.27568 8.94668,-0.55235 13.41852,-0.83002 6.64123,-0.13733 13.28119,-0.27567 19.92028,-0.415 5.25784,0.0471 10.51448,0.0932 15.77022,0.13833 2.72164,0.50824 5.44218,1.01546 8.16178,1.52169 2.26052,1.06159 4.51995,2.12214 6.77842,3.18171 1.7994,1.70717 3.59772,3.41327 5.39508,5.11841 0.3699,1.19993 0.73879,2.39881 1.10668,3.59671 10e-4,1.7994 10e-4,3.59772 0,5.39508 -0.13734,0.13934 -0.27567,0.27767 -0.41501,0.415 -2.85798,0.001 -5.71685,0.001 -8.57678,0 10e-4,-0.22956 10e-4,-0.46011 0,-0.69167 -0.0912,-0.73681 -0.18345,-1.47458 -0.27667,-2.21337 -0.13734,-0.92125 -0.27567,-1.84347 -0.41501,-2.7667 -0.78291,-0.50624 -1.5668,-1.01346 -2.3517,-1.52169 -1.33626,-0.46013 -2.67348,-0.92123 -4.01172,-1.38335 -1.19793,0.0471 -2.39681,0.0932 -3.59671,0.13833 -2.21241,-0.0912 -4.42573,-0.18344 -6.6401,-0.27667 -5.62474,0.18545 -11.25026,0.3699 -16.8769,0.55334 -8.11483,0.3699 -16.23033,0.73879 -24.347,1.10669 -2.9041,0.23156 -5.80908,0.46211 -8.71512,0.69167 -1.19793,0.18545 -2.39681,0.3699 -3.59672,0.55334 -1.33626,0.46213 -2.67348,0.92324 -4.01172,1.38335 -0.82903,1.01548 -1.65902,2.02992 -2.49003,3.04338 -0.55236,0.46213 -1.10569,0.92324 -1.66003,1.38335 -0.7368,1.01548 -1.47457,2.02992 -2.21336,3.04338 -0.87514,0.96936 -1.75125,1.93769 -2.62837,2.90504 -1.47461,1.33827 -2.95015,2.67548 -4.42673,4.01172 -2.99632,0.83103 -5.99353,1.66102 -8.99179,2.49004 -2.39686,0.50823 -4.79462,1.01545 -7.19343,1.52168 -2.62742,0.13934 -5.25574,0.27767 -7.88511,0.41501 -15.72342,0.13934 -31.44721,0.27767 -47.17232,0.415" />
    </g>
    <g
       inkscape:groupmode="layer"
       id="g4106"
       inkscape:label="Rotary Pump  main"
       style="display:inline">
      <path
         id="rect4066"
         style="fill:#999999;fill-opacity:1;stroke-width:1;stroke:#000000;stroke-opacity:1;stroke-dasharray:none;paint-order:markers stroke fill"
         d="M 163.69336 419.81055 L 163.69336 421.61719 L 164.4668 421.61719 L 164.4668 429.84961 L 150.8457 429.84961 L 150.8457 429.24805 L 149.12695 429.24805 L 149.12695 441.00195 L 150.8457 441.00195 L 150.8457 440.26562 L 164.4668 440.26562 L 164.4668 459.71094 L 175.58008 459.71094 L 175.58008 440.26562 L 189.33008 440.26562 L 189.33008 441.00195 L 191.04883 441.00195 L 191.04883 429.24805 L 189.33008 429.24805 L 189.33008 429.84961 L 175.58008 429.84961 L 175.58008 421.61719 L 176.23633 421.61719 L 176.23633 419.81055 L 163.69336 419.81055 z M 139.80469 447.4707 C 139.44492 447.47023 139.02923 447.47283 138.53711 447.47656 C 136.56864 447.49147 133.37659 447.52128 131.73633 447.52148 C 131.23461 447.52155 130.87922 447.51877 130.625 447.55078 L 123.6543 447.55078 L 123.6543 454.88672 L 130.90039 454.88672 L 130.90039 454.85547 C 131.72761 454.82949 133.26002 454.85859 134.28711 454.87305 C 135.34588 454.88795 135.85216 454.88672 136.31445 454.88672 C 136.77674 454.88672 137.19547 454.88804 137.56836 454.91797 C 137.94125 454.9479 138.26935 455.00671 138.67188 455.32031 C 139.0744 455.63392 139.55092 456.20115 139.78906 456.97656 C 140.02721 457.75197 140.02734 458.73553 140.02734 459.71875 L 149.95898 459.54102 C 149.98879 458.61741 150.01875 457.69123 150.00391 456.87109 C 149.98906 456.05096 149.92876 455.33541 149.75 454.58984 C 149.57124 453.84428 149.27263 453.06847 148.81055 452.29297 C 148.34847 451.51746 147.72224 450.74297 147.02148 450.10156 C 146.32073 449.46016 145.5453 448.95287 144.69531 448.53516 C 143.84532 448.11744 142.92114 447.78925 142.08594 447.625 C 141.45954 447.50181 140.88399 447.47211 139.80469 447.4707 z M 135.28711 460.18359 L 135.28711 473.39258 L 135.19922 473.39453 L 135.19922 464.95117 C 135.19922 464.95117 115.12695 467.10134 115.12695 469.96875 C 115.12695 471.34242 115.09288 472.7656 115.05859 473.89258 L 115.01562 473.89453 C 115.01562 473.89453 115.00262 475.06959 114.99805 475.55273 C 114.9948 475.62833 114.98242 475.99023 114.98242 475.99023 L 114.99414 475.99023 C 114.97129 478.35197 114.92773 482.68875 114.87305 484.92969 C 114.80293 487.8047 134.43848 490.04891 135.28711 490.14453 L 135.28711 495.85156 L 185.71094 495.85156 L 185.71094 460.18359 L 135.28711 460.18359 z "
         inkscape:label="Rotary Pump" />
      <g
         inkscape:groupmode="layer"
         id="g4104"
         inkscape:label="red panel">
        <rect
           style="display:inline;fill:#ff0000;stroke-width:1;stroke-dasharray:none;stroke:#000000;stroke-opacity:1;paint-order:markers stroke fill"
           id="rect4088"
           width="20.394497"
           height="35.642319"
           x="137.35861"
           y="460.17581"
           inkscape:label="red"
           sodipodi:insensitive="true" />
        <g
           inkscape:groupmode="layer"
           id="g4102"
           inkscape:label="bolts"
           style="display:inline">
          <path
             sodipodi:type="star"
             style="display:inline;fill:#333333;stroke:#000000;stroke-opacity:1;stroke-width:0.66586197;stroke-dasharray:none;paint-order:markers stroke fill"
             id="path4090"
             inkscape:flatsided="true"
             sodipodi:sides="6"
             sodipodi:cx="138.66966"
             sodipodi:cy="461.3873"
             sodipodi:r1="1.1358846"
             sodipodi:r2="0.98370498"
             sodipodi:arg1="1.0427219"
             sodipodi:arg2="1.5663207"
             inkscape:rounded="0.04"
             inkscape:randomized="0"
             d="m 139.242,462.36845 c -0.0392,0.0229 -1.09642,0.0276 -1.13587,0.005 -0.0395,-0.0225 -0.57214,-0.93572 -0.57234,-0.98116 -2e-4,-0.0454 0.52429,-0.96334 0.56353,-0.98623 0.0393,-0.0229 1.09643,-0.0276 1.13588,-0.005 0.0394,0.0225 0.57213,0.93572 0.57234,0.98115 2e-4,0.0454 -0.52429,0.96335 -0.56354,0.98624 z"
             transform="matrix(0.73216122,0,0,0.77013146,37.731665,106.19441)" />
          <path
             sodipodi:type="star"
             style="display:inline;fill:#333333;stroke:#000000;stroke-opacity:1;stroke-width:0.66586197;stroke-dasharray:none;paint-order:markers stroke fill"
             id="path4092"
             inkscape:flatsided="true"
             sodipodi:sides="6"
             sodipodi:cx="138.66966"
             sodipodi:cy="461.3873"
             sodipodi:r1="1.1358846"
             sodipodi:r2="0.98370498"
             sodipodi:arg1="1.0427219"
             sodipodi:arg2="1.5663207"
             inkscape:rounded="0.04"
             inkscape:randomized="0"
             d="m 139.242,462.36845 c -0.0392,0.0229 -1.09642,0.0276 -1.13587,0.005 -0.0395,-0.0225 -0.57214,-0.93572 -0.57234,-0.98116 -2e-4,-0.0454 0.52429,-0.96334 0.56353,-0.98623 0.0393,-0.0229 1.09643,-0.0276 1.13588,-0.005 0.0394,0.0225 0.57213,0.93572 0.57234,0.98115 2e-4,0.0454 -0.52429,0.96335 -0.56354,0.98624 z"
             transform="matrix(0.73216122,0,0,0.77013146,54.848569,106.09723)" />
          <path
             sodipodi:type="star"
             style="display:inline;fill:#333333;stroke:#000000;stroke-opacity:1;stroke-width:0.5;stroke-dasharray:none;paint-order:markers stroke fill"
             id="path4094"
             inkscape:flatsided="true"
             sodipodi:sides="6"
             sodipodi:cx="138.66966"
             sodipodi:cy="461.3873"
             sodipodi:r1="1.1358846"
             sodipodi:r2="0.98370498"
             sodipodi:arg1="1.0427219"
             sodipodi:arg2="1.5663207"
             inkscape:rounded="0.04"
             inkscape:randomized="0"
             d="m 139.242,462.36845 c -0.0392,0.0229 -1.09642,0.0276 -1.13587,0.005 -0.0395,-0.0225 -0.57214,-0.93572 -0.57234,-0.98116 -2e-4,-0.0454 0.52429,-0.96334 0.56353,-0.98623 0.0393,-0.0229 1.09643,-0.0276 1.13588,-0.005 0.0394,0.0225 0.57213,0.93572 0.57234,0.98115 2e-4,0.0454 -0.52429,0.96335 -0.56354,0.98624 z"
             transform="translate(17.170175,15.780222)" />
          <path
             sodipodi:type="star"
             style="display:inline;fill:#333333;stroke:#000000;stroke-opacity:1;stroke-width:0.5;stroke-dasharray:none;paint-order:markers stroke fill"
             id="path4096"
             inkscape:flatsided="true"
             sodipodi:sides="6"
             sodipodi:cx="138.66966"
             sodipodi:cy="461.3873"
             sodipodi:r1="1.1358846"
             sodipodi:r2="0.98370498"
             sodipodi:arg1="1.0427219"
             sodipodi:arg2="1.5663207"
             inkscape:rounded="0.04"
             inkscape:randomized="0"
             d="m 139.242,462.36845 c -0.0392,0.0229 -1.09642,0.0276 -1.13587,0.005 -0.0395,-0.0225 -0.57214,-0.93572 -0.57234,-0.98116 -2e-4,-0.0454 0.52429,-0.96334 0.56353,-0.98623 0.0393,-0.0229 1.09643,-0.0276 1.13588,-0.005 0.0394,0.0225 0.57213,0.93572 0.57234,0.98115 2e-4,0.0454 -0.52429,0.96335 -0.56354,0.98624 z"
             transform="translate(17.333701,32.786878)" />
          <path
             sodipodi:type="star"
             style="display:inline;fill:#333333;stroke:#000000;stroke-opacity:1;stroke-width:0.5;stroke-dasharray:none;paint-order:markers stroke fill"
             id="path4098"
             inkscape:flatsided="true"
             sodipodi:sides="6"
             sodipodi:cx="138.66966"
             sodipodi:cy="461.3873"
             sodipodi:r1="1.1358846"
             sodipodi:r2="0.98370498"
             sodipodi:arg1="1.0427219"
             sodipodi:arg2="1.5663207"
             inkscape:rounded="0.04"
             inkscape:randomized="0"
             d="m 139.242,462.36845 c -0.0392,0.0229 -1.09642,0.0276 -1.13587,0.005 -0.0395,-0.0225 -0.57214,-0.93572 -0.57234,-0.98116 -2e-4,-0.0454 0.52429,-0.96334 0.56353,-0.98623 0.0393,-0.0229 1.09643,-0.0276 1.13588,-0.005 0.0394,0.0225 0.57213,0.93572 0.57234,0.98115 2e-4,0.0454 -0.52429,0.96335 -0.56354,0.98624 z"
             transform="translate(0.57233332,15.861985)" />
          <path
             sodipodi:type="star"
             style="display:inline;fill:#333333;stroke:#000000;stroke-opacity:1;stroke-width:0.5;stroke-dasharray:none;paint-order:markers stroke fill"
             id="path4100"
             inkscape:flatsided="true"
             sodipodi:sides="6"
             sodipodi:cx="138.66966"
             sodipodi:cy="461.3873"
             sodipodi:r1="1.1358846"
             sodipodi:r2="0.98370498"
             sodipodi:arg1="1.0427219"
             sodipodi:arg2="1.5663207"
             inkscape:rounded="0.04"
             inkscape:randomized="0"
             d="m 139.242,462.36845 c -0.0392,0.0229 -1.09642,0.0276 -1.13587,0.005 -0.0395,-0.0225 -0.57214,-0.93572 -0.57234,-0.98116 -2e-4,-0.0454 0.52429,-0.96334 0.56353,-0.98623 0.0393,-0.0229 1.09643,-0.0276 1.13588,-0.005 0.0394,0.0225 0.57213,0.93572 0.57234,0.98115 2e-4,0.0454 -0.52429,0.96335 -0.56354,0.98624 z"
             transform="translate(0.16351949,32.705115)" />
        </g>
      </g>
    </g>
    <rect
       style="fill:#4d4d4d;stroke-width:1.07682"
       id="rect4108"
       width="24.996719"
       height="0.98267198"
       x="159.92987"
       y="461.67157"
       rx="0.30000001" />
    <rect
       style="fill:#4d4d4d;stroke-width:1.07682"
       id="rect4110"
       width="24.996719"
       height="0.98267198"
       x="159.96057"
       y="463.32983"
       rx="0.30000001"
       ry="0.30000001" />
    <rect
       style="fill:#4d4d4d;stroke-width:1.07682"
       id="rect4112"
       width="24.996719"
       height="0.98267198"
       x="160.02199"
       y="465.11093"
       rx="0.30000001"
       ry="0.30000001" />
    <rect
       style="fill:#4d4d4d;stroke-width:1.07682"
       id="rect4114"
       width="24.996719"
       height="0.98267198"
       x="159.96057"
       y="466.7692"
       rx="0.30000001"
       ry="0.30000001" />
    <rect
       style="fill:#4d4d4d;stroke-width:1.07682"
       id="rect4116"
       width="24.996719"
       height="0.98267198"
       x="159.89915"
       y="468.30463"
       rx="0.30000001"
       ry="0.30000001" />
    <rect
       style="fill:#4d4d4d;stroke-width:1.07682"
       id="rect4118"
       width="24.996719"
       height="0.98267198"
       x="159.96057"
       y="469.90146"
       rx="0.30000001"
       ry="0.30000001" />
    <rect
       style="fill:#4d4d4d;stroke-width:1.07682"
       id="rect4120"
       width="24.996719"
       height="0.98267198"
       x="160.00128"
       y="471.49194"
       rx="0.30000001"
       ry="0.30000001" />
    <rect
       style="fill:#4d4d4d;stroke-width:1.07682"
       id="rect4122"
       width="24.996719"
       height="0.98267198"
       x="160.00128"
       y="473.05963"
       rx="0.30000001"
       ry="0.30000001" />
    <rect
       style="fill:#4d4d4d;stroke-width:1.07682"
       id="rect4124"
       width="24.996719"
       height="0.98267198"
       x="159.94902"
       y="474.62732"
       rx="0.30000001"
       ry="0.30000001" />
    <rect
       style="fill:#4d4d4d;stroke-width:1.07682"
       id="rect4126"
       width="24.996719"
       height="0.98267198"
       x="159.94902"
       y="476.19504"
       rx="0.30000001"
       ry="0.30000001" />
    <rect
       style="fill:#4d4d4d;stroke-width:1.07682"
       id="rect4128"
       width="24.996719"
       height="0.98267198"
       x="159.94902"
       y="477.815"
       rx="0.30000001"
       ry="0.30000001" />
    <rect
       style="fill:#4d4d4d;stroke-width:1.07682"
       id="rect4130"
       width="24.996719"
       height="0.98267198"
       x="160.00127"
       y="479.48718"
       rx="0.30000001"
       ry="0.30000001" />
    <rect
       style="fill:#4d4d4d;stroke-width:1.07682"
       id="rect4132"
       width="24.996719"
       height="0.98267198"
       x="160.00128"
       y="481.00266"
       rx="0.30000001"
       ry="0.30000001" />
    <rect
       style="fill:#4d4d4d;stroke-width:1.07682"
       id="rect4134"
       width="24.996719"
       height="0.98267198"
       x="160.02742"
       y="482.67487"
       rx="0.30000001"
       ry="0.30000001" />
    <rect
       style="fill:#4d4d4d;stroke-width:1.07682"
       id="rect4136"
       width="24.996719"
       height="0.98267198"
       x="160.02742"
       y="484.24258"
       rx="0.30000001"
       ry="0.30000001" />
    <rect
       style="fill:#4d4d4d;stroke-width:1.07682"
       id="rect4138"
       width="24.996719"
       height="0.98267198"
       x="160.02742"
       y="485.86255"
       rx="0.30000001"
       ry="0.30000001" />
    <rect
       style="fill:#4d4d4d;stroke-width:1.07682"
       id="rect4140"
       width="24.996719"
       height="0.98267198"
       x="160.07967"
       y="487.48248"
       rx="0.30000001"
       ry="0.30000001" />
    <rect
       style="fill:#4d4d4d;stroke-width:1.07682"
       id="rect4142"
       width="24.996719"
       height="0.98267198"
       x="159.97517"
       y="489.0502"
       rx="0.30000001"
       ry="0.30000001" />
    <rect
       style="fill:#4d4d4d;stroke-width:1.07682"
       id="rect4144"
       width="24.996719"
       height="0.98267198"
       x="160.10579"
       y="490.61792"
       rx="0.30000001"
       ry="0.30000001" />
    <rect
       style="fill:#4d4d4d;stroke-width:1.07682"
       id="rect4146"
       width="24.996719"
       height="0.98267198"
       x="160.10579"
       y="492.23788"
       rx="0.30000001"
       ry="0.30000001" />
    <rect
       style="fill:#4d4d4d;stroke-width:1.07682"
       id="rect4148"
       width="24.996719"
       height="0.98267198"
       x="160.15804"
       y="493.85782"
       rx="0.30000001"
       ry="0.30000001" />
  </g>
</svg>
